<?xml version="1.0" encoding="utf-8"?>
<!-- Generator: Adobe Illustrator 22.0.1, SVG Export Plug-In . SVG Version: 6.00 Build 0)  -->
<svg version="1.1" id="图层_1" xmlns="http://www.w3.org/2000/svg" xmlns:xlink="http://www.w3.org/1999/xlink" x="0px" y="0px"
	 viewBox="0 0 330 108.1" style="enable-background:new 0 0 330 108.1;" xml:space="preserve">
<style type="text/css">
	.st0{display:none;opacity:0.4;fill-rule:evenodd;clip-rule:evenodd;fill:#FFFFFF;}
	.st1{opacity:0.4;fill-rule:evenodd;clip-rule:evenodd;fill:#FFFFFF;}
</style>
<path class="st0" d="M346,1H0.7l-23.1,20.1L-45.6,1H-66c-2.2,0-4-1.8-4-4v-80c0-2.2,1.8-4,4-4h412c2.2,0,4,1.8,4,4v80
	C350-0.8,348.2,1,346,1z"/>
<path class="st1" d="M326,88H72.7l-23.1,20.1L26.4,88H4c-2.2,0-4-1.8-4-4V4c0-2.2,1.8-4,4-4h322c2.2,0,4,1.8,4,4v80
	C330,86.2,328.2,88,326,88z"/>
</svg>
