<?xml version="1.0" encoding="utf-8"?>
<!-- Generator: Adobe Illustrator 22.0.1, SVG Export Plug-In . SVG Version: 6.00 Build 0)  -->
<svg version="1.1" id="图层_1" xmlns="http://www.w3.org/2000/svg" xmlns:xlink="http://www.w3.org/1999/xlink" x="0px" y="0px"
	 viewBox="0 0 420 108.1" style="enable-background:new 0 0 420 108.1;" xml:space="preserve">
<style type="text/css">
	.st0{display:none;opacity:0.4;fill-rule:evenodd;clip-rule:evenodd;fill:red;}
	.st1{fill-rule:evenodd;clip-rule:evenodd;fill:none;}
</style>
<path class="st0" d="M390.5,1H45.2L22,21.1L-1.1,1h-20.4c-2.2,0-4-1.8-4-4v-80c0-2.2,1.8-4,4-4h412c2.2,0,4,1.8,4,4v80
	C394.5-0.8,392.7,1,390.5,1z"/>
<path class="st0" d="M370.5,88H117.2L94,108.1L70.9,88H48.5c-2.2,0-4-1.8-4-4V4c0-2.2,1.8-4,4-4h322c2.2,0,4,1.8,4,4v80
	C374.5,86.2,372.7,88,370.5,88z"/>
<path class="st1" d="M416,88H70.7l-23.1,20.1L24.4,88H4c-2.2,0-4-1.8-4-4V4c0-2.2,1.8-4,4-4h412c2.2,0,4,1.8,4,4v80
	C420,86.2,418.2,88,416,88z"/>
</svg>
