<?xml version="1.0" encoding="utf-8"?>
<!-- Generator: Adobe Illustrator 19.0.0, SVG Export Plug-In . SVG Version: 6.00 Build 0)  -->
<svg version="1.1" id="图层_1" xmlns="http://www.w3.org/2000/svg" xmlns:xlink="http://www.w3.org/1999/xlink" x="0px" y="0px"
	 viewBox="0 0 282.1 50.2" style="enable-background:new 0 0 282.1 50.2;" xml:space="preserve">
<style type="text/css">
	.st0{fill:#FFFFFF;}
</style>
<g id="XMLID_41_">
	<path id="XMLID_43_" class="st0" d="M36.5,50.2c-1.1-1.5-1.7-2.2-5.2-5.6c-3.4,2-6.4,2.8-10.6,2.8C8.1,47.4,0,38.2,0,23.8
		C0,9.3,8.2,0,20.8,0s20.7,9.2,20.7,23.6c0,4.3-0.7,8.2-2.2,11.5c-1.1,2.7-2.2,4.1-4.8,7c2.8,2.7,3.5,3.4,5.2,4.7L36.5,50.2z
		 M26.5,33.9c1,1.2,1.8,2.1,4.8,5.1c1.9-2,2.5-3,3.4-4.9c1.3-3.1,1.9-6.5,1.9-10.5c0-11.8-6.1-19.4-15.7-19.4c-9.7,0-16,7.7-16,19.5
		c0,11.9,6.3,19.5,16.1,19.5c2.7,0,4.9-0.5,7.1-1.8c-2-2-3.1-2.9-4.9-4.3L26.5,33.9z"/>
	<path id="XMLID_46_" class="st0" d="M131.2,0.9c-0.4,2.1-0.5,3.8-0.5,6.8v22.3c0,5.3-1.6,9.7-4.6,12.8c-3,3.1-7.8,4.7-13.6,4.7
		c-5.9,0-10.7-1.7-13.7-4.9c-2.9-3.1-4.4-7.4-4.4-12.7V7.8c0-3.1-0.1-4.8-0.5-6.9h5.6C99.1,2.8,99,4.6,99,7.8v22
		c0,8.6,4.9,13.6,13.5,13.6c4.6,0,8.3-1.4,10.5-4c1.9-2.3,3-5.7,3-9.5v-22c0-3-0.1-4.8-0.5-6.9H131.2z"/>
	<path id="XMLID_48_" class="st0" d="M190.7,0.9c-0.4,2-0.5,4.2-0.5,6.7v32.2c0,2.6,0.2,4.7,0.5,6.7H185c0.4-2.2,0.5-3.7,0.5-6.7
		V7.6c0-3-0.1-4.6-0.5-6.7H190.7z"/>
	<path id="XMLID_50_" class="st0" d="M251,0.9c0.5,1.4,1.3,2.7,3.1,5.4l19,28.4c0.7,1,2.5,4,3.9,6.5c-0.2-4.8-0.4-7.4-0.4-8V7.8
		c0-2.9-0.1-4.8-0.5-6.9h5.6c-0.4,2.2-0.5,3.8-0.5,6.9v32c0,3,0.1,4.8,0.5,6.7h-6.5c-0.8-1.7-1.5-2.9-3.1-5.4l-19.3-28.9
		c-0.5-0.7-2.5-4.1-3.3-5.8c0.2,2.8,0.4,5.8,0.4,7.3v25.6c0,3.2,0.1,5.2,0.5,7.1h-5.6c0.4-1.9,0.5-4,0.5-7.1V7.6
		c0-2.8-0.1-4.6-0.5-6.7H251z"/>
</g>
</svg>
