<?xml version="1.0" encoding="utf-8"?>
<!-- Generator: Adobe Illustrator 19.0.0, SVG Export Plug-In . SVG Version: 6.00 Build 0)  -->
<svg version="1.1" id="图层_1" xmlns="http://www.w3.org/2000/svg" xmlns:xlink="http://www.w3.org/1999/xlink" x="0px" y="0px"
	 viewBox="543 -169 890 398" style="enable-background:new 543 -169 890 398;" xml:space="preserve">
<style type="text/css">
	.st0{opacity:0.15;enable-background:new    ;}
	.st1{fill:#070707;}
	.st2{fill:#8C6F49;}
	.st3{fill:#E0B153;}
	.st4{fill:#CCA560;}
	.st5{fill:#EDB85A;}
	.st6{fill:#DCE5E7;}
	.st7{fill:#7F6641;}
	.st8{fill:#96794B;}
	.st9{fill:#FFD473;}
	.st10{fill:#F0FAFA;}
	.st11{opacity:0.6;}
	.st12{fill:#999999;}
</style>
<g id="XMLID_6_" class="st0">
	<path class="st1" d="M1120,112.4c-26.3,31.8-87.5,54.2-159,54.2c-68,0-126.7-20.2-154.9-49.6c-11.4,10.2-17.7,21.8-17.7,34
		c0,43.1,79.4,78.1,177.4,78.1s177.4-35,177.4-78.1C1143.2,136.9,1134.8,123.7,1120,112.4z"/>
</g>
<g id="XMLID_158_">
	<path class="st2" d="M1078.6,71.3V-55.9c-20.8-3.8-43.5-5.9-67.4-5.9V60.5C1036.8,60.5,1060.3,64.6,1078.6,71.3z"/>
</g>
<g id="XMLID_157_">
	<path class="st3" d="M1141.3,66.5V74c-6.2-20-29.1-7.5-62.1-19.9c-13.9-5.2-29.5-20-46.5-23.2v47.7c0.1,0.1,0.3,0.1,0.4,0.2
		c23.2,8.7,38,21.8,38,36.3c0,16.7-19.5,18-48.9,26.5v48.9c70.2-10.7,120.8-40.3,120.8-75.4V66.5L1141.3,66.5L1141.3,66.5z"/>
</g>
<g id="XMLID_156_">
	<polygon class="st4" points="999.1,112.1 999.1,157.3 1022.1,190.6 1022.1,142.6 	"/>
</g>
<g id="XMLID_155_">
	<path class="st3" d="M965.3,67.9v-165c-65.2,0-122.2,15.7-153.1,39.2v174h47.4c0-0.3,0-0.6,0-0.9C859.5,89,906.8,67.9,965.3,67.9z"
		/>
</g>
<g id="XMLID_154_">
	<polygon class="st5" points="874.1,-3.3 874.1,125.5 812.2,155.6 812.2,11.4 	"/>
</g>
<g id="XMLID_153_">
	<path class="st6" d="M999.1,160.1c-10.7,1.6-22,2.5-33.8,2.5c-0.8,0-1.6,0-2.4,0c-0.5,0-1.1,0-1.6,0c-37.1-0.6-69.3-9.8-87-23.2
		c-9-6.9-14.2-6.2-14.6-14.7l-47.4,12.5v18.5c30.3,23,85.5,38.5,149,39.1c1.4,0,2.7,0.1,4.1,0.1c19.9,0,39-1.5,56.9-4.2v-18.5
		C1015,174.2,1007.3,158.8,999.1,160.1z"/>
</g>
<g id="XMLID_152_">
	<path class="st4" d="M789.2-20.6v-7.7h-1.6v143.5c0,14.7,9,28.5,24.6,40.4V-50.3C800.5-41.3,792.5-31.3,789.2-20.6z"/>
</g>
<g id="XMLID_151_">
	<path class="st7" d="M1032.7,78.7V-48.5c-20.8-3.8-43.5-5.9-67.4-5.9V67.9C990.9,67.9,1014.4,71.9,1032.7,78.7z"/>
</g>
<g>
	<path class="st8" d="M965.3-73.9v32.3c25.8-0.1,49,4.3,67.4,11.3l46-25.4C1047.8-67.3,1008.6-73.9,965.3-73.9z"/>
</g>
<g id="XMLID_149_">
	<path class="st9" d="M1143,67.2c0-24.5-24.8-46.5-63.8-61.1L1032.7,31c23.2,8.7,38.4,21.6,38.4,36.3c0,20.8-30.1,38.6-71.9,44.8
		l23,30.5C1092.3,132,1143,102.2,1143,67.2z"/>
</g>
<g id="XMLID_148_">
	<path class="st10" d="M999.1,141.6c-10.7,1.6-22,2.5-33.8,2.5c-0.8,0-1.6,0-2.4,0c-37.8-0.3-70.7-9.6-88.6-23.2l-61.9,16.4
		c30.3,23,85.5,38.5,149,39.1c1.4,0,2.7,0.1,4.1,0.1c19.9,0,39-1.5,56.9-4.2L999.1,141.6z"/>
</g>
<g id="XMLID_147_">
	<path class="st9" d="M859.5-27.4c0-26.2,47.4-41.5,105.7-41.5v-5.9V-107l0,0c-98.1,0-177.7,35.6-177.7,79.6
		c0,14.7,9,28.5,24.6,40.4l61.9-16.4C864.9-10.4,859.5-18.6,859.5-27.4z"/>
</g>
<g id="XMLID_161_" class="st11">
	<ellipse class="st12" cx="850" cy="-63.2" rx="4.3" ry="1.3"/>
</g>
<g id="XMLID_172_" class="st11">
	<ellipse class="st12" cx="1033" cy="-51.9" rx="4.3" ry="1.3"/>
</g>
<g id="XMLID_173_" class="st11">
	<ellipse class="st12" cx="915.9" cy="160.6" rx="4.3" ry="1.3"/>
</g>
<g id="XMLID_174_" class="st11">
	<ellipse class="st12" cx="1115.4" cy="139.8" rx="4.3" ry="1.3"/>
</g>
<g id="XMLID_9_">
	<path class="st12" d="M849.2-122.6H605.4c-0.3-1.5-1.7-2.6-3.4-2.6c-1.9,0-3.5,1.6-3.5,3.5c0,1.9,1.6,3.5,3.5,3.5
		c1.6,0,2.9-1.1,3.4-2.6h243.8v57.2h1.7v-57.2v-1.7H849.2z"/>
</g>
<g id="XMLID_5_">
	<path class="st12" d="M1333.1-96.6c-1.6,0-2.9,1.1-3.4,2.6h-295.8h-1.7v1.7v39.9h1.7v-39.9h295.8c0.3,1.5,1.7,2.6,3.4,2.6
		c1.9,0,3.5-1.6,3.5-3.5S1335-96.6,1333.1-96.6z"/>
</g>
<g id="XMLID_8_">
	<path class="st12" d="M915.1,160.1h1.7l-26-58.1h-1.7H549.9c-0.3-1.5-1.7-2.6-3.4-2.6c-1.9,0-3.5,1.6-3.5,3.5s1.6,3.5,3.5,3.5
		c1.6,0,2.9-1.1,3.4-2.6h340L915.1,160.1z"/>
</g>
<g id="XMLID_7_">
	<path class="st12" d="M1430.1,78.6c-1.3,0-2.3,1.1-2.7,2.6h-269.9h-1.4l-41.6,58.1h1.4l40.4-56.4h271.2c0.3,1.5,1.4,2.6,2.7,2.6
		c1.5,0,2.8-1.6,2.8-3.5S1431.6,78.6,1430.1,78.6z"/>
</g>
<g>
	<path class="st12" d="M692.7-160c2.1,0,3.8,0.5,5,1.6c1.2,1.1,1.8,2.7,1.8,4.6c0,2.3-0.7,4-2.1,5.3c-1.4,1.3-3.4,1.9-6,1.9
		c-2.3,0-4.2-0.3-5.6-1.1v-3c0.8,0.4,1.6,0.8,2.7,1c1,0.3,1.9,0.3,2.8,0.3c1.6,0,2.7-0.3,3.5-1c0.8-0.7,1.2-1.6,1.2-3
		c0-2.5-1.6-3.7-4.8-3.7c-0.4,0-1,0.1-1.6,0.2c-0.7,0.1-1.2,0.2-1.7,0.3l-1.5-0.9l0.8-10.3h10.9v3h-8l-0.4,5.2
		c0.3-0.1,0.8-0.1,1.2-0.2C691.4-160,692-160,692.7-160z"/>
	<path class="st12" d="M711.6-161.6c0,2.2-0.4,3.9-1.2,4.9s-2,1.6-3.5,1.6c-1.5,0-2.6-0.6-3.4-1.7s-1.2-2.8-1.2-4.9
		c0-4.4,1.6-6.6,4.6-6.6c1.5,0,2.7,0.6,3.5,1.7C711.2-165.3,711.6-163.7,711.6-161.6z M705.1-161.6c0,1.4,0.2,2.5,0.4,3.2
		s0.7,1,1.4,1c1.3,0,1.9-1.4,1.9-4.2c0-2.9-0.6-4.2-1.9-4.2c-0.6,0-1.1,0.3-1.4,1C705.3-164.1,705.1-163,705.1-161.6z M721.1-167.9
		l-11.7,21.1h-2.8l11.7-21.1H721.1z M725.3-153.2c0,2.2-0.4,3.9-1.2,4.9c-0.8,1.1-2,1.6-3.5,1.6c-1.5,0-2.6-0.6-3.4-1.7
		c-0.8-1.1-1.2-2.8-1.2-4.9c0-4.4,1.6-6.6,4.6-6.6c1.5,0,2.6,0.6,3.5,1.7C724.9-156.9,725.3-155.3,725.3-153.2z M718.9-153.2
		c0,1.4,0.2,2.5,0.4,3.2s0.8,1,1.4,1c1.2,0,1.9-1.4,1.9-4.2c0-2.8-0.6-4.2-1.9-4.2c-0.6,0-1.1,0.3-1.4,1
		C719-155.7,718.9-154.6,718.9-153.2z"/>
	<path class="st12" d="M733.7-156h-5.7v-2.6h5.7v-5.9h2.6v5.9h5.7v2.6h-5.7v5.8h-2.6V-156z"/>
</g>
<g>
	<path class="st12" d="M1280,40c0,1.3-0.3,2.4-1.1,3.3s-1.9,1.5-3.3,1.8v0.1c1.6,0.2,2.9,0.7,3.8,1.6c0.9,0.9,1.3,2,1.3,3.4
		c0,2-0.7,3.6-2.2,4.7c-1.4,1.1-3.5,1.6-6.1,1.6c-2.3,0-4.3-0.3-5.9-1.1v-3c0.9,0.4,1.8,0.8,2.9,1c1,0.3,2,0.3,2.9,0.3
		c1.6,0,2.9-0.3,3.6-0.9c0.8-0.6,1.2-1.6,1.2-2.8c0-1.1-0.4-1.9-1.3-2.5c-0.9-0.5-2.3-0.8-4.2-0.8h-1.8V44h1.8c3.4,0,5-1.1,5-3.5
		c0-0.9-0.3-1.6-0.9-2.1c-0.6-0.5-1.5-0.7-2.6-0.7c-0.8,0-1.6,0.1-2.3,0.3c-0.8,0.3-1.6,0.7-2.6,1.3l-1.6-2.3
		c1.9-1.4,4.2-2.2,6.8-2.2c2.1,0,3.8,0.4,4.9,1.4C1279.4,37.2,1280,38.5,1280,40z"/>
</g>
<g>
	<path class="st12" d="M653.5,78.6h-14.3V76l5.5-5.5c1.6-1.6,2.7-2.8,3.2-3.5c0.5-0.7,0.9-1.3,1.1-1.9c0.3-0.6,0.3-1.2,0.3-1.9
		c0-1-0.3-1.7-0.9-2.3c-0.6-0.5-1.4-0.8-2.3-0.8c-0.8,0-1.6,0.2-2.3,0.4c-0.8,0.3-1.6,0.9-2.6,1.6l-1.8-2.3c1.2-1,2.3-1.6,3.4-2.1
		c1.1-0.4,2.3-0.6,3.6-0.6c2,0,3.6,0.5,4.7,1.6c1.1,1,1.7,2.4,1.7,4.2c0,1-0.2,1.8-0.5,2.7c-0.3,0.9-0.9,1.7-1.6,2.6
		c-0.7,0.9-1.9,2.2-3.6,3.6l-3.6,3.6v0.2h10L653.5,78.6L653.5,78.6z"/>
	<path class="st12" d="M663.2,65.5c2.1,0,3.8,0.5,5,1.6c1.2,1.1,1.8,2.7,1.8,4.6c0,2.3-0.7,4-2.1,5.3c-1.4,1.3-3.4,1.9-6,1.9
		c-2.3,0-4.2-0.3-5.6-1.1v-3c0.8,0.4,1.6,0.8,2.7,1c1,0.3,1.9,0.3,2.8,0.3c1.6,0,2.7-0.3,3.5-1c0.8-0.7,1.2-1.6,1.2-3
		c0-2.5-1.6-3.7-4.8-3.7c-0.4,0-1,0.1-1.6,0.2c-0.7,0.1-1.2,0.2-1.7,0.3L657,68l0.8-10.3h10.9v3h-8l-0.4,5.2
		c0.3-0.1,0.8-0.1,1.2-0.2C661.9,65.5,662.5,65.5,663.2,65.5z"/>
	<path class="st12" d="M671.6,62.7h3.7l3.2,9c0.5,1.3,0.8,2.5,1,3.6h0.1c0.1-0.5,0.3-1.1,0.4-1.9c0.3-0.8,1.5-4.3,3.6-10.8h3.6
		l-6.9,18c-1.2,3.3-3.3,4.9-6.2,4.9c-0.8,0-1.5-0.1-2.2-0.3v-2.7c0.5,0.1,1.1,0.2,1.7,0.2c1.6,0,2.8-1,3.5-2.9l0.6-1.5L671.6,62.7z"
		/>
	<path class="st12" d="M697.9,62.4c0.7,0,1.2,0.1,1.6,0.2l-0.3,3.1c-0.5-0.1-1-0.2-1.5-0.2c-1.4,0-2.4,0.4-3.3,1.3s-1.3,2-1.3,3.5
		v8.3h-3.4v-16h2.7l0.4,2.8h0.2c0.5-1,1.2-1.7,2.1-2.3S697,62.4,697.9,62.4z"/>
</g>
<g>
	<path class="st12" d="M1184.2-110.7h-3.4v-13.6c0-1.6,0-2.9,0.1-3.8c-0.3,0.3-0.5,0.5-0.8,0.8c-0.3,0.3-1.4,1.1-3.2,2.7l-1.7-2.2
		l6.2-4.9h2.9L1184.2-110.7L1184.2-110.7z"/>
	<path class="st12" d="M1205.3-121.3c0,3.6-0.6,6.3-1.7,8.2c-1.2,1.7-2.9,2.7-5.4,2.7c-2.3,0-4.1-1-5.3-2.8
		c-1.2-1.8-1.8-4.5-1.8-8.1c0-3.7,0.6-6.4,1.7-8.2c1.2-1.7,2.9-2.6,5.4-2.6c2.3,0,4.2,1,5.4,2.8
		C1204.8-127.5,1205.3-124.8,1205.3-121.3z M1194.5-121.3c0,2.9,0.3,4.9,0.9,6.2s1.6,1.8,2.9,1.8s2.3-0.6,2.9-1.9
		c0.6-1.2,0.9-3.3,0.9-6.2c0-2.9-0.3-4.9-0.9-6.2c-0.6-1.3-1.6-1.9-2.9-1.9s-2.3,0.6-2.9,1.8S1194.5-124.1,1194.5-121.3z"/>
	<path class="st12" d="M1208.9-131.8h6.2c2.9,0,5,0.4,6.2,1.3c1.3,0.9,1.9,2.2,1.9,4c0,1.2-0.3,2.3-1,3s-1.6,1.3-2.8,1.6v0.2
		c1.5,0.3,2.6,0.9,3.3,1.6c0.7,0.8,1,1.9,1,3.3c0,1.9-0.7,3.4-2,4.4c-1.3,1-3.1,1.6-5.6,1.6h-7.6v-21.1H1208.9z M1212.3-123.1h3.3
		c1.5,0,2.5-0.3,3.1-0.7s1-1.2,1-2.3c0-1-0.3-1.7-1-2.2c-0.7-0.4-1.8-0.7-3.4-0.7h-2.9L1212.3-123.1L1212.3-123.1z M1212.3-120.3
		v6.7h3.6c1.5,0,2.5-0.3,3.3-0.9c0.7-0.5,1.1-1.4,1.1-2.6c0-1.1-0.3-1.9-1.1-2.4s-1.9-0.8-3.4-0.8L1212.3-120.3z"/>
	<path class="st12" d="M1242-110.7h-3.4v-9.8c0-1.2-0.3-2.2-0.8-2.8c-0.5-0.6-1.3-0.9-2.3-0.9c-1.4,0-2.5,0.4-3.1,1.3
		c-0.7,0.9-1,2.3-1,4.2v7.9h-3.4v-16h2.7l0.4,2.1h0.2c0.5-0.8,1.1-1.3,2.1-1.7c0.9-0.4,1.8-0.6,2.9-0.6c3.8,0,5.7,1.9,5.7,5.8
		L1242-110.7L1242-110.7z"/>
</g>
<g>
	<path class="st12" d="M1095.1-69.9c0,1.1-0.3,2.1-0.8,2.9s-1.2,1.2-2.1,1.5l2,2.1h-1l-1.6-2h-0.2h-0.2c-1.2,0-2.2-0.4-2.9-1.2
		s-1-1.9-1-3.3c0-1.4,0.3-2.4,1-3.3s1.6-1.2,2.9-1.2s2.2,0.4,2.9,1.2C1094.9-72.5,1095.1-71.2,1095.1-69.9z M1088-69.9
		c0,1.2,0.3,2.2,0.9,2.9c0.6,0.7,1.4,1,2.3,1c1,0,1.8-0.3,2.4-1c0.6-0.7,0.9-1.6,0.9-2.9s-0.3-2.2-0.9-2.9c-0.6-0.7-1.4-1-2.3-1
		c-1,0-1.8,0.3-2.4,1C1088.3-72,1088-71.1,1088-69.9z"/>
	<path class="st12" d="M1096.9-66c0-0.3,0.2-0.6,0.4-0.6c0.3,0,0.5,0.2,0.5,0.6s-0.2,0.6-0.5,0.6C1097-65.4,1096.9-65.6,1096.9-66z"
		/>
	<path class="st12" d="M1104.1-68.6h-3.6l-1.2,3h-0.7l3.5-8.7h0.3l3.4,8.7h-0.7L1104.1-68.6z M1100.8-69.2h3.1l-1.2-3.1
		c-0.1-0.3-0.3-0.6-0.3-1c-0.1,0.3-0.3,0.7-0.3,1L1100.8-69.2z"/>
	<path class="st12" d="M1109.7-72.1c0.3,0,0.6,0,0.9,0.1l-0.1,0.5c-0.3-0.1-0.5-0.1-0.9-0.1c-0.5,0-1,0.3-1.4,0.7
		c-0.3,0.4-0.5,1-0.5,1.7v3.6h-0.6V-72h0.5l0.1,1.1l0,0c0.3-0.4,0.5-0.8,0.9-1C1108.9-72.2,1109.3-72.1,1109.7-72.1z"/>
	<path class="st12" d="M1113.5-66c0.3,0,0.7,0,1-0.1v0.4c-0.3,0.1-0.6,0.2-1,0.2c-0.6,0-1-0.2-1.3-0.4s-0.4-0.8-0.4-1.5v-4.2h-1
		v-0.3l1-0.3l0.3-1.5h0.3v1.6h1.9v0.5h-1.7v4.1c0,0.5,0.1,0.9,0.3,1.1S1113.2-66,1113.5-66z"/>
	<path class="st12" d="M1120.4-65.5v-4.2c0-0.6-0.2-1.1-0.4-1.4c-0.3-0.3-0.7-0.4-1.3-0.4c-0.8,0-1.3,0.2-1.7,0.6
		c-0.4,0.4-0.5,1-0.5,1.9v3.6h-0.5v-9.2h0.6v2.9v0.9l0,0c0.3-0.3,0.5-0.7,1-0.9c0.4-0.2,0.9-0.3,1.4-0.3c1.5,0,2.2,0.8,2.2,2.3v4.2
		h-0.6V-65.5z"/>
	<path class="st12" d="M1123.6-71.9v4.2c0,0.6,0.2,1.1,0.4,1.4s0.7,0.4,1.3,0.4c0.8,0,1.3-0.2,1.7-0.6c0.4-0.4,0.5-1,0.5-1.9V-72
		h0.6v6.4h-0.5l-0.1-0.9l0,0c-0.4,0.7-1.1,1-2.3,1c-1.5,0-2.2-0.8-2.2-2.3V-72L1123.6-71.9L1123.6-71.9z"/>
	<path class="st12" d="M1132.8-72.1c0.3,0,0.6,0,0.9,0.1l-0.1,0.5c-0.3-0.1-0.5-0.1-0.9-0.1c-0.5,0-1,0.3-1.4,0.7
		c-0.3,0.4-0.5,1-0.5,1.7v3.6h-0.6V-72h0.5l0.1,1.1l0,0c0.3-0.4,0.5-0.8,0.9-1C1132-72.2,1132.3-72.1,1132.8-72.1z"/>
	<path class="st12" d="M1140.6-65.5h-0.6v-8.1h-2.8v-0.6h6.2v0.6h-2.8L1140.6-65.5L1140.6-65.5z"/>
	<path class="st12" d="M1148.4-65.5l-0.2-1h-0.1c-0.3,0.4-0.7,0.7-1,0.9s-0.8,0.3-1.2,0.3c-0.6,0-1.1-0.2-1.5-0.5s-0.5-0.8-0.5-1.4
		s0.3-1.1,0.8-1.5s1.3-0.5,2.3-0.5h1.2v-0.3c0-0.6-0.1-1-0.3-1.4c-0.3-0.3-0.6-0.4-1.2-0.4s-1.2,0.2-1.8,0.5l-0.3-0.5
		c0.7-0.3,1.4-0.5,2.1-0.5s1.2,0.2,1.6,0.5c0.3,0.3,0.5,1,0.5,1.7v4.2L1148.4-65.5L1148.4-65.5z M1146-66c0.7,0,1.2-0.2,1.6-0.6
		s0.6-1,0.6-1.6v-0.6l-1.1,0.1c-0.9,0.1-1.6,0.2-1.9,0.4s-0.6,0.6-0.6,1.1c0,0.4,0.1,0.7,0.3,1C1145.2-66,1145.6-66,1146-66z"/>
	<path class="st12" d="M1153.5-72.1c0.3,0,0.6,0,0.9,0.1l-0.1,0.5c-0.3-0.1-0.5-0.1-0.9-0.1c-0.5,0-1,0.3-1.4,0.7
		c-0.3,0.4-0.5,1-0.5,1.7v3.6h-0.6V-72h0.5l0.1,1.1l0,0c0.3-0.4,0.5-0.8,0.9-1C1152.7-72.2,1153.1-72.1,1153.5-72.1z"/>
	<path class="st12" d="M1160.7-71.9v0.4l-1.3,0.1c0.3,0.4,0.5,1,0.5,1.5c0,0.6-0.2,1.1-0.6,1.5c-0.4,0.3-1,0.6-1.6,0.6
		c-0.3,0-0.5,0-0.6,0c-0.3,0.1-0.4,0.3-0.5,0.4s-0.2,0.3-0.2,0.5s0.1,0.3,0.3,0.4s0.4,0.2,0.8,0.2h1.1c0.7,0,1.2,0.2,1.6,0.4
		s0.5,0.7,0.5,1.2c0,0.7-0.3,1.2-0.9,1.6s-1.3,0.5-2.3,0.5c-0.8,0-1.5-0.2-1.9-0.4s-0.7-0.8-0.7-1.3c0-0.4,0.2-0.8,0.4-1.1
		c0.3-0.3,0.6-0.5,1.1-0.6c-0.2-0.1-0.3-0.2-0.4-0.3c-0.1-0.2-0.2-0.3-0.2-0.5c0-0.4,0.3-0.8,0.9-1.1c-0.3-0.2-0.7-0.4-0.9-0.7
		s-0.3-0.7-0.3-1.1c0-0.6,0.2-1.1,0.6-1.6c0.4-0.4,1-0.6,1.6-0.6c0.4,0,0.8,0,1,0.1L1160.7-71.9L1160.7-71.9z M1155.5-64.5
		c0,0.9,0.7,1.3,2,1.3c1.7,0,2.5-0.5,2.5-1.6c0-0.3-0.2-0.7-0.4-0.9c-0.3-0.2-0.7-0.3-1.3-0.3h-1C1156-65.9,1155.5-65.3,1155.5-64.5
		z M1155.9-69.9c0,0.5,0.2,0.9,0.4,1.1c0.3,0.3,0.7,0.4,1.2,0.4s1-0.2,1.2-0.4c0.3-0.3,0.4-0.7,0.4-1.2s-0.2-1-0.4-1.2
		c-0.3-0.3-0.7-0.4-1.2-0.4c-0.5,0-1,0.2-1.2,0.4C1156.1-71,1155.9-70.5,1155.9-69.9z"/>
	<path class="st12" d="M1164.6-65.4c-1,0-1.6-0.3-2.2-0.9c-0.5-0.6-0.8-1.4-0.8-2.4c0-1,0.3-1.8,0.8-2.4c0.5-0.6,1.2-1,2.1-1
		c0.8,0,1.4,0.3,1.8,0.8c0.4,0.5,0.7,1.2,0.7,2.2v0.4h-4.7c0,0.9,0.2,1.6,0.6,2s1,0.7,1.7,0.7c0.3,0,0.7,0,1-0.1s0.6-0.2,1-0.3v0.5
		c-0.3,0.2-0.7,0.3-1,0.3S1164.9-65.4,1164.6-65.4z M1164.4-71.6c-0.6,0-1.1,0.2-1.5,0.6s-0.6,1-0.7,1.7h4c0-0.8-0.2-1.3-0.5-1.7
		C1165.4-71.4,1165-71.6,1164.4-71.6z"/>
	<path class="st12" d="M1170.3-66c0.3,0,0.7,0,1-0.1v0.4c-0.3,0.1-0.6,0.2-1,0.2c-0.6,0-1-0.2-1.3-0.4c-0.3-0.3-0.4-0.8-0.4-1.5
		v-4.2h-1v-0.3l1-0.3l0.3-1.5h0.3v1.6h1.9v0.5h-1.9v4.1c0,0.5,0.1,0.9,0.3,1.1S1170-66,1170.3-66z"/>
	<path class="st12" d="M1184-65.5h-0.6v-6.3c0-0.6,0-1.1,0.1-1.8c-0.1,0.1-0.1,0.1-0.2,0.2c-0.1,0.1-0.7,0.5-1.8,1.5l-0.3-0.4
		l2.3-1.7h0.5V-65.5L1184-65.5z"/>
	<path class="st12" d="M1193.2-69.9c0,1.6-0.3,2.7-0.7,3.4c-0.4,0.7-1.1,1.1-2.1,1.1c-0.9,0-1.6-0.3-2.1-1.1s-0.7-1.9-0.7-3.4
		s0.3-2.6,0.7-3.4c0.4-0.7,1.1-1.1,2.1-1.1s1.6,0.3,2.1,1.1C1192.9-72.5,1193.2-71.3,1193.2-69.9z M1188.3-69.9
		c0,1.3,0.2,2.3,0.5,2.9c0.3,0.6,0.9,1,1.6,1c0.8,0,1.3-0.3,1.6-1c0.3-0.7,0.5-1.6,0.5-2.9s-0.2-2.3-0.5-2.9c-0.3-0.7-0.9-1-1.6-1
		s-1.3,0.3-1.6,1S1188.3-71.2,1188.3-69.9z"/>
	<path class="st12" d="M1196.8-74.2h2.3c1,0,1.8,0.2,2.3,0.5s0.8,1,0.8,1.6c0,0.5-0.2,1-0.4,1.2c-0.3,0.3-0.8,0.5-1.3,0.6l0,0
		c0.7,0.1,1.2,0.3,1.6,0.7s0.5,0.8,0.5,1.4c0,0.8-0.3,1.4-0.8,1.8s-1.3,0.6-2.3,0.6h-2.7L1196.8-74.2L1196.8-74.2z M1197.4-70.4h1.9
		c0.8,0,1.4-0.2,1.7-0.4c0.3-0.3,0.5-0.7,0.5-1.3c0-0.6-0.2-1-0.6-1.2s-1-0.4-1.9-0.4h-1.7L1197.4-70.4L1197.4-70.4z M1197.4-69.8
		v3.7h2.1c1.6,0,2.4-0.7,2.4-2c0-1.2-0.9-1.8-2.5-1.8L1197.4-69.8L1197.4-69.8z"/>
	<path class="st12" d="M1208.7-65.5v-4.2c0-0.6-0.2-1.1-0.4-1.4c-0.3-0.3-0.7-0.4-1.3-0.4c-0.8,0-1.3,0.2-1.7,0.6
		c-0.3,0.3-0.5,1-0.5,1.9v3.6h-0.6v-6.4h0.5l0.1,0.9l0,0c0.4-0.7,1.1-1,2.3-1c1.5,0,2.2,0.8,2.2,2.3v4.2L1208.7-65.5L1208.7-65.5z"
		/>
	<path class="st12" d="M1219-65.5v-4.2c0-0.6-0.2-1.1-0.4-1.4c-0.3-0.3-0.7-0.4-1.3-0.4c-0.8,0-1.3,0.2-1.7,0.6
		c-0.3,0.3-0.5,1-0.5,1.9v3.6h-0.6v-9.2h0.6v2.9v0.9l0,0c0.3-0.3,0.5-0.7,1-0.9c0.4-0.2,0.9-0.3,1.4-0.3c1.5,0,2.2,0.8,2.2,2.3v4.2
		h-0.5V-65.5z"/>
	<path class="st12" d="M1221.7-73.8c0-0.3,0.1-0.6,0.3-0.6c0.1,0,0.3,0.1,0.3,0.2c0.1,0.1,0.1,0.3,0.1,0.4s0,0.3-0.1,0.4
		s-0.2,0.2-0.3,0.2C1221.8-73.1,1221.7-73.4,1221.7-73.8z M1222.3-65.5h-0.6v-6.4h0.6V-65.5z"/>
	<path class="st12" d="M1229.5-71.9v0.4l-1.3,0.1c0.3,0.4,0.5,1,0.5,1.5c0,0.6-0.2,1.1-0.6,1.5c-0.4,0.3-1,0.6-1.6,0.6
		c-0.3,0-0.5,0-0.6,0c-0.3,0.1-0.4,0.3-0.5,0.4c-0.1,0.2-0.2,0.3-0.2,0.5s0.1,0.3,0.3,0.4s0.4,0.2,0.8,0.2h1.1
		c0.7,0,1.2,0.2,1.6,0.4c0.4,0.3,0.5,0.7,0.5,1.2c0,0.7-0.3,1.2-0.9,1.6c-0.5,0.3-1.3,0.5-2.3,0.5c-0.8,0-1.5-0.2-1.9-0.4
		c-0.4-0.3-0.7-0.8-0.7-1.3c0-0.4,0.2-0.8,0.4-1.1c0.3-0.3,0.6-0.5,1.1-0.6c-0.2-0.1-0.3-0.2-0.4-0.3c-0.1-0.2-0.2-0.3-0.2-0.5
		c0-0.4,0.3-0.8,0.9-1.1c-0.3-0.2-0.7-0.4-0.9-0.7s-0.3-0.7-0.3-1.1c0-0.6,0.2-1.1,0.6-1.6c0.4-0.3,1-0.6,1.6-0.6c0.4,0,0.8,0,1,0.1
		L1229.5-71.9L1229.5-71.9z M1224.3-64.5c0,0.9,0.7,1.3,2,1.3c1.7,0,2.5-0.5,2.5-1.6c0-0.3-0.2-0.7-0.4-0.9s-0.7-0.3-1.3-0.3h-1
		C1224.9-65.9,1224.3-65.3,1224.3-64.5z M1224.8-69.9c0,0.5,0.2,0.9,0.4,1.1s0.7,0.4,1.2,0.4c0.5,0,1-0.2,1.2-0.4
		c0.3-0.3,0.4-0.7,0.4-1.2s-0.2-1-0.4-1.2c-0.3-0.3-0.7-0.4-1.2-0.4s-1,0.2-1.2,0.4C1224.9-70.9,1224.8-70.5,1224.8-69.9z"/>
	<path class="st12" d="M1235.4-65.5v-4.2c0-0.6-0.2-1.1-0.4-1.4c-0.3-0.3-0.7-0.4-1.3-0.4c-0.8,0-1.3,0.2-1.7,0.6
		c-0.3,0.3-0.5,1-0.5,1.9v3.6h-0.6v-9.2h0.6v2.9v0.9l0,0c0.3-0.3,0.5-0.7,1-0.9c0.4-0.2,0.9-0.3,1.4-0.3c1.5,0,2.2,0.8,2.2,2.3v4.2
		h-0.5V-65.5z"/>
	<path class="st12" d="M1243.4-65.4c-0.9,0-1.5-0.3-2-0.9c-0.5-0.6-0.7-1.4-0.7-2.4c0-1.1,0.3-1.9,0.7-2.5c0.4-0.6,1.1-0.9,2-0.9
		c1,0,1.6,0.3,2.1,1l0,0l0.1-0.9h0.5v9.4h-0.6V-65c0-0.5,0-1,0-1.5l0,0C1245.2-65.8,1244.5-65.4,1243.4-65.4z M1243.5-66
		c0.8,0,1.3-0.2,1.6-0.6s0.5-1.1,0.5-2.2v-0.1c0-1-0.2-1.6-0.5-2.1c-0.3-0.4-0.9-0.6-1.6-0.6c-0.7,0-1.2,0.3-1.6,0.7
		c-0.3,0.5-0.5,1.2-0.5,2.2c0,0.9,0.2,1.6,0.5,2.1C1242.3-66.1,1242.8-66,1243.5-66z"/>
	<path class="st12" d="M1248.9-71.9v4.2c0,0.6,0.2,1.1,0.4,1.4s0.7,0.4,1.3,0.4c0.8,0,1.3-0.2,1.7-0.6c0.3-0.3,0.5-1,0.5-1.9V-72
		h0.6v6.4h-0.5l-0.1-0.9l0,0c-0.4,0.7-1.1,1-2.3,1c-1.5,0-2.2-0.8-2.2-2.3V-72L1248.9-71.9L1248.9-71.9z"/>
	<path class="st12" d="M1259.5-65.5l-0.2-1h-0.1c-0.3,0.4-0.7,0.7-1,0.9s-0.8,0.3-1.2,0.3c-0.6,0-1.1-0.2-1.5-0.5s-0.5-0.8-0.5-1.4
		s0.3-1.1,0.8-1.5c0.5-0.3,1.3-0.5,2.3-0.5h1.2v-0.3c0-0.6-0.1-1-0.3-1.4c-0.3-0.3-0.7-0.4-1.2-0.4c-0.6,0-1.2,0.2-1.8,0.5l-0.3-0.5
		c0.7-0.3,1.4-0.5,2.1-0.5c0.7,0,1.2,0.2,1.6,0.5s0.5,1,0.5,1.7v4.2L1259.5-65.5L1259.5-65.5z M1257.1-66c0.7,0,1.2-0.2,1.6-0.6
		c0.4-0.4,0.6-1,0.6-1.6v-0.6l-1.1,0.1c-0.9,0.1-1.6,0.2-1.9,0.4s-0.6,0.6-0.6,1.1c0,0.4,0.1,0.7,0.3,1
		C1256.3-66,1256.6-66,1257.1-66z"/>
	<path class="st12" d="M1262.6-65.5h-0.6v-9.2h0.6V-65.5z"/>
	<path class="st12" d="M1264.7-73.8c0-0.3,0.1-0.6,0.3-0.6c0.1,0,0.3,0.1,0.3,0.2c0.1,0.1,0.1,0.3,0.1,0.4s0,0.3-0.1,0.4
		s-0.2,0.2-0.3,0.2C1264.8-73.1,1264.7-73.4,1264.7-73.8z M1265.3-65.5h-0.6v-6.4h0.6V-65.5z"/>
	<path class="st12" d="M1269.2-66c0.3,0,0.7,0,1-0.1v0.4c-0.3,0.1-0.6,0.2-1,0.2c-0.6,0-1-0.2-1.3-0.4c-0.3-0.3-0.4-0.8-0.4-1.5
		v-4.2h-1v-0.3l1-0.3l0.3-1.5h0.3v1.6h1.9v0.5h-1.9v4.1c0,0.5,0.1,0.9,0.3,1.1S1268.8-66,1269.2-66z"/>
	<path class="st12" d="M1270.5-71.9h0.6l1.4,3.6c0.4,1.1,0.7,1.8,0.8,2.3l0,0c0.2-0.5,0.4-1.3,0.8-2.3l1.4-3.6h0.6l-2.9,7.5
		c-0.3,0.6-0.4,1-0.6,1.2s-0.3,0.3-0.5,0.5c-0.2,0.1-0.4,0.2-0.8,0.2c-0.3,0-0.4,0-0.8-0.1v-0.5c0.3,0.1,0.4,0.1,0.8,0.1
		c0.2,0,0.3-0.1,0.5-0.2c0.2-0.1,0.3-0.3,0.4-0.4c0.1-0.2,0.3-0.5,0.4-1s0.3-0.7,0.3-0.9L1270.5-71.9z"/>
	<path class="st12" d="M1284.2-65.5l-0.2-1h-0.1c-0.3,0.4-0.7,0.7-1,0.9s-0.8,0.3-1.2,0.3c-0.6,0-1.1-0.2-1.5-0.5s-0.5-0.8-0.5-1.4
		s0.3-1.1,0.8-1.5c0.5-0.3,1.3-0.5,2.3-0.5h1.2v-0.3c0-0.6-0.1-1-0.3-1.4s-0.7-0.4-1.2-0.4c-0.6,0-1.2,0.2-1.8,0.5l-0.3-0.5
		c0.7-0.3,1.4-0.5,2.1-0.5c0.7,0,1.2,0.2,1.6,0.5s0.5,1,0.5,1.7v4.2L1284.2-65.5L1284.2-65.5z M1281.8-66c0.7,0,1.2-0.2,1.6-0.6
		c0.4-0.4,0.6-1,0.6-1.6v-0.6l-1.1,0.1c-0.9,0.1-1.6,0.2-1.9,0.4s-0.6,0.6-0.6,1.1c0,0.4,0.1,0.7,0.3,1C1281-66,1281.3-66,1281.8-66
		z"/>
	<path class="st12" d="M1290.7-67.2c0,0.6-0.3,1-0.7,1.3c-0.4,0.3-1,0.4-1.9,0.4c-0.9,0-1.6-0.2-2.1-0.4v-0.6
		c0.6,0.3,1.3,0.5,2.1,0.5c0.6,0,1.1-0.1,1.5-0.3c0.3-0.2,0.5-0.5,0.5-0.9s-0.2-0.6-0.4-0.8c-0.3-0.3-0.7-0.4-1.3-0.7
		c-0.6-0.3-1.1-0.4-1.4-0.6c-0.3-0.2-0.4-0.3-0.6-0.6c-0.2-0.2-0.2-0.4-0.2-0.8c0-0.5,0.2-0.9,0.6-1.1c0.4-0.3,1-0.4,1.7-0.4
		c0.7,0,1.4,0.2,2,0.4l-0.3,0.5c-0.6-0.3-1.2-0.4-1.7-0.4c-0.5,0-1,0.1-1.2,0.3c-0.3,0.2-0.4,0.4-0.4,0.7c0,0.3,0.1,0.6,0.3,0.8
		c0.3,0.2,0.7,0.4,1.4,0.7c0.6,0.2,1,0.4,1.3,0.6c0.3,0.2,0.4,0.3,0.6,0.6C1290.6-67.8,1290.7-67.5,1290.7-67.2z"/>
	<path class="st12" d="M1296.3-67.2c0,0.6-0.3,1-0.7,1.3c-0.4,0.3-1,0.4-1.9,0.4c-0.9,0-1.6-0.2-2.1-0.4v-0.6
		c0.6,0.3,1.3,0.5,2.1,0.5c0.6,0,1.1-0.1,1.5-0.3c0.3-0.2,0.5-0.5,0.5-0.9s-0.2-0.6-0.4-0.8c-0.3-0.3-0.7-0.4-1.3-0.7
		c-0.6-0.3-1.1-0.4-1.4-0.6s-0.4-0.3-0.6-0.6c-0.2-0.2-0.2-0.4-0.2-0.8c0-0.5,0.2-0.9,0.6-1.1c0.4-0.3,1-0.4,1.7-0.4
		c0.7,0,1.4,0.2,2,0.4l-0.3,0.5c-0.6-0.3-1.2-0.4-1.7-0.4c-0.5,0-1,0.1-1.2,0.3c-0.3,0.2-0.4,0.4-0.4,0.7c0,0.3,0.1,0.6,0.3,0.8
		c0.3,0.2,0.7,0.4,1.4,0.7c0.6,0.2,1,0.4,1.3,0.6s0.4,0.3,0.6,0.6S1296.3-67.5,1296.3-67.2z"/>
	<path class="st12" d="M1300.6-65.4c-1,0-1.6-0.3-2.2-0.9s-0.8-1.4-0.8-2.4c0-1,0.3-1.8,0.8-2.4c0.5-0.6,1.2-1,2.1-1
		c0.8,0,1.4,0.3,1.8,0.8c0.4,0.5,0.7,1.2,0.7,2.2v0.4h-4.7c0,0.9,0.2,1.6,0.6,2c0.4,0.4,1,0.7,1.7,0.7c0.3,0,0.7,0,1-0.1
		c0.3-0.1,0.6-0.2,1-0.3v0.5c-0.3,0.2-0.7,0.3-1,0.3S1301-65.4,1300.6-65.4z M1300.4-71.6c-0.6,0-1.1,0.2-1.5,0.6s-0.6,1-0.7,1.7h4
		c0-0.8-0.2-1.3-0.5-1.7S1301-71.6,1300.4-71.6z"/>
	<path class="st12" d="M1306.4-66c0.3,0,0.7,0,1-0.1v0.4c-0.3,0.1-0.6,0.2-1,0.2c-0.6,0-1-0.2-1.3-0.4c-0.3-0.3-0.4-0.8-0.4-1.5
		v-4.2h-1v-0.3l1-0.3l0.3-1.5h0.3v1.6h1.9v0.5h-1.9v4.1c0,0.5,0.1,0.9,0.3,1.1S1306-66,1306.4-66z"/>
	<path class="st12" d="M1312.7-67.2c0,0.6-0.3,1-0.7,1.3c-0.4,0.3-1,0.4-1.9,0.4c-0.9,0-1.6-0.2-2.1-0.4v-0.6
		c0.6,0.3,1.3,0.5,2.1,0.5c0.6,0,1.1-0.1,1.5-0.3c0.3-0.2,0.5-0.5,0.5-0.9s-0.2-0.6-0.4-0.8c-0.3-0.3-0.7-0.4-1.3-0.7
		c-0.6-0.3-1.1-0.4-1.4-0.6s-0.4-0.3-0.6-0.6c-0.2-0.2-0.2-0.4-0.2-0.8c0-0.5,0.2-0.9,0.6-1.1c0.4-0.3,1-0.4,1.7-0.4
		c0.7,0,1.4,0.2,2,0.4l-0.3,0.5c-0.6-0.3-1.2-0.4-1.7-0.4s-1,0.1-1.2,0.3c-0.3,0.2-0.4,0.4-0.4,0.7c0,0.3,0.1,0.6,0.3,0.8
		c0.3,0.2,0.7,0.4,1.4,0.7c0.6,0.2,1,0.4,1.3,0.6s0.4,0.3,0.6,0.6C1312.6-67.8,1312.7-67.5,1312.7-67.2z"/>
	<path class="st12" d="M1090.8-59.2c0-0.3,0.1-0.6,0.3-0.6c0.1,0,0.3,0.1,0.3,0.2s0.1,0.3,0.1,0.4s0,0.3-0.1,0.4
		c-0.1,0.1-0.2,0.2-0.3,0.2C1090.9-58.6,1090.8-58.8,1090.8-59.2z M1091.4-50.9h-0.6v-6.4h0.6V-50.9z"/>
	<path class="st12" d="M1098.1-50.9v-4.2c0-0.6-0.2-1.1-0.4-1.4c-0.3-0.3-0.7-0.4-1.3-0.4c-0.8,0-1.3,0.2-1.7,0.6
		c-0.4,0.4-0.5,1-0.5,1.9v3.6h-0.6v-6.4h0.5l0.1,0.9l0,0c0.4-0.7,1.1-1,2.3-1c1.5,0,2.2,0.8,2.2,2.3v4.2L1098.1-50.9L1098.1-50.9z"
		/>
	<path class="st12" d="M1106.3-56.9h-1.6v5.9h-0.6v-5.9h-1.2v-0.3l1.2-0.3v-0.5c0-0.8,0.2-1.4,0.4-1.7c0.3-0.3,0.8-0.5,1.4-0.5
		c0.3,0,0.7,0.1,1,0.2l-0.2,0.5c-0.3-0.1-0.6-0.2-1-0.2c-0.4,0-0.8,0.2-1,0.4c-0.2,0.3-0.3,0.7-0.3,1.3v0.6h1.6L1106.3-56.9
		L1106.3-56.9z M1107.4-59.2c0-0.3,0.1-0.6,0.3-0.6c0.1,0,0.3,0.1,0.3,0.2s0.1,0.3,0.1,0.4s0,0.3-0.1,0.4c-0.1,0.1-0.2,0.2-0.3,0.2
		C1107.6-58.6,1107.4-58.8,1107.4-59.2z M1108.1-50.9h-0.6v-6.4h0.6V-50.9z"/>
	<path class="st12" d="M1114.8-50.9v-4.2c0-0.6-0.2-1.1-0.4-1.4s-0.7-0.4-1.3-0.4c-0.8,0-1.3,0.2-1.7,0.6c-0.4,0.4-0.5,1-0.5,1.9
		v3.6h-0.6v-6.4h0.5l0.1,0.9l0,0c0.4-0.7,1.1-1,2.3-1c1.5,0,2.2,0.8,2.2,2.3v4.2L1114.8-50.9L1114.8-50.9z"/>
	<path class="st12" d="M1121.3-50.9l-0.2-1l0,0c-0.3,0.4-0.7,0.7-1,0.9s-0.8,0.3-1.2,0.3c-0.6,0-1.1-0.2-1.5-0.5
		c-0.3-0.3-0.5-0.8-0.5-1.4c0-0.6,0.3-1.1,0.8-1.5c0.5-0.3,1.3-0.5,2.3-0.5h1.2v-0.4c0-0.6-0.1-1-0.3-1.4s-0.6-0.4-1.2-0.4
		c-0.6,0-1.2,0.2-1.8,0.5l-0.3-0.5c0.7-0.3,1.4-0.5,2.1-0.5s1.2,0.2,1.6,0.5c0.3,0.3,0.5,1,0.5,1.7v4.2L1121.3-50.9L1121.3-50.9
		L1121.3-50.9z M1119-51.4c0.7,0,1.2-0.2,1.6-0.6c0.4-0.4,0.6-1,0.6-1.6v-0.6l-1.1,0.1c-0.9,0.1-1.6,0.2-1.9,0.4s-0.6,0.6-0.6,1.1
		c0,0.4,0.1,0.7,0.3,1C1118.2-51.4,1118.5-51.4,1119-51.4z"/>
	<path class="st12" d="M1128.3-50.9v-4.2c0-0.6-0.2-1.1-0.4-1.4s-0.7-0.4-1.3-0.4c-0.8,0-1.3,0.2-1.7,0.6c-0.4,0.4-0.5,1-0.5,1.9
		v3.6h-0.6v-6.4h0.5l0.1,0.9l0,0c0.4-0.7,1.1-1,2.3-1c1.5,0,2.2,0.8,2.2,2.3v4.2L1128.3-50.9L1128.3-50.9z"/>
	<path class="st12" d="M1133.6-50.9c-1,0-1.6-0.3-2.2-0.9c-0.5-0.6-0.8-1.4-0.8-2.4s0.3-1.9,0.8-2.5s1.3-0.9,2.3-0.9
		c0.5,0,1.1,0.1,1.6,0.3l-0.2,0.5c-0.5-0.2-1-0.3-1.5-0.3c-0.8,0-1.4,0.3-1.8,0.7c-0.4,0.4-0.6,1.2-0.6,2.1s0.2,1.6,0.6,2.1
		c0.4,0.5,1,0.8,1.7,0.8c0.6,0,1.1-0.1,1.6-0.3v0.5C1134.8-50.9,1134.2-50.9,1133.6-50.9z"/>
	<path class="st12" d="M1136.7-59.2c0-0.3,0.1-0.6,0.3-0.6c0.1,0,0.3,0.1,0.3,0.2s0.1,0.3,0.1,0.4s0,0.3-0.1,0.4
		c-0.1,0.1-0.2,0.2-0.3,0.2C1136.8-58.6,1136.7-58.8,1136.7-59.2z M1137.4-50.9h-0.6v-6.4h0.6V-50.9z"/>
	<path class="st12" d="M1143.4-50.9l-0.2-1h-0.1c-0.3,0.4-0.7,0.7-1,0.9s-0.8,0.3-1.2,0.3c-0.6,0-1.1-0.2-1.5-0.5
		c-0.3-0.3-0.5-0.8-0.5-1.4c0-0.6,0.3-1.1,0.8-1.5c0.5-0.3,1.3-0.5,2.3-0.5h1.2v-0.4c0-0.6-0.1-1-0.3-1.4c-0.3-0.3-0.6-0.4-1.2-0.4
		s-1.2,0.2-1.8,0.5l-0.3-0.5c0.7-0.3,1.4-0.5,2.1-0.5c0.7,0,1.2,0.2,1.6,0.5c0.3,0.3,0.5,1,0.5,1.7v4.2L1143.4-50.9L1143.4-50.9z
		 M1141.1-51.4c0.7,0,1.2-0.2,1.6-0.6c0.4-0.4,0.6-1,0.6-1.6v-0.6l-1.1,0.1c-0.9,0.1-1.6,0.2-1.9,0.4s-0.6,0.6-0.6,1.1
		c0,0.4,0.1,0.7,0.3,1C1140.3-51.4,1140.7-51.4,1141.1-51.4z"/>
	<path class="st12" d="M1146.5-50.9h-0.6v-9.2h0.6V-50.9z"/>
	<path class="st12" d="M1154.4-50.9c-1,0-1.6-0.3-2.2-0.9c-0.5-0.6-0.8-1.4-0.8-2.4s0.3-1.9,0.8-2.5s1.3-0.9,2.3-0.9
		c0.5,0,1.1,0.1,1.6,0.3l-0.2,0.5c-0.5-0.2-1-0.3-1.5-0.3c-0.8,0-1.4,0.3-1.8,0.7c-0.4,0.4-0.6,1.2-0.6,2.1s0.2,1.6,0.6,2.1
		c0.4,0.5,1,0.8,1.7,0.8c0.6,0,1.1-0.1,1.6-0.3v0.5C1155.7-50.9,1155.1-50.9,1154.4-50.9z"/>
	<path class="st12" d="M1160.3-50.9c-1,0-1.6-0.3-2.2-0.9c-0.5-0.6-0.8-1.4-0.8-2.4s0.3-1.8,0.8-2.4s1.2-1,2.1-1
		c0.8,0,1.4,0.3,1.8,0.8c0.4,0.5,0.7,1.2,0.7,2.2v0.4h-4.7c0,0.9,0.2,1.6,0.6,2c0.4,0.4,1,0.7,1.7,0.7c0.3,0,0.7,0,1-0.1
		c0.3-0.1,0.6-0.2,1-0.3v0.5c-0.3,0.2-0.7,0.3-1,0.3S1160.6-50.9,1160.3-50.9z M1160.1-57c-0.6,0-1.1,0.2-1.5,0.6s-0.6,1-0.7,1.7h4
		c0-0.8-0.2-1.3-0.5-1.7C1161-56.8,1160.7-57,1160.1-57z"/>
	<path class="st12" d="M1168.8-50.9v-4.2c0-0.6-0.2-1.1-0.4-1.4c-0.3-0.3-0.7-0.4-1.3-0.4c-0.8,0-1.3,0.2-1.7,0.6
		c-0.4,0.4-0.5,1-0.5,1.9v3.6h-0.6v-6.4h0.5l0.1,0.9l0,0c0.4-0.7,1.1-1,2.3-1c1.5,0,2.2,0.8,2.2,2.3v4.2L1168.8-50.9L1168.8-50.9z"
		/>
	<path class="st12" d="M1173.2-51.4c0.3,0,0.7,0,1-0.1v0.4c-0.3,0.1-0.6,0.2-1,0.2c-0.6,0-1-0.2-1.3-0.4c-0.3-0.3-0.4-0.8-0.4-1.5
		v-4.2h-0.9v-0.3l1-0.3l0.3-1.5h0.3v1.6h1.9v0.5h-1.9v4.1c0,0.5,0.1,0.9,0.3,1.1S1172.8-51.4,1173.2-51.4z"/>
	<path class="st12" d="M1178-57.5c0.3,0,0.6,0,0.9,0.1l-0.1,0.5c-0.3-0.1-0.5-0.1-0.9-0.1c-0.5,0-1,0.3-1.4,0.7
		c-0.3,0.4-0.5,1-0.5,1.7v3.6h-0.6v-6.4h0.5l0.1,1.1l0,0c0.3-0.4,0.5-0.8,0.9-1S1177.7-57.5,1178-57.5z"/>
	<path class="st12" d="M1182.9-50.9c-1,0-1.6-0.3-2.2-0.9c-0.5-0.6-0.8-1.4-0.8-2.4s0.3-1.8,0.8-2.4s1.2-1,2.1-1
		c0.8,0,1.4,0.3,1.8,0.8c0.4,0.5,0.7,1.2,0.7,2.2v0.4h-4.7c0,0.9,0.2,1.6,0.6,2s1,0.7,1.7,0.7c0.3,0,0.7,0,1-0.1
		c0.3-0.1,0.6-0.2,1-0.3v0.5c-0.3,0.2-0.7,0.3-1,0.3S1183.2-50.9,1182.9-50.9z M1182.7-57c-0.6,0-1.1,0.2-1.5,0.6s-0.6,1-0.7,1.7h4
		c0-0.8-0.2-1.3-0.5-1.7C1183.7-56.8,1183.2-57,1182.7-57z"/>
</g>
<g>
	<path class="st12" d="M657.9-94.3h-3.6l-1.2,3h-0.7l3.5-8.7h0.3l3.4,8.7h-0.7L657.9-94.3z M654.6-94.9h3.1l-1.2-3.1
		c-0.1-0.3-0.3-0.6-0.3-1c-0.1,0.3-0.3,0.7-0.3,1L654.6-94.9z"/>
	<path class="st12" d="M665.3-91.3v-4.2c0-0.6-0.2-1.1-0.4-1.4s-0.7-0.4-1.3-0.4c-0.8,0-1.3,0.2-1.7,0.6c-0.4,0.4-0.5,1-0.5,1.9v3.6
		h-0.6v-6.4h0.5l0.1,0.9l0,0c0.4-0.7,1.1-1,2.3-1c1.5,0,2.2,0.8,2.2,2.3v4.2L665.3-91.3L665.3-91.3z"/>
	<path class="st12" d="M672.5-91.3v-4.2c0-0.6-0.2-1.1-0.4-1.4c-0.3-0.3-0.7-0.4-1.3-0.4c-0.8,0-1.3,0.2-1.7,0.6
		c-0.4,0.4-0.5,1-0.5,1.9v3.6h-0.6v-6.4h0.5l0.1,0.9l0,0c0.4-0.7,1.1-1,2.3-1c1.5,0,2.2,0.8,2.2,2.3v4.2L672.5-91.3L672.5-91.3z"/>
	<path class="st12" d="M675.6-97.7v4.2c0,0.6,0.2,1.1,0.4,1.4s0.7,0.4,1.3,0.4c0.8,0,1.3-0.2,1.7-0.6c0.4-0.4,0.5-1,0.5-1.9v-3.6
		h0.6v6.4h-0.5l-0.1-0.9l0,0c-0.4,0.7-1.1,1-2.3,1c-1.5,0-2.2-0.8-2.2-2.3v-4.2L675.6-97.7L675.6-97.7z"/>
	<path class="st12" d="M686.2-91.3l-0.2-1H686c-0.3,0.4-0.7,0.7-1,0.9c-0.3,0.2-0.8,0.3-1.2,0.3c-0.6,0-1.1-0.2-1.5-0.5
		c-0.3-0.3-0.5-0.8-0.5-1.4c0-0.6,0.3-1.1,0.8-1.5c0.5-0.3,1.3-0.5,2.3-0.5h1.2v-0.4c0-0.6-0.1-1-0.3-1.4s-0.6-0.4-1.2-0.4
		c-0.6,0-1.2,0.2-1.8,0.5l-0.3-0.5c0.7-0.3,1.4-0.5,2.1-0.5s1.2,0.2,1.6,0.5c0.3,0.3,0.5,1,0.5,1.7v4.2L686.2-91.3L686.2-91.3z
		 M683.9-91.7c0.7,0,1.2-0.2,1.6-0.6c0.4-0.4,0.6-1,0.6-1.6v-0.6l-1.1,0.1c-0.9,0.1-1.6,0.2-1.9,0.4c-0.3,0.3-0.6,0.6-0.6,1.1
		c0,0.4,0.1,0.7,0.3,1S683.4-91.7,683.9-91.7z"/>
	<path class="st12" d="M689.3-91.3h-0.6v-9.2h0.6V-91.3z"/>
	<path class="st12" d="M693.6-97.7h0.6l1.4,3.6c0.4,1.1,0.7,1.8,0.8,2.3l0,0c0.2-0.5,0.4-1.3,0.8-2.3l1.4-3.6h0.6l-2.9,7.5
		c-0.3,0.6-0.4,1-0.6,1.2s-0.3,0.3-0.5,0.5s-0.4,0.2-0.8,0.2c-0.3,0-0.4,0-0.8-0.1v-0.5c0.3,0.1,0.4,0.1,0.8,0.1
		c0.2,0,0.3-0.1,0.5-0.2s0.3-0.3,0.4-0.4c0.2-0.2,0.3-0.5,0.4-1s0.3-0.7,0.3-0.9L693.6-97.7z"/>
	<path class="st12" d="M700.2-99.5c0-0.3,0.1-0.6,0.3-0.6c0.1,0,0.3,0.1,0.3,0.2s0.1,0.3,0.1,0.4s0,0.3-0.1,0.4s-0.2,0.2-0.3,0.2
		C700.3-98.9,700.2-99.2,700.2-99.5z M700.8-91.3h-0.6v-6.4h0.6V-91.3z"/>
	<path class="st12" d="M705.6-91.2c-1,0-1.6-0.3-2.2-0.9c-0.5-0.6-0.8-1.4-0.8-2.4s0.3-1.8,0.8-2.4c0.5-0.6,1.2-1,2.1-1
		c0.8,0,1.4,0.3,1.8,0.8c0.4,0.5,0.7,1.2,0.7,2.2v0.4h-4.7c0,0.9,0.2,1.6,0.6,2c0.4,0.4,1,0.7,1.7,0.7c0.3,0,0.7,0,1-0.1
		s0.6-0.2,1-0.3v0.5c-0.3,0.2-0.7,0.3-1,0.3C706.2-91.3,705.9-91.2,705.6-91.2z M705.4-97.3c-0.6,0-1.1,0.2-1.5,0.6
		c-0.3,0.4-0.6,1-0.7,1.7h4c0-0.8-0.2-1.3-0.5-1.7C706.3-97.2,706-97.3,705.4-97.3z"/>
	<path class="st12" d="M710.2-91.3h-0.6v-9.2h0.6V-91.3z"/>
	<path class="st12" d="M714.7-97.9c0.4,0,0.9,0.1,1.2,0.3c0.3,0.2,0.6,0.4,1,0.9l0,0c0-0.5,0-1,0-1.5v-2.3h0.6v9.2h-0.3l-0.2-1h-0.1
		c-0.5,0.7-1.2,1.1-2.1,1.1s-1.6-0.3-2.1-0.9c-0.5-0.6-0.7-1.4-0.7-2.4c0-1.1,0.3-2,0.7-2.5C713.2-97.5,713.9-97.9,714.7-97.9z
		 M714.7-97.3c-0.7,0-1.2,0.3-1.6,0.8s-0.5,1.2-0.5,2.2c0,1.8,0.7,2.8,2.2,2.8c0.7,0,1.3-0.2,1.6-0.6s0.5-1.1,0.5-2.1v-0.1
		c0-1-0.2-1.7-0.5-2.2C716-97,715.4-97.3,714.7-97.3z"/>
	<path class="st12" d="M724.5-91.7c0.3,0,0.7,0,1-0.1v0.4c-0.3,0.1-0.6,0.2-1,0.2c-0.6,0-1-0.2-1.3-0.4c-0.3-0.3-0.4-0.8-0.4-1.5
		v-4.2h-1v-0.3l1-0.3l0.3-1.5h0.3v1.6h1.9v0.5h-1.9v4.1c0,0.5,0.1,0.9,0.3,1.1C723.7-91.8,724.1-91.7,724.5-91.7z"/>
	<path class="st12" d="M730.7-91.3l-0.2-1h-0.1c-0.3,0.4-0.7,0.7-1,0.9c-0.3,0.2-0.8,0.3-1.2,0.3c-0.6,0-1.1-0.2-1.5-0.5
		c-0.3-0.3-0.5-0.8-0.5-1.4c0-0.6,0.3-1.1,0.8-1.5c0.5-0.3,1.3-0.5,2.3-0.5h1.2v-0.4c0-0.6-0.1-1-0.3-1.4c-0.3-0.3-0.6-0.4-1.2-0.4
		s-1.2,0.2-1.8,0.5l-0.3-0.5c0.7-0.3,1.4-0.5,2.1-0.5s1.2,0.2,1.6,0.5s0.5,1,0.5,1.7v4.2L730.7-91.3L730.7-91.3z M728.4-91.7
		c0.7,0,1.2-0.2,1.6-0.6c0.4-0.4,0.6-1,0.6-1.6v-0.6l-1.1,0.1c-0.9,0.1-1.6,0.2-1.9,0.4c-0.3,0.3-0.6,0.6-0.6,1.1
		c0,0.4,0.1,0.7,0.3,1C727.6-91.7,727.9-91.7,728.4-91.7z"/>
	<path class="st12" d="M735.8-97.9c0.3,0,0.6,0,0.9,0.1l-0.1,0.5c-0.3-0.1-0.5-0.1-0.9-0.1c-0.5,0-1,0.3-1.4,0.7
		c-0.3,0.4-0.5,1-0.5,1.7v3.6h-0.6v-6.4h0.5l0.1,1.1l0,0c0.3-0.4,0.5-0.8,0.9-1C735-98,735.4-97.9,735.8-97.9z"/>
	<path class="st12" d="M743-97.7v0.4l-1.3,0.1c0.3,0.4,0.5,1,0.5,1.5c0,0.6-0.2,1.1-0.6,1.5c-0.4,0.3-1,0.6-1.6,0.6
		c-0.3,0-0.5,0-0.6,0c-0.3,0.1-0.4,0.3-0.5,0.4s-0.2,0.3-0.2,0.5s0.1,0.3,0.3,0.4c0.2,0.1,0.4,0.2,0.8,0.2h1.1
		c0.7,0,1.2,0.2,1.6,0.4c0.4,0.3,0.5,0.7,0.5,1.2c0,0.7-0.3,1.2-0.9,1.6s-1.3,0.5-2.3,0.5c-0.8,0-1.5-0.2-1.9-0.4
		c-0.4-0.3-0.7-0.8-0.7-1.3c0-0.4,0.2-0.8,0.4-1.1s0.6-0.5,1.1-0.6c-0.2-0.1-0.3-0.2-0.4-0.3s-0.2-0.3-0.2-0.5
		c0-0.4,0.3-0.8,0.9-1.1c-0.3-0.2-0.7-0.4-0.9-0.7c-0.2-0.3-0.3-0.7-0.3-1.1c0-0.6,0.2-1.1,0.6-1.6c0.4-0.4,1-0.6,1.6-0.6
		c0.4,0,0.8,0,1,0.1L743-97.7z M737.8-90.1c0,0.9,0.7,1.3,2,1.3c1.7,0,2.5-0.5,2.5-1.6c0-0.3-0.2-0.7-0.4-0.9s-0.7-0.3-1.3-0.3h-1
		C738.3-91.6,737.8-91.1,737.8-90.1z M738.2-95.7c0,0.5,0.2,0.9,0.4,1.1c0.3,0.3,0.7,0.4,1.2,0.4s1-0.2,1.2-0.4
		c0.3-0.3,0.4-0.7,0.4-1.2s-0.2-1-0.4-1.2c-0.3-0.3-0.7-0.4-1.2-0.4s-1,0.2-1.2,0.4C738.4-96.7,738.2-96.2,738.2-95.7z"/>
	<path class="st12" d="M746.9-91.2c-1,0-1.6-0.3-2.2-0.9c-0.5-0.6-0.8-1.4-0.8-2.4s0.3-1.8,0.8-2.4c0.5-0.6,1.2-1,2.1-1
		c0.8,0,1.4,0.3,1.8,0.8c0.4,0.5,0.7,1.2,0.7,2.2v0.4h-4.7c0,0.9,0.2,1.6,0.6,2c0.4,0.4,1,0.7,1.7,0.7c0.3,0,0.7,0,1-0.1
		s0.6-0.2,1-0.3v0.5c-0.3,0.2-0.7,0.3-1,0.3C747.6-91.3,747.3-91.2,746.9-91.2z M746.7-97.3c-0.6,0-1.1,0.2-1.5,0.6
		c-0.3,0.4-0.6,1-0.7,1.7h4c0-0.8-0.2-1.3-0.5-1.7S747.4-97.3,746.7-97.3z"/>
	<path class="st12" d="M752.7-91.7c0.3,0,0.7,0,1-0.1v0.4c-0.3,0.1-0.6,0.2-1,0.2c-0.6,0-1-0.2-1.3-0.4c-0.3-0.3-0.4-0.8-0.4-1.5
		v-4.2h-1v-0.3l1-0.3l0.3-1.5h0.3v1.6h1.9v0.5h-1.9v4.1c0,0.5,0.1,0.9,0.3,1.1C751.9-91.8,752.3-91.7,752.7-91.7z"/>
	<path class="st12" d="M760.3-96.5c1,0,1.6,0.3,2.2,0.7c0.5,0.4,0.8,1,0.8,1.8c0,0.9-0.3,1.6-0.9,2.1s-1.3,0.8-2.3,0.8
		c-0.4,0-0.9,0-1.2-0.1c-0.3-0.1-0.7-0.2-1-0.3v-0.7c0.4,0.3,0.8,0.3,1.1,0.4s0.7,0.1,1,0.1c0.8,0,1.4-0.2,1.8-0.6
		c0.4-0.4,0.7-1,0.7-1.6c0-0.6-0.3-1.1-0.7-1.6c-0.4-0.4-1-0.5-1.8-0.5c-0.5,0-1,0.1-1.6,0.3l-0.3-0.3l0.3-4h4.2v0.6H759l-0.3,3
		C759.5-96.5,759.9-96.5,760.3-96.5z"/>
	<path class="st12" d="M768.2-97.3c0,0.9-0.2,1.6-0.4,2c-0.3,0.4-0.7,0.7-1.3,0.7c-0.5,0-1-0.3-1.2-0.7c-0.3-0.4-0.4-1.1-0.4-2
		s0.2-1.6,0.4-2c0.3-0.4,0.7-0.7,1.2-0.7c0.5,0,1,0.3,1.3,0.7C768.1-98.9,768.2-98.2,768.2-97.3z M765.3-97.3c0,0.7,0.1,1.3,0.3,1.6
		c0.2,0.3,0.4,0.5,0.9,0.5c0.8,0,1.1-0.8,1.1-2.2c0-0.7-0.1-1.3-0.3-1.6c-0.2-0.3-0.5-0.5-0.9-0.5c-0.3,0-0.7,0.2-0.9,0.5
		S765.3-98.1,765.3-97.3z M771.6-99.9l-4.8,8.7h-0.6l4.8-8.7H771.6z M773.2-93.9c0,0.9-0.2,1.6-0.4,2c-0.3,0.4-0.7,0.7-1.3,0.7
		c-0.5,0-1-0.3-1.2-0.7c-0.3-0.4-0.4-1.1-0.4-2s0.2-1.6,0.4-2c0.3-0.4,0.7-0.7,1.3-0.7c0.5,0,1,0.3,1.3,0.7
		C773.2-95.4,773.2-94.7,773.2-93.9z M770.3-93.9c0,0.7,0.1,1.3,0.3,1.6c0.2,0.3,0.4,0.5,0.9,0.5c0.8,0,1.1-0.7,1.1-2.2
		s-0.3-2.2-1.1-2.2c-0.3,0-0.7,0.2-0.9,0.5S770.3-94.6,770.3-93.9z"/>
	<path class="st12" d="M777.5-95.8h2.6v0.5h-2.6v2.6H777v-2.6h-2.6v-0.5h2.6v-2.6h0.5V-95.8z"/>
</g>
<g>
	<path class="st12" d="M573.6,135.7V127h0.6v8.7H573.6z"/>
	<path class="st12" d="M581,135.7v-4.2c0-0.6-0.2-1.1-0.4-1.4c-0.3-0.3-0.7-0.4-1.3-0.4c-0.8,0-1.3,0.2-1.7,0.6
		c-0.4,0.4-0.5,1-0.5,1.9v3.6h-0.5v-6.4h0.5l0.1,0.9l0,0c0.4-0.7,1.1-1,2.3-1c1.5,0,2.2,0.8,2.2,2.3v4.2L581,135.7L581,135.7z"/>
	<path class="st12" d="M585.1,135.7l-2.5-6.4h0.6l1.6,4.4c0.3,0.5,0.3,1,0.5,1.5l0,0c0.2-0.5,0.3-1,0.5-1.5l1.6-4.3h0.6l-2.5,6.4
		L585.1,135.7L585.1,135.7z"/>
	<path class="st12" d="M591.9,135.8c-1,0-1.6-0.3-2.2-0.9c-0.5-0.6-0.8-1.4-0.8-2.4c0-1,0.3-1.8,0.8-2.4c0.5-0.6,1.2-1,2.1-1
		c0.8,0,1.4,0.3,1.8,0.8c0.4,0.5,0.7,1.2,0.7,2.2v0.4h-4.7c0,0.9,0.2,1.6,0.6,2c0.4,0.4,1,0.7,1.7,0.7c0.3,0,0.7,0,1-0.1
		s0.6-0.2,1-0.3v0.5c-0.3,0.2-0.7,0.3-1,0.3C592.5,135.7,592.2,135.8,591.9,135.8z M591.7,129.6c-0.6,0-1.1,0.2-1.5,0.6
		s-0.6,1-0.7,1.7h4c0-0.8-0.2-1.3-0.5-1.7C592.6,129.8,592.2,129.6,591.7,129.6z"/>
	<path class="st12" d="M599.8,133.9c0,0.6-0.3,1-0.7,1.3c-0.4,0.3-1,0.4-1.9,0.4s-1.6-0.2-2.1-0.4v-0.6c0.6,0.3,1.3,0.5,2.1,0.5
		c0.6,0,1.1-0.1,1.5-0.3c0.3-0.3,0.5-0.5,0.5-0.9c0-0.3-0.2-0.6-0.4-0.8c-0.3-0.2-0.7-0.4-1.3-0.7c-0.6-0.3-1.1-0.4-1.4-0.6
		c-0.3-0.2-0.4-0.3-0.6-0.6c-0.2-0.3-0.2-0.4-0.2-0.8c0-0.5,0.2-0.9,0.6-1.1c0.4-0.3,1-0.4,1.7-0.4c0.7,0,1.4,0.2,2,0.4l-0.3,0.5
		c-0.6-0.3-1.2-0.4-1.7-0.4c-0.5,0-1,0.1-1.2,0.3c-0.3,0.2-0.4,0.4-0.4,0.7c0,0.3,0.1,0.6,0.3,0.8c0.3,0.2,0.7,0.4,1.4,0.7
		c0.6,0.2,1,0.4,1.3,0.6c0.3,0.2,0.4,0.3,0.6,0.6C599.8,133.3,599.8,133.7,599.8,133.9z"/>
	<path class="st12" d="M603.2,135.3c0.3,0,0.7,0,1-0.1v0.4c-0.3,0.1-0.6,0.2-1,0.2c-0.6,0-1-0.2-1.3-0.4c-0.3-0.3-0.4-0.8-0.4-1.5
		v-4.2h-1v-0.3l1-0.3l0.3-1.5h0.3v1.6h1.9v0.5H602v4.1c0,0.5,0.1,0.9,0.3,1.1C602.4,135.2,602.9,135.3,603.2,135.3z"/>
	<path class="st12" d="M613.6,135.7v-4.2c0-0.6-0.1-1.1-0.3-1.4c-0.3-0.3-0.6-0.4-1.1-0.4c-0.7,0-1.1,0.2-1.5,0.5
		c-0.3,0.3-0.4,1-0.4,1.7v3.8h-0.6v-4.4c0-1.1-0.5-1.6-1.5-1.6c-0.7,0-1.1,0.2-1.5,0.6c-0.3,0.4-0.4,1-0.4,1.9v3.6h-0.6v-6.4h0.5
		l0.1,0.9l0,0c0.2-0.3,0.4-0.6,0.8-0.8c0.3-0.2,0.7-0.3,1.1-0.3c1,0,1.6,0.3,2,1.1l0,0c0.2-0.3,0.5-0.6,0.9-0.9
		c0.3-0.3,0.8-0.3,1.2-0.3c0.7,0,1.2,0.2,1.6,0.5c0.3,0.3,0.5,1,0.5,1.8v4.2L613.6,135.7L613.6,135.7z"/>
	<path class="st12" d="M618.9,135.8c-1,0-1.6-0.3-2.2-0.9c-0.5-0.6-0.8-1.4-0.8-2.4c0-1,0.3-1.8,0.8-2.4c0.5-0.6,1.2-1,2.1-1
		c0.8,0,1.4,0.3,1.8,0.8c0.4,0.5,0.7,1.2,0.7,2.2v0.4h-4.7c0,0.9,0.2,1.6,0.6,2c0.4,0.4,1,0.7,1.7,0.7c0.3,0,0.7,0,1-0.1
		c0.3-0.1,0.6-0.2,1-0.3v0.5c-0.3,0.2-0.7,0.3-1,0.3C619.6,135.7,619.3,135.8,618.9,135.8z M618.7,129.6c-0.6,0-1.1,0.2-1.5,0.6
		c-0.3,0.4-0.6,1-0.7,1.7h4c0-0.8-0.2-1.3-0.5-1.7C619.7,129.8,619.3,129.6,618.7,129.6z"/>
	<path class="st12" d="M627.5,135.7v-4.2c0-0.6-0.2-1.1-0.4-1.4c-0.3-0.3-0.7-0.4-1.3-0.4c-0.8,0-1.3,0.2-1.7,0.6
		c-0.4,0.4-0.5,1-0.5,1.9v3.6h-0.6v-6.4h0.5l0.1,0.9l0,0c0.4-0.7,1.1-1,2.3-1c1.5,0,2.2,0.8,2.2,2.3v4.2L627.5,135.7L627.5,135.7z"
		/>
	<path class="st12" d="M631.8,135.3c0.3,0,0.7,0,1-0.1v0.4c-0.3,0.1-0.6,0.2-1,0.2c-0.6,0-1-0.2-1.3-0.4c-0.3-0.3-0.4-0.8-0.4-1.5
		v-4.2h-1v-0.3l1-0.3l0.3-1.5h0.3v1.6h1.9v0.5h-1.9v4.1c0,0.5,0.1,0.9,0.3,1.1C631.1,135.2,631.5,135.3,631.8,135.3z"/>
	<path class="st12" d="M642.2,135.7h-4.8V127h4.8v0.5h-4.2v3.3h3.9v0.5h-3.9v3.7h4.2V135.7z"/>
	<path class="st12" d="M645.6,132.3l-2.3-3.1h0.7l1.9,2.7l1.9-2.7h0.6l-2.2,3.1l2.3,3.3H648l-2-2.9l-2.1,2.9h-0.6L645.6,132.3z"/>
	<path class="st12" d="M652.9,135.8c-1,0-1.7-0.3-2.2-1.1l0,0v0.5c0,0.3,0,0.6,0,1v2.4h-0.6v-9.4h0.5l0.1,1l0,0c0.4-0.7,1.1-1,2.1-1
		c0.9,0,1.6,0.3,2,0.9c0.4,0.6,0.7,1.4,0.7,2.5c0,1-0.3,1.9-0.7,2.4C654.4,135.4,653.7,135.8,652.9,135.8z M652.8,135.3
		c0.7,0,1.2-0.3,1.6-0.7s0.5-1.2,0.5-2.1c0-1.9-0.7-2.9-2.1-2.9c-0.8,0-1.3,0.2-1.6,0.6c-0.3,0.4-0.5,1.1-0.5,2v0.2
		c0,1,0.2,1.7,0.5,2.2C651.5,135,652.1,135.3,652.8,135.3z"/>
	<path class="st12" d="M659.9,135.8c-1,0-1.6-0.3-2.2-0.9c-0.5-0.6-0.8-1.4-0.8-2.4c0-1,0.3-1.8,0.8-2.4s1.2-1,2.1-1
		c0.8,0,1.4,0.3,1.8,0.8c0.4,0.5,0.7,1.2,0.7,2.2v0.4h-4.7c0,0.9,0.2,1.6,0.6,2c0.4,0.4,1,0.7,1.7,0.7c0.3,0,0.7,0,1-0.1
		c0.3-0.1,0.6-0.2,1-0.3v0.5c-0.3,0.2-0.7,0.3-1,0.3C660.6,135.7,660.3,135.8,659.9,135.8z M659.8,129.6c-0.6,0-1.1,0.2-1.5,0.6
		c-0.3,0.4-0.6,1-0.7,1.7h4c0-0.8-0.2-1.3-0.5-1.7C660.7,129.8,660.4,129.6,659.8,129.6z"/>
	<path class="st12" d="M666.5,129.1c0.3,0,0.6,0,0.9,0.1l-0.1,0.5c-0.3-0.1-0.5-0.1-0.9-0.1c-0.5,0-1,0.3-1.4,0.7
		c-0.3,0.4-0.5,1-0.5,1.7v3.6h-0.6v-6.4h0.5l0.1,1.1l0,0c0.3-0.4,0.5-0.8,0.9-1C665.7,129,666.1,129.1,666.5,129.1z"/>
	<path class="st12" d="M668.6,127.4c0-0.3,0.1-0.6,0.3-0.6c0.1,0,0.3,0.1,0.3,0.2s0.1,0.3,0.1,0.4s0,0.3-0.1,0.4s-0.2,0.2-0.3,0.2
		C668.8,128,668.6,127.8,668.6,127.4z M669.3,135.7h-0.6v-6.4h0.6V135.7z"/>
	<path class="st12" d="M674.1,135.8c-1,0-1.6-0.3-2.2-0.9c-0.5-0.6-0.8-1.4-0.8-2.4c0-1,0.3-1.8,0.8-2.4c0.5-0.6,1.2-1,2.1-1
		c0.8,0,1.4,0.3,1.8,0.8c0.4,0.5,0.7,1.2,0.7,2.2v0.4h-4.7c0,0.9,0.2,1.6,0.6,2c0.4,0.4,1,0.7,1.7,0.7c0.3,0,0.7,0,1-0.1
		s0.6-0.2,1-0.3v0.5c-0.3,0.2-0.7,0.3-1,0.3C674.8,135.7,674.4,135.8,674.1,135.8z M673.9,129.6c-0.6,0-1.1,0.2-1.5,0.6
		c-0.3,0.4-0.6,1-0.7,1.7h4c0-0.8-0.2-1.3-0.5-1.7S674.5,129.6,673.9,129.6z"/>
	<path class="st12" d="M682.7,135.7v-4.2c0-0.6-0.2-1.1-0.4-1.4c-0.3-0.3-0.7-0.4-1.3-0.4c-0.8,0-1.3,0.2-1.7,0.6
		c-0.4,0.4-0.5,1-0.5,1.9v3.6h-0.6v-6.4h0.5l0.1,0.9l0,0c0.4-0.7,1.1-1,2.3-1c1.5,0,2.2,0.8,2.2,2.3v4.2L682.7,135.7L682.7,135.7
		L682.7,135.7z"/>
	<path class="st12" d="M687.9,135.8c-1,0-1.6-0.3-2.2-0.9c-0.5-0.6-0.8-1.4-0.8-2.4c0-1,0.3-1.9,0.8-2.5c0.5-0.6,1.3-0.9,2.3-0.9
		c0.5,0,1.1,0.1,1.6,0.3l-0.2,0.5c-0.5-0.2-1-0.3-1.5-0.3c-0.8,0-1.4,0.3-1.8,0.7c-0.4,0.4-0.6,1.2-0.6,2.1s0.2,1.6,0.6,2.1
		c0.4,0.5,1,0.8,1.7,0.8c0.6,0,1.1-0.1,1.6-0.3v0.5C689.1,135.7,688.6,135.8,687.9,135.8z"/>
	<path class="st12" d="M693.7,135.8c-1,0-1.6-0.3-2.2-0.9c-0.5-0.6-0.8-1.4-0.8-2.4c0-1,0.3-1.8,0.8-2.4s1.2-1,2.1-1
		c0.8,0,1.4,0.3,1.8,0.8c0.4,0.5,0.7,1.2,0.7,2.2v0.4h-4.7c0,0.9,0.2,1.6,0.6,2c0.4,0.4,1,0.7,1.7,0.7c0.3,0,0.7,0,1-0.1
		c0.3-0.1,0.6-0.2,1-0.3v0.5c-0.3,0.2-0.7,0.3-1,0.3C694.4,135.7,694,135.8,693.7,135.8z M693.5,129.6c-0.6,0-1.1,0.2-1.5,0.6
		c-0.3,0.4-0.6,1-0.7,1.7h4c0-0.8-0.2-1.3-0.5-1.7C694.5,129.8,694.1,129.6,693.5,129.6z"/>
	<path class="st12" d="M706.2,132.4c0,1-0.3,1.9-0.8,2.4c-0.5,0.5-1.2,0.9-2.1,0.9c-0.6,0-1-0.2-1.5-0.4c-0.4-0.3-0.8-0.7-1-1.2
		s-0.3-1.1-0.3-1.7c0-1,0.3-1.9,0.8-2.4c0.5-0.5,1.2-0.9,2.1-0.9s1.6,0.3,2.1,0.9S706.2,131.3,706.2,132.4z M701.1,132.4
		c0,0.9,0.2,1.6,0.6,2.1c0.4,0.5,1,0.8,1.6,0.8s1.3-0.3,1.6-0.8c0.3-0.5,0.6-1.2,0.6-2.1s-0.2-1.6-0.6-2.1c-0.4-0.5-1-0.7-1.6-0.7
		s-1.3,0.3-1.6,0.7C701.4,130.7,701.1,131.5,701.1,132.4z"/>
	<path class="st12" d="M709.4,135.7l-2.5-6.4h0.6l1.6,4.4c0.3,0.5,0.3,1,0.5,1.5l0,0c0.2-0.5,0.3-1,0.5-1.5l1.6-4.3h0.6l-2.5,6.4
		L709.4,135.7L709.4,135.7z"/>
	<path class="st12" d="M716.1,135.8c-1,0-1.6-0.3-2.2-0.9c-0.5-0.6-0.8-1.4-0.8-2.4c0-1,0.3-1.8,0.8-2.4s1.2-1,2.1-1
		c0.8,0,1.4,0.3,1.8,0.8c0.4,0.5,0.7,1.2,0.7,2.2v0.4h-4.7c0,0.9,0.2,1.6,0.6,2c0.4,0.4,1,0.7,1.7,0.7c0.3,0,0.7,0,1-0.1
		c0.3-0.1,0.6-0.2,1-0.3v0.5c-0.3,0.2-0.7,0.3-1,0.3C716.8,135.7,716.6,135.8,716.1,135.8z M716,129.6c-0.6,0-1.1,0.2-1.5,0.6
		c-0.3,0.4-0.6,1-0.7,1.7h4c0-0.8-0.2-1.3-0.5-1.7C716.9,129.8,716.6,129.6,716,129.6z"/>
	<path class="st12" d="M722.8,129.1c0.3,0,0.6,0,0.9,0.1l-0.1,0.5c-0.3-0.1-0.5-0.1-0.9-0.1c-0.5,0-1,0.3-1.4,0.7
		c-0.3,0.4-0.5,1-0.5,1.7v3.6h-0.6v-6.4h0.5l0.1,1.1l0,0c0.3-0.4,0.5-0.8,0.9-1C722,129,722.4,129.1,722.8,129.1z"/>
	<path class="st12" d="M733.1,135.7h-5.5v-0.5l2.3-2.4c0.6-0.7,1.1-1.2,1.4-1.6s0.4-0.7,0.6-1c0.2-0.3,0.2-0.7,0.2-1
		c0-0.5-0.2-1-0.5-1.3c-0.3-0.3-0.8-0.5-1.3-0.5c-0.7,0-1.4,0.3-2.1,0.8l-0.3-0.4c0.7-0.6,1.6-1,2.4-1c0.8,0,1.4,0.2,1.8,0.6
		c0.4,0.4,0.6,1,0.6,1.6c0,0.6-0.2,1.1-0.4,1.6s-0.8,1.2-1.6,2l-2.3,2.3l0,0h4.6V135.7L733.1,135.7z"/>
	<path class="st12" d="M737.1,130.5c1,0,1.6,0.3,2.2,0.7c0.5,0.4,0.8,1,0.8,1.8c0,0.9-0.3,1.6-0.9,2.1s-1.3,0.8-2.3,0.8
		c-0.4,0-0.9,0-1.2-0.1c-0.3-0.1-0.7-0.2-1-0.3v-0.6c0.4,0.3,0.8,0.3,1.1,0.4c0.3,0.1,0.7,0.1,1,0.1c0.8,0,1.4-0.2,1.8-0.6
		c0.4-0.4,0.7-1,0.7-1.6c0-0.6-0.3-1.1-0.7-1.6c-0.4-0.4-1-0.5-1.8-0.5c-0.5,0-1,0.1-1.6,0.3L735,131l0.3-4h4.2v0.6h-3.6l-0.3,3
		C736.3,130.5,736.8,130.5,737.1,130.5z"/>
	<path class="st12" d="M740.9,129.2h0.6l1.4,3.6c0.4,1.1,0.7,1.8,0.8,2.3l0,0c0.2-0.5,0.4-1.3,0.8-2.3l1.4-3.6h0.6l-2.9,7.5
		c-0.3,0.6-0.4,1-0.6,1.2c-0.2,0.2-0.3,0.3-0.5,0.5s-0.4,0.2-0.8,0.2c-0.3,0-0.4,0-0.8-0.1V138c0.3,0.1,0.4,0.1,0.8,0.1
		c0.2,0,0.3-0.1,0.5-0.2s0.3-0.3,0.4-0.4s0.3-0.5,0.4-1c0.2-0.4,0.3-0.7,0.3-0.9L740.9,129.2z"/>
	<path class="st12" d="M750,129.1c0.3,0,0.6,0,0.9,0.1l-0.1,0.5c-0.3-0.1-0.5-0.1-0.9-0.1c-0.5,0-1,0.3-1.4,0.7s-0.5,1-0.5,1.7v3.6
		h-0.6v-6.4h0.5l0.1,1.1l0,0c0.3-0.4,0.5-0.8,0.9-1C749.3,129,749.7,129.1,750,129.1z"/>
	<path class="st12" d="M754.9,131.1h2.6v0.5h-2.6v2.6h-0.5v-2.6h-2.6v-0.5h2.6v-2.6h0.5V131.1z"/>
</g>
<g>
	<path class="st12" d="M1200.1,110.8v-8.7h0.6v8.7H1200.1z"/>
	<path class="st12" d="M1207.5,110.8v-4.2c0-0.6-0.2-1.1-0.4-1.4c-0.3-0.3-0.7-0.4-1.3-0.4c-0.8,0-1.3,0.2-1.7,0.6s-0.5,1-0.5,1.8
		v3.6h-0.6v-6.4h0.5l0.1,0.9l0,0c0.4-0.7,1.1-1,2.3-1c1.5,0,2.2,0.8,2.2,2.3v4.2L1207.5,110.8L1207.5,110.8z"/>
	<path class="st12" d="M1210,102.6c0-0.3,0.1-0.6,0.3-0.6c0.1,0,0.3,0.1,0.3,0.2s0.1,0.3,0.1,0.4s0,0.3-0.1,0.4
		c-0.1,0.1-0.2,0.2-0.3,0.2C1210.2,103.2,1210,103,1210,102.6z M1210.7,110.8h-0.6v-6.4h0.6V110.8z"/>
	<path class="st12" d="M1214.6,110.4c0.3,0,0.7,0,1-0.1v0.4c-0.3,0.1-0.6,0.2-1,0.2c-0.6,0-1-0.2-1.3-0.4c-0.3-0.3-0.4-0.8-0.4-1.5
		v-4.2h-1v-0.3l1-0.3l0.3-1.5h0.3v1.6h1.9v0.5h-1.9v4.1c0,0.5,0.1,0.9,0.3,1.1C1213.9,110.3,1214.2,110.4,1214.6,110.4z"/>
	<path class="st12" d="M1216.9,102.6c0-0.3,0.1-0.6,0.3-0.6c0.1,0,0.3,0.1,0.3,0.2c0.1,0.1,0.1,0.3,0.1,0.4s0,0.3-0.1,0.4
		c-0.1,0.1-0.2,0.2-0.3,0.2C1217,103.2,1216.9,103,1216.9,102.6z M1217.6,110.8h-0.6v-6.4h0.6V110.8z"/>
	<path class="st12" d="M1223.6,110.8l-0.2-1h-0.1c-0.3,0.4-0.7,0.7-1,0.9s-0.8,0.3-1.2,0.3c-0.6,0-1.1-0.2-1.5-0.5s-0.5-0.8-0.5-1.4
		c0-0.6,0.3-1.1,0.8-1.5c0.5-0.3,1.3-0.5,2.3-0.5h1.2v-0.4c0-0.6-0.1-1-0.3-1.4s-0.7-0.4-1.2-0.4c-0.6,0-1.2,0.2-1.8,0.5l-0.3-0.5
		c0.7-0.3,1.4-0.5,2.1-0.5c0.7,0,1.2,0.2,1.6,0.5s0.5,1,0.5,1.7v4.2L1223.6,110.8L1223.6,110.8z M1221.2,110.4
		c0.7,0,1.2-0.2,1.6-0.6c0.4-0.4,0.6-1,0.6-1.6v-0.6l-1.1,0.1c-0.9,0.1-1.6,0.2-1.9,0.4s-0.6,0.6-0.6,1.1c0,0.4,0.1,0.7,0.3,1
		C1220.4,110.4,1220.8,110.4,1221.2,110.4z"/>
	<path class="st12" d="M1226.7,110.8h-0.6v-9.2h0.6V110.8z"/>
	<path class="st12" d="M1232,102.6c0-0.3,0.1-0.6,0.3-0.6c0.1,0,0.3,0.1,0.3,0.2s0.1,0.3,0.1,0.4s0,0.3-0.1,0.4
		c-0.1,0.1-0.2,0.2-0.3,0.2C1232.1,103.2,1232,103,1232,102.6z M1232.6,110.8h-0.6v-6.4h0.6V110.8z"/>
	<path class="st12" d="M1239.3,110.8v-4.2c0-0.6-0.2-1.1-0.4-1.4c-0.3-0.3-0.7-0.4-1.3-0.4c-0.8,0-1.3,0.2-1.7,0.6
		c-0.3,0.3-0.5,1-0.5,1.9v3.6h-0.5v-6.4h0.5l0.1,0.9l0,0c0.4-0.7,1.1-1,2.3-1c1.5,0,2.2,0.8,2.2,2.3v4.2L1239.3,110.8L1239.3,110.8z
		"/>
	<path class="st12" d="M1243.3,110.8l-2.5-6.4h0.6l1.6,4.4c0.3,0.5,0.3,1,0.5,1.5l0,0c0.2-0.5,0.3-1,0.5-1.5l1.6-4.3h0.6l-2.5,6.4
		L1243.3,110.8L1243.3,110.8z"/>
	<path class="st12" d="M1250.1,111c-1,0-1.6-0.3-2.2-0.9c-0.5-0.6-0.8-1.4-0.8-2.4c0-1,0.3-1.8,0.8-2.4c0.5-0.6,1.2-1,2.1-1
		c0.8,0,1.4,0.3,1.8,0.8c0.4,0.5,0.7,1.2,0.7,2.2v0.4h-4.8c0,0.9,0.2,1.6,0.6,2c0.4,0.4,1,0.7,1.7,0.7c0.3,0,0.7,0,1-0.1
		c0.3-0.1,0.6-0.2,1-0.3v0.5c-0.3,0.2-0.7,0.3-1,0.3S1250.4,111,1250.1,111z M1249.9,104.7c-0.6,0-1.1,0.2-1.5,0.6s-0.6,1-0.7,1.7h4
		c0-0.8-0.2-1.3-0.5-1.7C1251,105,1250.5,104.7,1249.9,104.7z"/>
	<path class="st12" d="M1258.2,109.1c0,0.6-0.3,1-0.7,1.3c-0.4,0.3-1,0.4-1.9,0.4c-0.9,0-1.6-0.2-2.1-0.4v-0.6
		c0.6,0.3,1.3,0.5,2.1,0.5c0.6,0,1.1-0.1,1.5-0.3c0.3-0.3,0.5-0.5,0.5-0.9s-0.2-0.6-0.4-0.8c-0.3-0.3-0.7-0.4-1.3-0.7
		c-0.6-0.3-1.1-0.4-1.4-0.6c-0.3-0.2-0.4-0.3-0.6-0.6s-0.2-0.4-0.2-0.8c0-0.5,0.2-0.9,0.6-1.1c0.4-0.3,1-0.4,1.7-0.4
		c0.7,0,1.4,0.2,2,0.4l-0.3,0.5c-0.6-0.3-1.2-0.4-1.7-0.4c-0.5,0-1,0.1-1.2,0.3c-0.3,0.2-0.4,0.4-0.4,0.7c0,0.3,0.1,0.6,0.3,0.8
		c0.3,0.2,0.7,0.4,1.4,0.7c0.6,0.2,1,0.4,1.3,0.6c0.3,0.2,0.4,0.3,0.6,0.6C1258.2,108.5,1258.2,108.9,1258.2,109.1z"/>
	<path class="st12" d="M1261.5,110.4c0.3,0,0.7,0,1-0.1v0.4c-0.3,0.1-0.6,0.2-1,0.2c-0.6,0-1-0.2-1.3-0.4c-0.3-0.3-0.4-0.8-0.4-1.5
		v-4.2h-1v-0.3l1-0.3l0.3-1.5h0.3v1.6h1.9v0.5h-1.9v4.1c0,0.5,0.1,0.9,0.3,1.1C1260.9,110.3,1261.2,110.4,1261.5,110.4z"/>
	<path class="st12" d="M1272,110.8v-4.2c0-0.6-0.1-1.1-0.3-1.4c-0.3-0.3-0.6-0.4-1.1-0.4c-0.7,0-1.1,0.2-1.5,0.5s-0.4,1-0.4,1.7v3.8
		h-0.6v-4.4c0-1.1-0.5-1.6-1.5-1.6c-0.7,0-1.1,0.2-1.5,0.6s-0.4,1-0.4,1.9v3.6h-0.6v-6.4h0.5l0.1,0.9l0,0c0.2-0.3,0.4-0.6,0.8-0.8
		c0.3-0.2,0.7-0.3,1.1-0.3c1,0,1.6,0.3,2,1.1l0,0c0.2-0.3,0.5-0.6,0.9-0.9s0.8-0.3,1.2-0.3c0.7,0,1.2,0.2,1.6,0.5s0.5,1,0.5,1.8v4.2
		L1272,110.8L1272,110.8z"/>
	<path class="st12" d="M1277.2,111c-1,0-1.6-0.3-2.2-0.9c-0.5-0.6-0.8-1.4-0.8-2.4c0-1,0.3-1.8,0.8-2.4c0.5-0.6,1.2-1,2.1-1
		c0.8,0,1.4,0.3,1.8,0.8s0.7,1.2,0.7,2.2v0.4h-4.7c0,0.9,0.2,1.6,0.6,2c0.4,0.4,1,0.7,1.7,0.7c0.3,0,0.7,0,1-0.1
		c0.3-0.1,0.6-0.2,1-0.3v0.5c-0.3,0.2-0.7,0.3-1,0.3S1277.6,111,1277.2,111z M1277.1,104.7c-0.6,0-1.1,0.2-1.5,0.6s-0.6,1-0.7,1.7h4
		c0-0.8-0.2-1.3-0.5-1.7C1278,105,1277.6,104.7,1277.1,104.7z"/>
	<path class="st12" d="M1285.7,110.8v-4.2c0-0.6-0.2-1.1-0.4-1.4c-0.3-0.3-0.7-0.4-1.3-0.4c-0.8,0-1.3,0.2-1.7,0.6
		c-0.3,0.3-0.5,1-0.5,1.9v3.6h-0.6v-6.4h0.5l0.1,0.9l0,0c0.4-0.7,1.1-1,2.3-1c1.5,0,2.2,0.8,2.2,2.3v4.2L1285.7,110.8L1285.7,110.8
		L1285.7,110.8z"/>
	<path class="st12" d="M1290.2,110.4c0.3,0,0.7,0,1-0.1v0.4c-0.3,0.1-0.6,0.2-1,0.2c-0.6,0-1-0.2-1.3-0.4c-0.3-0.3-0.4-0.8-0.4-1.5
		v-4.2h-1v-0.3l1-0.3l0.3-1.5h0.3v1.6h1.9v0.5h-1.9v4.1c0,0.5,0.1,0.9,0.3,1.1C1289.5,110.3,1289.7,110.4,1290.2,110.4z"/>
	<path class="st12" d="M1301,104.6c0,0.9-0.3,1.5-0.9,1.9s-1.4,0.7-2.4,0.7h-1.3v3.6h-0.6v-8.7h2.1C1300,102.1,1301,103,1301,104.6z
		 M1296.4,106.7h1.2c1,0,1.6-0.2,2.1-0.5s0.7-0.9,0.7-1.6s-0.2-1.1-0.6-1.5c-0.4-0.3-1-0.5-1.9-0.5h-1.5V106.7z"/>
	<path class="st12" d="M1308.1,107.6c0,1-0.3,1.9-0.8,2.4c-0.5,0.5-1.2,0.9-2.1,0.9c-0.6,0-1-0.2-1.5-0.4s-0.8-0.7-1-1.2
		c-0.3-0.5-0.3-1.1-0.3-1.7c0-1,0.3-1.9,0.8-2.4s1.2-0.9,2.1-0.9c0.9,0,1.6,0.3,2.1,0.9C1307.9,105.8,1308.1,106.5,1308.1,107.6z
		 M1303,107.6c0,0.9,0.2,1.6,0.6,2.1c0.3,0.5,1,0.8,1.6,0.8s1.3-0.3,1.6-0.8s0.6-1.2,0.6-2.1s-0.2-1.6-0.6-2.1
		c-0.4-0.5-1-0.7-1.6-0.7s-1.3,0.3-1.6,0.7C1303.2,106,1303,106.7,1303,107.6z"/>
	<path class="st12" d="M1312.5,104.2c0.3,0,0.6,0,0.9,0.1l-0.1,0.5c-0.3-0.1-0.5-0.1-0.9-0.1c-0.5,0-1,0.3-1.4,0.7s-0.5,1-0.5,1.7
		v3.6h-0.6v-6.4h0.5l0.1,1.1l0,0c0.3-0.4,0.5-0.8,0.9-1C1311.6,104.4,1312,104.2,1312.5,104.2z"/>
	<path class="st12" d="M1316.3,110.4c0.3,0,0.7,0,1-0.1v0.4c-0.3,0.1-0.6,0.2-1,0.2c-0.6,0-1-0.2-1.3-0.4c-0.3-0.3-0.4-0.8-0.4-1.5
		v-4.2h-1v-0.3l1-0.3l0.3-1.5h0.3v1.6h1.9v0.5h-1.9v4.1c0,0.5,0.1,0.9,0.3,1.1C1315.7,110.3,1315.9,110.4,1316.3,110.4z"/>
	<path class="st12" d="M1321,104.9h-1.6v5.9h-0.6v-5.9h-1.2v-0.3l1.2-0.3v-0.5c0-0.8,0.2-1.4,0.4-1.7c0.3-0.3,0.8-0.5,1.4-0.5
		c0.3,0,0.7,0.1,1,0.2l-0.2,0.5c-0.3-0.1-0.6-0.2-1-0.2c-0.4,0-0.8,0.2-1,0.4c-0.2,0.3-0.3,0.7-0.3,1.3v0.6h1.6L1321,104.9
		L1321,104.9z"/>
	<path class="st12" d="M1327.6,107.6c0,1-0.3,1.9-0.8,2.4c-0.5,0.5-1.2,0.9-2.1,0.9c-0.6,0-1-0.2-1.5-0.4c-0.4-0.3-0.8-0.7-1-1.2
		c-0.3-0.5-0.3-1.1-0.3-1.7c0-1,0.3-1.9,0.8-2.4s1.2-0.9,2.1-0.9c0.9,0,1.6,0.3,2.1,0.9C1327.4,105.8,1327.6,106.5,1327.6,107.6z
		 M1322.5,107.6c0,0.9,0.2,1.6,0.6,2.1c0.4,0.5,1,0.8,1.6,0.8s1.3-0.3,1.6-0.8s0.6-1.2,0.6-2.1s-0.2-1.6-0.6-2.1
		c-0.4-0.5-1-0.7-1.6-0.7s-1.3,0.3-1.6,0.7C1322.8,106,1322.5,106.7,1322.5,107.6z"/>
	<path class="st12" d="M1330,110.8h-0.6v-9.2h0.6V110.8z"/>
	<path class="st12" d="M1332.1,102.6c0-0.3,0.1-0.6,0.3-0.6c0.1,0,0.3,0.1,0.3,0.2c0.1,0.1,0.1,0.3,0.1,0.4s0,0.3-0.1,0.4
		c-0.1,0.1-0.2,0.2-0.3,0.2C1332.2,103.2,1332.1,103,1332.1,102.6z M1332.7,110.8h-0.6v-6.4h0.6V110.8z"/>
	<path class="st12" d="M1340.2,107.6c0,1-0.3,1.9-0.8,2.4c-0.5,0.5-1.2,0.9-2.1,0.9c-0.6,0-1-0.2-1.5-0.4c-0.4-0.3-0.8-0.7-1-1.2
		c-0.3-0.5-0.3-1.1-0.3-1.7c0-1,0.3-1.9,0.8-2.4s1.2-0.9,2.1-0.9c0.9,0,1.6,0.3,2.1,0.9C1340,105.8,1340.2,106.5,1340.2,107.6z
		 M1335.2,107.6c0,0.9,0.2,1.6,0.6,2.1s1,0.8,1.6,0.8c0.7,0,1.3-0.3,1.6-0.8s0.6-1.2,0.6-2.1s-0.2-1.6-0.6-2.1s-1-0.7-1.6-0.7
		c-0.7,0-1.3,0.3-1.6,0.7C1335.3,106,1335.2,106.7,1335.2,107.6z"/>
	<path class="st12" d="M1349.9,104.2c0,0.5-0.2,1-0.5,1.4c-0.3,0.3-0.8,0.6-1.4,0.7l0,0c0.7,0.1,1.2,0.3,1.6,0.7
		c0.3,0.3,0.5,0.9,0.5,1.5c0,0.8-0.3,1.5-0.9,1.9c-0.5,0.4-1.4,0.7-2.3,0.7c-0.9,0-1.6-0.2-2.3-0.5v-0.7c0.3,0.2,0.7,0.3,1.1,0.4
		s0.8,0.2,1.1,0.2c0.9,0,1.6-0.2,2-0.5s0.7-0.9,0.7-1.5s-0.3-1-0.7-1.3c-0.4-0.3-1.1-0.4-2-0.4h-1v-0.6h1c0.7,0,1.3-0.2,1.7-0.5
		c0.4-0.3,0.6-0.8,0.6-1.4c0-0.5-0.2-0.9-0.5-1.1c-0.3-0.3-0.8-0.4-1.3-0.4c-0.4,0-0.8,0.1-1.2,0.2s-0.8,0.3-1.2,0.6l-0.3-0.4
		c0.3-0.3,0.8-0.5,1.2-0.7c0.4-0.2,1-0.3,1.5-0.3c0.8,0,1.4,0.2,1.8,0.6C1349.7,103,1349.9,103.5,1349.9,104.2z"/>
</g>
</svg>
