<?xml version="1.0" encoding="utf-8"?>
<!-- Generator: Adobe Illustrator 19.0.0, SVG Export Plug-In . SVG Version: 6.00 Build 0)  -->
<svg version="1.1" id="图层_1" xmlns="http://www.w3.org/2000/svg" xmlns:xlink="http://www.w3.org/1999/xlink" x="0px" y="0px"
	 viewBox="0 0 440 130" style="enable-background:new 0 0 440 130;" xml:space="preserve">
<style type="text/css">
	.st0{fill:#AF863E;}
	.st1{fill:#C3C3C0;}
	.st2{fill:#EDEDEE;}
	.st3{fill-rule:evenodd;clip-rule:evenodd;fill:#D98F00;}
	.st4{fill-rule:evenodd;clip-rule:evenodd;fill:#EDAF10;}
	.st5{fill-rule:evenodd;clip-rule:evenodd;fill:#FFCC00;}
	.st6{fill-rule:evenodd;clip-rule:evenodd;fill:#FFE23C;}
	.st7{clip-path:url(#XMLID_3_);enable-background:new    ;}
	.st8{fill:#D98F00;}
	.st9{fill:#FFE23C;}
	.st10{fill:#FFCC00;}
	.st11{clip-path:url(#XMLID_4_);enable-background:new    ;}
	.st12{clip-path:url(#XMLID_5_);enable-background:new    ;}
	.st13{clip-path:url(#XMLID_6_);enable-background:new    ;}
	.st14{fill:#B2B2B2;}
	.st15{fill:#C9C9C9;}
	.st16{fill:#E2E2E2;}
	.st17{fill:#EBEBEC;}
	.st18{fill:#C3C5C7;}
	.st19{fill:#F2F2F2;}
	.st20{fill:#FEFEFD;}
	.st21{fill:#1F6AAD;}
	.st22{opacity:0.2;fill:#C9C9C9;}
	.st23{fill:#F1F8F8;}
	.st24{fill:#5B9FDE;}
	.st25{fill:#F7F7F7;}
	.st26{clip-path:url(#XMLID_7_);}
	.st27{clip-path:url(#XMLID_8_);}
	.st28{enable-background:new    ;}
	.st29{clip-path:url(#XMLID_9_);enable-background:new    ;}
	.st30{fill:#6A5417;}
	.st31{fill:#665117;}
	.st32{fill:#8E701F;}
	.st33{fill:#7A5D1B;}
	.st34{fill:#CCA22E;}
	.st35{fill:#808080;}
</style>
<g id="XMLID_1_">
	<g id="XMLID_4660_">
		<rect id="XMLID_4658_" x="293.2" y="89.1" class="st0" width="24.8" height="1"/>
		<rect id="XMLID_4797_" x="293.2" y="101.1" class="st0" width="24.8" height="1"/>
	</g>
	<g id="XMLID_4803_">
		<rect id="XMLID_4806_" x="121.9" y="89.1" class="st0" width="24.8" height="1"/>
		<rect id="XMLID_4804_" x="121.9" y="101.1" class="st0" width="24.8" height="1"/>
	</g>
	<g id="XMLID_4771_">
		<path id="XMLID_4798_" class="st1" d="M258,95l-36.8-21.2c-0.8-0.5-1.7-0.5-2.5,0L182,95H172v6.3h0c0,0.8,0.4,1.7,1.3,2.1
			l45.4,26.2c0.8,0.5,1.7,0.5,2.5,0l45.4-26.2c0.8-0.5,1.2-1.3,1.3-2.1h0V95H258z"/>
		<path id="XMLID_4661_" class="st2" d="M218.7,123.5l-45.4-26.2c-1.7-1-1.7-3.4,0-4.4l45.4-26.2c0.8-0.5,1.7-0.5,2.5,0l45.4,26.2
			c1.7,1,1.7,3.4,0,4.4l-45.4,26.2C220.5,123.9,219.5,123.9,218.7,123.5z"/>
	</g>
	<g id="XMLID_4813_">
		<g id="XMLID_4969_">
			<path id="XMLID_4973_" class="st1" d="M86.7,95L50,73.8c-0.8-0.5-1.7-0.5-2.5,0L10.7,95H0.8v6.3h0c0,0.8,0.4,1.7,1.3,2.1
				l45.4,26.2c0.8,0.5,1.7,0.5,2.5,0l45.4-26.2c0.8-0.5,1.2-1.3,1.3-2.1h0V95H86.7z"/>
			<path id="XMLID_4970_" class="st2" d="M47.5,123.5L2,97.2c-1.7-1-1.7-3.4,0-4.4l45.4-26.2c0.8-0.5,1.7-0.5,2.5,0l45.4,26.2
				c1.7,1,1.7,3.4,0,4.4L50,123.5C49.2,123.9,48.2,123.9,47.5,123.5z"/>
		</g>
		<g id="XMLID_4941_">
			<g id="XMLID_4960_">
				<path id="XMLID_4968_" class="st3" d="M52.4,44.7c9.8,3.5,16.9,14.4,16.9,27.3c0,12.9-7.1,23.8-16.9,27.3v1.2h-6.2
					c-0.2,0-0.4,0-0.6,0C32.6,100.5,22,87.7,22,72c0-15.7,10.6-28.5,23.6-28.5h6.7V44.7L52.4,44.7z"/>
				<path id="XMLID_4967_" class="st4" d="M59,48.5c6.2,5.1,10.3,13.7,10.3,23.5c0,4.2-0.7,8.1-2.1,11.7H24.1
					C22.8,80.1,22,76.1,22,72c0-9.8,4.1-18.4,10.3-23.5H59L59,48.5z"/>
				<path id="XMLID_4966_" class="st5" d="M51.8,43.5c13,0,23.6,12.8,23.6,28.5c0,15.7-10.6,28.5-23.6,28.5
					c-13,0-23.6-12.8-23.6-28.5C28.2,56.2,38.7,43.5,51.8,43.5L51.8,43.5z"/>
				<path id="XMLID_4965_" class="st5" d="M62.8,52.4c2.9,3.7,5,8.3,5.9,13.4H22.6c0.9-5.1,3-9.7,5.9-13.4H62.8L62.8,52.4z"/>
				<path id="XMLID_4964_" class="st6" d="M52.6,48.4c10.8,0,19.5,11,19.5,24.5c0,13.5-8.7,24.5-19.5,24.5
					c-10.8,0-19.5-11-19.5-24.5C33.1,59.4,41.8,48.4,52.6,48.4L52.6,48.4z"/>
				<path id="XMLID_4963_" class="st4" d="M51.8,47.4c10.8,0,19.5,11,19.5,24.5c0,13.5-8.7,24.5-19.5,24.5
					c-10.8,0-19.5-11-19.5-24.5C32.3,58.4,41,47.4,51.8,47.4L51.8,47.4z"/>
				<path id="XMLID_4962_" class="st6" d="M51.8,43.5c6.7,0,12.8,3.4,17.1,8.8c-4.2-4.9-10-7.9-16.3-7.9C39.6,44.5,29,57.2,29,73
					c0,7.6,2.5,14.5,6.5,19.6C31,87.4,28.2,80.1,28.2,72C28.2,56.2,38.7,43.5,51.8,43.5L51.8,43.5z"/>
				<path id="XMLID_4961_" class="st3" d="M51.8,47.4c5.6,0,10.6,3,14.2,7.7c-3.5-4.2-8.2-6.7-13.4-6.7c-10.8,0-19.5,11-19.5,24.5
					c0,6.5,2,12.4,5.3,16.8C34.6,85.3,32.3,79,32.3,72C32.3,58.4,41,47.4,51.8,47.4L51.8,47.4z"/>
			</g>
			<g id="XMLID_4956_">
				<defs>
					<path id="XMLID_4959_" d="M54.3,62.1l1.4,0.1c1.1,0.1,2.3,0.5,3.8,1.2l-1.4-0.1C56.7,62.6,55.4,62.2,54.3,62.1z"/>
				</defs>
				<use xlink:href="#XMLID_4959_"  style="overflow:visible;fill:#D98F00;"/>
				<clipPath id="XMLID_3_">
					<use xlink:href="#XMLID_4959_"  style="overflow:visible;"/>
				</clipPath>
				<g id="XMLID_4957_" class="st7">
					<path id="XMLID_4958_" class="st8" d="M59.5,63.5l-1.4-0.1c-1.4-0.7-2.7-1.2-3.8-1.2l1.4,0.1C56.9,62.4,58.1,62.8,59.5,63.5"/>
				</g>
			</g>
			<g id="XMLID_4954_">
				<polygon id="XMLID_4955_" class="st8" points="52.5,69.5 51.1,69.4 57,69.4 58.4,69.5 				"/>
			</g>
			<g id="XMLID_4952_">
				<polygon id="XMLID_4953_" class="st8" points="49.8,81.6 48.3,81.5 59.6,81.5 61,81.6 				"/>
			</g>
			<g id="XMLID_4946_">
				<path id="XMLID_4951_" class="st9" d="M46.2,76.6c0,0.2,0,0.3,0,0.4c0,0,0,0.1,0,0.1c0,0.1,0,0.2,0,0.3c0,0,0,0.1,0,0.1
					c0,0.1,0,0.2,0,0.3c0,0,0,0.1,0,0.1c0,0,0,0.1,0,0.1c0,0.1-0.1,0.3-0.1,0.4c0,0,0,0.1,0,0.1c0,0.1-0.1,0.2-0.1,0.4
					c0,0,0,0.1,0,0.1c0,0.1-0.1,0.2-0.1,0.2c0,0,0,0.1,0,0.1c0,0.1-0.1,0.2-0.2,0.3c0,0.1-0.1,0.1-0.1,0.2c0,0-0.1,0.1-0.1,0.1
					c0,0-0.1,0.1-0.1,0.1c0,0-0.1,0.1-0.1,0.1c0,0-0.1,0.1-0.1,0.1c0,0-0.1,0.1-0.1,0.1c0,0-0.1,0.1-0.1,0.1c0,0-0.1,0.1-0.1,0.1
					c-0.1,0-0.1,0.1-0.2,0.1c0,0-0.1,0.1-0.1,0.1c-0.1,0-0.1,0.1-0.2,0.1c0,0-0.1,0.1-0.1,0.1c-0.1,0.1-0.2,0.1-0.2,0.2
					c0,0-0.1,0.1-0.1,0.1c-0.1,0.1-0.3,0.1-0.4,0.2L43,86.6l1.4,0.1l0.2-4.9c0.1-0.1,0.3-0.1,0.4-0.2c0,0,0.1,0,0.1-0.1
					c0.1,0,0.2-0.1,0.2-0.2c0,0,0.1-0.1,0.1-0.1c0.1,0,0.1-0.1,0.2-0.1c0,0,0.1-0.1,0.1-0.1c0.1,0,0.1-0.1,0.2-0.1
					c0,0,0.1-0.1,0.1-0.1c0.1,0,0.1-0.1,0.1-0.1c0,0,0.1-0.1,0.1-0.1c0,0,0.1-0.1,0.1-0.1c0,0,0.1-0.1,0.1-0.1c0,0,0.1-0.1,0.1-0.1
					c0,0,0.1-0.1,0.1-0.1c0,0,0-0.1,0.1-0.1c0,0,0-0.1,0.1-0.1c0.1-0.1,0.1-0.2,0.2-0.3c0,0,0-0.1,0-0.1c0-0.1,0.1-0.1,0.1-0.2
					c0,0,0,0,0,0c0,0,0,0,0-0.1c0-0.1,0.1-0.2,0.1-0.4c0,0,0-0.1,0-0.1c0-0.1,0.1-0.3,0.1-0.4c0,0,0-0.1,0-0.1c0,0,0,0,0,0
					c0,0,0-0.1,0-0.1c0-0.1,0-0.2,0-0.3c0,0,0-0.1,0-0.1c0-0.1,0-0.2,0-0.3c0,0,0-0.1,0-0.1c0-0.1,0-0.3,0-0.4l0.1-2.9l-1.4-0.1
					L46.2,76.6z"/>
				<path id="XMLID_4950_" class="st9" d="M50.7,58.7C50.8,58.7,50.8,58.7,50.7,58.7c0.2-0.2,0.3-0.2,0.5-0.3c0,0,0,0,0,0
					c0.1-0.1,0.3-0.2,0.4-0.3c0,0,0.1,0,0.1,0c0.1-0.1,0.3-0.1,0.5-0.2c0,0,0.1,0,0.1,0c0.1-0.1,0.3-0.1,0.5-0.2c0,0,0,0,0.1,0
					c0.2,0,0.3-0.1,0.5-0.1c0,0,0.1,0,0.1,0c0.2,0,0.3-0.1,0.5-0.1c0,0,0.1,0,0.1,0c0.1,0,0.3,0,0.4,0c0,0,0.1,0,0.1,0
					c0.2,0,0.3,0,0.5,0c0.3,0,0.6,0,1,0l-1.4-0.1c-0.3,0-0.6,0-1,0c-0.2,0-0.3,0-0.5,0c0,0-0.1,0-0.1,0c-0.1,0-0.3,0-0.4,0
					c0,0,0,0-0.1,0c0,0,0,0,0,0c-0.2,0-0.4,0.1-0.5,0.1c0,0-0.1,0-0.1,0c-0.2,0-0.3,0.1-0.5,0.1c0,0,0,0-0.1,0
					c-0.2,0-0.3,0.1-0.5,0.2c0,0-0.1,0-0.1,0c-0.2,0.1-0.3,0.1-0.5,0.2c0,0-0.1,0-0.1,0c-0.1,0.1-0.3,0.2-0.4,0.3c0,0,0,0,0,0
					c-0.1,0.1-0.3,0.2-0.4,0.3c0,0,0,0-0.1,0.1c-0.1,0.1-0.3,0.2-0.4,0.3c0,0,0,0-0.1,0.1c-0.1,0.1-0.2,0.2-0.4,0.4
					c-0.1,0.2-0.3,0.3-0.4,0.5c0,0.1-0.1,0.1-0.1,0.2c0,0.1-0.1,0.1-0.1,0.2c0,0,0,0.1-0.1,0.1c-0.1,0.1-0.1,0.2-0.2,0.4
					c-0.1,0.1-0.1,0.2-0.2,0.3c-0.1,0.1-0.1,0.3-0.2,0.4c0,0.1-0.1,0.1-0.1,0.2c0,0,0,0.1,0,0.1c0,0.1-0.1,0.3-0.1,0.4
					c0,0.1-0.1,0.2-0.1,0.4c0,0.2-0.1,0.3-0.1,0.5c0,0.1,0,0.2-0.1,0.3c0,0,0,0.1,0,0.2c0,0,0,0.1,0,0.1c0,0.3-0.1,0.5-0.1,0.8
					c0,0,0,0.1,0,0.1c0,0.3,0,0.6-0.1,0.9l-0.1,3.9l1.4,0.1l0.1-3.9c0-0.3,0-0.6,0.1-0.9c0,0,0-0.1,0-0.1c0-0.3,0.1-0.5,0.1-0.8
					c0,0,0-0.1,0-0.1c0-0.1,0.1-0.3,0.1-0.4c0-0.2,0.1-0.3,0.1-0.5c0-0.1,0.1-0.2,0.1-0.4c0-0.1,0.1-0.3,0.1-0.4
					c0-0.1,0.1-0.2,0.1-0.3c0.1-0.1,0.1-0.3,0.2-0.4c0-0.1,0.1-0.2,0.2-0.3c0.1-0.1,0.1-0.2,0.2-0.4c0.1-0.1,0.1-0.2,0.2-0.4
					c0-0.1,0.1-0.1,0.1-0.2c0.1-0.2,0.3-0.4,0.4-0.5c0.1-0.1,0.2-0.3,0.4-0.4c0,0,0,0,0.1-0.1C50.5,58.9,50.6,58.8,50.7,58.7z"/>
				<polygon id="XMLID_4948_" class="st9" points="45,69.5 43.6,69.4 43.5,73.7 44.9,73.8 				"/>
			</g>
			<g id="XMLID_4944_">
				<path id="XMLID_4945_" class="st10" d="M55.1,57.3c2,0,4.1,0.5,6.1,1.6l-1.6,4.6c-1.6-0.8-3-1.3-4.2-1.3c-0.8,0-1.4,0.3-1.9,0.9
					c-0.5,0.6-0.7,1.4-0.7,2.5l-0.1,3.8h5.9l-0.1,4.3h-5.9l-0.1,2.8c-0.1,2.2-0.9,3.9-2.5,4.9H61l-0.2,5.2H44.4l0.2-4.9
					c1.1-0.6,1.9-1.2,2.3-2c0.4-0.8,0.7-1.8,0.7-3.1l0.1-2.9h-2.8l0.1-4.3h2.8l0.1-3.9c0.1-2.7,0.7-4.7,2-6.1
					C51.2,58,52.9,57.3,55.1,57.3z"/>
			</g>
			<g id="XMLID_4942_">
				<polygon id="XMLID_4943_" class="st8" points="45,69.5 43.6,69.4 46.4,69.4 47.8,69.5 				"/>
			</g>
		</g>
	</g>
	<g id="XMLID_79_">
		<g id="XMLID_6447_">
			<path id="XMLID_6455_" class="st3" d="M223.7,45.2c9.8,3.5,16.9,14.4,16.9,27.3c0,12.9-7.1,23.8-16.9,27.3v1.2h-6.2
				c-0.2,0-0.4,0-0.6,0c-13,0-23.6-12.8-23.6-28.5c0-15.7,10.6-28.5,23.6-28.5h6.7V45.2L223.7,45.2z"/>
			<path id="XMLID_6454_" class="st4" d="M230.3,49c6.2,5.1,10.3,13.7,10.3,23.5c0,4.2-0.7,8.1-2.1,11.7h-43.1
				c-1.3-3.6-2.1-7.5-2.1-11.7c0-9.8,4.1-18.4,10.3-23.5H230.3L230.3,49z"/>
			<path id="XMLID_6453_" class="st5" d="M223.1,44c13,0,23.6,12.8,23.6,28.5c0,15.7-10.6,28.5-23.6,28.5c-13,0-23.6-12.8-23.6-28.5
				C199.4,56.7,210,44,223.1,44L223.1,44z"/>
			<path id="XMLID_6452_" class="st5" d="M234.1,52.9c2.9,3.7,5,8.3,5.9,13.4h-46.1c0.9-5.1,3-9.7,5.9-13.4H234.1L234.1,52.9z"/>
			<path id="XMLID_6451_" class="st6" d="M223.9,48.9c10.8,0,19.5,11,19.5,24.5c0,13.5-8.7,24.5-19.5,24.5
				c-10.8,0-19.5-11-19.5-24.5C204.4,59.9,213.1,48.9,223.9,48.9L223.9,48.9z"/>
			<path id="XMLID_6450_" class="st4" d="M223.1,47.9c10.8,0,19.5,11,19.5,24.5c0,13.5-8.7,24.5-19.5,24.5
				c-10.8,0-19.5-11-19.5-24.5C203.6,58.9,212.3,47.9,223.1,47.9L223.1,47.9z"/>
			<path id="XMLID_6449_" class="st6" d="M223.1,44c6.7,0,12.8,3.4,17.1,8.8c-4.2-4.9-10-7.9-16.3-7.9c-13,0-23.6,12.8-23.6,28.5
				c0,7.6,2.5,14.5,6.5,19.6c-4.5-5.2-7.3-12.5-7.3-20.6C199.4,56.7,210,44,223.1,44L223.1,44z"/>
			<path id="XMLID_6448_" class="st3" d="M223.1,47.9c5.6,0,10.6,3,14.2,7.7c-3.5-4.2-8.2-6.7-13.4-6.7c-10.8,0-19.5,11-19.5,24.5
				c0,6.5,2,12.4,5.3,16.8c-3.8-4.5-6.1-10.8-6.1-17.8C203.6,58.9,212.3,47.9,223.1,47.9L223.1,47.9z"/>
		</g>
		<g id="XMLID_6290_">
			<polygon id="XMLID_6291_" class="st9" points="232.2,79.9 230.8,79.8 235,79.8 236.4,79.9 			"/>
		</g>
		<g id="XMLID_6286_">
			<defs>
				<path id="XMLID_6289_" d="M232.8,78.4l-1.4-0.1c-0.5-0.7-1.1-1.4-1.6-2.1l1.4,0.1C231.7,77,232.3,77.7,232.8,78.4z"/>
			</defs>
			<use xlink:href="#XMLID_6289_"  style="overflow:visible;fill:#D98F00;"/>
			<clipPath id="XMLID_4_">
				<use xlink:href="#XMLID_6289_"  style="overflow:visible;"/>
			</clipPath>
			<g id="XMLID_6287_" class="st11">
				<path id="XMLID_6288_" class="st8" d="M232.8,78.4l-1.4-0.1c-0.5-0.7-1.1-1.4-1.6-2.1l1.4,0.1C231.7,77,232.3,77.7,232.8,78.4"
					/>
			</g>
		</g>
		<g id="XMLID_6284_">
			<polygon id="XMLID_6285_" class="st8" points="230.4,87.3 228.9,87.2 229.1,81.9 230.5,82 			"/>
		</g>
		<g id="XMLID_6282_">
			<polygon id="XMLID_6283_" class="st8" points="230.5,82 229.1,81.9 226.4,78.3 227.8,78.4 			"/>
		</g>
		<g id="XMLID_6277_">
			<defs>
				<path id="XMLID_6281_" d="M224.2,81.4l-1.4-0.1c0.1,0,0.3,0,0.4,0c1,0,2-0.3,3.1-0.9l1.4,0.1c-1.1,0.6-2.1,0.9-3.1,0.9
					C224.5,81.4,224.4,81.4,224.2,81.4z"/>
			</defs>
			<use xlink:href="#XMLID_6281_"  style="overflow:visible;fill:#D98F00;"/>
			<clipPath id="XMLID_5_">
				<use xlink:href="#XMLID_6281_"  style="overflow:visible;"/>
			</clipPath>
			<g id="XMLID_6278_" class="st12">
				<path id="XMLID_6280_" class="st8" d="M224.2,81.4l-1.4-0.1c0.1,0,0.3,0,0.4,0c0.2,0,0.4,0,0.7,0l1.4,0.1c-0.2,0-0.4,0-0.7,0
					C224.5,81.4,224.4,81.4,224.2,81.4"/>
				<path id="XMLID_6279_" class="st8" d="M225.4,81.4l-1.4-0.1c0.8-0.1,1.6-0.4,2.4-0.9l1.4,0.1C227,81,226.1,81.3,225.4,81.4"/>
			</g>
		</g>
		<g id="XMLID_6270_">
			<defs>
				<path id="XMLID_6276_" d="M224.3,63.6l1.4,0.1c3.4,0.3,6.5,3.6,6.3,8.9c0,1.4-0.3,2.6-0.8,3.8l-1.4-0.1c0.5-1.2,0.8-2.4,0.8-3.8
					C230.8,67.2,227.7,63.8,224.3,63.6z"/>
			</defs>
			<use xlink:href="#XMLID_6276_"  style="overflow:visible;fill:#D98F00;"/>
			<clipPath id="XMLID_6_">
				<use xlink:href="#XMLID_6276_"  style="overflow:visible;"/>
			</clipPath>
			<g id="XMLID_6271_" class="st13">
				<path id="XMLID_6275_" class="st8" d="M231.2,76.3l-1.4-0.1c0.1-0.2,0.1-0.3,0.2-0.5l1.4,0.1C231.3,76,231.3,76.2,231.2,76.3"/>
				<path id="XMLID_6274_" class="st8" d="M231.4,75.9l-1.4-0.1c0.2-0.6,0.4-1.1,0.5-1.7l1.4,0.1C231.7,74.8,231.6,75.3,231.4,75.9"
					/>
				<path id="XMLID_6273_" class="st8" d="M231.9,74.2l-1.4-0.1c0.1-0.5,0.1-1.1,0.2-1.6c0-0.2,0-0.3,0-0.5l1.4,0.1
					c0,0.2,0,0.3,0,0.5C232,73.1,231.9,73.7,231.9,74.2"/>
				<path id="XMLID_6272_" class="st8" d="M232,72.1l-1.4-0.1c0-5-3-8.1-6.3-8.4l1.4,0.1C229,64,232,67.1,232,72.1"/>
			</g>
		</g>
		<g id="XMLID_6268_">
			<polygon id="XMLID_6269_" class="st8" points="223.7,78.4 222.2,78.3 222.5,70.9 223.9,71.1 			"/>
		</g>
		<g id="XMLID_6266_">
			<polygon id="XMLID_6267_" class="st9" points="223.9,71.1 222.5,70.9 228.3,70.9 229.7,71.1 			"/>
		</g>
		<g id="XMLID_6264_">
			<polygon id="XMLID_6265_" class="st10" points="229.7,71.1 229.5,76.3 232.2,79.9 236.4,79.9 236.2,87.3 230.4,87.3 230.5,82 
				227.8,78.4 223.7,78.4 223.9,71.1 			"/>
		</g>
		<g id="XMLID_6262_">
			<path id="XMLID_6263_" class="st10" d="M225.5,57.8c1.1,0,2.2,0.2,3.3,0.6c4.9,1.9,8.1,7.6,7.9,14.1c-0.1,2.1-0.4,4-1.2,5.9
				c-0.9,0-1.8,0-2.7,0c-0.5-0.7-1.1-1.4-1.6-2.1c0.5-1.2,0.8-2.4,0.8-3.8c0.2-5.5-3.2-8.9-6.8-8.9c-2.2,0-4.4,1.3-6,4.1
				c-3.3,6.3,0.4,13.6,5.4,13.6c1,0,2-0.3,3.1-0.9c0.5,0.7,1.1,1.4,1.6,2.1c0,1.2-0.1,2.3-0.1,3.5c-1.5,0.8-3.1,1.2-4.7,1.2
				c-3.4,0-6.6-1.8-8.7-5.2c-3.2-5-3.3-12.1-0.3-17.6C217.9,60.2,221.6,57.8,225.5,57.8z"/>
		</g>
		<path id="XMLID_6261_" class="st9" d="M215.3,81.1c0-0.1-0.1-0.1-0.1-0.2c-0.1-0.1-0.1-0.2-0.2-0.3c0-0.1-0.1-0.1-0.1-0.2
			c0-0.1-0.1-0.2-0.1-0.3c0-0.1-0.1-0.2-0.1-0.2c0-0.1-0.1-0.2-0.1-0.3c0-0.1-0.1-0.2-0.1-0.2c0-0.1-0.1-0.2-0.1-0.3
			c0-0.1-0.1-0.2-0.1-0.2c0-0.1-0.1-0.2-0.1-0.3c0-0.1-0.1-0.2-0.1-0.3c0-0.1-0.1-0.2-0.1-0.3c0-0.1,0-0.2-0.1-0.3
			c0-0.1-0.1-0.2-0.1-0.3c0-0.1,0-0.2-0.1-0.3c0-0.1,0-0.2-0.1-0.3c0-0.1,0-0.2-0.1-0.3c0-0.1,0-0.2-0.1-0.3c0-0.1,0-0.2,0-0.3
			c0-0.1,0-0.2,0-0.3c0-0.1,0-0.2,0-0.3c0-0.1,0-0.2,0-0.3c0-0.1,0-0.2,0-0.3c0-0.1,0-0.2,0-0.3c0-0.1,0-0.2,0-0.3
			c0-0.1,0-0.2,0-0.3c0-0.1,0-0.2,0-0.3c0-0.1,0-0.2,0-0.3c0-0.1,0-0.1,0-0.2c0-0.2,0-0.4,0-0.6c0-0.1,0-0.1,0-0.2
			c0-0.2,0-0.5,0-0.7c0-0.1,0-0.1,0-0.2c0-0.2,0-0.4,0.1-0.6c0-0.1,0-0.1,0-0.2c0-0.2,0.1-0.5,0.1-0.7c0,0,0-0.1,0-0.1
			c0-0.2,0.1-0.4,0.1-0.5c0-0.1,0-0.1,0-0.2c0-0.2,0.1-0.3,0.1-0.5c0-0.1,0-0.1,0-0.2c0.1-0.2,0.1-0.4,0.2-0.7c0,0,0-0.1,0-0.1
			c0.1-0.2,0.1-0.4,0.2-0.6c0-0.1,0.1-0.1,0.1-0.2c0-0.1,0.1-0.2,0.1-0.4c0-0.1,0.1-0.2,0.1-0.2c0.1-0.1,0.1-0.2,0.2-0.4
			c0-0.1,0.1-0.1,0.1-0.2c0.1-0.1,0.1-0.3,0.2-0.4c0-0.1,0.1-0.1,0.1-0.2c0.1-0.2,0.2-0.4,0.3-0.6c0.1-0.2,0.3-0.5,0.4-0.7
			c0.1-0.1,0.1-0.2,0.2-0.2c0.1-0.2,0.2-0.3,0.3-0.4c0.1-0.1,0.1-0.2,0.2-0.3c0.1-0.1,0.2-0.3,0.3-0.4c0.1-0.1,0.1-0.2,0.2-0.2
			c0.1-0.1,0.2-0.3,0.3-0.4c0.1-0.1,0.1-0.1,0.2-0.2c0.1-0.2,0.3-0.3,0.4-0.4c0,0,0.1-0.1,0.1-0.1c0.2-0.2,0.4-0.3,0.6-0.5
			c0.1,0,0.1-0.1,0.2-0.1c0.1-0.1,0.3-0.2,0.4-0.3c0.1-0.1,0.1-0.1,0.2-0.2c0.1-0.1,0.3-0.2,0.4-0.3c0.1-0.1,0.2-0.1,0.2-0.2
			c0.1-0.1,0.3-0.2,0.4-0.2c0.1,0,0.2-0.1,0.2-0.1c0.1-0.1,0.3-0.2,0.4-0.2c0.1,0,0.1-0.1,0.2-0.1c0.2-0.1,0.4-0.2,0.6-0.3
			c0,0,0,0,0,0c0.2-0.1,0.4-0.2,0.6-0.2c0.1,0,0.1,0,0.2-0.1c0.1,0,0.3-0.1,0.4-0.1c0.1,0,0.2,0,0.2-0.1c0.1,0,0.3-0.1,0.4-0.1
			c0.1,0,0.2,0,0.3,0c0.1,0,0.3,0,0.5-0.1c0.1,0,0.1,0,0.2,0c0.2,0,0.4,0,0.7,0c0.3,0,0.5,0,0.8,0l-1.4-0.1c-0.3,0-0.5,0-0.8,0
			c-0.2,0-0.4,0-0.7,0c-0.1,0-0.1,0-0.2,0c-0.1,0-0.2,0-0.3,0c-0.1,0-0.1,0-0.2,0c-0.1,0-0.2,0-0.3,0c-0.1,0-0.3,0.1-0.4,0.1
			c-0.1,0-0.2,0-0.2,0.1c-0.2,0-0.3,0.1-0.4,0.1c-0.1,0-0.1,0-0.2,0.1c-0.2,0.1-0.4,0.1-0.6,0.2c0,0,0,0,0,0
			c-0.2,0.1-0.4,0.2-0.6,0.3c-0.1,0-0.1,0.1-0.2,0.1c-0.1,0.1-0.3,0.1-0.4,0.2c-0.1,0-0.2,0.1-0.2,0.1c-0.1,0.1-0.3,0.2-0.4,0.2
			c-0.1,0.1-0.2,0.1-0.2,0.2c-0.1,0.1-0.3,0.2-0.4,0.3c-0.1,0.1-0.1,0.1-0.2,0.2c-0.1,0.1-0.3,0.2-0.4,0.3c-0.1,0-0.1,0.1-0.2,0.1
			c-0.2,0.2-0.4,0.3-0.6,0.5c0,0-0.1,0.1-0.1,0.1c-0.1,0.1-0.3,0.3-0.4,0.4c-0.1,0.1-0.1,0.1-0.2,0.2c-0.1,0.1-0.2,0.3-0.3,0.4
			c-0.1,0.1-0.1,0.2-0.2,0.2c-0.1,0.1-0.2,0.3-0.3,0.4c-0.1,0.1-0.1,0.2-0.2,0.3c-0.1,0.1-0.2,0.3-0.3,0.4c-0.1,0.1-0.1,0.2-0.2,0.2
			c0,0,0,0.1-0.1,0.1c-0.1,0.2-0.2,0.4-0.4,0.6c-0.1,0.2-0.2,0.4-0.3,0.6c0,0.1-0.1,0.1-0.1,0.2c-0.1,0.1-0.1,0.3-0.2,0.4
			c0,0.1-0.1,0.1-0.1,0.2c-0.1,0.1-0.1,0.2-0.2,0.4c0,0.1-0.1,0.2-0.1,0.2c0,0.1-0.1,0.2-0.1,0.4c0,0,0,0.1-0.1,0.1c0,0,0,0.1,0,0.1
			c-0.1,0.2-0.1,0.4-0.2,0.6c0,0,0,0.1,0,0.1c-0.1,0.2-0.1,0.4-0.2,0.7c0,0.1,0,0.1,0,0.2c0,0.2-0.1,0.3-0.1,0.5c0,0.1,0,0.1,0,0.2
			c0,0.2-0.1,0.4-0.1,0.5c0,0,0,0.1,0,0.1c0,0,0,0,0,0c0,0.2-0.1,0.5-0.1,0.7c0,0.1,0,0.1,0,0.2c0,0.2,0,0.4-0.1,0.6
			c0,0.1,0,0.1,0,0.2c0,0.2,0,0.5,0,0.7c0,0.1,0,0.1,0,0.2c0,0.2,0,0.4,0,0.6c0,0,0,0.1,0,0.1c0,0,0,0.1,0,0.1c0,0.1,0,0.2,0,0.3
			c0,0.1,0,0.2,0,0.3c0,0.1,0,0.2,0,0.3c0,0.1,0,0.2,0,0.3c0,0.1,0,0.2,0,0.3c0,0.1,0,0.2,0,0.3c0,0.1,0,0.2,0,0.3
			c0,0.1,0,0.2,0,0.3c0,0.1,0,0.2,0,0.3c0,0.1,0,0.2,0,0.3c0,0.1,0,0.2,0.1,0.3c0,0.1,0,0.2,0.1,0.3c0,0.1,0,0.2,0.1,0.3
			c0,0.1,0,0.2,0.1,0.3c0,0.1,0.1,0.2,0.1,0.3c0,0.1,0,0.2,0.1,0.3c0,0.1,0.1,0.2,0.1,0.3c0,0.1,0.1,0.2,0.1,0.3
			c0,0.1,0.1,0.2,0.1,0.3c0,0.1,0.1,0.2,0.1,0.3c0,0.1,0.1,0.2,0.1,0.3c0,0.1,0.1,0.2,0.1,0.2c0,0.1,0.1,0.2,0.1,0.3
			c0,0.1,0.1,0.2,0.1,0.2c0,0.1,0.1,0.2,0.1,0.3c0,0.1,0.1,0.1,0.1,0.2c0,0.1,0.1,0.2,0.2,0.3c0,0.1,0.1,0.1,0.1,0.2
			c0.1,0.1,0.1,0.2,0.2,0.3c0,0.1,0.1,0.1,0.1,0.2c0.1,0.2,0.2,0.3,0.3,0.5c2,3.1,4.9,4.9,8,5.2l1.4,0.1c-3.1-0.3-6-2.1-8-5.2
			c-0.1-0.2-0.2-0.3-0.3-0.5c0-0.1-0.1-0.1-0.1-0.2C215.4,81.3,215.3,81.2,215.3,81.1z"/>
	</g>
	<g id="XMLID_4810_">
		<g id="XMLID_4936_">
			<path id="XMLID_4940_" class="st1" d="M429.3,95l-36.8-21.2c-0.8-0.5-1.7-0.5-2.5,0L353.3,95h-9.9v6.3h0c0,0.8,0.4,1.7,1.3,2.1
				l45.4,26.2c0.8,0.5,1.7,0.5,2.5,0l45.4-26.2c0.8-0.5,1.2-1.3,1.3-2.1h0V95H429.3z"/>
			<path id="XMLID_4937_" class="st2" d="M390,123.5l-45.4-26.2c-1.7-1-1.7-3.4,0-4.4L390,66.6c0.8-0.5,1.7-0.5,2.5,0L438,92.9
				c1.7,1,1.7,3.4,0,4.4l-45.4,26.2C391.8,123.9,390.8,123.9,390,123.5z"/>
		</g>
		<g id="XMLID_4814_">
			<g id="XMLID_4925_">
				<g id="XMLID_46_">
					<polygon id="XMLID_50_" class="st14" points="422.4,96.1 399.8,109.2 399.8,48.7 422.4,35.6 					"/>
					<polygon id="XMLID_49_" class="st14" points="399.8,109.2 377.3,96.1 377.3,35.6 399.8,48.7 					"/>
					<polygon id="XMLID_48_" class="st14" points="390,111.1 360.2,93.9 360.2,49 390,66.2 					"/>
					<polygon id="XMLID_47_" class="st14" points="390,111.1 396.6,107.3 396.6,62.3 390,66.2 					"/>
				</g>
			</g>
			<polygon id="XMLID_4924_" class="st15" points="422.4,95.6 399.8,108.6 399.8,48.1 422.4,35.1 			"/>
			<polygon id="XMLID_4923_" class="st16" points="399.8,108.6 377.3,95.6 377.3,35.1 399.8,48.1 			"/>
			<polygon id="XMLID_4922_" class="st17" points="390,110.5 360.2,93.3 360.2,48.1 390,65.3 			"/>
			<polygon id="XMLID_4921_" class="st18" points="390,110.5 396.6,106.7 396.6,61.5 390,65.3 			"/>
			<polygon id="XMLID_4920_" class="st19" points="377.3,50.4 377.3,50.4 377.3,38.3 366.8,44.3 360.2,48.1 390,65.3 396.6,61.5 			
				"/>
			<polygon id="XMLID_4919_" class="st20" points="422.4,35.1 399.8,48.1 377.3,35.1 399.8,22.1 			"/>
			<polygon id="XMLID_4918_" class="st20" points="420.7,62.6 401.5,73.7 401.5,51.6 420.7,40.5 			"/>
			<polygon id="XMLID_4917_" class="st21" points="420.7,94.1 401.5,105.2 401.5,76 420.7,64.9 			"/>
			<polygon id="XMLID_4916_" class="st15" points="401.5,66 401.5,51.6 416.4,43 416.4,60.1 401.5,68.7 			"/>
			<g id="XMLID_4898_">
				<g id="XMLID_4910_">
					<g id="XMLID_4911_">
						<polygon id="XMLID_4915_" class="st21" points="409.3,48.3 412.2,46.6 412.2,50.3 409.3,52 						"/>
						<polygon id="XMLID_4914_" class="st21" points="412.9,46.2 415.8,44.5 415.8,48.2 412.9,49.9 						"/>
						<polygon id="XMLID_4913_" class="st21" points="402.1,52.4 405,50.7 405,54.4 402.1,56.1 						"/>
						<polygon id="XMLID_4912_" class="st21" points="405.7,50.3 408.6,48.7 408.6,52.4 405.7,54 						"/>
					</g>
				</g>
				<g id="XMLID_4899_">
					<g id="XMLID_4905_">
						<polygon id="XMLID_4909_" class="st21" points="409.3,53.5 412.2,51.8 412.2,55.5 409.3,57.2 						"/>
						<polygon id="XMLID_4908_" class="st21" points="412.9,51.4 415.8,49.7 415.8,53.4 412.9,55.1 						"/>
						<polygon id="XMLID_4907_" class="st21" points="402.1,57.7 405,56 405,59.7 402.1,61.4 						"/>
						<polygon id="XMLID_4906_" class="st21" points="405.7,55.6 408.6,53.9 408.6,57.6 405.7,59.3 						"/>
					</g>
					<g id="XMLID_4900_">
						<polygon id="XMLID_4904_" class="st21" points="409.3,58.4 412.2,56.7 412.2,60.4 409.3,62.1 						"/>
						<polygon id="XMLID_4903_" class="st21" points="412.9,56.3 415.8,54.6 415.8,58.3 412.9,60 						"/>
						<polygon id="XMLID_4902_" class="st21" points="402.1,62.5 405,60.9 405,64.6 402.1,66.2 						"/>
						<polygon id="XMLID_4901_" class="st21" points="405.7,60.5 408.6,58.8 408.6,62.5 405.7,64.2 						"/>
					</g>
				</g>
			</g>
			<polygon id="XMLID_4897_" class="st22" points="401.5,73.7 404.3,67.1 404.3,50 401.5,51.6 			"/>
			<polygon id="XMLID_4896_" class="st23" points="419.3,35.1 399.8,46.3 380.4,35.1 399.8,23.9 			"/>
			<polygon id="XMLID_4895_" class="st19" points="419.3,35.1 399.8,46.3 380.4,35.1 399.8,23.9 			"/>
			<polygon id="XMLID_4894_" class="st15" points="399.8,25.9 417.5,36.1 419.3,35.1 399.8,23.9 380.4,35.1 382.2,36.1 			"/>
			<polygon id="XMLID_4893_" class="st24" points="362.3,51.9 362.3,91.8 387.8,106.5 387.8,66.6 			"/>
			<path id="XMLID_4890_" class="st25" d="M399.8,22.1l-22.6,13l22.6,13l22.6-13L399.8,22.1z M380.4,35.1l19.4-11.2l19.4,11.2
				l-19.4,11.2L380.4,35.1z"/>
			<g id="XMLID_4885_">
				<polygon id="XMLID_4889_" class="st24" points="398.5,60.6 378.4,49 378.4,47.2 398.5,58.8 				"/>
				<polygon id="XMLID_4888_" class="st24" points="398.5,57.7 378.4,46.2 378.4,44.3 398.5,55.9 				"/>
				<polygon id="XMLID_4887_" class="st24" points="398.5,54.8 378.4,43.3 378.4,41.4 398.5,53 				"/>
				<polygon id="XMLID_4886_" class="st24" points="398.5,52 378.4,40.4 378.4,38.6 398.5,50.1 				"/>
			</g>
			<g id="XMLID_4869_">
				<defs>
					<polygon id="XMLID_4870_" points="420.7,94.1 401.5,105.2 401.5,76 420.7,64.9 					"/>
				</defs>
				<clipPath id="XMLID_7_">
					<use xlink:href="#XMLID_4870_"  style="overflow:visible;"/>
				</clipPath>
				<g id="XMLID_4871_" class="st26">
					<g id="XMLID_4882_">
						<rect id="XMLID_4883_" x="418.5" y="56.7" class="st18" width="0.5" height="44.9"/>
					</g>
					<g id="XMLID_4880_">
						<rect id="XMLID_4881_" x="415.6" y="58.2" class="st18" width="0.5" height="44.9"/>
					</g>
					<g id="XMLID_4878_">
						<rect id="XMLID_4879_" x="412.7" y="60.3" class="st18" width="0.5" height="44.9"/>
					</g>
					<g id="XMLID_4876_">
						<rect id="XMLID_4877_" x="409.8" y="62.5" class="st18" width="0.5" height="44.9"/>
					</g>
					<g id="XMLID_4874_">
						<rect id="XMLID_4875_" x="407" y="64" class="st18" width="0.5" height="44.9"/>
					</g>
					<g id="XMLID_4872_">
						<rect id="XMLID_4873_" x="404.1" y="66.1" class="st18" width="0.5" height="44.9"/>
					</g>
				</g>
			</g>
			<g id="XMLID_4850_">
				<defs>
					<polygon id="XMLID_4851_" points="362.3,51.9 362.3,91.8 387.8,106.5 387.8,66.6 					"/>
				</defs>
				<clipPath id="XMLID_8_">
					<use xlink:href="#XMLID_4851_"  style="overflow:visible;"/>
				</clipPath>
				<g id="XMLID_4852_" class="st27">
					<g id="XMLID_4867_">
						<rect id="XMLID_4868_" x="365" y="50.6" class="st23" width="0.5" height="44.9"/>
					</g>
					<g id="XMLID_4865_">
						<rect id="XMLID_4866_" x="367.9" y="52" class="st23" width="0.5" height="44.9"/>
					</g>
					<g id="XMLID_4863_">
						<rect id="XMLID_4864_" x="370.7" y="54.2" class="st23" width="0.5" height="44.9"/>
					</g>
					<g id="XMLID_4861_">
						<rect id="XMLID_4862_" x="373.6" y="56.4" class="st23" width="0.5" height="44.9"/>
					</g>
					<g id="XMLID_4859_">
						<rect id="XMLID_4860_" x="376.5" y="57.8" class="st23" width="0.5" height="44.9"/>
					</g>
					<g id="XMLID_4857_">
						<rect id="XMLID_4858_" x="379.4" y="60" class="st23" width="0.5" height="44.9"/>
					</g>
					<g id="XMLID_4855_">
						<rect id="XMLID_4856_" x="382.3" y="61.4" class="st23" width="0.5" height="44.9"/>
					</g>
					<g id="XMLID_4853_">
						<rect id="XMLID_4854_" x="385.2" y="62.9" class="st23" width="0.5" height="44.9"/>
					</g>
				</g>
			</g>
			<g id="XMLID_4842_">
				<g id="XMLID_4848_">
					
						<rect id="XMLID_4849_" x="359.2" y="69.4" transform="matrix(0.866 0.5 -0.5 0.866 85.359 -178.1211)" class="st17" width="31.7" height="1.6"/>
				</g>
				<g id="XMLID_4846_">
					
						<rect id="XMLID_4847_" x="359.4" y="79.9" transform="matrix(0.866 0.5 -0.5 0.866 90.6096 -176.7511)" class="st17" width="31.6" height="1.6"/>
				</g>
				<g id="XMLID_4843_">
					
						<rect id="XMLID_4845_" x="359.4" y="90.3" transform="matrix(0.866 0.5 -0.5 0.866 95.7904 -175.3113)" class="st17" width="31.3" height="1.6"/>
				</g>
			</g>
			<g id="XMLID_4833_" class="st28">
				<defs>
					<polygon id="XMLID_4834_" class="st28" points="402.7,35 402.7,35.2 402.7,35.2 402.7,35 					"/>
				</defs>
				<clipPath id="XMLID_9_">
					<use xlink:href="#XMLID_4834_"  style="overflow:visible;"/>
				</clipPath>
				<g id="XMLID_4840_" class="st29">
					<polyline id="XMLID_4841_" class="st30" points="402.7,35 402.7,35.2 402.7,35.2 402.7,35 402.7,35 					"/>
				</g>
			</g>
			<g id="XMLID_4831_">
				<polygon id="XMLID_4832_" class="st31" points="399.1,36.2 399.1,36.4 399.1,34.9 399.1,34.7 				"/>
			</g>
			<g id="XMLID_4825_">
				<path id="XMLID_4830_" class="st32" d="M406.7,36.6C406.7,36.6,406.7,36.6,406.7,36.6c0-0.1,0.1-0.1,0.1-0.2
					c0-0.1,0.1-0.1,0.1-0.2c0,0,0,0,0,0c0,0,0-0.1,0-0.1c0-0.1,0.1-0.2,0.1-0.2c0,0,0,0,0,0c0-0.1,0-0.1,0-0.2c0-0.1,0-0.1,0-0.2
					c0,0,0,0,0-0.1l0-0.4c0,0.1,0,0.2,0,0.3c0,0.1,0,0.1,0,0.2c0,0.1,0,0.2-0.1,0.3c0,0,0,0.1,0,0.1c0,0.1-0.1,0.2-0.1,0.2
					c0,0.1-0.1,0.1-0.1,0.2c-0.1,0.1-0.2,0.3-0.3,0.4c-0.6,0-1.2,0-1.7,0l0,0.4c0.6,0,1.1,0,1.7,0C406.6,36.9,406.6,36.7,406.7,36.6
					z"/>
				<rect id="XMLID_4827_" x="398.9" y="36.6" class="st32" width="2.7" height="0.4"/>
				<rect id="XMLID_4826_" x="403.4" y="39.2" class="st32" width="3.7" height="0.4"/>
			</g>
			<g id="XMLID_4823_">
				<polygon id="XMLID_4824_" class="st31" points="402.2,38 402.2,38.2 402.2,37.1 402.2,36.9 				"/>
			</g>
			<g id="XMLID_4818_">
				<path id="XMLID_4822_" class="st33" d="M395.2,34.9c0-0.1,0.1-0.2,0.1-0.2c0,0,0-0.1,0-0.1c0-0.1,0.1-0.2,0.2-0.3c0,0,0,0,0,0
					c0.1-0.1,0.2-0.2,0.3-0.3c0.2-0.2,0.4-0.3,0.7-0.5c0.3-0.2,0.6-0.3,0.9-0.4c0.3-0.1,0.6-0.2,0.9-0.2c0,0,0.1,0,0.1,0
					c0.3,0,0.6-0.1,0.9-0.1c0,0,0,0,0,0c0.3,0,0.6,0,1,0c0,0,0,0,0,0c0.3,0,0.6,0.1,0.9,0.1c0,0,0,0,0.1,0c0.3,0.1,0.5,0.1,0.7,0.2
					c0,0,0.1,0,0.1,0.1c0.3,0.1,0.5,0.2,0.7,0.3c0.4,0.2,0.7,0.5,0.9,0.8c0.2,0.3,0.3,0.6,0.4,1l0-0.4c0-0.8-0.5-1.4-1.3-1.8
					c-0.2-0.1-0.4-0.2-0.6-0.3c0,0-0.1,0-0.1,0c0,0-0.1,0-0.1-0.1c-0.1,0-0.2-0.1-0.3-0.1c-0.1,0-0.3-0.1-0.4-0.1c0,0,0,0-0.1,0
					c0,0,0,0,0,0c-0.2,0-0.3-0.1-0.5-0.1c-0.1,0-0.3,0-0.4,0c0,0,0,0,0,0c0,0,0,0,0,0c-0.2,0-0.3,0-0.5,0c-0.2,0-0.3,0-0.5,0
					c0,0,0,0,0,0c0,0,0,0,0,0c-0.1,0-0.3,0-0.4,0c-0.2,0-0.3,0-0.4,0.1c0,0-0.1,0-0.1,0c0,0,0,0,0,0c-0.3,0-0.5,0.1-0.8,0.2
					c0,0,0,0,0,0c-0.3,0.1-0.6,0.2-0.9,0.4c0,0,0,0-0.1,0c-0.2,0.1-0.4,0.3-0.6,0.5c0,0,0,0,0,0c-0.1,0.1-0.2,0.2-0.3,0.3
					c0,0,0,0,0,0c0,0,0,0,0,0c-0.1,0.1-0.1,0.2-0.2,0.2c0,0,0,0,0,0.1c0,0,0,0.1,0,0.1c0,0,0,0.1-0.1,0.1c0,0,0,0.1,0,0.1
					c0,0,0,0,0,0.1c0,0,0,0,0,0C395.2,34.7,395.2,34.8,395.2,34.9C395.2,34.9,395.2,34.9,395.2,34.9l-0.1,0.4
					C395.2,35.2,395.2,35.1,395.2,34.9C395.2,34.9,395.2,34.9,395.2,34.9z"/>
				<path id="XMLID_4821_" class="st33" d="M403.7,36l0,0.4c0.3,0.2,0.7,0.4,1.1,0.6l0-0.4C404.4,36.4,404,36.2,403.7,36z"/>
				<polygon id="XMLID_4820_" class="st33" points="401.6,37 403.4,38 403.4,37.7 401.6,36.6 				"/>
				<path id="XMLID_4819_" class="st33" d="M401.3,39.1c-0.2,0-0.4,0.1-0.7,0.1c-0.1,0-0.2,0-0.3,0c-0.3,0-0.6,0-0.9,0c0,0,0,0,0,0
					c-0.3,0-0.6,0-1-0.1c-0.1,0-0.2,0-0.2,0c-0.3,0-0.6-0.1-0.9-0.1c0,0-0.1,0-0.1,0c-0.3-0.1-0.6-0.1-0.9-0.2
					c-0.1,0-0.3-0.1-0.4-0.1c-0.2-0.1-0.3-0.1-0.5-0.2c-0.3-0.1-0.7-0.3-1-0.5c-0.1-0.1-0.3-0.2-0.4-0.3c-1.2-0.8-1.8-1.8-1.8-2.8
					l0,0.4c0,1,0.6,2,1.8,2.8c0.1,0.1,0.3,0.2,0.4,0.3c0.3,0.2,0.6,0.3,1,0.5c0,0,0.1,0,0.1,0c0.1,0.1,0.3,0.1,0.4,0.1
					c0.1,0,0.3,0.1,0.4,0.1c0,0,0.1,0,0.1,0c0.3,0.1,0.5,0.1,0.8,0.2c0,0,0,0,0,0c0,0,0.1,0,0.1,0c0.2,0,0.4,0.1,0.6,0.1
					c0.1,0,0.2,0,0.2,0c0.1,0,0.2,0,0.2,0c0.1,0,0.2,0,0.2,0c0.2,0,0.5,0,0.7,0c0,0,0,0,0,0c0,0,0,0,0,0c0.2,0,0.5,0,0.7,0
					c0.1,0,0.1,0,0.2,0c0.1,0,0.2,0,0.3,0c0.1,0,0.2,0,0.3,0c0.1,0,0.3,0,0.4-0.1c0.1,0,0.3,0,0.4-0.1c0.1,0,0.1,0,0.2,0
					c0.3,0,0.5-0.1,0.8-0.2l0-0.4c-0.3,0.1-0.6,0.1-0.9,0.2C401.6,39.1,401.4,39.1,401.3,39.1z"/>
			</g>
			<g id="XMLID_4815_">
				<polygon id="XMLID_4817_" class="st34" points="407.1,37.1 404.4,37.1 402.6,36 402.6,34.5 398.9,34.5 398.9,36.6 401.6,36.6 
					403.4,37.7 403.4,39.2 407.1,39.2 				"/>
				<path id="XMLID_4816_" class="st34" d="M401.6,37.2c-1.9,0.5-3.8,0.2-5.1-0.5c-1.4-0.8-1.9-2.1-0.6-3.2c1.7-1.6,5.1-1.5,7-0.4
					c0.8,0.4,1.3,1.1,1.3,1.8c0,0.4-0.1,0.8-0.4,1.1c0.3,0.2,0.7,0.4,1.1,0.6c0.6,0,1.1,0,1.7,0c0.4-0.6,0.6-1.1,0.6-1.7
					c0-1.2-0.8-2.3-2.2-3.1c-0.9-0.5-1.9-0.9-3.1-1.1c-3.2-0.5-6.6,0.2-8.3,1.8c-1.8,1.6-1.6,3.7,0.6,5.1c0.1,0.1,0.3,0.2,0.4,0.3
					c2.2,1.2,5.4,1.6,8.2,0.9c0-0.3,0-0.7,0-1C402.3,37.7,401.9,37.4,401.6,37.2z"/>
			</g>
		</g>
	</g>
	<g id="XMLID_4653_">
		<path id="XMLID_4738_" class="st35" d="M371.2,6c0,1.4-0.3,2.5-0.8,3.4c-0.6,0.9-1.3,1.5-2.3,1.8l2.5,2.6h-1.8l-2.1-2.4l-0.4,0
			c-1.6,0-2.8-0.5-3.6-1.4s-1.3-2.3-1.3-4.1c0-1.7,0.4-3.1,1.3-4c0.9-1,2.1-1.4,3.7-1.4c1.5,0,2.7,0.5,3.6,1.5
			C370.7,3,371.2,4.3,371.2,6z M362.6,6c0,1.4,0.3,2.5,0.9,3.3c0.6,0.7,1.5,1.1,2.7,1.1c1.2,0,2.1-0.4,2.7-1.1
			c0.6-0.7,0.9-1.8,0.9-3.3c0-1.4-0.3-2.5-0.9-3.3c-0.6-0.7-1.5-1.1-2.7-1.1c-1.2,0-2.1,0.4-2.7,1.1C363,3.5,362.6,4.6,362.6,6z"/>
		<path id="XMLID_4741_" class="st35" d="M373.2,10.6c0-0.3,0.1-0.6,0.2-0.7c0.1-0.2,0.4-0.3,0.6-0.3c0.3,0,0.5,0.1,0.7,0.3
			c0.2,0.2,0.2,0.4,0.2,0.7c0,0.3-0.1,0.6-0.2,0.7c-0.2,0.2-0.4,0.3-0.7,0.3c-0.2,0-0.5-0.1-0.6-0.2C373.3,11.2,373.2,11,373.2,10.6
			z"/>
		<path id="XMLID_4743_" class="st35" d="M384.3,11.4L382.9,8h-4.3l-1.3,3.4h-1.3l4.2-10.7h1l4.2,10.7H384.3z M382.5,6.9l-1.2-3.3
			c-0.2-0.4-0.3-0.9-0.5-1.5c-0.1,0.5-0.3,1-0.5,1.5l-1.3,3.3H382.5z"/>
		<path id="XMLID_4746_" class="st35" d="M390.5,3.2c0.4,0,0.7,0,1,0.1l-0.2,1.1c-0.3-0.1-0.6-0.1-0.9-0.1c-0.6,0-1.2,0.3-1.7,0.8
			s-0.7,1.2-0.7,2v4.3h-1.2v-8h1l0.1,1.5h0.1c0.3-0.5,0.7-0.9,1.1-1.2C389.5,3.4,390,3.2,390.5,3.2z"/>
		<path id="XMLID_4748_" class="st35" d="M395.5,10.5c0.2,0,0.4,0,0.6,0c0.2,0,0.4-0.1,0.5-0.1v0.9c-0.1,0.1-0.3,0.1-0.6,0.2
			c-0.3,0-0.5,0.1-0.7,0.1c-1.6,0-2.3-0.8-2.3-2.5V4.3h-1.1V3.7l1.1-0.5l0.5-1.7h0.7v1.9h2.3v0.9h-2.3V9c0,0.5,0.1,0.9,0.3,1.1
			C394.8,10.4,395.1,10.5,395.5,10.5z"/>
		<path id="XMLID_4750_" class="st35" d="M403.7,11.4V6.2c0-0.7-0.1-1.1-0.4-1.5c-0.3-0.3-0.8-0.5-1.4-0.5c-0.8,0-1.5,0.2-1.8,0.7
			c-0.4,0.5-0.6,1.2-0.6,2.3v4.2h-1.2V0h1.2v3.4c0,0.4,0,0.8-0.1,1h0.1c0.2-0.4,0.6-0.7,1-0.9c0.4-0.2,0.9-0.3,1.5-0.3
			c1,0,1.7,0.2,2.2,0.7s0.7,1.2,0.7,2.2v5.2H403.7z"/>
		<path id="XMLID_4752_" class="st35" d="M408.6,3.4v5.2c0,0.7,0.1,1.1,0.4,1.5c0.3,0.3,0.8,0.5,1.4,0.5c0.8,0,1.5-0.2,1.8-0.7
			c0.4-0.5,0.6-1.2,0.6-2.2V3.4h1.2v8h-1l-0.2-1.1h-0.1c-0.2,0.4-0.6,0.7-1,0.9c-0.4,0.2-0.9,0.3-1.5,0.3c-1,0-1.7-0.2-2.2-0.7
			c-0.5-0.5-0.7-1.2-0.7-2.2V3.4H408.6z"/>
		<path id="XMLID_4754_" class="st35" d="M420.3,3.2c0.4,0,0.7,0,1,0.1l-0.2,1.1c-0.3-0.1-0.6-0.1-0.9-0.1c-0.6,0-1.2,0.3-1.7,0.8
			c-0.5,0.5-0.7,1.2-0.7,2v4.3h-1.2v-8h1l0.1,1.5h0.1c0.3-0.5,0.7-0.9,1.1-1.2C419.3,3.4,419.8,3.2,420.3,3.2z"/>
	</g>
	<g id="XMLID_4652_">
		<path id="XMLID_4722_" class="st35" d="M32.6,31.6h-1.2V24c0-0.6,0-1.2,0.1-1.8c-0.1,0.1-0.2,0.2-0.3,0.3
			c-0.1,0.1-0.7,0.6-1.7,1.4l-0.6-0.8l2.8-2.2h1V31.6z"/>
		<path id="XMLID_4724_" class="st35" d="M46,26h3.6v5.2c-0.6,0.2-1.1,0.3-1.7,0.4c-0.6,0.1-1.3,0.1-2,0.1c-1.6,0-2.9-0.5-3.8-1.4
			c-0.9-1-1.4-2.3-1.4-4c0-1.1,0.2-2.1,0.7-2.9s1.1-1.5,1.9-1.9c0.8-0.4,1.8-0.7,2.9-0.7c1.1,0,2.2,0.2,3.2,0.6L49,22.5
			c-1-0.4-1.9-0.6-2.8-0.6c-1.3,0-2.3,0.4-3.1,1.2s-1.1,1.9-1.1,3.2c0,1.4,0.4,2.5,1.1,3.3c0.7,0.7,1.7,1.1,3.1,1.1
			c0.7,0,1.5-0.1,2.2-0.3v-3.3H46V26z"/>
		<path id="XMLID_4726_" class="st35" d="M52.2,20.9h3c1.4,0,2.4,0.2,3.1,0.6c0.6,0.4,1,1.1,1,2c0,0.6-0.2,1.2-0.5,1.6
			c-0.4,0.4-0.9,0.7-1.5,0.8V26c1.6,0.3,2.4,1.1,2.4,2.6c0,1-0.3,1.7-1,2.2c-0.6,0.5-1.5,0.8-2.7,0.8h-3.7V20.9z M53.4,25.5h2
			c0.9,0,1.5-0.1,1.9-0.4c0.4-0.3,0.6-0.7,0.6-1.4c0-0.6-0.2-1-0.6-1.3c-0.4-0.3-1.1-0.4-2-0.4h-1.8V25.5z M53.4,26.6v4h2.2
			c0.9,0,1.5-0.2,1.9-0.5c0.4-0.3,0.7-0.9,0.7-1.6c0-0.7-0.2-1.2-0.7-1.5s-1.1-0.5-2-0.5H53.4z"/>
		<path id="XMLID_4735_" class="st35" d="M68.7,24c0,1.1-0.4,1.9-1.1,2.5c-0.7,0.6-1.8,0.9-3.2,0.9h-1.3v4.2h-1.2V20.9h2.8
			C67.3,20.9,68.7,22,68.7,24z M63.1,26.3h1.1c1.1,0,1.9-0.2,2.4-0.5c0.5-0.4,0.7-0.9,0.7-1.7c0-0.7-0.2-1.2-0.7-1.6
			c-0.5-0.3-1.2-0.5-2.2-0.5h-1.4V26.3z"/>
	</g>
	<g id="XMLID_4649_">
		<path id="XMLID_4655_" class="st35" d="M224.9,23.9c0,1.4-0.3,2.5-0.8,3.4c-0.6,0.9-1.3,1.5-2.3,1.8l2.5,2.6h-1.8l-2.1-2.4l-0.4,0
			c-1.6,0-2.8-0.5-3.6-1.4s-1.3-2.3-1.3-4.1c0-1.7,0.4-3.1,1.3-4c0.9-1,2.1-1.4,3.7-1.4c1.5,0,2.7,0.5,3.6,1.5
			C224.5,20.8,224.9,22.1,224.9,23.9z M216.4,23.9c0,1.4,0.3,2.5,0.9,3.3c0.6,0.7,1.5,1.1,2.7,1.1c1.2,0,2.1-0.4,2.7-1.1
			c0.6-0.7,0.9-1.8,0.9-3.3c0-1.4-0.3-2.5-0.9-3.3c-0.6-0.7-1.5-1.1-2.7-1.1c-1.2,0-2.1,0.4-2.7,1.1
			C216.7,21.3,216.4,22.4,216.4,23.9z"/>
	</g>
</g>
</svg>
