<?xml version="1.0" encoding="utf-8"?>
<!-- Generator: Adobe Illustrator 19.0.0, SVG Export Plug-In . SVG Version: 6.00 Build 0)  -->
<svg version="1.1" id="图层_1" xmlns="http://www.w3.org/2000/svg" xmlns:xlink="http://www.w3.org/1999/xlink" x="0px" y="0px"
	 viewBox="0 0 60 60" style="enable-background:new 0 0 60 60;" xml:space="preserve">
<style type="text/css">
	.st0{fill:#808080;}
</style>
<g>
	<g>
		<g id="XMLID_22_">
			<rect x="13.4" y="16.1" class="st0" width="14.3" height="1.7"/>
		</g>
		<g id="XMLID_21_">
			<rect y="16.1" class="st0" width="8.5" height="1.7"/>
		</g>
		<g id="XMLID_20_">
			<rect x="13.5" y="29.3" class="st0" width="14.2" height="1.7"/>
		</g>
		<g id="XMLID_19_">
			<rect y="29.3" class="st0" width="8.5" height="1.7"/>
		</g>
		<g id="XMLID_18_">
			<rect y="19.4" class="st0" width="5" height="1.7"/>
		</g>
		<g id="XMLID_17_">
			<rect x="12.3" y="19.4" class="st0" width="6.3" height="1.7"/>
		</g>
		<g id="XMLID_16_">
			<rect y="22.7" class="st0" width="6.8" height="1.7"/>
		</g>
		<g id="XMLID_15_">
			<rect y="26" class="st0" width="5" height="1.7"/>
		</g>
		<g id="XMLID_14_">
			<rect x="12.3" y="26" class="st0" width="6.3" height="1.7"/>
		</g>
		<g id="XMLID_13_">
			<rect x="21.7" y="19.4" class="st0" width="12.6" height="1.7"/>
		</g>
		<g id="XMLID_12_">
			<rect x="11.9" y="22.7" class="st0" width="13.3" height="1.7"/>
		</g>
		<g id="XMLID_11_">
			<rect x="27.7" y="22.7" class="st0" width="6.6" height="1.7"/>
		</g>
		<g id="XMLID_10_">
			<rect x="21.7" y="25.8" class="st0" width="12.6" height="1.7"/>
		</g>
		<g id="XMLID_9_">
			<rect x="29.6" y="16.1" class="st0" width="4.7" height="1.7"/>
		</g>
		<g id="XMLID_8_">
			<rect x="29.6" y="29.3" class="st0" width="4.7" height="1.7"/>
		</g>
	</g>
	<g>
		<g id="XMLID_23_">
			<path class="st0" d="M26.7,43.8c-11.2,0-20.3-9.1-20.3-20.3c0-11.1,9.1-20.2,20.3-20.2c11.1,0,20.2,9,20.3,20.2
				C47,34.7,37.9,43.8,26.7,43.8z M26.7,5.1c-10.2,0-18.5,8.3-18.5,18.4C8.2,33.7,16.5,42,26.7,42c10.2,0,18.5-8.3,18.5-18.5
				C45.1,13.3,36.8,5.1,26.7,5.1z M26.7,39.2c-8.6,0-15.6-7-15.6-15.6C11.1,15,18.1,8,26.7,8s15.6,7,15.6,15.6
				C42.3,32.2,35.3,39.2,26.7,39.2z M26.7,9.8c-7.6,0-13.8,6.2-13.8,13.8s6.2,13.8,13.8,13.8c7.6,0,13.8-6.2,13.8-13.8
				S34.3,9.8,26.7,9.8z"/>
		</g>
		<g id="XMLID_5_">
			<path class="st0" d="M55.5,56.7c-1.1,0-2.2-0.4-3.1-1.3L41.7,44.7c-0.3-0.3-0.3-0.9,0-1.2l5-5c0.3-0.3,0.9-0.3,1.2,0l10.7,10.7
				c0.8,0.8,1.3,1.9,1.3,3.1c0,1.2-0.5,2.3-1.3,3.1C57.7,56.3,56.6,56.7,55.5,56.7z M43.5,44.1l10.1,10.1c1.1,1.1,2.7,1.1,3.8,0h0
				c0.5-0.5,0.8-1.2,0.8-1.9c0-0.7-0.3-1.4-0.8-1.9L47.3,40.3L43.5,44.1z"/>
		</g>
		<g id="XMLID_4_">
			<path class="st0" d="M44.8,42.5c-0.2,0-0.4-0.1-0.6-0.2l-4.5-4.4c-0.3-0.3-0.3-0.9,0-1.2c0.3-0.3,0.9-0.3,1.2,0l4.5,4.4
				c0.3,0.3,0.3,0.9,0,1.2C45.2,42.4,45,42.5,44.8,42.5z"/>
		</g>
		<g id="XMLID_3_">
			
				<rect x="47.3" y="44.1" transform="matrix(-0.7072 0.707 -0.707 -0.7072 114.0632 42.7811)" class="st0" width="1.8" height="1.8"/>
		</g>
		<g id="XMLID_2_">
			
				<rect x="49.8" y="46.7" transform="matrix(-0.7072 0.707 -0.707 -0.7072 120.2698 45.415)" class="st0" width="1.8" height="1.8"/>
		</g>
		<g id="XMLID_1_">
			
				<rect x="52.4" y="49.3" transform="matrix(-0.7072 0.707 -0.707 -0.7072 126.547 48.0169)" class="st0" width="1.8" height="1.8"/>
		</g>
	</g>
</g>
</svg>
