<?xml version="1.0" encoding="utf-8"?>
<!-- Generator: Adobe Illustrator 19.0.0, SVG Export Plug-In . SVG Version: 6.00 Build 0)  -->
<svg version="1.1" id="图层_1" xmlns="http://www.w3.org/2000/svg" xmlns:xlink="http://www.w3.org/1999/xlink" x="0px" y="0px"
	 viewBox="0 0 100 100" style="enable-background:new 0 0 100 100;" xml:space="preserve">
<style type="text/css">
	.st0{fill-rule:evenodd;clip-rule:evenodd;fill:#FFFFFF;}
	.st1{fill-rule:evenodd;clip-rule:evenodd;fill:#F5F5F5;}
	.st2{fill-rule:evenodd;clip-rule:evenodd;fill:#E9E9EB;}
	.st3{fill-rule:evenodd;clip-rule:evenodd;fill:#DDDEE1;}
	.st4{fill-rule:evenodd;clip-rule:evenodd;fill:#D1D2D6;}
	.st5{fill-rule:evenodd;clip-rule:evenodd;fill:#2C3E50;}
	.st6{fill-rule:evenodd;clip-rule:evenodd;fill:#3D566E;}
	.st7{fill-rule:evenodd;clip-rule:evenodd;fill:#9C9C9C;}
	.st8{fill-rule:evenodd;clip-rule:evenodd;fill:#E6EAEB;}
	.st9{fill-rule:evenodd;clip-rule:evenodd;fill:#676F70;}
	.st10{fill-rule:evenodd;clip-rule:evenodd;fill:#C5CCD1;}
	.st11{fill-rule:evenodd;clip-rule:evenodd;fill:#999999;}
	.st12{fill-rule:evenodd;clip-rule:evenodd;fill:#666565;}
	.st13{fill-rule:evenodd;clip-rule:evenodd;fill:#FAC13C;}
	.st14{fill-rule:evenodd;clip-rule:evenodd;fill:#D19917;}
	.st15{fill-rule:evenodd;clip-rule:evenodd;fill:#2192FC;}
	.st16{fill-rule:evenodd;clip-rule:evenodd;fill:#DDDFE0;}
	.st17{fill-rule:evenodd;clip-rule:evenodd;fill:#E74C3C;}
	.st18{fill-rule:evenodd;clip-rule:evenodd;fill:#C0392B;}
</style>
<g id="XMLID_124_">
	<g id="XMLID_185_">
		<path id="XMLID_191_" class="st0" d="M100,0c0,33.3,0,66.7,0,100c-33.3,0-66.7,0-100,0C0,66.7,0,33.3,0,0C33.3,0,66.7,0,100,0z"/>
		<g id="XMLID_186_">
			<path id="XMLID_190_" class="st1" d="M72.1,69.2c12.2,7.1,12.2,18.5,0,25.5c-12.2,7.1-32,7.1-44.2,0c-12.2-7.1-12.2-18.5,0-25.5
				C40.1,62.1,59.9,62.1,72.1,69.2z"/>
			<path id="XMLID_189_" class="st2" d="M68.3,71.4c10.1,5.8,10.1,15.3,0,21.1c-10.1,5.8-26.4,5.8-36.5,0
				c-10.1-5.8-10.1-15.3,0-21.1C41.8,65.6,58.2,65.6,68.3,71.4z"/>
			<path id="XMLID_188_" class="st3" d="M64.4,73.6c8,4.6,8,12,0,16.6c-8,4.6-20.9,4.6-28.8,0c-8-4.6-8-12,0-16.6
				C43.5,69,56.5,69,64.4,73.6z"/>
			<path id="XMLID_187_" class="st4" d="M60.6,75.8c5.8,3.4,5.8,8.8,0,12.2c-5.8,3.4-15.3,3.4-21.1,0c-5.8-3.4-5.8-8.8,0-12.2
				C45.3,72.5,54.7,72.5,60.6,75.8z"/>
		</g>
	</g>
	<g id="XMLID_125_">
		<polygon id="XMLID_184_" class="st5" points="77.9,63.9 54.5,50.4 22.1,69.1 45.5,82.6 		"/>
		<polygon id="XMLID_183_" class="st5" points="45.5,82.6 22.1,69.1 22.1,71.1 45.5,84.6 		"/>
		<polygon id="XMLID_182_" class="st6" points="45.5,84.6 77.9,65.9 77.9,63.9 45.5,82.6 		"/>
		<polygon id="XMLID_181_" class="st7" points="45.5,78.6 30.1,69.7 30.1,50.2 45.5,59.1 		"/>
		<polygon id="XMLID_180_" class="st8" points="45.5,78.6 45.5,59.1 71,44.4 71,63.9 		"/>
		<polygon id="XMLID_179_" class="st7" points="55.6,36.1 70,44.4 68.6,45.2 55.6,37.6 		"/>
		<polygon id="XMLID_178_" class="st8" points="32.4,51 31.1,50.3 55.6,36.1 55.6,37.6 		"/>
		<polygon id="XMLID_177_" class="st9" points="45.4,58.5 32.4,51 55.6,37.6 68.6,45.2 		"/>
		<path id="XMLID_174_" class="st10" d="M45.5,59.1l-15.4-8.9l25.5-14.7L71,44.4L45.5,59.1L45.5,59.1z M45.4,58.5L70,44.4l-14.3-8.3
			L31.1,50.3L45.4,58.5z"/>
		<polygon id="XMLID_173_" class="st7" points="55.9,43.9 53.2,42.4 53.2,40.4 55.9,41.9 		"/>
		<polygon id="XMLID_172_" class="st10" points="55.9,41.9 53.2,40.4 55.7,38.9 58.4,40.5 		"/>
		<polygon id="XMLID_171_" class="st8" points="55.9,41.9 58.4,40.5 58.4,42.4 55.9,43.9 		"/>
		<polygon id="XMLID_170_" class="st7" points="50.7,46.8 48.1,45.3 48.1,43.3 50.7,44.9 		"/>
		<polygon id="XMLID_169_" class="st10" points="50.7,44.9 48.1,43.3 50.6,41.9 53.3,43.4 		"/>
		<polygon id="XMLID_168_" class="st8" points="50.7,44.9 53.3,43.4 53.3,45.4 50.7,46.8 		"/>
		<polygon id="XMLID_167_" class="st11" points="50,76 56.5,72.2 56.5,59.8 50,63.6 		"/>
		<polygon id="XMLID_166_" class="st12" points="50.6,75.6 55.9,72.6 55.9,61 50.6,64.1 		"/>
		<polygon id="XMLID_165_" class="st13" points="50.6,74.9 55.2,72.2 55.2,61.4 50.6,64.1 		"/>
		<polygon id="XMLID_164_" class="st14" points="60.2,66.6 60.2,66.6 60.2,66.6 60.2,66.6 60.1,66.6 60.6,66.9 60.6,66.9 60.6,66.9 
			60.6,66.9 60.6,66.9 68.5,62.4 68.5,62.3 68.5,62.3 68.5,62.3 68.5,62.3 68.5,62.3 68.6,62.3 68.6,62.2 68.6,62.2 68.6,54.8 
			68.6,54.8 68.6,54.8 68.5,54.8 68.5,54.8 68.1,54.5 68.1,54.5 68.1,54.5 68.1,54.6 68.1,54.6 68.1,62 68.1,62 68.1,62 68.1,62 
			68.1,62 68.1,62.1 68.1,62.1 68.1,62.1 68,62.1 		"/>
		<polygon id="XMLID_163_" class="st14" points="63,57 60.3,58.5 60.2,58.5 60.2,58.6 60.2,58.6 60.2,58.6 60.1,58.7 60.1,58.7 
			60.1,58.7 60.1,58.8 60.1,58.8 60,58.8 60,58.8 60,58.9 60,58.9 60,59 60,59 60,59 60,59.1 60,66.9 60,66.9 60,67 60,67 60,67 
			60,67 60,67.1 60,67.1 60.1,67.1 60.5,67.3 60.5,67.3 60.4,67.3 60.4,67.3 60.4,67.3 60.4,67.2 60.4,67.2 60.4,67.2 60.4,67.1 
			60.4,59.3 60.4,59.3 60.4,59.3 60.4,59.2 60.4,59.2 60.4,59.1 60.4,59.1 60.5,59.1 60.5,59 60.5,59 60.5,59 60.5,58.9 60.6,58.9 
			60.6,58.9 60.6,58.8 60.6,58.8 60.7,58.8 60.7,58.8 63.4,57.2 64,56.9 68.7,54.2 68.7,54.2 68.7,54.2 68.8,54.1 68.8,54.1 
			68.8,54.1 68.8,54.1 68.9,54.2 68.9,54.2 68.5,53.9 68.4,53.9 68.4,53.9 68.4,53.9 68.4,53.9 68.3,53.9 68.3,53.9 68.3,53.9 
			68.2,53.9 63.6,56.6 		"/>
		<path id="XMLID_162_" class="st15" d="M68.2,54.7v7.4c0,0.1,0,0.1-0.1,0.1l-7.5,4.4c0,0-0.1,0-0.1,0v-7.4c0-0.1,0-0.1,0.1-0.1
			L68.2,54.7C68.2,54.6,68.2,54.6,68.2,54.7z"/>
		<path id="XMLID_159_" class="st13" d="M60.7,58.8c-0.1,0.1-0.2,0.1-0.2,0.2l0,0c-0.1,0.1-0.1,0.2-0.1,0.3v7.8c0,0.1,0,0.2,0.1,0.2
			c0.1,0,0.1,0,0.2,0c2-1.1,6-3.4,7.9-4.6c0.1-0.1,0.2-0.1,0.2-0.2l0,0c0.1-0.1,0.1-0.2,0.1-0.3v-7.8c0-0.1,0-0.2-0.1-0.2
			c-0.1,0-0.1,0-0.2,0L64,56.9L60.7,58.8L60.7,58.8z M68.5,54.8C68.5,54.8,68.6,54.8,68.5,54.8c0.1,4.9,0.1,1.8,0.1,7.4
			c0,0.1,0,0.1-0.1,0.1c-4.4,2.5-2,1.2-7.6,4.4c0,0-0.1,0-0.1-0.1v-7.4c0-0.1,0-0.1,0.1-0.1C64.6,57,64.3,57.2,68.5,54.8z"/>
		<polygon id="XMLID_158_" class="st7" points="49.2,57 48.7,56.7 48.7,55.4 49.2,55.7 		"/>
		<polygon id="XMLID_157_" class="st10" points="49.2,55.7 48.7,55.4 49.2,55.1 49.7,55.4 		"/>
		<polygon id="XMLID_156_" class="st16" points="49.2,55.7 49.7,55.4 49.7,56.7 49.2,57 		"/>
		<polygon id="XMLID_155_" class="st7" points="66.8,46.8 66.3,46.5 66.3,45.2 66.8,45.5 		"/>
		<polygon id="XMLID_154_" class="st16" points="66.8,45.5 67.3,45.2 67.3,46.5 66.8,46.8 		"/>
		<polygon id="XMLID_153_" class="st7" points="48.4,56.2 47.4,55.6 47.4,49.8 48.4,50.4 		"/>
		<polygon id="XMLID_152_" class="st10" points="48.4,50.4 47.4,49.8 66.9,38.5 67.9,39.1 		"/>
		<polygon id="XMLID_151_" class="st8" points="48.4,50.4 67.9,39.1 67.9,44.9 48.4,56.2 		"/>
		<polygon id="XMLID_150_" class="st14" points="51.1,73.2 51.1,73.2 51.1,73.2 51.1,73.2 51.1,73.2 51.3,73.3 51.3,73.3 51.3,73.3 
			51.3,73.3 51.3,73.3 54.5,71.5 54.5,71.5 54.5,71.5 54.5,71.5 54.5,71.4 54.5,71.4 54.5,71.4 54.5,71.4 54.5,71.4 54.5,67.9 
			54.5,67.9 54.5,67.9 54.5,67.9 54.5,67.9 54.3,67.8 54.3,67.8 54.3,67.8 54.3,67.8 54.3,67.8 54.3,71.3 54.3,71.3 54.3,71.3 
			54.3,71.3 54.3,71.3 54.3,71.3 54.3,71.3 54.3,71.3 54.3,71.4 		"/>
		<path id="XMLID_149_" class="st15" d="M54.4,67.9v3.5c0,0,0,0.1,0,0.1l-3,1.7c0,0,0,0,0,0v-3.5c0,0,0-0.1,0-0.1L54.4,67.9
			C54.3,67.8,54.4,67.8,54.4,67.9z"/>
		<path id="XMLID_146_" class="st13" d="M51.4,69.4c0,0-0.1,0.1-0.1,0.1l0,0c0,0.1-0.1,0.1-0.1,0.2v3.7c0,0.1,0,0.1,0.1,0.1
			c0,0,0.1,0,0.1,0c1.1-0.6,2.1-1.2,3.2-1.9c0,0,0.1-0.1,0.1-0.1l0,0c0-0.1,0.1-0.1,0.1-0.2v-3.7c0-0.1,0-0.1-0.1-0.1
			c0,0-0.1,0-0.1,0l-1.4,0.8L51.4,69.4L51.4,69.4z M54.5,67.9C54.5,67.9,54.5,67.9,54.5,67.9c0,2.6,0,0.5,0,3.5c0,0,0,0.1,0,0.1
			c-2.4,1.4,0,0-3,1.7c0,0,0,0,0,0v-3.5c0,0,0-0.1,0-0.1C53.5,68.5,52.2,69.2,54.5,67.9z"/>
		<polygon id="XMLID_145_" class="st14" points="51.1,68 51.1,68 51.1,68 51.1,68 51.1,68 51.3,68.2 51.3,68.2 51.3,68.2 51.3,68.2 
			51.3,68.2 54.5,66.4 54.5,66.3 54.5,66.3 54.5,66.3 54.5,66.3 54.5,66.3 54.5,66.3 54.5,66.3 54.5,66.3 54.5,62.8 54.5,62.8 
			54.5,62.8 54.5,62.8 54.5,62.8 54.3,62.6 54.3,62.6 54.3,62.6 54.3,62.7 54.3,62.7 54.3,66.1 54.3,66.2 54.3,66.2 54.3,66.2 
			54.3,66.2 54.3,66.2 54.3,66.2 54.3,66.2 54.3,66.2 		"/>
		<path id="XMLID_144_" class="st15" d="M54.4,62.7v3.5c0,0,0,0.1,0,0.1l-3,1.7c0,0,0,0,0,0v-3.5c0,0,0-0.1,0-0.1L54.4,62.7
			C54.3,62.7,54.4,62.7,54.4,62.7z"/>
		<path id="XMLID_141_" class="st13" d="M51.4,64.3c0,0-0.1,0.1-0.1,0.1l0,0c0,0.1-0.1,0.1-0.1,0.2v3.7c0,0.1,0,0.1,0.1,0.1
			c0,0,0.1,0,0.1,0c1.1-0.6,2.1-1.2,3.2-1.9c0,0,0.1-0.1,0.1-0.1l0,0c0-0.1,0.1-0.1,0.1-0.2v-3.7c0-0.1,0-0.1-0.1-0.1
			c0,0-0.1,0-0.1,0l-1.4,0.8L51.4,64.3L51.4,64.3z M54.5,62.8C54.5,62.8,54.5,62.8,54.5,62.8c0,2.6,0,0.5,0,3.5c0,0,0,0.1,0,0.1
			c-2.4,1.4,0,0-3,1.7c0,0,0,0,0,0v-3.5c0,0,0-0.1,0-0.1C53.5,63.4,52.2,64.1,54.5,62.8z"/>
		<g id="XMLID_133_">
			<polygon id="XMLID_140_" class="st17" points="46.5,59.3 69.9,45.7 77.3,53 53.8,66.5 			"/>
			<polygon id="XMLID_139_" class="st18" points="46.5,59.3 53.8,66.5 46.5,61.9 			"/>
			<polygon id="XMLID_138_" class="st8" points="48.6,58.1 50.7,56.8 58.1,64 55.9,65.3 			"/>
			<polygon id="XMLID_137_" class="st8" points="52.9,55.6 55,54.4 62.3,61.6 60.2,62.8 			"/>
			<polygon id="XMLID_136_" class="st8" points="57.1,53.1 59.3,51.9 66.6,59.1 64.5,60.4 			"/>
			<polygon id="XMLID_135_" class="st8" points="61.4,50.7 63.5,49.4 70.9,56.7 68.8,57.9 			"/>
			<polygon id="XMLID_134_" class="st8" points="65.7,48.2 67.8,47 75.1,54.2 73,55.4 			"/>
		</g>
		<path id="XMLID_126_" class="st17" d="M51.1,52.4c0.2-0.2,0.5-0.3,0.7-0.5c0,0.2,0.1,0.4,0.3,0.4c0.1,0,0.3,0,0.5-0.1
			c0.2-0.1,0.4-0.3,0.5-0.5c0.1-0.2,0.2-0.3,0.2-0.5c0-0.1,0-0.2-0.1-0.2c0,0-0.1,0-0.3,0c-0.1,0-0.3,0.1-0.6,0.2
			c-0.4,0.1-0.7,0.2-0.8,0.1c-0.2-0.1-0.3-0.3-0.3-0.6c0-0.2,0.1-0.4,0.2-0.7c0.1-0.2,0.3-0.5,0.5-0.7c0.2-0.2,0.4-0.4,0.7-0.6
			c0.5-0.3,0.8-0.4,1-0.3c0.2,0.1,0.4,0.3,0.4,0.7c-0.2,0.2-0.5,0.3-0.7,0.5c0-0.2-0.1-0.3-0.2-0.3c-0.1,0-0.3,0-0.5,0.1
			c-0.2,0.1-0.4,0.3-0.5,0.4c-0.1,0.1-0.1,0.2-0.1,0.3c0,0.1,0,0.2,0.1,0.2c0.1,0,0.3,0,0.7-0.1c0.4-0.1,0.6-0.2,0.8-0.2
			c0.2,0,0.3,0.1,0.4,0.2c0.1,0.1,0.1,0.3,0.1,0.5c0,0.2-0.1,0.5-0.2,0.7c-0.1,0.3-0.3,0.5-0.5,0.7c-0.2,0.2-0.5,0.4-0.8,0.6
			c-0.5,0.3-0.8,0.4-1.1,0.3C51.3,53.1,51.1,52.8,51.1,52.4L51.1,52.4z M54.7,51.6c0-1.3,0-2.6,0-4c0.3-0.1,0.5-0.3,0.7-0.4
			c0,0.5,0,1,0,1.6c0.5-0.3,1-0.6,1.4-0.8c0-0.5,0-1,0-1.6c0.2-0.1,0.5-0.3,0.7-0.4c0,1.3,0,2.6,0,4c-0.2,0.1-0.5,0.3-0.7,0.4
			c0-0.6,0-1.2,0-1.7c-0.5,0.3-1,0.6-1.4,0.8c0,0.6,0,1.2,0,1.7C55.2,51.3,55,51.5,54.7,51.6L54.7,51.6z M58.3,47.6
			c0-0.4,0.1-0.8,0.2-1.1c0.1-0.3,0.2-0.5,0.3-0.7c0.1-0.2,0.3-0.5,0.5-0.6c0.2-0.2,0.5-0.4,0.8-0.6c0.5-0.3,1-0.4,1.3-0.2
			c0.3,0.2,0.5,0.6,0.5,1.2c0,0.6-0.2,1.2-0.5,1.8c-0.3,0.5-0.8,1-1.3,1.3c-0.5,0.3-1,0.4-1.3,0.2C58.4,48.6,58.3,48.2,58.3,47.6
			L58.3,47.6z M59,47.1c0,0.5,0.1,0.7,0.3,0.9c0.2,0.1,0.4,0.1,0.7-0.1c0.3-0.2,0.5-0.4,0.7-0.8c0.2-0.3,0.3-0.7,0.3-1.2
			c0-0.5-0.1-0.7-0.3-0.9C60.6,45,60.3,45,60,45.2c-0.3,0.2-0.6,0.4-0.7,0.8C59.1,46.3,59,46.7,59,47.1L59,47.1z M62.4,47.2
			c0-1.3,0-2.6,0-4c0.4-0.2,0.8-0.5,1.2-0.7c0.4-0.3,0.7-0.4,0.9-0.4c0.2-0.1,0.4,0,0.5,0.1c0.1,0.1,0.2,0.3,0.2,0.6
			c0,0.2,0,0.5-0.1,0.7c-0.1,0.2-0.2,0.4-0.3,0.6c-0.1,0.2-0.3,0.3-0.4,0.4c-0.2,0.1-0.4,0.3-0.8,0.5c-0.2,0.1-0.3,0.2-0.5,0.3
			c0,0.5,0,1,0,1.5C62.9,46.9,62.6,47,62.4,47.2L62.4,47.2z M63.1,43.4c0,0.4,0,0.8,0,1.1c0.1-0.1,0.3-0.2,0.4-0.2
			c0.3-0.2,0.5-0.3,0.6-0.4c0.1-0.1,0.2-0.2,0.2-0.3c0.1-0.1,0.1-0.2,0.1-0.4c0-0.1,0-0.2-0.1-0.3c-0.1,0-0.2-0.1-0.3,0
			c-0.1,0-0.3,0.1-0.5,0.3C63.4,43.3,63.3,43.4,63.1,43.4z"/>
	</g>
</g>
</svg>
