<?xml version="1.0" encoding="utf-8"?>
<!-- Generator: Adobe Illustrator 19.0.0, SVG Export Plug-In . SVG Version: 6.00 Build 0)  -->
<svg version="1.1" id="图层_1" xmlns="http://www.w3.org/2000/svg" xmlns:xlink="http://www.w3.org/1999/xlink" x="0px" y="0px"
	 viewBox="0 0 100 100" style="enable-background:new 0 0 100 100;" xml:space="preserve">
<style type="text/css">
	.st0{fill-rule:evenodd;clip-rule:evenodd;fill:#FFFFFF;}
	.st1{fill-rule:evenodd;clip-rule:evenodd;fill:#F5F5F5;}
	.st2{fill-rule:evenodd;clip-rule:evenodd;fill:#E9E9EB;}
	.st3{fill-rule:evenodd;clip-rule:evenodd;fill:#DDDEE1;}
	.st4{fill-rule:evenodd;clip-rule:evenodd;fill:#D1D2D6;}
	.st5{fill-rule:evenodd;clip-rule:evenodd;fill:#2C3E50;}
	.st6{fill-rule:evenodd;clip-rule:evenodd;fill:#34485C;}
	.st7{fill-rule:evenodd;clip-rule:evenodd;fill:#3D566E;}
	.st8{fill-rule:evenodd;clip-rule:evenodd;fill:#9C9C9C;}
	.st9{fill-rule:evenodd;clip-rule:evenodd;fill:#E6EAEB;}
	.st10{fill-rule:evenodd;clip-rule:evenodd;fill:#EBEBEB;}
	.st11{fill-rule:evenodd;clip-rule:evenodd;fill:#B8BFC4;}
	.st12{fill-rule:evenodd;clip-rule:evenodd;fill:#C5CCD1;}
	.st13{fill-rule:evenodd;clip-rule:evenodd;fill:#BDBDBD;}
	.st14{fill-rule:evenodd;clip-rule:evenodd;fill:#666666;}
	.st15{fill-rule:evenodd;clip-rule:evenodd;fill:#FF0000;}
	.st16{fill-rule:evenodd;clip-rule:evenodd;fill:#C23E2D;}
	.st17{fill-rule:evenodd;clip-rule:evenodd;fill:#F25E4B;}
	.st18{fill-rule:evenodd;clip-rule:evenodd;fill:#F08173;}
	.st19{fill-rule:evenodd;clip-rule:evenodd;fill:#29648C;}
	.st20{fill-rule:evenodd;clip-rule:evenodd;fill:#2192FC;}
	.st21{fill-rule:evenodd;clip-rule:evenodd;fill:#415A73;}
	.st22{fill-rule:evenodd;clip-rule:evenodd;fill:#C43E3F;}
	.st23{fill-rule:evenodd;clip-rule:evenodd;fill:#943B3B;}
	.st24{fill-rule:evenodd;clip-rule:evenodd;fill:#E74C3C;}
</style>
<g id="XMLID_1_">
	<g>
		<path id="XMLID_122_" class="st0" d="M100,0c0,33.3,0,66.7,0,100c-33.3,0-66.7,0-100,0C0,66.7,0,33.3,0,0C33.3,0,66.7,0,100,0z"/>
		<g>
			<path id="XMLID_121_" class="st1" d="M72.1,69.2c12.2,7.1,12.2,18.5,0,25.5c-12.2,7.1-32,7.1-44.2,0c-12.2-7.1-12.2-18.5,0-25.5
				C40.1,62.1,59.9,62.1,72.1,69.2z"/>
			<path id="XMLID_120_" class="st2" d="M68.3,71.4c10.1,5.8,10.1,15.3,0,21.1c-10.1,5.8-26.4,5.8-36.5,0
				c-10.1-5.8-10.1-15.3,0-21.1C41.8,65.6,58.2,65.6,68.3,71.4z"/>
			<path id="XMLID_119_" class="st3" d="M64.4,73.6c8,4.6,8,12,0,16.6c-8,4.6-20.9,4.6-28.8,0c-8-4.6-8-12,0-16.6
				C43.5,69,56.4,69,64.4,73.6z"/>
			<path id="XMLID_118_" class="st4" d="M60.6,75.8c5.8,3.4,5.8,8.8,0,12.2c-5.8,3.4-15.3,3.4-21.1,0c-5.8-3.4-5.8-8.8,0-12.2
				C45.3,72.5,54.7,72.5,60.6,75.8z"/>
		</g>
	</g>
	<g>
		<polygon id="XMLID_117_" class="st5" points="50.6,84.6 27.1,71 27.1,70.1 50.6,83.7 		"/>
		<polygon id="XMLID_116_" class="st6" points="50.6,83.7 27.1,70.1 47.9,57.8 71.7,71.6 		"/>
		<polygon id="XMLID_115_" class="st7" points="50.6,83.7 71.7,71.6 71.7,72.4 50.6,84.6 		"/>
		<polygon id="XMLID_114_" class="st8" points="48.7,43.3 34.8,35.2 34.8,32.5 48.7,40.5 		"/>
		<polygon id="XMLID_113_" class="st9" points="48.7,43.3 48.7,40.5 62.3,32.7 62.2,35.5 		"/>
		<polygon id="XMLID_112_" class="st8" points="48.3,25.2 61.3,32.7 60.1,33.4 48.3,26.6 		"/>
		<polygon id="XMLID_111_" class="st10" points="37,33.2 35.7,32.5 48.3,25.2 48.3,26.6 		"/>
		<polygon id="XMLID_110_" class="st11" points="48.7,40.2 36.5,33.2 48.3,26.4 60.5,33.4 		"/>
		<path class="st12" d="M48.7,40.5l-14-8.1l13.5-7.8l14,8.1L48.7,40.5L48.7,40.5z M48.7,40l12.6-7.2l-13-7.5l-12.6,7.2L48.7,40z"/>
		<polygon id="XMLID_107_" class="st8" points="48.7,39.1 40,34 40,25.1 48.7,30.1 		"/>
		<polygon id="XMLID_106_" class="st13" points="48.7,30.1 40,25.1 48.3,20.2 57.1,25.3 		"/>
		<polygon id="XMLID_105_" class="st9" points="48.7,30.1 57.1,25.3 57.1,34.2 48.7,39.1 		"/>
		<polygon id="XMLID_104_" class="st14" points="48.6,27.9 43.8,25.1 48.4,22.4 53.3,25.2 		"/>
		<polygon id="XMLID_103_" class="st8" points="48.6,27.9 43.8,25.1 43.8,16.5 48.6,19.2 		"/>
		<polygon id="XMLID_102_" class="st13" points="48.6,19.2 43.8,16.5 48.4,13.7 53.3,16.6 		"/>
		<polygon id="XMLID_101_" class="st9" points="48.6,19.2 53.3,16.6 53.3,25.2 48.6,27.9 		"/>
		<polygon id="XMLID_100_" class="st8" points="48.5,16.7 48.2,16.5 48.2,7.8 48.5,8 		"/>
		<polygon id="XMLID_99_" class="st5" points="48.5,8 48.2,7.8 48.5,7.6 48.9,7.8 		"/>
		<polygon id="XMLID_98_" class="st9" points="48.5,8 48.9,7.8 48.9,16.5 48.5,16.7 		"/>
		<polygon id="XMLID_97_" class="st15" points="48.5,8 48.2,7.8 48.5,7.6 48.9,7.8 		"/>
		<path id="XMLID_96_" class="st16" d="M48.5,8.4c0.3,0,0.6-0.3,0.6-0.6c0-0.3-0.3-0.6-0.6-0.6c-0.3,0-0.6,0.3-0.6,0.6
			C47.9,8.2,48.2,8.4,48.5,8.4z"/>
		<path id="XMLID_95_" class="st17" d="M48.6,8.3c0.3,0,0.5-0.2,0.5-0.5c0-0.3-0.2-0.5-0.5-0.5c-0.3,0-0.5,0.2-0.5,0.5
			C48.1,8.1,48.3,8.3,48.6,8.3z"/>
		<path id="XMLID_94_" class="st18" d="M49,7.5c-0.1-0.2-0.3-0.1-0.3,0.1c0,0.1,0.1,0.2,0.2,0.2C49.1,7.9,49.1,7.6,49,7.5z"/>
		<g>
			<polygon id="XMLID_93_" class="st12" points="48.7,46.7 34.8,38.6 35.3,38.3 48.7,46.1 61.8,38.6 62.3,38.9 			"/>
			<polygon id="XMLID_92_" class="st19" points="48.7,46.1 35.3,38.3 35.3,35.5 48.7,43.3 			"/>
			<polygon id="XMLID_91_" class="st20" points="48.7,46.1 48.7,43.3 61.8,35.8 61.8,38.6 			"/>
			<polygon id="XMLID_90_" class="st8" points="48.7,47.7 34.8,39.6 34.8,38.6 48.7,46.7 			"/>
			<polygon id="XMLID_89_" class="st9" points="48.7,47.7 48.7,46.7 62.3,38.9 62.2,39.9 			"/>
		</g>
		<g>
			<polygon id="XMLID_88_" class="st12" points="48.7,51.1 34.8,43 35.3,42.7 48.7,50.5 61.8,43 62.3,43.3 			"/>
			<polygon id="XMLID_87_" class="st19" points="48.7,50.5 35.3,42.7 35.3,39.9 48.7,47.7 			"/>
			<polygon id="XMLID_86_" class="st20" points="48.7,50.5 48.7,47.7 61.8,40.2 61.8,43 			"/>
			<polygon id="XMLID_85_" class="st8" points="48.7,52.1 34.8,44 34.8,43 48.7,51.1 			"/>
			<polygon id="XMLID_84_" class="st9" points="48.7,52.1 48.7,51.1 62.3,43.3 62.2,44.3 			"/>
		</g>
		<g>
			<polygon id="XMLID_83_" class="st12" points="48.7,55.5 34.8,47.4 35.3,47.1 48.7,54.9 61.8,47.4 62.3,47.7 			"/>
			<polygon id="XMLID_82_" class="st19" points="48.7,54.9 35.3,47.1 35.3,44.3 48.7,52.1 			"/>
			<polygon id="XMLID_81_" class="st20" points="48.7,54.9 48.7,52.1 61.8,44.6 61.8,47.4 			"/>
			<polygon id="XMLID_80_" class="st8" points="48.7,56.5 34.8,48.4 34.8,47.4 48.7,55.5 			"/>
			<polygon id="XMLID_79_" class="st9" points="48.7,56.5 48.7,55.5 62.3,47.7 62.2,48.7 			"/>
		</g>
		<g>
			<polygon id="XMLID_78_" class="st12" points="48.7,59.8 34.8,51.8 35.3,51.5 48.7,59.3 61.8,51.8 62.3,52.1 			"/>
			<polygon id="XMLID_77_" class="st19" points="48.7,59.3 35.3,51.5 35.3,48.7 48.7,56.5 			"/>
			<polygon id="XMLID_76_" class="st20" points="48.7,59.3 48.7,56.5 61.8,49 61.8,51.8 			"/>
			<polygon id="XMLID_75_" class="st8" points="48.7,60.9 34.8,52.8 34.8,51.8 48.7,59.8 			"/>
			<polygon id="XMLID_74_" class="st9" points="48.7,60.9 48.7,59.8 62.3,52.1 62.2,53.1 			"/>
		</g>
		<g>
			<polygon id="XMLID_73_" class="st12" points="48.7,64.2 34.8,56.2 35.3,55.9 48.7,63.7 61.8,56.2 62.3,56.5 			"/>
			<polygon id="XMLID_72_" class="st19" points="48.7,63.7 35.3,55.9 35.3,53.1 48.7,60.9 			"/>
			<polygon id="XMLID_71_" class="st20" points="48.7,63.7 48.7,60.9 61.8,53.4 61.8,56.2 			"/>
			<polygon id="XMLID_70_" class="st8" points="48.7,65.3 34.8,57.2 34.8,56.2 48.7,64.2 			"/>
			<polygon id="XMLID_69_" class="st10" points="48.7,65.3 48.7,64.2 62.3,56.5 62.2,57.5 			"/>
		</g>
		<polygon id="XMLID_68_" class="st12" points="48.7,68.6 34.8,60.6 35.3,60.3 48.7,68.1 61.8,60.6 62.3,60.9 		"/>
		<polygon id="XMLID_67_" class="st7" points="48.7,68.1 48.7,65.3 61.8,57.8 61.8,60.6 		"/>
		<polygon id="XMLID_66_" class="st8" points="48.7,69.7 34.8,61.6 34.8,60.6 48.7,68.6 		"/>
		<polygon id="XMLID_65_" class="st9" points="48.7,69.7 48.7,68.6 62.3,60.9 62.2,61.9 		"/>
		<polygon id="XMLID_64_" class="st19" points="48.7,75.1 35.3,67.4 35.3,61.9 48.7,69.7 		"/>
		<polygon id="XMLID_63_" class="st20" points="48.7,75.1 48.7,69.7 61.8,62.2 61.8,67.6 		"/>
		<g>
			<polygon id="XMLID_62_" class="st12" points="48.7,77.1 34.8,69.1 35.3,68.8 48.7,76.6 61.8,69.1 62.3,69.3 			"/>
			<polygon id="XMLID_61_" class="st19" points="48.7,76.6 35.3,68.8 35.3,66 48.7,73.8 			"/>
			<polygon id="XMLID_60_" class="st20" points="48.7,76.6 48.7,73.8 61.8,66.3 61.8,69.1 			"/>
			<polygon id="XMLID_59_" class="st8" points="48.7,78.2 34.8,70.1 34.8,69.1 48.7,77.1 			"/>
			<polygon id="XMLID_58_" class="st9" points="48.7,78.2 48.7,77.1 62.3,69.3 62.2,70.4 			"/>
		</g>
		<polygon id="XMLID_57_" class="st8" points="69.3,62.1 69.3,61.1 61.8,56.7 61.8,57.8 		"/>
		<polygon id="XMLID_56_" class="st11" points="55.8,67.7 67.9,60.7 61.8,57.2 49.7,64.2 		"/>
		<polygon id="XMLID_55_" class="st12" points="56.3,73 69.8,65.2 69.3,64.9 56.3,72.4 48.7,68.1 48.7,68.1 48.7,68.6 		"/>
		<polygon id="XMLID_54_" class="st12" points="56.3,68.6 69.8,60.8 69.3,60.5 56.3,68 48.7,63.7 48.7,63.7 48.7,64.2 		"/>
		<polygon id="XMLID_53_" class="st8" points="56.3,69.6 56.3,68.6 47.9,63.7 47.9,64.8 		"/>
		<polygon id="XMLID_52_" class="st12" points="69.3,61.1 69.3,60.5 61.9,56.3 61.4,56.6 		"/>
		<polygon id="XMLID_51_" class="st8" points="65.1,73.9 63.8,73.1 63.8,65.8 65.1,66.5 		"/>
		<polygon id="XMLID_50_" class="st10" points="65.1,66.5 66.4,65.8 66.4,73.1 65.1,73.9 		"/>
		<polygon id="XMLID_49_" class="st12" points="54.2,72.8 52.9,72 54.2,71.3 55.5,72.1 		"/>
		<polygon id="XMLID_48_" class="st10" points="55.5,72.1 56.8,71.3 56.8,78.7 55.5,79.4 		"/>
		<polygon id="XMLID_47_" class="st12" points="56.3,67.4 69.8,59.6 68.4,58.8 55,66.6 		"/>
		<polygon id="XMLID_46_" class="st7" points="56.3,72.4 69.3,64.9 69.3,62.1 56.3,69.6 		"/>
		<polygon id="XMLID_45_" class="st10" points="56.3,74 69.8,66.2 69.8,65.2 56.3,73 		"/>
		<polygon id="XMLID_44_" class="st8" points="56.3,69.6 69.8,61.8 69.8,60.8 56.3,68.6 		"/>
		<polygon id="XMLID_43_" class="st10" points="56.3,73.5 69.8,65.7 69.8,59.6 56.3,67.4 		"/>
		<polygon id="XMLID_42_" class="st8" points="55.5,79.4 54.2,78.7 54.2,71.9 55.5,72.7 		"/>
		<path id="XMLID_41_" class="st8" d="M56.3,73l-8.5-4.9v1l7.2,4.1l1.3,0.8C56.3,73.7,56.3,73.3,56.3,73z"/>
		<path id="XMLID_40_" class="st19" d="M56.3,72.4l0-2.8l-21-12.1l0,2.8C42.3,64.3,49.3,68.4,56.3,72.4z"/>
		<polygon id="XMLID_39_" class="st8" points="56.3,74 56.3,67.4 55,66.6 55,73.2 		"/>
		<g>
			<g>
				<polygon id="XMLID_38_" class="st5" points="60.1,67.8 59.9,67.7 59.7,67.6 59.6,67.6 59.4,67.6 59.2,67.7 59,67.9 58.9,68 
					58.7,68.2 58.6,68.4 58.5,68.6 58.4,68.8 58.4,69.1 58.4,69.3 58.4,69.5 58.4,69.7 58.5,69.9 58.6,69.9 58.9,70.1 58.7,70 
					58.7,69.9 58.6,69.7 58.6,69.5 58.6,69.2 58.7,69 58.7,68.8 58.9,68.5 59,68.3 59.1,68.2 59.3,68 59.5,67.9 59.7,67.8 
					59.8,67.8 60,67.8 				"/>
				<polygon id="XMLID_37_" class="st5" points="59.8,68.2 59.5,68.1 59.6,68.1 59.6,68.2 59.7,68.3 59.7,68.4 59.7,68.5 59.7,68.7 
					59.7,68.8 59.6,69 59.6,69.1 59.5,69.2 59.4,69.3 59.3,69.4 59.2,69.5 59.1,69.6 59,69.6 59,69.6 59.2,69.7 59.3,69.7 
					59.4,69.7 59.5,69.7 59.6,69.6 59.7,69.5 59.8,69.4 59.8,69.3 59.9,69.1 59.9,69 60,68.8 60,68.7 60,68.5 59.9,68.4 59.9,68.3 
					59.8,68.2 				"/>
				<polygon id="XMLID_36_" class="st5" points="62.1,66.4 61.8,66.3 61.8,68.3 62.1,68.5 				"/>
				<polygon id="XMLID_35_" class="st5" points="60.6,67.3 60.4,67.1 60.4,69.2 60.6,69.3 				"/>
				<polygon id="XMLID_34_" class="st5" points="61.8,67.5 61.5,67.3 60.8,67.8 61,67.9 				"/>
				<polygon id="XMLID_33_" class="st5" points="63.6,65.6 63.3,65.4 63.3,67.5 63.6,67.6 				"/>
				<polygon id="XMLID_32_" class="st5" points="61.9,66.6 61.6,66.4 60.4,67.1 60.6,67.3 				"/>
				<polygon id="XMLID_31_" class="st5" points="63.2,66.6 63,66.5 62.2,66.9 62.5,67 				"/>
				<polygon id="XMLID_30_" class="st5" points="64,65.3 63.7,65.2 63.3,65.4 63.6,65.6 				"/>
				<polygon id="XMLID_29_" class="st5" points="63.3,65.7 63.1,65.6 61.8,66.3 62.1,66.4 				"/>
				<polygon id="XMLID_28_" class="st5" points="65.9,65.5 65.6,65.3 65.2,65.6 65.5,65.7 				"/>
				<polygon id="XMLID_27_" class="st5" points="65.5,65.7 65.2,65.6 65.2,65.7 65.2,65.8 65.2,65.9 65.1,66 65.1,66.1 65,66.1 
					64.9,66.2 64.8,66.3 64.7,66.3 64.6,66.3 64.6,66.3 64.8,66.5 64.9,66.5 65,66.5 65.1,66.4 65.2,66.4 65.2,66.3 65.3,66.2 
					65.4,66.1 65.4,66 65.5,65.9 65.5,65.8 				"/>
				<polygon id="XMLID_26_" class="st5" points="65.4,65 65.1,64.8 65.2,64.9 65.2,64.9 65.2,65 65.5,65.1 65.5,65.1 65.4,65 				
					"/>
				<polygon id="XMLID_25_" class="st5" points="65.6,64.5 65.4,64.4 65.3,64.4 65.1,64.4 65,64.4 64.8,64.5 64.7,64.6 64.5,64.8 
					64.3,65 64.2,65.2 64.1,65.4 64,65.6 64,65.8 64,66.1 64,66.3 64,66.5 64.1,66.6 64.2,66.7 64.5,66.9 64.4,66.8 64.3,66.6 
					64.2,66.4 64.2,66.2 64.2,66 64.3,65.8 64.4,65.5 64.5,65.3 64.6,65.1 64.7,64.9 64.9,64.8 65.1,64.6 65.3,64.6 65.4,64.5 
					65.5,64.5 				"/>
				<polygon id="XMLID_24_" class="st5" points="67.5,63.3 67.2,63.2 65.9,63.9 66.1,64.1 				"/>
				<polygon id="XMLID_23_" class="st5" points="66.1,64.1 65.9,63.9 65.9,66 66.1,66.1 				"/>
				<polygon id="XMLID_22_" class="st5" points="67.5,65 67.2,64.8 66.3,65.4 66.5,65.5 				"/>
				<polygon id="XMLID_21_" class="st5" points="67.4,64.2 67.1,64 66.3,64.5 66.5,64.7 				"/>
			</g>
			<path class="st7" d="M59.5,67.9c-0.5,0.3-0.9,0.9-0.9,1.6c0,0.6,0.4,0.9,0.9,0.6c0.5-0.3,0.9-0.9,0.9-1.6
				C60.4,67.8,60,67.6,59.5,67.9L59.5,67.9z M59.5,68.3c0.3-0.2,0.5,0,0.5,0.4c0,0.4-0.2,0.8-0.5,1c-0.3,0.2-0.5,0-0.5-0.4
				C59,68.8,59.2,68.4,59.5,68.3L59.5,68.3z M61.9,66.6l-1.2,0.7v2l0.4-0.2v-0.8l0.7-0.4v-0.4L61,67.9v-0.5l0.9-0.5V66.6L61.9,66.6z
				 M63.3,65.7l-1.2,0.7v2l0.4-0.2v-0.8l0.7-0.4v-0.4L62.5,67v-0.5l0.9-0.5V65.7L63.3,65.7z M64,65.3l-0.4,0.2v2l0.4-0.2V65.3
				L64,65.3z M65.9,65.5l-0.4,0.2c0,0.3-0.2,0.6-0.4,0.7c-0.3,0.2-0.5,0-0.5-0.4c0-0.3,0.1-0.8,0.5-1c0.2-0.1,0.4-0.1,0.4,0.1
				l0.4-0.2c0-0.4-0.3-0.5-0.8-0.3c-0.5,0.3-0.9,1-0.9,1.6c0,0.6,0.3,0.9,0.9,0.6C65.6,66.5,65.8,66,65.9,65.5L65.9,65.5z
				 M67.5,63.3l-1.3,0.8v2l1.3-0.8V65l-1,0.6V65l0.9-0.5v-0.4l-0.9,0.5v-0.4l0.9-0.5V63.3z"/>
		</g>
	</g>
	<polygon id="XMLID_13_" class="st5" points="51.5,35.9 50.9,35.5 50.9,35.5 50.9,35.5 51.5,35.9 51.5,35.9 	"/>
	<polygon id="XMLID_12_" class="st5" points="54.1,31.4 53.5,31.1 53.5,31.1 53.4,31.1 54.1,31.4 54.1,31.4 	"/>
	<path class="st13" d="M51.2,32.8c0.4-0.7,1-1.3,1.6-1.6c0.6-0.4,1.2-0.4,1.6-0.2c0.4,0.2,0.6,0.7,0.6,1.4c0,0.7-0.2,1.5-0.6,2.2
		c-0.4,0.7-1,1.3-1.6,1.7c-0.6,0.4-1.2,0.4-1.6,0.2c-0.4-0.2-0.6-0.7-0.6-1.4S50.8,33.5,51.2,32.8L51.2,32.8z M54.1,31.4
		c-0.2-0.1-0.4-0.1-0.6-0.1c-0.2,0-0.4,0.1-0.7,0.2c-0.2,0.1-0.5,0.3-0.7,0.6c-0.2,0.2-0.4,0.5-0.6,0.8c-0.2,0.3-0.3,0.6-0.4,0.9
		C51,34.1,51,34.4,51,34.7c0,0.3,0,0.5,0.1,0.7c0.1,0.2,0.2,0.4,0.4,0.5c0.2,0.1,0.4,0.1,0.6,0.1c0.2,0,0.4-0.1,0.7-0.2
		c0.2-0.1,0.5-0.3,0.7-0.6c0.2-0.2,0.4-0.5,0.6-0.8c0.2-0.3,0.3-0.6,0.4-0.9c0.1-0.3,0.1-0.6,0.1-0.9c0-0.3,0-0.5-0.1-0.7
		C54.4,31.7,54.2,31.5,54.1,31.4z"/>
	<g>
		<polygon id="XMLID_9_" class="st5" points="51.8,33.6 51.7,33.5 51.9,33.2 51.9,33.2 		"/>
		<polygon id="XMLID_8_" class="st5" points="51.9,33.2 51.9,33.2 53,33.5 53.1,33.5 		"/>
	</g>
	<polygon id="XMLID_7_" class="st21" points="53.1,33.5 52.9,33.9 51.8,33.6 51.9,33.2 	"/>
	
		<rect id="XMLID_6_" x="53.1" y="31.7" transform="matrix(0.8896 0.4568 -0.4568 0.8896 20.9411 -20.6437)" class="st5" width="0.1" height="2.6"/>
	<polygon id="XMLID_5_" class="st21" points="52.6,34.2 52.5,34.1 53.9,31.9 53.9,31.9 53.7,32.3 	"/>
	<g>
		<polygon id="XMLID_4_" class="st22" points="53,33.3 52.9,33.3 52.9,33.3 52.9,33.3 		"/>
		<polygon id="XMLID_3_" class="st23" points="52.9,33.3 52.9,33.3 52.3,35.6 52.3,35.6 		"/>
	</g>
	<polygon id="XMLID_2_" class="st24" points="52.3,35.6 52.4,35.6 53,33.3 52.9,33.3 	"/>
</g>
</svg>
