<?xml version="1.0" encoding="utf-8"?>
<!-- Generator: Adobe Illustrator 19.0.0, SVG Export Plug-In . SVG Version: 6.00 Build 0)  -->
<svg version="1.1" id="图层_1" xmlns="http://www.w3.org/2000/svg" xmlns:xlink="http://www.w3.org/1999/xlink" x="0px" y="0px"
	 viewBox="0 0 100 100" style="enable-background:new 0 0 100 100;" xml:space="preserve">
<style type="text/css">
	.st0{fill-rule:evenodd;clip-rule:evenodd;fill:#FFFFFF;}
	.st1{fill-rule:evenodd;clip-rule:evenodd;fill:#F5F5F5;}
	.st2{fill-rule:evenodd;clip-rule:evenodd;fill:#E9E9EB;}
	.st3{fill-rule:evenodd;clip-rule:evenodd;fill:#DDDEE1;}
	.st4{fill-rule:evenodd;clip-rule:evenodd;fill:#D1D2D6;}
	.st5{fill-rule:evenodd;clip-rule:evenodd;fill:#3D566E;}
	.st6{fill-rule:evenodd;clip-rule:evenodd;fill:#34485C;}
	.st7{fill-rule:evenodd;clip-rule:evenodd;fill:#E6EAEB;}
	.st8{fill-rule:evenodd;clip-rule:evenodd;fill:#9C9C9C;}
	.st9{fill-rule:evenodd;clip-rule:evenodd;fill:#A3ADB5;}
	.st10{fill-rule:evenodd;clip-rule:evenodd;fill:#C5CCD1;}
	.st11{fill-rule:evenodd;clip-rule:evenodd;fill:#AFB6B8;}
	.st12{fill-rule:evenodd;clip-rule:evenodd;fill:#BDBDBD;}
	.st13{fill-rule:evenodd;clip-rule:evenodd;fill:#E74C3C;}
	.st14{fill-rule:evenodd;clip-rule:evenodd;fill:#7F8C8D;}
	.st15{fill-rule:evenodd;clip-rule:evenodd;fill:#2C3E50;}
</style>
<g>
	<g>
		<path id="XMLID_128_" class="st0" d="M100,0c0,33.3,0,66.7,0,100c-33.3,0-66.7,0-100,0C0,66.7,0,33.3,0,0C33.3,0,66.7,0,100,0z"/>
		<g>
			<path id="XMLID_127_" class="st1" d="M72.1,69.2c12.2,7.1,12.2,18.5,0,25.5c-12.2,7.1-32,7.1-44.2,0c-12.2-7.1-12.2-18.5,0-25.5
				C40.1,62.1,59.9,62.1,72.1,69.2z"/>
			<path id="XMLID_126_" class="st2" d="M68.3,71.4c10.1,5.8,10.1,15.3,0,21.1c-10.1,5.8-26.4,5.8-36.5,0
				c-10.1-5.8-10.1-15.3,0-21.1C41.8,65.6,58.2,65.6,68.3,71.4z"/>
			<path id="XMLID_125_" class="st3" d="M64.4,73.6c8,4.6,8,12,0,16.6c-8,4.6-20.9,4.6-28.8,0c-8-4.6-8-12,0-16.6
				C43.5,69,56.5,69,64.4,73.6z"/>
			<path id="XMLID_124_" class="st4" d="M60.6,75.8c5.8,3.4,5.8,8.8,0,12.2c-5.8,3.4-15.3,3.4-21.1,0c-5.8-3.4-5.8-8.8,0-12.2
				C45.3,72.5,54.7,72.5,60.6,75.8z"/>
		</g>
	</g>
	<g>
		<polygon id="XMLID_123_" class="st5" points="79.6,65.8 79.6,67 79.6,67.1 79.6,67.2 79.5,67.2 79.5,67.3 79.5,67.4 79.4,67.4 
			79.4,67.5 79.3,67.6 79.2,67.6 79.2,67.7 79.1,67.7 79,67.8 78.9,67.8 50.7,84.2 50.6,84.2 50.5,84.3 50.4,84.3 50.3,84.3 
			50.2,84.4 50.1,84.4 50,84.4 49.9,84.5 49.8,84.5 49.6,84.5 49.5,84.5 49.4,84.5 49.3,84.6 49.2,84.6 49.1,84.6 48.9,84.6 
			48.8,84.6 48.7,84.6 48.6,84.6 48.5,84.5 48.4,84.5 48.2,84.5 48.1,84.5 48,84.5 47.9,84.4 47.8,84.4 47.7,84.4 47.6,84.3 
			47.5,84.3 47.4,84.3 47.3,84.2 47.2,84.2 21.1,69.1 21,69 20.9,68.9 20.8,68.9 20.8,68.8 20.7,68.8 20.6,68.7 20.6,68.7 
			20.5,68.6 20.5,68.5 20.5,68.5 20.4,68.4 20.4,68.3 20.4,68.3 20.4,67 20.4,67 20.4,67.1 20.5,67.2 20.5,67.2 20.5,67.3 
			20.6,67.4 20.6,67.4 20.7,67.5 20.8,67.6 20.8,67.6 20.9,67.7 21,67.7 21.1,67.8 47.2,82.9 47.3,82.9 47.4,83 47.5,83 47.6,83.1 
			47.7,83.1 47.8,83.1 47.9,83.2 48,83.2 48.1,83.2 48.2,83.2 48.4,83.3 48.5,83.3 48.6,83.3 48.7,83.3 48.8,83.3 48.9,83.3 
			49.1,83.3 49.2,83.3 49.3,83.3 49.4,83.3 49.5,83.3 49.6,83.2 49.8,83.2 49.9,83.2 50,83.2 50.1,83.1 50.2,83.1 50.3,83.1 
			50.4,83 50.5,83 50.6,82.9 50.7,82.9 78.9,66.6 79,66.5 79.1,66.5 79.2,66.4 79.2,66.4 79.3,66.3 79.4,66.2 79.4,66.2 79.5,66.1 
			79.5,66 79.5,66 79.6,65.9 79.6,65.8 		"/>
		<path id="XMLID_122_" class="st6" d="M21.1,65.8l28.2-16.3c1-0.6,2.5-0.6,3.5,0l26.1,15.1c1,0.6,1,1.5,0,2L50.7,82.9
			c-1,0.6-2.5,0.6-3.5,0L21.1,67.8C20.1,67.2,20.1,66.3,21.1,65.8z"/>
		<polygon id="XMLID_121_" class="st5" points="76.1,64.8 76.1,65.9 76.1,66 76.1,66 76.1,66.1 76,66.1 76,66.2 76,66.2 75.9,66.3 
			75.9,66.4 75.8,66.4 75.7,66.5 75.7,66.5 75.6,66.6 75.5,66.6 50.6,81 50.5,81 50.4,81.1 50.4,81.1 50.3,81.2 50.2,81.2 
			50.1,81.2 50,81.2 49.9,81.3 49.8,81.3 49.7,81.3 49.6,81.3 49.5,81.3 49.4,81.3 49.3,81.4 49.2,81.4 49.1,81.4 49,81.4 
			48.9,81.4 48.8,81.3 48.6,81.3 48.5,81.3 48.4,81.3 48.3,81.3 48.2,81.3 48.1,81.2 48,81.2 48,81.2 47.9,81.2 47.8,81.1 
			47.7,81.1 47.6,81 47.5,81 24.5,67.7 24.4,67.6 24.3,67.6 24.3,67.5 24.2,67.5 24.1,67.4 24.1,67.4 24.1,67.3 24,67.3 24,67.2 
			23.9,67.1 23.9,67.1 23.9,67 23.9,67 23.9,65.8 23.9,65.9 23.9,66 23.9,66 24,66.1 24,66.1 24.1,66.2 24.1,66.2 24.1,66.3 
			24.2,66.4 24.3,66.4 24.3,66.5 24.4,66.5 24.5,66.6 47.5,79.9 47.6,79.9 47.7,80 47.8,80 47.9,80 48,80.1 48,80.1 48.1,80.1 
			48.2,80.1 48.3,80.2 48.4,80.2 48.5,80.2 48.6,80.2 48.8,80.2 48.9,80.2 49,80.2 49.1,80.2 49.2,80.2 49.3,80.2 49.4,80.2 
			49.5,80.2 49.6,80.2 49.7,80.2 49.8,80.2 49.9,80.1 50,80.1 50.1,80.1 50.2,80.1 50.3,80 50.4,80 50.4,80 50.5,79.9 50.6,79.9 
			75.5,65.5 75.6,65.4 75.7,65.4 75.7,65.3 75.8,65.3 75.9,65.2 75.9,65.2 76,65.1 76,65.1 76,65 76.1,65 76.1,64.9 76.1,64.8 		"/>
		<path id="XMLID_120_" class="st6" d="M24.5,64.8l24.9-14.4c0.8-0.5,2.2-0.5,3.1,0l23,13.3c0.8,0.5,0.8,1.3,0,1.8L50.6,79.9
			c-0.8,0.5-2.2,0.5-3.1,0l-23-13.3C23.6,66.1,23.6,65.3,24.5,64.8z"/>
		<polygon id="XMLID_119_" class="st7" points="54.8,69.4 54.8,70.4 54.8,70.5 54.9,70.6 54.9,70.7 55,70.8 55,70.9 55.1,71 
			55.2,71.1 55.2,71.2 55.3,71.3 55.4,71.4 55.5,71.5 55.7,71.6 55.8,71.6 55.9,71.7 56.1,71.8 56.2,71.9 56.4,71.9 56.5,72 
			56.7,72.1 56.8,72.1 57,72.2 57.2,72.2 57.4,72.2 57.5,72.3 57.7,72.3 57.9,72.3 58.1,72.3 58.2,72.4 58.4,72.4 58.6,72.4 
			58.8,72.4 59,72.4 59.2,72.3 59.3,72.3 59.5,72.3 59.7,72.3 59.9,72.2 60,72.2 60.2,72.2 60.4,72.1 60.6,72.1 60.7,72 60.9,71.9 
			61,71.9 61.2,71.8 61.3,71.7 61.4,71.6 61.6,71.6 61.7,71.5 61.8,71.4 61.9,71.3 62,71.2 62.1,71.1 62.1,71 62.2,70.9 62.3,70.8 
			62.3,70.7 62.4,70.6 62.4,70.5 62.4,70.4 62.4,69.4 62.4,69.5 62.4,69.6 62.3,69.7 62.3,69.8 62.2,69.9 62.1,70 62.1,70.1 
			62,70.2 61.9,70.3 61.8,70.4 61.7,70.5 61.6,70.6 61.4,70.7 61.3,70.8 61.2,70.8 61,70.9 60.9,71 60.7,71 60.6,71.1 60.4,71.1 
			60.2,71.2 60,71.2 59.9,71.3 59.7,71.3 59.5,71.3 59.3,71.4 59.2,71.4 59,71.4 58.8,71.4 58.6,71.4 58.4,71.4 58.2,71.4 
			58.1,71.4 57.9,71.4 57.7,71.3 57.5,71.3 57.4,71.3 57.2,71.2 57,71.2 56.8,71.1 56.7,71.1 56.5,71 56.4,71 56.2,70.9 56.1,70.8 
			55.9,70.8 55.8,70.7 55.7,70.6 55.5,70.5 55.4,70.4 55.3,70.3 55.2,70.2 55.2,70.1 55.1,70 55,69.9 55,69.8 54.9,69.7 54.9,69.6 
			54.8,69.5 		"/>
		<path id="XMLID_118_" class="st8" d="M61.3,67.6c-1.5-0.9-3.9-0.9-5.4,0c-1.5,0.9-1.5,2.3,0,3.1c1.5,0.9,3.9,0.9,5.4,0
			C62.8,69.9,62.8,68.5,61.3,67.6z"/>
		<polygon id="XMLID_117_" class="st7" points="46.4,54.2 46.4,55.2 46.4,55.3 46.4,55.4 46.5,55.5 46.5,55.6 46.6,55.7 46.7,55.8 
			46.7,55.9 46.8,56 46.9,56.1 47,56.2 47.1,56.3 47.2,56.4 47.4,56.4 47.5,56.5 47.6,56.6 47.8,56.7 47.9,56.7 48.1,56.8 
			48.2,56.9 48.4,56.9 48.6,57 48.8,57 48.9,57.1 49.1,57.1 49.3,57.1 49.5,57.1 49.6,57.2 49.8,57.2 50,57.2 50.2,57.2 50.4,57.2 
			50.5,57.2 50.7,57.2 50.9,57.1 51.1,57.1 51.3,57.1 51.4,57.1 51.6,57 51.8,57 52,56.9 52.1,56.9 52.3,56.8 52.4,56.7 52.6,56.7 
			52.7,56.6 52.9,56.5 53,56.4 53.1,56.4 53.3,56.3 53.4,56.2 53.5,56.1 53.6,56 53.6,55.9 53.7,55.8 53.8,55.7 53.8,55.6 
			53.9,55.5 53.9,55.4 54,55.3 54,55.2 54,54.2 54,54.3 53.9,54.4 53.9,54.5 53.8,54.6 53.8,54.7 53.7,54.8 53.6,54.9 53.6,55 
			53.5,55.1 53.4,55.2 53.3,55.3 53.1,55.4 53,55.5 52.9,55.6 52.7,55.6 52.6,55.7 52.4,55.8 52.3,55.8 52.1,55.9 52,56 51.8,56 
			51.6,56 51.4,56.1 51.3,56.1 51.1,56.1 50.9,56.2 50.7,56.2 50.5,56.2 50.4,56.2 50.2,56.2 50,56.2 49.8,56.2 49.6,56.2 
			49.5,56.2 49.3,56.1 49.1,56.1 48.9,56.1 48.8,56 48.6,56 48.4,56 48.2,55.9 48.1,55.8 47.9,55.8 47.8,55.7 47.6,55.6 47.5,55.6 
			47.4,55.5 47.2,55.4 47.1,55.3 47,55.2 46.9,55.1 46.8,55 46.7,54.9 46.7,54.8 46.6,54.7 46.5,54.6 46.5,54.5 46.4,54.4 
			46.4,54.3 		"/>
		<path id="XMLID_116_" class="st8" d="M52.9,52.5c-1.5-0.9-3.9-0.9-5.4,0c-1.5,0.9-1.5,2.3,0,3.1c1.5,0.9,3.9,0.9,5.4,0
			C54.4,54.7,54.4,53.3,52.9,52.5z"/>
		<path id="XMLID_115_" class="st7" d="M48.2,52.5c1.1-0.6,2.8-0.6,3.9,0c1.1,0.6,1.1,1.6,0,2.3c-1.1,0.6-2.8,0.6-3.9,0
			C47.1,54.1,47.1,53.1,48.2,52.5z"/>
		<polygon id="XMLID_114_" class="st9" points="52.9,53.8 52.9,54 52.9,54.1 52.9,54.2 52.9,54.3 52.8,54.3 52.8,54.4 52.8,54.5 
			52.7,54.6 52.6,54.6 52.6,54.7 52.5,54.8 52.4,54.8 52.3,54.9 52.2,55 52.1,55 52,55.1 51.9,55.1 51.8,55.2 51.7,55.2 51.6,55.3 
			51.5,55.3 51.4,55.3 51.2,55.4 51.1,55.4 51,55.4 50.8,55.4 50.7,55.5 50.6,55.5 50.5,55.5 50.3,55.5 50.2,55.5 50.1,55.5 
			49.9,55.5 49.8,55.5 49.7,55.5 49.5,55.4 49.4,55.4 49.3,55.4 49.1,55.4 49,55.3 48.9,55.3 48.8,55.3 48.7,55.2 48.5,55.2 
			48.4,55.1 48.3,55.1 48.2,55 48.1,55 48,54.9 47.9,54.8 47.9,54.8 47.8,54.7 47.7,54.6 47.7,54.6 47.6,54.5 47.6,54.4 47.5,54.3 
			47.5,54.3 47.5,54.2 47.4,54.1 47.4,54 47.4,53.8 47.4,53.8 47.5,53.9 47.5,54 47.5,54.1 47.6,54.1 47.6,54.2 47.7,54.3 
			47.7,54.4 47.8,54.4 47.9,54.5 47.9,54.6 48,54.6 48.1,54.7 48.2,54.7 48.3,54.8 48.4,54.9 48.5,54.9 48.7,55 48.8,55 48.9,55 
			49,55.1 49.1,55.1 49.3,55.1 49.4,55.1 49.5,55.2 49.7,55.2 49.8,55.2 49.9,55.2 50.1,55.2 50.2,55.2 50.3,55.2 50.5,55.2 
			50.6,55.2 50.7,55.2 50.8,55.2 51,55.1 51.1,55.1 51.2,55.1 51.4,55.1 51.5,55 51.6,55 51.7,55 51.8,54.9 51.9,54.9 52,54.8 
			52.1,54.7 52.2,54.7 52.3,54.6 52.4,54.6 52.5,54.5 52.6,54.4 52.6,54.4 52.7,54.3 52.8,54.2 52.8,54.1 52.8,54.1 52.9,54 
			52.9,53.9 52.9,53.8 		"/>
		<path id="XMLID_113_" class="st10" d="M48.3,52.5c1.1-0.6,2.8-0.6,3.8,0c1.1,0.6,1.1,1.6,0,2.2c-1.1,0.6-2.8,0.6-3.8,0
			C47.2,54.1,47.2,53.1,48.3,52.5z"/>
		<path id="XMLID_112_" class="st7" d="M52.8,48.1v5.6l0,0.1l0,0.1l0,0.1l0,0.1l0,0.1l0,0.1l-0.1,0.1l-0.1,0.1l-0.1,0.1l-0.1,0.1
			l-0.1,0.1l-0.1,0.1l-0.1,0.1l-0.1,0.1L52,54.7l-0.1,0.1l-0.1,0l-0.1,0l-0.1,0l-0.1,0l-0.1,0l-0.1,0l-0.1,0l-0.1,0l-0.1,0l-0.1,0
			l-0.1,0l-0.1,0l-0.1,0l-0.1,0l-0.1,0l-0.1,0l-0.1,0l-0.1,0l-0.1,0l-0.1,0l-0.1,0l-0.1,0l-0.1,0l-0.1,0l-0.1,0l-0.1,0l-0.1,0
			l-0.1,0l-0.1-0.1l-0.1-0.1l-0.1-0.1l-0.1-0.1L48,54.5l-0.1-0.1l-0.1-0.1l-0.1-0.1l-0.1-0.1l-0.1-0.1l0-0.1l0-0.1l0-0.1l0-0.1
			l0-0.1l0-0.1V48c0.1,0.3,0.4,0.5,0.7,0.7c1.1,0.6,2.8,0.6,3.9,0C52.5,48.6,52.7,48.3,52.8,48.1z"/>
		<path id="XMLID_111_" class="st10" d="M48.3,54c0,0.2-0.4,0.1-0.4-0.1v-5.3c0.1,0.1,0.2,0.2,0.3,0.2l0,0V54z"/>
		<path id="XMLID_110_" class="st10" d="M52.2,54c0,0.2-0.3,0.2-0.3,0v-5.1c0.1,0,0.2-0.1,0.3-0.2l0,0V54z"/>
		<path id="XMLID_109_" class="st11" d="M51.8,54v-5c0.1,0,0.2-0.1,0.2-0.1V54C52.1,54.2,51.8,54.1,51.8,54z"/>
		<path id="XMLID_108_" class="st11" d="M52.7,53.5c0,0.1-0.1,0.1-0.1,0v-5.1c0.1-0.1,0.1-0.1,0.1-0.2V53.5z"/>
		<path id="XMLID_107_" class="st10" d="M51.1,54.3c0,0.3-0.5,0.3-0.5,0v-5.1c0.2,0,0.4,0,0.5-0.1V54.3z"/>
		<path id="XMLID_106_" class="st11" d="M50.5,49.2v5.1c0,0.1,0.1,0.2,0.2,0.2c0.1,0,0.2-0.1,0.2-0.2v-5.2
			C50.8,49.2,50.7,49.2,50.5,49.2z"/>
		<path id="XMLID_105_" class="st10" d="M49.1,49.1v5.2c0,0.3,0.5,0.3,0.5,0.1v-5.2C49.4,49.2,49.2,49.1,49.1,49.1z"/>
		<path id="XMLID_104_" class="st11" d="M48.3,53.9c0,0.2-0.3,0.1-0.3-0.1v-5.2c0.1,0.1,0.1,0.1,0.2,0.2l0,0V53.9z"/>
		<path id="XMLID_103_" class="st11" d="M49.2,49.1v5.2c0,0.3,0.4,0.3,0.4,0.1v-5.1C49.4,49.2,49.3,49.1,49.2,49.1z"/>
		<path id="XMLID_102_" class="st12" d="M48.3,46.4c1.1,0.3,2.8,0.1,3.9,0.3c1.1,0.2,0.9,1.8-0.2,2.4c-1.1,0.6-3,0.5-4.1-0.2
			C47,48.1,47.3,46.1,48.3,46.4z"/>
		<polygon id="XMLID_101_" class="st7" points="55.1,59 55.1,60 55.1,60.1 55.1,60.2 55.2,60.3 55.2,60.4 55.3,60.5 55.3,60.6 
			55.4,60.7 55.5,60.8 55.6,60.9 55.7,61 55.8,61.1 55.9,61.2 56,61.2 56.2,61.3 56.3,61.4 56.5,61.5 56.6,61.5 56.8,61.6 
			56.9,61.7 57.1,61.7 57.3,61.8 57.4,61.8 57.6,61.8 57.8,61.9 58,61.9 58.1,61.9 58.3,61.9 58.5,62 58.7,62 58.9,62 59.1,62 
			59.2,62 59.4,61.9 59.6,61.9 59.8,61.9 60,61.9 60.1,61.8 60.3,61.8 60.5,61.8 60.6,61.7 60.8,61.7 61,61.6 61.1,61.5 61.3,61.5 
			61.4,61.4 61.6,61.3 61.7,61.2 61.8,61.2 61.9,61.1 62.1,61 62.2,60.9 62.2,60.8 62.3,60.7 62.4,60.6 62.5,60.5 62.5,60.4 
			62.6,60.3 62.6,60.2 62.6,60.1 62.7,60 62.7,59 62.6,59.1 62.6,59.2 62.6,59.3 62.5,59.4 62.5,59.5 62.4,59.6 62.3,59.7 
			62.2,59.8 62.2,59.9 62.1,60 61.9,60.1 61.8,60.2 61.7,60.3 61.6,60.4 61.4,60.4 61.3,60.5 61.1,60.6 61,60.6 60.8,60.7 
			60.6,60.7 60.5,60.8 60.3,60.8 60.1,60.9 60,60.9 59.8,60.9 59.6,61 59.4,61 59.2,61 59.1,61 58.9,61 58.7,61 58.5,61 58.3,61 
			58.1,61 58,60.9 57.8,60.9 57.6,60.9 57.4,60.8 57.3,60.8 57.1,60.7 56.9,60.7 56.8,60.6 56.6,60.6 56.5,60.5 56.3,60.4 
			56.2,60.4 56,60.3 55.9,60.2 55.8,60.1 55.7,60 55.6,59.9 55.5,59.8 55.4,59.7 55.3,59.6 55.3,59.5 55.2,59.4 55.2,59.3 
			55.1,59.2 55.1,59.1 		"/>
		<path id="XMLID_100_" class="st8" d="M61.6,57.2c-1.5-0.9-3.9-0.9-5.4,0c-1.5,0.9-1.5,2.3,0,3.1c1.5,0.9,3.9,0.9,5.4,0
			C63.1,59.5,63.1,58.1,61.6,57.2z"/>
		<path id="XMLID_99_" class="st7" d="M56.9,57.3c1.1-0.6,2.8-0.6,3.9,0c1.1,0.6,1.1,1.6,0,2.3c-1.1,0.6-2.8,0.6-3.9,0
			C55.8,58.9,55.8,57.9,56.9,57.3z"/>
		<polygon id="XMLID_98_" class="st9" points="61.6,58.6 61.6,58.8 61.6,58.9 61.6,59 61.6,59.1 61.5,59.1 61.5,59.2 61.4,59.3 
			61.4,59.3 61.3,59.4 61.3,59.5 61.2,59.6 61.1,59.6 61,59.7 60.9,59.7 60.8,59.8 60.7,59.9 60.6,59.9 60.5,60 60.4,60 60.3,60.1 
			60.2,60.1 60,60.1 59.9,60.2 59.8,60.2 59.7,60.2 59.5,60.2 59.4,60.2 59.3,60.3 59.1,60.3 59,60.3 58.9,60.3 58.7,60.3 
			58.6,60.3 58.5,60.3 58.3,60.2 58.2,60.2 58.1,60.2 58,60.2 57.8,60.2 57.7,60.1 57.6,60.1 57.5,60.1 57.3,60 57.2,60 57.1,59.9 
			57,59.9 56.9,59.8 56.8,59.7 56.7,59.7 56.6,59.6 56.6,59.6 56.5,59.5 56.4,59.4 56.4,59.3 56.3,59.3 56.3,59.2 56.2,59.1 
			56.2,59.1 56.1,59 56.1,58.9 56.1,58.8 56.1,58.6 56.1,58.6 56.1,58.7 56.2,58.8 56.2,58.9 56.3,58.9 56.3,59 56.4,59.1 
			56.4,59.1 56.5,59.2 56.6,59.3 56.6,59.4 56.7,59.4 56.8,59.5 56.9,59.5 57,59.6 57.1,59.6 57.2,59.7 57.3,59.7 57.5,59.8 
			57.6,59.8 57.7,59.9 57.8,59.9 58,59.9 58.1,59.9 58.2,60 58.3,60 58.5,60 58.6,60 58.7,60 58.9,60 59,60 59.1,60 59.3,60 
			59.4,60 59.5,60 59.7,59.9 59.8,59.9 59.9,59.9 60,59.9 60.2,59.8 60.3,59.8 60.4,59.7 60.5,59.7 60.6,59.6 60.7,59.6 60.8,59.5 
			60.9,59.5 61,59.4 61.1,59.4 61.2,59.3 61.3,59.2 61.3,59.1 61.4,59.1 61.4,59 61.5,58.9 61.5,58.9 61.6,58.8 61.6,58.7 
			61.6,58.6 		"/>
		<path id="XMLID_97_" class="st10" d="M57,57.3c1.1-0.6,2.8-0.6,3.8,0c1.1,0.6,1.1,1.6,0,2.2c-1.1,0.6-2.8,0.6-3.8,0
			C55.9,58.9,55.9,57.9,57,57.3z"/>
		<path id="XMLID_96_" class="st7" d="M61.5,50.4v8.1l0,0.1l0,0.1l0,0.1l0,0.1l0,0.1l0,0.1L61.3,59L61.2,59l-0.1,0.1l-0.1,0.1
			L61,59.2l-0.1,0.1l-0.1,0.1l-0.1,0.1l-0.1,0.1l-0.1,0.1l-0.1,0.1l-0.1,0l-0.1,0l-0.1,0l-0.1,0l-0.1,0l-0.1,0l-0.1,0l-0.1,0l-0.1,0
			l-0.1,0l-0.1,0l-0.1,0h-0.1h-0.1l-0.1,0l-0.1,0l-0.1,0l-0.1,0l-0.1,0l-0.1,0l-0.1,0l-0.1,0l-0.1,0l-0.1,0l-0.1,0l-0.1,0l-0.1-0.1
			l-0.1-0.1L57,59.4l-0.1-0.1l-0.1-0.1l-0.1-0.1l-0.1-0.1l-0.1-0.1L56.5,59L56.4,59l-0.1-0.1l0-0.1l0-0.1l0-0.1l0-0.1l0-0.1l0-0.1
			l0.1-8.1c0.2,0.2,0,0.3,0.6,0.7c0.6,0.5,3.2,0.4,3.9,0C61.5,50.7,61.4,50.6,61.5,50.4z"/>
		<path id="XMLID_95_" class="st10" d="M57,58.7c0,0.2-0.4,0.1-0.4-0.1v-7.8c0.1,0.1,0.2,0.2,0.4,0.2l0.1,0V58.7z"/>
		<path id="XMLID_94_" class="st10" d="M60.8,58.8c0,0.2-0.3,0.2-0.3,0v-7.6c0.1-0.1,0.2-0.1,0.3-0.2l0,0V58.8z"/>
		<path id="XMLID_93_" class="st11" d="M60.5,58.7v-7.5c0.1,0,0.2-0.1,0.2-0.1v7.6C60.7,59,60.5,58.9,60.5,58.7z"/>
		<path id="XMLID_92_" class="st11" d="M61.4,58.3c0,0.1-0.1,0.1-0.1,0v-7.5c0.1-0.1,0.1-0.1,0.1-0.2V58.3z"/>
		<path id="XMLID_91_" class="st10" d="M59.7,59.1c0,0.3-0.5,0.3-0.5,0v-7.6c0.2,0,0.4,0,0.5-0.1V59.1z"/>
		<path id="XMLID_90_" class="st11" d="M59.2,51.5v7.6c0,0.1,0.1,0.2,0.2,0.2c0.1,0,0.2-0.1,0.2-0.2v-7.6
			C59.5,51.5,59.4,51.5,59.2,51.5z"/>
		<path id="XMLID_89_" class="st10" d="M57.8,51.4v7.7c0,0.3,0.5,0.3,0.5,0.1v-7.7C58.1,51.5,57.9,51.4,57.8,51.4z"/>
		<path id="XMLID_88_" class="st11" d="M57,58.7c0,0.2-0.3,0.1-0.3-0.1v-7.7c0.1,0.1,0.1,0.1,0.2,0.2l0.1,0V58.7z"/>
		<path id="XMLID_87_" class="st11" d="M57.8,51.4v7.6c0,0.3,0.4,0.3,0.4,0.1v-7.6C58.1,51.5,58,51.4,57.8,51.4z"/>
		<path id="XMLID_86_" class="st12" d="M57.3,49.2c1.1-0.6,2.5-1,3.6-0.4c1.1,0.6,1.1,1.6,0,2.3c-1.1,0.6-2.8,0.6-3.9,0
			C55.8,50.4,56.2,49.8,57.3,49.2z"/>
		<polygon id="XMLID_85_" class="st7" points="28.4,64.4 28.4,65.4 28.5,65.5 28.5,65.6 28.5,65.7 28.6,65.8 28.6,65.9 28.7,66 
			28.8,66.1 28.9,66.2 28.9,66.3 29,66.4 29.2,66.5 29.3,66.5 29.4,66.6 29.5,66.7 29.7,66.8 29.8,66.9 30,66.9 30.1,67 30.3,67.1 
			30.5,67.1 30.6,67.2 30.8,67.2 31,67.2 31.1,67.3 31.3,67.3 31.5,67.3 31.7,67.3 31.9,67.3 32,67.4 32.2,67.4 32.4,67.4 
			32.6,67.3 32.8,67.3 33,67.3 33.1,67.3 33.3,67.3 33.5,67.2 33.7,67.2 33.8,67.2 34,67.1 34.2,67.1 34.3,67 34.5,66.9 34.6,66.9 
			34.8,66.8 34.9,66.7 35.1,66.6 35.2,66.5 35.3,66.5 35.4,66.4 35.5,66.3 35.6,66.2 35.7,66.1 35.8,66 35.8,65.9 35.9,65.8 
			35.9,65.7 36,65.6 36,65.5 36,65.4 36,64.4 36,64.5 36,64.6 35.9,64.7 35.9,64.8 35.8,64.9 35.8,65 35.7,65.1 35.6,65.2 
			35.5,65.3 35.4,65.4 35.3,65.5 35.2,65.6 35.1,65.7 34.9,65.7 34.8,65.8 34.6,65.9 34.5,66 34.3,66 34.2,66.1 34,66.1 33.8,66.2 
			33.7,66.2 33.5,66.3 33.3,66.3 33.1,66.3 33,66.3 32.8,66.4 32.6,66.4 32.4,66.4 32.2,66.4 32,66.4 31.9,66.4 31.7,66.4 
			31.5,66.3 31.3,66.3 31.1,66.3 31,66.3 30.8,66.2 30.6,66.2 30.5,66.1 30.3,66.1 30.1,66 30,66 29.8,65.9 29.7,65.8 29.5,65.7 
			29.4,65.7 29.3,65.6 29.2,65.5 29,65.4 28.9,65.3 28.9,65.2 28.8,65.1 28.7,65 28.6,64.9 28.6,64.8 28.5,64.7 28.5,64.6 
			28.5,64.5 		"/>
		<path id="XMLID_84_" class="st8" d="M34.9,62.6c-1.5-0.9-3.9-0.9-5.4,0c-1.5,0.9-1.5,2.3,0,3.1c1.5,0.9,3.9,0.9,5.4,0
			C36.4,64.9,36.4,63.5,34.9,62.6z"/>
		<path id="XMLID_83_" class="st7" d="M30.3,62.7c1.1-0.6,2.8-0.6,3.9,0c1.1,0.6,1.1,1.6,0,2.3c-1.1,0.6-2.8,0.6-3.9,0
			C29.2,64.3,29.2,63.3,30.3,62.7z"/>
		<polygon id="XMLID_82_" class="st9" points="35,63.9 35,64.2 35,64.3 35,64.4 34.9,64.4 34.9,64.5 34.8,64.6 34.8,64.7 34.7,64.7 
			34.7,64.8 34.6,64.9 34.5,64.9 34.5,65 34.4,65.1 34.3,65.1 34.2,65.2 34.1,65.3 34,65.3 33.9,65.4 33.8,65.4 33.6,65.4 
			33.5,65.5 33.4,65.5 33.3,65.6 33.2,65.6 33,65.6 32.9,65.6 32.8,65.6 32.6,65.7 32.5,65.7 32.4,65.7 32.2,65.7 32.1,65.7 
			32,65.7 31.8,65.7 31.7,65.6 31.6,65.6 31.4,65.6 31.3,65.6 31.2,65.6 31.1,65.5 30.9,65.5 30.8,65.4 30.7,65.4 30.6,65.4 
			30.5,65.3 30.4,65.3 30.3,65.2 30.2,65.1 30.1,65.1 30,65 29.9,64.9 29.8,64.9 29.8,64.8 29.7,64.7 29.7,64.7 29.6,64.6 
			29.6,64.5 29.5,64.4 29.5,64.4 29.5,64.3 29.5,64.2 29.5,63.9 29.5,64 29.5,64.1 29.5,64.2 29.6,64.3 29.6,64.3 29.7,64.4 
			29.7,64.5 29.8,64.5 29.8,64.6 29.9,64.7 30,64.7 30.1,64.8 30.2,64.9 30.3,64.9 30.4,65 30.5,65 30.6,65.1 30.7,65.1 30.8,65.2 
			30.9,65.2 31.1,65.2 31.2,65.3 31.3,65.3 31.4,65.3 31.6,65.4 31.7,65.4 31.8,65.4 32,65.4 32.1,65.4 32.2,65.4 32.4,65.4 
			32.5,65.4 32.6,65.4 32.8,65.4 32.9,65.3 33,65.3 33.2,65.3 33.3,65.3 33.4,65.2 33.5,65.2 33.6,65.2 33.8,65.1 33.9,65.1 34,65 
			34.1,65 34.2,64.9 34.3,64.9 34.4,64.8 34.5,64.7 34.5,64.7 34.6,64.6 34.7,64.5 34.7,64.5 34.8,64.4 34.8,64.3 34.9,64.3 
			34.9,64.2 35,64.1 35,64 		"/>
		<path id="XMLID_81_" class="st10" d="M30.3,62.7c1.1-0.6,2.8-0.6,3.8,0c1.1,0.6,1.1,1.6,0,2.2c-1.1,0.6-2.8,0.6-3.8,0
			C29.2,64.3,29.2,63.3,30.3,62.7z"/>
		<path id="XMLID_80_" class="st7" d="M34.9,58.3v5.6l0,0.1l0,0.1l0,0.1l0,0.1l0,0.1l0,0.1l-0.1,0.1l-0.1,0.1l-0.1,0.1l-0.1,0.1
			l-0.1,0.1l-0.1,0.1l-0.1,0.1l-0.1,0.1L34,64.9l-0.1,0.1L33.8,65l-0.1,0l-0.1,0l-0.1,0l-0.1,0l-0.1,0l-0.1,0l-0.1,0l-0.1,0l-0.1,0
			l-0.1,0l-0.1,0l-0.1,0h-0.1h-0.1l-0.1,0l-0.1,0l-0.1,0l-0.1,0l-0.1,0l-0.1,0l-0.1,0l-0.1,0l-0.1,0l-0.1,0l-0.1,0l-0.1,0l-0.1-0.1
			l-0.1-0.1l-0.1-0.1l-0.1-0.1l-0.1-0.1L30,64.6L30,64.6l-0.1-0.1l-0.1-0.1l-0.1-0.1l-0.1-0.1l0-0.1l0-0.1l0-0.1l0-0.1l0-0.1l0-0.1
			v-5.7c0.1,0.3,0.4,0.5,0.7,0.7c1.1,0.6,2.8,0.6,3.9,0C34.5,58.7,34.8,58.5,34.9,58.3z"/>
		<g>
			<path id="XMLID_79_" class="st10" d="M30.3,64.1c0,0.2-0.4,0.1-0.4-0.1v-5.3c0.1,0.1,0.2,0.2,0.4,0.2l0.1,0V64.1z"/>
			<path id="XMLID_78_" class="st10" d="M34.2,64.2c0,0.2-0.3,0.2-0.3,0v-5.1c0.1,0,0.2-0.1,0.3-0.2l0,0V64.2z"/>
			<path id="XMLID_77_" class="st11" d="M33.9,64.1v-5c0.1,0,0.2-0.1,0.2-0.1v5.2C34.1,64.4,33.9,64.3,33.9,64.1z"/>
			<path id="XMLID_76_" class="st11" d="M34.8,63.7c0,0.1-0.1,0.1-0.1,0v-5.1c0.1-0.1,0.1-0.1,0.1-0.2V63.7z"/>
			<path id="XMLID_75_" class="st10" d="M33.1,64.5c0,0.3-0.5,0.3-0.5,0v-5.1c0.2,0,0.4,0,0.5-0.1V64.5z"/>
			<path id="XMLID_74_" class="st11" d="M32.6,59.4v5.1c0,0.1,0.1,0.2,0.2,0.2c0.1,0,0.2-0.1,0.2-0.2v-5.2
				C32.9,59.4,32.7,59.4,32.6,59.4z"/>
			<path id="XMLID_73_" class="st10" d="M31.1,59.3v5.2c0,0.3,0.5,0.3,0.5,0.1v-5.2C31.4,59.3,31.3,59.3,31.1,59.3z"/>
			<path id="XMLID_72_" class="st11" d="M30.3,64.1c0,0.2-0.3,0.1-0.3-0.1v-5.2c0.1,0.1,0.1,0.1,0.2,0.2l0.1,0V64.1z"/>
			<path id="XMLID_71_" class="st11" d="M31.2,59.3v5.2c0,0.3,0.4,0.3,0.4,0.1v-5.1C31.5,59.3,31.3,59.3,31.2,59.3z"/>
		</g>
		<path id="XMLID_70_" class="st12" d="M30.4,57.3c1.1-0.6,2.8-1.3,3.8-0.7c1.1,0.6,1.1,1.6,0,2.3c-1.1,0.6-2.8,0.6-3.9,0
			C29.2,58.3,29.3,58,30.4,57.3z"/>
		<polygon id="XMLID_69_" class="st7" points="37.2,59.2 37.2,60.1 37.2,60.2 37.2,60.3 37.3,60.4 37.3,60.6 37.4,60.7 37.4,60.8 
			37.5,60.9 37.6,60.9 37.7,61 37.8,61.1 37.9,61.2 38,61.3 38.1,61.4 38.3,61.5 38.4,61.6 38.6,61.6 38.7,61.7 38.9,61.8 39,61.8 
			39.2,61.9 39.4,61.9 39.5,62 39.7,62 39.9,62 40.1,62.1 40.2,62.1 40.4,62.1 40.6,62.1 40.8,62.1 41,62.1 41.1,62.1 41.3,62.1 
			41.5,62.1 41.7,62.1 41.9,62.1 42,62 42.2,62 42.4,62 42.6,61.9 42.7,61.9 42.9,61.8 43.1,61.8 43.2,61.7 43.4,61.6 43.5,61.6 
			43.7,61.5 43.8,61.4 43.9,61.3 44,61.2 44.1,61.1 44.2,61 44.3,60.9 44.4,60.9 44.5,60.8 44.6,60.7 44.6,60.6 44.7,60.4 
			44.7,60.3 44.7,60.2 44.8,60.1 44.8,59.2 44.7,59.3 44.7,59.4 44.7,59.5 44.6,59.6 44.6,59.7 44.5,59.8 44.4,59.9 44.3,60 
			44.2,60.1 44.1,60.2 44,60.3 43.9,60.3 43.8,60.4 43.7,60.5 43.5,60.6 43.4,60.7 43.2,60.7 43.1,60.8 42.9,60.9 42.7,60.9 
			42.6,61 42.4,61 42.2,61 42,61.1 41.9,61.1 41.7,61.1 41.5,61.1 41.3,61.1 41.1,61.2 41,61.2 40.8,61.2 40.6,61.1 40.4,61.1 
			40.2,61.1 40.1,61.1 39.9,61.1 39.7,61 39.5,61 39.4,61 39.2,60.9 39,60.9 38.9,60.8 38.7,60.7 38.6,60.7 38.4,60.6 38.3,60.5 
			38.1,60.4 38,60.3 37.9,60.3 37.8,60.2 37.7,60.1 37.6,60 37.5,59.9 37.4,59.8 37.4,59.7 37.3,59.6 37.3,59.5 37.2,59.4 
			37.2,59.3 		"/>
		<path id="XMLID_68_" class="st8" d="M43.7,57.4c-1.5-0.9-3.9-0.9-5.4,0c-1.5,0.9-1.5,2.3,0,3.1c1.5,0.9,3.9,0.9,5.4,0
			C45.1,59.7,45.1,58.3,43.7,57.4z"/>
		<path id="XMLID_67_" class="st7" d="M39,57.4c1.1-0.6,2.8-0.6,3.9,0c1.1,0.6,1.1,1.6,0,2.3c-1.1,0.6-2.8,0.6-3.9,0
			C37.9,59.1,37.9,58.1,39,57.4z"/>
		<polygon id="XMLID_66_" class="st9" points="43.7,58.7 43.7,59 43.7,59.1 43.7,59.1 43.7,59.2 43.6,59.3 43.6,59.4 43.5,59.4 
			43.5,59.5 43.4,59.6 43.4,59.6 43.3,59.7 43.2,59.8 43.1,59.8 43,59.9 42.9,60 42.8,60 42.7,60.1 42.6,60.1 42.5,60.2 42.4,60.2 
			42.3,60.3 42.1,60.3 42,60.3 41.9,60.3 41.8,60.4 41.6,60.4 41.5,60.4 41.4,60.4 41.2,60.4 41.1,60.4 41,60.4 40.8,60.4 
			40.7,60.4 40.6,60.4 40.4,60.4 40.3,60.4 40.2,60.4 40,60.3 39.9,60.3 39.8,60.3 39.7,60.3 39.6,60.2 39.4,60.2 39.3,60.1 
			39.2,60.1 39.1,60 39,60 38.9,59.9 38.8,59.8 38.7,59.8 38.6,59.7 38.6,59.6 38.5,59.6 38.4,59.5 38.4,59.4 38.3,59.4 38.3,59.3 
			38.3,59.2 38.2,59.1 38.2,59.1 38.2,59 38.2,58.7 38.2,58.8 38.2,58.9 38.3,58.9 38.3,59 38.3,59.1 38.4,59.2 38.4,59.2 
			38.5,59.3 38.6,59.4 38.6,59.4 38.7,59.5 38.8,59.6 38.9,59.6 39,59.7 39.1,59.8 39.2,59.8 39.3,59.9 39.4,59.9 39.6,59.9 
			39.7,60 39.8,60 39.9,60 40,60.1 40.2,60.1 40.3,60.1 40.4,60.1 40.6,60.1 40.7,60.2 40.8,60.2 41,60.2 41.1,60.2 41.2,60.2 
			41.4,60.1 41.5,60.1 41.6,60.1 41.8,60.1 41.9,60.1 42,60 42.1,60 42.3,60 42.4,59.9 42.5,59.9 42.6,59.9 42.7,59.8 42.8,59.8 
			42.9,59.7 43,59.6 43.1,59.6 43.2,59.5 43.3,59.4 43.4,59.4 43.4,59.3 43.5,59.2 43.5,59.2 43.6,59.1 43.6,59 43.7,58.9 
			43.7,58.9 43.7,58.8 		"/>
		<path id="XMLID_65_" class="st10" d="M39,57.5c1.1-0.6,2.8-0.6,3.8,0c1.1,0.6,1.1,1.6,0,2.2c-1.1,0.6-2.8,0.6-3.8,0
			S38,58.1,39,57.5z"/>
		<path id="XMLID_64_" class="st7" d="M43.6,50.8v7.9l0,0.1l0,0.1l0,0.1l0,0.1l0,0.1l0,0.1l-0.1,0.1l-0.1,0.1l-0.1,0.1l-0.1,0.1
			l-0.1,0.1L43,59.5l-0.1,0.1l-0.1,0.1l-0.1,0.1l-0.1,0.1l-0.1,0.1l-0.1,0l-0.1,0l-0.1,0l-0.1,0l-0.1,0l-0.1,0l-0.1,0l-0.1,0l-0.1,0
			l-0.1,0l-0.1,0l-0.1,0h-0.1h-0.1l-0.1,0l-0.1,0l-0.1,0l-0.1,0l-0.1,0l-0.1,0l-0.1,0l-0.1,0l-0.1,0l-0.1,0l-0.1,0l-0.1,0l-0.1-0.1
			l-0.1-0.1L39,59.6l-0.1-0.1l-0.1-0.1l-0.1-0.1l-0.1-0.1l-0.1-0.1l-0.1-0.1l-0.1-0.1l-0.1-0.1l0-0.1l0-0.1l0-0.1l0-0.1l0-0.1l0-0.1
			v-8c0.1,0.3,0,0.3,0.7,0.7c0.7,0.4,3.2,0.4,3.9,0C43.6,51,43.5,51,43.6,50.8z"/>
		<path id="XMLID_63_" class="st10" d="M39,58.9c0,0.2-0.4,0.1-0.4-0.1v-7.6c0.1,0.1,0.2,0.2,0.4,0.2l0,0V58.9z"/>
		<path id="XMLID_62_" class="st10" d="M42.9,59c0,0.2-0.3,0.2-0.3,0v-7.3c0.1,0,0.2-0.1,0.3-0.2l0,0V59z"/>
		<path id="XMLID_61_" class="st11" d="M42.6,58.9v-7.3c0.1,0,0.2-0.1,0.2-0.1v7.4C42.8,59.1,42.6,59.1,42.6,58.9z"/>
		<path id="XMLID_60_" class="st11" d="M43.5,58.5c0,0.1-0.1,0.1-0.1,0v-7.3c0.1-0.1,0.1-0.1,0.1-0.2V58.5z"/>
		<path id="XMLID_59_" class="st10" d="M41.8,59.3c0,0.3-0.5,0.3-0.5,0v-7.4c0.2,0,0.4,0,0.5-0.1V59.3z"/>
		<path id="XMLID_58_" class="st11" d="M41.3,51.9v7.4c0,0.1,0.1,0.2,0.2,0.2c0.1,0,0.2-0.1,0.2-0.2v-7.4
			C41.6,51.9,41.5,51.9,41.3,51.9z"/>
		<path id="XMLID_57_" class="st10" d="M39.9,51.8v7.5c0,0.3,0.5,0.3,0.5,0.1v-7.5C40.2,51.8,40,51.8,39.9,51.8z"/>
		<path id="XMLID_56_" class="st11" d="M39,58.9c0,0.2-0.3,0.1-0.3-0.1v-7.5c0.1,0.1,0.2,0.1,0.2,0.2l0,0V58.9z"/>
		<path id="XMLID_55_" class="st11" d="M39.9,51.8v7.4c0,0.3,0.4,0.3,0.4,0.1v-7.4C40.2,51.8,40.1,51.8,39.9,51.8z"/>
		<path id="XMLID_54_" class="st12" d="M39,49.2c1.1-0.6,2.4-0.3,3.5,0.3c1.1,0.6,1.7,1.3,0.6,1.9C42,52,40,52.2,39,51.6
			C37.9,51,37.9,49.8,39,49.2z"/>
		<polygon id="XMLID_53_" class="st7" points="37.3,69.4 37.3,70.4 37.3,70.5 37.4,70.6 37.4,70.7 37.5,70.8 37.5,70.9 37.6,71 
			37.6,71.1 37.7,71.2 37.8,71.3 37.9,71.4 38,71.5 38.1,71.6 38.3,71.7 38.4,71.7 38.6,71.8 38.7,71.9 38.8,72 39,72 39.2,72.1 
			39.3,72.1 39.5,72.2 39.7,72.2 39.8,72.3 40,72.3 40.2,72.3 40.4,72.3 40.6,72.4 40.7,72.4 40.9,72.4 41.1,72.4 41.3,72.4 
			41.5,72.4 41.7,72.4 41.8,72.3 42,72.3 42.2,72.3 42.4,72.3 42.5,72.2 42.7,72.2 42.9,72.1 43,72.1 43.2,72 43.4,72 43.5,71.9 
			43.7,71.8 43.8,71.7 43.9,71.7 44.1,71.6 44.2,71.5 44.3,71.4 44.4,71.3 44.5,71.2 44.6,71.1 44.6,71 44.7,70.9 44.8,70.8 
			44.8,70.7 44.8,70.6 44.9,70.5 44.9,70.4 44.9,69.4 44.9,69.5 44.8,69.6 44.8,69.7 44.8,69.8 44.7,69.9 44.6,70 44.6,70.1 
			44.5,70.2 44.4,70.3 44.3,70.4 44.2,70.5 44.1,70.6 43.9,70.7 43.8,70.8 43.7,70.9 43.5,70.9 43.4,71 43.2,71.1 43,71.1 
			42.9,71.2 42.7,71.2 42.5,71.3 42.4,71.3 42.2,71.3 42,71.4 41.8,71.4 41.7,71.4 41.5,71.4 41.3,71.4 41.1,71.4 40.9,71.4 
			40.7,71.4 40.6,71.4 40.4,71.4 40.2,71.4 40,71.3 39.8,71.3 39.7,71.3 39.5,71.2 39.3,71.2 39.2,71.1 39,71.1 38.8,71 38.7,70.9 
			38.6,70.9 38.4,70.8 38.3,70.7 38.1,70.6 38,70.5 37.9,70.4 37.8,70.3 37.7,70.2 37.6,70.1 37.6,70 37.5,69.9 37.5,69.8 
			37.4,69.7 37.4,69.6 37.3,69.5 		"/>
		<path id="XMLID_52_" class="st8" d="M43.8,67.7c-1.5-0.9-3.9-0.9-5.4,0c-1.5,0.9-1.5,2.3,0,3.1c1.5,0.9,3.9,0.9,5.4,0
			C45.3,69.9,45.3,68.5,43.8,67.7z"/>
		<path id="XMLID_51_" class="st7" d="M39.1,67.7c1.1-0.6,2.8-0.6,3.9,0c1.1,0.6,1.1,1.6,0,2.3c-1.1,0.6-2.8,0.6-3.9,0
			C38.1,69.3,38.1,68.3,39.1,67.7z"/>
		<polygon id="XMLID_50_" class="st9" points="43.9,69 43.9,69.3 43.9,69.3 43.8,69.4 43.8,69.5 43.8,69.6 43.7,69.6 43.7,69.7 
			43.6,69.8 43.6,69.8 43.5,69.9 43.4,70 43.3,70 43.3,70.1 43.2,70.2 43.1,70.2 43,70.3 42.9,70.3 42.7,70.4 42.6,70.4 42.5,70.5 
			42.4,70.5 42.3,70.6 42.1,70.6 42,70.6 41.9,70.6 41.8,70.7 41.6,70.7 41.5,70.7 41.4,70.7 41.2,70.7 41.1,70.7 41,70.7 
			40.8,70.7 40.7,70.7 40.6,70.7 40.4,70.7 40.3,70.6 40.2,70.6 40.1,70.6 39.9,70.6 39.8,70.5 39.7,70.5 39.6,70.4 39.5,70.4 
			39.4,70.3 39.2,70.3 39.1,70.2 39,70.2 39,70.1 38.9,70 38.8,70 38.7,69.9 38.6,69.8 38.6,69.8 38.5,69.7 38.5,69.6 38.4,69.6 
			38.4,69.5 38.4,69.4 38.4,69.3 38.3,69.3 38.3,69 38.4,69.1 38.4,69.1 38.4,69.2 38.4,69.3 38.5,69.4 38.5,69.4 38.6,69.5 
			38.6,69.6 38.7,69.6 38.8,69.7 38.9,69.8 39,69.8 39,69.9 39.1,70 39.2,70 39.4,70.1 39.5,70.1 39.6,70.2 39.7,70.2 39.8,70.2 
			39.9,70.3 40.1,70.3 40.2,70.3 40.3,70.4 40.4,70.4 40.6,70.4 40.7,70.4 40.8,70.4 41,70.4 41.1,70.4 41.2,70.4 41.4,70.4 
			41.5,70.4 41.6,70.4 41.8,70.4 41.9,70.4 42,70.3 42.1,70.3 42.3,70.3 42.4,70.2 42.5,70.2 42.6,70.2 42.7,70.1 42.9,70.1 43,70 
			43.1,70 43.2,69.9 43.3,69.8 43.3,69.8 43.4,69.7 43.5,69.6 43.6,69.6 43.6,69.5 43.7,69.4 43.7,69.4 43.8,69.3 43.8,69.2 
			43.8,69.1 43.9,69.1 		"/>
		<path id="XMLID_49_" class="st10" d="M39.2,67.7c1.1-0.6,2.8-0.6,3.8,0c1.1,0.6,1.1,1.6,0,2.2c-1.1,0.6-2.8,0.6-3.8,0
			C38.1,69.3,38.1,68.3,39.2,67.7z"/>
		<path id="XMLID_48_" class="st7" d="M43.8,67.5v1.4l0,0.1l0,0.1l0,0.1l0,0.1l0,0.1l0,0.1l-0.1,0.1l-0.1,0.1l-0.1,0.1l-0.1,0.1
			l-0.1,0.1l-0.1,0.1l-0.1,0.1L43,69.9l-0.1,0.1L42.8,70l-0.1,0l-0.1,0l-0.1,0l-0.1,0l-0.1,0l-0.1,0l-0.1,0l-0.1,0l-0.1,0l-0.1,0
			l-0.1,0l-0.1,0l-0.1,0l-0.1,0l-0.1,0l-0.1,0l-0.1,0l-0.1,0l-0.1,0l-0.1,0l-0.1,0l-0.1,0l-0.1,0l-0.1,0l-0.1,0l-0.1,0l-0.1,0
			l-0.1,0l-0.1-0.1l-0.1-0.1l-0.1-0.1L39,69.7l-0.1-0.1l-0.1-0.1l-0.1-0.1l-0.1-0.1l-0.1-0.1l-0.1-0.1l0-0.1l0-0.1l0-0.1l0-0.1
			l0-0.1l0-0.1l0-1.2l0.7,0.4c0.7,0.4,3.2,0.4,3.9,0C43.8,67.8,43.6,67.7,43.8,67.5z"/>
		<path id="XMLID_47_" class="st10" d="M39.2,69.2c0,0.2-0.4,0.1-0.4-0.1v-1.1c0.1,0.1,0.2,0.2,0.4,0.2l0,0V69.2z"/>
		<path id="XMLID_46_" class="st10" d="M43.1,69.2c0,0.2-0.3,0.2-0.3,0v-0.9c0.1,0,0.2-0.1,0.3-0.2l0,0V69.2z"/>
		<path id="XMLID_45_" class="st11" d="M42.7,69.2v-0.8c0.1,0,0.2-0.1,0.2-0.1v1C43,69.4,42.7,69.3,42.7,69.2z"/>
		<path id="XMLID_44_" class="st11" d="M43.7,68.7c0,0.1-0.1,0.1-0.1,0v-0.9c0.1-0.1,0.1-0.1,0.1-0.2V68.7z"/>
		<path id="XMLID_43_" class="st10" d="M42,69.6c0,0.3-0.5,0.3-0.5,0v-0.9c0.2,0,0.4,0,0.5-0.1V69.6z"/>
		<path id="XMLID_42_" class="st11" d="M41.4,68.6v0.9c0,0.1,0.1,0.2,0.2,0.2c0.1,0,0.2-0.1,0.2-0.2v-1
			C41.8,68.6,41.6,68.6,41.4,68.6z"/>
		<path id="XMLID_41_" class="st10" d="M40,68.5v1c0,0.3,0.5,0.3,0.5,0.1v-1C40.3,68.6,40.1,68.5,40,68.5z"/>
		<path id="XMLID_40_" class="st11" d="M39.2,69.1c0,0.2-0.3,0.1-0.3-0.1v-1c0.1,0.1,0.1,0.1,0.2,0.2l0,0V69.1z"/>
		<path id="XMLID_39_" class="st11" d="M40.1,68.5v1c0,0.3,0.4,0.3,0.4,0.1v-0.9C40.3,68.6,40.2,68.5,40.1,68.5z"/>
		<path id="XMLID_38_" class="st12" d="M39.2,66.7c1-0.7,2.6-1.2,3.7-0.7c1.1,0.5,1.3,1.5,0.2,2.3c-1,0.7-2.8,0.9-3.9,0.4
			C38.1,68.2,38.2,67.4,39.2,66.7z"/>
		<polygon id="XMLID_37_" class="st7" points="63.7,64.3 63.7,65.2 63.7,65.3 63.8,65.4 63.8,65.5 63.8,65.6 63.9,65.7 64,65.8 
			64,65.9 64.1,66 64.2,66.1 64.3,66.2 64.4,66.3 64.5,66.4 64.7,66.5 64.8,66.6 64.9,66.6 65.1,66.7 65.2,66.8 65.4,66.8 
			65.6,66.9 65.7,67 65.9,67 66.1,67 66.2,67.1 66.4,67.1 66.6,67.1 66.8,67.2 67,67.2 67.1,67.2 67.3,67.2 67.5,67.2 67.7,67.2 
			67.9,67.2 68,67.2 68.2,67.2 68.4,67.1 68.6,67.1 68.8,67.1 68.9,67 69.1,67 69.3,67 69.4,66.9 69.6,66.8 69.8,66.8 69.9,66.7 
			70,66.6 70.2,66.6 70.3,66.5 70.5,66.4 70.6,66.3 70.7,66.2 70.8,66.1 70.9,66 71,65.9 71,65.8 71.1,65.7 71.2,65.6 71.2,65.5 
			71.2,65.4 71.3,65.3 71.3,65.2 71.3,64.3 71.3,64.4 71.2,64.5 71.2,64.6 71.2,64.7 71.1,64.8 71,64.9 71,65 70.9,65.1 70.8,65.2 
			70.7,65.2 70.6,65.3 70.5,65.4 70.3,65.5 70.2,65.6 70,65.7 69.9,65.7 69.8,65.8 69.6,65.9 69.4,65.9 69.3,66 69.1,66 68.9,66.1 
			68.8,66.1 68.6,66.1 68.4,66.2 68.2,66.2 68,66.2 67.9,66.2 67.7,66.2 67.5,66.2 67.3,66.2 67.1,66.2 67,66.2 66.8,66.2 
			66.6,66.2 66.4,66.1 66.2,66.1 66.1,66.1 65.9,66 65.7,66 65.6,65.9 65.4,65.9 65.2,65.8 65.1,65.7 64.9,65.7 64.8,65.6 
			64.7,65.5 64.5,65.4 64.4,65.3 64.3,65.2 64.2,65.2 64.1,65.1 64,65 64,64.9 63.9,64.8 63.8,64.7 63.8,64.6 63.8,64.5 63.7,64.4 
					"/>
		<path id="XMLID_36_" class="st8" d="M70.2,62.5c-1.5-0.9-3.9-0.9-5.4,0c-1.5,0.9-1.5,2.3,0,3.1c1.5,0.9,3.9,0.9,5.4,0
			C71.7,64.7,71.7,63.3,70.2,62.5z"/>
		<path id="XMLID_35_" class="st7" d="M65.5,62.5c1.1-0.6,2.8-0.6,3.9,0c1.1,0.6,1.1,1.6,0,2.3c-1.1,0.6-2.8,0.6-3.9,0
			C64.5,64.2,64.5,63.1,65.5,62.5z"/>
		<polygon id="XMLID_34_" class="st9" points="70.3,63.8 70.3,64.1 70.2,64.1 70.2,64.2 70.2,64.3 70.2,64.4 70.1,64.4 70.1,64.5 
			70,64.6 70,64.7 69.9,64.7 69.8,64.8 69.7,64.9 69.7,64.9 69.6,65 69.5,65.1 69.4,65.1 69.2,65.2 69.1,65.2 69,65.3 68.9,65.3 
			68.8,65.3 68.7,65.4 68.5,65.4 68.4,65.4 68.3,65.5 68.2,65.5 68,65.5 67.9,65.5 67.8,65.5 67.6,65.5 67.5,65.5 67.4,65.5 
			67.2,65.5 67.1,65.5 67,65.5 66.8,65.5 66.7,65.5 66.6,65.4 66.5,65.4 66.3,65.4 66.2,65.3 66.1,65.3 66,65.3 65.9,65.2 
			65.7,65.2 65.6,65.1 65.5,65.1 65.4,65 65.3,64.9 65.3,64.9 65.2,64.8 65.1,64.7 65,64.7 65,64.6 64.9,64.5 64.9,64.4 64.8,64.4 
			64.8,64.3 64.8,64.2 64.8,64.1 64.7,64.1 64.7,63.8 64.8,63.9 64.8,64 64.8,64 64.8,64.1 64.9,64.2 64.9,64.2 65,64.3 65,64.4 
			65.1,64.5 65.2,64.5 65.3,64.6 65.3,64.7 65.4,64.7 65.5,64.8 65.6,64.8 65.7,64.9 65.9,64.9 66,65 66.1,65 66.2,65.1 66.3,65.1 
			66.5,65.1 66.6,65.2 66.7,65.2 66.8,65.2 67,65.2 67.1,65.2 67.2,65.2 67.4,65.2 67.5,65.2 67.6,65.2 67.8,65.2 67.9,65.2 
			68,65.2 68.2,65.2 68.3,65.2 68.4,65.2 68.5,65.1 68.7,65.1 68.8,65.1 68.9,65 69,65 69.1,64.9 69.2,64.9 69.4,64.8 69.5,64.8 
			69.6,64.7 69.7,64.7 69.7,64.6 69.8,64.5 69.9,64.5 70,64.4 70,64.3 70.1,64.2 70.1,64.2 70.2,64.1 70.2,64 70.2,64 70.2,63.9 		
			"/>
		<path id="XMLID_33_" class="st10" d="M65.6,62.5c1.1-0.6,2.8-0.6,3.8,0c1.1,0.6,1.1,1.6,0,2.2c-1.1,0.6-2.8,0.6-3.8,0
			C64.5,64.1,64.5,63.1,65.6,62.5z"/>
		<path id="XMLID_32_" class="st7" d="M70.2,58.1v5.6l0,0.1l0,0.1l0,0.1l0,0.1l0,0.1l0,0.1l0,0.1l-0.1,0.1l-0.1,0.1l-0.1,0.1
			l-0.1,0.1l-0.1,0.1l-0.1,0.1l-0.1,0.1l-0.1,0.1l-0.1,0.1l-0.1,0l-0.1,0l-0.1,0l-0.1,0l-0.1,0l-0.1,0l-0.1,0l-0.1,0l-0.1,0l-0.1,0
			l-0.1,0l-0.1,0l-0.1,0l-0.1,0l-0.1,0l-0.1,0l-0.1,0l-0.1,0l-0.1,0l-0.1,0l-0.1,0l-0.1,0l-0.1,0l-0.1,0l-0.1,0l-0.1,0l-0.1,0
			l-0.1,0l-0.1-0.1l-0.1-0.1l-0.1-0.1l-0.1-0.1l-0.1-0.1l-0.1-0.1l-0.1-0.1l-0.1-0.1L65,64.2L65,64.2l0-0.1l0-0.1l0-0.1l0-0.1l0-0.1
			l0-0.1V58c0.1,0.3,0.4,0.5,0.7,0.7c1.1,0.6,2.8,0.6,3.9,0C69.8,58.6,70,58.4,70.2,58.1z"/>
		<path id="XMLID_31_" class="st10" d="M65.6,64c0,0.2-0.4,0.1-0.4-0.1v-5.3c0.1,0.1,0.2,0.2,0.4,0.2l0,0V64z"/>
		<path id="XMLID_30_" class="st10" d="M69.5,64c0,0.2-0.3,0.2-0.3,0V59c0.1-0.1,0.2-0.1,0.3-0.2l0,0V64z"/>
		<path id="XMLID_29_" class="st11" d="M69.1,64v-5c0.1,0,0.2-0.1,0.2-0.1V64C69.4,64.2,69.1,64.2,69.1,64z"/>
		<path id="XMLID_28_" class="st11" d="M70,63.5c0,0.1-0.1,0.1-0.1,0v-5.1c0.1-0.1,0.1-0.1,0.1-0.2V63.5z"/>
		<path id="XMLID_27_" class="st10" d="M68.4,64.4c0,0.3-0.5,0.3-0.5,0v-5.1c0.2,0,0.4,0,0.5-0.1V64.4z"/>
		<path id="XMLID_26_" class="st11" d="M67.8,59.2v5.1c0,0.1,0.1,0.2,0.2,0.2c0.1,0,0.2-0.1,0.2-0.2v-5.2
			C68.2,59.2,68,59.2,67.8,59.2z"/>
		<path id="XMLID_25_" class="st10" d="M66.4,59.1v5.2c0,0.3,0.5,0.3,0.5,0.1v-5.2C66.7,59.2,66.5,59.2,66.4,59.1z"/>
		<path id="XMLID_24_" class="st11" d="M65.6,64c0,0.2-0.3,0.1-0.3-0.1v-5.2c0.1,0.1,0.2,0.1,0.2,0.2l0,0V64z"/>
		<path id="XMLID_23_" class="st11" d="M66.5,59.1v5.2c0,0.3,0.4,0.3,0.4,0.1v-5.1C66.7,59.2,66.6,59.2,66.5,59.1z"/>
		<path id="XMLID_22_" class="st12" d="M65.5,56.5c1.3-0.4,3-0.5,3.9,0c0.9,0.5,1.1,1.6,0,2.3c-1.1,0.6-2.8,0.6-3.9,0
			C64.5,58.2,64.2,56.9,65.5,56.5z"/>
		<polygon id="XMLID_21_" class="st7" points="46,74.6 46,75.6 46,75.7 46.1,75.8 46.1,75.9 46.1,76 46.2,76.1 46.3,76.2 46.3,76.3 
			46.4,76.4 46.5,76.5 46.6,76.6 46.7,76.7 46.8,76.8 47,76.9 47.1,76.9 47.2,77 47.4,77.1 47.5,77.2 47.7,77.2 47.9,77.3 48,77.3 
			48.2,77.4 48.4,77.4 48.5,77.5 48.7,77.5 48.9,77.5 49.1,77.5 49.2,77.6 49.4,77.6 49.6,77.6 49.8,77.6 50,77.6 50.2,77.6 
			50.3,77.6 50.5,77.5 50.7,77.5 50.9,77.5 51.1,77.5 51.2,77.4 51.4,77.4 51.6,77.3 51.7,77.3 51.9,77.2 52,77.2 52.2,77.1 
			52.3,77 52.5,76.9 52.6,76.9 52.7,76.8 52.9,76.7 53,76.6 53.1,76.5 53.2,76.4 53.2,76.3 53.3,76.2 53.4,76.1 53.4,76 53.5,75.9 
			53.5,75.8 53.6,75.7 53.6,75.6 53.6,74.6 53.6,74.7 53.5,74.8 53.5,74.9 53.4,75 53.4,75.1 53.3,75.2 53.2,75.3 53.2,75.4 
			53.1,75.5 53,75.6 52.9,75.7 52.7,75.8 52.6,75.9 52.5,76 52.3,76.1 52.2,76.1 52,76.2 51.9,76.3 51.7,76.3 51.6,76.4 51.4,76.4 
			51.2,76.5 51.1,76.5 50.9,76.5 50.7,76.6 50.5,76.6 50.3,76.6 50.2,76.6 50,76.6 49.8,76.6 49.6,76.6 49.4,76.6 49.2,76.6 
			49.1,76.6 48.9,76.6 48.7,76.5 48.5,76.5 48.4,76.5 48.2,76.4 48,76.4 47.9,76.3 47.7,76.3 47.5,76.2 47.4,76.1 47.2,76.1 
			47.1,76 47,75.9 46.8,75.8 46.7,75.7 46.6,75.6 46.5,75.5 46.4,75.4 46.3,75.3 46.3,75.2 46.2,75.1 46.1,75 46.1,74.9 46.1,74.8 
			46,74.7 		"/>
		<path id="XMLID_20_" class="st8" d="M52.5,72.9c-1.5-0.9-3.9-0.9-5.4,0c-1.5,0.9-1.5,2.3,0,3.1c1.5,0.9,3.9,0.9,5.4,0
			C54,75.1,54,73.7,52.5,72.9z"/>
		<path id="XMLID_19_" class="st13" d="M51.8,59.3c-1.1-0.6-2.9-0.6-3.9,0c-1.1,0.6-1.1,1.6,0,2.3c1.1,0.6,2.9,0.6,3.9,0
			C52.9,60.9,52.9,59.9,51.8,59.3z"/>
		<path id="XMLID_18_" class="st7" d="M47.8,72.9c1.1-0.6,2.8-0.6,3.9,0c1.1,0.6,1.1,1.6,0,2.3c-1.1,0.6-2.8,0.6-3.9,0
			C46.7,74.5,46.7,73.5,47.8,72.9z"/>
		<polygon id="XMLID_17_" class="st9" points="52.6,74.2 52.6,74.5 52.5,74.5 52.5,74.6 52.5,74.7 52.5,74.8 52.4,74.8 52.4,74.9 
			52.3,75 52.2,75 52.2,75.1 52.1,75.2 52,75.2 51.9,75.3 51.9,75.4 51.8,75.4 51.6,75.5 51.5,75.5 51.4,75.6 51.3,75.6 51.2,75.7 
			51.1,75.7 51,75.8 50.8,75.8 50.7,75.8 50.6,75.8 50.5,75.9 50.3,75.9 50.2,75.9 50.1,75.9 49.9,75.9 49.8,75.9 49.7,75.9 
			49.5,75.9 49.4,75.9 49.3,75.9 49.1,75.9 49,75.8 48.9,75.8 48.7,75.8 48.6,75.8 48.5,75.7 48.4,75.7 48.3,75.6 48.2,75.6 
			48,75.5 47.9,75.5 47.8,75.4 47.7,75.4 47.6,75.3 47.6,75.2 47.5,75.2 47.4,75.1 47.3,75 47.3,75 47.2,74.9 47.2,74.8 47.1,74.8 
			47.1,74.7 47.1,74.6 47,74.5 47,74.5 47,74.2 47,74.3 47.1,74.3 47.1,74.4 47.1,74.5 47.2,74.6 47.2,74.6 47.3,74.7 47.3,74.8 
			47.4,74.8 47.5,74.9 47.6,75 47.6,75 47.7,75.1 47.8,75.2 47.9,75.2 48,75.3 48.2,75.3 48.3,75.4 48.4,75.4 48.5,75.4 48.6,75.5 
			48.7,75.5 48.9,75.5 49,75.6 49.1,75.6 49.3,75.6 49.4,75.6 49.5,75.6 49.7,75.6 49.8,75.6 49.9,75.6 50.1,75.6 50.2,75.6 
			50.3,75.6 50.5,75.6 50.6,75.6 50.7,75.5 50.8,75.5 51,75.5 51.1,75.4 51.2,75.4 51.3,75.4 51.4,75.3 51.5,75.3 51.6,75.2 
			51.8,75.2 51.9,75.1 51.9,75 52,75 52.1,74.9 52.2,74.8 52.2,74.8 52.3,74.7 52.4,74.6 52.4,74.6 52.5,74.5 52.5,74.4 52.5,74.3 
			52.5,74.3 		"/>
		<path id="XMLID_16_" class="st10" d="M47.9,72.9c1.1-0.6,2.8-0.6,3.8,0c1.1,0.6,1.1,1.6,0,2.2c-1.1,0.6-2.8,0.6-3.8,0
			C46.8,74.5,46.8,73.5,47.9,72.9z"/>
		<polygon id="XMLID_15_" class="st7" points="52.5,61.1 52.5,74.1 52.4,74.2 52.4,74.2 52.4,74.3 52.4,74.4 52.3,74.5 52.3,74.5 
			52.2,74.6 52.2,74.7 52.1,74.7 52,74.8 51.9,74.9 51.9,74.9 51.8,75 51.7,75 51.6,75.1 51.5,75.2 51.4,75.2 51.3,75.2 51.1,75.3 
			51,75.3 50.9,75.4 50.8,75.4 50.7,75.4 50.5,75.4 50.4,75.5 50.3,75.5 50.2,75.5 50,75.5 49.9,75.5 49.8,75.5 49.6,75.5 
			49.5,75.5 49.4,75.5 49.3,75.5 49.1,75.5 49,75.4 48.9,75.4 48.8,75.4 48.6,75.4 48.5,75.3 48.4,75.3 48.3,75.2 48.2,75.2 
			48.1,75.2 48,75.1 47.9,75 47.8,75 47.7,74.9 47.6,74.9 47.5,74.8 47.5,74.7 47.4,74.7 47.3,74.6 47.3,74.5 47.2,74.5 47.2,74.4 
			47.2,74.3 47.1,74.2 47.1,74.2 47.1,74.1 47.1,61.1 47.1,61.1 47.1,61.2 47.2,61.3 47.2,61.4 47.2,61.4 47.3,61.5 47.3,61.6 
			47.4,61.6 47.5,61.7 47.5,61.8 47.6,61.8 47.7,61.9 47.8,62 47.9,62 48,62.1 48.1,62.1 48.2,62.2 48.3,62.2 48.4,62.3 48.5,62.3 
			48.6,62.3 48.8,62.4 48.9,62.4 49,62.4 49.1,62.4 49.3,62.5 49.4,62.5 49.5,62.5 49.6,62.5 49.8,62.5 49.9,62.5 50,62.5 
			50.2,62.5 50.3,62.5 50.4,62.4 50.5,62.4 50.7,62.4 50.8,62.4 50.9,62.3 51,62.3 51.1,62.3 51.3,62.2 51.4,62.2 51.5,62.1 
			51.6,62.1 51.7,62 51.8,62 51.9,61.9 51.9,61.8 52,61.8 52.1,61.7 52.2,61.6 52.2,61.6 52.3,61.5 52.3,61.4 52.4,61.4 52.4,61.3 
			52.4,61.2 52.4,61.1 		"/>
		<path id="XMLID_14_" class="st10" d="M47.9,74.4c0,0.2-0.4,0.1-0.4-0.1c0-1.6,0-9.9,0-11.5c0-0.3,0.4-0.1,0.4,0.1
			C47.9,64.5,47.9,72.7,47.9,74.4z"/>
		<path id="XMLID_13_" class="st10" d="M51.8,74.4c0,0.2-0.3,0.2-0.3,0V63c0-0.2,0.3-0.2,0.3,0V74.4z"/>
		<path id="XMLID_12_" class="st11" d="M51.4,74.4V63c0-0.1,0.1-0.2,0.2-0.2c0,0,0,0.1,0,0.1v11.4C51.7,74.6,51.4,74.5,51.4,74.4z"
			/>
		<path id="XMLID_11_" class="st11" d="M52.3,73.9c0,0.1-0.1,0.1-0.1,0c0-1.3,0-10.1,0-11.5c0-0.1,0.1-0.1,0.1,0
			C52.3,63.7,52.3,72.6,52.3,73.9z"/>
		<path id="XMLID_10_" class="st10" d="M50.7,74.8c0,0.3-0.5,0.3-0.5,0c0-1.9,0-9.5,0-11.4c0-0.3,0.5-0.3,0.5,0
			C50.7,65.3,50.7,72.8,50.7,74.8z"/>
		<path id="XMLID_9_" class="st11" d="M50.6,63.4c0-0.1-0.1-0.2-0.2-0.2c-0.1,0-0.2,0.1-0.2,0.2c0,1.9,0,9.4,0,11.4
			c0,0.1,0.1,0.2,0.2,0.2c0.1,0,0.2-0.1,0.2-0.2C50.6,72.8,50.6,65.3,50.6,63.4z"/>
		<path id="XMLID_8_" class="st10" d="M49.1,63.3c0-0.3-0.5-0.2-0.5,0.1c0,1.9,0,9.5,0,11.4c0,0.3,0.5,0.3,0.5,0.1
			C49.1,72.8,49.1,65.2,49.1,63.3z"/>
		<path id="XMLID_7_" class="st11" d="M47.9,74.3c0,0.2-0.3,0.1-0.3-0.1V62.6c0.1,0,0.3,0.1,0.3,0.2C47.9,64,47.9,73.2,47.9,74.3z"
			/>
		<path id="XMLID_6_" class="st11" d="M49.1,63.3c0-0.2-0.2-0.2-0.3-0.1c0,0,0,0.1,0,0.1c0,1.9,0,9.5,0,11.4c0,0.3,0.4,0.3,0.4,0.1
			C49.1,72.8,49.1,65.2,49.1,63.3z"/>
		<path id="XMLID_5_" class="st7" d="M47.8,60.2c1.1-0.6,2.8-0.6,3.9,0c1.1,0.6,1.1,1.6,0,2.3c-1.1,0.6-2.8,0.6-3.9,0
			C46.7,61.9,46.7,60.9,47.8,60.2z"/>
		<polygon id="XMLID_4_" class="st14" points="46,60.2 46,61.2 46,61.3 46.1,61.4 46.1,61.5 46.1,61.6 46.2,61.7 46.3,61.8 
			46.3,61.9 46.4,62 46.5,62.1 46.6,62.2 46.7,62.3 46.8,62.4 47,62.4 47.1,62.5 47.2,62.6 47.4,62.7 47.5,62.7 47.7,62.8 
			47.9,62.9 48,62.9 48.2,63 48.4,63 48.5,63 48.7,63.1 48.9,63.1 49.1,63.1 49.2,63.1 49.4,63.2 49.6,63.2 49.8,63.2 50,63.2 
			50.2,63.2 50.3,63.1 50.5,63.1 50.7,63.1 50.9,63.1 51.1,63 51.2,63 51.4,63 51.6,62.9 51.7,62.9 51.9,62.8 52,62.7 52.2,62.7 
			52.3,62.6 52.5,62.5 52.6,62.4 52.7,62.4 52.9,62.3 53,62.2 53.1,62.1 53.2,62 53.2,61.9 53.3,61.8 53.4,61.7 53.4,61.6 
			53.5,61.5 53.5,61.4 53.6,61.3 53.6,61.2 53.6,60.2 53.6,60.3 53.5,60.4 53.5,60.5 53.4,60.6 53.4,60.7 53.3,60.8 53.2,60.9 
			53.2,61 53.1,61.1 53,61.2 52.9,61.3 52.7,61.4 52.6,61.5 52.5,61.6 52.3,61.6 52.2,61.7 52,61.8 51.9,61.8 51.7,61.9 51.6,62 
			51.4,62 51.2,62 51.1,62.1 50.9,62.1 50.7,62.1 50.5,62.2 50.3,62.2 50.2,62.2 50,62.2 49.8,62.2 49.6,62.2 49.4,62.2 49.2,62.2 
			49.1,62.2 48.9,62.1 48.7,62.1 48.5,62.1 48.4,62 48.2,62 48,62 47.9,61.9 47.7,61.8 47.5,61.8 47.4,61.7 47.2,61.6 47.1,61.6 
			47,61.5 46.8,61.4 46.7,61.3 46.6,61.2 46.5,61.1 46.4,61 46.3,60.9 46.3,60.8 46.2,60.7 46.1,60.6 46.1,60.5 46.1,60.4 46,60.3 
					"/>
		<path id="XMLID_3_" class="st8" d="M52.5,58.5c-1.5-0.9-3.9-0.9-5.4,0c-1.5,0.9-1.5,2.3,0,3.1c1.5,0.9,3.9,0.9,5.4,0
			C54,60.7,54,59.3,52.5,58.5z"/>
		<polygon id="XMLID_2_" class="st15" points="48.8,81.4 48.8,80.2 48.8,80.2 48.6,80.2 48.5,80.2 48.4,80.2 48.3,80.2 48.2,80.1 
			48.1,80.1 48,80.1 48,80.1 47.9,80 47.8,80 47.7,80 47.6,79.9 47.5,79.9 24.5,66.6 24.4,66.5 24.3,66.5 24.3,66.4 24.2,66.4 
			24.1,66.3 24.1,66.2 24.1,66.2 24,66.1 24,66.1 23.9,66 23.9,66 23.9,65.9 23.9,65.8 23.9,67 23.9,67 23.9,67.1 23.9,67.1 
			24,67.2 24,67.3 24.1,67.3 24.1,67.4 24.1,67.4 24.2,67.5 24.3,67.5 24.3,67.6 24.4,67.6 24.5,67.7 47.5,81 47.6,81 47.7,81.1 
			47.8,81.1 47.9,81.2 48,81.2 48,81.2 48.1,81.2 48.2,81.3 48.3,81.3 48.4,81.3 48.5,81.3 48.6,81.3 48.8,81.3 		"/>
		<polygon id="XMLID_1_" class="st15" points="48.8,84.6 48.8,83.3 48.7,83.3 48.6,83.3 48.5,83.3 48.4,83.3 48.2,83.2 48.1,83.2 
			48,83.2 47.9,83.2 47.8,83.1 47.7,83.1 47.6,83.1 47.5,83 47.4,83 47.3,82.9 47.2,82.9 21.1,67.8 21,67.7 20.9,67.7 20.8,67.6 
			20.8,67.6 20.7,67.5 20.6,67.4 20.6,67.4 20.5,67.3 20.5,67.2 20.5,67.2 20.4,67.1 20.4,67 20.4,67 20.4,68.3 20.4,68.3 
			20.4,68.4 20.5,68.5 20.5,68.5 20.5,68.6 20.6,68.7 20.6,68.7 20.7,68.8 20.8,68.8 20.8,68.9 20.9,68.9 21,69 21.1,69.1 
			47.2,84.2 47.3,84.2 47.4,84.3 47.5,84.3 47.6,84.3 47.7,84.4 47.8,84.4 47.9,84.4 48,84.5 48.1,84.5 48.2,84.5 48.4,84.5 
			48.5,84.5 48.6,84.6 48.7,84.6 		"/>
	</g>
</g>
</svg>
