<?xml version="1.0" encoding="utf-8"?>
<!-- Generator: Adobe Illustrator 19.0.0, SVG Export Plug-In . SVG Version: 6.00 Build 0)  -->
<svg version="1.1" id="图层_1" xmlns="http://www.w3.org/2000/svg" xmlns:xlink="http://www.w3.org/1999/xlink" x="0px" y="0px"
	 viewBox="0 0 100 100" style="enable-background:new 0 0 100 100;" xml:space="preserve">
<style type="text/css">
	.st0{fill-rule:evenodd;clip-rule:evenodd;fill:#FFFFFF;}
	.st1{fill-rule:evenodd;clip-rule:evenodd;fill:#F5F5F5;}
	.st2{fill-rule:evenodd;clip-rule:evenodd;fill:#E9E9EB;}
	.st3{fill-rule:evenodd;clip-rule:evenodd;fill:#DDDEE1;}
	.st4{fill-rule:evenodd;clip-rule:evenodd;fill:#D1D2D6;}
	.st5{fill-rule:evenodd;clip-rule:evenodd;fill:#34485C;}
	.st6{fill-rule:evenodd;clip-rule:evenodd;fill:#3D566E;}
	.st7{fill-rule:evenodd;clip-rule:evenodd;fill:#CCCCCC;}
	.st8{fill-rule:evenodd;clip-rule:evenodd;fill:#E6E6E6;}
	.st9{fill-rule:evenodd;clip-rule:evenodd;fill:#B4CCFA;}
	.st10{fill-rule:evenodd;clip-rule:evenodd;fill:#1E1E24;}
	.st11{fill-rule:evenodd;clip-rule:evenodd;fill:#2C3E50;}
	.st12{fill-rule:evenodd;clip-rule:evenodd;fill:#90A8D4;}
	.st13{fill-rule:evenodd;clip-rule:evenodd;fill:#3B3B45;}
	.st14{fill-rule:evenodd;clip-rule:evenodd;fill:#626F70;}
	.st15{fill-rule:evenodd;clip-rule:evenodd;fill:#7F8C8D;}
	.st16{fill-rule:evenodd;clip-rule:evenodd;fill:#9C9C9C;}
	.st17{fill-rule:evenodd;clip-rule:evenodd;fill:#BDC3C7;}
	.st18{fill-rule:evenodd;clip-rule:evenodd;fill:#E6EAEB;}
	.st19{fill-rule:evenodd;clip-rule:evenodd;fill:#FFCB05;}
	.st20{fill-rule:evenodd;clip-rule:evenodd;fill:#C8CFD4;}
	.st21{fill-rule:evenodd;clip-rule:evenodd;fill:#27AE60;}
</style>
<g>
	<g>
		<path id="XMLID_54_" class="st0" d="M100,0c0,33.3,0,66.7,0,100c-33.3,0-66.7,0-100,0C0,66.7,0,33.3,0,0C33.3,0,66.7,0,100,0z"/>
		<g>
			<path id="XMLID_53_" class="st1" d="M72.1,69.2c12.2,7.1,12.2,18.5,0,25.5c-12.2,7.1-32,7.1-44.2,0c-12.2-7.1-12.2-18.5,0-25.5
				C40.1,62.1,59.9,62.1,72.1,69.2z"/>
			<path id="XMLID_52_" class="st2" d="M68.3,71.4c10.1,5.8,10.1,15.3,0,21.1c-10.1,5.8-26.4,5.8-36.5,0c-10.1-5.8-10.1-15.3,0-21.1
				C41.8,65.6,58.2,65.6,68.3,71.4z"/>
			<path id="XMLID_51_" class="st3" d="M64.4,73.6c8,4.6,8,12,0,16.6c-8,4.6-20.9,4.6-28.8,0c-8-4.6-8-12,0-16.6
				C43.5,69,56.5,69,64.4,73.6z"/>
			<path id="XMLID_50_" class="st4" d="M60.6,75.8c5.8,3.4,5.8,8.8,0,12.2c-5.8,3.4-15.3,3.4-21.1,0c-5.8-3.4-5.8-8.8,0-12.2
				C45.3,72.5,54.7,72.5,60.6,75.8z"/>
		</g>
	</g>
	<g>
		<polygon id="XMLID_49_" class="st5" points="52.3,39.2 30.4,51.8 30.2,51.9 30,52.1 29.9,52.2 29.7,52.4 29.5,52.6 29.4,52.8 
			29.2,53 29.1,53.3 28.9,53.5 28.8,53.7 28.7,54 28.6,54.2 28.6,54.4 28.5,54.7 28.5,54.9 28.5,55.2 28.5,55.9 28.5,56.6 
			28.5,57.3 28.5,58 28.5,58.7 28.5,59.3 28.5,60 28.5,60.6 28.5,61.2 28.5,61.8 28.5,62.4 28.5,62.9 28.5,63.5 28.5,64.1 
			28.5,64.6 28.5,65.2 28.5,65.7 28.5,66.3 28.5,66.9 28.5,67.4 28.5,68 28.5,68.6 28.5,69.2 28.5,69.8 28.5,70.4 28.5,71 
			28.5,71.7 28.5,72.3 28.5,73 28.5,73.7 28.5,74.5 28.5,75.2 28.5,75.6 28.6,76 28.8,76.3 29.1,76.5 42.8,84.4 42.6,84.2 
			42.4,83.9 42.3,83.6 42.3,83.2 42.3,82.4 42.3,81.7 42.3,81 42.3,80.3 42.3,79.6 42.3,79 42.3,78.4 42.3,77.7 42.3,77.1 
			42.3,76.5 42.3,76 42.3,75.4 42.3,74.8 42.3,74.3 42.3,73.7 42.3,73.1 42.3,72.6 42.3,72 42.3,71.5 42.3,70.9 42.3,70.3 
			42.3,69.7 42.3,69.1 42.3,68.5 42.3,67.9 42.3,67.3 42.3,66.6 42.3,66 42.3,65.3 42.3,64.6 42.3,63.9 42.3,63.1 42.3,62.9 
			42.3,62.6 42.4,62.4 42.4,62.2 42.5,61.9 42.6,61.7 42.7,61.4 42.8,61.2 43,61 43.1,60.8 43.3,60.6 43.5,60.4 43.6,60.2 43.8,60 
			44,59.9 44.2,59.8 66,47.2 67,46.6 67.4,46.4 67.8,46.3 68.1,46.4 68.4,46.5 54.6,38.5 54.3,38.4 54,38.4 53.6,38.5 53.2,38.6 		
			"/>
		<path id="XMLID_48_" class="st6" d="M44.2,59.8c-1.1,0.6-1.9,2.1-1.9,3.4c0,8.1,0,11.9,0,20c0,1.2,0.9,1.7,1.9,1.1L58.6,76
			l8.8-5.1c0.9-0.7,1.5-2,1.5-3.1c0-8,0-12,0-20c0-1.2-0.9-1.7-1.9-1.1l-1,0.6L44.2,59.8z"/>
		<g>
			<g>
				<polygon id="XMLID_47_" class="st7" points="66.7,51.5 66.5,51.4 66.4,51.4 66.4,51.4 66.4,51.4 66.3,51.4 64.6,52.4 64.5,52.5 
					64.5,52.5 64.5,52.5 64.4,52.6 64.4,52.6 64.4,52.7 64.4,52.7 64.4,52.8 64.4,54.7 64.4,54.7 64.4,54.8 64.4,54.8 64.4,54.8 
					64.6,54.9 64.6,54.9 64.6,54.9 64.6,54.8 64.6,54.8 64.6,52.9 64.6,52.9 64.6,52.8 64.6,52.8 64.6,52.7 64.7,52.7 64.7,52.6 
					64.7,52.6 64.8,52.5 66.5,51.5 66.6,51.5 66.6,51.5 66.6,51.5 				"/>
				<polygon id="XMLID_46_" class="st7" points="61.5,60.3 61.3,60.2 61.2,60.2 61.2,60.2 61.2,60.2 61.1,60.2 59.4,61.3 59.3,61.3 
					59.3,61.3 59.3,61.4 59.2,61.4 59.2,61.5 59.2,61.5 59.2,61.6 59.2,61.6 59.2,63.5 59.2,63.5 59.2,63.6 59.2,63.6 59.2,63.6 
					59.4,63.8 59.4,63.7 59.4,63.7 59.4,63.7 59.4,63.6 59.4,61.7 59.4,61.7 59.4,61.6 59.4,61.6 59.4,61.5 59.5,61.5 59.5,61.4 
					59.5,61.4 59.6,61.4 61.3,60.4 61.4,60.3 61.4,60.3 61.4,60.3 				"/>
				<polygon id="XMLID_45_" class="st7" points="64.1,58.8 63.9,58.7 63.8,58.7 63.8,58.7 63.8,58.7 63.7,58.7 62,59.7 61.9,59.8 
					61.9,59.8 61.9,59.9 61.8,59.9 61.8,60 61.8,60 61.8,60.1 61.8,60.1 61.8,62 61.8,62 61.8,62.1 61.8,62.1 61.8,62.1 62,62.3 
					62,62.2 62,62.2 62,62.2 62,62.1 62,60.2 62,60.2 62,60.1 62,60.1 62,60 62.1,60 62.1,59.9 62.1,59.9 62.2,59.9 63.9,58.9 
					64,58.8 64,58.8 64,58.8 				"/>
				<polygon id="XMLID_44_" class="st7" points="66.7,57.3 66.5,57.2 66.4,57.2 66.4,57.2 66.4,57.2 66.3,57.2 64.6,58.2 64.5,58.3 
					64.5,58.3 64.5,58.4 64.4,58.4 64.4,58.5 64.4,58.5 64.4,58.6 64.4,58.6 64.4,60.5 64.4,60.5 64.4,60.6 64.4,60.6 64.4,60.6 
					64.6,60.7 64.6,60.7 64.6,60.7 64.6,60.7 64.6,60.6 64.6,58.7 64.6,58.7 64.6,58.6 64.6,58.6 64.6,58.5 64.7,58.5 64.7,58.4 
					64.7,58.4 64.8,58.4 66.5,57.4 66.6,57.3 66.6,57.3 66.6,57.3 				"/>
				<polygon id="XMLID_43_" class="st7" points="61.5,57.4 61.3,57.3 61.2,57.3 61.2,57.3 61.2,57.3 61.1,57.3 59.4,58.3 59.3,58.4 
					59.3,58.4 59.3,58.5 59.2,58.5 59.2,58.6 59.2,58.6 59.2,58.7 59.2,58.7 59.2,60.6 59.2,60.6 59.2,60.7 59.2,60.7 59.2,60.7 
					59.4,60.8 59.4,60.8 59.4,60.8 59.4,60.8 59.4,60.7 59.4,58.8 59.4,58.8 59.4,58.7 59.4,58.7 59.4,58.6 59.5,58.6 59.5,58.5 
					59.5,58.5 59.6,58.5 61.3,57.5 61.4,57.4 61.4,57.4 61.4,57.4 				"/>
				<polygon id="XMLID_42_" class="st7" points="64.1,55.9 63.9,55.8 63.8,55.8 63.8,55.8 63.8,55.8 63.7,55.8 62,56.8 61.9,56.9 
					61.9,56.9 61.9,56.9 61.8,57 61.8,57 61.8,57.1 61.8,57.2 61.8,57.2 61.8,59.1 61.8,59.1 61.8,59.2 61.8,59.2 61.8,59.2 
					62,59.3 62,59.3 62,59.3 62,59.3 62,59.2 62,57.3 62,57.3 62,57.2 62,57.2 62,57.1 62.1,57.1 62.1,57 62.1,57 62.2,57 
					63.9,55.9 64,55.9 64,55.9 64,55.9 				"/>
				<polygon id="XMLID_41_" class="st7" points="66.7,54.4 66.5,54.3 66.4,54.3 66.4,54.3 66.4,54.3 66.3,54.3 64.6,55.3 64.5,55.4 
					64.5,55.4 64.5,55.4 64.4,55.5 64.4,55.5 64.4,55.6 64.4,55.7 64.4,55.7 64.4,57.6 64.4,57.6 64.4,57.7 64.4,57.7 64.4,57.7 
					64.6,57.8 64.6,57.8 64.6,57.8 64.6,57.7 64.6,57.7 64.6,55.8 64.6,55.8 64.6,55.7 64.6,55.7 64.6,55.6 64.7,55.6 64.7,55.5 
					64.7,55.5 64.8,55.5 66.5,54.4 66.6,54.4 66.6,54.4 66.6,54.4 				"/>
				<polygon id="XMLID_40_" class="st7" points="61.5,54.5 61.3,54.4 61.2,54.4 61.2,54.4 61.2,54.4 61.1,54.4 59.4,55.4 59.3,55.5 
					59.3,55.5 59.3,55.5 59.2,55.6 59.2,55.6 59.2,55.7 59.2,55.7 59.2,55.8 59.2,57.7 59.2,57.7 59.2,57.8 59.2,57.8 59.2,57.8 
					59.4,57.9 59.4,57.9 59.4,57.9 59.4,57.8 59.4,57.8 59.4,55.9 59.4,55.9 59.4,55.8 59.4,55.8 59.4,55.7 59.5,55.7 59.5,55.6 
					59.5,55.6 59.6,55.5 61.3,54.5 61.4,54.5 61.4,54.5 61.4,54.5 				"/>
				<polygon id="XMLID_39_" class="st7" points="64.1,53 63.9,52.9 63.8,52.9 63.8,52.9 63.8,52.9 63.7,52.9 62,53.9 61.9,54 
					61.9,54 61.9,54 61.8,54.1 61.8,54.1 61.8,54.2 61.8,54.2 61.8,54.3 61.8,56.2 61.8,56.2 61.8,56.3 61.8,56.3 61.8,56.3 
					62,56.4 62,56.4 62,56.4 62,56.3 62,56.3 62,54.4 62,54.4 62,54.3 62,54.3 62,54.2 62.1,54.2 62.1,54.1 62.1,54.1 62.2,54 
					63.9,53 64,53 64,53 64,53 				"/>
			</g>
			<g>
				<path id="XMLID_38_" class="st8" d="M63.9,53l-1.7,1c-0.1,0.1-0.2,0.2-0.2,0.4v1.9c0,0.1,0.1,0.2,0.2,0.1l1.7-1
					c0.1-0.1,0.2-0.2,0.2-0.4v-1.9C64.1,53,64,53,63.9,53z"/>
				<path id="XMLID_37_" class="st8" d="M61.3,54.5l-1.7,1c-0.1,0.1-0.2,0.2-0.2,0.4v1.9c0,0.1,0.1,0.2,0.2,0.1l1.7-1
					c0.1-0.1,0.2-0.2,0.2-0.4v-1.9C61.5,54.5,61.4,54.5,61.3,54.5z"/>
				<path id="XMLID_36_" class="st8" d="M66.5,54.4l-1.7,1c-0.1,0.1-0.2,0.2-0.2,0.4v1.9c0,0.1,0.1,0.2,0.2,0.1l1.7-1
					c0.1-0.1,0.2-0.2,0.2-0.4v-1.9C66.7,54.4,66.6,54.4,66.5,54.4z"/>
				<path id="XMLID_35_" class="st8" d="M63.9,55.9l-1.7,1C62.1,57,62,57.2,62,57.3v1.9c0,0.1,0.1,0.2,0.2,0.1l1.7-1
					c0.1-0.1,0.2-0.2,0.2-0.4v-1.9C64.1,55.9,64,55.9,63.9,55.9z"/>
				<path id="XMLID_34_" class="st8" d="M61.3,57.5l-1.7,1c-0.1,0.1-0.2,0.2-0.2,0.4v1.9c0,0.1,0.1,0.2,0.2,0.1l1.7-1
					c0.1-0.1,0.2-0.2,0.2-0.4v-1.9C61.5,57.4,61.4,57.4,61.3,57.5z"/>
				<path id="XMLID_33_" class="st8" d="M66.5,57.4l-1.7,1c-0.1,0.1-0.2,0.2-0.2,0.4v1.9c0,0.1,0.1,0.2,0.2,0.1l1.7-1
					c0.1-0.1,0.2-0.2,0.2-0.4v-1.9C66.7,57.3,66.6,57.3,66.5,57.4z"/>
				<path id="XMLID_32_" class="st8" d="M63.9,58.9l-1.7,1c-0.1,0.1-0.2,0.2-0.2,0.4v1.9c0,0.1,0.1,0.2,0.2,0.1l1.7-1
					c0.1-0.1,0.2-0.2,0.2-0.4V59C64.1,58.8,64,58.8,63.9,58.9z"/>
				<path id="XMLID_31_" class="st8" d="M61.3,60.4l-1.7,1c-0.1,0.1-0.2,0.2-0.2,0.4v1.9c0,0.1,0.1,0.2,0.2,0.1l1.7-1
					c0.1-0.1,0.2-0.2,0.2-0.4v-1.9C61.5,60.3,61.4,60.3,61.3,60.4z"/>
				<path id="XMLID_30_" class="st8" d="M66.5,51.5l-1.7,1c-0.1,0.1-0.2,0.2-0.2,0.4v1.9c0,0.1,0.1,0.2,0.2,0.1l1.7-1
					c0.1-0.1,0.2-0.2,0.2-0.4v-1.9C66.7,51.5,66.6,51.5,66.5,51.5z"/>
			</g>
		</g>
		<path id="XMLID_29_" class="st9" d="M44.7,64.3c0,1.4,0,11.4,0,12.8c0,0.2,0.1,0.3,0.3,0.2l11.6-6.7c0.2-0.1,0.3-0.3,0.3-0.5V57.2
			c0-0.2-0.1-0.3-0.3-0.2L45,63.7C44.8,63.8,44.7,64.1,44.7,64.3z"/>
		<polygon id="XMLID_28_" class="st10" points="59.1,65.6 66.5,61.4 66.5,62.5 65.3,63.2 65.3,63.8 60.5,66.5 60.5,66 59.1,66.8 		
			"/>
		<polygon id="XMLID_27_" class="st10" points="45.1,81.8 62.1,71.9 62.1,70.9 45.1,80.8 		"/>
		<polygon id="XMLID_26_" class="st11" points="29.1,53.3 28.9,53.5 28.8,53.7 28.7,54 28.6,54.2 28.6,54.4 28.5,54.7 28.5,54.9 
			28.5,55.2 28.5,55.9 28.5,56.6 28.5,57.3 28.5,58 28.5,58.7 28.5,59.3 28.5,60 28.5,60.6 28.5,61.2 28.5,61.8 28.5,62.4 
			28.5,62.9 28.5,63.5 28.5,64.1 28.5,64.6 28.5,65.2 28.5,65.7 28.5,66.3 28.5,66.9 28.5,67.4 28.5,68 28.5,68.6 28.5,69.2 
			28.5,69.8 28.5,70.4 28.5,71 28.5,71.7 28.5,72.3 28.5,73 28.5,73.7 28.5,74.5 28.5,75.2 28.5,75.6 28.6,76 28.8,76.3 29.1,76.5 
			42.8,84.4 42.6,84.2 42.4,83.9 42.3,83.6 42.3,83.2 42.3,82.4 42.3,81.7 42.3,81 42.3,80.3 42.3,79.6 42.3,79 42.3,78.4 
			42.3,77.7 42.3,77.1 42.3,76.5 42.3,76 42.3,75.4 42.3,74.8 42.3,74.3 42.3,73.7 42.3,73.1 42.3,72.6 42.3,72 42.3,71.5 
			42.3,70.9 42.3,70.3 42.3,69.7 42.3,69.1 42.3,68.5 42.3,67.9 42.3,67.3 42.3,66.6 42.3,66 42.3,65.3 42.3,64.6 42.3,63.9 
			42.3,63.1 42.3,62.9 42.3,62.6 42.4,62.4 42.4,62.2 42.5,61.9 42.6,61.7 42.7,61.4 42.8,61.2 		"/>
		<path id="XMLID_25_" class="st12" d="M44.7,64.3v12.5l11.4-6.6c0.2-0.1,0.3-0.3,0.3-0.5V57.2L45,63.7
			C44.8,63.8,44.7,64.1,44.7,64.3z"/>
		<polygon id="XMLID_24_" class="st11" points="29.1,53.3 28.9,53.5 28.8,53.7 28.7,54 28.6,54.2 28.6,54.4 28.5,54.7 28.5,54.9 
			28.5,55.2 28.5,55.9 28.5,56.6 28.5,57.3 28.5,58 28.5,58.7 28.5,59.3 28.5,60 28.5,60.6 28.5,61.2 28.5,61.8 28.5,62.4 
			28.5,62.9 28.5,63.5 28.5,64.1 28.5,64.6 28.5,65.2 28.5,65.7 28.5,66.3 28.5,66.9 28.5,67.4 28.5,68 28.5,68.6 28.5,69.2 
			28.5,69.8 28.5,70.4 28.5,71 28.5,71.7 28.5,72.3 28.5,73 28.5,73.7 28.5,74.5 28.5,75.2 28.5,75.6 28.6,76 28.8,76.3 29.1,76.5 
			42.8,84.4 42.6,84.2 42.4,83.9 42.3,83.6 42.3,83.2 42.3,82.4 42.3,81.7 42.3,81 42.3,80.3 42.3,79.6 42.3,79 42.3,78.4 
			42.3,77.7 42.3,77.1 42.3,76.5 42.3,76 42.3,75.4 42.3,74.8 42.3,74.3 42.3,73.7 42.3,73.1 42.3,72.6 42.3,72 42.3,71.5 
			42.3,70.9 42.3,70.3 42.3,69.7 42.3,69.1 42.3,68.5 42.3,67.9 42.3,67.3 42.3,66.6 42.3,66 42.3,65.3 42.3,64.6 42.3,63.9 
			42.3,63.1 42.3,62.9 42.3,62.6 42.4,62.4 42.4,62.2 42.5,61.9 42.6,61.7 42.7,61.4 42.8,61.2 		"/>
		<polygon id="XMLID_23_" class="st13" points="45.1,81.8 62.1,71.9 61.3,71.4 45.1,80.8 		"/>
		<g>
			<polygon id="XMLID_22_" class="st14" points="71.5,65.2 71.5,65.4 71.5,65.5 71.4,65.6 71.3,65.7 71.2,65.8 66.6,68.5 66.4,68.6 
				66.2,68.6 66.1,68.6 65.9,68.7 65.7,68.6 65.5,68.6 65.3,68.6 65.2,68.5 59.7,65.3 59.9,65.2 65.2,68.3 65.3,68.3 65.5,68.4 
				65.7,68.4 65.9,68.4 66.1,68.4 66.2,68.4 66.4,68.3 66.6,68.3 71.2,65.6 71.3,65.5 71.4,65.4 71.5,65.3 			"/>
			<path id="XMLID_21_" class="st15" d="M65.2,68.3l-5.3-3l6.1-3.5l5.3,3c0.4,0.2,0.4,0.6,0,0.8l-4.6,2.7
				C66.2,68.5,65.5,68.5,65.2,68.3z"/>
			<path id="XMLID_20_" class="st16" d="M65.9,61.7l5.3,3c0.4,0.2,0.4,0.6,0,0.8l-0.9,0.5c-2.3-0.9-5.4-1.6-8.6-2L65.9,61.7z"/>
			<path id="XMLID_19_" class="st17" d="M65.9,61.7l5.3,3c0.4,0.2,0.4,0.5,0.1,0.8c-2.2-1.1-4.6-2-7.2-2.8L65.9,61.7z"/>
			<path id="XMLID_18_" class="st18" d="M69.6,65.1l-1.4-0.8c-0.1,0-0.2,0-0.2,0l-0.2,0.1c-0.1,0-0.1,0.1,0,0.1l1.4,0.8
				c0.1,0,0.2,0,0.2,0l0.2-0.1C69.7,65.2,69.7,65.2,69.6,65.1z"/>
			<path id="XMLID_17_" class="st18" d="M67.6,64l-1.4-0.8c-0.1,0-0.2,0-0.2,0l-0.2,0.1c-0.1,0-0.1,0.1,0,0.1l1.4,0.8
				c0.1,0,0.2,0,0.2,0l0.2-0.1C67.7,64.1,67.7,64,67.6,64z"/>
			<path id="XMLID_16_" class="st18" d="M65.6,62.8l-0.8-0.4l-0.4,0.3l0.8,0.5c0.1,0,0.2,0,0.2,0l0.2-0.1
				C65.6,62.9,65.6,62.8,65.6,62.8z"/>
			<path id="XMLID_15_" class="st19" d="M66.8,66.9c-0.1,0.1-0.3,0.1-0.4,0c-0.4-0.3-0.9-0.5-1.3-0.8c-0.1-0.1-0.1-0.2,0-0.2
				c0.3-0.2,0.7-0.4,1-0.6c0.1-0.1,0.3-0.1,0.4,0c0.4,0.3,0.9,0.5,1.3,0.8c0.1,0.1,0.1,0.2,0,0.2C67.5,66.5,67.1,66.7,66.8,66.9z"/>
		</g>
		<polygon id="XMLID_14_" class="st20" points="67.5,75.3 67.5,75.7 67.5,75.8 67.4,75.9 67.4,75.9 67.4,76 67.3,76.1 67.2,76.2 
			67.1,76.3 67,76.4 53.3,84.3 53.2,84.3 53.1,84.3 53.1,84.4 53,84.4 52.9,84.4 52.9,84.5 52.8,84.5 52.7,84.5 52.6,84.5 
			52.5,84.5 52.5,84.5 52.4,84.6 52.3,84.6 52.2,84.6 52.1,84.6 52.1,84.6 52,84.6 51.9,84.6 51.8,84.6 51.7,84.6 51.6,84.5 
			51.6,84.5 51.5,84.5 51.4,84.5 51.3,84.5 51.3,84.5 51.2,84.4 51.1,84.4 51,84.4 51,84.3 50.9,84.3 50.8,84.3 45.1,81 45.1,80.8 
			45.2,80.7 50.9,83.9 50.9,84 51,84 51.1,84 51.1,84.1 51.2,84.1 51.3,84.1 51.4,84.1 51.4,84.2 51.5,84.2 51.6,84.2 51.7,84.2 
			51.8,84.2 51.8,84.2 51.9,84.2 52,84.2 52.1,84.2 52.2,84.2 52.3,84.2 52.3,84.2 52.4,84.2 52.5,84.2 52.6,84.2 52.7,84.2 
			52.7,84.2 52.8,84.1 52.9,84.1 53,84.1 53,84.1 53.1,84 53.2,84 53.3,84 53.3,83.9 67,76 67.1,76 67.2,75.9 67.3,75.8 67.4,75.7 
			67.4,75.6 67.5,75.5 67.5,75.4 		"/>
		<path id="XMLID_13_" class="st18" d="M61.4,71.4l5.6,3.3c0.7,0.4,0.7,1,0,1.4l-13.7,7.9c-0.7,0.4-1.8,0.4-2.4,0l-5.6-3.3
			L61.4,71.4z"/>
		<path id="XMLID_12_" class="st21" d="M60.4,78.6c0.3-0.9-0.3-2-1.8-2.9c-0.9-0.5-1.9-0.8-3-1l5-2.9l5.5,3.2c0.2,0.1,0.3,0.4,0,0.5
			c-1.9,1.1-3.7,2.2-5.6,3.2L60.4,78.6z"/>
		<path id="XMLID_11_" class="st21" d="M57.7,80.1c-1.6,0.2-3.5-0.2-5-1c-0.9-0.5-1.5-1.1-1.7-1.7l-5,2.9l5.5,3.2
			c0.2,0.1,0.6,0.2,0.9,0c1.9-1.1,3.7-2.2,5.6-3.2L57.7,80.1z"/>
		<path id="XMLID_10_" class="st18" d="M63.7,76.3l1.7-1c0.1-0.1,0.1-0.1,0-0.2L65.2,75c-0.1-0.1-0.2-0.1-0.3,0l-1.7,1
			c-0.1,0.1-0.1,0.1,0,0.2l0.2,0.1C63.4,76.4,63.6,76.4,63.7,76.3z"/>
		<path id="XMLID_9_" class="st18" d="M62.2,74.4c0.4-0.2,0.4-0.6,0-0.8c-0.4-0.2-1-0.2-1.4,0c-0.4,0.2-0.4,0.6,0,0.8
			C61.2,74.6,61.8,74.6,62.2,74.4z"/>
		<path id="XMLID_8_" class="st18" d="M53.8,82L52,83c-0.1,0.1-0.2,0.1-0.3,0l-0.2-0.1c-0.1-0.1-0.1-0.1,0-0.2l1.7-1
			c0.1-0.1,0.2-0.1,0.3,0l0.2,0.1C53.9,81.9,53.9,81.9,53.8,82z"/>
		<path id="XMLID_7_" class="st18" d="M50.4,81.2c-0.4,0.2-1,0.2-1.4,0c-0.4-0.2-0.4-0.6,0-0.8c0.4-0.2,1-0.2,1.4,0
			C50.8,80.6,50.8,81,50.4,81.2z"/>
		<path class="st21" d="M54,76.1l1.3,0.7c0.4-0.2,0.7-0.4,1-0.5c0.3-0.1,0.6-0.2,0.9-0.1c0.3,0,0.7,0.1,1,0.3
			c0.4,0.2,0.6,0.4,0.7,0.6c0.1,0.2,0.1,0.4,0,0.6c-0.1,0.2-0.4,0.4-0.7,0.6L58,78.4l0.5,0.3L58,78.9l-0.5-0.3
			c-0.3,0.2-0.5,0.3-0.7,0.4c-0.2,0.1-0.5,0.2-0.7,0.2c-0.2,0-0.5,0-0.8,0c-0.3-0.1-0.5-0.2-0.8-0.3l-0.2-0.1l0.8-0.5
			c0.2,0.1,0.4,0.2,0.5,0.2c0.1,0,0.3,0.1,0.4,0c0.1,0,0.2,0,0.3-0.1c0.1,0,0.3-0.1,0.5-0.3l-1.4-0.8c-0.3,0.2-0.6,0.3-0.8,0.4
			C54.5,78,54.3,78,54,78.1c-0.2,0-0.5,0-0.7,0c-0.2-0.1-0.5-0.2-0.8-0.3c-0.4-0.2-0.6-0.4-0.6-0.6c0-0.1,0-0.2,0-0.3l3-1.8
			c0.1,0,0.2,0,0.3,0c0.3,0,0.6,0.2,1,0.4l-0.7,0.5c0,0-0.1,0-0.1-0.1c-0.2-0.1-0.4-0.2-0.6-0.2c-0.2,0-0.4,0.1-0.6,0.2L54,76.1
			L54,76.1z M55.9,77.2l1.4,0.8l0.1-0.1c0.3-0.2,0.4-0.3,0.4-0.4c0-0.1-0.1-0.3-0.3-0.4c-0.2-0.1-0.4-0.2-0.5-0.2
			c-0.2,0-0.3,0-0.4,0.1C56.4,76.9,56.2,77,55.9,77.2L55.9,77.2z M53.5,76.4l-0.1,0.1c-0.2,0.1-0.3,0.2-0.4,0.3
			C53,76.8,53,76.9,53,77c0,0.1,0.1,0.2,0.3,0.3c0.3,0.1,0.5,0.2,0.7,0.2c0.2,0,0.5-0.1,0.8-0.3L53.5,76.4z"/>
		<path class="st6" d="M50.9,64.3v1.9c0.5-0.3,0.9-0.5,1.2-0.5c0.3-0.1,0.6-0.1,0.8,0.1c0.2,0.2,0.3,0.5,0.3,1.1
			c0,0.5-0.1,1-0.2,1.4c-0.1,0.4-0.4,0.7-0.7,1.1c-0.3,0.3-0.7,0.6-1.2,0.9l-0.2,0.1v0.7l-0.7,0.4v-0.7c-0.3,0.2-0.7,0.3-0.9,0.4
			c-0.3,0.1-0.5,0.1-0.7,0.1c-0.2,0-0.4-0.2-0.5-0.4C48.1,70.7,48,70.4,48,70l0-0.2l1.1-0.6c0,0.3,0,0.5,0.1,0.7
			c0,0.1,0.1,0.2,0.2,0.2c0.1,0,0.2,0,0.3,0c0.1,0,0.3-0.2,0.6-0.3v-2.1c-0.4,0.2-0.7,0.4-1,0.4c-0.2,0.1-0.5,0.1-0.7,0.1
			c-0.2,0-0.3-0.1-0.4-0.3c-0.1-0.2-0.2-0.5-0.2-1c0-0.5,0.1-1,0.3-1.4c0.2-0.4,0.4-0.7,0.8-1c0.3-0.3,0.7-0.6,1.2-0.8V63l0.7-0.4
			v0.7c0.5-0.3,0.9-0.5,1.2-0.5c0.3-0.1,0.5,0,0.7,0.2c0.2,0.2,0.2,0.6,0.2,1.2l-1,0.6c0,0,0-0.1,0-0.1c0-0.3-0.1-0.5-0.2-0.6
			c-0.1,0-0.3,0-0.6,0.2L50.9,64.3L50.9,64.3z M50.9,67.2v2.1l0.2-0.1c0.3-0.2,0.6-0.4,0.8-0.7c0.2-0.2,0.3-0.6,0.3-1
			c0-0.3,0-0.5-0.1-0.6c-0.1-0.1-0.2-0.1-0.4-0.1C51.5,67,51.3,67.1,50.9,67.2L50.9,67.2z M50.3,64.7l-0.2,0.1
			c-0.2,0.1-0.4,0.3-0.6,0.4c-0.1,0.1-0.2,0.3-0.3,0.4c-0.1,0.2-0.1,0.4-0.1,0.7c0,0.4,0.1,0.6,0.3,0.6c0.2,0,0.5-0.1,0.9-0.3V64.7z
			"/>
	</g>
</g>
</svg>
