<?xml version="1.0" encoding="utf-8"?>
<!-- Generator: Adobe Illustrator 19.0.0, SVG Export Plug-In . SVG Version: 6.00 Build 0)  -->
<svg version="1.0" id="图层_1" xmlns="http://www.w3.org/2000/svg" xmlns:xlink="http://www.w3.org/1999/xlink" x="0px" y="0px"
	 viewBox="0 0 760 312" style="enable-background:new 0 0 760 312;" xml:space="preserve">
<style type="text/css">
	.st0{fill-rule:evenodd;clip-rule:evenodd;fill:#E0B153;}
	.st1{fill-rule:evenodd;clip-rule:evenodd;fill:#997817;}
	.st2{fill-rule:evenodd;clip-rule:evenodd;fill:#808080;}
	.st3{fill-rule:evenodd;clip-rule:evenodd;fill:#FFFFFF;}
	.st4{fill-rule:evenodd;clip-rule:evenodd;fill:none;stroke:#FFFFFF;stroke-miterlimit:10;}
	.st5{fill-rule:evenodd;clip-rule:evenodd;fill:none;stroke:#E0B153;stroke-width:2;stroke-miterlimit:10;}
	.st6{fill-rule:evenodd;clip-rule:evenodd;fill:none;stroke:#808080;stroke-miterlimit:10;}
	.st7{fill-rule:evenodd;clip-rule:evenodd;fill:none;stroke:#997817;stroke-miterlimit:10;}
	.st8{fill:#88A2AA;}
	.st9{fill:#808080;}
</style>
<path id="XMLID_77_" class="st0" d="M252.8,148.5c1.9-20.2,8.9-39.6,20.4-56.3c36.9-53.7,110-67.8,164.1-31.8l-66.8,97.3
	L252.8,148.5z"/>
<path id="XMLID_76_" class="st1" d="M440.3,62.4c40.2,28.5,58.8,79,46.4,126.9c-16.3,63.1-80.2,101.3-143.3,86l29.7-115L440.3,62.4z
	"/>
<path id="XMLID_73_" class="st2" d="M339.8,274.4c-54.4-14.9-90.9-66-87.3-122.3l116.5,9.1L339.8,274.4z"/>
<path id="XMLID_71_" class="st3" d="M355,124c9-4.3,19.6-5.2,29.7-1.6c10.1,3.6,17.8,10.9,22.1,19.9c4.3,9,5.2,19.6,1.6,29.7
	c-3.6,10.1-10.9,17.8-19.9,22.1c-9,4.3-19.6,5.2-29.7,1.6c-10.1-3.6-17.8-10.9-22.1-19.9c-4.3-9-5.2-19.6-1.6-29.7
	C338.7,136,346.1,128.3,355,124z"/>
<path id="XMLID_69_" class="st4" d="M353.7,121.3c9.7-4.6,21.1-5.5,32-1.7c10.9,3.8,19.2,11.8,23.8,21.4c4.6,9.7,5.5,21.1,1.7,32
	c-3.8,10.9-11.8,19.2-21.4,23.8c-9.7,4.6-21.1,5.6-32,1.7c-10.9-3.9-19.2-11.8-23.8-21.4c-4.6-9.7-5.6-21.1-1.7-32
	C336.2,134.2,344.1,125.9,353.7,121.3z"/>
<polyline id="XMLID_68_" class="st5" points="297,110.5 245.7,69 0,69 "/>
<polyline id="XMLID_67_" class="st6" points="312.3,210.9 242.5,270.9 0,270.9 "/>
<polyline id="XMLID_66_" class="st7" points="439.7,161.5 499,98.9 760,98.9 "/>
<g id="XMLID_53_">
	<path id="XMLID_64_" class="st8" d="M353,159.1c0-1.5,0.2-2.9,0.6-4.1c0.4-1.2,0.9-2.3,1.6-3.1h2.5c-0.7,0.9-1.2,2-1.5,3.2
		s-0.5,2.6-0.5,4c0,1.4,0.2,2.6,0.5,3.9s0.8,2.3,1.5,3.2h-2.5c-0.7-0.8-1.3-1.8-1.6-3S353,160.6,353,159.1z"/>
	<path id="XMLID_62_" class="st8" d="M359.4,163.7v-11.4h3.1v11.4H359.4z"/>
	<path id="XMLID_59_" class="st8" d="M368.1,159.5v4.2H365v-11.4h3.7c3.1,0,4.7,1.1,4.7,3.4c0,1.3-0.6,2.3-1.9,3.1l3.3,5h-3.5
		l-2.4-4.2H368.1z M368.1,157.2h0.6c1.1,0,1.6-0.5,1.6-1.4c0-0.8-0.5-1.2-1.6-1.2h-0.6V157.2z"/>
	<path id="XMLID_56_" class="st8" d="M378.9,159.5v4.2h-3.1v-11.4h3.7c3.1,0,4.7,1.1,4.7,3.4c0,1.3-0.6,2.3-1.9,3.1l3.3,5h-3.5
		l-2.4-4.2H378.9z M378.9,157.2h0.6c1.1,0,1.6-0.5,1.6-1.4c0-0.8-0.5-1.2-1.6-1.2h-0.6V157.2z"/>
	<path id="XMLID_54_" class="st8" d="M390.6,159.1c0,1.5-0.2,2.8-0.6,4s-0.9,2.2-1.6,3.1h-2.5c0.7-0.9,1.2-2,1.5-3.2
		s0.5-2.5,0.5-3.9c0-1.4-0.2-2.7-0.5-3.9c-0.3-1.2-0.9-2.3-1.5-3.3h2.5c0.7,0.9,1.3,1.9,1.6,3.1
		C390.4,156.3,390.6,157.7,390.6,159.1z"/>
</g>
<g id="XMLID_815_">
	<path id="XMLID_816_" class="st9" d="M4.5,250.3c-1,0.4-2,0.8-2.7,1.1c-0.5,0.2-0.5,0.2-0.8,0.3c-0.3,0.1-0.3,0.1-0.6,0.2L0,250.9
		c1.5-0.3,2.6-0.7,4.3-1.4L4.5,250.3z M7.7,254c0,0.3,0,0.3-0.1,1.1c0,1.4-0.2,2.1-0.7,2.8c-0.4,0.7-1.2,1.2-2.3,1.6
		c-0.8,0.3-1.4,0.4-2.5,0.6c-0.1,0-0.6,0.1-1.4,0.2c-0.1-0.4-0.2-0.6-0.5-1c1.8,0,3.1-0.3,4.4-0.8c1-0.4,1.6-1,1.9-1.8
		c0.1-0.4,0.2-1.1,0.2-1.9c0-0.3,0-0.5-0.1-0.8H7.7z M3.5,248.4c-1.2-0.8-1.9-1.2-2.8-1.5l0.6-0.7c1.2,0.5,2,0.9,2.8,1.5L3.5,248.4z
		 M2.1,257.9c0.1-0.5,0.1-1,0.1-1.8V254c0-0.8,0-1.1,0-1.5c0.4,0,1,0.1,1.8,0.1h6.5c0.8,0,1.4,0,1.8-0.1c0,0.4-0.1,0.9-0.1,1.6v2
		c0,0.9,0,1.3,0.1,1.8H11c0.1-0.6,0.1-1,0.1-1.8v-2.6H3.2v2.6c0,0.6,0,1.4,0.1,1.8H2.1z M6.4,248c-0.4,0.5-0.9,1-1.5,1.5
		c-0.2-0.3-0.4-0.4-0.7-0.6c1.3-0.9,2.1-1.9,2.5-3.1l1,0.3c-0.3,0.6-0.4,0.8-0.7,1.2h5.3c0.5,0,0.8,0,1.1-0.1l0.6,0.5
		c-0.1,0.1-0.1,0.1-0.2,0.2c0,0,0,0.1-0.2,0.3c-0.5,0.7-0.8,1-1.5,1.5c-0.3-0.2-0.5-0.3-0.9-0.5c0.6-0.4,1-0.7,1.4-1.2h-3
		c0.2,0.8,0.7,1.4,1.4,2c0.8,0.7,1.9,1.1,3.6,1.3c-0.2,0.3-0.3,0.5-0.5,1c-1.3-0.3-2.2-0.7-3-1.2c-0.9-0.6-1.4-1.2-2-2.2
		c-0.4,0.9-0.9,1.6-1.9,2.2c-0.4,0.3-0.9,0.5-1.5,0.7c0,0-0.4,0.1-0.8,0.2c-0.1,0-0.3,0.1-0.5,0.1c-0.1-0.4-0.2-0.5-0.4-0.9
		c1.5-0.2,2.5-0.6,3.2-1.2c0.6-0.5,1-1.1,1.2-2H6.4z M8.2,257.3c2.8,0.9,3.8,1.3,6,2.1l-0.5,0.9c-2.6-1.1-2.8-1.2-5.9-2.3L8.2,257.3
		z"/>
	<path id="XMLID_823_" class="st9" d="M28.2,247.2c0.8,0,1.2,0,1.7-0.1v1c-0.5,0-0.9-0.1-1.7-0.1h-1.3c-0.1,0.2-0.1,0.3-0.2,0.7
		c-0.3,1-0.5,1.4-0.8,2h2.2c0.9,0,1.4,0,2-0.1v1.1c-0.5-0.1-1-0.1-2-0.1h-9.7c0,2.9-0.1,3.8-0.4,5.3c-0.3,1.5-0.6,2.3-1.4,3.6
		c-0.3-0.4-0.4-0.6-0.8-0.8c0.7-1,1-1.7,1.2-2.9c0.3-1.3,0.4-2.6,0.4-4.7c0-0.6,0-1-0.1-1.5c0.4,0.1,0.8,0.1,1.8,0.1h2
		c-0.4-1.6-0.5-1.9-0.8-2.7h-1.6c-0.8,0-1.1,0-1.6,0.1v-1c0.4,0.1,0.9,0.1,1.6,0.1h4.1c-0.5-0.8-0.5-0.8-0.7-1.1l0.9-0.5
		c0.3,0.4,0.3,0.4,0.9,1.4c0,0,0,0,0.1,0.2H28.2z M24.8,250.8c0.3-0.5,0.4-0.8,0.7-1.9c0.1-0.5,0.2-0.6,0.2-0.8h-4.6
		c0.2,0.4,0.3,0.6,0.5,1.4c0.2,0.6,0.2,0.8,0.4,1.2H24.8z"/>
	<path id="XMLID_826_" class="st9" d="M35.1,250.3c0.6,0,1,0,1.3-0.1v1.1c-0.4,0-0.7-0.1-1.3-0.1h-0.4v4.9c0.5-0.2,0.8-0.3,1.9-0.8
		l0,1c-0.8,0.4-1.4,0.7-2.5,1.1c-0.3,0.1-0.3,0.1-1,0.4c-0.1,0-0.1,0-0.6,0.3c-0.2,0.1-0.2,0.1-0.3,0.1l-0.2-1.1
		c0.4-0.1,0.9-0.2,1.9-0.6v-5.3h-0.4c-0.6,0-1,0-1.3,0.1v-1.1c0.4,0.1,0.7,0.1,1.3,0.1h0.4v-2.7c0-0.6,0-1-0.1-1.5h1.2
		c-0.1,0.5-0.1,0.8-0.1,1.5v2.7H35.1z M42,247.9c0.5-0.7,0.8-1.2,1.2-2.2l1,0.4c-0.5,1-0.8,1.3-1.1,1.8h1.2c0.8,0,1.2,0,1.4-0.1
		c0,0.6,0,1.1,0,1.8v2.1c0,0.8,0,1.2,0,1.7c-0.5,0-0.9-0.1-1.4-0.1h-6.1c-0.5,0-0.9,0-1.3,0.1c0.1-0.5,0.1-1,0.1-1.6v-2.2
		c0-0.8,0-1.3-0.1-1.8c0.3,0.1,0.7,0.1,1.4,0.1h1.1c-0.3-0.7-0.6-1.1-1.1-1.8l0.9-0.4c0.6,0.8,0.9,1.3,1.2,2.1H42z M37.5,256
		c0-0.7,0-1.2,0-1.6c0.3,0,0.8,0,1.4,0h4.5c0.7,0,1.1,0,1.4-0.1c0,0.4-0.1,0.8-0.1,1.6v3c0,0.7,0,1.1,0.1,1.6h-1v-0.7h-5.4v0.7h-1
		c0.1-0.5,0.1-1,0.1-1.5V256z M40.7,252.5v-3.8h-3v3.8H40.7z M39.4,252c-0.5-1.3-0.6-1.7-1.2-2.5l0.8-0.3c0.5,0.8,0.8,1.3,1.2,2.4
		L39.4,252z M38.5,256.5h5.4v-1.3h-5.4V256.5z M38.5,258.9h5.4v-1.6h-5.4V258.9z M44.7,252.5v-3.8h-3.2v3.8H44.7z M42.2,251.6
		c0.5-0.8,0.8-1.4,1.2-2.4l0.8,0.4c-0.4,1.1-0.7,1.6-1.3,2.4L42.2,251.6z"/>
	<path id="XMLID_836_" class="st9" d="M50.6,258.4c0,0.8,0,1.4,0.1,1.9h-1.2c0.1-0.6,0.1-1.1,0.1-2v-5c0-0.6,0-1.1,0-1.9
		c-0.5,0.9-0.8,1.3-1.3,2c-0.2-0.4-0.4-0.6-0.7-0.9c1.3-1.4,2.2-3,2.9-4.9c0.3-0.9,0.4-1.2,0.5-1.8l1.1,0.3
		c-0.1,0.3-0.2,0.5-0.3,0.9c-0.3,0.8-0.4,1.1-0.5,1.4c-0.5,1.2-0.5,1.2-0.7,1.7V258.4z M56,249.9c0.2-0.9,0.3-0.9,0.4-1.6h-2.7
		c-0.5,0-1,0-1.5,0.1v-1.1c0.4,0.1,0.9,0.1,1.5,0.1h2.9c0.1-0.9,0.1-1.1,0.1-1.4c0,0,0-0.1,0-0.2l1.1,0.1c0,0.2,0,0.2-0.1,0.8
		c0,0.2,0,0.2-0.1,0.5c0,0.1,0,0.1,0,0.3h3.1c0.7,0,1.2,0,1.7-0.1v1.1c-0.5-0.1-1-0.1-1.7-0.1h-3.2c0,0.2-0.2,0.8-0.4,1.6h2.8
		c0.5,0,0.8,0,1.2,0c0,0.4-0.1,0.7-0.1,1.2v7.9h0.2c0.3,0,0.8,0,1.2-0.1v1.1c-0.5-0.1-1-0.1-1.7-0.1h-7.4c-0.6,0-1,0-1.6,0.1v-1.1
		C52,259,52.5,259,53,259h0.3v-7.9c0-0.5,0-0.9-0.1-1.2c0.3,0,0.7,0,1.2,0H56z M54.3,252.2h5.6v-1.5h-5.6V252.2z M54.3,254.5h5.6
		V253h-5.6V254.5z M54.3,256.7h5.6v-1.5h-5.6V256.7z M54.3,259h5.6v-1.5h-5.6V259z"/>
	<path id="XMLID_843_" class="st9" d="M72.8,252.6v1.1H64v-1.1H72.8z M72.8,255.8v1.1H64v-1.1H72.8z"/>
	<path id="XMLID_846_" class="st9" d="M81.7,247.3c-0.3-0.4-0.8-0.8-1.2-1.2l0.7-0.6c0.9,0.8,1.3,1.2,1.6,1.7h3.5c0.7,0,1,0,1.5-0.1
		c0,0.3,0,0.6,0,0.9v2.2c0,0.4,0,0.7,0,1c-0.5,0-0.9-0.1-1.5-0.1H77c0,2.8-0.1,4.1-0.5,5.4c-0.3,1.4-0.7,2.3-1.5,3.5
		c-0.3-0.3-0.5-0.5-0.9-0.7c0.8-1,1.2-1.9,1.4-3.2c0.3-1.2,0.4-3.5,0.4-5.5v-2.1c0-0.7,0-1.1-0.1-1.5c0.5,0,1,0.1,1.8,0.1
		L81.7,247.3z M79,254.1c-0.7,0-1.1,0-1.6,0.1v-1c0.4,0.1,0.8,0.1,1.6,0.1h3.1c-0.4-0.6-0.6-0.9-0.9-1.3l0.8-0.5
		c0.6,0.9,0.8,1.2,1.1,1.8h3.6c0.8,0,1.2,0,1.6-0.1v1c-0.5,0-0.9-0.1-1.6-0.1h-4.9c-0.1,0.8-0.1,1-0.2,1.6h4c0.8,0,1.2,0,1.6-0.1
		c0,0.3-0.1,0.4-0.1,0.9c-0.2,2.2-0.4,2.9-0.8,3.3c-0.3,0.3-0.8,0.4-1.6,0.4c-0.7,0-1.1,0-2.1-0.1c0-0.4-0.1-0.6-0.2-1
		c0.9,0.2,1.5,0.2,2.3,0.2c0.8,0,0.9-0.1,1.1-0.5c0.1-0.4,0.2-1.2,0.3-2.2h-4.7c-0.7,1.8-2,3.1-4,4c-0.2-0.4-0.3-0.6-0.6-0.9
		c1.3-0.5,2.3-1.2,3-2c0.8-1,1.1-2,1.2-3.5H79z M77.1,250.5h9.8v-2.3h-9.8V250.5z"/>
	<path id="XMLID_850_" class="st9" d="M97.2,252c-0.8,1-0.9,1.1-1.6,2c1.3-0.1,2.3-0.2,2.9-0.2c0.9,0,1.9-0.1,2.9-0.2
		c-0.4-0.3-0.6-0.5-1.2-1l0.8-0.4c1.3,1,1.8,1.4,2.9,2.5l-0.8,0.6c-0.5-0.6-0.7-0.8-0.9-1c-2.6,0.2-2.6,0.2-4.7,0.3
		c-2,0.2-2,0.2-2.5,0.2c-0.5,0.1-0.5,0.1-0.8,0.1l-0.2-0.9c0.5-0.2,1.2-0.9,2.1-2.1H93c-0.1,1.8-0.3,3.3-0.5,4.5
		c-0.3,1.4-0.7,2.4-1.4,3.6c-0.2-0.3-0.5-0.6-0.9-0.8c0.6-1,0.9-1.7,1.2-2.7c0.4-1.8,0.7-4.4,0.7-8.2c0-1,0-1.5-0.1-2
		c0.6,0.1,0.9,0.1,1.9,0.1h8.3c0.8,0,1.2,0,1.7-0.1c0,0.5,0,0.6,0,1.1v1.4c0,0.5,0,0.7,0,1c-0.6,0-1.1,0-1.6,0H93c0,0.6,0,1,0,1.2
		h9.6c1,0,1.4,0,1.9-0.1v1c-0.5-0.1-0.9-0.1-1.8-0.1H97.2z M102.1,256.3c1,0,1.2,0,1.7-0.1v1c-0.5-0.1-0.9-0.1-1.7-0.1h-3.2v1.8h3.9
		c1.2,0,1.6,0,2-0.1v1.1c-0.5-0.1-1-0.1-2-0.1h-8.4c-0.8,0-1.5,0-1.9,0.1v-1.1c0.4,0.1,0.8,0.1,1.9,0.1h3.6v-1.8h-2.6
		c-0.8,0-1.2,0-1.7,0.1v-1c0.4,0.1,0.7,0.1,1.7,0.1h2.6v-0.1c0-0.6,0-0.9-0.1-1.3H99c-0.1,0.4-0.1,0.7-0.1,1.3v0.1H102.1z
		 M102.9,249v-1.6H93v1.6H102.9z"/>
	<path id="XMLID_854_" class="st9" d="M113,247.4c0-0.7,0-1.1-0.1-1.5h1.3c-0.1,0.4-0.1,0.8-0.1,1.5v4h4.2v-3c0-0.4,0-0.8-0.1-1.2
		h1.2c-0.1,0.5-0.1,0.8-0.1,1.2v3.2c0,0.3,0,0.5,0,0.8c-0.3,0-0.7,0-1,0h-4.3v6h4.8v-3.2c0-0.6,0-1-0.1-1.4h1.2
		c-0.1,0.4-0.1,0.8-0.1,1.4v3.7c0,0.6,0,0.9,0.1,1.3h-1.2v-0.9h-10.3c-0.5,0-0.9,0-1.3,0.1c0-0.4,0.1-0.7,0.1-1.2v-3
		c0-0.6,0-1-0.1-1.4h1.2c-0.1,0.4-0.1,0.8-0.1,1.4v3.2h4.6v-6h-4c-0.3,0-0.7,0-1,0c0-0.3,0-0.5,0-0.8v-3.2c0-0.4,0-0.8-0.1-1.2h1.2
		c0,0.3-0.1,0.7-0.1,1.2v3h3.9V247.4z"/>
	<path id="XMLID_856_" class="st9" d="M133.5,251.6c0.7,0,1,0,1.5-0.1v1c-0.4-0.1-0.7-0.1-1.5-0.1h-3.1v1.3h3.7c0.7,0,1.2,0,1.6-0.1
		v1c-0.5-0.1-0.9-0.1-1.6-0.1h-8.1c-0.5,0-0.9,0-1.5,0c0-0.4,0-0.8,0-1.4v-2.4c0-0.7,0-1.3,0.1-1.6c-0.5,0.7-0.9,1.1-1.6,1.7
		c-0.1-0.3-0.4-0.6-0.6-0.8c1.1-0.8,2-1.7,2.8-2.9c0.4-0.6,0.6-1.1,0.7-1.5l1,0.4c-0.1,0.1-0.1,0.1-0.1,0.2c-0.2,0.4-0.6,1-0.8,1.2
		h4.1c-0.4-0.6-0.7-1-1.1-1.3l0.8-0.5c0.4,0.5,0.9,1.1,1.4,1.8h2.9c0.7,0,1.1,0,1.6-0.1v1c-0.5-0.1-0.8-0.1-1.5-0.1h-3.8v1.2h3.1
		c0.6,0,0.9,0,1.4-0.1v1c-0.4-0.1-0.7-0.1-1.4-0.1h-3.1v1.2H133.5z M133.8,255.7c0.6,0,1,0,1.4-0.1c-0.1,0.4-0.1,0.8-0.1,1.4v1.9
		c0,0.6,0,1,0.1,1.5H134v-0.8h-8.8v0.8h-1.1c0.1-0.4,0.1-0.9,0.1-1.5v-1.9c0-0.5,0-0.9-0.1-1.4c0.4,0,0.8,0.1,1.4,0.1H133.8z
		 M134,258.7v-2.1h-8.8v2.1H134z M125.6,248.4v1.2h3.9v-1.2H125.6z M129.5,250.4h-3.9v1.2h3.9V250.4z M125.6,252.4v1.3h3.9v-1.3
		H125.6z"/>
	<path id="XMLID_863_" class="st9" d="M138.9,248.6c0-0.6,0-0.9,0-1.5c0.3,0,0.8,0,1.5,0h1.7c0.7,0,1.1,0,1.5,0c0,0.4,0,0.8,0,1.5
		v8.9c0,0.6,0,0.9,0.1,1.4h-1v-0.9h-2.6v1.5h-1.1c0.1-0.5,0.1-1,0.1-1.7V248.6z M139.9,251.9h2.6V248h-2.6V251.9z M139.9,257h2.6
		v-4.3h-2.6V257z M150.8,258.7c0,1.1-0.3,1.3-1.8,1.3c-0.7,0-1.2,0-2-0.1c0-0.4-0.1-0.7-0.3-1.1c1,0.1,1.4,0.2,2.2,0.2
		c0.7,0,0.8-0.1,0.8-0.4v-7.9h-4c-0.7,0-1.3,0-1.7,0.1v-1.1c0.4,0.1,1,0.1,1.7,0.1h4v-1.8c0-0.8,0-1.4-0.1-1.9h1.2
		c-0.1,0.5-0.1,1.1-0.1,1.9v1.8h0.5c0.7,0,1.1,0,1.5-0.1v1.1c-0.5,0-1-0.1-1.5-0.1h-0.5V258.7z M145.6,252.1
		c1.1,1.3,1.6,2.1,2.4,3.5l-0.9,0.6c-0.7-1.4-1.3-2.4-2.3-3.6L145.6,252.1z"/>
	<path id="XMLID_869_" class="st9" d="M158.8,248.4c0.8,0,1.3,0,1.4,0c0,0.4,0,0.8,0,1.4v8.1c0,0.7,0,1.3,0.1,1.6h-1.1v-1h-3.1v1.4
		H155c0.1-0.4,0.1-1,0.1-2v-8.1c0-0.8,0-1.1-0.1-1.5c0.3,0,0.6,0,1.4,0h0.3c0.3-0.8,0.6-1.6,0.7-2.4l1.1,0.2
		c-0.3,0.9-0.6,1.7-0.8,2.2H158.8z M156.1,252.8h3.1v-3.6h-3.1V252.8z M156.1,257.6h3.1v-3.9h-3.1V257.6z M167.2,248.4
		c0.6,0,1.1,0,1.4-0.1c0,0.3,0,0.4-0.1,1c-0.1,6.3-0.4,8.5-0.9,9.8c-0.3,0.7-0.8,1-1.8,1c-0.6,0-1,0-2-0.1c0-0.5-0.1-0.7-0.3-1.1
		c1,0.2,1.7,0.3,2.3,0.3c0.6,0,0.8-0.1,1-0.7c0.3-0.7,0.5-2.3,0.6-4.4c0.1-1.3,0.1-2.4,0.1-4.7h-4.6c-0.5,1.1-1,1.8-1.8,2.9
		c-0.2-0.3-0.5-0.5-0.8-0.7c1-1,1.8-2.4,2.4-4c0.2-0.6,0.4-1.2,0.4-1.6l1.1,0.2c0,0.1-0.1,0.3-0.2,0.6c-0.2,0.6-0.4,1-0.6,1.6H167.2
		z M164.6,255.9c-0.9-1.9-1.5-2.9-2.4-4l0.8-0.5c1,1.2,1.7,2.3,2.5,4L164.6,255.9z"/>
	<path id="XMLID_875_" class="st9" d="M173.6,250.3c0.6,0,1,0,1.3-0.1v1.1c-0.4,0-0.7-0.1-1.3-0.1h-0.4v4.9c0.5-0.2,0.8-0.3,1.9-0.8
		l0,1c-0.8,0.4-1.4,0.7-2.5,1.1c-0.3,0.1-0.3,0.1-1,0.4c-0.1,0-0.1,0-0.6,0.3c-0.2,0.1-0.2,0.1-0.3,0.1l-0.2-1.1
		c0.4-0.1,0.9-0.2,1.9-0.6v-5.3h-0.4c-0.6,0-1,0-1.3,0.1v-1.1c0.4,0.1,0.7,0.1,1.3,0.1h0.4v-2.7c0-0.6,0-1-0.1-1.5h1.2
		c-0.1,0.5-0.1,0.8-0.1,1.5v2.7H173.6z M180.5,247.9c0.5-0.7,0.8-1.2,1.2-2.2l1,0.4c-0.5,1-0.8,1.3-1.1,1.8h1.2c0.8,0,1.2,0,1.4-0.1
		c0,0.6,0,1.1,0,1.8v2.1c0,0.8,0,1.2,0,1.7c-0.5,0-0.9-0.1-1.4-0.1h-6.1c-0.5,0-0.9,0-1.3,0.1c0.1-0.5,0.1-1,0.1-1.6v-2.2
		c0-0.8,0-1.3-0.1-1.8c0.3,0.1,0.7,0.1,1.4,0.1h1.1c-0.3-0.7-0.6-1.1-1.1-1.8l0.9-0.4c0.6,0.8,0.9,1.3,1.2,2.1H180.5z M176,256
		c0-0.7,0-1.2,0-1.6c0.3,0,0.8,0,1.4,0h4.5c0.7,0,1.1,0,1.4-0.1c0,0.4-0.1,0.8-0.1,1.6v3c0,0.7,0,1.1,0.1,1.6h-1v-0.7h-5.4v0.7h-1
		c0.1-0.5,0.1-1,0.1-1.5V256z M179.2,252.5v-3.8h-3v3.8H179.2z M177.9,252c-0.5-1.3-0.6-1.7-1.2-2.5l0.8-0.3
		c0.5,0.8,0.8,1.3,1.2,2.4L177.9,252z M176.9,256.5h5.4v-1.3h-5.4V256.5z M176.9,258.9h5.4v-1.6h-5.4V258.9z M183.2,252.5v-3.8h-3.2
		v3.8H183.2z M180.7,251.6c0.5-0.8,0.8-1.4,1.2-2.4l0.8,0.4c-0.4,1.1-0.7,1.6-1.3,2.4L180.7,251.6z"/>
	<path id="XMLID_885_" class="st9" d="M189.1,258.4c0,0.8,0,1.4,0.1,1.9H188c0.1-0.6,0.1-1.1,0.1-2v-5c0-0.6,0-1.1,0-1.9
		c-0.5,0.9-0.8,1.3-1.3,2c-0.2-0.4-0.4-0.6-0.7-0.9c1.3-1.4,2.2-3,2.9-4.9c0.3-0.9,0.4-1.2,0.5-1.8l1.1,0.3
		c-0.1,0.3-0.2,0.5-0.3,0.9c-0.3,0.8-0.4,1.1-0.5,1.4c-0.5,1.2-0.5,1.2-0.7,1.7V258.4z M194.5,249.9c0.2-0.9,0.3-0.9,0.4-1.6h-2.7
		c-0.5,0-1,0-1.5,0.1v-1.1c0.4,0.1,0.9,0.1,1.5,0.1h2.9c0.1-0.9,0.1-1.1,0.1-1.4c0,0,0-0.1,0-0.2l1.1,0.1c0,0.2,0,0.2-0.1,0.8
		c0,0.2,0,0.2-0.1,0.5c0,0.1,0,0.1,0,0.3h3.1c0.7,0,1.2,0,1.7-0.1v1.1c-0.5-0.1-1-0.1-1.7-0.1h-3.2c0,0.2-0.2,0.8-0.4,1.6h2.8
		c0.5,0,0.8,0,1.2,0c0,0.4-0.1,0.7-0.1,1.2v7.9h0.2c0.3,0,0.8,0,1.2-0.1v1.1c-0.5-0.1-1-0.1-1.7-0.1h-7.4c-0.6,0-1,0-1.6,0.1v-1.1
		c0.4,0.1,0.9,0.1,1.3,0.1h0.3v-7.9c0-0.5,0-0.9-0.1-1.2c0.3,0,0.7,0,1.2,0H194.5z M192.8,252.2h5.6v-1.5h-5.6V252.2z M192.8,254.5
		h5.6V253h-5.6V254.5z M192.8,256.7h5.6v-1.5h-5.6V256.7z M192.8,259h5.6v-1.5h-5.6V259z"/>
	<path id="XMLID_892_" class="st9" d="M207.7,257.8c0,1.3-1.1,2.4-2.4,2.4s-2.4-1.1-2.4-2.4s1.1-2.4,2.4-2.4
		S207.7,256.5,207.7,257.8z M203.8,257.8c0,0.8,0.7,1.5,1.5,1.5s1.5-0.7,1.5-1.5s-0.7-1.5-1.5-1.5S203.8,257,203.8,257.8z"/>
</g>
<g id="XMLID_3_">
	<path id="XMLID_690_" class="st9" d="M3.5,20.6c-0.8,1.2-1.6,2.1-2.8,3.1c-0.2-0.4-0.4-0.6-0.7-0.9c1.5-1.1,2.5-2.3,3.3-3.9
		c0.2-0.5,0.4-0.8,0.4-1.1l1.1,0.3c-0.2,0.3-0.3,0.4-0.7,1.2c-0.1,0.1-0.1,0.2-0.2,0.3h8c0.9,0,1.5,0,2-0.1v1.1
		c-0.6-0.1-1.2-0.1-2-0.1H3.5z M12.2,29.7c0.7,0,1.1,0,1.5-0.1v1.1c-0.4-0.1-0.8-0.1-1.5-0.1h-0.6c-0.2,1-0.3,1.3-0.6,1.6
		c-0.3,0.3-0.6,0.4-1.5,0.4c-0.5,0-0.8,0-1.6-0.1c0-0.4-0.1-0.7-0.2-1.1c0.9,0.1,1.4,0.2,1.8,0.2c0.4,0,0.6-0.1,0.8-0.4
		c0.1-0.2,0.1-0.2,0.2-0.7H2.4c-0.7,0-0.7,0-0.9,0c0.4-1.1,0.7-2.1,1.1-4H1.6c-0.8,0-1.2,0-1.5,0.1v-1.1c0.4,0.1,0.8,0.1,1.6,0.1h1
		c0.2-1,0.3-2.6,0.3-3.3c0-0.1,0-0.2,0-0.4c0.1,0,0.1,0,0.2,0c0.3,0,0.6,0,1,0h6.9c0.5,0,0.9,0,1.3-0.1c0,0.4-0.1,0.5-0.1,1.2
		c0,0.8-0.1,1.6-0.2,2.5H13c0.7,0,1.1,0,1.5-0.1v1.1c-0.4-0.1-0.8-0.1-1.5-0.1h-0.9c-0.1,0.9-0.2,2.1-0.4,3H12.2z M10.7,29.7
		c0.2-1.1,0.2-1.1,0.4-3H3.5c-0.2,0.8-0.4,1.9-0.8,3H10.7z M11.1,25.7c0.1-1,0.1-1.3,0.1-2.7L4,23c-0.2,1.6-0.2,1.9-0.3,2.7H11.1z
		 M6.7,26.9c0.6,0.6,1.1,1.1,1.7,1.8l-0.8,0.7c-0.6-0.8-1-1.3-1.7-1.9L6.7,26.9z M6.9,23.2c0.8,0.7,1,0.9,1.7,1.7l-0.8,0.6
		c-0.7-0.9-0.8-1-1.7-1.8L6.9,23.2z"/>
	<path id="XMLID_697_" class="st9" d="M28.7,27.6c0.7,0,1.2,0,1.6-0.1v1.2c-0.5-0.1-1-0.1-1.6-0.1h-4v2.6c0,0.7,0,1.1,0.1,1.5h-1.3
		c0.1-0.4,0.1-0.8,0.1-1.5v-2.6h-5.8c-0.7,0-1.2,0-1.6,0.1v-1.2c0.5,0.1,0.9,0.1,1.6,0.1H19v-3.2c0-0.4,0-0.6,0-0.9
		c0.3,0,0.7,0,1.1,0h3.5v-2.6h-3.8c-0.9,1.5-1.6,2.3-2.7,3.3c-0.3-0.4-0.4-0.5-0.8-0.8c1.6-1.3,2.4-2.5,3.2-4.3
		c0.2-0.5,0.3-0.8,0.4-1.2l1.1,0.3c-0.1,0.3-0.2,0.3-0.7,1.5c0,0.1-0.1,0.1-0.1,0.2h7.9c0.7,0,1,0,1.4-0.1V21
		c-0.4-0.1-0.8-0.1-1.4-0.1h-3.6v2.6h2.9c0.7,0,1,0,1.4-0.1v1.1c-0.4,0-0.8-0.1-1.4-0.1h-2.9v3.1H28.7z M23.6,24.5h-3.5v3.1h3.5
		V24.5z"/>
	<path id="XMLID_700_" class="st9" d="M33.8,25.8c0-0.9,0-1.6,0-2.4c-0.5,0.9-0.9,1.6-1.5,2.4c-0.2-0.4-0.4-0.7-0.6-0.9
		c1.2-1.3,2-2.9,2.7-4.7c0.3-0.8,0.5-1.6,0.5-2l1.1,0.4c-0.1,0.2-0.1,0.2-0.5,1.4c-0.2,0.5-0.5,1.2-0.8,2.1v8.8c0,1,0,1.4,0.1,2
		h-1.1c0.1-0.6,0.1-1.1,0.1-2V25.8z M45.5,32.5c-0.4-0.7-0.6-1-0.8-1.3c-1,0.2-1,0.2-2.3,0.3c-3,0.3-3.3,0.4-4.7,0.5
		c-0.4,0-0.6,0.1-1,0.1l-0.2-1c0.5-0.1,0.8-0.4,1.4-1.2c0.5-0.8,0.8-1.4,1.4-2.5h-2c-0.7,0-1.1,0-1.5,0.1v-1.1
		c0.4,0.1,0.7,0.1,1.5,0.1H45c0.7,0,1.1,0,1.5-0.1v1.1c-0.4-0.1-0.9-0.1-1.5-0.1h-4.6c-0.1,0.3-0.2,0.3-0.4,0.7
		c-0.5,1.1-1.2,2.2-2,3c0.6-0.1,0.6-0.1,1.9-0.2c2.1-0.2,2.8-0.3,4.2-0.5c-0.6-0.8-0.8-1-1.5-1.8l0.8-0.5c1.2,1.2,1.8,2,2.9,3.7
		L45.5,32.5z M40.7,19.5c0-0.6,0-0.9-0.1-1.3h1.2c-0.1,0.3-0.1,0.7-0.1,1.3v1.8h1.2c0.5-0.6,1.1-1.8,1.4-2.7l1,0.5
		c-0.1,0.2-0.2,0.4-0.3,0.5c-0.6,1-0.6,1-1.1,1.7h0.9c0.8,0,1.2,0,1.7-0.1c0,0.3,0,0.6,0,1v0.6c0,0.5,0,0.8,0,1h-1v-1.7H37V24h-1
		c0-0.4,0.1-0.7,0.1-1.1v-0.6c0-0.5,0-0.7,0-1c0.4,0,0.6,0,1.5,0h3.2V19.5z M38,18.6c0.7,0.9,1.1,1.4,1.5,2.1l-1,0.5
		c-0.4-1-0.7-1.4-1.4-2.1L38,18.6z M37.7,23.8c0.4,0,0.7,0.1,1.2,0.1h4.6c0.5,0,0.9,0,1.2-0.1v1.1c-0.4,0-0.7-0.1-1.2-0.1H39
		c-0.5,0-0.8,0-1.2,0.1V23.8z"/>
	<path id="XMLID_706_" class="st9" d="M51.5,30.7c0,0.7,0,1.3,0.1,1.9h-1.2c0.1-0.6,0.1-1.1,0.1-1.9v-5.3c0-0.7,0-1.2,0.1-1.9
		c-0.7,1.1-1,1.6-1.8,2.5c0-0.1-0.1-0.1-0.1-0.2c-0.2-0.3-0.2-0.3-0.6-0.7c1.4-1.5,2.3-2.9,3.2-4.9c0.4-0.9,0.6-1.6,0.7-2l1.2,0.4
		c-0.1,0.2-0.2,0.4-0.4,0.9c-0.2,0.6-0.7,1.7-1.2,2.6V30.7z M54.1,22.9c-0.7,0-1.3,0-1.7,0.1v-1.1c0.4,0.1,1,0.1,1.7,0.1h5.1v-1.8
		c0-0.8,0-1.4-0.1-1.9h1.2c-0.1,0.5-0.1,1.1-0.1,1.9V22h0.8c0.6,0,1.1,0,1.5-0.1V23c-0.5,0-1-0.1-1.5-0.1h-0.8v8
		c0,1.1-0.3,1.3-1.8,1.3c-0.7,0-1.2,0-2-0.1c-0.1-0.4-0.1-0.7-0.3-1.1c1,0.1,1.4,0.2,2.2,0.2c0.7,0,0.8-0.1,0.8-0.4v-7.9H54.1z
		 M54.3,24.3c1.2,1.3,1.8,2.1,2.7,3.6l-0.9,0.7c-0.8-1.5-1.6-2.6-2.6-3.7L54.3,24.3z"/>
	<path id="XMLID_710_" class="st9" d="M70.7,19.6c0-0.5,0-0.9-0.1-1.5h1.3c-0.1,0.5-0.1,0.9-0.1,1.4V21h4.7c0.8,0,1.3,0,1.8-0.1V22
		C77.5,22,77.1,22,76.4,22h-4.3c0.8,1.4,1.8,2.8,2.8,3.9c1.2,1.3,2.4,2.2,3.8,3c-0.3,0.4-0.5,0.6-0.7,1c-1.3-0.9-2.3-1.7-3.3-2.8
		c-1.3-1.4-2.2-2.8-3-4.5c0,1,0.1,1.6,0.1,2.1v3.6h1.7c0.8,0,1.1,0,1.6-0.1v1.1c-0.5-0.1-0.9-0.1-1.6-0.1h-1.7v1.5
		c0,0.8,0,1.3,0.1,1.8h-1.3c0.1-0.6,0.1-1.1,0.1-1.9v-1.5h-1.5c-0.8,0-1.1,0-1.6,0.1v-1.1c0.4,0.1,0.8,0.1,1.6,0.1h1.6v-3.6
		c0-0.6,0-1.2,0.1-2.1c-0.7,1.7-1.6,3.1-3,4.6c-1,1.1-1.9,1.9-3,2.7c-0.2-0.4-0.4-0.6-0.8-0.9c1.4-0.8,2.5-1.8,3.7-3.2
		c1.2-1.4,2-2.5,2.6-3.8h-4.1c-0.6,0-1.2,0-1.8,0.1v-1.2C65,21,65.5,21,66.2,21h4.5V19.6z"/>
	<path id="XMLID_712_" class="st9" d="M87.8,18.6c0.8,1,1.3,1.5,2.2,2.3c1.3,1,3,2,4.6,2.6c-0.3,0.4-0.4,0.7-0.6,1.1
		c-1.2-0.6-1.9-0.9-2.9-1.6v0.9c-0.4-0.1-0.8-0.1-1.5-0.1h-2v2.2H92c0.7,0,1.1,0,1.6-0.1v1.1c-0.5-0.1-0.9-0.1-1.6-0.1h-4.3v4.2h4.7
		c0.7,0,1.2,0,1.8-0.1v1.2C93.7,32,93.1,32,92.4,32H82.3c-0.6,0-1.2,0-1.8,0.1V31c0.5,0.1,1.1,0.1,1.8,0.1h4.4v-4.2h-4
		c-0.6,0-1.1,0-1.6,0.1v-1.1c0.4,0.1,0.9,0.1,1.6,0.1h4v-2.2h-1.7c-0.7,0-1.1,0-1.5,0.1v-1c-0.6,0.4-0.6,0.4-2.8,1.6
		c-0.2-0.2-0.2-0.3-0.3-0.4c0,0-0.1-0.1-0.2-0.2c0-0.1-0.1-0.2-0.2-0.3c1.6-0.6,2.8-1.3,3.8-2.2c1.4-1.1,2.3-2.2,3.3-3.5l0.9,0.5
		L87.8,18.6z M83.5,27.3c0.6,1,0.9,1.7,1.4,2.9L84,30.6c-0.4-1.1-0.8-2-1.4-2.8L83.5,27.3z M89.7,22.8c0.6,0,1,0,1.3-0.1
		c-1.5-1-2.8-2.2-3.8-3.4c-1.1,1.4-2.4,2.5-3.7,3.4c0,0,0,0,0.2,0c0.2,0,0.7,0,1.3,0H89.7z M92,27.8c-0.7,1.5-1,2-1.7,3l-0.9-0.4
		c0.7-0.9,1.2-1.8,1.6-3L92,27.8z"/>
	<path id="XMLID_717_" class="st9" d="M103,24.3c0.7,0,1.2,0,1.5-0.1v1.1c-0.3,0-0.8-0.1-1.5-0.1h-5.4c-0.7,0-1.1,0-1.5,0.1v-1.1
		c0.4,0.1,0.8,0.1,1.5,0.1h3.5c0.6-1.2,0.8-1.9,1.2-3.1l0.9,0.4c-0.4,1.3-0.7,1.9-1.1,2.7H103z M102.8,19.9c0.7,0,1.1,0,1.5-0.1v1.1
		c-0.3-0.1-0.8-0.1-1.5-0.1H98c-0.7,0-1.1,0-1.4,0.1v-1.1c0.4,0.1,0.8,0.1,1.5,0.1h1.9c-0.2-0.6-0.4-1-0.7-1.6l0.9-0.3
		c0.4,0.7,0.6,1.3,0.8,2H102.8z M98.2,32.6h-1.1c0-0.4,0.1-0.7,0.1-1.4v-3.2c0-0.7,0-1,0-1.3c0.3,0,0.7,0,1.3,0h3.8
		c0.6,0,0.9,0,1.2,0c0,0.3,0,0.5,0,1.3v3.4c0,0.6,0,0.9,0.1,1.3h-1.1v-1h-4.1V32.6z M98.5,21.1c0.5,1,0.7,1.5,1.1,2.7l-0.9,0.3
		c-0.3-1-0.5-1.6-1-2.7L98.5,21.1z M98.2,30.7h4.1v-3.2h-4.1V30.7z M110.6,19.3c-0.1,0.2-0.1,0.2-0.7,1.4c-0.4,1-1,2.1-1.6,3.2
		c1,1.1,1.4,1.6,1.8,2.5c0.3,0.7,0.5,1.5,0.5,2.2c0,0.9-0.3,1.5-0.8,1.8c-0.3,0.2-0.8,0.2-1.4,0.2c-0.5,0-0.8,0-1.3-0.1
		c0-0.4-0.1-0.7-0.2-1.1c0.6,0.1,1,0.2,1.5,0.2c0.9,0,1.2-0.3,1.2-1.1c0-0.7-0.2-1.4-0.5-2.2c-0.4-0.9-0.8-1.4-1.9-2.3
		c0.9-1.5,1.6-2.8,2.2-4.5h-3.2v11.4c0,0.8,0,1.3,0.1,1.8H105c0.1-0.5,0.1-1,0.1-1.8V20.1c0-0.5,0-0.9-0.1-1.5c0.4,0,0.7,0,1.3,0
		h2.6c0.6,0,0.9,0,1.2-0.1L110.6,19.3z"/>
	<path id="XMLID_724_" class="st9" d="M118.1,18.6c-0.1,0.2-0.2,0.3-0.4,0.8c-1.2,2.5-2.8,4.3-5,6c-0.2-0.3-0.4-0.6-0.8-0.9
		c1.9-1.3,3.3-2.8,4.4-4.7c0.4-0.7,0.6-1.2,0.7-1.7L118.1,18.6z M118.7,24.9c-0.1,1.7-0.5,3-1.2,4.2c-0.8,1.4-2.1,2.5-4,3.5
		c-0.2-0.4-0.4-0.6-0.7-0.9c2-1,3.3-2,4-3.5c0.5-1,0.8-1.9,0.9-3.3h-1c-0.6,0-1.2,0-1.6,0.1v-1.1c0.5,0.1,1,0.1,1.7,0.1h5.3
		c0.7,0,1.2,0,1.7-0.1c0,0.3,0,0.4-0.1,1.1c0,3.1-0.3,5.8-0.7,6.6c-0.3,0.5-0.6,0.6-1.6,0.6c-0.6,0-1.1,0-2.1-0.1
		c0-0.4-0.1-0.7-0.3-1.1c0.9,0.2,1.6,0.3,2.3,0.3c0.5,0,0.7-0.1,0.8-0.4c0.3-1,0.5-3.1,0.5-5.9H118.7z M121.6,18.3
		c0.1,0.4,0.3,0.7,0.6,1.3c1.2,2.1,2.5,3.5,4.7,5c-0.3,0.3-0.5,0.6-0.8,1c-2.5-1.9-3.9-3.5-5.4-6.4c-0.1-0.1-0.2-0.3-0.3-0.4
		L121.6,18.3z"/>
	<path id="XMLID_728_" class="st9" d="M140.6,20.4c0.8,0,1.3,0,1.7-0.1v1.1c-0.4,0-1-0.1-1.7-0.1h-6.9c-0.5,1.1-1.5,2.6-2.2,3.5v6.1
		c0,0.7,0,1.2,0.1,1.6h-1.2c0.1-0.4,0.1-0.9,0.1-1.6V26c-0.7,0.8-1,1.1-1.8,1.8c-0.2-0.3-0.4-0.5-0.8-0.8c1.1-0.8,1.8-1.5,2.6-2.4
		c0-0.4,0-0.7-0.1-1h0.9c0.6-0.8,0.8-1.1,1.3-2.2h-2.5c-0.8,0-1.3,0-1.8,0.1v-1.1c0.4,0.1,0.9,0.1,1.8,0.1h3c0.5-1,0.7-1.8,0.8-2.4
		l1.2,0.2c-0.1,0.2-0.2,0.3-0.3,0.7c-0.2,0.4-0.5,1.1-0.6,1.4H140.6z M140.1,25.5c0.8,0,1.1,0,1.5-0.1v1.1c-0.4,0-0.8-0.1-1.5-0.1
		h-2.5v4.5h3.2c0.8,0,1.2,0,1.6-0.1v1.1c-0.6-0.1-1-0.1-1.6-0.1h-6.9c-0.6,0-1.1,0-1.6,0.1v-1.1c0.5,0,1,0.1,1.6,0.1h2.7v-4.5h-2.1
		c-0.7,0-1.1,0-1.5,0.1v-1.1c0.4,0.1,0.8,0.1,1.5,0.1h2.1v-1.4c0-0.9,0-1.3-0.1-1.7h1.2c-0.1,0.4-0.1,0.8-0.1,1.7v1.3H140.1z"/>
	<path id="XMLID_731_" class="st9" d="M147.7,22.9c0,0.5,0,0.7,0.1,1h-1.1c0.1-0.2,0.1-0.5,0.1-0.9v-1.2c0-0.3,0-0.7,0.1-1
		c-0.8,0.6-1.5,1.1-2.3,1.5c-0.2-0.4-0.3-0.4-0.6-0.8c1.9-0.9,3.7-2.4,4.2-3.5l1,0.5c-0.1,0.1-0.1,0.1-0.2,0.2
		c-0.4,0.5-0.7,0.8-1.2,1.3V22.9z M151.8,26c0,0.3,0,0.5-0.1,1.2c0,1.5-0.2,2.2-0.7,2.9c-0.5,0.7-1.2,1.2-2.4,1.6
		c-0.8,0.3-1.4,0.4-2.5,0.6c-0.1,0-0.6,0.1-1.4,0.2c-0.1-0.4-0.2-0.6-0.5-1c1.8,0,3.1-0.3,4.4-0.8c1-0.4,1.6-1,1.9-1.8
		c0.1-0.4,0.2-1,0.2-1.9c0-0.5,0-0.7,0-1H151.8z M146.2,30.1c0.1-0.5,0.1-1,0.1-1.8v-2.2c0-1,0-1.2,0-1.7c0.4,0,1,0.1,1.8,0.1h6.5
		c0.8,0,1.4,0,1.8-0.1c0,0.4-0.1,0.9-0.1,1.6v2.3c0,0.9,0,1.3,0.1,1.8h-1.2c0.1-0.6,0.1-1,0.1-1.8v-2.9h-7.9v2.9
		c0,0.6,0,1.4,0.1,1.8H146.2z M150,21.4c-0.6,0-0.9,0.1-1.2,0.2l-0.1-1.1c0.2,0,0.4,0,0.6,0c0.3,0,0.5,0,0.7,0l1.8-0.2
		c-0.3-0.5-0.4-0.8-0.7-1.6c-0.1-0.2-0.1-0.2-0.1-0.4l1.1-0.2c0.1,0.7,0.4,1.4,0.8,2l3.9-0.4c0.8-0.1,1.2-0.1,1.6-0.3l0.1,1.1
		c-0.1,0-0.2,0-0.4,0c-0.3,0-0.7,0-1.3,0.1l-3.3,0.3c1,1,2.6,2,3.4,2c0.2,0,0.3-0.1,0.4-0.4c0.1-0.3,0.3-0.7,0.4-1.3
		c0.3,0.3,0.5,0.4,0.8,0.6c-0.4,1.7-0.7,2.1-1.5,2.1c-0.7,0-2-0.6-3.1-1.3c-0.6-0.4-1.1-0.9-1.5-1.5L150,21.4z M152.4,29.5
		c0.8,0.3,0.8,0.3,2.2,0.8c0.8,0.3,1,0.3,2.3,0.8c0.8,0.3,0.8,0.3,1.5,0.6l-0.4,0.9c-0.6-0.3-1.1-0.4-1.4-0.6
		c-1.6-0.7-2.4-1-4.6-1.7L152.4,29.5z M155.4,19.9c-0.8-0.6-1.1-0.8-2-1.2l0.7-0.5c1,0.5,1.4,0.7,2,1.2L155.4,19.9z"/>
	<path id="XMLID_738_" class="st9" d="M162.7,28c-0.5,1.6-1,2.5-1.8,3.6c-0.3-0.3-0.5-0.4-0.8-0.6c0.8-1,1.2-1.8,1.7-3.3L162.7,28z
		 M164.8,31.4c0,0.9-0.3,1.1-1.5,1.1c-0.2,0-0.5,0-1,0c0-0.5-0.1-0.7-0.2-1c0.4,0.1,0.9,0.1,1.3,0.1s0.5-0.1,0.5-0.3V27h-2.1
		c-0.7,0-1,0-1.4,0.1v-1c0.4,0.1,0.7,0.1,1.4,0.1h4.6c0.7,0,1.1,0,1.4-0.1v1c-0.4-0.1-0.8-0.1-1.4-0.1h-1.6V31.4z M166.1,19.8
		c0.8,0,1.2,0,1.6-0.1v1c-0.4-0.1-0.8-0.1-1.6-0.1h-1.5V22h1.2c0.9,0,1.1,0,1.5-0.1v0.9c-0.4,0-0.8-0.1-1.4-0.1h-3.6
		c-0.7,0-1.1,0-1.5,0.1v-0.9c0.3,0,0.6,0.1,1.5,0.1h1.4v-1.4H162c-0.8,0-1.2,0-1.6,0.1v-1c0.4,0.1,0.8,0.1,1.6,0.1h1.7v-0.4
		c0-0.5,0-0.8-0.1-1.2h1.1c-0.1,0.3-0.1,0.8-0.1,1.2v0.4H166.1z M167.1,24.9c-0.2,0-0.6-0.1-1-0.1H162c-0.4,0-0.8,0-1,0.1v-1
		c0.3,0,0.6,0.1,1.1,0.1h4.1c0.5,0,0.8,0,1-0.1V24.9z M166.3,27.6c0.5,0.8,0.8,1.3,1.2,2.2l-0.8,0.5c-0.4-1-0.6-1.5-1.1-2.3
		L166.3,27.6z M171.1,22.8c0,0.3,0,0.4,0,0.6c0,2.4,0.6,4.5,1.6,6.1c0.6,0.9,1.3,1.6,2.3,2.3c-0.3,0.3-0.4,0.4-0.7,1
		c-0.9-0.7-1.6-1.5-2.2-2.3c-0.8-1.2-1.2-2.3-1.5-4.1c-0.4,2.8-1.5,4.7-3.9,6.3c-0.3-0.4-0.4-0.5-0.8-0.8c0.8-0.5,1.1-0.8,1.6-1.2
		c0.9-0.9,1.5-1.9,1.9-3.2c0.4-1.2,0.5-2.4,0.5-3.9c0-0.3,0-0.4,0-0.7H171.1z M173,20.7c0.7,0,1,0,1.2-0.1l0.5,0.6
		c-0.1,0.3-0.2,0.4-0.4,1c-0.2,0.8-0.8,2-1.4,2.9c-0.3-0.2-0.5-0.4-0.8-0.5c0.6-0.8,0.9-1.6,1.5-3h-4.1c-0.4,1.3-0.9,2.1-1.5,3
		c-0.3-0.4-0.4-0.5-0.8-0.7c1.1-1.4,2-4.1,2.1-5.9l1.1,0.2c-0.1,0.3-0.1,0.4-0.2,0.9c-0.2,0.7-0.2,0.8-0.4,1.6H173z"/>
	<path id="XMLID_746_" class="st9" d="M177.8,25.8c0-0.9,0-1.6,0-2.4c-0.5,0.9-0.9,1.6-1.5,2.4c-0.2-0.4-0.4-0.7-0.6-0.9
		c1.2-1.3,2-2.9,2.7-4.7c0.3-0.8,0.5-1.6,0.5-2l1.1,0.4c-0.1,0.2-0.1,0.2-0.5,1.4c-0.2,0.5-0.5,1.2-0.8,2.1v8.8c0,1,0,1.4,0.1,2
		h-1.1c0.1-0.6,0.1-1.1,0.1-2V25.8z M189.5,32.5c-0.4-0.7-0.6-1-0.8-1.3c-1,0.2-1,0.2-2.3,0.3c-3,0.3-3.3,0.4-4.7,0.5
		c-0.4,0-0.6,0.1-1,0.1l-0.2-1c0.5-0.1,0.8-0.4,1.4-1.2c0.5-0.8,0.8-1.4,1.4-2.5h-2c-0.7,0-1.1,0-1.5,0.1v-1.1
		c0.4,0.1,0.7,0.1,1.5,0.1h7.7c0.7,0,1.1,0,1.5-0.1v1.1c-0.4-0.1-0.9-0.1-1.5-0.1h-4.6c-0.1,0.3-0.2,0.3-0.4,0.7
		c-0.5,1.1-1.2,2.2-2,3c0.6-0.1,0.6-0.1,1.9-0.2c2.1-0.2,2.8-0.3,4.2-0.5c-0.6-0.8-0.8-1-1.5-1.8l0.8-0.5c1.2,1.2,1.8,2,2.9,3.7
		L189.5,32.5z M184.7,19.5c0-0.6,0-0.9-0.1-1.3h1.2c-0.1,0.3-0.1,0.7-0.1,1.3v1.8h1.2c0.5-0.6,1.1-1.8,1.4-2.7l1,0.5
		c-0.1,0.2-0.2,0.4-0.3,0.5c-0.6,1-0.6,1-1.1,1.7h0.9c0.8,0,1.2,0,1.7-0.1c0,0.3,0,0.6,0,1v0.6c0,0.5,0,0.8,0,1h-1v-1.7H181V24h-1
		c0-0.4,0.1-0.7,0.1-1.1v-0.6c0-0.5,0-0.7,0-1c0.4,0,0.6,0,1.5,0h3.2V19.5z M182,18.6c0.7,0.9,1.1,1.4,1.5,2.1l-1,0.5
		c-0.4-1-0.7-1.4-1.4-2.1L182,18.6z M181.7,23.8c0.4,0,0.7,0.1,1.2,0.1h4.6c0.5,0,0.9,0,1.2-0.1v1.1c-0.4,0-0.7-0.1-1.2-0.1H183
		c-0.5,0-0.8,0-1.2,0.1V23.8z"/>
	<path id="XMLID_752_" class="st9" d="M194.4,25.2h-1.1c-0.5,0-0.8,0-1.2,0.1v-1c0.4,0.1,0.6,0.1,1.2,0.1h0.9c0.5,0,0.8,0,1.2-0.1
		c0,0.5-0.1,0.9-0.1,1.6v3.7c0.1,0.1,0.2,0.2,0.3,0.3c0.8,0.8,1,1,1.8,1.1c0.6,0.2,2,0.2,3.8,0.2c2.4,0,4.1-0.1,5.5-0.3
		c-0.2,0.4-0.3,0.6-0.4,1.1c-1.5,0.1-3.3,0.1-5.4,0.1c-2.1,0-3.5-0.1-4.2-0.4c-0.4-0.2-0.8-0.4-1-0.6c0,0-0.2-0.2-0.6-0.6
		c-0.2-0.2-0.3-0.3-0.5-0.3c-0.4,0-1.4,0.9-2.1,1.9l-0.7-0.8c1.2-1.2,2-1.8,2.5-2V25.2z M193.1,18.5c1.1,1.1,1.7,1.7,2.5,2.8
		l-0.8,0.7c-0.9-1.3-1.4-1.8-2.5-2.9L193.1,18.5z M200.7,25.7c0-1.2,0-1.6,0-2.2c0,0,0-0.1,0-0.1c-0.3,0.4-0.8,1-1.2,1.4
		c-0.7,0.8-1.4,1.4-2.7,2.3c-0.3-0.5-0.4-0.6-0.7-0.9c1.4-0.9,2.3-1.7,3.3-2.8c1-1.1,1.7-2.3,2.2-3.5h-3.4c-0.9,0-1.3,0-1.7,0.1V19
		c0.4,0.1,0.8,0.1,1.7,0.1h6.1c0.7,0,1.2,0,1.7-0.1v1.1c-0.6-0.1-1-0.1-1.7-0.1h-1.7c-0.4,0.9-0.6,1.3-1,1.9v6.4
		c0,0.7,0,1.2,0.1,1.8h-1.2c0.1-0.7,0.1-1.1,0.1-1.8V25.7z M202.7,22.5c1.7,1.5,2.8,2.7,3.7,4l-0.8,0.7c-1.4-1.9-2-2.6-3.6-4
		L202.7,22.5z"/>
	<path id="XMLID_757_" class="st9" d="M208.5,20.8c0-0.6,0-0.9,0-1.5c0.3,0,0.8,0,1.5,0h1.7c0.7,0,1.1,0,1.5,0c0,0.4,0,0.8,0,1.5
		v8.9c0,0.6,0,0.9,0.1,1.4h-1v-0.9h-2.6v1.5h-1.1c0.1-0.5,0.1-1,0.1-1.7V20.8z M209.5,24.1h2.6v-3.9h-2.6V24.1z M209.5,29.3h2.6V25
		h-2.6V29.3z M220.5,30.9c0,1.1-0.3,1.3-1.8,1.3c-0.7,0-1.2,0-2-0.1c0-0.4-0.1-0.7-0.3-1.1c1,0.1,1.4,0.2,2.2,0.2
		c0.7,0,0.8-0.1,0.8-0.4v-7.9h-4c-0.7,0-1.3,0-1.7,0.1v-1.1c0.4,0.1,1,0.1,1.7,0.1h4v-1.8c0-0.8,0-1.4-0.1-1.9h1.2
		c-0.1,0.5-0.1,1.1-0.1,1.9V22h0.5c0.7,0,1.1,0,1.5-0.1V23c-0.5,0-1-0.1-1.5-0.1h-0.5V30.9z M215.2,24.4c1.1,1.3,1.6,2.1,2.4,3.5
		l-0.9,0.6c-0.7-1.4-1.3-2.4-2.3-3.6L215.2,24.4z"/>
	<path id="XMLID_763_" class="st9" d="M4.5,44.6c0.8,0,1.3,0,1.4,0c0,0.4,0,0.8,0,1.4v8.1c0,0.7,0,1.3,0.1,1.6H4.9v-1H1.7v1.4H0.7
		c0.1-0.4,0.1-1,0.1-2v-8.1c0-0.8,0-1.1-0.1-1.5c0.3,0,0.6,0,1.4,0h0.3C2.8,43.8,3,43,3.1,42.2l1.1,0.2c-0.3,0.9-0.6,1.7-0.8,2.2
		H4.5z M1.7,49.1h3.1v-3.6H1.7V49.1z M1.7,53.9h3.1V50H1.7V53.9z M12.8,44.6c0.6,0,1.1,0,1.4-0.1c0,0.3,0,0.4-0.1,1
		c-0.1,6.3-0.4,8.5-0.9,9.8c-0.3,0.7-0.8,1-1.8,1c-0.6,0-1,0-2-0.1c0-0.5-0.1-0.7-0.3-1.1c1,0.2,1.7,0.3,2.3,0.3
		c0.6,0,0.8-0.1,1-0.7c0.3-0.7,0.5-2.3,0.6-4.4c0.1-1.3,0.1-2.4,0.1-4.7H8.5c-0.5,1.1-1,1.8-1.8,2.9c-0.2-0.3-0.5-0.5-0.8-0.7
		c1-1,1.8-2.4,2.4-4c0.2-0.6,0.4-1.2,0.4-1.6l1.1,0.2c0,0.1-0.1,0.3-0.2,0.6c-0.2,0.6-0.4,1-0.6,1.6H12.8z M10.3,52.1
		c-0.9-1.9-1.5-2.9-2.4-4l0.8-0.5c1,1.2,1.7,2.3,2.5,4L10.3,52.1z"/>
	<path id="XMLID_769_" class="st9" d="M21,53.8c-1.3,1.2-2.2,1.9-3.9,2.6c-0.2-0.4-0.3-0.4-0.8-0.8c1.8-0.6,2.7-1.2,3.8-2.3L21,53.8
		z M16.8,52.1c0.9-0.1,1.6-0.2,2.4-0.5c0.2-0.1,1.1-0.4,2.7-1.1c-2.1,0.1-3.4,0.2-3.8,0.2L18,50c0.6-0.1,0.9-0.2,1.5-0.6
		c0.6-0.4,1-0.7,1.7-1.4h-2c-0.6,0-1,0-1.4,0.1c0-0.4,0.1-0.8,0.1-1.5v-2.4c0-0.7,0-1.1-0.1-1.5c0.4,0,0.9,0.1,1.5,0.1h8.1
		c0.6,0,1.1,0,1.5-0.1c0,0.4-0.1,0.8-0.1,1.5v2.4c0,0.7,0,1.1,0.1,1.5C28.4,48,28,48,27.4,48h-4.9c-1.1,1-1.4,1.2-2.3,1.9
		c1.3,0,1.8,0,2.3-0.1c0,0,0.2,0,0.4,0c0.2,0,0.5,0,0.8-0.1c0.9-0.5,1.2-0.7,2-1.2l0.8,0.7c-2.8,1.6-3.7,2-6.5,3
		c1.8-0.1,1.8-0.1,5.2-0.3c0.9-0.1,1.6-0.1,2.5-0.2c-0.4-0.4-0.6-0.6-1.2-1l0.7-0.6c1.3,1.1,2,1.7,3,2.9l-0.8,0.7
		c-0.5-0.6-0.6-0.8-1-1.2c-1.1,0.1-1.1,0.1-2.4,0.2c-0.5,0-1.2,0.1-2,0.1v2.6c0,0.6-0.1,0.8-0.3,1c-0.3,0.2-0.8,0.3-1.3,0.3
		c-0.2,0-0.5,0-1.2-0.1c0-0.5-0.1-0.6-0.2-1c0.6,0.1,0.9,0.1,1.2,0.1c0.4,0,0.6,0,0.7-0.1c0.1,0,0.1-0.3,0.1-0.5v-2.3
		c-1.9,0.1-2,0.1-3.8,0.2c-1,0-1.3,0.1-2,0.1L16.8,52.1z M18.7,45h4v-1.4h-4V45z M18.7,47.2h4v-1.5h-4V47.2z M23.7,43.5V45h4.2v-1.4
		H23.7z M23.7,45.7v1.5h4.2v-1.5H23.7z M29.4,56.3c-1.4-1.1-2.2-1.6-3.9-2.4l0.6-0.8c2,1,2.4,1.3,3.9,2.3L29.4,56.3z"/>
	<path id="XMLID_777_" class="st9" d="M34.7,48.3h-1.3c-0.5,0-0.8,0-1.2,0.1v-1.1c0.4,0.1,0.6,0.1,1.2,0.1h1.2c0.5,0,0.8,0,1.2-0.1
		c-0.1,0.5-0.1,0.9-0.1,1.7v5.4c0.2-0.1,0.5-0.2,0.9-0.4c0.2-0.1,0.2-0.1,1-0.6c0.3-0.1,0.3-0.2,0.6-0.4l0.1,1.1
		c-0.2,0.1-0.2,0.1-1.1,0.6c-0.1,0.1-1.5,0.8-1.6,0.9c-0.3,0.1-0.6,0.3-0.9,0.5l-0.5-1.1c0.3-0.1,0.4-0.3,0.4-0.6V48.3z M34.1,42.2
		c1.1,0.8,1.8,1.4,2.8,2.4l-0.8,0.8c-0.9-1.1-1.6-1.7-2.8-2.5L34.1,42.2z M41.4,44c0-0.8,0-1.2-0.1-1.8h1.3
		c-0.1,0.5-0.1,1.1-0.1,1.8v3.2h2.3c0.9,0,1.4,0,1.9-0.1v1.2c-0.6-0.1-1.1-0.1-1.9-0.1h-2.3v6.1c0,1,0,1.7,0.1,2.3h-1.3
		c0.1-0.6,0.1-1.2,0.1-2.3v-6.1h-2.2c-0.7,0-1.3,0-1.9,0.1v-1.2c0.5,0.1,1,0.1,1.8,0.1h2.3V44z"/>
	<path id="XMLID_781_" class="st9" d="M51.5,58c-0.9-1.4-1.3-2.2-1.7-3.3c-0.4-1.3-0.7-2.7-0.7-4.2c0-1.5,0.2-2.9,0.7-4.2
		c0.4-1.1,0.8-1.9,1.7-3.3l1,0.6c-0.9,1.4-1.2,2.1-1.6,3.2c-0.4,1.2-0.5,2.4-0.5,3.6s0.2,2.5,0.5,3.6c0.4,1.1,0.7,1.9,1.6,3.2
		L51.5,58z"/>
	<path id="XMLID_783_" class="st9" d="M63.1,55.4c-0.1-0.6-0.3-1.1-0.5-1.6l-0.8-2.1h-5.6l-0.8,2.1c-0.2,0.6-0.4,1.1-0.5,1.6h-1.7
		c0.3-0.5,0.4-0.8,0.9-1.8l3.6-8.8c0.3-0.8,0.4-1.1,0.5-1.5h1.6c0.1,0.3,0.1,0.5,0.5,1.5l3.6,8.8c0.4,1,0.6,1.4,0.8,1.8H63.1z
		 M59.4,45.3c0-0.1,0-0.1-0.4-1c-0.1,0.2-0.1,0.4-0.2,0.5c-0.1,0.3-0.1,0.4-0.2,0.5l-2,5.3h4.8L59.4,45.3z"/>
	<path id="XMLID_786_" class="st9" d="M66.1,55.4c0.1-0.6,0.1-1.1,0.1-1.8v-5c0-0.8,0-1.2-0.1-1.8h1.3v0.9c0,0.1,0,0.3,0,0.6
		c0.1-0.3,0.3-0.5,0.6-0.8c0.5-0.5,1.3-0.8,2.3-0.8c0.9,0,1.6,0.3,2.1,0.8c0.2,0.3,0.3,0.4,0.5,0.9c0.8-1.2,1.6-1.7,3-1.7
		c1.1,0,1.9,0.3,2.3,1c0.4,0.5,0.5,1.1,0.5,2.1v4c0,0.8,0,1.2,0.1,1.8h-1.4c0.1-0.6,0.1-1,0.1-1.8v-3.8c0-1.5-0.6-2.2-1.8-2.2
		c-0.8,0-1.6,0.4-2,1.2c-0.3,0.5-0.5,1.2-0.5,1.6v3.2c0,0.8,0,1.2,0.1,1.8h-1.4c0.1-0.6,0.1-1,0.1-1.8v-3.8c0-1.4-0.6-2.2-1.8-2.2
		c-0.8,0-1.6,0.4-2.1,1.2c-0.3,0.4-0.5,1.2-0.5,1.6v3.1c0,0.7,0,1.2,0.1,1.8H66.1z"/>
	<path id="XMLID_788_" class="st9" d="M80.6,51.1c0-2.8,1.7-4.5,4.3-4.5c2.6,0,4.3,1.8,4.3,4.5c0,2.7-1.7,4.5-4.2,4.5
		C82.3,55.6,80.6,53.8,80.6,51.1z M81.9,51c0,2.2,1.2,3.5,3,3.5c1.9,0,3-1.3,3-3.5c0-2.2-1.2-3.5-3-3.5C83,47.5,81.9,48.9,81.9,51z"
		/>
	<path id="XMLID_791_" class="st9" d="M96.2,48c-0.6-0.2-0.9-0.2-1.3-0.2c-0.8,0-1.5,0.3-2,1c-0.4,0.5-0.5,0.9-0.6,1.6v3.3
		c0,0.7,0,1.2,0.1,1.8H91c0.1-0.7,0.1-1.2,0.1-1.8v-5c0-0.8,0-1.2-0.1-1.8h1.3v0.9c0,0.1,0,0.4,0,0.5c0.3-0.5,0.5-0.8,0.9-1
		c0.6-0.4,1.2-0.6,1.9-0.6c0.5,0,0.8,0,1.4,0.1L96.2,48z"/>
	<path id="XMLID_793_" class="st9" d="M100.4,44.3c-0.1,0.5-0.1,1.1-0.1,1.8v0.6h0.8c0.7,0,1.1,0,1.6-0.1v1.2
		c-0.5-0.1-0.9-0.1-1.6-0.1h-0.8v5.6c0,0.5,0.1,0.7,0.2,0.8c0.2,0.2,0.4,0.3,0.8,0.3c0.4,0,0.7-0.1,1.3-0.4l0.4,1.1
		c-0.7,0.3-1.2,0.4-1.8,0.4c-0.7,0-1.2-0.2-1.6-0.5S99,54.2,99,53.5v-5.7h-0.6c-0.5,0-0.9,0-1.4,0.1v-1.2c0.4,0.1,0.8,0.1,1.4,0.1
		H99v-0.6c0-0.6,0-1.2-0.1-1.8H100.4z"/>
	<path id="XMLID_795_" class="st9" d="M105.7,43.2v1.4h-1.6v-1.4H105.7z M105.7,46.7c-0.1,0.6-0.1,1-0.1,1.8v5c0,0.7,0,1.2,0.1,1.8
		h-1.4c0.1-0.7,0.1-1.1,0.1-1.8v-5c0-0.8,0-1.2-0.1-1.8H105.7z"/>
	<path id="XMLID_798_" class="st9" d="M114,47.6c-0.4,0.4-0.7,0.8-1.1,1.3l-3.4,4.6c0,0-0.3,0.3-0.6,0.8c0.8,0,0.8,0,1.1,0h2.5
		c0.8,0,1.3,0,1.8-0.1v1.3c-0.6-0.1-1-0.1-1.8-0.1h-3.4c-1,0-1.3,0-1.8,0v-1.1c0.4-0.4,0.7-0.7,1.1-1.3l3.5-4.7
		c0.2-0.2,0.3-0.4,0.5-0.6c-0.4,0-0.6,0-0.8,0h-2.2c-0.7,0-1.2,0-1.8,0.1v-1.3c0.6,0.1,1.1,0.1,1.8,0.1h2.8c1,0,1.2,0,1.7,0V47.6z"
		/>
	<path id="XMLID_800_" class="st9" d="M121.7,54.2c-0.6,0.6-0.9,0.8-1.5,1c-0.5,0.2-1.1,0.3-1.7,0.3c-1.8,0-2.8-0.9-2.8-2.4
		c0-1.3,0.8-2.2,2.3-2.6c0.9-0.3,1.7-0.4,3.7-0.4v-0.9c0-1.1-0.7-1.6-2-1.6c-0.9,0-1.5,0.2-2,0.7c-0.2,0.2-0.3,0.4-0.5,0.9l-1.2-0.3
		c0.3-0.7,0.5-1.1,0.9-1.4c0.7-0.6,1.6-0.9,2.8-0.9c2.1,0,3.2,0.9,3.2,2.6v4.5c0,0.7,0,1.1,0.1,1.8h-1.3V54.2z M121.7,51
		c-1.9,0-2.8,0.2-3.5,0.5c-0.8,0.3-1.2,0.9-1.2,1.6c0,0.9,0.7,1.4,1.7,1.4c0.9,0,1.9-0.4,2.6-1.1c0.4-0.4,0.5-0.7,0.5-1.4V51z"/>
	<path id="XMLID_803_" class="st9" d="M127.6,44.3c-0.1,0.5-0.1,1.1-0.1,1.8v0.6h0.8c0.7,0,1.1,0,1.6-0.1v1.2
		c-0.5-0.1-0.9-0.1-1.6-0.1h-0.8v5.6c0,0.5,0.1,0.7,0.2,0.8c0.2,0.2,0.4,0.3,0.8,0.3c0.4,0,0.7-0.1,1.3-0.4l0.4,1.1
		c-0.7,0.3-1.2,0.4-1.8,0.4c-0.7,0-1.2-0.2-1.6-0.5s-0.4-0.8-0.4-1.5v-5.7h-0.6c-0.5,0-0.9,0-1.4,0.1v-1.2c0.4,0.1,0.8,0.1,1.4,0.1
		h0.6v-0.6c0-0.6,0-1.2-0.1-1.8H127.6z"/>
	<path id="XMLID_805_" class="st9" d="M133,43.2v1.4h-1.6v-1.4H133z M132.9,46.7c-0.1,0.6-0.1,1-0.1,1.8v5c0,0.7,0,1.2,0.1,1.8h-1.4
		c0.1-0.7,0.1-1.1,0.1-1.8v-5c0-0.8,0-1.2-0.1-1.8H132.9z"/>
	<path id="XMLID_808_" class="st9" d="M134.8,51.1c0-2.8,1.7-4.5,4.3-4.5c2.6,0,4.3,1.8,4.3,4.5c0,2.7-1.7,4.5-4.2,4.5
		C136.5,55.6,134.8,53.8,134.8,51.1z M136.1,51c0,2.2,1.2,3.5,3,3.5c1.9,0,3-1.3,3-3.5c0-2.2-1.2-3.5-3-3.5
		C137.2,47.5,136.1,48.9,136.1,51z"/>
	<path id="XMLID_811_" class="st9" d="M145.2,55.4c0.1-0.6,0.1-1,0.1-1.8v-5c0-0.7,0-1.2-0.1-1.8h1.3v1.1c0,0.2,0,0.3,0,0.7
		c0.8-1.3,1.8-1.9,3.2-1.9c1.2,0,2,0.4,2.6,1.2c0.3,0.5,0.4,1.1,0.4,1.8v4c0,0.8,0,1.3,0.1,1.8h-1.4c0.1-0.6,0.1-1.1,0.1-1.8v-3.7
		c0-1.4-0.7-2.2-2-2.2c-0.9,0-1.6,0.4-2.3,1.3c-0.4,0.5-0.6,0.9-0.7,1.6v3.1c0,0.7,0,1.2,0.1,1.8H145.2z"/>
	<path id="XMLID_813_" class="st9" d="M155.5,43c0.9,1.4,1.3,2.2,1.7,3.3c0.4,1.3,0.7,2.7,0.7,4.2c0,1.5-0.2,2.9-0.7,4.2
		c-0.4,1.2-0.8,1.9-1.7,3.3l-1-0.6c0.9-1.4,1.2-2.1,1.6-3.2c0.4-1.2,0.5-2.4,0.5-3.6s-0.2-2.5-0.5-3.6c-0.4-1.1-0.7-1.9-1.6-3.2
		L155.5,43z"/>
</g>
<path id="XMLID_4_" class="st9" d="M496.8,8.5h-1.1c-0.5,0-0.8,0-1.2,0.1v-1c0.3,0.1,0.6,0.1,1.2,0.1h0.9c0.5,0,0.8,0,1.2-0.1
	c0,0.5-0.1,0.9-0.1,1.6v3.7c0.1,0.1,0.2,0.2,0.3,0.3c0.8,0.8,1,0.9,1.8,1.1c0.6,0.2,2,0.2,3.8,0.2c2.4,0,4.1-0.1,5.6-0.3
	c-0.2,0.4-0.3,0.6-0.4,1.2c-1.5,0.1-3.3,0.1-5.4,0.1c-2.1,0-3.5-0.1-4.2-0.4c-0.4-0.2-0.8-0.4-1-0.6c0,0-0.2-0.2-0.6-0.6
	c-0.2-0.2-0.3-0.3-0.5-0.3c-0.4,0-1.4,0.9-2.1,1.9l-0.8-0.8c1.2-1.2,2-1.8,2.5-2V8.5z M495.7,1.8c1.1,1,1.6,1.6,2.5,2.8l-0.8,0.7
	c-0.9-1.4-1.3-1.8-2.4-2.9L495.7,1.8z M500.2,6.7c-0.7,0-1.1,0-1.5,0.1V5.6c0.4,0.1,0.9,0.1,1.5,0.1h7.1c0.6,0,1.2,0,1.5-0.1v1.3
	c-0.4-0.1-0.9-0.1-1.5-0.1l-4.2,0c-0.6,1.6-0.6,1.7-1.1,2.8c-0.6,1.4-0.7,1.5-1.1,2.1c1.8-0.1,4.2-0.5,5.5-0.8
	c-0.3-0.7-0.8-1.5-1.5-2.5l0.9-0.5c1.5,2.3,2,3.3,2.9,5.1l-0.9,0.5c-0.3-0.8-0.6-1.4-0.8-1.8c-1.4,0.3-2.6,0.5-5.6,0.8
	c-0.9,0.1-1.1,0.1-1.9,0.3l-0.3-1.1c0.7-0.2,0.9-0.4,1.5-1.6c0.6-1.3,0.9-2.2,1.3-3.4L500.2,6.7z M507.6,3.3c-0.4-0.1-1-0.1-1.5-0.1
	h-4.7c-0.5,0-1.2,0-1.5,0.1V2.1c0.3,0.1,0.8,0.1,1.5,0.1h4.7c0.7,0,1.2,0,1.5-0.1V3.3z"/>
<path id="XMLID_9_" class="st9" d="M522.9,2.8c0.8,0,1.3,0,1.8-0.1v1.1c-0.5-0.1-0.9-0.1-1.8-0.1h-2.5v0.1c0,0.5,0,0.7,0.1,1h-1.1
	c0-0.4,0-0.6,0-1V3.7h-3.8v0.1c0,0.5,0,0.7,0,1.1h-1.1c0-0.3,0.1-0.6,0.1-1V3.7h-2.3c-0.9,0-1.3,0-1.8,0.1V2.7
	c0.5,0.1,1,0.1,1.8,0.1h2.3V2.5c0-0.4,0-0.6-0.1-1h1.2c-0.1,0.4-0.1,0.6-0.1,1v0.3h3.8V2.5c0-0.4,0-0.6-0.1-1h1.2
	c-0.1,0.5-0.1,0.7-0.1,1v0.3H522.9z M510.8,8.3c0-0.4,0.1-0.7,0.1-1.1V6.6c0-0.6,0-0.9-0.1-1.3c0.5,0,1,0.1,1.6,0.1h10.5
	c0.6,0,1,0,1.6-0.1c0,0.4-0.1,0.7-0.1,1.3v0.6c0,0.5,0,0.8,0.1,1.1h-1.1V6.3h-11.5v2.1H510.8z M512.1,13c0-0.7,0-1-0.1-1.5
	c0.4,0.1,0.8,0.1,1.5,0.1h8.3c0.8,0,1.1,0,1.5-0.1c0,0.4-0.1,0.8-0.1,1.5v1.2c0,0.9,0,1.2,0.1,1.6h-1.1v-0.6h-9.3v0.6H512
	c0.1-0.4,0.1-0.8,0.1-1.6V13z M513.1,14.3h9.3v-1.7h-9.3V14.3z M522.1,9.4c0,0.5,0,0.8,0,1.2c-0.4-0.1-0.8-0.1-1.4-0.1h-6.2
	c-0.6,0-1,0-1.4,0.1c0-0.4,0-0.7,0-1.2v-1c0-0.4,0-0.7,0-1.1c0.4,0.1,0.6,0.1,1.3,0.1h6.4c0.6,0,0.9,0,1.3-0.1c0,0.4,0,0.7,0,1.2
	V9.4z M514.2,9.7h7V8.3h-7V9.7z"/>
<path id="XMLID_16_" class="st9" d="M528.1,3.2c0-0.6,0-1.1-0.1-1.5h1.1c-0.1,0.4-0.1,0.9-0.1,1.5v0.3h2.9V3.2c0-0.7,0-1.1-0.1-1.5
	h1.1C533,2.1,533,2.5,533,3.2v0.3c0.5,0,1,0,1.3-0.1v1c-0.3,0-0.8-0.1-1.3-0.1v6.8c0.5,0,1,0,1.3-0.1v1c-0.4,0-0.8,0-1.5,0h-5.1
	c-0.6,0-0.9,0-1.3,0.1v-1c0.3,0.1,0.7,0.1,1.3,0.1h0.4V4.4H528c-0.7,0-1.1,0-1.4,0.1v-1c0.3,0.1,0.7,0.1,1.4,0.1h0.1V3.2z
	 M529.8,13.1c-0.8,1.2-1.3,1.8-2.5,2.8c-0.2-0.3-0.4-0.5-0.7-0.8c1.2-0.8,1.8-1.4,2.4-2.5L529.8,13.1z M532,6V4.4h-2.9V6H532z
	 M532,8.5V6.8h-2.9v1.7H532z M532,11.2V9.3h-2.9v1.9H532z M532.6,15c-0.6-0.9-1-1.2-1.6-1.8l0.6-0.7c0.7,0.7,0.9,0.8,1.7,1.7
	L532.6,15z M535.9,10.8c-0.2,2.3-0.7,3.6-1.9,5.2c-0.4-0.5-0.4-0.5-0.8-0.7c1-1.1,1.4-2,1.6-3.6c0.2-1.2,0.3-4,0.3-7.4
	c0-1,0-1.4-0.1-1.9c0.4,0,0.8,0.1,1.5,0.1h2.2c0.7,0,1.1,0,1.5-0.1c0,0.4-0.1,0.8-0.1,1.6v10.8c0,0.5-0.1,0.9-0.4,1
	c-0.2,0.1-0.6,0.2-1.3,0.2c-0.3,0-0.5,0-1.3-0.1c0-0.5-0.1-0.7-0.3-1.1c0.9,0.2,1.2,0.2,1.8,0.2c0.4,0,0.5-0.1,0.5-0.4v-3.7H535.9z
	 M539.2,9.9V6.9H536c0,1.7,0,2.1-0.1,2.9H539.2z M539.2,6V3.2H536v2.2c0,0.4,0,0.4,0,0.6H539.2z"/>
<path id="XMLID_26_" class="st9" d="M544.2,4.7c-0.1,0.5-0.1,0.9-0.1,1.8v7.6c0,0.9,0,1.4,0.1,1.8H543c0.1-0.5,0.1-1,0.1-1.8V6.5
	c0-0.8,0-1.2-0.1-1.8H544.2z M544.4,1.4c1,1,1.3,1.5,2.5,3.1L546,5c-0.8-1.3-1-1.5-2.4-3.1L544.4,1.4z M546.6,7.3c0-0.6,0-1-0.1-1.4
	c0.4,0,0.7,0.1,1.2,0.1h3.8c0.6,0,0.9,0,1.3-0.1c0,0.3-0.1,0.8-0.1,1.5v4.4c0,0.7,0,1.2,0.1,1.6c-0.2,0-0.2,0-0.4,0c0,0-0.4,0-1.1,0
	h-3.8v1.2h-1c0.1-0.4,0.1-0.8,0.1-1.5V7.3z M548.9,3.1c-0.7,0-1,0-1.5,0.1V2.1c0.4,0.1,0.8,0.1,1.4,0.1h6.1c0.6,0,1,0,1.3-0.1
	c0,0.4-0.1,0.8-0.1,1.4v11.2c0,0.4-0.1,0.7-0.3,0.9c-0.3,0.2-0.7,0.3-1.7,0.3c-0.3,0-0.6,0-1.6,0c-0.1-0.6-0.1-0.8-0.3-1.2
	c0.9,0.2,1.2,0.2,1.9,0.2c0.8,0,1,0,1-0.4V3.1H548.9z M547.5,9.2h4.2V6.8h-4.2V9.2z M547.5,12.4h4.2v-2.3h-4.2V12.4z"/>
<path id="XMLID_33_" class="st9" d="M562.9,4c0.8,0,1.3,0,1.4,0c0,0.4,0,0.8,0,1.4v8.1c0,0.7,0,1.3,0.1,1.6h-1.1v-1h-3.1v1.4H559
	c0.1-0.4,0.1-1,0.1-2V5.4c0-0.8,0-1.1-0.1-1.5c0.3,0,0.6,0,1.4,0h0.3c0.3-0.8,0.6-1.6,0.7-2.4l1.1,0.2c-0.3,0.9-0.6,1.7-0.8,2.2
	H562.9z M560.1,8.4h3.1V4.8h-3.1V8.4z M560.1,13.2h3.1V9.3h-3.1V13.2z M571.2,3.9c0.6,0,1.1,0,1.4-0.1c0,0.3,0,0.4-0.1,1
	c-0.1,6.3-0.4,8.5-0.9,9.8c-0.3,0.7-0.8,1-1.8,1c-0.6,0-1,0-2-0.1c0-0.5-0.1-0.7-0.3-1.1c1,0.2,1.7,0.3,2.3,0.3c0.6,0,0.8-0.1,1-0.7
	c0.3-0.7,0.5-2.3,0.6-4.4c0.1-1.3,0.1-2.4,0.1-4.7h-4.6c-0.5,1.1-1,1.8-1.8,2.9c-0.2-0.3-0.5-0.5-0.8-0.7c1-1,1.8-2.4,2.4-4
	c0.2-0.6,0.4-1.2,0.4-1.6l1.1,0.2c0,0.1-0.1,0.3-0.2,0.6c-0.2,0.6-0.4,1-0.6,1.6H571.2z M568.6,11.5c-0.9-1.9-1.5-2.9-2.4-4l0.8-0.5
	c1,1.2,1.7,2.3,2.5,4L568.6,11.5z"/>
<path id="XMLID_39_" class="st9" d="M577.4,9.8c-0.5,1.7-1.2,3.3-1.9,4.7c-0.2,0.4-0.2,0.4-0.3,0.7l-1-0.8c0.3-0.4,0.5-0.7,1-1.6
	c0.7-1.3,1-2.2,1.4-3.7L577.4,9.8z M575.3,2.2c1,1.1,1.5,1.7,2.3,3l-0.8,0.7c-0.8-1.3-1.3-2-2.3-3L575.3,2.2z M586.4,5.6
	c0.7,0,1,0,1.3-0.1c0,0.4-0.1,0.7-0.1,1.4v1.3h0.2c0.5,0,0.8,0,1.1-0.1v1.1c-0.4-0.1-0.7-0.1-1.1-0.1h-0.2v2.1c0,0.6,0,1.1,0.1,1.6
	h-1.1v-1h-3v2.8c0,0.9-0.3,1.2-1.6,1.2c-0.6,0-1.1,0-1.7-0.1c0-0.4-0.1-0.6-0.3-1c0.8,0.1,1.4,0.2,2,0.2c0.5,0,0.6,0,0.6-0.4v-2.6
	h-2.3c-0.6,0-1.1,0-1.6,0.1v-1.1c0.4,0.1,0.9,0.1,1.6,0.1h2.3V9.1h-3.2c-0.6,0-1.2,0-1.6,0.1V8.1c0.4,0.1,1,0.1,1.6,0.1h3.2V6.5
	h-1.7c-0.7,0-1.1,0-1.5,0.1V5.6c-0.3,0.4-0.6,0.6-1.1,1c-0.2-0.3-0.3-0.4-0.7-0.7c1.1-0.8,2-1.7,2.7-2.9c0.4-0.6,0.7-1.2,0.8-1.7
	l1,0.3c-0.1,0.2-0.1,0.2-0.4,0.7c-0.1,0.1-0.1,0.2-0.2,0.4h2.5c0.6,0,0.9,0,1.2-0.1l0.6,0.5c-0.1,0.1-0.1,0.1-0.2,0.3
	c-0.6,0.9-1.1,1.6-1.6,2.1H586.4z M583.2,5.6c0.6-0.6,1-1.2,1.5-2h-3.5c-0.4,0.7-1,1.4-1.6,2c0.3,0,0.8,0,1.4,0H583.2z M583.7,8.2h3
	V6.5h-3V8.2z M583.7,9.1v1.8h3V9.1H583.7z"/>
<path id="XMLID_46_" class="st9" d="M593.7,7.1h0.7c0.5,0,0.7,0,1.1-0.1v1C595,8,594.8,8,594.3,8h-0.7v3.8c0.6-0.3,1-0.4,2.1-1l0,1
	c-1.4,0.8-2.5,1.3-4.1,1.9c-0.4,0.1-0.6,0.3-0.9,0.4l-0.3-1.1c0.5-0.1,1.3-0.3,2.1-0.6c0.1,0,0.1,0,0.1,0V8h-0.8
	c-0.4,0-0.7,0-1.1,0.1V7c0.4,0.1,0.6,0.1,1.1,0.1h0.7V3.3h-0.7c-0.7,0-0.9,0-1.3,0.1V2.3c0.4,0.1,0.7,0.1,1.4,0.1h2.4
	c0.6,0,0.9,0,1.3-0.1v1.1c-0.4,0-0.7-0.1-1.3-0.1h-0.7V7.1z M600.7,4.4c-0.1,0.4-0.1,0.8-0.1,1.5c0,4.4-0.2,5.7-1.1,7.1
	c-0.6,0.9-1.4,1.6-2.7,2.3c-0.6,0.3-1.1,0.5-2.2,0.8c-0.2-0.4-0.4-0.6-0.7-0.9c2.3-0.6,3.6-1.3,4.4-2.4c0.9-1.1,1.1-2.3,1.1-5.8
	c0-1.6,0-2.1-0.1-2.5H600.7z M596.3,11.7c0.1-0.5,0.1-1,0.1-1.8v-6c0-1,0-1.2-0.1-1.7c0.5,0,1,0.1,1.8,0.1h3.9c0.8,0,1.3,0,1.8-0.1
	c0,0.4-0.1,0.8-0.1,1.6v6.2c0,0.9,0,1.4,0.1,1.8h-1.2c0.1-0.5,0.1-1,0.1-1.8V3.2h-5.4v6.7c0,0.9,0,1.4,0.1,1.8H596.3z M601.5,10.5
	c0,0.5,0,0.9,0,1.5v2.3c0,0.5,0.1,0.6,0.8,0.6c0.8,0,1.2-0.1,1.4-0.2c0.2-0.2,0.4-1,0.4-2.2c0.2,0.1,0.6,0.3,1,0.3
	c-0.2,1.6-0.3,2.2-0.5,2.5c-0.3,0.4-0.9,0.5-2.4,0.5c-1.4,0-1.6-0.2-1.6-1.3v-2.5c0-0.7,0-1,0-1.4H601.5z"/>
<path id="XMLID_51_" class="st9" d="M614.2,1.9c0.8,1,1.3,1.5,2.2,2.3c1.3,1,3,2,4.6,2.6c-0.3,0.4-0.4,0.7-0.6,1.1
	c-1.2-0.6-1.9-0.9-2.9-1.6v0.9c-0.4-0.1-0.8-0.1-1.5-0.1h-2v2.2h4.3c0.7,0,1.1,0,1.6-0.1v1.1c-0.5-0.1-0.9-0.1-1.6-0.1h-4.3v4.2h4.7
	c0.7,0,1.2,0,1.8-0.1v1.2c-0.5-0.1-1.1-0.1-1.8-0.1h-10.1c-0.6,0-1.2,0-1.8,0.1v-1.2c0.5,0.1,1.1,0.1,1.8,0.1h4.4v-4.2h-4
	c-0.6,0-1.1,0-1.6,0.1V9.1c0.4,0.1,0.9,0.1,1.6,0.1h4V7.1h-1.7c-0.7,0-1.1,0-1.5,0.1v-1c-0.6,0.4-0.6,0.4-2.8,1.6
	c-0.2-0.2-0.2-0.3-0.3-0.4c0,0-0.1-0.1-0.2-0.2c0-0.1-0.1-0.2-0.2-0.3c1.6-0.6,2.8-1.3,3.8-2.2c1.4-1.1,2.3-2.2,3.3-3.5l0.9,0.5
	L614.2,1.9z M609.9,10.7c0.6,1,0.9,1.7,1.4,2.9l-0.9,0.4c-0.4-1.1-0.8-2-1.4-2.8L609.9,10.7z M616,6.2c0.6,0,1,0,1.3-0.1
	c-1.5-1-2.8-2.2-3.8-3.4c-1.1,1.4-2.4,2.5-3.7,3.4c0,0,0,0,0.2,0c0.2,0,0.7,0,1.3,0H616z M618.3,11.1c-0.7,1.5-1,2-1.7,3l-0.9-0.4
	c0.7-0.9,1.2-1.8,1.6-3L618.3,11.1z"/>
<path id="XMLID_560_" class="st9" d="M622.9,5.5c1.1,0.6,1.7,1.1,2.8,2.1l-0.6,0.9c-1-1-1.6-1.5-2.8-2.2L622.9,5.5z M625.9,10.7
	c-0.8,2-1.1,2.6-2.2,4.6c-0.1,0.1-0.1,0.2-0.2,0.4l-0.9-0.8c0.8-0.8,1.7-2.4,2.5-4.7L625.9,10.7z M623.8,1.6c1,0.8,1.7,1.3,2.5,2.3
	l-0.7,0.8c-0.8-1-1.4-1.6-2.5-2.4L623.8,1.6z M628.8,8.3c-0.1,0.4-0.1,0.5-0.1,1.4c0,2-0.4,3.1-1.2,4.3c-0.5,0.7-0.9,1.1-1.8,1.7
	c-0.3-0.4-0.4-0.5-0.8-0.8c2-1.2,2.8-2.7,2.8-5.4c0-0.5,0-0.8-0.1-1.2H628.8z M627,6.7c0.4,0,0.5-0.1,0.7-0.2
	c0.1-0.1,0.2-0.2,0.3-0.3c0.8-0.8,1-1,1.8-2.2h-1.7c-0.7,0-1.1,0-1.5,0.1V3c0.4,0.1,0.8,0.1,1.5,0.1h3c-0.3-0.5-0.5-0.8-0.8-1.2
	l0.8-0.5c0.4,0.6,0.5,0.7,1.1,1.7h2.9c0.7,0,1.2,0,1.6-0.1v1c-0.4,0-0.9-0.1-1.6-0.1h-4.1c-0.9,1.3-1.4,1.9-2.3,2.7
	c0.6,0,0.6,0,2.5-0.2c1-0.1,1.2-0.1,2.8-0.3c-0.4-0.4-0.7-0.6-1.3-1.2l0.8-0.5c1.2,1,2,1.9,3.1,3.2l-0.8,0.6c-0.5-0.7-0.7-0.9-1-1.3
	c-0.8,0.1-1.4,0.2-3.1,0.3c-2.1,0.2-2.1,0.2-3,0.2c-0.8,0.1-0.8,0.1-1.5,0.1L627,6.7z M630.3,15.2c0.1-0.4,0.1-0.9,0.1-1.5V9.9
	c0-0.6,0-1-0.1-1.4h1.2c-0.1,0.4-0.1,0.8-0.1,1.4v3.9c0,0.6,0,1.1,0.1,1.5H630.3z M634.4,14.2c0,0.4,0.1,0.5,0.7,0.5
	c0.7,0,0.9-0.1,1-0.3c0.1-0.3,0.2-1,0.2-2c0.3,0.2,0.6,0.3,0.9,0.4c-0.2,2.5-0.3,2.7-2.2,2.7c-1.3,0-1.6-0.2-1.6-1.1V9.9
	c0-0.8,0-1.2-0.1-1.6h1.2c-0.1,0.4-0.1,0.8-0.1,1.6V14.2z"/>
<path id="XMLID_570_" class="st9" d="M641.9,17.3c-0.9-1.4-1.3-2.2-1.7-3.3c-0.4-1.3-0.7-2.7-0.7-4.2c0-1.5,0.2-2.9,0.7-4.2
	c0.4-1.1,0.8-1.9,1.7-3.3l1,0.6c-0.9,1.4-1.2,2.1-1.6,3.2c-0.4,1.2-0.5,2.4-0.5,3.6s0.2,2.5,0.5,3.6c0.4,1.1,0.7,1.9,1.6,3.2
	L641.9,17.3z"/>
<path id="XMLID_572_" class="st9" d="M653.3,6c-0.2-0.7-0.4-1-0.8-1.4c-0.6-0.8-1.6-1.2-2.8-1.2c-2.6,0-4.2,2-4.2,5.2
	c0,3.2,1.6,5.2,4.2,5.2c1.3,0,2.3-0.5,3-1.3c0.3-0.5,0.5-0.9,0.6-1.6l1.3,0.3c-0.3,0.9-0.5,1.4-0.9,1.9c-0.9,1.2-2.4,1.9-4.1,1.9
	c-1.5,0-2.8-0.5-3.7-1.4c-1.1-1.1-1.7-2.9-1.7-4.9c0-2.1,0.6-3.8,1.8-5c0.9-0.9,2.1-1.4,3.7-1.4c1.5,0,2.7,0.4,3.6,1.3
	c0.6,0.5,0.9,1,1.2,2L653.3,6z"/>
<path id="XMLID_574_" class="st9" d="M662.3,13.6c-0.6,0.6-0.9,0.8-1.5,1c-0.5,0.2-1.1,0.3-1.7,0.3c-1.8,0-2.8-0.9-2.8-2.4
	c0-1.3,0.8-2.2,2.3-2.6c0.9-0.3,1.7-0.4,3.7-0.4V8.5c0-1.1-0.7-1.6-2-1.6c-0.9,0-1.5,0.2-2,0.7c-0.2,0.2-0.3,0.4-0.5,0.9l-1.2-0.3
	c0.3-0.7,0.5-1.1,0.9-1.4c0.7-0.6,1.6-0.9,2.8-0.9c2.1,0,3.2,0.9,3.2,2.6v4.5c0,0.7,0,1.1,0.1,1.8h-1.3V13.6z M662.3,10.3
	c-1.9,0-2.8,0.2-3.5,0.5c-0.8,0.3-1.2,0.9-1.2,1.6c0,0.9,0.7,1.4,1.7,1.4c0.9,0,1.9-0.4,2.6-1.1c0.4-0.4,0.5-0.7,0.5-1.4V10.3z"/>
<path id="XMLID_577_" class="st9" d="M666.7,12.1c0.1,0.6,0.2,0.9,0.6,1.2c0.4,0.4,1,0.6,1.9,0.6c1.4,0,2.3-0.6,2.3-1.5
	c0-0.4-0.2-0.8-0.5-1c-0.4-0.2-0.7-0.3-1.9-0.6c-1.3-0.3-1.8-0.5-2.4-0.8c-0.6-0.4-0.9-1-0.9-1.7c0-0.6,0.2-1.1,0.7-1.6
	c0.6-0.5,1.4-0.8,2.5-0.8c1.1,0,1.9,0.3,2.5,0.8c0.4,0.4,0.6,0.7,0.8,1.5L671,8.3c-0.1-0.4-0.2-0.6-0.4-0.8
	c-0.4-0.4-0.9-0.6-1.7-0.6c-1.2,0-2,0.6-2,1.4c0,0.4,0.2,0.7,0.5,0.9c0.4,0.2,0.8,0.3,1.8,0.5c1.6,0.4,2.1,0.5,2.5,0.9
	c0.5,0.4,0.8,1,0.8,1.7c0,1.6-1.4,2.6-3.6,2.6c-1.5,0-2.6-0.4-3.2-1.2c-0.2-0.3-0.4-0.6-0.5-1.3L666.7,12.1z"/>
<path id="XMLID_579_" class="st9" d="M674.4,14.7c0.1-0.6,0.1-1,0.1-1.8V4.3c0-0.8,0-1.2-0.1-1.8h1.4c-0.1,0.6-0.1,1-0.1,1.8v2.7
	c0,0.3,0,0.4,0,0.8c0.3-0.5,0.5-0.8,0.9-1.1c0.7-0.6,1.4-0.9,2.4-0.9c1.9,0,3,1.1,3,3v4c0,0.7,0,1.2,0.1,1.8h-1.4
	c0.1-0.5,0.1-1,0.1-1.8V9.1c0-1.4-0.7-2.1-1.9-2.1c-0.9,0-1.6,0.4-2.3,1.2c-0.4,0.6-0.7,1-0.8,1.7v3.1c0,0.7,0,1.2,0.1,1.8H674.4z"
	/>
<path id="XMLID_581_" class="st9" d="M690.1,7.1c-0.6,0-1,0-1.5,0.1V6c0.4,0.1,0.8,0.1,1.5,0.1h0.7V5.1c0-1,0.1-1.5,0.5-2
	c0.4-0.5,1.1-0.8,2-0.8c0.6,0,1.1,0.1,1.7,0.3l-0.3,1.1c-0.4-0.3-0.8-0.4-1.3-0.4c-0.5,0-0.9,0.1-1.1,0.4C692,4.1,692,4.4,692,5.2
	v0.9h0.8c0.7,0,1.1,0,1.7-0.1v1.2c-0.5-0.1-0.9-0.1-1.7-0.1H692v5.8c0,0.8,0,1.2,0.1,1.8h-1.4c0.1-0.6,0.1-1.1,0.1-1.8V7.1H690.1z"
	/>
<path id="XMLID_583_" class="st9" d="M697.7,2.5c-0.1,0.6-0.1,1-0.1,1.8v8.6c0,0.7,0,1.2,0.1,1.8h-1.4c0.1-0.6,0.1-1.1,0.1-1.8V4.3
	c0-0.8,0-1.2-0.1-1.8H697.7z"/>
<path id="XMLID_585_" class="st9" d="M699.6,10.4c0-2.8,1.7-4.5,4.3-4.5c2.6,0,4.3,1.8,4.3,4.5c0,2.7-1.7,4.5-4.2,4.5
	C701.3,14.9,699.6,13.2,699.6,10.4z M700.8,10.4c0,2.2,1.2,3.5,3,3.5c1.9,0,3-1.3,3-3.5s-1.2-3.5-3-3.5
	C702,6.9,700.8,8.2,700.8,10.4z"/>
<path id="XMLID_588_" class="st9" d="M717.2,14.7c-0.1-0.3-0.2-0.8-0.3-1.2l-1.6-4.7c0-0.1-0.1-0.4-0.3-1c-0.1,0.4-0.3,0.9-0.3,1
	l-1.6,4.6c-0.2,0.5-0.3,0.9-0.3,1.2h-1.1c-0.1-0.4-0.1-0.4-0.4-1.2L709.7,8c-0.2-0.6-0.4-1.3-0.6-1.9h1.5c0,0.5,0.1,1,0.4,1.7l1.2,4
	c0.1,0.3,0.2,0.6,0.3,1.2c0.1-0.4,0.3-1,0.3-1.2l1.5-4.5c0.2-0.5,0.3-0.9,0.3-1.2h1.1c0,0.3,0.2,0.7,0.3,1.2l1.5,4.6
	c0,0.1,0.1,0.5,0.2,0.7c0.1,0.2,0.1,0.2,0.1,0.4c0.1-0.6,0.2-1,0.3-1.1l1.2-4.1c0.2-0.7,0.3-1.3,0.4-1.7h1.5c-0.1,0.3-0.3,1-0.6,1.9
	l-1.7,5.5c-0.2,0.6-0.3,0.9-0.3,1.2H717.2z"/>
<path id="XMLID_590_" class="st9" d="M722.6,2.3c0.9,1.4,1.3,2.2,1.7,3.3c0.4,1.3,0.7,2.7,0.7,4.2c0,1.5-0.2,2.9-0.7,4.2
	c-0.4,1.2-0.8,1.9-1.7,3.3l-1-0.6c0.9-1.4,1.2-2.1,1.6-3.2c0.4-1.2,0.5-2.4,0.5-3.6c0-1.3-0.2-2.5-0.5-3.6c-0.4-1.1-0.7-1.9-1.6-3.2
	L722.6,2.3z"/>
<path id="XMLID_592_" class="st9" d="M503.3,32.1v1.1h-8.8v-1.1H503.3z M503.3,35.4v1.1h-8.8v-1.1H503.3z"/>
<g id="XMLID_74_">
	<path id="XMLID_595_" class="st9" d="M511.8,29.6c-0.4,0-0.8,0-1.2,0.1v-1.1c0.4,0.1,0.7,0.1,1.2,0.1h0.9v-1.5c0-0.7,0-1.1-0.1-1.6
		h1.2c-0.1,0.5-0.1,0.9-0.1,1.6v1.6h0.5c0.5,0,0.8,0,1.1-0.1v1c-0.4,0-0.6-0.1-1.1-0.1h-0.5v3.2c0.1,0,0.1,0,0.2-0.1
		c0.5-0.2,0.8-0.4,1.5-0.7v1c-0.7,0.4-0.9,0.5-1.7,0.8v5c0,0.9-0.4,1.1-1.8,1.1c-0.3,0-0.5,0-1,0c0-0.4-0.1-0.6-0.2-1
		c0.7,0.1,1,0.1,1.4,0.1c0.5,0,0.6-0.1,0.6-0.5v-4.3c-0.2,0.1-0.9,0.4-1.3,0.5c-0.2,0.1-0.4,0.1-0.6,0.3l-0.3-1.1
		c0.6-0.1,1.2-0.3,2.2-0.7v-3.6H511.8z M517.3,28.4c-0.6,0-1,0-1.5,0.1v-1.1c0.4,0.1,0.8,0.1,1.5,0.1h1.8v-0.6c0-0.5,0-0.9-0.1-1.3
		h1.2c-0.1,0.4-0.1,0.8-0.1,1.3v0.6h2.4c0.7,0,1.1,0,1.5-0.1v1.1c-0.5-0.1-0.9-0.1-1.5-0.1h-2.4v2.1h2.8c0.7,0,1.2,0,1.6-0.1v1.1
		c-0.4-0.1-1-0.1-1.6-0.1h-0.4v1.8h0.1c0.7,0,1.1,0,1.6-0.1v1.1c-0.4-0.1-0.9-0.1-1.6-0.1h-0.1v4.5c0,0.9-0.4,1.2-1.6,1.2
		c-0.5,0-0.9,0-1.7-0.1c0-0.4-0.1-0.7-0.3-1.1c0.7,0.1,1.2,0.2,1.9,0.2c0.6,0,0.7-0.1,0.7-0.5v-4.3h-4.3c-0.7,0-1.1,0-1.6,0.1v-1.1
		c0.5,0.1,0.9,0.1,1.6,0.1h4.3v-1.8h-4.8c-0.7,0-1.2,0-1.6,0.1v-1.1c0.4,0.1,1,0.1,1.6,0.1h2.3v-2.1H517.3z M517.2,34.9
		c1,0.9,1.4,1.3,2.3,2.4l-0.8,0.7c-0.8-1.2-1.3-1.7-2.3-2.6L517.2,34.9z"/>
	<path id="XMLID_599_" class="st9" d="M528.2,28.4c-0.7,0-1.2,0-1.8,0.1v-1.2c0.5,0.1,1,0.1,1.8,0.1h3.2c0.3-0.7,0.5-1.4,0.6-2
		l1.2,0.1c-0.1,0.2-0.1,0.2-0.3,0.9c-0.1,0.3-0.2,0.6-0.4,1h6.4c0.7,0,1.2,0,1.7-0.1v1.2c-0.5-0.1-1.1-0.1-1.7-0.1H532
		c-0.3,0.6-0.7,1.3-1.1,1.8h5.8c0.8,0,1.2,0,1.7-0.1c0,0.5-0.1,1-0.1,1.9v6.4c0,0.5-0.1,0.8-0.4,1c-0.2,0.2-0.6,0.2-1.3,0.2
		c-0.5,0-1,0-1.8-0.1c0-0.4-0.1-0.6-0.2-1c0.8,0.1,1.3,0.2,2,0.2c0.6,0,0.7-0.1,0.7-0.5v-2h-6.8v1.7c0,0.8,0,1.3,0.1,1.8h-1.2
		c0.1-0.6,0.1-1.1,0.1-1.8v-6.1c-0.9,1-1.6,1.7-2.9,2.7c-0.2-0.4-0.3-0.5-0.7-0.8c1.2-0.8,2.2-1.6,3.2-2.7c0.7-0.8,1.3-1.6,1.8-2.6
		H528.2z M537.4,32.9v-1.7h-6.8v1.7H537.4z M530.7,35.5h6.8v-1.7h-6.8V35.5z"/>
	<path id="XMLID_603_" class="st9" d="M545.8,29.8c0.7,0,1,0,1.3-0.1v1c-0.4,0-0.7-0.1-1.3-0.1h-0.4v5c0.7-0.3,1-0.5,1.8-0.9l0.1,1
		c-1.6,0.9-2.3,1.2-4.1,2c-0.2,0.1-0.5,0.2-0.6,0.3l-0.3-1.1c0.6-0.1,0.9-0.2,2.1-0.7v-5.5h-0.6c-0.7,0-0.9,0-1.3,0.1v-1.1
		c0.4,0.1,0.7,0.1,1.3,0.1h0.6v-2.4c0-0.8,0-1.3-0.1-1.8h1.2c-0.1,0.5-0.1,1-0.1,1.8v2.4H545.8z M547.9,32.3c-0.9,0.3-1,0.3-1.3,0.5
		l-0.3-1.1c0.4,0,0.9-0.1,1.4-0.3l0.6-0.2v-2.5c0-0.7,0-1.2-0.1-1.6h1.2c-0.1,0.5-0.1,0.9-0.1,1.6v2.2l2.3-0.8v-3c0-0.6,0-1-0.1-1.5
		h1.2c-0.1,0.5-0.1,0.9-0.1,1.5v2.6l2.5-0.8c0.5-0.2,0.8-0.3,1.3-0.5c-0.1,3.3-0.3,4.8-0.4,5.6c-0.1,0.6-0.3,0.9-0.6,1.1
		c-0.3,0.1-0.6,0.2-1,0.2c-0.2,0-0.4,0-0.8,0c0-0.4-0.1-0.7-0.2-1c0.4,0.1,0.8,0.1,1.2,0.1c0.4,0,0.4-0.1,0.5-0.5
		c0.1-0.6,0.2-1.9,0.3-4l-2.7,0.9v4.4c0,0.6,0,1.1,0.1,1.5h-1.2c0.1-0.4,0.1-0.9,0.1-1.6V31l-2.3,0.8v6c0,0.4,0.1,0.5,0.5,0.6
		c0.4,0.1,1.1,0.1,2.6,0.1c2.3,0,2.9-0.1,3.2-0.4c0.2-0.3,0.3-1,0.3-2.2c0.4,0.2,0.6,0.3,1,0.4c-0.2,3-0.5,3.2-4.6,3.2
		c-3.3,0-4-0.2-4-1.5v-5.9L547.9,32.3z"/>
	<path id="XMLID_606_" class="st9" d="M570.5,26.8c0.8,0,1.2,0,1.7-0.1v1c-0.5,0-0.9-0.1-1.7-0.1h-1.3c-0.1,0.2-0.1,0.3-0.2,0.7
		c-0.3,1-0.5,1.4-0.8,2h2.2c0.9,0,1.4,0,2-0.1v1.1c-0.5-0.1-1-0.1-2-0.1h-9.7c0,2.9-0.1,3.8-0.4,5.3c-0.3,1.5-0.6,2.3-1.4,3.6
		c-0.3-0.4-0.4-0.6-0.8-0.8c0.7-1,1-1.7,1.2-2.9c0.3-1.3,0.4-2.6,0.4-4.7c0-0.6,0-1-0.1-1.5c0.4,0.1,0.8,0.1,1.8,0.1h2
		c-0.4-1.6-0.5-1.9-0.8-2.7h-1.6c-0.8,0-1.1,0-1.6,0.1v-1c0.4,0.1,0.9,0.1,1.6,0.1h4.1c-0.5-0.8-0.5-0.8-0.7-1.1l0.9-0.5
		c0.3,0.4,0.3,0.4,0.9,1.4c0,0,0,0,0.1,0.2H570.5z M567.2,30.4c0.3-0.5,0.4-0.8,0.7-1.9c0.1-0.5,0.2-0.6,0.2-0.8h-4.6
		c0.2,0.4,0.3,0.6,0.5,1.4c0.2,0.6,0.2,0.8,0.4,1.2H567.2z"/>
	<path id="XMLID_609_" class="st9" d="M578.7,28c0.8,0,1.3,0,1.4,0c0,0.4,0,0.8,0,1.4v8.1c0,0.7,0,1.3,0.1,1.6h-1.1v-1h-3.1v1.4
		h-1.1c0.1-0.4,0.1-1,0.1-2v-8.1c0-0.8,0-1.1-0.1-1.5c0.3,0,0.6,0,1.4,0h0.3c0.3-0.8,0.6-1.6,0.7-2.4l1.1,0.2
		c-0.3,0.9-0.6,1.7-0.8,2.2H578.7z M575.9,32.4h3.1v-3.6h-3.1V32.4z M575.9,37.2h3.1v-3.9h-3.1V37.2z M587,27.9c0.6,0,1.1,0,1.4-0.1
		c0,0.3,0,0.4-0.1,1c-0.1,6.3-0.4,8.5-0.9,9.8c-0.3,0.7-0.8,1-1.8,1c-0.6,0-1,0-2-0.1c0-0.5-0.1-0.7-0.3-1.1c1,0.2,1.7,0.3,2.3,0.3
		c0.6,0,0.8-0.1,1-0.7c0.3-0.7,0.5-2.3,0.6-4.4c0.1-1.3,0.1-2.4,0.1-4.7h-4.6c-0.5,1.1-1,1.8-1.8,2.9c-0.2-0.3-0.5-0.5-0.8-0.7
		c1-1,1.8-2.4,2.4-4c0.2-0.6,0.4-1.2,0.4-1.6l1.1,0.2c0,0.1-0.1,0.3-0.2,0.6c-0.2,0.6-0.4,1-0.6,1.6H587z M584.5,35.5
		c-0.9-1.9-1.5-2.9-2.4-4l0.8-0.5c1,1.2,1.7,2.3,2.5,4L584.5,35.5z"/>
	<path id="XMLID_615_" class="st9" d="M593.2,27.4c-0.5,0.1-1.2,0.3-2.1,0.4c-0.1-0.3-0.2-0.5-0.5-0.9c2.2-0.2,4-0.8,4.9-1.4
		l0.6,0.9c-1.2,0.5-1.3,0.6-2,0.8v2.6h1.2c0.5,0,0.8,0,1.1-0.1v1c-0.3,0-0.6-0.1-1.1-0.1h-1.2v0.5c1.2,1.2,1.7,1.8,2.3,2.6l-0.7,0.7
		c-0.5-0.8-0.9-1.4-1.6-2.2v6c0,1,0,1.4,0.1,1.9h-1.2c0.1-0.5,0.1-0.9,0.1-1.9v-3.7c0-0.6,0-1.8,0.1-2.6c-0.5,1.8-1.3,3.3-2.4,4.6
		c-0.2-0.5-0.3-0.6-0.6-0.9c1.2-1.3,2.2-3.1,2.8-4.9c0-0.1,0-0.1,0-0.2h-1.2c-0.6,0-1,0-1.3,0.1v-1c0.4,0.1,0.7,0.1,1.4,0.1h1.4
		V27.4z M601.7,26.1c0.8,0,1.4,0,1.8-0.1c0,0.5-0.1,0.9-0.1,1.7v10.8h0.1c0.7,0,1,0,1.4-0.1v1.1c-0.5-0.1-1-0.1-1.6-0.1H597
		c-0.6,0-1.2,0-1.6,0.1v-1.1c0.4,0.1,0.7,0.1,1.5,0.1h0.3V27.7c0-0.7,0-1.2-0.1-1.7c0.6,0,1,0.1,1.6,0.1H601.7z M598.2,30.2h4.3V27
		h-4.3V30.2z M598.2,34.2h4.3v-3.1h-4.3V34.2z M598.2,38.5h4.3v-3.4h-4.3V38.5z"/>
	<path id="XMLID_621_" class="st9" d="M614,25.9c0.8,1,1.3,1.5,2.2,2.3c1.3,1,3,2,4.6,2.6c-0.3,0.4-0.4,0.7-0.6,1.1
		c-1.2-0.6-1.9-0.9-2.9-1.6v0.9c-0.4-0.1-0.8-0.1-1.5-0.1h-2v2.2h4.3c0.7,0,1.1,0,1.6-0.1v1.1c-0.5-0.1-0.9-0.1-1.6-0.1h-4.3v4.2
		h4.7c0.7,0,1.2,0,1.8-0.1v1.2c-0.5-0.1-1.1-0.1-1.8-0.1h-10.1c-0.6,0-1.2,0-1.8,0.1v-1.2c0.5,0.1,1.1,0.1,1.8,0.1h4.4v-4.2h-4
		c-0.6,0-1.1,0-1.6,0.1v-1.1c0.4,0.1,0.9,0.1,1.6,0.1h4v-2.2h-1.7c-0.7,0-1.1,0-1.5,0.1v-1c-0.6,0.4-0.6,0.4-2.8,1.6
		c-0.2-0.2-0.2-0.3-0.3-0.4c0,0-0.1-0.1-0.2-0.2c0-0.1-0.1-0.2-0.2-0.3c1.6-0.6,2.8-1.3,3.8-2.2c1.4-1.1,2.3-2.2,3.3-3.5l0.9,0.5
		L614,25.9z M609.7,34.7c0.6,1,0.9,1.7,1.4,2.9l-0.9,0.4c-0.4-1.1-0.8-2-1.4-2.8L609.7,34.7z M615.8,30.2c0.6,0,1,0,1.3-0.1
		c-1.5-1-2.8-2.2-3.8-3.4c-1.1,1.4-2.4,2.5-3.7,3.4c0,0,0,0,0.2,0c0.2,0,0.7,0,1.3,0H615.8z M618.2,35.1c-0.7,1.5-1,2-1.7,3
		l-0.9-0.4c0.7-0.9,1.2-1.8,1.6-3L618.2,35.1z"/>
	<path id="XMLID_626_" class="st9" d="M624.3,35.5c0.8-0.3,1.6-0.7,2-0.9v-7.3c0-0.7,0-1.2-0.1-1.7h1.2c-0.1,0.5-0.1,0.9-0.1,1.7v11
		c0,0.8,0,1.3,0.1,1.7h-1.2c0.1-0.5,0.1-1,0.1-1.7v-2.6c-0.3,0.1-0.5,0.2-0.9,0.4c-0.7,0.3-0.8,0.3-1.4,0.6
		c-0.4,0.2-0.4,0.2-0.8,0.3l-0.4-1c0.4-0.2,0.5-0.4,0.5-0.8v-6.6c0-0.7,0-1.2-0.1-1.7h1.2c-0.1,0.5-0.1,0.9-0.1,1.7V35.5z
		 M634.8,29.2c-0.1,1.6-0.1,1.8-0.4,2.9c-0.3,1.5-0.7,2.5-1.4,3.6c1.1,1.4,2.4,2.4,4.1,3.3c-0.3,0.3-0.5,0.6-0.7,1
		c-1.8-1.1-2.8-2-3.9-3.4c-1,1.3-2.3,2.4-4,3.4c-0.4-0.6-0.6-0.8-0.8-0.9c2-1,3.1-2,4.1-3.4c-0.9-1.4-1.6-2.8-2.2-4.5
		c-0.6,1-0.7,1.2-1.4,2.1c-0.3-0.4-0.4-0.5-0.8-0.8c1-1.2,1.6-2.3,2.2-3.9c0.4-1.2,0.6-2.3,0.6-3.2l1.2,0.2c-0.1,0.2-0.1,0.3-0.5,2
		c0,0.2-0.1,0.4-0.2,0.8h4.3c0.7,0,1.1,0,1.5-0.1v1.1c-0.4-0.1-0.8-0.1-1.5-0.1H634.8z M630.5,29.2c-0.1,0.2-0.1,0.3-0.3,0.7
		c0.4,1.3,0.5,1.6,0.9,2.5c0.4,0.9,0.7,1.5,1.3,2.3c0.9-1.6,1.3-3.4,1.4-5.5H630.5z"/>
	<path id="XMLID_630_" class="st9" d="M643.3,25.7c0.8,0.5,1.4,1,2.1,1.6c0.7,0.7,1.2,1.5,1.7,3.1c0.7,2.1,0.9,2.5,1.4,3.5
		c0.7,1.3,1.3,2.3,2.1,3.1c0.5,0.5,1.1,1,2.2,1.7c-0.4,0.3-0.6,0.5-0.9,0.9c-1.5-1.1-2.4-2-3.2-3.2c-0.4-0.7-1-1.6-1.4-2.5
		c-0.3-0.6-0.4-0.8-1.1-2.8c-0.2-0.5-0.3-0.8-0.5-1.2c-0.1,0.3-0.1,0.3-0.3,0.8c-0.6,1.9-1.5,3.8-2.5,5.3c-1,1.5-1.9,2.3-3.8,3.7
		c-0.2-0.4-0.4-0.5-0.8-0.9c1.7-1,2.5-1.7,3.5-3.1c0.9-1.2,1.9-3,2.5-4.8c0.1-0.3,0.3-1.1,0.7-2.3c-0.7-0.9-0.9-1.1-2.5-2
		L643.3,25.7z"/>
</g>
<path id="XMLID_632_" class="st9" d="M496.5,57.4c0.4,0.1,0.8,0.1,1.5,0.1h1.9c0.7,0,1,0,1.5-0.1v1.3c-0.4-0.1-0.8-0.1-1.5-0.1H498
	c-0.6,0-1,0-1.5,0.1V57.4z"/>
<g id="XMLID_1_">
	<path id="XMLID_634_" class="st9" d="M513,56.5h-1.1c-0.5,0-0.8,0-1.2,0.1v-1c0.3,0.1,0.6,0.1,1.2,0.1h0.9c0.5,0,0.8,0,1.2-0.1
		c0,0.5-0.1,0.9-0.1,1.6v3.7c0.1,0.1,0.2,0.2,0.3,0.3c0.8,0.8,1,0.9,1.8,1.1c0.6,0.2,2,0.2,3.8,0.2c2.4,0,4.1-0.1,5.6-0.3
		c-0.2,0.4-0.3,0.6-0.4,1.2c-1.5,0.1-3.3,0.1-5.4,0.1c-2.1,0-3.5-0.1-4.2-0.4c-0.4-0.2-0.8-0.4-1-0.6c0,0-0.2-0.2-0.6-0.6
		c-0.2-0.2-0.3-0.3-0.5-0.3c-0.4,0-1.4,0.9-2.1,1.9l-0.8-0.8c1.2-1.2,2-1.8,2.5-2V56.5z M511.9,49.8c1.1,1,1.6,1.6,2.5,2.8l-0.8,0.7
		c-0.9-1.4-1.3-1.8-2.4-2.9L511.9,49.8z M516.4,54.7c-0.7,0-1.1,0-1.5,0.1v-1.3c0.4,0.1,0.9,0.1,1.5,0.1h7.1c0.6,0,1.2,0,1.5-0.1
		v1.3c-0.4-0.1-0.9-0.1-1.5-0.1l-4.2,0c-0.6,1.6-0.6,1.7-1.1,2.8c-0.6,1.4-0.7,1.5-1.1,2.1c1.8-0.1,4.2-0.5,5.5-0.8
		c-0.3-0.7-0.8-1.5-1.5-2.5l0.9-0.5c1.5,2.3,2,3.3,2.9,5.1l-0.9,0.5c-0.3-0.8-0.6-1.4-0.8-1.8c-1.4,0.3-2.6,0.5-5.6,0.8
		c-0.9,0.1-1.1,0.1-1.9,0.3l-0.3-1.1c0.7-0.2,0.9-0.4,1.5-1.6c0.6-1.3,0.9-2.2,1.3-3.4L516.4,54.7z M523.8,51.3
		c-0.4-0.1-1-0.1-1.5-0.1h-4.7c-0.5,0-1.2,0-1.5,0.1v-1.2c0.3,0.1,0.8,0.1,1.5,0.1h4.7c0.7,0,1.2,0,1.5-0.1V51.3z"/>
	<path id="XMLID_639_" class="st9" d="M539.1,50.8c0.8,0,1.3,0,1.8-0.1v1.1c-0.5-0.1-0.9-0.1-1.8-0.1h-2.5v0.1c0,0.5,0,0.7,0.1,1
		h-1.1c0-0.4,0-0.6,0-1v-0.1h-3.8v0.1c0,0.5,0,0.7,0,1.1h-1.1c0-0.3,0.1-0.6,0.1-1v-0.1h-2.3c-0.9,0-1.3,0-1.8,0.1v-1.1
		c0.5,0.1,1,0.1,1.8,0.1h2.3v-0.3c0-0.4,0-0.6-0.1-1h1.2c-0.1,0.4-0.1,0.6-0.1,1v0.3h3.8v-0.3c0-0.4,0-0.6-0.1-1h1.2
		c-0.1,0.5-0.1,0.7-0.1,1v0.3H539.1z M527,56.3c0-0.4,0.1-0.7,0.1-1.1v-0.6c0-0.6,0-0.9-0.1-1.3c0.5,0,1,0.1,1.6,0.1h10.5
		c0.6,0,1,0,1.6-0.1c0,0.4-0.1,0.7-0.1,1.3v0.6c0,0.5,0,0.8,0.1,1.1h-1.1v-2.1h-11.5v2.1H527z M528.3,61c0-0.7,0-1-0.1-1.5
		c0.4,0.1,0.8,0.1,1.5,0.1h8.3c0.8,0,1.1,0,1.5-0.1c0,0.4-0.1,0.8-0.1,1.5v1.2c0,0.9,0,1.2,0.1,1.6h-1.1v-0.6h-9.3v0.6h-1.1
		c0.1-0.4,0.1-0.8,0.1-1.6V61z M529.3,62.3h9.3v-1.7h-9.3V62.3z M538.3,57.4c0,0.5,0,0.8,0,1.2c-0.4-0.1-0.8-0.1-1.4-0.1h-6.2
		c-0.6,0-1,0-1.4,0.1c0-0.4,0-0.7,0-1.2v-1c0-0.4,0-0.7,0-1.1c0.4,0.1,0.6,0.1,1.3,0.1h6.4c0.6,0,0.9,0,1.3-0.1c0,0.4,0,0.7,0,1.2
		V57.4z M530.4,57.7h7v-1.4h-7V57.7z"/>
	<path id="XMLID_646_" class="st9" d="M555.1,51.8c0.7,0,1.2,0,1.7-0.1v1.2c-0.5-0.1-1-0.1-1.7-0.1h-4.8v2.6h2.2
		c0.7,0,1.1,0,1.4-0.1l0.7,0.7c-0.2,0.2-0.3,0.4-0.6,0.8c-0.8,1.3-1.9,2.4-3.2,3.5c1.8,1.2,3.6,1.9,6.2,2.4
		c-0.3,0.4-0.4,0.6-0.6,1.1c-2.7-0.7-4.6-1.5-6.5-2.9c-2,1.4-4,2.3-6.5,2.8c-0.2-0.4-0.3-0.7-0.6-1c2.4-0.4,4.5-1.2,6.3-2.4
		c-0.7-0.6-1.3-1.2-1.8-1.9c-0.5-0.7-0.7-1.1-1.2-2.1H546c-0.7,0-1.2,0-1.7,0.1v-1.1c0.4,0.1,1,0.1,1.7,0.1h3.3v-2.6h-4.5
		c-0.7,0-1.2,0-1.7,0.1v-1.2c0.5,0.1,1,0.1,1.7,0.1h4.5v-1c0-0.6,0-1-0.1-1.4h1.3c-0.1,0.4-0.1,0.7-0.1,1.4v1H555.1z M547.3,56.3
		c0.7,1.5,1.4,2.3,2.8,3.4c1.4-1.1,2.2-2,3.1-3.4H547.3z"/>
	<path id="XMLID_649_" class="st9" d="M565.2,51c0-0.7,0-1.1-0.1-1.5h1.3c-0.1,0.4-0.1,0.8-0.1,1.5v4h4.2v-3c0-0.4,0-0.8-0.1-1.2
		h1.2c-0.1,0.5-0.1,0.8-0.1,1.2v3.2c0,0.3,0,0.5,0,0.8c-0.3,0-0.7,0-1,0h-4.3v6h4.8v-3.2c0-0.6,0-1-0.1-1.4h1.2
		c-0.1,0.4-0.1,0.8-0.1,1.4v3.7c0,0.6,0,0.9,0.1,1.3h-1.2v-0.9h-10.3c-0.5,0-0.9,0-1.3,0.1c0-0.4,0.1-0.7,0.1-1.2v-3
		c0-0.6,0-1-0.1-1.4h1.2c-0.1,0.4-0.1,0.8-0.1,1.4v3.2h4.6v-6h-4c-0.3,0-0.7,0-1,0c0-0.3,0-0.5,0-0.8v-3.2c0-0.4,0-0.8-0.1-1.2h1.2
		c0,0.3-0.1,0.7-0.1,1.2v3h3.9V51z"/>
</g>
<path id="XMLID_651_" class="st9" d="M496.5,81.4c0.4,0.1,0.8,0.1,1.5,0.1h1.9c0.7,0,1,0,1.5-0.1v1.3c-0.4-0.1-0.8-0.1-1.5-0.1H498
	c-0.6,0-1,0-1.5,0.1V81.4z"/>
<g id="XMLID_2_">
	<path id="XMLID_653_" class="st9" d="M512.6,76.2c-0.5,1-0.8,1.4-1.5,2.1c-0.2-0.4-0.4-0.5-0.7-0.8c0.8-0.9,1.3-1.7,1.8-2.8
		c0.2-0.4,0.3-0.8,0.4-1.2l1.1,0.3c-0.1,0.2-0.2,0.4-0.5,1.2c-0.1,0.1-0.1,0.2-0.2,0.4h2.2c0.8,0,1.2,0,1.5-0.1v1.1
		c-0.4-0.1-0.8-0.1-1.5-0.1H512.6z M512.3,82.2c-0.6,0-1.1,0-1.5,0.1v-1c0.4,0,0.9,0.1,1.5,0.1h0.9V79h-0.7c-0.3,0-0.8,0-1.1,0.1v-1
		c0.4,0,0.6,0.1,1.1,0.1h2.7c0.4,0,0.8,0,1.1-0.1v1c-0.4,0-0.7,0-1.1,0h-1v2.3h1c0.6,0,1,0,1.5-0.1v1c-0.5-0.1-1-0.1-1.5-0.1h-1v3.7
		c1.7-0.9,1.7-0.9,2.3-1.3l0,1.1c-1,0.6-2.9,1.6-3.4,1.8l-0.5-0.9c0.4-0.2,0.5-0.3,0.5-0.6v-3.7H512.3z M525.2,82
		c-1.5,1.3-1.5,1.3-2.7,2.1c0.7,1,1.6,1.9,3.1,2.7c-0.4,0.3-0.4,0.4-0.7,0.9c-1.7-1.2-2.6-2.2-3.4-3.6c-0.5-0.9-0.8-1.8-1-2.8
		c0,0,0-0.1-0.1-0.7h-1.8v5.7c0.9-0.3,2.1-0.7,3-1l0,1c-0.4,0.1-0.4,0.1-1.2,0.4c-0.5,0.2-0.5,0.2-1.7,0.5c-0.3,0.1-0.3,0.1-0.8,0.3
		c-0.3,0.1-0.3,0.1-0.4,0.1l-0.4-0.9c0.4-0.2,0.4-0.2,0.5-0.8V75.8c0-0.6,0-1.1-0.1-1.7c0.5,0.1,0.8,0.1,1.6,0.1h3.8
		c0.8,0,1.1,0,1.5-0.1c0,0.4,0,0.8,0,1.7v3.3c0,1,0,1.3,0,1.6c-0.4,0-0.8,0-1.4,0h-1.8c0.2,1.1,0.4,1.7,0.8,2.5
		c1.1-0.7,1.8-1.4,2.4-2.1L525.2,82z M518.5,77h4.8v-1.9h-4.8V77z M518.5,79.9h4.8v-2.1h-4.8V79.9z"/>
	<path id="XMLID_659_" class="st9" d="M529.2,82.4c0-0.7,0-1.2,0-1.9c-0.6,0.7-1,1.2-1.8,1.8c-0.2-0.4-0.4-0.7-0.6-0.9
		c1.2-0.8,2.3-1.9,3.2-3.2c0.4-0.5,0.6-0.9,0.8-1.4l1,0.6c-0.2,0.2-0.2,0.3-0.5,0.7c-0.3,0.5-0.6,0.9-1.1,1.4V86c0,0.9,0,1.5,0.1,2
		h-1.3c0.1-0.4,0.1-1.1,0.1-2V82.4z M531.4,74.1c-0.1,0.1-0.1,0.2-0.3,0.4c-1,1.3-2.1,2.4-3.6,3.5c-0.2-0.4-0.4-0.5-0.7-0.8
		c0.9-0.6,1.5-1,2.1-1.7c0.8-0.8,1.2-1.4,1.5-2L531.4,74.1z M538.5,86.4c0,1-0.4,1.3-1.8,1.3c-0.6,0-1.2,0-1.9-0.1
		c0-0.4-0.1-0.7-0.3-1.1c0.9,0.1,1.6,0.2,2.3,0.2c0.5,0,0.7-0.1,0.7-0.4v-6.9h-3.7c-0.8,0-1.4,0-1.8,0.1v-1.1c0.4,0.1,1,0.1,1.8,0.1
		h5.6c0.8,0,1.4,0,1.8-0.1v1.1c-0.4-0.1-1-0.1-1.7-0.1h-0.9V86.4z M532.6,74.4c0.4,0.1,0.9,0.1,1.7,0.1h4.5c0.7,0,1.2,0,1.6-0.1v1.1
		c-0.5-0.1-1-0.1-1.6-0.1h-4.5c-0.6,0-1.2,0-1.7,0.1V74.4z"/>
	<path id="XMLID_664_" class="st9" d="M546.4,78.2c0,0.5,0,0.7,0.1,1h-1.1c0.1-0.2,0.1-0.5,0.1-0.9v-1.2c0-0.3,0-0.7,0.1-1
		c-0.8,0.6-1.5,1.1-2.3,1.5c-0.2-0.4-0.3-0.4-0.6-0.8c1.9-0.9,3.7-2.4,4.2-3.5l1,0.5c-0.1,0.1-0.1,0.1-0.2,0.2
		c-0.4,0.5-0.7,0.8-1.2,1.3V78.2z M550.5,81.4c0,0.3,0,0.5-0.1,1.2c0,1.5-0.2,2.2-0.7,2.9c-0.5,0.7-1.2,1.2-2.4,1.6
		c-0.8,0.3-1.4,0.4-2.5,0.6c-0.1,0-0.6,0.1-1.4,0.2c-0.1-0.4-0.2-0.6-0.5-1c1.8,0,3.1-0.3,4.4-0.8c1-0.4,1.6-1,1.9-1.8
		c0.1-0.4,0.2-1,0.2-1.9c0-0.5,0-0.7,0-1H550.5z M544.9,85.4c0.1-0.5,0.1-1,0.1-1.8v-2.2c0-1,0-1.2,0-1.7c0.4,0,1,0.1,1.8,0.1h6.5
		c0.8,0,1.4,0,1.8-0.1c0,0.4-0.1,0.9-0.1,1.6v2.3c0,0.9,0,1.3,0.1,1.8h-1.2c0.1-0.6,0.1-1,0.1-1.8v-2.9H546v2.9c0,0.6,0,1.4,0.1,1.8
		H544.9z M548.6,76.7c-0.6,0-0.9,0.1-1.2,0.2l-0.1-1.1c0.2,0,0.4,0,0.6,0c0.3,0,0.5,0,0.7,0l1.8-0.2c-0.3-0.5-0.4-0.8-0.7-1.6
		c-0.1-0.2-0.1-0.2-0.1-0.4l1.1-0.2c0.1,0.7,0.4,1.4,0.8,2l3.9-0.4c0.8-0.1,1.2-0.1,1.6-0.3L557,76c-0.1,0-0.2,0-0.4,0
		c-0.3,0-0.7,0-1.3,0.1l-3.3,0.3c1,1,2.6,2,3.4,2c0.2,0,0.3-0.1,0.4-0.4c0.1-0.3,0.3-0.7,0.4-1.3c0.3,0.3,0.5,0.4,0.8,0.6
		c-0.4,1.7-0.7,2.1-1.5,2.1c-0.7,0-2-0.6-3.1-1.3c-0.6-0.4-1.1-0.9-1.5-1.5L548.6,76.7z M551.1,84.9c0.8,0.3,0.8,0.3,2.2,0.8
		c0.8,0.3,1,0.3,2.3,0.8c0.8,0.3,0.8,0.3,1.5,0.6l-0.4,0.9c-0.6-0.3-1.1-0.4-1.4-0.6c-1.6-0.7-2.4-1-4.6-1.7L551.1,84.9z
		 M554.1,75.2c-0.8-0.6-1.1-0.8-2-1.2l0.7-0.5c1,0.5,1.4,0.7,2,1.2L554.1,75.2z"/>
	<path id="XMLID_671_" class="st9" d="M561.4,83.3c-0.5,1.6-1,2.5-1.8,3.6c-0.3-0.3-0.5-0.4-0.8-0.6c0.8-1,1.2-1.8,1.7-3.3
		L561.4,83.3z M563.4,86.7c0,0.9-0.3,1.1-1.5,1.1c-0.2,0-0.5,0-1,0c0-0.5-0.1-0.7-0.2-1c0.4,0.1,0.9,0.1,1.3,0.1s0.5-0.1,0.5-0.3
		v-4.2h-2.1c-0.7,0-1,0-1.4,0.1v-1c0.4,0.1,0.7,0.1,1.4,0.1h4.6c0.7,0,1.1,0,1.4-0.1v1c-0.4-0.1-0.8-0.1-1.4-0.1h-1.6V86.7z
		 M564.8,75.1c0.8,0,1.2,0,1.6-0.1v1c-0.4-0.1-0.8-0.1-1.6-0.1h-1.5v1.4h1.2c0.9,0,1.1,0,1.5-0.1v0.9c-0.4,0-0.8-0.1-1.4-0.1h-3.6
		c-0.7,0-1.1,0-1.5,0.1v-0.9c0.3,0,0.6,0.1,1.5,0.1h1.4v-1.4h-1.7c-0.8,0-1.2,0-1.6,0.1v-1c0.4,0.1,0.8,0.1,1.6,0.1h1.7v-0.4
		c0-0.5,0-0.8-0.1-1.2h1.1c-0.1,0.3-0.1,0.8-0.1,1.2v0.4H564.8z M565.8,80.3c-0.2,0-0.6-0.1-1-0.1h-4.1c-0.4,0-0.8,0-1,0.1v-1
		c0.3,0,0.6,0.1,1.1,0.1h4.1c0.5,0,0.8,0,1-0.1V80.3z M564.9,82.9c0.5,0.8,0.8,1.3,1.2,2.2l-0.8,0.5c-0.4-1-0.6-1.5-1.1-2.3
		L564.9,82.9z M569.7,78.1c0,0.3,0,0.4,0,0.6c0,2.4,0.6,4.5,1.6,6.1c0.6,0.9,1.3,1.6,2.3,2.3c-0.3,0.3-0.4,0.4-0.7,1
		c-0.9-0.7-1.6-1.5-2.2-2.3c-0.8-1.2-1.2-2.3-1.5-4.1c-0.4,2.8-1.5,4.7-3.9,6.3c-0.3-0.4-0.4-0.5-0.8-0.8c0.8-0.5,1.1-0.8,1.6-1.2
		c0.9-0.9,1.5-1.9,1.9-3.2c0.4-1.2,0.5-2.4,0.5-3.9c0-0.3,0-0.4,0-0.7H569.7z M571.6,76c0.7,0,1,0,1.2-0.1l0.5,0.6
		c-0.1,0.3-0.2,0.4-0.4,1c-0.2,0.8-0.8,2-1.4,2.9c-0.3-0.2-0.5-0.4-0.8-0.5c0.6-0.8,0.9-1.6,1.5-3h-4.1c-0.4,1.3-0.9,2.1-1.5,3
		c-0.3-0.4-0.4-0.5-0.8-0.7c1.1-1.4,2-4.1,2.1-5.9l1.1,0.2c-0.1,0.3-0.1,0.4-0.2,0.9c-0.2,0.7-0.2,0.8-0.4,1.6H571.6z"/>
	<path id="XMLID_679_" class="st9" d="M581.3,75c0-0.5,0-0.9-0.1-1.5h1.3c-0.1,0.5-0.1,0.9-0.1,1.4v1.4h4.7c0.8,0,1.3,0,1.8-0.1v1.2
		c-0.7-0.1-1.2-0.1-1.8-0.1h-4.3c0.8,1.4,1.8,2.8,2.8,3.9c1.2,1.3,2.4,2.2,3.8,3c-0.3,0.4-0.5,0.6-0.7,1c-1.3-0.9-2.3-1.7-3.3-2.8
		c-1.3-1.4-2.2-2.8-3-4.5c0,1,0.1,1.6,0.1,2.1v3.6h1.7c0.8,0,1.1,0,1.6-0.1v1.1c-0.5-0.1-0.9-0.1-1.6-0.1h-1.7v1.5
		c0,0.8,0,1.3,0.1,1.8h-1.3c0.1-0.6,0.1-1.1,0.1-1.9v-1.5h-1.5c-0.8,0-1.1,0-1.6,0.1v-1.1c0.4,0.1,0.8,0.1,1.6,0.1h1.6V80
		c0-0.6,0-1.2,0.1-2.1c-0.7,1.7-1.6,3.1-3,4.6c-1,1.1-1.9,1.9-3,2.7c-0.2-0.4-0.4-0.6-0.8-0.9c1.4-0.8,2.5-1.8,3.7-3.3
		c1.2-1.4,2-2.5,2.6-3.8h-4.1c-0.6,0-1.2,0-1.8,0.1v-1.2c0.6,0.1,1.1,0.1,1.8,0.1h4.5V75z"/>
	<path id="XMLID_681_" class="st9" d="M590.8,86.7c1-1.1,1.4-1.8,1.9-3.3l0.9,0.4c-0.6,1.6-1,2.4-2,3.5L590.8,86.7z M601.1,74.9
		c0.9,0,1.4,0,1.9-0.1c0,0.4-0.1,0.9-0.1,1.8v4.1c0,0.9,0,1.3,0.1,1.7c-0.5,0-1-0.1-1.8-0.1h-6.5c-0.8,0-1.3,0-1.8,0.1
		c0-0.4,0.1-0.7,0.1-1.7v-4.1c0-0.8,0-1.4-0.1-1.8c0.5,0,1,0.1,1.9,0.1h1.8c0.3-0.5,0.6-1.1,0.8-1.7l1.1,0.3
		c-0.4,0.8-0.4,0.9-0.8,1.4H601.1z M593.9,77.1h8.1v-1.3h-8.1V77.1z M593.9,79.4h8.1V78h-8.1V79.4z M593.9,81.6h8.1v-1.5h-8.1V81.6z
		 M595.8,86.1c0,0.7,0.1,0.7,2.2,0.7c1.7,0,2.4-0.1,2.6-0.3c0.2-0.2,0.3-0.7,0.4-1.7c0.4,0.2,0.6,0.3,1,0.4c-0.1,1.2-0.3,1.7-0.6,2
		c-0.4,0.4-1.3,0.5-3.5,0.5c-1.5,0-2.1-0.1-2.5-0.2c-0.4-0.2-0.6-0.5-0.6-1.2v-1.6c0-0.6,0-0.9-0.1-1.4h1.2
		c-0.1,0.4-0.1,0.7-0.1,1.4V86.1z M599,85.5c-0.7-0.9-1.2-1.5-2.1-2.2l0.7-0.5c0.9,0.7,1.3,1.2,2.1,2L599,85.5z M604.2,87.3
		c-0.6-1.4-1.2-2.3-2.1-3.5l0.8-0.4c1,1.2,1.5,2,2.2,3.4L604.2,87.3z"/>
</g>
</svg>
