<?xml version="1.0" encoding="utf-8"?>
<!-- Generator: Adobe Illustrator 19.0.0, SVG Export Plug-In . SVG Version: 6.00 Build 0)  -->
<svg version="1.1" id="图层_1" xmlns="http://www.w3.org/2000/svg" xmlns:xlink="http://www.w3.org/1999/xlink" x="0px" y="0px"
	 viewBox="0 0 120 120" style="enable-background:new 0 0 120 120;" xml:space="preserve">
<style type="text/css">
	.st0{opacity:0.7;}
	.st1{fill-rule:evenodd;clip-rule:evenodd;fill:#F5F5F5;}
	.st2{fill-rule:evenodd;clip-rule:evenodd;fill:#E9E9EB;}
	.st3{fill-rule:evenodd;clip-rule:evenodd;fill:#DDDEE1;}
	.st4{fill-rule:evenodd;clip-rule:evenodd;fill:#D1D2D6;}
	.st5{fill-rule:evenodd;clip-rule:evenodd;fill:#677475;}
	.st6{fill-rule:evenodd;clip-rule:evenodd;fill:#CCCCCC;}
	.st7{fill-rule:evenodd;clip-rule:evenodd;fill:#30383B;}
	.st8{fill-rule:evenodd;clip-rule:evenodd;fill:#4E5A5E;}
	.st9{fill-rule:evenodd;clip-rule:evenodd;fill:#9C9C9C;}
	.st10{fill-rule:evenodd;clip-rule:evenodd;fill:#E6EAEB;}
	.st11{fill-rule:evenodd;clip-rule:evenodd;fill:#E6B543;}
	.st12{fill-rule:evenodd;clip-rule:evenodd;fill:#D19917;}
	.st13{fill-rule:evenodd;clip-rule:evenodd;fill:#F0B11D;}
	.st14{fill-rule:evenodd;clip-rule:evenodd;fill:#FFCB05;}
	.st15{fill-rule:evenodd;clip-rule:evenodd;fill:#C5CCD1;}
	.st16{fill-rule:evenodd;clip-rule:evenodd;fill:#BDBDBD;}
	.st17{fill-rule:evenodd;clip-rule:evenodd;fill:#FF0000;}
	.st18{fill-rule:evenodd;clip-rule:evenodd;fill:#AB4032;}
</style>
<g>
	<g class="st0">
		<path id="XMLID_115_" class="st1" d="M80.2,89.2c12.2,7.1,12.2,18.5,0,25.5c-12.2,7.1-32,7.1-44.2,0c-12.2-7.1-12.2-18.5,0-25.5
			C48.2,82.1,68,82.1,80.2,89.2z"/>
		<path id="XMLID_114_" class="st2" d="M76.4,91.4c10.1,5.8,10.1,15.3,0,21.1c-10.1,5.8-26.4,5.8-36.5,0c-10.1-5.8-10.1-15.3,0-21.1
			C49.9,85.6,66.3,85.6,76.4,91.4z"/>
		<path id="XMLID_113_" class="st3" d="M72.5,93.6c8,4.6,8,12,0,16.6c-8,4.6-20.9,4.6-28.8,0c-8-4.6-8-12,0-16.6
			C51.7,89,64.6,89,72.5,93.6z"/>
		<path id="XMLID_112_" class="st4" d="M68.7,95.8c5.8,3.4,5.8,8.8,0,12.2c-5.8,3.4-15.3,3.4-21.1,0c-5.8-3.4-5.8-8.8,0-12.2
			C53.4,92.5,62.8,92.5,68.7,95.8z"/>
	</g>
	<g>
		<path class="st5" d="M33.5,75.7c0,0.1,0,0.1,0,0.2l-0.9,0.5l0.1,0l0-0.1l0-0.1l0-0.1l0-0.3l0-0.3l0-0.3l0.1-0.3l0.1-0.3l0.1-0.3
			l0.1-0.3l0.1-0.2l0.1-0.2l0.1-0.2l0.1-0.2l0.1-0.2l0.2-0.2l0.2-0.1l0.2-0.1l0.2-0.1L54,61.2l-0.2,0.1l-0.2,0.1l-0.2,0.1l-0.2,0.2
			l-0.1,0.2l-0.1,0.2l-0.1,0.2l-0.1,0.2l-0.1,0.2l-0.1,0.3l-0.1,0.3l-0.1,0.3l-0.1,0.3l0,0.3l0,0.3l0,0.3l0,0.1l0,0.1l0,0.1l-0.1,0
			l-10.8,6.2l-0.1,0l-0.1-0.1l-0.1,0l-0.2-0.1l-0.2-0.1l-0.2,0l-0.2,0L40,71l-0.2,0l-0.2,0l-0.2,0l-0.2,0L39,71.2l-0.2,0.1l-0.2,0.1
			l-3.8,2.2l0,0C34.2,73.9,33.7,74.7,33.5,75.7L33.5,75.7z M37.4,73.4L37.4,73.4L37.4,73.4L37.4,73.4L37.4,73.4z M37.1,73.3
			L37.1,73.3L37.1,73.3L37.1,73.3L37.1,73.3z M36.9,73.3L36.9,73.3L36.9,73.3L36.9,73.3L36.9,73.3z M36.7,73.2L36.7,73.2L36.7,73.2
			L36.7,73.2L36.7,73.2z M36.4,73.2L36.4,73.2L36.4,73.2L36.4,73.2L36.4,73.2z M36.2,73.2L36.2,73.2L36.2,73.2L36.2,73.2L36.2,73.2z
			 M35.8,73.2L35.8,73.2L35.8,73.2L35.8,73.2L35.8,73.2z M35.6,73.3L35.6,73.3L35.6,73.3L35.6,73.3L35.6,73.3z M35.4,73.3L35.4,73.3
			L35.4,73.3L35.4,73.3L35.4,73.3z M35.2,73.4L35.2,73.4L35.2,73.4L35.2,73.4z"/>
		
			<rect id="XMLID_100_" x="36.1" y="75.2" transform="matrix(-0.8661 0.4999 -0.4999 -0.8661 109.0856 121.1072)" class="st6" width="4.4" height="0"/>
		<polygon id="XMLID_99_" class="st5" points="40.2,78.5 40.2,78.5 40.3,78.7 40.4,78.8 40.5,79 40.6,79.1 40.7,79.3 40.8,79.4 
			40.9,79.5 41.1,79.7 41.2,79.8 41.3,79.9 41.4,80 41.6,80.2 41.7,80.3 41.8,80.4 42,80.4 42.1,80.5 42.3,80.6 42.4,80.7 
			42.5,80.7 42.7,80.8 42.8,80.8 42.9,80.9 43.1,80.9 43.2,80.9 43.3,80.9 43.4,80.9 43.5,80.9 43.6,80.9 43.7,80.8 43.8,80.8 
			43.9,80.8 44,80.7 40.3,82.9 40.2,82.9 40.1,83 40,83 39.9,83 39.8,83.1 39.6,83.1 39.5,83.1 39.4,83.1 39.3,83.1 39.2,83 39,83 
			38.9,83 38.8,82.9 38.6,82.9 38.5,82.8 38.4,82.7 38.2,82.6 38.1,82.5 37.9,82.4 37.8,82.3 37.7,82.2 37.5,82.1 37.4,82 
			37.3,81.9 37.2,81.7 37.1,81.6 36.9,81.4 36.8,81.3 36.7,81.1 36.6,81 36.5,80.8 36.4,80.7 36.4,80.6 36.3,80.5 36.2,80.3 
			36.2,80.2 36.1,80 36,79.8 36,79.7 35.9,79.5 35.8,79.3 35.8,79.2 35.8,79 35.7,78.8 35.7,78.7 35.7,78.5 35.7,78.3 35.6,78.2 
			35.6,78 35.6,77.9 35.7,77.7 35.7,77.6 35.7,77.4 35.7,77.3 35.8,77.2 35.8,77 35.9,76.9 35.9,76.8 36,76.7 36,76.6 36.1,76.5 
			36.2,76.4 36.3,76.4 36.3,76.3 36.4,76.3 40.2,74.1 40.1,74.1 40,74.2 39.9,74.3 39.9,74.4 39.8,74.4 39.7,74.5 39.7,74.6 
			39.6,74.7 39.6,74.9 39.5,75 39.5,75.1 39.5,75.2 39.4,75.4 39.4,75.5 39.4,75.7 39.4,75.8 39.4,76 39.4,76.2 39.4,76.3 
			39.5,76.5 39.5,76.6 39.5,76.8 39.6,77 39.6,77.2 39.7,77.3 39.7,77.5 39.8,77.6 39.9,77.8 39.9,78 40,78.1 40.1,78.3 		"/>
		<polygon id="XMLID_98_" class="st7" points="45.6,75.4 45.6,75.4 45.4,75.1 45.3,74.8 45.1,74.5 44.9,74.3 44.7,74 44.5,73.7 
			44.3,73.5 44,73.3 43.8,73 43.6,72.8 43.4,72.6 43.1,72.4 42.9,72.2 42.6,72 42.4,71.9 42.1,71.7 41.9,71.6 41.6,71.4 41.4,71.3 
			41.1,71.2 40.9,71.2 40.7,71.1 40.4,71.1 40.2,71 40,71 39.8,71 39.6,71 39.4,71.1 39.2,71.1 39,71.2 38.8,71.3 38.6,71.4 
			34.9,73.5 35,73.4 35.2,73.4 35.4,73.3 35.6,73.3 35.8,73.2 36,73.2 36.2,73.2 36.4,73.2 36.7,73.2 36.9,73.3 37.1,73.3 
			37.4,73.4 37.6,73.5 37.8,73.6 38.1,73.7 38.4,73.9 38.6,74 38.9,74.2 39.1,74.4 39.3,74.6 39.6,74.8 39.8,75 40,75.2 40.3,75.4 
			40.5,75.7 40.7,75.9 40.9,76.2 41.1,76.4 41.3,76.7 41.5,77 41.7,77.3 41.8,77.6 41.8,77.6 41.9,77.7 42,77.9 42.1,78 42.2,78.1 
			42.2,78.3 42.3,78.4 42.4,78.6 42.4,78.8 42.5,78.9 42.6,79.1 42.6,79.2 42.7,79.4 42.7,79.5 42.8,79.7 42.8,79.8 42.9,80 
			42.9,80.1 43,80.3 43,80.4 43.1,80.6 43.1,80.8 43.1,80.9 43.2,81.1 43.2,81.2 43.2,81.4 43.2,81.5 43.2,81.7 43.3,81.8 43.3,82 
			43.3,82.1 43.3,82.3 43.3,82.4 43.3,82.7 43.3,83 43.2,83.3 43.2,83.5 43.1,83.8 43.1,84 43,84.2 42.9,84.4 42.8,84.6 42.7,84.8 
			42.6,85 42.4,85.1 42.3,85.3 42.2,85.4 42,85.5 41.8,85.6 45.6,83.4 45.8,83.3 45.9,83.2 46.1,83.1 46.2,82.9 46.3,82.8 
			46.5,82.6 46.6,82.4 46.7,82.2 46.8,82 46.8,81.8 46.9,81.6 47,81.3 47,81.1 47,80.8 47,80.5 47.1,80.2 47.1,80.1 47,79.9 
			47,79.8 47,79.6 47,79.5 47,79.3 47,79.2 47,79 46.9,78.9 46.9,78.7 46.9,78.6 46.8,78.4 46.8,78.3 46.8,78.1 46.7,78 46.7,77.8 
			46.6,77.6 46.6,77.5 46.5,77.3 46.5,77.2 46.4,77 46.3,76.9 46.3,76.7 46.2,76.6 46.1,76.4 46.1,76.3 46,76.1 45.9,76 45.9,75.8 
			45.8,75.7 45.7,75.5 		"/>
		<path class="st8" d="M41.8,77.6c-0.9-1.5-2.1-2.9-3.5-3.7c-1.4-0.8-2.6-0.9-3.5-0.3l0,0c-0.9,0.5-1.4,1.6-1.4,3.2s0.6,3.3,1.4,4.9
			s2.1,2.9,3.5,3.7c1.4,0.8,2.6,0.9,3.5,0.3c0.9-0.5,1.4-1.6,1.4-3.2C43.3,80.8,42.7,79.1,41.8,77.6L41.8,77.6L41.8,77.6z
			 M40.3,78.5c0.5,0.9,0.8,1.8,0.8,2.7s-0.3,1.5-0.8,1.8c-0.5,0.3-1.2,0.2-1.9-0.2c-0.8-0.4-1.4-1.2-1.9-2l0,0
			c-0.5-0.8-0.8-1.8-0.8-2.6c0-0.9,0.3-1.5,0.8-1.8l0,0c0.5-0.3,1.2-0.2,1.9,0.2C39.1,76.9,39.8,77.6,40.3,78.5z"/>
		<path id="XMLID_95_" class="st9" d="M40.3,78.4c-0.5-0.8-1.1-1.5-1.8-1.9c-0.7-0.4-1.4-0.4-1.8-0.2l0,0c-0.5,0.3-0.8,0.8-0.8,1.7
			c0,0.8,0.3,1.7,0.7,2.5l0,0c0.5,0.8,1.1,1.5,1.8,1.9c0.7,0.4,1.4,0.5,1.8,0.2c0.5-0.3,0.8-0.8,0.8-1.7
			C41.1,80.1,40.8,79.2,40.3,78.4z"/>
		<path class="st5" d="M57.7,90.8l0.8-0.5c0,0.1,0,0.1,0,0.2L57.6,91l0.1,0l0-0.1L57.7,90.8L57.7,90.8L57.7,90.8z M66.4,85.8
			l11.1-6.4l0,0.1l0,0.1l0,0.1l-0.1,0l-10.7,6.2L66.4,85.8L66.4,85.8z"/>
		
			<rect id="XMLID_92_" x="61.2" y="89.7" transform="matrix(-0.8659 0.5002 -0.5002 -0.8659 163.1685 135.565)" class="st6" width="4.4" height="0"/>
		<polygon id="XMLID_91_" class="st5" points="65.3,92.9 65.3,93 65.4,93.2 65.5,93.3 65.6,93.5 65.7,93.6 65.8,93.8 65.9,93.9 
			66,94 66.2,94.2 66.3,94.3 66.4,94.4 66.5,94.5 66.7,94.6 66.8,94.7 66.9,94.8 67.1,94.9 67.2,95 67.4,95.1 67.5,95.2 67.6,95.2 
			67.8,95.3 67.9,95.3 68,95.3 68.1,95.4 68.3,95.4 68.4,95.4 68.5,95.4 68.6,95.4 68.7,95.4 68.8,95.3 68.9,95.3 69,95.3 
			69.1,95.2 65.4,97.4 65.3,97.4 65.2,97.5 65.1,97.5 65,97.5 64.8,97.6 64.7,97.6 64.6,97.6 64.5,97.6 64.4,97.5 64.3,97.5 
			64.1,97.5 64,97.4 63.9,97.4 63.7,97.3 63.6,97.3 63.4,97.2 63.3,97.1 63.2,97 63,96.9 62.9,96.8 62.8,96.7 62.6,96.6 62.5,96.5 
			62.4,96.3 62.3,96.2 62.1,96.1 62,95.9 61.9,95.8 61.8,95.6 61.7,95.5 61.6,95.3 61.5,95.2 61.5,95.1 61.4,95 61.3,94.8 
			61.3,94.6 61.2,94.5 61.1,94.3 61,94.1 61,94 60.9,93.8 60.9,93.6 60.8,93.5 60.8,93.3 60.8,93.1 60.8,93 60.7,92.8 60.7,92.7 
			60.7,92.5 60.7,92.3 60.7,92.2 60.8,92 60.8,91.9 60.8,91.8 60.9,91.6 60.9,91.5 60.9,91.4 61,91.3 61.1,91.2 61.1,91.1 61.2,91 
			61.3,90.9 61.4,90.9 61.4,90.8 61.5,90.7 65.3,88.6 65.2,88.6 65.1,88.7 65,88.8 65,88.8 64.9,88.9 64.8,89 64.8,89.1 64.7,89.2 
			64.7,89.3 64.6,89.5 64.6,89.6 64.6,89.7 64.5,89.9 64.5,90 64.5,90.2 64.5,90.3 64.5,90.5 64.5,90.6 64.5,90.8 64.6,91 
			64.6,91.1 64.6,91.3 64.7,91.5 64.7,91.6 64.8,91.8 64.8,92 64.9,92.1 64.9,92.3 65,92.5 65.1,92.6 65.2,92.8 		"/>
		<polygon id="XMLID_90_" class="st7" points="70.7,89.9 70.7,89.9 70.5,89.6 70.3,89.3 70.2,89 70,88.7 69.8,88.5 69.6,88.2 
			69.3,88 69.1,87.7 68.9,87.5 68.7,87.3 68.4,87.1 68.2,86.9 68,86.7 67.7,86.5 67.5,86.3 67.2,86.2 67,86 66.7,85.9 66.5,85.8 
			66.2,85.7 66,85.7 65.7,85.6 65.5,85.6 65.3,85.5 65.1,85.5 64.9,85.5 64.7,85.5 64.5,85.6 64.3,85.6 64.1,85.7 63.9,85.8 
			63.7,85.8 60,88 60.1,87.9 60.3,87.9 60.5,87.8 60.7,87.7 60.9,87.7 61.1,87.7 61.3,87.7 61.5,87.7 61.7,87.7 62,87.8 62.2,87.8 
			62.5,87.9 62.7,88 62.9,88.1 63.2,88.2 63.4,88.4 63.7,88.5 63.9,88.7 64.2,88.9 64.4,89.1 64.7,89.3 64.9,89.5 65.1,89.7 
			65.4,89.9 65.6,90.2 65.8,90.4 66,90.7 66.2,90.9 66.4,91.2 66.6,91.5 66.8,91.8 66.9,92 66.9,92 67,92.2 67.1,92.3 67.2,92.5 
			67.2,92.6 67.3,92.8 67.4,92.9 67.5,93.1 67.5,93.2 67.6,93.4 67.7,93.5 67.7,93.7 67.8,93.9 67.8,94 67.9,94.2 67.9,94.3 
			68,94.5 68,94.6 68.1,94.8 68.1,94.9 68.2,95.1 68.2,95.2 68.2,95.4 68.2,95.5 68.3,95.7 68.3,95.9 68.3,96 68.3,96.2 68.3,96.3 
			68.4,96.5 68.4,96.6 68.4,96.8 68.4,96.9 68.4,97.2 68.3,97.5 68.3,97.7 68.3,98 68.2,98.2 68.2,98.5 68.1,98.7 68,98.9 
			67.9,99.1 67.8,99.3 67.7,99.4 67.5,99.6 67.4,99.7 67.2,99.9 67.1,100 66.9,100.1 70.7,97.9 70.9,97.8 71,97.7 71.2,97.6 
			71.3,97.4 71.4,97.3 71.6,97.1 71.7,96.9 71.8,96.7 71.8,96.5 71.9,96.3 72,96.1 72,95.8 72.1,95.6 72.1,95.3 72.1,95 72.1,94.7 
			72.1,94.6 72.1,94.4 72.1,94.3 72.1,94.1 72.1,94 72.1,93.8 72.1,93.7 72,93.5 72,93.4 72,93.2 72,93.1 71.9,92.9 71.9,92.8 
			71.8,92.6 71.8,92.4 71.8,92.3 71.7,92.1 71.7,92 71.6,91.8 71.6,91.7 71.5,91.5 71.4,91.4 71.4,91.2 71.3,91.1 71.2,90.9 
			71.2,90.8 71.1,90.6 71,90.5 70.9,90.3 70.9,90.2 70.8,90 		"/>
		<path class="st8" d="M66.9,92c-0.9-1.5-2.1-2.9-3.5-3.7c-1.4-0.8-2.6-0.9-3.5-0.3l0,0c-0.9,0.5-1.4,1.6-1.4,3.2
			c0,1.6,0.5,3.3,1.4,4.9c0.9,1.5,2.1,2.9,3.5,3.7c1.4,0.8,2.6,0.9,3.5,0.3c0.9-0.5,1.4-1.6,1.4-3.2C68.4,95.3,67.8,93.6,66.9,92
			L66.9,92L66.9,92z M65.4,93c0.5,0.9,0.8,1.8,0.8,2.7c0,0.9-0.3,1.5-0.8,1.8c-0.5,0.3-1.2,0.2-1.9-0.2c-0.7-0.4-1.4-1.2-1.9-2l0,0
			c-0.5-0.8-0.8-1.8-0.8-2.6c0-0.9,0.3-1.5,0.8-1.8l0,0c0.5-0.3,1.2-0.2,1.9,0.2C64.2,91.4,64.9,92.1,65.4,93z"/>
		<path id="XMLID_87_" class="st9" d="M65.4,92.8c-0.5-0.8-1.1-1.5-1.8-1.9c-0.7-0.4-1.4-0.4-1.8-0.2l0,0C61.3,91,61,91.6,61,92.4
			c0,0.8,0.3,1.7,0.7,2.5l0,0c0.5,0.8,1.1,1.5,1.8,1.9c0.7,0.4,1.4,0.4,1.8,0.2c0.5-0.3,0.8-0.8,0.8-1.7
			C66.2,94.6,65.9,93.6,65.4,92.8z"/>
		<path class="st10" d="M32.2,76.5l1.3-0.7v0L32.2,76.5L32.2,76.5L32.2,76.5z M41.2,71.3l10.7-6.2v0L41.2,71.3L41.2,71.3z"/>
		<path id="XMLID_84_" class="st5" d="M59.4,87.1l19.7-11.4l-0.2,0.1L78.7,76l-0.2,0.2l-0.2,0.2l-0.1,0.2l-0.1,0.2L78,76.9l-0.1,0.2
			l-0.1,0.2l-0.1,0.3l-0.1,0.3l-0.1,0.3l0,0.3l0,0.3l0,0.3l0,0.3l-11.1,6.4l-0.1-0.1L66,85.7l-0.2-0.1l-0.2,0l-0.2,0l-0.2,0l-0.2,0
			l-0.2,0l-0.2,0l-0.2,0l-0.2,0.1l-0.2,0.1l-0.2,0.1L60,88l0,0c-0.7,0.4-1.2,1.2-1.4,2.3l-0.8,0.5l0-0.3l0-0.3l0-0.3l0-0.3l0.1-0.3
			L58,89l0.1-0.3l0.1-0.2l0.1-0.2l0.1-0.2l0.1-0.2l0.1-0.2l0.2-0.2l0.2-0.1l0.2-0.1L59.4,87.1z"/>
		<polygon id="XMLID_83_" class="st10" points="71.4,98.6 91.1,87.3 91.1,87.3 91,87.4 91,87.5 90.9,87.5 71.2,98.9 71.3,98.9 
			71.3,98.8 71.4,98.7 		"/>
		<path class="st10" d="M57.3,91l1.3-0.7v0L57.3,91L57.3,91L57.3,91z M66.4,85.8L77,79.6l0,0L66.4,85.8L66.4,85.8z"/>
		<polygon id="XMLID_80_" class="st10" points="68,72.9 87.7,61.5 87.8,61.6 87.9,61.7 87.9,61.8 88,62 88.1,62.1 88.2,62.2 
			88.2,62.4 88.3,62.5 88.3,62.6 88.4,62.7 88.4,62.9 88.5,63 88.5,63.2 88.6,63.3 88.6,63.4 88.6,63.6 91,74.6 91,74.6 91,74.7 
			91,74.7 91,74.8 91,74.8 91,74.9 91,74.9 91,75 91,75 91,75.1 91.1,75.1 91.1,75.2 91.1,75.2 91.1,75.3 91.1,75.3 91.1,75.4 
			91.1,75.4 91.1,87.3 71.4,98.6 71.4,86.8 71.4,86.8 71.4,86.7 71.4,86.7 71.4,86.6 71.4,86.6 71.3,86.5 71.3,86.5 71.3,86.4 
			71.3,86.4 71.3,86.3 71.3,86.3 71.3,86.2 71.3,86.2 71.3,86.1 71.3,86 71.3,86 71.3,86 68.9,74.9 68.9,74.8 68.9,74.7 68.8,74.5 
			68.8,74.4 68.7,74.3 68.7,74.1 68.6,74 68.6,73.9 68.5,73.7 68.4,73.6 68.4,73.5 68.3,73.3 68.2,73.2 68.2,73.1 68.1,73 		"/>
		<polygon id="XMLID_79_" class="st11" points="70.3,74.1 87.2,64.4 89.5,75.4 72.7,85.1 		"/>
		<polygon id="XMLID_78_" class="st12" points="71.9,81.5 80.4,76.8 82,73.9 86.4,71.4 88.8,72 89.5,75.4 72.7,85.1 		"/>
		<polygon id="XMLID_77_" class="st13" points="87.8,85.2 87.4,85 87.3,84.9 87.2,84.8 87.1,84.7 87.1,84.6 87,84.4 87,84.2 
			86.9,84.1 86.9,83.9 86.9,83.7 87,83.5 87,83.3 87.1,83.1 87.1,82.9 87.2,82.7 87.3,82.5 87.4,82.3 87.5,82.1 87.7,81.9 
			87.8,81.7 87.9,81.5 88.1,81.4 88.3,81.3 88.4,81.1 88.6,81 88.8,80.9 88.9,80.9 89.1,80.8 89.2,80.8 89.4,80.8 89.5,80.8 
			89.6,80.9 89.7,80.9 90.1,81.1 90,81.1 89.9,81 89.8,81 89.6,81 89.5,81.1 89.3,81.1 89.1,81.2 89,81.3 88.8,81.4 88.6,81.5 
			88.5,81.6 88.3,81.8 88.2,81.9 88,82.1 87.9,82.3 87.8,82.5 87.7,82.7 87.6,82.9 87.5,83.1 87.5,83.3 87.4,83.5 87.4,83.7 
			87.3,83.9 87.3,84.1 87.3,84.3 87.4,84.5 87.4,84.6 87.5,84.8 87.5,84.9 87.6,85 87.7,85.1 		"/>
		<path id="XMLID_76_" class="st14" d="M89,85.1c-0.9,0.5-1.7,0.1-1.7-1c0-1.1,0.7-2.3,1.7-2.9c0.9-0.5,1.7-0.1,1.7,1
			C90.6,83.3,89.9,84.5,89,85.1z"/>
		<polygon id="XMLID_75_" class="st10" points="93,88.2 93,85 71.4,97.4 71.4,100.6 		"/>
		<path id="XMLID_74_" class="st9" d="M83.7,82.1l0,4.5c0,0.1,0,0.1-0.1,0.1l-1.1,0.6v-4.7L83.7,82.1C83.6,82.1,83.7,82.1,83.7,82.1
			z"/>
		<polygon id="XMLID_73_" class="st9" points="80.6,88.5 80.7,83.8 81.8,83.1 81.8,87.8 		"/>
		<polygon id="XMLID_72_" class="st9" points="79.9,84.2 79.9,88.9 78.8,89.6 78.8,84.9 		"/>
		<polygon id="XMLID_71_" class="st9" points="84.4,86.3 84.4,81.6 85.6,80.9 85.6,85.6 		"/>
		<polygon id="XMLID_70_" class="st9" points="77,90.6 77,85.9 78.1,85.2 78.1,89.9 		"/>
		<polygon id="XMLID_69_" class="st5" points="78.1,85.2 77,85.9 77,89.3 78.1,89.9 		"/>
		<polygon id="XMLID_68_" class="st5" points="79.9,84.2 78.8,84.9 78.8,88.2 79.9,88.9 		"/>
		<polygon id="XMLID_67_" class="st5" points="81.8,83.1 80.7,83.8 80.6,87.1 81.8,87.8 		"/>
		<polygon id="XMLID_66_" class="st5" points="83.7,82 82.5,82.7 82.5,86 83.7,86.7 		"/>
		<polygon id="XMLID_26_" class="st5" points="85.6,80.9 84.4,81.6 84.4,85 85.6,85.6 		"/>
		<polygon id="XMLID_25_" class="st15" points="93.2,66.9 92.4,66.4 89.9,67.8 90.7,68.3 		"/>
		<polygon id="XMLID_24_" class="st9" points="90.7,68.3 89.9,67.8 89.9,69.4 90.6,73 90.7,73 		"/>
		<polygon id="XMLID_23_" class="st10" points="93.2,71.6 93.2,66.9 90.7,68.3 90.7,73 		"/>
		<path id="XMLID_22_" class="st16" d="M86.2,60l0.1,0.1l0.1,0.1l0.1,0.1l0.1,0.1l0.1,0.1l0.1,0.1l0.1,0.1l0.1,0.1l0.1,0.1l0.1,0.1
			l0.1,0.1l0.1,0.1l0.1,0.1l0.1,0.1l0.1,0.1l0.1,0.1L68,72.9l0,0l0,0c0,0-0.1-0.1-0.1-0.1c0,0-0.1-0.1-0.1-0.1c0,0-0.1-0.1-0.1-0.1
			c0,0-0.1-0.1-0.1-0.1c0,0-0.1-0.1-0.1-0.1c0,0-0.1-0.1-0.1-0.1c0,0-0.1-0.1-0.1-0.1c0,0-0.1-0.1-0.1-0.1c0,0-0.1-0.1-0.1-0.1
			c0,0-0.1-0.1-0.1-0.1c0,0-0.1-0.1-0.1-0.1c0,0-0.1-0.1-0.1-0.1c0,0-0.1-0.1-0.1-0.1c0,0-0.1,0-0.1-0.1c0,0-0.1,0-0.1-0.1
			c0,0-0.1,0-0.1-0.1L30,50.3c-0.1,0-0.1,0-0.2-0.1l0.1,0l19.5-11.3l0.1,0l0.1,0l0.1,0l0.1,0L86.2,60z"/>
		<polygon id="XMLID_21_" class="st17" points="29,68.5 29.7,68.8 29.7,71 29,70.6 		"/>
		<polygon id="XMLID_20_" class="st18" points="29.9,68.7 29.7,68.8 29.7,71 29.9,70.9 		"/>
		<polygon id="XMLID_19_" class="st18" points="29.9,68.7 29.6,68.5 29.6,68.2 29,68.5 29.7,68.8 		"/>
		<path id="XMLID_18_" class="st9" d="M29.6,50.6c0-0.3,0.2-0.4,0.4-0.2l36.5,21.1c0.6,0.3,1.1,0.9,1.5,1.5l0,0
			c0.4,0.6,0.8,1.3,0.9,2.1l2.3,11l0,0c0,0.1,0.1,0.3,0.1,0.4c0,0.1,0,0.3,0,0.4v11.8c0,0.3-0.2,0.4-0.4,0.2l-1.4-0.8
			c-0.2-0.1-0.4-0.5-0.4-0.7c0-1.8-0.6-3.8-1.7-5.6l0,0c-1-1.8-2.4-3.3-4-4.2c-1.6-0.9-3-1-4-0.4c-1,0.6-1.7,1.9-1.7,3.7
			c0,0.3-0.2,0.4-0.4,0.2l0,0c-3-1.7-10.2-6-12.8-7.5c-0.2-0.1-0.4-0.5-0.4-0.7l0,0c0-1.8-0.7-3.8-1.7-5.6c-1-1.8-2.5-3.3-4-4.2
			c-1.6-0.9-3-1-4-0.4c-1,0.6-1.7,1.8-1.7,3.6c0,0.3-0.2,0.4-0.4,0.2l0,0l-0.1-0.1c-0.7-0.4-1.3-1.1-1.8-1.9
			c-0.5-0.8-0.7-1.7-0.7-2.5C29.6,64.9,29.6,57.7,29.6,50.6z"/>
		<path id="XMLID_17_" class="st12" d="M58.2,69.3l7.3,4.2c0.3,0.2,0.6,0.5,0.9,0.9l0,0c0.2,0.4,0.4,0.8,0.5,1.2h0l1.9,9.1
			c0.1,0.3-0.1,0.5-0.3,0.4c0,0-0.1,0-0.1,0l0,0l-10.2-5.9c-0.2-0.1-0.4-0.5-0.4-0.7v-8.9C57.8,69.3,58,69.2,58.2,69.3z"/>
		<polygon id="XMLID_16_" class="st5" points="60.7,82.4 57.5,80.5 57.1,80.7 60.3,82.6 		"/>
		<polygon id="XMLID_15_" class="st8" points="60.3,82.6 57.1,80.7 57.1,81.5 60.3,83.3 		"/>
		<polygon id="XMLID_14_" class="st5" points="60.7,83.1 60.7,82.4 60.3,82.6 60.3,83.3 		"/>
		<path id="XMLID_13_" class="st12" d="M53,66.3l2.6,1.5c0.3,0.1,0.5,0.5,0.5,0.8v19.2c0,0.3-0.2,0.4-0.5,0.3L53,86.6
			c-0.3-0.1-0.5-0.5-0.5-0.8V66.6C52.5,66.3,52.7,66.2,53,66.3z"/>
		<path id="XMLID_12_" class="st12" d="M48.2,63.5l2.6,1.5c0.3,0.1,0.5,0.5,0.5,0.8v19.2c0,0.3-0.2,0.4-0.5,0.3l-2.6-1.5
			c-0.3-0.1-0.5-0.5-0.5-0.8V63.8C47.7,63.5,47.9,63.4,48.2,63.5z"/>
		<path id="XMLID_11_" class="st12" d="M32,54.2l5.8,3.3c0.3,0.1,0.5,0.5,0.5,0.8v10.9c0,0.3-0.2,0.4-0.5,0.3L32,66.1
			c-0.3-0.1-0.5-0.5-0.5-0.8V54.5C31.5,54.2,31.7,54.1,32,54.2z"/>
		<path id="XMLID_10_" class="st12" d="M39.9,58.8l5.8,3.3c0.3,0.1,0.5,0.5,0.5,0.8v10.9c0,0.3-0.2,0.4-0.5,0.3l-5.8-3.3
			c-0.3-0.1-0.5-0.5-0.5-0.8V59C39.4,58.8,39.7,58.6,39.9,58.8z"/>
		<polygon id="XMLID_9_" class="st15" points="68.9,80.9 68.1,80.4 65.6,81.8 66.4,82.3 		"/>
		<polygon id="XMLID_8_" class="st9" points="66.4,82.3 65.6,81.8 65.6,86.5 66.4,87 		"/>
		<polygon id="XMLID_7_" class="st10" points="68.9,85.6 68.9,80.9 66.4,82.3 66.4,87 		"/>
		<polygon id="XMLID_6_" class="st15" points="70.2,83.6 69.4,83.2 68.9,83.4 68.9,84.4 		"/>
		<polygon id="XMLID_5_" class="st10" points="70.2,84.8 70.2,83.6 68.9,84.4 68.9,85.6 		"/>
		<polygon id="XMLID_4_" class="st13" points="73.2,93.6 72.8,93.4 72.7,93.3 72.6,93.2 72.5,93.1 72.4,93 72.4,92.8 72.3,92.7 
			72.3,92.5 72.3,92.3 72.3,92.1 72.3,91.9 72.4,91.7 72.4,91.5 72.5,91.3 72.6,91.1 72.7,90.9 72.8,90.7 72.9,90.5 73,90.3 
			73.1,90.1 73.3,90 73.4,89.8 73.6,89.7 73.8,89.6 73.9,89.5 74.1,89.4 74.3,89.3 74.4,89.3 74.6,89.2 74.7,89.2 74.9,89.2 
			75,89.3 75.1,89.3 75.5,89.6 75.4,89.5 75.2,89.5 75.1,89.5 75,89.5 74.8,89.5 74.7,89.5 74.5,89.6 74.3,89.7 74.2,89.8 74,89.9 
			73.8,90 73.7,90.2 73.5,90.4 73.4,90.5 73.3,90.7 73.2,90.9 73,91.1 73,91.3 72.9,91.5 72.8,91.7 72.7,91.9 72.7,92.1 72.7,92.3 
			72.7,92.5 72.7,92.7 72.7,92.9 72.7,93.1 72.8,93.2 72.9,93.3 73,93.4 73,93.5 		"/>
		<path id="XMLID_3_" class="st14" d="M74.3,93.5c-0.9,0.5-1.7,0.1-1.7-1s0.7-2.3,1.7-2.9c0.9-0.5,1.7-0.1,1.7,1
			C76,91.7,75.2,93,74.3,93.5z"/>
		<polygon id="XMLID_2_" class="st9" points="71.4,97.4 68.5,95.7 68.5,98.9 71.4,100.6 		"/>
		<polygon id="XMLID_1_" class="st15" points="93,85 91.1,83.9 91.1,84.9 71.4,96.3 69.4,95.2 68.5,95.7 71.4,97.4 		"/>
	</g>
</g>
</svg>
