<?xml version="1.0" encoding="utf-8"?>
<!-- Generator: Adobe Illustrator 19.0.0, SVG Export Plug-In . SVG Version: 6.00 Build 0)  -->
<svg version="1.1" id="图层_1" xmlns="http://www.w3.org/2000/svg" xmlns:xlink="http://www.w3.org/1999/xlink" x="0px" y="0px"
	 viewBox="0 0 120 120" style="enable-background:new 0 0 120 120;" xml:space="preserve">
<style type="text/css">
	.st0{opacity:0.7;}
	.st1{fill-rule:evenodd;clip-rule:evenodd;fill:#F5F5F5;}
	.st2{fill-rule:evenodd;clip-rule:evenodd;fill:#E9E9EB;}
	.st3{fill-rule:evenodd;clip-rule:evenodd;fill:#DDDEE1;}
	.st4{fill-rule:evenodd;clip-rule:evenodd;fill:#D1D2D6;}
	.st5{fill-rule:evenodd;clip-rule:evenodd;fill:#9BC957;}
	.st6{fill-rule:evenodd;clip-rule:evenodd;fill:#6A8C38;}
	.st7{fill-rule:evenodd;clip-rule:evenodd;fill:#BDC3C7;}
	.st8{fill-rule:evenodd;clip-rule:evenodd;fill:#BDBDBD;}
	.st9{fill-rule:evenodd;clip-rule:evenodd;fill:#E6EAEB;}
	.st10{fill-rule:evenodd;clip-rule:evenodd;fill:#A3ADB3;}
	.st11{fill-rule:evenodd;clip-rule:evenodd;fill:#E6B543;}
	.st12{fill-rule:evenodd;clip-rule:evenodd;fill:#D19917;}
</style>
<g>
	<g class="st0">
		<path id="XMLID_26_" class="st1" d="M82.1,89.2c12.2,7.1,12.2,18.5,0,25.5c-12.2,7.1-32,7.1-44.2,0c-12.2-7.1-12.2-18.5,0-25.5
			C50.1,82.1,69.9,82.1,82.1,89.2z"/>
		<path id="XMLID_25_" class="st2" d="M78.3,91.4c10.1,5.8,10.1,15.3,0,21.1c-10.1,5.8-26.4,5.8-36.5,0c-10.1-5.8-10.1-15.3,0-21.1
			C51.8,85.6,68.2,85.6,78.3,91.4z"/>
		<path id="XMLID_24_" class="st3" d="M74.4,93.6c8,4.6,8,12,0,16.6c-8,4.6-20.9,4.6-28.8,0c-8-4.6-8-12,0-16.6
			C53.5,89,66.5,89,74.4,93.6z"/>
		<path id="XMLID_23_" class="st4" d="M70.6,95.8c5.8,3.4,5.8,8.8,0,12.2c-5.8,3.4-15.3,3.4-21.1,0c-5.8-3.4-5.8-8.8,0-12.2
			C55.3,92.5,64.7,92.5,70.6,95.8z"/>
	</g>
	<g>
		<polygon id="XMLID_22_" class="st5" points="82.6,48.7 82.7,89.3 65.4,86.3 65.4,45.7 		"/>
		<polygon id="XMLID_21_" class="st6" points="65.4,45.7 65.4,86.3 56,96.7 55.9,56.1 		"/>
		
			<rect id="XMLID_20_" x="26.1" y="66.9" transform="matrix(-1.397680e-003 -1 1 -1.397680e-003 -29.956 122.9638)" class="st5" width="40.6" height="19.1"/>
		<polygon id="XMLID_19_" class="st7" points="83.1,46.1 83.2,86.7 82.7,89.3 82.6,48.7 		"/>
		<polygon id="XMLID_18_" class="st8" points="82.6,48.7 65.4,45.7 55.9,56.1 36.8,56.1 36.8,53.5 54.4,53.4 64,42.7 83.1,46.1 		
			"/>
		<polygon id="XMLID_17_" class="st9" points="82.7,78.3 82.7,81.5 65.4,78.5 65.4,75.3 		"/>
		<polygon id="XMLID_16_" class="st10" points="65.4,75.3 65.4,78.5 56,88.9 56,85.7 		"/>
		<rect id="XMLID_15_" x="36.9" y="85.7" class="st9" width="19.1" height="3.2"/>
		<polygon id="XMLID_14_" class="st9" points="82.7,61.4 82.7,64.6 65.4,61.5 65.4,58.4 		"/>
		<polygon id="XMLID_13_" class="st10" points="65.4,58.4 65.4,61.5 56,72 55.9,68.8 		"/>
		<rect id="XMLID_12_" x="36.9" y="68.8" class="st9" width="19.1" height="3.2"/>
		<polygon id="XMLID_11_" class="st9" points="76,88.2 73,87.6 72.9,47 76,47.5 		"/>
		<polygon id="XMLID_10_" class="st10" points="61.9,90.3 61.1,91.1 61,75 61.8,74.2 		"/>
		<polygon id="XMLID_9_" class="st10" points="61.8,73.4 61.8,75.4 56,81.9 56,79.9 		"/>
		<rect id="XMLID_8_" x="45.1" y="79.9" class="st9" width="10.8" height="1.9"/>
		<polygon id="XMLID_7_" class="st9" points="45.1,56.1 47,56.1 47,80.3 45.1,81.3 		"/>
		<polygon id="XMLID_6_" class="st10" points="60.6,50.9 62.8,48.5 62.8,63.3 60.7,65.2 		"/>
		<polygon id="XMLID_5_" class="st11" points="65.4,45.7 72.9,47 73,59.7 65.4,58.4 		"/>
		<polygon id="XMLID_4_" class="st11" points="65.4,61.5 73,62.9 73,76.6 65.4,75.3 		"/>
		
			<rect id="XMLID_3_" x="47" y="72" transform="matrix(-1 1.397680e-003 -1.397680e-003 -1 103.0936 151.8447)" class="st11" width="8.9" height="7.9"/>
		<polygon id="XMLID_2_" class="st12" points="62.8,48.5 65.4,45.7 65.4,58.4 62.8,61.2 		"/>
		<polygon id="XMLID_1_" class="st12" points="61.8,65.5 65.4,61.5 65.4,75.3 61.8,79.2 61.8,73.4 56,79.9 56,72 		"/>
	</g>
</g>
</svg>
