<?xml version="1.0" encoding="utf-8"?>
<!-- Generator: Adobe Illustrator 19.0.0, SVG Export Plug-In . SVG Version: 6.00 Build 0)  -->
<svg version="1.1" id="图层_1" xmlns="http://www.w3.org/2000/svg" xmlns:xlink="http://www.w3.org/1999/xlink" x="0px" y="0px"
	 viewBox="0 0 120 120" style="enable-background:new 0 0 120 120;" xml:space="preserve">
<style type="text/css">
	.st0{opacity:0.7;}
	.st1{fill-rule:evenodd;clip-rule:evenodd;fill:#F5F5F5;}
	.st2{fill-rule:evenodd;clip-rule:evenodd;fill:#E9E9EB;}
	.st3{fill-rule:evenodd;clip-rule:evenodd;fill:#DDDEE1;}
	.st4{fill-rule:evenodd;clip-rule:evenodd;fill:#D1D2D6;}
	.st5{fill-rule:evenodd;clip-rule:evenodd;fill:#BFC7C9;}
	.st6{fill-rule:evenodd;clip-rule:evenodd;fill:#FAC13C;}
	.st7{fill-rule:evenodd;clip-rule:evenodd;fill:#F5BE3D;}
	.st8{fill-rule:evenodd;clip-rule:evenodd;fill:#FFDC6A;}
	.st9{fill-rule:evenodd;clip-rule:evenodd;fill:#E6B543;}
	.st10{fill-rule:evenodd;clip-rule:evenodd;fill:#D19917;}
	.st11{fill-rule:evenodd;clip-rule:evenodd;fill:#7FA34A;}
	.st12{fill-rule:evenodd;clip-rule:evenodd;fill:#9BC957;}
	.st13{fill-rule:evenodd;clip-rule:evenodd;fill:#80A648;}
	.st14{fill-rule:evenodd;clip-rule:evenodd;fill:#89B04D;}
	.st15{fill-rule:evenodd;clip-rule:evenodd;fill:#85AB4D;}
</style>
<g>
	<g class="st0">
		<path id="XMLID_15_" class="st1" d="M82.1,89.2c12.2,7.1,12.2,18.5,0,25.5c-12.2,7.1-32,7.1-44.2,0c-12.2-7.1-12.2-18.5,0-25.5
			C50.1,82.1,69.9,82.1,82.1,89.2z"/>
		<path id="XMLID_14_" class="st2" d="M78.3,91.4c10.1,5.8,10.1,15.3,0,21.1c-10.1,5.8-26.4,5.8-36.5,0c-10.1-5.8-10.1-15.3,0-21.1
			C51.8,85.6,68.2,85.6,78.3,91.4z"/>
		<path id="XMLID_13_" class="st3" d="M74.4,93.6c8,4.6,8,12,0,16.6c-8,4.6-20.9,4.6-28.8,0c-8-4.6-8-12,0-16.6
			C53.5,89,66.5,89,74.4,93.6z"/>
		<path id="XMLID_12_" class="st4" d="M70.6,95.8c5.8,3.4,5.8,8.8,0,12.2c-5.8,3.4-15.3,3.4-21.1,0c-5.8-3.4-5.8-8.8,0-12.2
			C55.3,92.5,64.7,92.5,70.6,95.8z"/>
	</g>
	<g>
		<path id="XMLID_11_" class="st5" d="M60.7,96.2c0.4,0,0.7-0.1,1-0.2c0.3-0.2,0.4-0.4,0.4-0.6c0-0.2-0.1-0.4-0.4-0.6
			c-0.3-0.2-0.7-0.2-1-0.2c-0.4,0-0.7,0.1-1,0.2c-0.3,0.2-0.4,0.4-0.4,0.6c0,0.2,0.1,0.4,0.4,0.6C59.9,96.1,60.3,96.2,60.7,96.2z"/>
		<path id="XMLID_10_" class="st6" d="M61.7,95.9c0.6-0.4,0.4-1,0.4-1.6c0-1.5,0.1-7,0-6.3c-0.2,0.9-2.8,1-2.9-0.1
			c0,1.1-0.1,7.3,0.1,7.8C59.6,96.3,61.1,96.3,61.7,95.9z"/>
		<path id="XMLID_9_" class="st7" d="M60.7,88.7c0.4,0,0.7-0.1,1-0.2c0.3-0.2,0.4-0.4,0.4-0.6s-0.1-0.4-0.4-0.6
			c-0.3-0.2-0.7-0.2-1-0.2c-0.4,0-0.7,0.1-1,0.2c-0.3,0.2-0.4,0.4-0.4,0.6s0.1,0.4,0.4,0.6C59.9,88.6,60.3,88.7,60.7,88.7z"/>
		<polygon id="XMLID_8_" class="st8" points="61.7,96 61.7,95.9 61.8,95.9 61.8,95.9 61.8,95.9 61.8,95.9 61.8,88.4 61.8,88.4 
			61.8,88.4 61.8,88.4 61.7,88.4 61.7,88.4 61.7,88.5 61.7,88.5 61.6,88.5 61.6,88.5 61.6,88.5 61.5,88.5 61.5,88.5 61.5,88.5 
			61.5,88.6 61.4,88.6 61.4,88.6 61.4,88.6 61.3,88.6 61.3,88.6 61.3,88.6 61.2,88.6 61.2,88.6 61.2,88.6 61.2,88.6 61.2,96.2 
			61.2,96.2 61.2,96.1 61.2,96.1 61.3,96.1 61.3,96.1 61.3,96.1 61.4,96.1 61.4,96.1 61.4,96.1 61.5,96.1 61.5,96.1 61.5,96 
			61.5,96 61.6,96 61.6,96 61.6,96 61.7,96 61.7,96 		"/>
		<polygon id="XMLID_7_" class="st9" points="60.3,88.7 60.2,88.6 60.2,88.6 60.2,88.6 60.1,88.6 60.1,88.6 60.1,88.6 60,88.6 
			60,88.6 60,88.6 59.9,88.6 59.9,88.6 59.9,88.5 59.9,88.5 59.8,88.5 59.8,88.5 59.8,88.5 59.7,88.5 59.7,88.5 59.7,88.5 
			59.7,88.4 59.6,88.4 59.6,88.4 59.6,88.4 59.6,88.4 59.6,88.4 59.6,95.9 59.6,95.9 59.6,95.9 59.6,95.9 59.6,95.9 59.7,96 
			59.7,96 59.7,96 59.7,96 59.8,96 59.8,96 59.8,96 59.9,96 59.9,96.1 59.9,96.1 59.9,96.1 60,96.1 60,96.1 60,96.1 60.1,96.1 
			60.1,96.1 60.1,96.1 60.2,96.1 60.2,96.2 60.2,96.2 60.3,96.2 		"/>
		<path id="XMLID_6_" class="st10" d="M60.7,88.5c0.3,0,0.7-0.1,0.9-0.2c0.3-0.1,0.4-0.3,0.4-0.5s-0.1-0.4-0.4-0.5
			C61.3,87,61,87,60.7,87c-0.3,0-0.7,0.1-0.9,0.2c-0.2,0.1-0.4,0.3-0.4,0.5s0.1,0.4,0.4,0.5C60,88.4,60.4,88.5,60.7,88.5z"/>
		<polygon id="XMLID_5_" class="st11" points="56.6,43.9 56.6,43.8 56.7,43.7 56.7,43.6 56.8,43.6 56.8,43.5 56.9,43.4 57,43.4 
			57,43.3 57.1,43.3 57.2,43.3 57.2,43.3 57.3,43.3 57.3,43.3 57.4,43.3 61.3,45.6 61.3,45.6 61.2,45.5 61.2,45.5 61.1,45.5 
			61,45.6 61,45.6 60.9,45.6 60.8,45.7 60.8,45.8 60.7,45.8 60.7,45.9 60.6,46 60.6,46.1 60.5,46.1 60.2,46.8 59.9,47.6 59.5,48.4 
			59.1,49.3 58.7,50.3 58.3,51.3 57.8,52.3 57.3,53.4 56.7,54.9 56,56.4 55.3,57.9 54.6,59.4 53.9,61 53.3,62.5 52.6,64.1 
			51.9,65.6 51.3,67 50.7,68.4 50.2,69.8 49.7,71.1 49.2,72.2 48.8,73.3 48.5,74.3 48.2,75.1 48,76.1 47.7,77 47.5,77.9 47.4,78.8 
			47.3,79.6 47.2,80.4 47.1,81.2 47.1,82 47.1,83.1 47.3,84.2 47.4,85.2 47.7,86.1 48,87 48.4,87.8 48.9,88.5 49.4,89.2 49.9,89.7 
			50.6,90.2 51.2,90.6 47.3,88.3 46.6,87.9 46,87.4 45.4,86.9 44.9,86.2 44.5,85.5 44.1,84.7 43.8,83.9 43.5,82.9 43.3,81.9 
			43.2,80.9 43.2,79.7 43.2,79 43.2,78.2 43.3,77.3 43.5,76.5 43.6,75.6 43.8,74.7 44,73.8 44.3,72.9 44.6,72 44.9,71.1 45.3,70 
			45.8,68.8 46.3,67.5 46.8,66.2 47.4,64.8 48,63.3 48.7,61.8 49.3,60.3 50,58.7 50.7,57.2 51.4,55.6 52.1,54.1 52.7,52.6 
			53.4,51.1 53.9,50 54.3,49 54.8,48 55.2,47.1 55.6,46.2 56,45.3 56.3,44.6 		"/>
		<path id="XMLID_4_" class="st12" d="M60.5,46.1c0.1-0.2,0.2-0.4,0.4-0.5c0.2-0.1,0.3-0.1,0.4,0.1c0.8,0.9,1.9,2.1,3.2,3.5
			c3.4,3.7,7.9,8.5,9.1,11.2c0.8,1.7,1.1,3.5,1.1,5.6c0,3.1-0.8,6.5-2.3,9.8c-1.4,3.3-3.5,6.4-6,9.1c-3.5,3.7-7.7,6.2-11.2,6.5
			c-2.5,0.2-4.5-0.5-6-2.2c-1.4-1.6-2.3-4.1-2.3-7.2c0-2,0.4-4.3,1.1-6.9c1.3-4.2,5.7-14.1,9.1-21.8C58.6,50.5,59.8,47.9,60.5,46.1z
			"/>
		<path id="XMLID_3_" class="st13" d="M61,45.6c0.7-0.2,0.5,0.9,0.5,1.3c0,4.7-0.1,9.5,0,14.3c0,1.4-0.2,1.3,0.9,0
			c0.5-0.6,6.1-7.6,6.1-7.6l0.6,0.7c0,0-2.2,2.8-3.3,4.2c-0.4,0.5-4.2,5.1-4.2,5.3c-0.1,0.1,0,7.9,0,8.7c1-1.2,11-13.8,11.1-13.7
			c0,0,0.5,0.7,0.5,0.7c0,0.1-10.3,12.8-11.4,14.2c-0.4,0.5-0.2,0.4-0.2,1c0,2.3-0.1,5.1,0,7.4c0,0.9-0.1,0.8,0.7-0.1
			c2.4-2.8,4.8-6,7.1-8.9c1.2-1.5,5.6-7,5.6-6.8c0,0.3,0,1.3-0.1,1.4c-1.4,1.7-13,16-13.2,16.6c-0.1,0.3-0.1,5-0.1,5
			c-0.1,0.1-0.7,0.5-0.9,0.5c0-1.7,0-3.3-0.1-4.9c-2-0.5-5.3-0.6-7.5-0.8c-0.5,0-5.7-0.4-5.7-0.6c0-0.2-0.1-1.2,0-1.3
			c3.9,0.3,7.7,0.7,11.6,1.1c0.6,0,1.1,0.1,1.7,0.1c0.2-1.9,0.1-4.6,0.1-6.6c0-0.7,0-1.4,0-2.1c-1.1-0.1-11.6-1-11.6-1.1
			c0.7-1.7-0.1-1.3,2.3-1.1c3.1,0.3,6.2,0.6,9.3,0.8c0.1-2.4,0.1-5,0-7.4c0-1.7,0.3-1.4-1.4-1.5c-2-0.2-4.1-0.4-6.1-0.5
			c0-0.2,0.5-1.3,0.6-1.3c0.4-0.1,5.8,0.5,6.9,0.6c0.2-2.6,0-5.8,0-8.5c0-1-0.1-7.6,0.1-8C60.6,45.9,60.7,45.7,61,45.6z"/>
		<polygon id="XMLID_2_" class="st14" points="56.6,43.9 56.6,43.8 56.7,43.7 56.7,43.6 56.8,43.6 56.8,43.5 56.9,43.4 57,43.4 
			57,43.3 57.1,43.3 57.2,43.3 57.2,43.3 57.3,43.3 57.3,43.3 57.4,43.3 61.3,45.6 61.3,45.6 61.2,45.5 61.2,45.5 61.1,45.5 
			61,45.6 61,45.6 60.9,45.6 60.8,45.7 60.8,45.8 60.7,45.8 60.7,45.9 60.6,46 60.6,46.1 60.5,46.1 60.2,46.8 59.9,47.6 59.5,48.4 
			59.1,49.3 58.7,50.3 58.3,51.3 57.8,52.3 57.3,53.4 56.7,54.9 56,56.4 55.3,57.9 54.6,59.4 53.9,61 53.3,62.5 52.6,64.1 
			51.9,65.6 51.3,67 50.7,68.4 50.2,69.8 49.7,71.1 49.2,72.2 48.8,73.3 48.5,74.3 48.2,75.1 48,76.1 47.7,77 47.5,77.9 47.4,78.4 
			43.5,76.1 43.6,75.6 43.8,74.7 44,73.8 44.3,72.9 44.6,72 44.9,71.1 45.3,70 45.8,68.8 46.3,67.5 46.8,66.2 47.4,64.8 48,63.3 
			48.7,61.8 49.3,60.3 50,58.7 50.7,57.2 51.4,55.6 52.1,54.1 52.7,52.6 53.4,51.1 53.9,50 54.3,49 54.8,48 55.2,47.1 55.6,46.2 
			56,45.3 56.3,44.6 		"/>
		<polygon id="XMLID_1_" class="st15" points="52.5,64.3 51.9,65.6 51.3,67 50.7,68.4 50.2,69.8 49.7,71.1 49.2,72.2 48.8,73.3 
			48.5,74.3 48.2,75.1 48,76.1 47.7,77 47.5,77.9 47.4,78.4 43.5,76.1 43.6,75.6 43.8,74.7 44,73.8 44.3,72.9 44.6,72 44.9,71.1 
			45.3,70 45.8,68.8 46.3,67.5 46.8,66.2 47.4,64.8 48,63.3 48.6,62 		"/>
	</g>
</g>
</svg>
