<?xml version="1.0" encoding="utf-8"?>
<!-- Generator: Adobe Illustrator 19.0.0, SVG Export Plug-In . SVG Version: 6.00 Build 0)  -->
<svg version="1.1" id="图层_1" xmlns="http://www.w3.org/2000/svg" xmlns:xlink="http://www.w3.org/1999/xlink" x="0px" y="0px"
	 viewBox="0 0 120 120" style="enable-background:new 0 0 120 120;" xml:space="preserve">
<style type="text/css">
	.st0{opacity:0.7;}
	.st1{fill-rule:evenodd;clip-rule:evenodd;fill:#F5F5F5;}
	.st2{fill-rule:evenodd;clip-rule:evenodd;fill:#E9E9EB;}
	.st3{fill-rule:evenodd;clip-rule:evenodd;fill:#DDDEE1;}
	.st4{fill-rule:evenodd;clip-rule:evenodd;fill:#D1D2D6;}
	.st5{fill-rule:evenodd;clip-rule:evenodd;fill:#E6EAEB;}
	.st6{fill-rule:evenodd;clip-rule:evenodd;fill:#FFFFFF;}
	.st7{fill-rule:evenodd;clip-rule:evenodd;fill:#2980B9;}
	.st8{fill-rule:evenodd;clip-rule:evenodd;fill:#2192FC;}
	.st9{fill-rule:evenodd;clip-rule:evenodd;fill:#2C3E50;}
	.st10{fill-rule:evenodd;clip-rule:evenodd;fill:#5298C7;}
	.st11{fill-rule:evenodd;clip-rule:evenodd;fill:#61B1E6;}
	.st12{fill-rule:evenodd;clip-rule:evenodd;fill:#41576E;}
	.st13{fill-rule:evenodd;clip-rule:evenodd;fill:#F0B11D;}
	.st14{fill-rule:evenodd;clip-rule:evenodd;fill:#FAC13C;}
	.st15{fill-rule:evenodd;clip-rule:evenodd;fill:#FCDE97;}
	.st16{fill-rule:evenodd;clip-rule:evenodd;fill:#3D566E;}
	.st17{fill-rule:evenodd;clip-rule:evenodd;fill:#496682;}
</style>
<g>
	<g class="st0">
		<path id="XMLID_74_" class="st1" d="M82.1,89.2c12.2,7.1,12.2,18.5,0,25.5c-12.2,7.1-32,7.1-44.2,0c-12.2-7.1-12.2-18.5,0-25.5
			C50.1,82.1,69.9,82.1,82.1,89.2z"/>
		<path id="XMLID_73_" class="st2" d="M78.3,91.4c10.1,5.8,10.1,15.3,0,21.1c-10.1,5.8-26.4,5.8-36.5,0c-10.1-5.8-10.1-15.3,0-21.1
			C51.8,85.6,68.2,85.6,78.3,91.4z"/>
		<path id="XMLID_72_" class="st3" d="M74.4,93.6c8,4.6,8,12,0,16.6c-8,4.6-20.9,4.6-28.8,0c-8-4.6-8-12,0-16.6
			C53.5,89,66.5,89,74.4,93.6z"/>
		<path id="XMLID_71_" class="st4" d="M70.6,95.8c5.8,3.4,5.8,8.8,0,12.2c-5.8,3.4-15.3,3.4-21.1,0c-5.8-3.4-5.8-8.8,0-12.2
			C55.3,92.5,64.7,92.5,70.6,95.8z"/>
	</g>
	<g>
		<path id="XMLID_70_" class="st5" d="M84.5,86.5c1.6,0,2.9-1.3,2.9-2.9c0-1.6-1.3-2.9-2.9-2.9c-1.6,0-2.9,1.3-2.9,2.9
			C81.6,85.2,82.9,86.5,84.5,86.5z"/>
		<path class="st6" d="M86.7,82.1c-0.6-0.7-1.4-0.6-1.6,0c0.5-0.3,1.3-0.1,1.6,0.2c0.3,0.3,0.2,0.3,0.3,0.4
			C86.9,82.6,86.8,82.3,86.7,82.1L86.7,82.1z M85.1,82.2C85.1,82.2,85.1,82.2,85.1,82.2C85.1,82.2,85.1,82.2,85.1,82.2L85.1,82.2z
			 M86.8,83.5L86.8,83.5L86.8,83.5L86.8,83.5L86.8,83.5z M87,82.9C87,82.8,87,82.8,87,82.9C87,82.8,87,82.8,87,82.9z"/>
		<path id="XMLID_26_" class="st7" d="M86.7,84.8c0.6-0.7,0.5-1.8,0-2.4c-0.6-0.6-1.5-0.5-2,0.2c-0.6,0.7-0.5,1.8,0,2.4
			C85.3,85.6,86.2,85.5,86.7,84.8z"/>
		<path id="XMLID_25_" class="st8" d="M86.5,84.5c0.4-0.6,0.4-1.4,0-1.9c-0.5-0.5-1.2-0.4-1.6,0.1c-0.4,0.6-0.4,1.4,0,1.9
			C85.4,85.2,86.1,85.1,86.5,84.5z"/>
		<path id="XMLID_24_" class="st9" d="M86.2,84.2c0.3-0.4,0.3-0.9,0-1.2c-0.3-0.3-0.7-0.3-1,0.1c-0.3,0.4-0.3,0.9,0,1.2
			C85.5,84.6,85.9,84.6,86.2,84.2z"/>
		<path id="XMLID_23_" class="st5" d="M85.5,84.7c0.1-0.1,0.1-0.2,0-0.3c-0.1-0.1-0.2-0.1-0.2,0c-0.1,0.1-0.1,0.2,0,0.3
			C85.4,84.8,85.5,84.8,85.5,84.7z"/>
		<g>
			<path class="st10" d="M85.1,82.2c0,0.1-0.1,0.3-0.1,0.4v0c0.4-0.4,1.2-0.3,1.5,0c0.3,0.3,0.3,0.5,0.3,0.8
				c0.1-0.2,0.2-0.4,0.1-0.7c-0.1-0.1,0-0.1-0.3-0.4C86.4,82.1,85.6,81.9,85.1,82.2L85.1,82.2z M85.2,83.1L85.2,83.1L85.2,83.1z
				 M85.2,83.1L85.2,83.1L85.2,83.1L85.2,83.1L85.2,83.1z"/>
		</g>
		<path id="XMLID_19_" class="st11" d="M85,82.6c0,0.2,0.1,0.4,0.1,0.5c0,0-0.1,0.2,0,0c0.1-0.2,0.8-0.3,1-0.1
			c0.2,0.2,0.2,0.4,0.2,0.7h0c0.2,0,0.3-0.1,0.4-0.2c0-0.3,0-0.5-0.3-0.8C86.2,82.3,85.5,82.2,85,82.6z"/>
		<path id="XMLID_18_" class="st12" d="M85.2,83.1c0.2,0.4,0.6,0.6,1,0.6c0.1,0,0.2,0,0.3,0c0-0.3,0-0.4-0.2-0.7
			C86,82.8,85.3,82.9,85.2,83.1C85,83.3,85.2,83.1,85.2,83.1z"/>
		<path id="XMLID_17_" class="st5" d="M86.7,83.1c0-0.2-0.1-0.3-0.2-0.4c-0.2,0-0.3,0.1-0.3,0.2c0,0.2,0.1,0.3,0.2,0.4
			C86.5,83.4,86.6,83.3,86.7,83.1z"/>
		<path id="XMLID_16_" class="st13" d="M87.4,88.5c0-1.6-1.4-2.9-3-2.9c-1.6,0-2.9,1.3-3,2.9l0,0l0,7.4c0,0.4,0,0.6,0.9,1.1
			c0.9,0.5,3.4,0.5,4.2,0c0.9-0.5,0.8-0.7,0.9-1.1L87.4,88.5L87.4,88.5z"/>
		<path class="st14" d="M81.5,88.5L81.5,88.5l0,5.3L81.5,88.5L81.5,88.5z M87.4,88.5c0-0.8-0.9-2.6-2.6-2.6c-1.7,0-2.6,1.1-2.6,2.6
			c0,2.1,0,6.4,0,8.5c0,0-0.5-0.3,0.1,0.1c0.6,0.3,3.4,0.5,4.2,0c0.9-0.5,0.8-0.7,0.9-1.1L87.4,88.5z"/>
		<path id="XMLID_13_" class="st15" d="M86.9,96.8c-0.1,0.1-0.1,0.1-0.3,0.2c-0.2,0.1-0.5,0.3-0.9,0.3c0-2,0-6.2,0-8.2
			c-0.1-0.9-0.1-0.8-0.7-1.8c-0.2-0.3-0.1-0.5,0.1-0.6c0.3-0.2,0.9-0.1,1.2,0.2c0.5,0.4,0.6,1.2,0.6,1.7
			C86.9,90.6,86.9,94.8,86.9,96.8z"/>
		<path id="XMLID_12_" class="st13" d="M84.5,86.5c1.6,0,2.9-1.3,2.9-2.9c0-1.6-1.3-2.9-2.9-2.9c-1.6,0-2.9,1.3-2.9,2.9
			C81.6,85.2,82.9,86.5,84.5,86.5z"/>
		<circle id="XMLID_11_" class="st14" cx="84.8" cy="83.5" r="2.5"/>
		<path id="XMLID_10_" class="st15" d="M85.1,82.2c0.2-0.7,1-0.8,1.6,0c0.1,0.2,0.2,0.4,0.3,0.7c0,0.3,0,0.5-0.1,0.7
			c-0.1,0.1-0.2,0.2-0.4,0.2c0,0,0,0,0,0c-0.1,0-0.2,0-0.3,0c-0.4,0-0.8-0.2-1-0.6C85.1,83,85,82.8,85,82.6L85.1,82.2z"/>
		<polygon id="XMLID_9_" class="st16" points="42.6,60.6 42.6,75.6 42.7,76.1 42.8,76.6 43,77 43.2,77.5 43.5,78 43.8,78.4 
			44.1,78.9 44.5,79.3 44.9,79.8 45.4,80.2 45.9,80.6 46.4,81 47,81.4 47.6,81.8 48.3,82.1 49,82.5 49.7,82.8 50.4,83.1 51.1,83.3 
			51.9,83.6 52.6,83.8 53.4,84 54.2,84.2 55,84.3 55.8,84.4 56.7,84.5 57.5,84.6 58.3,84.7 59.2,84.7 60,84.7 60.8,84.7 61.7,84.7 
			62.5,84.6 63.3,84.5 64.2,84.4 65,84.3 65.8,84.2 66.6,84 67.4,83.8 68.1,83.6 68.9,83.3 69.6,83.1 70.3,82.8 71,82.5 71.7,82.1 
			72.4,81.8 73,81.4 73.6,81 74.1,80.6 74.6,80.2 75.1,79.8 75.5,79.3 75.9,78.9 76.2,78.4 76.5,78 76.7,77.5 77,77 77.1,76.6 
			77.3,76.1 77.4,75.6 77.4,60.6 77.3,61.1 77.1,61.6 77,62.1 76.7,62.5 76.5,63 76.2,63.5 75.9,63.9 75.5,64.4 75.1,64.8 
			74.6,65.2 74.1,65.6 73.6,66 73,66.4 72.4,66.8 71.7,67.2 71,67.5 70.3,67.8 69.6,68.1 68.9,68.4 68.1,68.6 67.4,68.8 66.6,69 
			65.8,69.2 65,69.3 64.2,69.5 63.3,69.6 62.5,69.7 61.7,69.7 60.8,69.7 60,69.8 59.2,69.7 58.3,69.7 57.5,69.6 56.7,69.6 
			55.8,69.5 55,69.3 54.2,69.2 53.4,69 52.6,68.8 51.9,68.6 51.1,68.4 50.4,68.1 49.7,67.8 49,67.5 48.3,67.2 47.6,66.8 47,66.4 
			46.4,66 45.9,65.6 45.4,65.2 44.9,64.8 44.5,64.4 44.1,63.9 43.8,63.5 43.5,63 43.2,62.5 43,62.1 42.8,61.6 42.7,61.1 		"/>
		<polygon id="XMLID_8_" class="st9" points="44.7,79.5 44.9,79.8 45.4,80.2 45.9,80.6 46.4,81 47,81.4 47.6,81.8 48.3,82.1 
			49,82.5 49.7,82.8 50.4,83.1 51.1,83.3 51.9,83.6 51.9,83.6 51.9,68.6 51.9,68.6 51.1,68.4 50.4,68.1 49.7,67.8 49,67.5 
			48.3,67.2 47.6,66.8 47,66.4 46.4,66 45.9,65.6 45.4,65.2 44.9,64.8 44.7,64.5 		"/>
		<polygon id="XMLID_7_" class="st17" points="68.1,83.6 68.1,83.6 68.9,83.3 69.6,83.1 70.3,82.8 71,82.5 71.7,82.1 72.4,81.8 
			73,81.4 73.6,81 74.1,80.6 74.6,80.2 75.1,79.8 75.4,79.5 75.4,64.5 75.1,64.8 74.6,65.2 74.1,65.6 73.6,66 73,66.4 72.4,66.8 
			71.7,67.2 71,67.5 70.3,67.8 69.6,68.1 68.9,68.4 68.1,68.6 68.1,68.6 		"/>
		<g>
			<polygon id="XMLID_6_" class="st17" points="90.7,59.8 90.7,61.1 60,78.8 60,77.5 			"/>
			<polygon id="XMLID_5_" class="st16" points="60,77.5 60,78.8 29.3,61.1 29.3,59.8 			"/>
		</g>
		<polygon id="XMLID_4_" class="st9" points="60,42.1 90.7,59.8 60,77.5 29.3,59.8 		"/>
		<path id="XMLID_3_" class="st13" d="M59.9,59.1l17.3,2.6c4.4,0.7,7.7,4.4,7.7,8.9v10.5c0,0.3-0.8,0.2-0.8,0.1v-9.9
			c0-4.5-3.2-8.2-7.7-8.9l-17.1-2.6L59.9,59.1z"/>
		<polygon id="XMLID_2_" class="st16" points="56.2,59.1 56.2,59.7 56.3,60.1 56.5,60.5 56.9,60.9 57.3,61.2 57.6,61.3 57.9,61.5 
			58.3,61.6 58.6,61.7 58.9,61.7 59.3,61.8 59.6,61.8 60,61.8 60.4,61.8 60.7,61.8 61.1,61.7 61.4,61.7 61.7,61.6 62.1,61.5 
			62.4,61.3 62.7,61.2 63.1,60.9 63.5,60.5 63.7,60.1 63.7,59.7 63.7,59.1 63.7,59.5 63.5,59.9 63.1,60.3 62.7,60.6 62.4,60.8 
			62.1,60.9 61.7,61 61.4,61.1 61.1,61.2 60.7,61.2 60.4,61.2 60,61.3 59.6,61.2 59.3,61.2 58.9,61.2 58.6,61.1 58.3,61 57.9,60.9 
			57.6,60.8 57.3,60.6 56.9,60.3 56.5,59.9 56.3,59.5 		"/>
		<path id="XMLID_1_" class="st17" d="M62.7,57.6c-1.5-0.8-3.8-0.8-5.3,0c-1.5,0.8-1.5,2.2,0,3.1c1.5,0.8,3.8,0.8,5.3,0
			C64.1,59.8,64.1,58.4,62.7,57.6z"/>
	</g>
</g>
</svg>
