<?xml version="1.0" encoding="utf-8"?>
<!-- Generator: Adobe Illustrator 19.0.0, SVG Export Plug-In . SVG Version: 6.00 Build 0)  -->
<svg version="1.1" id="图层_1" xmlns="http://www.w3.org/2000/svg" xmlns:xlink="http://www.w3.org/1999/xlink" x="0px" y="0px"
	 viewBox="0 0 120 120" style="enable-background:new 0 0 120 120;" xml:space="preserve">
<style type="text/css">
	.st0{opacity:0.7;}
	.st1{fill-rule:evenodd;clip-rule:evenodd;fill:#F5F5F5;}
	.st2{fill-rule:evenodd;clip-rule:evenodd;fill:#E9E9EB;}
	.st3{fill-rule:evenodd;clip-rule:evenodd;fill:#DDDEE1;}
	.st4{fill-rule:evenodd;clip-rule:evenodd;fill:#D1D2D6;}
	.st5{fill-rule:evenodd;clip-rule:evenodd;fill:#5D7834;}
	.st6{fill-rule:evenodd;clip-rule:evenodd;fill:#4F662D;}
	.st7{fill-rule:evenodd;clip-rule:evenodd;fill:#70913F;}
	.st8{fill-rule:evenodd;clip-rule:evenodd;fill:#9BC957;}
</style>
<g>
	<g class="st0">
		<path id="XMLID_88_" class="st1" d="M82.1,89.2c12.2,7.1,12.2,18.5,0,25.5c-12.2,7.1-32,7.1-44.2,0c-12.2-7.1-12.2-18.5,0-25.5
			C50.1,82.1,69.9,82.1,82.1,89.2z"/>
		<path id="XMLID_87_" class="st2" d="M78.3,91.4c10.1,5.8,10.1,15.3,0,21.1c-10.1,5.8-26.4,5.8-36.5,0c-10.1-5.8-10.1-15.3,0-21.1
			C51.8,85.6,68.2,85.6,78.3,91.4z"/>
		<path id="XMLID_86_" class="st3" d="M74.4,93.6c8,4.6,8,12,0,16.6c-8,4.6-20.9,4.6-28.8,0c-8-4.6-8-12,0-16.6
			C53.5,89,66.5,89,74.4,93.6z"/>
		<path id="XMLID_85_" class="st4" d="M70.6,95.8c5.8,3.4,5.8,8.8,0,12.2c-5.8,3.4-15.3,3.4-21.1,0c-5.8-3.4-5.8-8.8,0-12.2
			C55.3,92.5,64.7,92.5,70.6,95.8z"/>
	</g>
	<g>
		<path id="XMLID_84_" class="st5" d="M73.5,49.5L73.5,49.5l0.1,0l0.1,0l0.1,0l0.1-0.1l0.1-0.1l0.1-0.1l1-1.2
			c-0.9-0.5-5.3-3-6.1-3.5c-0.2,0.2-0.4,0.4-0.5,0.7l5,4.2C73.4,49.5,73.5,49.5,73.5,49.5z"/>
		<polygon id="XMLID_83_" class="st6" points="64.2,43.6 59.8,46.1 57.7,51.6 60.1,54.9 60.1,54.9 60.1,54.9 60.1,55 60.1,55.1 
			60.1,55.2 60.1,55.3 60.1,55.4 60,55.5 60,55.6 59.9,55.7 59.2,56.7 65.3,60.2 66,59.3 66.1,59.2 66.2,59.1 66.2,59 66.2,58.8 
			66.3,58.7 66.3,58.6 66.2,58.6 66.2,58.5 66.2,58.5 66.2,58.5 63.8,55.1 65.9,49.6 71,47.3 71.1,47.3 71.2,47.2 71.3,47.2 
			71.4,47.1 71.5,47.1 71.6,47 65.5,43.4 65.4,43.4 65.3,43.3 65.2,43.3 65.1,43.3 65.1,43.3 65,43.3 64.9,43.3 64.8,43.3 
			64.7,43.3 64.6,43.4 64.5,43.4 64.3,43.5 		"/>
		<path id="XMLID_82_" class="st5" d="M72.1,71.9l6.1,3.5c-2-2.8-3.9-5.6-5.9-8.4l0,0l0-0.1l0-0.1l0-0.1l0-0.1l0-0.1l0-0.1l0-0.1
			l0-0.1l0-0.1l0-0.1v-0.1l0-0.1l0-0.1l0-0.1l0-0.1l0-0.1l0-0.1l0-0.1l0-0.1l0-0.1l0-0.1l0-0.1l0-0.1l0.1-0.1l0,0l0.1-0.1l0.1-0.1
			l0.1-0.1l0.1-0.1l0.1-0.1l0.1-0.1l0.1-0.1l0.1-0.1l3.2-4l0.2-0.2l0.2-0.2l0.2-0.2l0.2-0.1L77,59l0.2-0.1l0.2-0.1l0.2-0.1l0.2,0
			l0.2,0l0.2,0l0.1,0l0.1,0.1l-6.1-3.5L72,55.2l-0.1,0l-0.2,0l-0.2,0l-0.2,0l-0.2,0.1l-0.2,0.1l-0.2,0.1l-0.2,0.1l-0.2,0.1l-0.2,0.2
			L70.2,56l-0.2,0.2l-3.2,4l-0.1,0.1l-0.1,0.1l-0.1,0.1l-0.1,0.1l-0.1,0.1l-0.1,0.1l-0.1,0.1L66.3,61v0l-0.1,0.1l0,0.1l0,0.1l0,0.1
			l0,0.1l0,0.1l0,0.1l0,0.1l0,0.1l0,0.1l0,0.1l0,0.1l0,0.1v0.1l0,0.1l0,0.1l0,0.1l0,0.1l0,0.1l0,0.1l0,0.1l0,0.1l0,0.1l0,0.1l0,0
			l3.8,5.4C70.7,69.7,71.4,70.9,72.1,71.9z"/>
		<polygon id="XMLID_81_" class="st5" points="46.2,63.1 46.3,63.3 46.4,63.4 46.4,63.6 46.5,63.7 46.7,63.8 52.8,67.3 52.7,67.2 
			52.6,67.1 52.5,67 52.4,66.8 52.4,66.7 52.3,66.5 52.3,66.3 52.3,66.1 52.3,65.9 52.4,65.7 52.4,65.5 52.5,65.2 52.6,65 52.6,65 
			55.9,56.5 55.9,56.3 56,56.2 56.1,56 56.1,55.9 56.2,55.7 56.3,55.6 56.4,55.5 56.5,55.3 56.6,55.2 56.7,55.1 56.8,55 56.9,54.9 
			57.1,54.8 57.2,54.7 57.3,54.6 57.4,54.5 64.8,50.3 58.7,46.8 51.3,51 51.2,51.1 51,51.2 50.9,51.3 50.8,51.4 50.7,51.5 
			50.6,51.6 50.5,51.7 50.4,51.8 50.3,51.9 50.2,52.1 50.1,52.2 50,52.3 49.9,52.5 49.9,52.6 49.8,52.8 49.7,52.9 46.4,61.5 
			46.4,61.5 46.3,61.7 46.3,61.9 46.2,62.1 46.2,62.4 46.2,62.6 46.2,62.8 46.2,63 		"/>
		<polygon id="XMLID_80_" class="st7" points="47.4,83.1 47.4,83.1 40.7,87 47.9,94.3 48,94.4 48.1,94.4 48.1,94.5 48.2,94.5 
			50.8,96.1 50.8,96 50.7,95.9 50.6,95.9 50.6,95.8 49.7,94.5 52.1,95.9 52.1,95.9 49.7,94.5 46.9,90.5 53.5,86.7 53.6,86.7 
			58.7,83.7 58.7,83.7 58.8,83.6 58.9,83.6 59,83.6 59.1,83.5 59.2,83.5 59.2,83.5 59.3,83.5 59.4,83.4 59.4,83.4 59.5,83.4 
			59.6,83.4 59.6,83.4 59.7,83.5 59.8,83.5 59.9,83.5 59.9,83.5 60,83.6 53.9,80 53.8,80 53.7,80 53.6,79.9 53.6,79.9 53.5,79.9 
			53.4,79.9 53.3,79.9 53.3,79.9 53.3,79.9 53.2,79.9 53.1,79.9 53,79.9 52.9,80 52.9,80 52.8,80 52.7,80.1 52.6,80.1 52.6,80.1 		
			"/>
		<path id="XMLID_79_" class="st8" d="M60.8,60.5L60.8,60.5l2-5.1v0l0-0.1l0,0l2-5.1l-7.4,4.3c-0.3,0.2-0.6,0.5-0.9,0.8
			c-0.3,0.3-0.5,0.7-0.7,1.1L52.6,65l0,0c-0.2,0.6-0.3,1.2-0.2,1.7c0.1,0.4,0.4,0.7,0.8,0.8l3.2,0.3c0.2,0,0.4,0,0.7-0.1
			c0.2-0.1,0.5-0.2,0.7-0.5c0.2-0.2,0.5-0.5,0.6-0.7c0.2-0.3,0.3-0.6,0.5-0.9v0L60.8,60.5z"/>
		<path id="XMLID_78_" class="st8" d="M76.3,72.6l2,2.8l3.7-9.5c0.2-0.4,0.2-0.8,0.2-1.2c0-0.4-0.1-0.7-0.2-0.9l-3.3-4.7l0,0
			c-0.2-0.4-0.6-0.5-1.1-0.3c-0.4,0.1-0.9,0.5-1.4,1l-3.2,4c-0.2,0.3-0.4,0.5-0.5,0.8l0,0l0,0c-0.1,0.3-0.2,0.6-0.3,0.9
			c-0.1,0.3-0.1,0.6-0.1,0.8c0,0.2,0.1,0.4,0.2,0.6l0,0L76.3,72.6L76.3,72.6L76.3,72.6L76.3,72.6z"/>
		<path id="XMLID_77_" class="st8" d="M53.6,86.7L53.6,86.7l-6.7,3.9l3.7,5.3c0.2,0.2,0.4,0.4,0.7,0.4c0.3,0,0.6-0.1,0.9-0.3v0
			l6.6-3.8v0c0.5-0.3,0.9-0.8,1.3-1.3c0.3-0.6,0.5-1.2,0.5-1.8l0-4.3c0-0.3,0-0.5-0.1-0.7c-0.1-0.2-0.2-0.3-0.4-0.4
			c-0.2-0.1-0.4-0.1-0.6-0.1l0,0c-0.2,0-0.4,0.1-0.7,0.2v0L53.6,86.7z"/>
		<path id="XMLID_76_" class="st8" d="M46.4,89.8l4.3-2.5l2.4-6.1l0,0c0.1-0.3,0.4-0.6,0.6-0.5l0.8,0.1l-1.5-9l-8.2,8.2l1,0.1v0
			c0.2,0,0.3,0.3,0.2,0.6l-1.6,4c-0.2,0.4-0.2,0.8-0.2,1.2l0,0c0,0.4,0.1,0.7,0.2,0.9L46.4,89.8z"/>
		<polygon id="XMLID_75_" class="st7" points="50.7,51.5 56.8,55 56.8,55 56.9,54.9 57.1,54.8 57.2,54.7 57.3,54.6 57.4,54.5 
			64.8,50.3 58.7,46.8 51.3,51 51.2,51.1 51,51.2 50.9,51.3 50.8,51.4 50.7,51.5 		"/>
		<polygon id="XMLID_74_" class="st7" points="59.8,46.1 66,49.6 71,47.3 71.1,47.3 71.2,47.2 71.3,47.2 71.4,47.1 71.5,47.1 
			71.6,47 65.5,43.4 65.4,43.4 65.3,43.3 65.2,43.3 65.1,43.3 65.1,43.3 65,43.3 64.9,43.3 64.8,43.3 64.7,43.3 64.6,43.4 
			64.5,43.4 64.3,43.5 64.2,43.6 		"/>
		<path id="XMLID_73_" class="st8" d="M65.9,49.6l-2.1,5.5l2.4,3.4v0l0,0c0.1,0.2,0,0.5-0.2,0.8l-0.8,0.9l8.2-1.3L75,48.1l-1,1.2
			c-0.2,0.3-0.5,0.3-0.6,0.2l-1.6-2.2c-0.2-0.2-0.4-0.4-0.7-0.4l0,0c-0.3,0-0.6,0.1-0.9,0.2L65.9,49.6z"/>
		<polygon id="XMLID_72_" class="st6" points="40.7,87 47.9,94.3 48,94.4 48.1,94.4 48.1,94.5 48.2,94.5 50.8,96.1 50.8,96 
			50.7,95.9 50.6,95.9 50.6,95.8 49.7,94.5 52.1,95.9 52.1,95.9 49.7,94.5 46.9,90.5 		"/>
		<polygon id="XMLID_71_" class="st5" points="45.6,80 44.9,79.6 52.8,71.8 46.7,68.2 38.5,76.4 39.6,77 39.6,77.1 38,81.1 38,81.2 
			37.9,81.4 37.9,81.6 37.9,81.7 37.8,81.9 37.8,82 37.8,82.1 37.8,82.3 37.8,82.3 37.8,82.4 37.8,82.5 37.8,82.6 37.9,82.8 
			37.9,82.9 37.9,83 38,83.1 38,83.2 40.2,86.3 46.4,89.8 44.2,86.7 44.1,86.6 44.1,86.5 44,86.4 44,86.3 44,86.2 44,86.1 
			43.9,85.9 43.9,85.8 43.9,85.8 43.9,85.7 44,85.5 44,85.4 44,85.3 44,85.1 44.1,84.9 44.1,84.8 44.2,84.6 45.7,80.6 45.8,80.5 
			45.8,80.4 45.8,80.3 45.8,80.2 45.8,80.1 45.7,80.1 		"/>
		<polygon id="XMLID_70_" class="st6" points="37.8,82.6 37.8,82.6 37.9,82.8 37.9,82.9 37.9,83 38,83.1 38,83.2 40.2,86.3 
			46.4,89.8 44.2,86.7 44.1,86.6 44.1,86.5 44,86.4 44,86.3 44,86.2 44,86.1 		"/>
		<path id="XMLID_69_" class="st6" d="M72.1,71.9l6.1,3.5c-2-2.8-3.9-5.6-5.9-8.4l0,0l0-0.1l0-0.1l0-0.1l0-0.1l0-0.1l0-0.1l0-0.1
			l0-0.1l0-0.1l0-0.1v0l-6.1-3.5v0l0,0.1l0,0.1l0,0.1l0,0.1l0,0.1l0,0.1l0,0.1l0,0.1l0,0.1l0,0.1l0,0l3.8,5.4
			C70.7,69.7,71.4,70.9,72.1,71.9z"/>
		<polygon id="XMLID_68_" class="st7" points="70.1,76.8 75.7,73.5 69.6,70 67.9,71 63.9,73.3 		"/>
		<polygon id="XMLID_67_" class="st5" points="65.7,72.3 65,71.9 64.4,71.5 57.7,81.8 63.9,85.4 70,75.9 70.5,75 65.7,72.2 		"/>
		<path id="XMLID_66_" class="st8" d="M77.9,76.6l-2.1-3L71,76.3l0,0c-0.2,0.1-0.5,0-0.5-0.3v-1l-6.7,10.4l6.7,2.7v-1.3h0
			c0-0.3,0.2-0.6,0.4-0.8l3.1-1.8c0.3-0.2,0.6-0.5,0.9-0.8c0.3-0.3,0.5-0.7,0.7-1.1L77.9,76.6z"/>
	</g>
</g>
</svg>
