<?xml version="1.0" encoding="utf-8"?>
<!-- Generator: Adobe Illustrator 19.0.0, SVG Export Plug-In . SVG Version: 6.00 Build 0)  -->
<svg version="1.1" id="图层_1" xmlns="http://www.w3.org/2000/svg" xmlns:xlink="http://www.w3.org/1999/xlink" x="0px" y="0px"
	 viewBox="0 0 120 120" style="enable-background:new 0 0 120 120;" xml:space="preserve">
<style type="text/css">
	.st0{opacity:0.7;}
	.st1{fill-rule:evenodd;clip-rule:evenodd;fill:#F5F5F5;}
	.st2{fill-rule:evenodd;clip-rule:evenodd;fill:#E9E9EB;}
	.st3{fill-rule:evenodd;clip-rule:evenodd;fill:#DDDEE1;}
	.st4{fill-rule:evenodd;clip-rule:evenodd;fill:#D1D2D6;}
	.st5{fill-rule:evenodd;clip-rule:evenodd;fill:#34485C;}
	.st6{fill-rule:evenodd;clip-rule:evenodd;fill:#2C3E50;}
	.st7{fill-rule:evenodd;clip-rule:evenodd;fill:#E6EAEB;}
	.st8{fill-rule:evenodd;clip-rule:evenodd;fill:#E74C3C;}
	.st9{fill-rule:evenodd;clip-rule:evenodd;fill:#415A73;}
	.st10{fill-rule:evenodd;clip-rule:evenodd;fill:#A82C1E;}
	.st11{fill-rule:evenodd;clip-rule:evenodd;fill:#C0392B;}
</style>
<g>
	<g class="st0">
		<path id="XMLID_14_" class="st1" d="M82.1,89.2c12.2,7.1,12.2,18.5,0,25.5c-12.2,7.1-32,7.1-44.2,0c-12.2-7.1-12.2-18.5,0-25.5
			C50.1,82.1,69.9,82.1,82.1,89.2z"/>
		<path id="XMLID_13_" class="st2" d="M78.3,91.4c10.1,5.8,10.1,15.3,0,21.1c-10.1,5.8-26.4,5.8-36.5,0c-10.1-5.8-10.1-15.3,0-21.1
			C51.8,85.6,68.2,85.6,78.3,91.4z"/>
		<path id="XMLID_12_" class="st3" d="M74.4,93.6c8,4.6,8,12,0,16.6c-8,4.6-20.9,4.6-28.8,0c-8-4.6-8-12,0-16.6
			C53.5,89,66.5,89,74.4,93.6z"/>
		<path id="XMLID_11_" class="st4" d="M70.6,95.8c5.8,3.4,5.8,8.8,0,12.2c-5.8,3.4-15.3,3.4-21.1,0c-5.8-3.4-5.8-8.8,0-12.2
			C55.3,92.5,64.7,92.5,70.6,95.8z"/>
	</g>
	<g>
		<polygon id="XMLID_10_" class="st5" points="40,97.6 37.6,96.2 37.3,95.9 37,95.6 36.9,95.1 36.8,94.6 36.8,62.4 36.9,61.8 
			37,61.2 37.3,60.6 37.6,60 37.9,59.5 38.3,59 38.8,58.5 39.3,58.2 40.2,57.7 41,57.2 41.9,56.7 42.8,56.2 43.7,55.7 44.5,55.2 
			45.4,54.7 46.3,54.2 47.2,53.7 48,53.2 48.9,52.7 49.8,52.2 50.6,51.6 51.5,51.1 52.4,50.6 53.3,50.1 54.1,49.6 55,49.1 
			55.9,48.6 56.8,48.1 57.6,47.6 58.5,47.1 59.4,46.6 60.2,46.1 61.1,45.6 62,45.1 62.9,44.6 63.7,44.1 64.6,43.6 65.5,43.1 
			66.3,42.6 67.2,42.1 67.7,41.8 68.2,41.7 68.6,41.8 69,41.9 71.4,43.3 71,43.2 70.6,43.2 70.2,43.3 69.7,43.5 68.8,44 67.9,44.5 
			67.1,45 66.2,45.5 65.3,46 64.4,46.5 63.6,47 62.7,47.5 61.8,48 61,48.5 60.1,49 59.2,49.5 58.3,50 57.5,50.5 56.6,51 55.7,51.6 
			54.8,52.1 54,52.6 53.1,53.1 52.2,53.6 51.4,54.1 50.5,54.6 49.6,55.1 48.7,55.6 47.9,56.1 47,56.6 46.1,57.1 45.2,57.6 
			44.4,58.1 43.5,58.6 42.6,59.1 41.8,59.6 41.3,60 40.8,60.4 40.4,60.9 40,61.4 39.7,62 39.5,62.7 39.3,63.3 39.3,63.9 39.3,96 
			39.3,96.5 39.5,97 39.7,97.3 		"/>
		<polygon id="XMLID_9_" class="st6" points="42.1,93.4 39.7,92 41.3,91.1 42.1,90.6 42.9,90.2 43.7,89.7 44.5,89.2 45.3,88.8 
			46.1,88.3 46.9,87.9 47.7,87.4 48.5,86.9 49.3,86.5 50.1,86 50.9,85.6 51.7,85.1 52.5,84.6 53.3,84.2 54.1,83.7 54.9,83.2 
			55.7,82.8 56.5,82.3 57.3,81.9 58.1,81.4 58.9,80.9 59.7,80.5 60.5,80 61.3,79.6 62.1,79.1 62.8,78.6 63.6,78.2 64.4,77.7 
			65.2,77.3 66,76.8 66.1,76.7 66.2,76.7 66.3,76.6 66.3,76.5 66.4,76.4 66.4,76.3 66.4,76.2 66.4,76.1 66.4,75.2 66.4,74.3 
			66.4,73.4 66.4,72.5 66.4,71.5 66.4,70.6 66.4,69.7 66.4,68.8 66.4,67.9 66.4,66.9 66.4,66 66.4,65.1 66.4,64.2 66.4,63.3 
			66.4,62.4 66.4,61.4 66.4,60.5 66.4,59.6 66.4,58.7 66.4,57.8 66.4,56.8 66.4,55.9 66.4,55 66.4,54.1 66.4,53.2 66.4,52.2 
			66.4,51.3 66.4,50.4 66.4,49.5 66.4,48.6 66.4,47.6 66.4,46.7 66.4,46.6 66.4,46.6 66.4,46.5 66.3,46.5 68.8,47.9 68.8,47.9 
			68.8,48 68.9,48.1 68.9,48.1 68.9,49.1 68.9,50 68.9,50.9 68.9,51.8 68.9,52.7 68.9,53.7 68.9,54.6 68.9,55.5 68.9,56.4 
			68.9,57.3 68.9,58.3 68.9,59.2 68.9,60.1 68.9,61 68.9,61.9 68.9,62.8 68.9,63.8 68.9,64.7 68.9,65.6 68.9,66.5 68.9,67.4 
			68.9,68.4 68.9,69.3 68.9,70.2 68.9,71.1 68.9,72 68.9,73 68.9,73.9 68.9,74.8 68.9,75.7 68.9,76.6 68.9,77.6 68.9,77.6 
			68.8,77.7 68.8,77.8 68.8,77.9 68.7,78 68.6,78.1 68.6,78.2 68.5,78.2 67.7,78.7 66.9,79.1 66.1,79.6 65.3,80.1 64.5,80.5 
			63.7,81 62.9,81.4 62.1,81.9 61.3,82.4 60.5,82.8 59.7,83.3 58.9,83.7 58.1,84.2 57.3,84.7 56.5,85.1 55.7,85.6 54.9,86 
			54.1,86.5 53.3,87 52.5,87.4 51.7,87.9 50.9,88.4 50.1,88.8 49.3,89.3 48.5,89.7 47.7,90.2 46.9,90.7 46.1,91.1 45.3,91.6 
			44.5,92 43.7,92.5 		"/>
		<path id="XMLID_8_" class="st7" d="M68,47.7c0-0.2-0.2-0.3-0.4-0.2c-8.5,4.9-17,9.8-25.6,14.8c-0.2,0.1-0.4,0.4-0.4,0.7
			c0,9.8,0,19.6,0,29.4c0,0.2,0.2,0.3,0.4,0.2c8.5-4.9,17-9.8,25.6-14.8c0.2-0.1,0.4-0.4,0.4-0.7C68,67.3,68,57.5,68,47.7z"/>
		<path id="XMLID_7_" class="st8" d="M43.4,75.3l3.6-2.1l2.8-11.1c0.2-0.8,0.8-1.5,1.4-1.6c0.4-0.1,0.7,0.2,0.7,0.6l3,13.6l2.6-13.5
			c0.1-0.8,0.7-1.5,1.3-1.7c0.4-0.1,0.7,0.1,0.8,0.4l1.9,4.7L66,62v2.5l-5.2,3c-0.5,0.3-0.9,0.2-1.1-0.2l-0.9-2.3l-2.9,14.8l0,0
			c-0.1,0.5-0.4,1.1-0.8,1.4c-0.6,0.5-1.2,0.4-1.3-0.2l-3.2-14.3l-1.8,7.2h0c-0.1,0.6-0.6,1.2-1,1.5l-4.4,2.5V75.3z"/>
		<path class="st9" d="M41.8,59.6c9.3-5.4,18.6-10.7,27.9-16.1c1.4-0.8,2.5-0.1,2.5,1.4V77c0,1.6-1.1,3.5-2.5,4.3
			C60.4,86.7,51.1,92,41.8,97.4c-1.4,0.8-2.5,0.1-2.5-1.4V63.9C39.3,62.3,40.4,60.4,41.8,59.6L41.8,59.6z M68.9,48.1
			c0-0.2-0.2-0.3-0.4-0.2c-8.5,4.9-17,9.8-25.6,14.8c-0.2,0.1-0.4,0.4-0.4,0.7c0,9.8,0,19.6,0,29.4c0,0.2,0.2,0.3,0.4,0.2
			c8.5-4.9,17-9.8,25.6-14.8c0.2-0.1,0.4-0.4,0.4-0.7C68.9,67.7,68.9,57.9,68.9,48.1z"/>
		<polygon id="XMLID_4_" class="st10" points="81.4,67.5 77,65 76.7,64.9 76.3,64.8 75.9,64.8 75.5,64.8 75,64.9 74.6,65 74.1,65.2 
			73.7,65.4 73.2,65.6 72.7,66 72.3,66.3 71.8,66.7 71.4,67.1 71,67.6 70.6,68.1 70.2,68.7 69.8,69.3 69.5,69.9 69.2,70.5 
			68.9,71.2 68.7,71.9 68.5,72.6 68.3,73.4 72.7,75.9 72.8,75.2 73,74.4 73.3,73.7 73.5,73 73.8,72.4 74.2,71.8 74.5,71.2 
			74.9,70.6 75.3,70.1 75.7,69.7 76.2,69.2 76.6,68.8 77.1,68.5 77.5,68.2 78,67.9 78.5,67.7 78.9,67.5 79.4,67.4 79.8,67.3 
			80.2,67.3 80.6,67.3 81,67.4 		"/>
		<polygon id="XMLID_3_" class="st11" points="71.1,73.5 66.8,71 66.4,70.8 66,70.7 65.6,70.7 65.2,70.7 64.8,70.8 64.3,70.9 
			63.9,71.1 63.4,71.3 63,71.6 62.5,71.9 62.1,72.2 61.6,72.6 61.2,73 60.7,73.5 60.3,74 59.9,74.5 59.6,75.1 59.2,75.7 58.9,76.3 
			58.7,76.9 58.4,77.6 58.2,78.2 58,78.9 57.9,79.6 57.8,80.3 57.8,81.1 57.8,81.5 57.9,82 58,82.4 58.1,82.8 58.3,83.1 58.5,83.5 
			58.7,83.8 59,84.1 59.3,84.4 59.6,84.7 59.9,84.9 60.2,85.1 60.6,85.4 65,87.9 64.6,87.7 64.2,87.4 63.9,87.2 63.6,86.9 
			63.3,86.6 63.1,86.3 62.8,86 62.6,85.7 62.5,85.3 62.3,84.9 62.2,84.5 62.2,84 62.2,83.6 62.2,82.8 62.3,82.1 62.4,81.4 
			62.6,80.7 62.8,80.1 63,79.4 63.3,78.8 63.6,78.2 63.9,77.6 64.3,77 64.7,76.5 65.1,76 65.5,75.5 66,75.1 66.4,74.7 66.9,74.4 
			67.3,74.1 67.8,73.8 68.2,73.6 68.7,73.4 69.1,73.3 69.6,73.2 70,73.2 70.4,73.3 70.8,73.4 		"/>
		<path id="XMLID_2_" class="st8" d="M72.7,90.2c3.4-4.9,10.5-13.6,10.5-18.8c0-7.7-9-3.8-10.5,4.5c-1.5-6.6-10.5-0.1-10.5,7.6
			C62.2,88.7,69.3,89.2,72.7,90.2z"/>
		<polygon id="XMLID_1_" class="st6" points="39.7,62 37.3,60.6 37.3,60.6 37,61.2 36.9,61.8 36.8,62.4 36.8,94.6 36.9,95.1 
			37,95.6 37.3,95.9 37.6,96.2 40,97.6 39.7,97.3 39.5,97 39.3,96.5 39.3,96 39.3,63.9 39.3,63.3 39.5,62.7 39.7,62 		"/>
	</g>
</g>
</svg>
