<?xml version="1.0" encoding="utf-8"?>
<!-- Generator: Adobe Illustrator 19.0.0, SVG Export Plug-In . SVG Version: 6.00 Build 0)  -->
<svg version="1.1" id="图层_1" xmlns="http://www.w3.org/2000/svg" xmlns:xlink="http://www.w3.org/1999/xlink" x="0px" y="0px"
	 viewBox="-579 407 760 268" style="enable-background:new -579 407 760 268;" xml:space="preserve">
<style type="text/css">
	.st0{fill:#073B4C;}
	.st1{fill:#997817;}
	.st2{fill:#E0B153;}
	.st3{fill:#FFFFFF;}
	.st4{opacity:0.7;}
	.st5{fill:#808080;}
</style>
<g id="XMLID_1246_">
	<polygon id="XMLID_1247_" class="st0" points="-326.1,451.9 -322.4,448.1 -322.4,479.4 -321.9,479.4 -321.9,448.1 -318.1,451.9 
		-317.8,451.5 -322.1,447 -326.5,451.5 	"/>
</g>
<g id="XMLID_1240_">
	<g id="XMLID_1241_">
		<path id="XMLID_1242_" class="st1" d="M-390,491.1h135.8c1.5,0,2.7,1.1,2.7,2.5v49.3c0,1.4-1.2,2.5-2.7,2.5H-390
			c-1.5,0-2.7-1.1-2.7-2.5v-49.3C-392.8,492.2-391.5,491.1-390,491.1z"/>
	</g>
</g>
<g id="XMLID_1234_">
	<g id="XMLID_1235_">
		<path id="XMLID_1236_" class="st1" d="M42.5,491.1h135.8c1.5,0,2.7,1.1,2.7,2.5v49.3c0,1.4-1.2,2.5-2.7,2.5H42.5
			c-1.5,0-2.7-1.1-2.7-2.5v-49.3C39.7,492.2,41,491.1,42.5,491.1z"/>
	</g>
</g>
<g id="XMLID_1231_">
	<g id="XMLID_1232_">
		<path id="XMLID_1233_" class="st2" d="M-391.6,407h139c1.5,0,2.8,1.1,2.8,2.5v24.9c0,1.4-1.3,2.5-2.8,2.5h-139
			c-1.5,0-2.8-1.1-2.8-2.5v-24.9C-394.4,408.1-393.2,407-391.6,407z"/>
	</g>
</g>
<g id="XMLID_1243_">
	<g id="XMLID_1244_">
		<path id="XMLID_1245_" class="st1" d="M-576.3,620.7h135.8c1.5,0,2.7,1.1,2.7,2.5v49.3c0,1.4-1.2,2.5-2.7,2.5h-135.8
			c-1.5,0-2.7-1.1-2.7-2.5v-49.3C-579,621.8-577.8,620.7-576.3,620.7z"/>
	</g>
</g>
<g id="XMLID_752_">
	<path id="XMLID_753_" class="st1" d="M-450.7,553.3h-4v-25.4c0-2.1,0.1-4.1,0.2-6c-0.3,0.3-0.7,0.7-1.1,1.1s-2.4,2-5.8,4.8
		l-2.1-2.8l9.4-7.3h3.4V553.3z"/>
</g>
<g id="XMLID_749_">
	<path id="XMLID_750_" class="st1" d="M-144.5,578.7H-168v-3.5l9.4-9.4c2.9-2.9,4.8-5,5.7-6.2c0.9-1.2,1.6-2.4,2.1-3.6
		s0.7-2.4,0.7-3.8c0-1.9-0.6-3.4-1.7-4.5c-1.2-1.1-2.8-1.7-4.8-1.7c-1.5,0-2.9,0.2-4.2,0.7c-1.3,0.5-2.8,1.4-4.4,2.7l-2.1-2.8
		c3.3-2.7,6.9-4.1,10.7-4.1c3.4,0,6,0.9,7.9,2.6s2.9,4,2.9,6.9c0,2.3-0.6,4.5-1.9,6.7c-1.3,2.2-3.6,5-7.1,8.4l-7.8,7.6v0.2h18.4v3.8
		H-144.5z"/>
</g>
<g id="XMLID_746_">
	<path id="XMLID_747_" class="st1" d="M12,476c0,2.3-0.6,4.1-1.9,5.6C8.8,483,7,484,4.7,484.5v0.2c2.9,0.4,5,1.3,6.4,2.7
		s2.1,3.4,2.1,5.8c0,3.4-1.2,6-3.5,7.8s-5.7,2.7-10.1,2.7c-1.9,0-3.6-0.1-5.2-0.4c-1.6-0.3-3.1-0.8-4.6-1.5V498
		c1.5,0.8,3.2,1.3,4.9,1.7c1.7,0.4,3.4,0.6,5,0.6c6.2,0,9.3-2.4,9.3-7.3c0-4.3-3.4-6.5-10.2-6.5h-3.5V483h3.6c2.8,0,5-0.6,6.6-1.8
		c1.6-1.2,2.4-2.9,2.4-5.1c0-1.7-0.6-3.1-1.8-4.1s-2.8-1.5-4.9-1.5c-1.6,0-3,0.2-4.4,0.6c-1.4,0.4-3,1.2-4.7,2.3l-2.1-2.7
		c1.5-1.2,3.2-2.1,5.1-2.7c1.9-0.7,3.9-1,6-1c3.5,0,6.2,0.8,8.1,2.4S12,473.2,12,476z"/>
</g>
<g id="XMLID_1237_">
	<g id="XMLID_1238_">
		<path id="XMLID_1239_" class="st1" d="M-183.8,620.7H-48c1.5,0,2.7,1.1,2.7,2.5v49.3c0,1.4-1.2,2.5-2.7,2.5h-135.8
			c-1.5,0-2.7-1.1-2.7-2.5v-49.3C-186.5,621.8-185.3,620.7-183.8,620.7z"/>
	</g>
</g>
<g id="XMLID_26_">
	<g id="XMLID_30_">
		
			<rect id="XMLID_32_" x="-458.2" y="497.9" transform="matrix(-0.6592 -0.752 0.752 -0.6592 -1189.89 605.6182)" class="st1" width="1" height="149.1"/>
	</g>
	<g id="XMLID_27_">
		<g id="XMLID_29_">
			<polygon id="XMLID_1348_" class="st1" points="-399.5,528 -396.2,518.6 -406,520.5 			"/>
		</g>
	</g>
</g>
<g id="XMLID_12_">
	<g id="XMLID_24_">
		
			<rect id="XMLID_25_" x="-265.8" y="566.6" transform="matrix(-0.7316 -0.6818 0.6818 -0.7316 -725.7227 848.4657)" class="st1" width="140" height="1"/>
	</g>
	<g id="XMLID_13_">
		<g id="XMLID_14_">
			<polygon id="XMLID_1342_" class="st1" points="-149.1,617.4 -139.3,619.7 -142.3,610.1 			"/>
		</g>
	</g>
</g>
<g id="XMLID_6_">
	<g id="XMLID_9_">
		
			<rect id="XMLID_11_" x="-33" y="492" transform="matrix(-0.6149 -0.7886 0.7886 -0.6149 -502.6108 896.2601)" class="st1" width="1" height="157.7"/>
	</g>
	<g id="XMLID_7_">
		<g id="XMLID_8_">
			<polygon id="XMLID_1336_" class="st1" points="31.6,527.2 35.3,518 25.5,519.4 			"/>
		</g>
	</g>
</g>
<g id="XMLID_648_">
	<path id="XMLID_649_" class="st3" d="M-518.8,645.1c-1,0.4-2,0.8-2.7,1.1c-0.5,0.2-0.5,0.2-0.8,0.3c-0.3,0.1-0.3,0.1-0.6,0.2
		l-0.4-1.1c1.5-0.3,2.6-0.7,4.3-1.4L-518.8,645.1z M-515.7,648.8c0,0.3,0,0.3-0.1,1.1c0,1.4-0.2,2.1-0.7,2.8
		c-0.4,0.7-1.2,1.2-2.3,1.6c-0.8,0.3-1.4,0.4-2.5,0.6c-0.1,0-0.6,0.1-1.4,0.2c-0.1-0.4-0.2-0.6-0.5-1c1.8,0,3.1-0.3,4.4-0.8
		c1-0.4,1.6-1,1.9-1.8c0.1-0.4,0.2-1.1,0.2-1.9c0-0.3,0-0.5-0.1-0.8L-515.7,648.8L-515.7,648.8z M-519.8,643.2
		c-1.2-0.8-1.9-1.2-2.8-1.5l0.6-0.7c1.2,0.5,2,0.9,2.8,1.5L-519.8,643.2z M-521.3,652.6c0.1-0.5,0.1-1,0.1-1.8v-2.1
		c0-0.8,0-1.1,0-1.5c0.4,0,1,0.1,1.8,0.1h6.4c0.8,0,1.4,0,1.8-0.1c0,0.4-0.1,0.9-0.1,1.6v2c0,0.9,0,1.3,0.1,1.8h-1.2
		c0.1-0.6,0.1-1,0.1-1.8v-2.6h-7.9v2.6c0,0.6,0,1.4,0.1,1.8H-521.3z M-517,642.8c-0.4,0.5-0.9,1-1.5,1.5c-0.2-0.3-0.4-0.4-0.7-0.6
		c1.3-0.9,2.1-1.9,2.5-3.1l1,0.3c-0.3,0.6-0.4,0.8-0.7,1.2h5.3c0.5,0,0.8,0,1.1-0.1l0.6,0.5c-0.1,0.1-0.1,0.1-0.2,0.2
		c0,0,0,0.1-0.2,0.3c-0.5,0.7-0.8,1-1.5,1.5c-0.3-0.2-0.5-0.3-0.9-0.5c0.6-0.4,1-0.7,1.4-1.2h-3c0.2,0.8,0.7,1.4,1.4,2
		c0.8,0.7,1.9,1.1,3.6,1.3c-0.2,0.3-0.3,0.5-0.5,1c-1.3-0.3-2.2-0.7-3-1.2c-0.9-0.6-1.4-1.2-2-2.2c-0.4,0.9-0.9,1.6-1.9,2.2
		c-0.4,0.3-0.9,0.5-1.5,0.7c0,0-0.4,0.1-0.8,0.2c-0.1,0-0.3,0.1-0.5,0.1c-0.1-0.4-0.2-0.5-0.4-0.9c1.5-0.2,2.5-0.6,3.2-1.2
		c0.6-0.5,1-1.1,1.2-2H-517z M-515.1,652.1c2.8,0.9,3.8,1.3,6,2.1l-0.5,0.9c-2.6-1.1-2.8-1.2-5.9-2.3L-515.1,652.1z"/>
	<path id="XMLID_656_" class="st3" d="M-495.2,642c0.8,0,1.2,0,1.7-0.1v1c-0.5,0-0.9-0.1-1.7-0.1h-1.3c-0.1,0.2-0.1,0.3-0.2,0.7
		c-0.3,1-0.5,1.4-0.8,2h2.2c0.9,0,1.4,0,2-0.1v1.1c-0.5-0.1-1-0.1-2-0.1h-9.7c0,2.9-0.1,3.8-0.4,5.3c-0.3,1.5-0.6,2.3-1.4,3.6
		c-0.3-0.4-0.4-0.6-0.8-0.8c0.7-1,1-1.7,1.2-2.9c0.3-1.3,0.4-2.6,0.4-4.7c0-0.6,0-1-0.1-1.5c0.4,0.1,0.8,0.1,1.8,0.1h2
		c-0.4-1.6-0.5-1.9-0.8-2.7h-1.6c-0.8,0-1.1,0-1.6,0.1v-1c0.4,0.1,0.9,0.1,1.6,0.1h4.1c-0.5-0.8-0.5-0.8-0.7-1.1l0.9-0.5
		c0.3,0.4,0.3,0.4,0.9,1.4c0,0,0,0,0.1,0.2H-495.2z M-498.5,645.6c0.3-0.5,0.4-0.8,0.7-1.9c0.1-0.5,0.2-0.6,0.2-0.8h-4.6
		c0.2,0.4,0.3,0.6,0.5,1.4c0.2,0.6,0.2,0.8,0.4,1.2L-498.5,645.6L-498.5,645.6z"/>
</g>
<g id="XMLID_579_" class="st4">
	<path id="XMLID_580_" class="st5" d="M-575.6,493.1c-0.7,0.3-1.5,0.6-2.1,0.8c-0.4,0.1-0.4,0.1-0.6,0.2s-0.2,0.1-0.4,0.2l-0.3-0.8
		c1.1-0.2,2-0.5,3.2-1.1L-575.6,493.1z M-573.2,495.9c0,0.2,0,0.2,0,0.8c0,1.1-0.2,1.6-0.5,2.1s-0.9,0.9-1.8,1.2
		c-0.6,0.2-1.1,0.3-1.9,0.5c-0.1,0-0.4,0-1.1,0.1c-0.1-0.3-0.2-0.4-0.4-0.8c1.3,0,2.4-0.2,3.3-0.6c0.8-0.3,1.2-0.7,1.4-1.4
		c0.1-0.2,0.2-0.7,0.2-1.3c0-0.3,0-0.4,0-0.6H-573.2z M-576.3,491.7c-0.9-0.6-1.4-0.9-2.1-1.2l0.3-0.5c1,0.3,1.5,0.6,2.1,1
		L-576.3,491.7z M-577.5,498.7c0.1-0.4,0.1-0.8,0.1-1.3v-1.6c0-0.6,0-0.8,0-1.1c0.3,0,0.7,0,1.3,0h4.9c0.6,0,1,0,1.4,0
		c0,0.3,0,0.7,0,1.2v1.5c0,0.7,0,1,0.1,1.3h-1.1c0.1-0.4,0.1-0.7,0.1-1.3v-2h-5.9v2c0,0.4,0,1,0.1,1.3H-577.5z M-574.2,491.4
		c-0.3,0.4-0.7,0.7-1.1,1.1c-0.2-0.2-0.3-0.3-0.5-0.5c1-0.7,1.5-1.4,1.9-2.3l0.7,0.2c-0.2,0.4-0.3,0.6-0.5,0.9h3.9
		c0.4,0,0.6,0,0.8-0.1l0.5,0.4c0,0.1,0,0.1-0.1,0.2c0,0,0,0-0.2,0.2c-0.4,0.5-0.7,0.8-1.2,1.2c-0.2-0.2-0.4-0.3-0.7-0.3
		c0.5-0.3,0.8-0.6,1-0.9h-2.2c0.1,0.6,0.5,1.1,1,1.5c0.6,0.5,1.4,0.8,2.7,1c-0.2,0.2-0.2,0.4-0.4,0.8c-1-0.2-1.6-0.5-2.2-0.9
		c-0.7-0.4-1.1-0.9-1.5-1.7c-0.3,0.7-0.7,1.2-1.4,1.6c-0.3,0.2-0.7,0.4-1.1,0.5c0,0-0.3,0.1-0.6,0.2c-0.1,0-0.2,0-0.3,0.1
		c-0.1-0.3-0.2-0.4-0.3-0.7c1.1-0.2,1.8-0.4,2.4-0.9c0.5-0.4,0.8-0.9,0.9-1.5h-1.5V491.4z M-572.8,498.4c2.1,0.7,2.8,0.9,4.5,1.6
		l-0.4,0.7c-1.9-0.8-2.1-0.9-4.4-1.7L-572.8,498.4z"/>
	<path id="XMLID_587_" class="st5" d="M-557.9,490.8c0.6,0,0.9,0,1.3-0.1v0.8c-0.4,0-0.7,0-1.3,0h-0.9c-0.1,0.2-0.1,0.3-0.2,0.5
		c-0.2,0.8-0.4,1.1-0.6,1.5h1.6c0.7,0,1.1,0,1.5-0.1v0.8c-0.4,0-0.7-0.1-1.5-0.1h-7.3c0,2.2-0.1,2.9-0.3,4c-0.2,1.1-0.5,1.7-1.1,2.7
		c-0.2-0.3-0.3-0.4-0.6-0.6c0.5-0.7,0.7-1.3,0.9-2.1c0.2-1,0.3-2,0.3-3.5c0-0.5,0-0.7,0-1.1c0.3,0,0.6,0.1,1.3,0.1h1.5
		c-0.3-1.2-0.4-1.4-0.6-2h-1.2c-0.6,0-0.8,0-1.2,0v-0.8c0.3,0,0.6,0.1,1.2,0.1h3.1c-0.3-0.6-0.3-0.6-0.5-0.8l0.7-0.4
		c0.2,0.3,0.2,0.3,0.7,1c0,0,0,0,0.1,0.2h3.1V490.8z M-560.4,493.4c0.2-0.4,0.3-0.6,0.5-1.4c0.1-0.4,0.1-0.4,0.2-0.6h-3.4
		c0.1,0.3,0.2,0.5,0.3,1.1c0.1,0.5,0.2,0.6,0.3,0.9H-560.4z"/>
	<path id="XMLID_590_" class="st5" d="M-549.6,493.4c-0.3,1.6-0.7,2.7-1.3,3.8c-0.5,0.8-1.3,1.6-2.2,2.3c-0.5,0.4-0.8,0.6-1.5,0.9
		c-0.2-0.4-0.3-0.6-0.6-0.7c1.3-0.5,2.4-1.3,3.2-2.4c0.6-0.8,1-1.7,1.3-2.8c0.1-0.3,0.1-0.5,0.2-1.1h-2.7c-0.7,0-1.2,0-1.5,0.1v-0.9
		c0.3,0,0.7,0.1,1.5,0.1h2.8c0.1-0.9,0.2-2,0.2-2.7c0-0.2,0-0.2,0-0.4h0.9c-0.1,0.3-0.1,0.4-0.1,1c-0.1,0.8-0.2,1.6-0.2,2h2.9
		c0.7,0,1.1,0,1.4-0.1c0,0.3,0,0.4,0,0.5c0,0.1,0,0.1,0,0.6c0,0.2,0,0.7-0.1,1.6c-0.1,1.6-0.1,1.7-0.2,2.8c-0.1,1-0.3,1.4-0.5,1.7
		c-0.2,0.3-0.5,0.4-1.1,0.4c-0.6,0-1.2-0.1-2.1-0.2c0-0.3-0.1-0.6-0.2-0.9c0.9,0.2,1.6,0.3,2.3,0.3c0.6,0,0.8-0.3,1-1.8
		c0.1-1.1,0.2-2.3,0.2-4.3h-3.6V493.4z M-553,489.9c0.8,0.8,1.2,1.3,1.8,2.1l-0.7,0.4c-0.6-0.9-1-1.4-1.8-2.1L-553,489.9z
		 M-549.1,495.2c0.8,0.6,1.3,1.1,2.1,2l-0.6,0.5c-0.6-0.8-1-1.2-2-2.1L-549.1,495.2z"/>
	<path id="XMLID_594_" class="st5" d="M-535.6,490.9L-535.6,490.9c0-0.6,0-0.9-0.1-1.1h0.9c0,0.3-0.1,0.6-0.1,1v0.1h1.1
		c0.5,0,0.9,0,1.2-0.1v0.8c-0.4,0-0.8-0.1-1.2-0.1h-1.1v3.8h1.3c0.5,0,0.9,0,1.2-0.1v0.8c-0.3,0-0.7-0.1-1.2-0.1h-1.8
		c0.8,0.8,1.8,1.3,3.3,1.7c-0.2,0.3-0.3,0.4-0.4,0.7c-1.8-0.6-2.8-1.2-3.8-2.4h-3c-0.9,1.1-2,1.8-3.7,2.4c-0.1-0.3-0.2-0.4-0.4-0.7
		c1.4-0.3,2.6-0.9,3.2-1.7h-1.8c-0.5,0-0.9,0-1.2,0.1v-0.8c0.3,0,0.7,0.1,1.2,0.1h1.3v-3.8h-0.9c-0.5,0-0.8,0-1.2,0.1v-0.8
		c0.3,0,0.7,0.1,1.2,0.1h0.9v-0.1c0-0.5,0-0.8-0.1-1h0.9c0,0.3-0.1,0.6-0.1,1v0.1H-535.6z M-535.7,497.6c0.5,0,0.7,0,1,0v0.7
		c-0.3,0-0.6,0-1,0h-1.7v1.3h3.3c0.6,0,0.9,0,1.3-0.1v0.8c-0.4,0-0.8-0.1-1.3-0.1h-6.9c-0.5,0-0.9,0-1.3,0.1v-0.8
		c0.3,0,0.6,0.1,1.3,0.1h3v-1.3h-1.5c-0.5,0-0.7,0-1,0v-0.7c0.3,0,0.6,0,1,0h1.5v-0.1c0-0.4,0-0.7-0.1-1h0.8c0,0.3-0.1,0.5-0.1,1
		v0.1H-535.7z M-539.8,492.5h4.2v-0.9h-4.2V492.5z M-539.8,493.9h4.2V493h-4.2V493.9z M-539.8,495.4h4.2v-0.9h-4.2V495.4z"/>
	<path id="XMLID_600_" class="st5" d="M-525.3,490.1c0.6,0.8,1,1.1,1.7,1.7c0.9,0.8,2.3,1.5,3.5,1.9c-0.2,0.3-0.3,0.5-0.4,0.8
		c-0.9-0.4-1.4-0.7-2.2-1.2v0.7c-0.3,0-0.6-0.1-1.1-0.1h-1.5v1.6h3.2c0.5,0,0.8,0,1.2-0.1v0.8c-0.3,0-0.7-0.1-1.2-0.1h-3.2v3.2h3.5
		c0.5,0,0.9,0,1.3-0.1v0.9c-0.4-0.1-0.8-0.1-1.3-0.1h-7.6c-0.5,0-0.9,0-1.4,0.1v-0.9c0.4,0,0.8,0.1,1.4,0.1h3.3v-3.2h-3
		c-0.5,0-0.8,0-1.2,0.1v-0.8c0.3,0,0.7,0.1,1.2,0.1h3V494h-1.3c-0.5,0-0.8,0-1.1,0.1v-0.8c-0.5,0.3-0.5,0.3-2.1,1.2
		c-0.1-0.2-0.2-0.3-0.2-0.3s0-0.1-0.1-0.2c0,0-0.1-0.1-0.2-0.2c1.2-0.5,2.1-1,2.9-1.6c1-0.8,1.8-1.6,2.4-2.7l0.7,0.4L-525.3,490.1z
		 M-528.5,496.7c0.4,0.7,0.7,1.3,1,2.2l-0.7,0.3c-0.3-0.8-0.6-1.5-1-2.1L-528.5,496.7z M-523.9,493.3c0.4,0,0.7,0,1,0
		c-1.1-0.7-2.1-1.6-2.8-2.6c-0.8,1-1.8,1.9-2.8,2.6c0,0,0,0,0.1,0c0.2,0,0.5,0,1,0H-523.9z M-522.1,497c-0.6,1.1-0.8,1.5-1.3,2.2
		l-0.7-0.3c0.5-0.7,0.9-1.3,1.2-2.3L-522.1,497z"/>
	<path id="XMLID_605_" class="st5" d="M-509.9,490.8c0.6,0,0.9,0,1.3-0.1v0.8c-0.4,0-0.7,0-1.3,0h-0.9c-0.1,0.2-0.1,0.3-0.2,0.5
		c-0.2,0.8-0.4,1.1-0.6,1.5h1.6c0.7,0,1.1,0,1.5-0.1v0.8c-0.4,0-0.7-0.1-1.5-0.1h-7.3c0,2.2-0.1,2.9-0.3,4c-0.2,1.1-0.5,1.7-1.1,2.7
		c-0.2-0.3-0.3-0.4-0.6-0.6c0.5-0.7,0.7-1.3,0.9-2.1c0.2-1,0.3-2,0.3-3.5c0-0.5,0-0.7,0-1.1c0.3,0,0.6,0.1,1.3,0.1h1.5
		c-0.3-1.2-0.4-1.4-0.6-2h-1.2c-0.6,0-0.8,0-1.2,0v-0.8c0.3,0,0.6,0.1,1.2,0.1h3.1c-0.3-0.6-0.3-0.6-0.5-0.8l0.7-0.4
		c0.2,0.3,0.2,0.3,0.7,1c0,0,0,0,0.1,0.2h3.1V490.8z M-512.4,493.4c0.2-0.4,0.3-0.6,0.5-1.4c0.1-0.4,0.1-0.4,0.2-0.6h-3.4
		c0.1,0.3,0.2,0.5,0.3,1.1c0.1,0.5,0.2,0.6,0.3,0.9H-512.4z"/>
	<path id="XMLID_608_" class="st5" d="M-501.9,492.3V491c0-0.5,0-0.8-0.1-1.3h1c-0.1,0.4-0.1,0.8-0.1,1.3v1.3h3c0.5,0,1,0,1.4-0.1
		v0.9c-0.4,0-0.8-0.1-1.4-0.1h-3v2.6h2.4c0.6,0,1,0,1.3-0.1v0.8c-0.3,0-0.7-0.1-1.3-0.1h-2.4v3.1h3.3c0.6,0,1,0,1.4-0.1v0.9
		c-0.5-0.1-0.8-0.1-1.4-0.1h-7.7c-0.6,0-1,0-1.4,0.1v-0.9c0.4,0.1,0.8,0.1,1.4,0.1h3.6v-3.1h-2.2c-0.6,0-0.9,0-1.3,0.1v-0.8
		c0.3,0,0.7,0.1,1.3,0.1h2.2V493h-2.8c-0.5,1.1-1,1.8-1.6,2.6c-0.2-0.2-0.4-0.3-0.7-0.5c1-1,1.6-2.2,2.1-3.7
		c0.2-0.5,0.3-0.8,0.3-1.1l0.9,0.2c-0.1,0.2-0.1,0.3-0.2,0.6c-0.1,0.2-0.1,0.2-0.4,1.2C-504.3,492.3-501.9,492.3-501.9,492.3z"/>
	<path id="XMLID_610_" class="st5" d="M-492.6,494h0.5c0.4,0,0.5,0,0.8-0.1v0.8c-0.3,0-0.5,0-0.8,0h-0.5v2.9
		c0.5-0.2,0.7-0.3,1.5-0.8v0.8c-1.1,0.6-1.9,0.9-3.1,1.4c-0.3,0.1-0.5,0.2-0.6,0.3l-0.3-0.8c0.4-0.1,1-0.3,1.6-0.5
		c0.1,0,0.1,0,0.1,0v-3.2h-0.6c-0.3,0-0.5,0-0.8,0.1v-0.8c0.3,0,0.4,0.1,0.8,0.1h0.6v-2.8h-0.5c-0.5,0-0.7,0-1,0.1v-0.8
		c0.3,0.1,0.6,0.1,1,0.1h1.8c0.5,0,0.7,0,1-0.1v0.8c-0.3,0-0.6,0-1,0h-0.5V494z M-487.4,492c0,0.3-0.1,0.6-0.1,1.1
		c0,3.3-0.2,4.3-0.8,5.3c-0.4,0.7-1.1,1.2-2,1.7c-0.5,0.2-0.8,0.4-1.6,0.6c-0.1-0.3-0.3-0.4-0.5-0.7c1.7-0.4,2.7-1,3.3-1.8
		c0.6-0.8,0.8-1.8,0.8-4.3c0-1.2,0-1.5-0.1-1.9C-488.4,492-487.4,492-487.4,492z M-490.6,497.4c0.1-0.4,0.1-0.8,0.1-1.3v-4.5
		c0-0.8,0-0.9,0-1.3c0.4,0,0.7,0,1.4,0h3c0.6,0,1,0,1.4,0c0,0.3,0,0.6,0,1.2v4.6c0,0.7,0,1,0.1,1.3h-0.9c0.1-0.4,0.1-0.8,0.1-1.3v-5
		h-4.1v5c0,0.7,0,1,0.1,1.3C-489.4,497.4-490.6,497.4-490.6,497.4z M-486.8,496.5c0,0.4,0,0.7,0,1.1v1.7c0,0.4,0.1,0.4,0.6,0.4
		c0.6,0,0.9,0,1-0.2c0.2-0.2,0.3-0.7,0.3-1.6c0.2,0.1,0.4,0.2,0.8,0.3c-0.1,1.2-0.2,1.6-0.4,1.8c-0.2,0.3-0.7,0.4-1.8,0.4
		c-1.1,0-1.2-0.1-1.2-1v-1.9c0-0.5,0-0.7,0-1.1L-486.8,496.5L-486.8,496.5z"/>
	<path id="XMLID_615_" class="st5" d="M-477.3,490.1c0.6,0.8,1,1.1,1.7,1.7c0.9,0.8,2.3,1.5,3.5,1.9c-0.2,0.3-0.3,0.5-0.4,0.8
		c-0.9-0.4-1.4-0.7-2.2-1.2v0.7c-0.3,0-0.6-0.1-1.1-0.1h-1.5v1.6h3.2c0.5,0,0.8,0,1.2-0.1v0.8c-0.3,0-0.7-0.1-1.2-0.1h-3.2v3.2h3.5
		c0.5,0,0.9,0,1.3-0.1v0.9c-0.4-0.1-0.8-0.1-1.3-0.1h-7.6c-0.5,0-0.9,0-1.4,0.1v-0.9c0.4,0,0.8,0.1,1.4,0.1h3.3v-3.2h-3
		c-0.5,0-0.8,0-1.2,0.1v-0.8c0.3,0,0.7,0.1,1.2,0.1h3V494h-1.3c-0.5,0-0.8,0-1.1,0.1v-0.8c-0.5,0.3-0.5,0.3-2.1,1.2
		c-0.1-0.2-0.2-0.3-0.2-0.3s0-0.1-0.1-0.2c0,0-0.1-0.1-0.2-0.2c1.2-0.5,2.1-1,2.9-1.6c1-0.8,1.8-1.6,2.4-2.7l0.7,0.4L-477.3,490.1z
		 M-480.5,496.7c0.4,0.7,0.7,1.3,1,2.2l-0.7,0.3c-0.3-0.8-0.6-1.5-1-2.1L-480.5,496.7z M-475.9,493.3c0.4,0,0.7,0,1,0
		c-1.1-0.7-2.1-1.6-2.8-2.6c-0.8,1-1.8,1.9-2.8,2.6c0,0,0,0,0.1,0c0.2,0,0.5,0,1,0H-475.9z M-474.1,497c-0.6,1.1-0.8,1.5-1.3,2.2
		l-0.7-0.3c0.5-0.7,0.9-1.3,1.2-2.3L-474.1,497z"/>
	<path id="XMLID_620_" class="st5" d="M-470.7,492.8c0.8,0.5,1.3,0.8,2.1,1.6l-0.5,0.6c-0.7-0.8-1.2-1.1-2.1-1.7L-470.7,492.8z
		 M-468.5,496.7c-0.6,1.5-0.8,2-1.6,3.4c0,0.1-0.1,0.2-0.2,0.3l-0.7-0.6c0.6-0.6,1.3-1.8,1.9-3.5L-468.5,496.7z M-470.1,489.9
		c0.8,0.6,1.3,1,1.9,1.7l-0.5,0.6c-0.6-0.8-1.1-1.2-1.9-1.8L-470.1,489.9z M-466.3,494.9c0,0.3,0,0.3-0.1,1.1c0,1.5-0.3,2.3-0.9,3.2
		c-0.3,0.5-0.7,0.8-1.3,1.3c-0.2-0.3-0.3-0.4-0.6-0.6c1.5-0.9,2.1-2,2.1-4.1c0-0.4,0-0.6-0.1-0.9H-466.3z M-467.7,493.7
		c0.3,0,0.4-0.1,0.5-0.1c0.1-0.1,0.1-0.1,0.2-0.2c0.6-0.6,0.7-0.8,1.3-1.7h-1.3c-0.5,0-0.8,0-1.1,0.1V491c0.3,0,0.6,0.1,1.1,0.1h2.2
		c-0.2-0.4-0.3-0.6-0.6-0.9l0.6-0.4c0.3,0.5,0.4,0.6,0.8,1.2h2.1c0.6,0,0.9,0,1.2-0.1v0.8c-0.3,0-0.6-0.1-1.2-0.1h-3.1
		c-0.7,1-1.1,1.5-1.7,2c0.5,0,0.5,0,1.8-0.1c0.7-0.1,0.9-0.1,2.1-0.2c-0.3-0.3-0.5-0.5-1-0.9l0.6-0.4c0.9,0.7,1.5,1.4,2.4,2.4
		l-0.6,0.5c-0.4-0.5-0.5-0.7-0.8-1c-0.6,0.1-1,0.1-2.3,0.2c-1.6,0.1-1.6,0.1-2.3,0.2c-0.6,0-0.6,0-1.1,0.1L-467.7,493.7z
		 M-465.1,500.1c0-0.3,0.1-0.7,0.1-1.1v-2.9c0-0.4,0-0.7-0.1-1h0.9c0,0.3-0.1,0.6-0.1,1v2.9c0,0.5,0,0.8,0.1,1.1H-465.1z
		 M-462.1,499.3c0,0.3,0,0.3,0.5,0.3s0.7,0,0.8-0.2c0.1-0.2,0.1-0.7,0.2-1.5c0.2,0.2,0.4,0.2,0.7,0.3c-0.1,1.9-0.3,2.1-1.7,2.1
		c-1,0-1.2-0.1-1.2-0.8v-3.4c0-0.6,0-0.9-0.1-1.2h0.9c0,0.3-0.1,0.6-0.1,1.2C-462.1,496.1-462.1,499.3-462.1,499.3z"/>
	<path id="XMLID_628_" class="st5" d="M-456.7,491.4c-0.6,0.2-0.9,0.2-1.8,0.4c0-0.2-0.1-0.4-0.3-0.7c1.4-0.2,2.6-0.5,3.7-0.9
		c0.3-0.1,0.6-0.2,0.7-0.4l0.5,0.6c-0.1,0-0.1,0-0.3,0.1c-0.6,0.2-1.2,0.5-1.8,0.6v1.9h0.9c0.5,0,0.8,0,1-0.1v0.8
		c-0.3,0-0.6-0.1-1-0.1h-0.9v0.4c1.1,1.1,1.4,1.4,2,2.2l-0.6,0.5c-0.4-0.8-0.9-1.4-1.4-2v4.3c0,0.7,0,1.1,0.1,1.5h-0.9
		c0-0.4,0.1-0.7,0.1-1.5v-2.5c0-0.4,0-1.3,0.1-2c-0.3,0.9-0.5,1.5-1,2.2c-0.3,0.6-0.6,0.9-1.1,1.5c-0.2-0.3-0.3-0.5-0.5-0.6
		c1.1-1.1,1.9-2.4,2.4-4h-0.9c-0.5,0-0.8,0-1.1,0.1V493c0.3,0,0.6,0.1,1.1,0.1h1C-456.7,493.1-456.7,491.4-456.7,491.4z
		 M-452.8,500.2h-0.8c0-0.3,0.1-0.7,0.1-1.4v-6.7c0-0.6,0-0.9-0.1-1.3c0.4,0,0.6,0.1,1.1,0.1h2.6c0.5,0,0.8,0,1.1-0.1
		c0,0.3-0.1,0.7-0.1,1.3v6.6c0,0.6,0,1.1,0.1,1.5h-0.8v-0.9h-3.2V500.2z M-452.8,498.7h3.2v-7h-3.2V498.7z"/>
	<path id="XMLID_632_" class="st5" d="M-445.5,496.6c-0.2,2.1-0.4,3.1-1,4.1c-0.2-0.3-0.4-0.4-0.6-0.6c0.4-0.6,0.6-1.1,0.7-1.9
		c0.2-1.2,0.3-3,0.3-5.9c0-1.2,0-1.7-0.1-2.1c0.4,0,0.6,0.1,1.1,0.1h1.1c0.4,0,0.6,0,0.9-0.1c0,0.3,0,0.6,0,1.2v8.1c0,0.7-0.2,1-1,1
		c-0.3,0-0.5,0-0.9,0c0-0.3,0-0.5-0.2-0.8c0.3,0.1,0.7,0.1,0.9,0.1c0.4,0,0.4,0,0.4-0.4v-2.9h-1.6V496.6z M-445.4,493.7
		c0,0.4,0,0.7,0,0.9c0,0.8,0,1,0,1.3h1.6v-2.1L-445.4,493.7L-445.4,493.7z M-443.8,493v-2.1h-1.5v1.7v0.4H-443.8z M-439,490.2
		c0.5,0,0.7,0,1,0c0,0.3,0,0.6,0,1.1v1.7c0,0.2,0.2,0.3,0.8,0.3c0.4,0,0.8,0,1.1-0.1v0.7c-0.5,0-0.8,0.1-1.1,0.1
		c-1.2,0-1.5-0.1-1.5-0.7v-2.4h-2c0,1-0.2,1.7-0.5,2.3c-0.3,0.6-0.6,1-1.1,1.3c-0.2-0.3-0.4-0.4-0.7-0.5c0.6-0.3,1-0.7,1.2-1.3
		c0.2-0.4,0.3-1.1,0.3-1.8c0-0.3,0-0.5-0.1-0.7c0.4,0,0.7,0,1,0C-440.6,490.2-439,490.2-439,490.2z M-437,495.3
		c-0.1,0.2-0.1,0.3-0.3,0.5c-0.4,0.9-1,1.7-1.7,2.4c0.9,0.8,1.8,1.3,3,1.7c-0.2,0.3-0.3,0.4-0.5,0.7c-1.3-0.5-2.2-1.1-3.1-1.9
		c-1.1,0.9-1.6,1.3-3,2c-0.1-0.3-0.2-0.4-0.5-0.7c1.2-0.5,2-0.9,3-1.8c-0.4-0.4-0.6-0.7-0.9-1.2s-0.3-0.6-0.8-1.5
		c-0.3,0-0.6,0-0.9,0.1v-0.8c0.3,0,0.6,0.1,1.1,0.1h3.2c0.4,0,0.7,0,0.9,0L-437,495.3z M-440.9,495.5c0.5,1.1,0.8,1.5,1.5,2.2
		c0.7-0.8,1.1-1.3,1.5-2.2H-440.9z"/>
	<path id="XMLID_639_" class="st5" d="M-435,499.7c0.7-0.8,1-1.4,1.5-2.4l0.7,0.3c-0.4,1.2-0.8,1.8-1.5,2.6L-435,499.7z
		 M-427.3,490.9c0.7,0,1,0,1.4,0c0,0.3,0,0.7,0,1.3v3.1c0,0.7,0,1,0,1.3c-0.3,0-0.7,0-1.3,0h-4.9c-0.6,0-1,0-1.4,0
		c0-0.3,0-0.5,0-1.3v-3.1c0-0.6,0-1,0-1.3c0.4,0,0.7,0,1.4,0h1.4c0.2-0.4,0.4-0.8,0.6-1.2l0.8,0.2c-0.3,0.6-0.3,0.6-0.6,1.1h2.6
		V490.9z M-432.7,492.5h6v-1h-6V492.5z M-432.7,494.2h6v-1h-6V494.2z M-432.7,495.9h6v-1.1h-6V495.9z M-431.2,499.2
		c0,0.5,0.1,0.5,1.6,0.5c1.3,0,1.8-0.1,1.9-0.2c0.1-0.1,0.2-0.5,0.3-1.3c0.3,0.2,0.5,0.2,0.7,0.3c-0.1,0.9-0.2,1.3-0.4,1.5
		c-0.3,0.3-1,0.4-2.6,0.4c-1.1,0-1.6,0-1.9-0.2c-0.3-0.1-0.4-0.3-0.4-0.9v-1.2c0-0.5,0-0.7-0.1-1.1h0.9c-0.1,0.3-0.1,0.6-0.1,1.1
		L-431.2,499.2L-431.2,499.2z M-428.9,498.8c-0.5-0.7-0.9-1.1-1.6-1.6l0.6-0.4c0.6,0.5,1,0.9,1.6,1.5L-428.9,498.8z M-424.9,500.1
		c-0.5-1-0.9-1.7-1.6-2.6l0.6-0.3c0.7,0.9,1.1,1.5,1.7,2.5L-424.9,500.1z"/>
</g>
<g id="XMLID_513_" class="st4">
	<path id="XMLID_514_" class="st5" d="M-184.1,501.9L-184.1,501.9c0-0.6,0-0.9-0.1-1.1h0.9c0,0.3-0.1,0.6-0.1,1v0.1h1.1
		c0.5,0,0.9,0,1.2-0.1v0.8c-0.4,0-0.8-0.1-1.2-0.1h-1.1v3.8h1.3c0.5,0,0.9,0,1.2-0.1v0.8c-0.3,0-0.7-0.1-1.2-0.1h-1.8
		c0.8,0.8,1.8,1.3,3.3,1.7c-0.2,0.3-0.3,0.4-0.4,0.7c-1.8-0.6-2.8-1.2-3.8-2.4h-3c-0.9,1.1-2,1.8-3.7,2.4c-0.1-0.3-0.2-0.4-0.4-0.7
		c1.4-0.3,2.6-0.9,3.2-1.7h-1.8c-0.5,0-0.9,0-1.2,0.1v-0.8c0.3,0,0.7,0.1,1.2,0.1h1.3v-3.8h-0.8c-0.5,0-0.8,0-1.2,0.1v-0.8
		c0.3,0,0.7,0.1,1.2,0.1h0.9v-0.1c0-0.5,0-0.8-0.1-1h0.9c0,0.3-0.1,0.6-0.1,1v0.1H-184.1z M-184.2,508.5c0.5,0,0.7,0,1,0v0.7
		c-0.3,0-0.6,0-1,0h-1.8v1.3h3.3c0.6,0,0.9,0,1.3-0.1v0.8c-0.4,0-0.8-0.1-1.3-0.1h-6.9c-0.5,0-0.9,0-1.3,0.1v-0.8
		c0.3,0,0.6,0.1,1.3,0.1h3v-1.3h-1.5c-0.5,0-0.7,0-1,0v-0.7c0.3,0,0.6,0,1,0h1.5v-0.1c0-0.4,0-0.7-0.1-1h0.8c0,0.3-0.1,0.5-0.1,1
		v0.1H-184.2z M-188.3,503.4h4.2v-0.9h-4.2V503.4z M-188.3,504.9h4.2V504h-4.2V504.9z M-188.3,506.4h4.2v-0.9h-4.2V506.4z"/>
	<path id="XMLID_520_" class="st5" d="M-173.8,501.1c0.6,0.8,1,1.1,1.7,1.7c0.9,0.8,2.3,1.5,3.5,1.9c-0.2,0.3-0.3,0.5-0.4,0.8
		c-0.9-0.4-1.4-0.7-2.2-1.2v0.7c-0.3,0-0.6-0.1-1.1-0.1h-1.5v1.6h3.2c0.5,0,0.8,0,1.2-0.1v0.8c-0.3,0-0.7-0.1-1.2-0.1h-3.2v3.2h3.5
		c0.5,0,0.9,0,1.3-0.1v0.9c-0.4-0.1-0.8-0.1-1.3-0.1h-7.7c-0.5,0-0.9,0-1.4,0.1v-0.9c0.4,0,0.8,0.1,1.4,0.1h3.3v-3.2h-3
		c-0.5,0-0.8,0-1.2,0.1v-0.8c0.3,0,0.7,0.1,1.2,0.1h3v-1.6h-1.3c-0.5,0-0.8,0-1.1,0.1v-0.8c-0.5,0.3-0.5,0.3-2.1,1.2
		c-0.1-0.2-0.2-0.3-0.2-0.3s0-0.1-0.1-0.2c0,0-0.1-0.1-0.2-0.2c1.2-0.5,2.1-1,2.9-1.6c1-0.8,1.8-1.6,2.4-2.7l0.7,0.4L-173.8,501.1z
		 M-177.1,507.6c0.4,0.7,0.7,1.3,1,2.2l-0.7,0.3c-0.3-0.8-0.6-1.5-1-2.1L-177.1,507.6z M-172.4,504.3c0.4,0,0.7,0,1,0
		c-1.1-0.7-2.1-1.6-2.8-2.6c-0.8,1-1.8,1.9-2.8,2.6c0,0,0,0,0.1,0c0.2,0,0.5,0,1,0H-172.4z M-170.7,507.9c-0.6,1.1-0.8,1.5-1.3,2.2
		l-0.7-0.3c0.5-0.7,0.9-1.3,1.2-2.3L-170.7,507.9z"/>
	<path id="XMLID_525_" class="st5" d="M-165.1,502.6c-0.6,0.9-1.2,1.6-2.1,2.3c-0.2-0.3-0.3-0.4-0.5-0.6c1.1-0.8,1.9-1.7,2.5-2.9
		c0.2-0.4,0.3-0.6,0.3-0.8l0.8,0.2c-0.1,0.2-0.2,0.3-0.5,0.9c0,0.1-0.1,0.1-0.1,0.2h6c0.7,0,1.1,0,1.5-0.1v0.9
		c-0.5,0-0.9-0.1-1.5-0.1H-165.1z M-158.5,509.4c0.5,0,0.8,0,1.1-0.1v0.8c-0.3,0-0.6-0.1-1.1-0.1h-0.5c-0.1,0.7-0.2,1-0.4,1.2
		c-0.2,0.2-0.5,0.3-1.1,0.3c-0.3,0-0.6,0-1.2-0.1c0-0.3,0-0.5-0.1-0.8c0.7,0.1,1,0.1,1.4,0.1c0.3,0,0.5-0.1,0.6-0.3
		c0-0.1,0.1-0.2,0.1-0.5h-6.1c-0.5,0-0.5,0-0.7,0c0.3-0.9,0.5-1.6,0.8-3h-0.7c-0.6,0-0.9,0-1.2,0.1v-0.8c0.3,0.1,0.6,0.1,1.2,0.1
		h0.8c0.1-0.8,0.2-1.9,0.2-2.5c0-0.1,0-0.2,0-0.3c0.1,0,0.1,0,0.1,0c0.2,0,0.5,0,0.8,0h5.2c0.4,0,0.7,0,1,0c0,0.3,0,0.4-0.1,0.9
		c0,0.6-0.1,1.2-0.1,1.9h0.7c0.5,0,0.8,0,1.1-0.1v0.8c-0.3,0-0.6-0.1-1.1-0.1h-0.7c-0.1,0.7-0.2,1.6-0.3,2.3h0.3V509.4z
		 M-159.7,509.4c0.1-0.8,0.1-0.8,0.3-2.3h-5.6c-0.1,0.6-0.3,1.5-0.6,2.3H-159.7z M-159.3,506.4c0-0.7,0.1-1,0.1-2h-5.4
		c-0.1,1.2-0.2,1.4-0.3,2H-159.3z M-162.7,507.3c0.5,0.4,0.8,0.8,1.3,1.4l-0.6,0.5c-0.4-0.6-0.7-1-1.3-1.4L-162.7,507.3z
		 M-162.5,504.5c0.6,0.6,0.8,0.7,1.3,1.3l-0.6,0.5c-0.5-0.7-0.6-0.8-1.3-1.4L-162.5,504.5z"/>
	<path id="XMLID_532_" class="st5" d="M-149.9,503.1h3.6c0.6,0,0.9,0,1.2-0.1v0.8c-0.3,0-0.7-0.1-1.2-0.1h-2.9
		c0.4,0.3,0.8,0.6,1.3,0.9c1,0.5,1.8,0.8,3.2,1.2c-0.2,0.2-0.3,0.4-0.4,0.7c-0.9-0.3-1.7-0.6-2.6-1c-0.9-0.5-1.5-0.9-2.2-1.6
		c0,0.3,0,0.5,0,0.6v0.3c0,0.4,0,0.6,0,0.8h-0.8c0-0.3,0-0.5,0-0.8v-0.3c0-0.2,0-0.4,0-0.6c-0.7,0.7-1.2,1.1-2,1.5s-1.6,0.8-2.5,1.1
		c-0.1-0.3-0.2-0.4-0.4-0.6c1-0.3,1.8-0.6,2.6-1c0.6-0.3,1.3-0.8,1.7-1.1h-2.8c-0.5,0-0.9,0-1.2,0.1v-0.8c0.3,0,0.7,0.1,1.2,0.1h3.5
		V502c-1.4,0.1-2.1,0.1-3.6,0.1c-0.1-0.3-0.1-0.4-0.3-0.7c0.4,0,0.7,0,0.9,0c2.6,0,5.9-0.4,7.1-0.8l0.6,0.7c-0.1,0-0.1,0-1,0.2
		c-0.8,0.1-2,0.3-2.8,0.4v1.2H-149.9z M-146.3,508.3c0.6,0,0.9,0,1.3-0.1v0.8c-0.3,0-0.7-0.1-1.3-0.1h-3.4v1.6c0,0.8-0.3,1-1.3,1
		c-0.4,0-1,0-1.4-0.1c0-0.3-0.1-0.5-0.2-0.8c0.6,0.1,1.1,0.2,1.6,0.2s0.6-0.1,0.6-0.3V509h-3.6c-0.5,0-0.9,0-1.3,0.1v-0.8
		c0.3,0,0.7,0.1,1.3,0.1h3.6l0,0c0-0.2,0-0.4,0-0.6h0.5c0.6-0.3,1.2-0.6,1.7-1h-3.8c-0.6,0-0.9,0-1.1,0.1V506c0.3,0,0.6,0.1,1.1,0.1
		h3.8c0.4,0,0.7,0,0.9,0l0.4,0.4l-0.2,0.2c-1.1,0.8-1.5,1.1-2.5,1.5v0.2h3.3V508.3z"/>
	<path id="XMLID_535_" class="st5" d="M-141.8,504.3c0,2.2-0.1,3.3-0.3,4.4c-0.2,1.1-0.5,1.8-1,2.8c-0.2-0.3-0.4-0.4-0.6-0.6
		c0.4-0.7,0.7-1.3,0.9-2.2c0.3-1.2,0.4-2.9,0.4-5.5c0-0.8,0-1.1,0-1.5c0.4,0,0.8,0.1,1.2,0.1h3.4c-0.2-0.4-0.3-0.5-0.5-0.8l0.6-0.4
		c0.2,0.3,0.2,0.3,0.6,1c0,0,0,0,0.1,0.1h2.9c0.6,0,1,0,1.3-0.1v0.8c-0.4,0-0.7-0.1-1.2-0.1h-7.7v1.3h2.2v-0.2c0-0.3,0-0.6,0-0.8
		h0.8c0,0.3,0,0.5,0,0.8v0.2h2.8v-0.2c0-0.3,0-0.6,0-0.8h0.8c0,0.2,0,0.4,0,0.8v0.2h1.4c0.5,0,0.8,0,1.1-0.1v0.8
		c-0.3,0-0.6-0.1-1.1-0.1h-1.4v1.2c0,0.3,0,0.5,0,0.7c-0.2,0-0.3,0-0.8,0h-2.7c-0.5,0-0.7,0-0.9,0c0-0.2,0-0.5,0-0.7v-1.2
		L-141.8,504.3L-141.8,504.3z M-134.4,507.6c-0.1,0.2-0.2,0.2-0.4,0.5c-0.6,0.6-1.3,1.3-1.9,1.8c1.2,0.6,2.5,0.9,3.9,1
		c-0.2,0.3-0.3,0.5-0.4,0.8c-1.8-0.3-3.1-0.7-4.2-1.4c-1.3,0.7-2.5,1.1-4.4,1.4c-0.1-0.3-0.2-0.5-0.3-0.7c1.8-0.2,2.9-0.5,4-1.1
		c-0.8-0.6-1.3-1.1-1.9-2c-0.6,0-0.9,0-1.2,0.1v-0.7c0.3,0,0.6,0.1,1.2,0.1h4.4c0.4,0,0.6,0,0.8,0L-134.4,507.6z M-139.2,507.8
		c0.4,0.6,1,1.1,1.8,1.6c0.8-0.5,1.2-0.8,1.9-1.6H-139.2z M-138.9,505.6h2.8v-1.3h-2.8V505.6z"/>
	<path id="XMLID_540_" class="st5" d="M-122.4,502.6c0.5,0,0.7,0,1,0c0,0.3,0,0.6,0,1.1v6.7c0,0.8-0.3,0.9-1.3,0.9
		c-0.5,0-0.8,0-1.4-0.1c0-0.3-0.1-0.5-0.2-0.8c0.7,0.1,1.2,0.1,1.7,0.1c0.4,0,0.5,0,0.5-0.3v-6.9h-7.9v6.9c0,0.6,0,0.9,0.1,1.2h-1.1
		c0.1-0.3,0.1-0.6,0.1-1.2v-6.6c0-0.4,0-0.7,0-1.1c0.3,0,0.5,0,1,0h2.3c0.3-0.6,0.6-1.5,0.7-2l0.9,0.1c-0.1,0.1-0.2,0.4-0.3,0.7
		c-0.2,0.5-0.3,0.8-0.5,1.1h4.4V502.6z M-124.1,507.7c0,0.4,0,0.7,0.1,1c-0.3,0-0.8,0-1.1,0h-2.4c-0.3,0-0.8,0-1,0
		c0-0.3,0-0.5,0-0.9v-2.1c0-0.3,0-0.6-0.1-0.9c0.3,0,0.5,0,0.8,0h2.8c0.3,0,0.6,0,0.8,0c0,0.3-0.1,0.5-0.1,0.9v2H-124.1z
		 M-127.7,508h2.9v-2.4h-2.9V508z"/>
	<path id="XMLID_544_" class="st5" d="M-208.9,529.4c-0.2-0.3-0.3-0.4-1-1.1c-0.7,0.4-1.3,0.6-2.1,0.6c-2.5,0-4.1-1.8-4.1-4.7
		c0-2.9,1.6-4.8,4.1-4.8s4.1,1.8,4.1,4.7c0,0.9-0.1,1.6-0.4,2.3c-0.2,0.5-0.4,0.8-1,1.4c0.6,0.5,0.7,0.7,1,0.9L-208.9,529.4z
		 M-211,526.1c0.2,0.2,0.4,0.4,1,1c0.4-0.4,0.5-0.6,0.7-1c0.3-0.6,0.4-1.3,0.4-2.1c0-2.4-1.2-3.9-3.1-3.9s-3.2,1.5-3.2,3.9
		s1.3,3.9,3.2,3.9c0.5,0,1-0.1,1.4-0.4c-0.4-0.4-0.6-0.6-1-0.9L-211,526.1z"/>
	<path id="XMLID_547_" class="st5" d="M-205.3,527.4v1.2h-1.2v-1.2H-205.3z"/>
	<path id="XMLID_549_" class="st5" d="M-192.9,528.6c-0.1-0.4-0.2-0.9-0.4-1.2l-0.6-1.5h-4.1l-0.6,1.5c-0.2,0.5-0.3,0.8-0.4,1.2
		h-1.2c0.2-0.4,0.3-0.6,0.6-1.4l2.7-6.6c0.2-0.6,0.3-0.8,0.4-1.1h1.2c0,0.2,0.1,0.4,0.4,1.1l2.7,6.6c0.3,0.7,0.5,1.1,0.6,1.4H-192.9
		z M-195.7,521.1c0-0.1,0-0.1-0.3-0.8c-0.1,0.2-0.1,0.3-0.1,0.4c-0.1,0.2-0.1,0.3-0.1,0.4l-1.5,4h3.6L-195.7,521.1z"/>
	<path id="XMLID_552_" class="st5" d="M-184.5,528.6c0-0.4-0.2-0.9-0.7-2.1c-0.7-1.6-1.2-2.1-2.1-2.1h-2.2v2.8c0,0.6,0,0.9,0.1,1.4
		h-1.1c0.1-0.4,0.1-0.8,0.1-1.3v-6.4c0-0.5,0-0.9-0.1-1.4c0.4,0,0.8,0,1.3,0h2.6c1.7,0,2.7,0.8,2.7,2.3c0,0.8-0.2,1.3-0.7,1.8
		c-0.3,0.3-0.6,0.5-1.3,0.6c0.5,0.1,0.8,0.5,1.2,1.3c0.3,0.6,0.6,1.2,0.9,2c0.2,0.5,0.4,0.8,0.5,1.1
		C-183.3,528.6-184.5,528.6-184.5,528.6z M-186.7,523.6c0.5,0,1-0.2,1.4-0.5c0.3-0.3,0.5-0.7,0.5-1.2c0-1-0.6-1.6-1.7-1.6h-2.9v3.3
		C-189.4,523.6-186.7,523.6-186.7,523.6z"/>
	<path id="XMLID_555_" class="st5" d="M-178.4,527.3c0,0.6,0,0.9,0.1,1.4h-1.1c0.1-0.4,0.1-0.8,0.1-1.4v-6.9h-1.9
		c-0.6,0-1,0-1.4,0.1v-1c0.4,0.1,0.7,0.1,1.4,0.1h4.7c0.7,0,1,0,1.4-0.1v1c-0.4-0.1-0.7-0.1-1.4-0.1h-1.9L-178.4,527.3L-178.4,527.3
		z"/>
	<path id="XMLID_557_" class="st5" d="M-166.5,519.5c-0.1,0.5-0.1,0.8-0.1,1.3v6.5c0,0.6,0,0.9,0.1,1.3h-1.1
		c0.1-0.4,0.1-0.8,0.1-1.3v-3h-5.5v3c0,0.6,0,0.9,0.1,1.3h-1.1c0.1-0.4,0.1-0.8,0.1-1.3v-6.4c0-0.6,0-0.9-0.1-1.3h1.1
		c-0.1,0.4-0.1,0.8-0.1,1.3v2.6h5.4V521c0-0.6,0-0.9-0.1-1.3h1.2V519.5z"/>
	<path id="XMLID_559_" class="st5" d="M-157.2,519.5c-0.1,0.4-0.1,0.8-0.1,1.4v4.5c0,1.1-0.3,1.9-0.9,2.6c-0.6,0.6-1.6,0.9-2.7,0.9
		c-1.2,0-2.1-0.3-2.7-1c-0.6-0.6-0.9-1.5-0.9-2.5V521c0-0.6,0-1-0.1-1.4h1.1c-0.1,0.4-0.1,0.7-0.1,1.4v4.4c0,1.7,1,2.7,2.7,2.7
		c0.9,0,1.7-0.3,2.1-0.8s0.6-1.1,0.6-1.9V521c0-0.6,0-1-0.1-1.4L-157.2,519.5L-157.2,519.5z"/>
	<path id="XMLID_561_" class="st5" d="M-149.3,528.6c0-0.4-0.2-0.9-0.7-2.1c-0.7-1.6-1.2-2.1-2.1-2.1h-2.2v2.8c0,0.6,0,0.9,0.1,1.4
		h-1.1c0.1-0.4,0.1-0.8,0.1-1.3v-6.4c0-0.5,0-0.9-0.1-1.4c0.4,0,0.8,0,1.3,0h2.6c1.7,0,2.7,0.8,2.7,2.3c0,0.8-0.2,1.3-0.7,1.8
		c-0.3,0.3-0.6,0.5-1.3,0.6c0.5,0.1,0.8,0.5,1.2,1.3c0.3,0.6,0.6,1.2,0.9,2c0.2,0.5,0.4,0.8,0.5,1.1
		C-148.1,528.6-149.3,528.6-149.3,528.6z M-151.6,523.6c0.5,0,1-0.2,1.4-0.5c0.3-0.3,0.5-0.7,0.5-1.2c0-1-0.6-1.6-1.7-1.6h-2.9v3.3
		C-154.3,523.6-151.6,523.6-151.6,523.6z"/>
	<path id="XMLID_564_" class="st5" d="M-141.4,528.6c-0.6,0-0.9,0-1.3,0c0.1-0.5,0.1-0.8,0.1-1.4v-6.3c0-0.6,0-1-0.1-1.4h1.1
		c-0.1,0.4-0.1,0.8-0.1,1.4v6.8h3.8c0.6,0,0.9,0,1.4-0.1v1c-0.4-0.1-0.7-0.1-1.4-0.1L-141.4,528.6L-141.4,528.6z"/>
	<path id="XMLID_566_" class="st5" d="M-132.1,527.3c0,0.6,0,0.9,0.1,1.4h-1.1c0.1-0.4,0.1-0.8,0.1-1.4v-6.9h-1.9
		c-0.6,0-1,0-1.4,0.1v-1c0.4,0.1,0.7,0.1,1.4,0.1h4.7c0.7,0,1,0,1.4-0.1v1c-0.4-0.1-0.7-0.1-1.4-0.1h-1.9L-132.1,527.3L-132.1,527.3
		z"/>
	<path id="XMLID_568_" class="st5" d="M-127.6,520.9c0-0.5,0-0.9-0.1-1.4c0.4,0,0.7,0,1.3,0h2c2.7,0,4.2,1.6,4.2,4.5
		c0,1.5-0.5,2.7-1.3,3.5c-0.7,0.7-1.7,1.1-2.9,1.1h-2c-0.6,0-0.9,0-1.3,0c0.1-0.5,0.1-0.8,0.1-1.4L-127.6,520.9L-127.6,520.9z
		 M-124.4,527.8c0.9,0,1.7-0.3,2.2-0.9c0.7-0.7,1-1.7,1-2.9s-0.3-2.2-0.9-2.8c-0.5-0.6-1.3-0.8-2.3-0.8h-2.3v7.4
		C-126.7,527.8-124.4,527.8-124.4,527.8z"/>
	<path id="XMLID_571_" class="st5" d="M-114.4,519.1c-0.1,0.1-0.2,0.2-0.3,0.6c-0.9,1.9-2.1,3.3-3.8,4.5c-0.2-0.2-0.3-0.4-0.6-0.6
		c1.5-1,2.5-2.1,3.3-3.5c0.3-0.5,0.5-0.9,0.5-1.3L-114.4,519.1z M-114,523.8c-0.1,1.3-0.4,2.2-0.9,3.2c-0.6,1-1.6,1.9-3,2.6
		c-0.2-0.3-0.3-0.4-0.5-0.7c1.5-0.7,2.4-1.5,3-2.6c0.4-0.8,0.6-1.4,0.6-2.5h-0.8c-0.5,0-0.9,0-1.2,0.1V523c0.3,0,0.8,0.1,1.2,0.1
		h3.9c0.6,0,0.9,0,1.3-0.1c0,0.2,0,0.3,0,0.9c0,2.3-0.2,4.4-0.5,4.9c-0.2,0.4-0.5,0.5-1.2,0.5c-0.4,0-0.8,0-1.6-0.1
		c0-0.3-0.1-0.5-0.2-0.9c0.7,0.1,1.2,0.2,1.7,0.2c0.4,0,0.5-0.1,0.6-0.3c0.3-0.7,0.4-2.4,0.4-4.4C-111.2,523.8-114,523.8-114,523.8z
		 M-111.8,518.8c0.1,0.3,0.2,0.6,0.5,1c0.9,1.6,1.9,2.7,3.5,3.7c-0.2,0.2-0.4,0.4-0.6,0.7c-1.9-1.4-2.9-2.6-4-4.8
		c-0.1-0.1-0.1-0.2-0.2-0.3L-111.8,518.8z"/>
	<path id="XMLID_575_" class="st5" d="M-102.5,527.9c-1.2,0.4-2.5,0.7-3.8,0.9c-0.3,0-0.3,0.1-0.5,0.1l-0.2-0.9h0.1
		c0.7,0,2.8-0.4,4.4-0.9V527.9z M-104,519.1c-0.1,0.2-0.2,0.4-0.2,0.5c-0.5,1.3-0.9,1.9-1.5,2.9c0.9-0.1,0.9-0.1,1.8-0.1
		c0.4-0.6,0.5-0.9,0.7-1.2l0.7,0.3c-0.9,1.4-0.9,1.4-1.1,1.7c-0.5,0.8-1,1.4-1.8,2.3c0.7-0.1,0.7-0.1,2.8-0.5l-0.1,0.7
		c-0.1,0-0.8,0.2-2.2,0.4c-0.8,0.1-0.9,0.2-1.5,0.3l-0.2-0.7c0.4-0.3,0.4-0.3,1.1-1c0.4-0.5,0.5-0.6,1.1-1.5c-0.4,0-0.5,0-0.9,0.1
		h-0.4c-0.3,0-0.4,0-0.6,0.1c-0.1,0-0.1,0-0.3,0l-0.2-0.7c0.2-0.1,0.3-0.2,0.4-0.4c0.5-0.8,1.2-2.2,1.6-3.4L-104,519.1z
		 M-100.8,520.4c-0.4,0-0.9,0-1.2,0.1v-0.8c0.3,0,0.7,0.1,1.2,0.1h3.1c0.5,0,1,0,1.3-0.1v0.8c-0.3,0-0.8-0.1-1.3-0.1h-1.2v7.9h1.4
		c0.6,0,1,0,1.3-0.1v0.9c-0.4,0-0.8-0.1-1.3-0.1h-3.6c-0.5,0-0.9,0-1.3,0.1v-0.9c0.3,0,0.7,0.1,1.3,0.1h1.5v-7.9H-100.8z"/>
</g>
<g id="XMLID_479_" class="st4">
	<path id="XMLID_480_" class="st5" d="M-311.1,459.4c-0.4,0.5-0.7,0.8-1.1,1.2c-0.2-0.2-0.3-0.3-0.6-0.5c0.9-0.7,1.5-1.4,1.9-2.4
		l0.8,0.2c-0.2,0.4-0.3,0.5-0.5,0.8h2c0.5,0,0.7,0,1-0.1v0.7c-0.3,0-0.4,0-0.9,0h-0.9c0.2,0.4,0.4,0.6,0.5,1l-0.7,0.3
		c-0.2-0.5-0.3-0.9-0.6-1.3h-0.9V459.4z M-303.6,460.9c0.6,0,0.8,0,1.2,0c0,0.2,0,0.4,0,0.8v0.6c0,0.4,0,0.6,0,0.8h-0.8v-1.5h-8.4
		v1.4h-0.8c0-0.2,0-0.4,0-0.8v-0.6c0-0.3,0-0.5,0-0.8c0.3,0,0.6,0,1.2,0h3.3c-0.2-0.3-0.2-0.4-0.5-0.7l0.6-0.3
		c0.2,0.2,0.4,0.6,0.7,1h3.5V460.9z M-310.9,468.7c0-0.4,0.1-0.7,0.1-1.2v-4.3c0-0.4,0-0.6,0-0.9c0.4,0,0.7,0.1,1.2,0.1h4.3
		c0.5,0,0.8,0,1.2-0.1c0,0.2,0,0.5,0,0.9v0.7c0,0.4,0,0.7,0,0.9c-0.4,0-0.7,0-1.2,0h-4.7v0.9h5.4c0.5,0,0.8,0,1.1,0
		c0,0.3-0.1,0.6-0.1,1.1v0.9c0,0.4,0,0.8,0.1,1.1h-0.8v-0.6h-5.7v0.6L-310.9,468.7L-310.9,468.7z M-310.1,464.1h5.1V463h-5.1V464.1z
		 M-310.1,467.5h5.7v-1.2h-5.7V467.5z M-306.4,459.4c-0.2,0.2-0.3,0.3-0.7,0.8c-0.1-0.1-0.3-0.3-0.6-0.4c0.7-0.6,1-1.1,1.3-2.1
		l0.7,0.2c-0.1,0.3-0.3,0.6-0.4,0.9h2.9c0.5,0,0.7,0,1.1-0.1v0.7c-0.3,0-0.6-0.1-1-0.1h-1.6c0.2,0.3,0.4,0.6,0.6,1l-0.7,0.3
		c-0.2-0.6-0.4-0.9-0.6-1.3L-306.4,459.4L-306.4,459.4z"/>
	<path id="XMLID_487_" class="st5" d="M-298.6,462h0.5c0.3,0,0.5,0,0.8-0.1v0.8c-0.3,0-0.5,0-0.8,0h-0.5v3c0.8-0.3,0.8-0.4,1.4-0.7
		v0.8c-1.1,0.5-1.6,0.8-3,1.3c-0.3,0.1-0.4,0.2-0.6,0.2l-0.2-0.8c0.4-0.1,1-0.3,1.7-0.5v-3.3h-0.7c-0.3,0-0.5,0-0.8,0.1V462
		c0.3,0,0.4,0.1,0.8,0.1h0.6v-2.8h-0.6c-0.5,0-0.6,0-0.9,0.1v-0.8c0.3,0.1,0.5,0.1,1,0.1h1.8c0.5,0,0.7,0,1-0.1v0.8
		c-0.3,0-0.5,0-0.9,0h-0.6V462z M-293.3,465.1h1.8c0.6,0,0.9,0,1.2-0.1v0.8c-0.3,0-0.6-0.1-1.2-0.1h-1.8v1.8h2.2
		c0.6,0,0.9,0,1.2-0.1v0.8c-0.3,0-0.6-0.1-1.2-0.1h-5.4c-0.6,0-0.9,0-1.2,0.1v-0.8c0.3,0,0.6,0.1,1.1,0.1h2.5v-1.8h-1.6
		c-0.6,0-0.8,0-1.2,0.1V465c0.3,0,0.6,0.1,1.2,0.1h1.6v-1.4h-1.2c-0.8,0-1.2,0-1.5,0c0-0.2,0-0.3,0-0.4c0-0.2,0-0.2,0-0.9v-2.6
		c0-0.8,0-1.2-0.1-1.5c0.4,0,0.7,0.1,1.5,0.1h3.2c0.8,0,1.2,0,1.5-0.1c0,0.3,0,0.8,0,1.5v2.4c0,0.8,0,1.2,0,1.5c-0.4,0-0.7,0-1.4,0
		h-1.4v1.4H-293.3z M-294,459.1h-2v1.7h1.9v-1.7H-294z M-294,461.4h-2v1.7h1.9v-1.7H-294z M-291.3,460.8v-1.7h-2v1.7H-291.3z
		 M-291.3,463.1v-1.7h-2v1.7H-291.3z"/>
	<path id="XMLID_494_" class="st5" d="M-281.8,461.1h2.4c0.7,0,0.9,0,1.2,0c0,0.1-0.1,0.3-0.1,0.6c-0.1,0.5-0.2,0.8-0.3,0.9
		c-0.1,0.2-0.3,0.2-0.6,0.2c-0.3,0-0.5,0-0.8-0.1c0-0.3,0-0.4-0.1-0.6c0.4,0.1,0.6,0.2,0.8,0.2c0.3,0,0.3,0,0.4-0.6h-2.7v0.5
		c0,0.3,0,0.5,0.1,0.7h-0.8c0-0.2,0.1-0.4,0.1-0.7v-0.5h-2.8c-0.4,0.6-0.9,1.1-1.8,1.4c0.4,0,0.4,0,0.8,0h4.9c0.6,0,1,0,1.4,0
		c0,0.3,0,0.7,0,1.2v1.3c0,0.7,0,1,0.1,1.3h-0.9c0.1-0.4,0.1-0.8,0.1-1.3v-1.8h-5.9v1.8c0,0.4,0,1.1,0.1,1.3h-0.9
		c0.1-0.3,0.1-0.8,0.1-1.3v-1.2c0-0.6,0-0.7,0-1c-0.4,0.2-0.7,0.3-1.3,0.4c-0.1-0.3-0.2-0.5-0.4-0.6c1.7-0.4,2.6-0.8,3.2-1.5h-1.6
		c-0.4,0-0.8,0-1.1,0c0.3-0.6,0.5-1.2,0.7-1.9c0.3,0,0.6,0,1.1,0h1.6c0-0.2,0-0.5,0-0.6h-2.1c-0.5,0-0.8,0-1.2,0.1v-0.7
		c0.3,0,0.6,0.1,1.2,0.1h2.1c0-0.4,0-0.5,0-0.8h0.8c0,0.2,0,0.3,0,0.8h1.9v-0.1c0-0.3,0-0.5-0.1-0.7h0.8c0,0.3-0.1,0.4-0.1,0.7v0.1
		h1.7c0.6,0,0.9,0,1.1-0.1c0,0.3,0,0.4,0,0.8v0.4c0,0.4,0,0.5,0,0.7c-0.3,0-0.7,0-1.1,0h-1.7v0.6H-281.8z M-283.1,464.2
		c0,0.2,0,0.2,0,0.6c-0.1,1-0.3,1.7-0.6,2.2c-0.5,0.6-1.2,1-2.4,1.3c-0.5,0.1-1.2,0.2-2.2,0.3c-0.1-0.3-0.2-0.4-0.4-0.7
		c1.5,0,2.9-0.3,3.6-0.7c0.9-0.5,1.2-1.1,1.2-2.5c0-0.2,0-0.3,0-0.5C-283.9,464.2-283.1,464.2-283.1,464.2z M-287.2,460.3l-0.3,0.7
		h2c0.1-0.2,0.2-0.4,0.2-0.7H-287.2z M-284.5,460.3c0,0.3-0.1,0.5-0.2,0.7h2.2v-0.7H-284.5z M-284.4,459.2c0,0.3,0,0.4-0.1,0.6h2
		v-0.6H-284.4z M-282.7,466.5l2.3,0.8c0.3,0.1,0.3,0.1,1.2,0.4c0.3,0.1,0.5,0.2,0.9,0.3l-0.3,0.7c-1.9-0.8-2.6-1-4.6-1.7
		L-282.7,466.5z M-281.8,459.8h2.1v-0.6h-2.1V459.8z"/>
	<path id="XMLID_502_" class="st5" d="M-275.5,462.5h-1.2v-1.2h1.2V462.5z M-276.6,467.7v-1.2h1.2v1.2H-276.6z"/>
	<path id="XMLID_505_" class="st5" d="M-272.7,458.6c0.3,0,0.5,0.1,1,0.1h0.8c0.4,0,0.6,0,1-0.1c-0.1,0.7-0.1,1.3-0.1,2v5.8
		c0,0.6,0,0.9,0.1,1.4h-1.1c0.1-0.4,0.1-0.8,0.1-1.4v-6.9h-0.6c-0.4,0-0.7,0-1,0.1v-1H-272.7z"/>
	<path id="XMLID_507_" class="st5" d="M-265.6,463c-0.4-0.4-0.7-1.1-0.7-2c0-1.6,0.8-2.6,2.1-2.6c1.3,0,2.1,0.9,2.1,2.6
		c0,0.9-0.2,1.6-0.7,2c-0.4,0.3-0.9,0.5-1.4,0.5C-264.7,463.6-265.2,463.4-265.6,463z M-265.4,461c0,1.2,0.5,1.8,1.3,1.8
		s1.3-0.7,1.3-1.8c0-1.2-0.5-1.8-1.3-1.8C-265,459.2-265.4,459.8-265.4,461z M-258.1,458.4l0.5,0.4l-7.3,9.2l-0.5-0.4L-258.1,458.4z
		 M-260.2,467.4c-0.4-0.4-0.7-1.1-0.7-2c0-1.6,0.8-2.6,2.1-2.6c1.3,0,2.1,0.9,2.1,2.6c0,0.9-0.2,1.6-0.7,2c-0.4,0.3-0.9,0.5-1.4,0.5
		C-259.3,467.9-259.8,467.7-260.2,467.4z M-260.1,465.3c0,1.2,0.5,1.8,1.3,1.8s1.3-0.7,1.3-1.8c0-1.2-0.5-1.8-1.3-1.8
		S-260.1,464.2-260.1,465.3z"/>
</g>
<g id="XMLID_323_" class="st4">
	<path id="XMLID_324_" class="st5" d="M8.2,431.5c-0.2-0.3-0.3-0.4-1-1.1c-0.7,0.4-1.3,0.6-2.1,0.6c-2.5,0-4.1-1.8-4.1-4.7
		c0-2.9,1.6-4.7,4.2-4.7s4.1,1.8,4.1,4.7c0,0.9-0.1,1.6-0.4,2.3c-0.2,0.5-0.4,0.8-1,1.4c0.6,0.5,0.7,0.7,1,0.9L8.2,431.5z
		 M6.2,428.3c0.2,0.2,0.4,0.4,1,1c0.4-0.4,0.5-0.6,0.7-1c0.3-0.6,0.4-1.3,0.4-2.1c0-2.4-1.2-3.9-3.1-3.9c-1.9,0-3.2,1.5-3.2,3.9
		c0,2.4,1.3,3.9,3.2,3.9c0.5,0,1-0.1,1.4-0.4c-0.4-0.4-0.6-0.6-1-0.9L6.2,428.3z"/>
	<path id="XMLID_327_" class="st5" d="M11.9,429.6v1.2h-1.2v-1.2H11.9z"/>
	<path id="XMLID_329_" class="st5" d="M24.3,430.8c-0.1-0.4-0.2-0.9-0.4-1.2l-0.6-1.5h-4.2l-0.6,1.5c-0.2,0.5-0.3,0.8-0.4,1.2h-1.2
		c0.2-0.4,0.3-0.6,0.6-1.4l2.7-6.6c0.2-0.6,0.3-0.8,0.4-1.1h1.2c0,0.2,0.1,0.4,0.4,1.1l2.7,6.6c0.3,0.7,0.5,1.1,0.6,1.4H24.3z
		 M21.5,423.2c0-0.1,0-0.1-0.3-0.8c-0.1,0.2-0.1,0.3-0.1,0.4c-0.1,0.2-0.1,0.3-0.1,0.4l-1.5,4h3.6L21.5,423.2z"/>
	<path id="XMLID_332_" class="st5" d="M32.7,430.8c0-0.4-0.2-0.9-0.7-2.1c-0.7-1.6-1.2-2.1-2.1-2.1h-2.2v2.8c0,0.6,0,0.9,0.1,1.4
		h-1.1c0.1-0.4,0.1-0.8,0.1-1.3V423c0-0.5,0-0.9-0.1-1.4c0.4,0,0.8,0,1.3,0h2.6c1.7,0,2.7,0.8,2.7,2.3c0,0.8-0.2,1.3-0.7,1.8
		c-0.3,0.3-0.6,0.5-1.3,0.6c0.5,0.1,0.8,0.5,1.2,1.3c0.3,0.6,0.6,1.2,0.9,2c0.2,0.5,0.4,0.8,0.5,1.1L32.7,430.8L32.7,430.8z
		 M30.5,425.8c0.5,0,1-0.2,1.4-0.5c0.3-0.3,0.5-0.7,0.5-1.2c0-1-0.6-1.6-1.7-1.6h-2.9v3.3C27.8,425.8,30.5,425.8,30.5,425.8z"/>
	<path id="XMLID_335_" class="st5" d="M38.8,429.4c0,0.6,0,0.9,0.1,1.4h-1.1c0.1-0.4,0.1-0.8,0.1-1.4v-6.9H36c-0.6,0-1,0-1.4,0.1v-1
		c0.4,0.1,0.7,0.1,1.4,0.1h4.7c0.7,0,1,0,1.4-0.1v1c-0.4-0.1-0.7-0.1-1.4-0.1h-1.9V429.4z"/>
	<path id="XMLID_337_" class="st5" d="M50.6,421.7c-0.1,0.5-0.1,0.8-0.1,1.3v6.5c0,0.6,0,0.9,0.1,1.3h-1.1c0.1-0.4,0.1-0.8,0.1-1.3
		v-3h-5.4v3c0,0.6,0,0.9,0.1,1.3h-1.1c0.1-0.4,0.1-0.8,0.1-1.3V423c0-0.6,0-0.9-0.1-1.3h1.1c-0.1,0.4-0.1,0.8-0.1,1.3v2.6h5.4V423
		c0-0.6,0-0.9-0.1-1.3H50.6z"/>
	<path id="XMLID_339_" class="st5" d="M59.9,421.7c-0.1,0.4-0.1,0.8-0.1,1.4v4.4c0,1.1-0.3,1.9-0.9,2.6c-0.6,0.6-1.6,0.9-2.7,0.9
		c-1.2,0-2.1-0.3-2.7-1c-0.6-0.6-0.9-1.5-0.9-2.5V423c0-0.6,0-1-0.1-1.4h1.1c-0.1,0.4-0.1,0.7-0.1,1.4v4.4c0,1.7,1,2.7,2.7,2.7
		c0.9,0,1.7-0.3,2.1-0.8c0.4-0.5,0.6-1.1,0.6-1.9V423c0-0.6,0-1-0.1-1.4h1.1V421.7z"/>
	<path id="XMLID_341_" class="st5" d="M67.8,430.8c0-0.4-0.2-0.9-0.7-2.1c-0.7-1.6-1.2-2.1-2.1-2.1h-2.2v2.8c0,0.6,0,0.9,0.1,1.4
		h-1.1c0.1-0.4,0.1-0.8,0.1-1.3V423c0-0.5,0-0.9-0.1-1.4c0.4,0,0.8,0,1.3,0h2.6c1.7,0,2.7,0.8,2.7,2.3c0,0.8-0.2,1.3-0.7,1.8
		c-0.3,0.3-0.6,0.5-1.3,0.6c0.5,0.1,0.8,0.5,1.2,1.3c0.3,0.6,0.6,1.2,0.9,2c0.2,0.5,0.4,0.8,0.5,1.1L67.8,430.8L67.8,430.8z
		 M65.6,425.8c0.5,0,1-0.2,1.4-0.5c0.3-0.3,0.5-0.7,0.5-1.2c0-1-0.6-1.6-1.7-1.6h-2.9v3.3C62.9,425.8,65.6,425.8,65.6,425.8z"/>
	<path id="XMLID_344_" class="st5" d="M75.8,430.8c-0.6,0-0.9,0-1.3,0c0.1-0.5,0.1-0.8,0.1-1.4v-6.3c0-0.6,0-1-0.1-1.4h1.1
		c-0.1,0.4-0.1,0.8-0.1,1.4v6.8h3.8c0.6,0,0.9,0,1.4-0.1v1c-0.4-0.1-0.7-0.1-1.4-0.1L75.8,430.8L75.8,430.8z"/>
	<path id="XMLID_346_" class="st5" d="M85.1,429.4c0,0.6,0,0.9,0.1,1.4h-1.1c0.1-0.4,0.1-0.8,0.1-1.4v-6.9h-1.9c-0.6,0-1,0-1.4,0.1
		v-1c0.4,0.1,0.7,0.1,1.4,0.1H87c0.7,0,1,0,1.4-0.1v1c-0.4-0.1-0.7-0.1-1.4-0.1h-1.9L85.1,429.4L85.1,429.4z"/>
	<path id="XMLID_348_" class="st5" d="M89.6,423c0-0.5,0-0.9-0.1-1.4c0.4,0,0.7,0,1.3,0h2c2.7,0,4.2,1.6,4.2,4.5
		c0,1.5-0.5,2.7-1.3,3.6c-0.7,0.7-1.7,1.1-2.9,1.1h-2c-0.6,0-0.9,0-1.3,0c0.1-0.5,0.1-0.8,0.1-1.4V423z M92.8,429.9
		c0.9,0,1.7-0.3,2.2-0.9c0.7-0.7,1-1.7,1-2.9c0-1.2-0.3-2.2-0.9-2.8c-0.5-0.6-1.3-0.8-2.3-0.8h-2.3v7.4
		C90.5,429.9,92.8,429.9,92.8,429.9z"/>
	<path id="XMLID_351_" class="st5" d="M99.4,426.4c0-0.6,0-0.8,0-1.5c-0.3,0.6-0.5,1-1.1,1.7c-0.2-0.3-0.3-0.4-0.5-0.7
		c0.8-0.9,1.5-2.1,2-3.5c0.3-0.7,0.4-1.1,0.5-1.7l0.8,0.2c-0.1,0.2-0.1,0.3-0.2,0.7c-0.3,0.9-0.4,1.2-0.8,2.1v6.6c0,0.6,0,1,0.1,1.4
		h-0.9c0-0.5,0.1-0.8,0.1-1.4L99.4,426.4L99.4,426.4z M104.5,424.1c0-0.2,0-0.3,0-0.4c0-0.2,0-0.3,0-0.3s0-0.1,0-0.3v-0.2h-2.3
		c-0.5,0-0.8,0-1.1,0.1v-0.8c0.3,0,0.7,0.1,1.2,0.1h2.2c0-0.1,0-0.1,0-0.2c0-0.5,0-0.8-0.1-1.2h0.9c0,0.3-0.1,0.6-0.1,1.4h2.5
		c0.5,0,0.9,0,1.2-0.1v0.8c-0.3,0-0.6-0.1-1.1-0.1h-2.6c0,0.1,0,0.1,0,0.3c0,0,0,0.2,0,0.4c0,0.1,0,0.2,0,0.4h2c0.5,0,0.8,0,1.1,0
		c0,0.3,0,0.6,0,0.9v1.4c0,0.5,0,0.7,0,1c-0.3,0-0.6,0-1.2,0H105c-0.1,0.9-0.3,1.5-0.7,2c1.2,0.9,2.7,1.4,4.7,1.6
		c-0.2,0.2-0.3,0.5-0.4,0.8c-2-0.3-3.5-0.9-4.8-1.8c-0.7,0.8-1.5,1.3-3,1.9c-0.2-0.3-0.3-0.5-0.5-0.7c1.4-0.5,2.3-0.9,2.9-1.6
		c-0.4-0.3-0.5-0.5-0.9-0.9c-0.1-0.2-0.3-0.3-0.4-0.4l0.7-0.4c0.2,0.3,0.5,0.7,1,1.2c0.2-0.4,0.4-0.9,0.5-1.6h-1.8
		c-0.4,0-0.7,0-1.1,0c0-0.3,0-0.5,0-0.8V425c0-0.4,0-0.6,0-0.8c0.3,0,0.5,0,1.1,0h2.2V424.1z M104.4,426.6c0-0.5,0-0.6,0.1-1.9h-2.2
		v1.9H104.4z M107.5,426.6v-1.9h-2.3c0,0.6,0,1.1-0.1,1.9H107.5z"/>
	<path id="XMLID_356_" class="st5" d="M112,427.8c-0.2,1.8-0.5,2.8-1.3,3.9c-0.3-0.3-0.4-0.3-0.7-0.5c0.5-0.7,0.8-1.2,1-2
		c0.3-1.1,0.4-2.9,0.4-5.9c0-1.1,0-1.4,0-1.9c0.4,0,0.7,0,1.3,0h6.5c0.6,0,0.9,0,1.3,0c0,0.3,0,0.6,0,1.2v8c0,0.8-0.3,0.9-1.4,0.9
		c-0.4,0-0.9,0-1.5-0.1c0-0.3-0.1-0.5-0.2-0.8c0.7,0.1,1.3,0.1,1.7,0.1c0.6,0,0.6-0.1,0.6-0.4v-2.7h-3.5v2.4c0,0.6,0,1,0.1,1.3h-0.9
		c0-0.3,0.1-0.7,0.1-1.3v-2.3L112,427.8L112,427.8z M112.1,424.9c0,0.3,0,0.6,0,0.8c0,0.8,0,0.8,0,1.3h3.2v-2.1
		C115.3,424.9,112.1,424.9,112.1,424.9z M115.3,422.1h-3.2v1.4v0.7h3.2V422.1z M119.6,424.2v-2.1h-3.5v2.1H119.6z M116.1,427.1h3.5
		V425h-3.5V427.1z"/>
	<path id="XMLID_362_" class="st5" d="M123.7,428.4c0.6-0.2,1.2-0.5,1.5-0.7v-5.5c0-0.5,0-0.9-0.1-1.2h0.9c0,0.4-0.1,0.7-0.1,1.2
		v8.3c0,0.6,0,0.9,0.1,1.2h-0.9c0-0.4,0.1-0.7,0.1-1.2v-1.9c-0.2,0.1-0.3,0.2-0.7,0.3c-0.5,0.2-0.6,0.3-1.1,0.5
		c-0.3,0.1-0.3,0.1-0.6,0.3l-0.3-0.7c0.3-0.2,0.4-0.3,0.4-0.6v-4.9c0-0.5,0-0.9-0.1-1.2h0.9c0,0.4-0.1,0.7-0.1,1.2L123.7,428.4
		L123.7,428.4z M131.6,423.7c-0.1,1.2-0.1,1.4-0.3,2.2c-0.3,1.1-0.6,1.9-1,2.7c0.8,1,1.8,1.8,3.1,2.5c-0.2,0.2-0.4,0.4-0.6,0.7
		c-1.3-0.8-2.1-1.5-3-2.6c-0.7,0.9-1.7,1.8-3,2.6c-0.3-0.4-0.4-0.6-0.6-0.7c1.5-0.7,2.4-1.5,3.1-2.6c-0.7-1-1.2-2.1-1.6-3.4
		c-0.4,0.7-0.5,0.9-1,1.6c-0.2-0.3-0.3-0.4-0.6-0.6c0.7-0.9,1.2-1.8,1.6-2.9c0.3-0.9,0.5-1.7,0.5-2.4l0.9,0.2
		c-0.1,0.2-0.1,0.2-0.4,1.5c0,0.1-0.1,0.3-0.2,0.6h3.2c0.5,0,0.8,0,1.1-0.1v0.8c-0.3,0-0.6-0.1-1.1-0.1H131.6z M128.3,423.7
		c-0.1,0.2-0.1,0.3-0.2,0.5c0.3,1,0.4,1.2,0.7,1.8c0.3,0.7,0.5,1.1,1,1.8c0.7-1.2,1-2.5,1.1-4.1
		C130.9,423.7,128.3,423.7,128.3,423.7z"/>
	<path id="XMLID_366_" class="st5" d="M139.4,427.1c0.5,0,0.8,0,1.1-0.1v0.8c-0.3,0-0.6-0.1-1.1-0.1h-1.5v2c1.1-0.2,1.7-0.4,2.7-0.6
		v0.7c-1.8,0.5-2.9,0.7-4.5,1c-1,0.2-1,0.2-1.6,0.3l-0.2-0.9c0.4,0,0.8,0,1.7-0.2c0.2,0,0.5-0.1,0.7-0.1s0.3,0,0.5-0.1v-2.2h-1.3
		c-0.4,0-0.8,0-1.1,0.1V427c0.3,0,0.7,0.1,1.1,0.1h1.3v-0.5c0-0.4,0-0.7-0.1-1h0.9c0,0.3-0.1,0.6-0.1,1v0.5H139.4z M134.7,424.8
		c0.3,0,0.4-0.1,0.5-0.3c0.5-0.6,1-1.4,1.5-2.3h-1c-0.5,0-0.9,0-1.2,0.1v-0.8c0.3,0,0.7,0.1,1.2,0.1h3.8c0.6,0,0.9,0,1.3-0.1v0.8
		c-0.3,0-0.7-0.1-1.2-0.1h-2.1c-0.1,0.1-0.1,0.1-0.2,0.4c-0.4,0.7-0.9,1.6-1.4,2.2c1.7-0.1,2.9-0.2,3.5-0.3c-0.3-0.4-0.6-0.8-1-1.3
		l0.6-0.3c0.9,1,1.2,1.5,1.9,2.6l-0.6,0.4c-0.3-0.5-0.4-0.7-0.5-0.8c-0.6,0.1-0.8,0.1-1.6,0.2c-0.3,0-0.8,0.1-1.3,0.1
		c-0.6,0.1-1.1,0.1-1.3,0.1c-0.4,0-0.5,0-0.7,0.1L134.7,424.8z M142.2,421.8c0,0.3-0.1,0.6-0.1,1.3v4.7c0,0.8,0,1,0,1.3h-0.8
		c0-0.3,0.1-0.6,0.1-1.3v-4.7c0-0.7,0-1-0.1-1.3C141.3,421.8,142.2,421.8,142.2,421.8z M144.7,421.1c0,0.3-0.1,0.8-0.1,1.5v7.9
		c0,0.9-0.3,1.1-1.4,1.1c-0.4,0-0.8,0-1.3-0.1c0-0.3-0.1-0.5-0.2-0.8c0.6,0.1,1,0.2,1.5,0.2s0.6,0,0.6-0.4v-8c0-0.6,0-1.1-0.1-1.4
		C143.7,421.1,144.7,421.1,144.7,421.1z"/>
	<path id="XMLID_371_" class="st5" d="M149.5,422.7c0.6,0,0.9,0,1.1,0c0,0.3,0,0.6,0,1.1v6.1c0,0.5,0,0.9,0.1,1.2h-0.8v-0.8h-2.3
		v1.1h-0.8c0-0.3,0.1-0.8,0.1-1.5v-6.1c0-0.6,0-0.8,0-1.1c0.3,0,0.5,0,1.1,0h0.2c0.2-0.6,0.4-1.2,0.5-1.8l0.9,0.2
		c-0.2,0.6-0.4,1.2-0.6,1.6C149,422.7,149.5,422.7,149.5,422.7z M147.5,426.1h2.3v-2.7h-2.3V426.1z M147.5,429.7h2.3v-2.9h-2.3
		V429.7z M155.7,422.7c0.5,0,0.8,0,1.1,0c0,0.2,0,0.3,0,0.8c-0.1,4.8-0.3,6.4-0.7,7.3c-0.2,0.6-0.6,0.8-1.3,0.8
		c-0.4,0-0.8,0-1.5-0.1c0-0.3-0.1-0.6-0.2-0.9c0.7,0.1,1.3,0.2,1.7,0.2s0.6-0.1,0.8-0.5c0.2-0.6,0.4-1.7,0.4-3.3
		c0.1-1,0.1-1.8,0.1-3.5h-3.5c-0.4,0.8-0.8,1.4-1.4,2.2c-0.2-0.2-0.4-0.4-0.6-0.5c0.7-0.8,1.3-1.8,1.8-3c0.2-0.5,0.3-0.9,0.3-1.2
		l0.8,0.2c0,0.1-0.1,0.2-0.2,0.5c-0.1,0.4-0.3,0.7-0.5,1.2h2.9V422.7z M153.8,428.4c-0.7-1.4-1.1-2.2-1.8-3l0.6-0.4
		c0.8,0.9,1.3,1.7,1.9,3L153.8,428.4z"/>
	<path id="XMLID_377_" class="st5" d="M159.8,427.7c-0.2,2.1-0.4,3.1-1,4.1c-0.2-0.3-0.4-0.4-0.6-0.6c0.4-0.6,0.6-1.1,0.7-1.9
		c0.2-1.2,0.3-3,0.3-5.9c0-1.2,0-1.7-0.1-2.1c0.4,0,0.6,0.1,1.1,0.1h1.1c0.4,0,0.6,0,0.9-0.1c0,0.3,0,0.6,0,1.2v8.1c0,0.7-0.2,1-1,1
		c-0.3,0-0.5,0-0.9,0c0-0.3,0-0.5-0.2-0.8c0.3,0.1,0.7,0.1,0.9,0.1c0.4,0,0.4,0,0.4-0.4v-2.9h-1.6V427.7z M159.9,424.8
		c0,0.4,0,0.7,0,0.9c0,0.8,0,1,0,1.3h1.6v-2.1h-1.6V424.8z M161.4,424.2V422h-1.5v1.7v0.4h1.5V424.2z M166.3,421.3c0.5,0,0.7,0,1,0
		c0,0.3,0,0.6,0,1.1v1.7c0,0.2,0.2,0.3,0.8,0.3c0.4,0,0.8,0,1.1-0.1v0.7c-0.5,0-0.8,0.1-1.1,0.1c-1.2,0-1.5-0.1-1.5-0.7V422h-2
		c0,1-0.2,1.7-0.5,2.3c-0.3,0.6-0.6,1-1.1,1.3c-0.2-0.3-0.4-0.4-0.7-0.5c0.6-0.3,1-0.7,1.2-1.3c0.2-0.4,0.3-1.1,0.3-1.8
		c0-0.3,0-0.5-0.1-0.7c0.4,0,0.7,0,1,0C164.7,421.3,166.3,421.3,166.3,421.3z M168.3,426.4c-0.1,0.2-0.1,0.3-0.3,0.5
		c-0.4,0.9-1,1.7-1.7,2.4c0.9,0.8,1.8,1.3,3,1.7c-0.2,0.3-0.3,0.4-0.5,0.7c-1.3-0.5-2.2-1.1-3.1-1.9c-1.1,0.9-1.6,1.3-3,2
		c-0.1-0.3-0.2-0.4-0.5-0.7c1.2-0.5,2-0.9,3-1.8c-0.4-0.4-0.6-0.7-0.9-1.2c-0.3-0.5-0.3-0.6-0.8-1.5c-0.3,0-0.6,0-0.9,0.1v-0.8
		c0.3,0,0.6,0.1,1.1,0.1h3.2c0.4,0,0.7,0,0.9,0L168.3,426.4z M164.4,426.6c0.5,1.1,0.8,1.5,1.5,2.2c0.7-0.8,1.1-1.3,1.5-2.2H164.4z"
		/>
	<path id="XMLID_384_" class="st5" d="M170.3,430.8c0.7-0.8,1-1.4,1.5-2.4l0.7,0.3c-0.4,1.2-0.8,1.8-1.5,2.6L170.3,430.8z M178,422
		c0.7,0,1,0,1.4,0c0,0.3,0,0.7,0,1.3v3.1c0,0.7,0,1,0,1.3c-0.3,0-0.7,0-1.3,0h-4.9c-0.6,0-1,0-1.4,0c0-0.3,0-0.5,0-1.3v-3.1
		c0-0.6,0-1,0-1.3c0.4,0,0.7,0,1.4,0h1.4c0.2-0.4,0.4-0.8,0.6-1.2l0.8,0.2c-0.3,0.6-0.3,0.6-0.6,1.1h2.6V422z M172.6,423.6h6v-1h-6
		V423.6z M172.6,425.3h6v-1h-6V425.3z M172.6,427h6v-1.1h-6V427z M174,430.3c0,0.5,0.1,0.5,1.6,0.5c1.3,0,1.8-0.1,1.9-0.2
		c0.1-0.1,0.2-0.5,0.3-1.3c0.3,0.2,0.5,0.2,0.7,0.3c-0.1,0.9-0.2,1.3-0.4,1.5c-0.3,0.3-1,0.4-2.6,0.4c-1.1,0-1.6,0-1.9-0.2
		c-0.3-0.1-0.4-0.3-0.4-0.9v-1.2c0-0.5,0-0.7-0.1-1.1h0.9c-0.1,0.3-0.1,0.6-0.1,1.1L174,430.3L174,430.3z M176.4,429.9
		c-0.5-0.7-0.9-1.1-1.6-1.6l0.6-0.4c0.6,0.5,1,0.9,1.6,1.5L176.4,429.9z M180.3,431.2c-0.5-1-0.9-1.7-1.6-2.6l0.6-0.3
		c0.7,0.9,1.1,1.5,1.7,2.5L180.3,431.2z"/>
	<path id="XMLID_393_" class="st5" d="M46.5,440.6c0.6,0,1,0,1.3-0.1v0.8c-0.3,0-0.7-0.1-1.3-0.1h-5.2c-0.4,0.8-1.1,1.9-1.6,2.6v4.6
		c0,0.5,0,0.9,0.1,1.2h-0.9c0-0.3,0.1-0.7,0.1-1.2v-3.7c-0.5,0.6-0.8,0.8-1.4,1.3c-0.2-0.3-0.3-0.4-0.6-0.6c0.8-0.6,1.3-1.1,1.9-1.8
		c0-0.3,0-0.5-0.1-0.8h0.7c0.4-0.6,0.6-0.8,1-1.6h-1.9c-0.6,0-1,0-1.3,0.1v-0.8c0.3,0,0.7,0.1,1.3,0.1h2.2c0.3-0.8,0.5-1.3,0.6-1.8
		l0.9,0.2c-0.1,0.1-0.1,0.2-0.2,0.5c-0.1,0.3-0.3,0.8-0.5,1.1H46.5z M46.1,444.4c0.6,0,0.9,0,1.1-0.1v0.8c-0.3,0-0.6,0-1.1,0h-1.9
		v3.4h2.4c0.6,0,0.9,0,1.2-0.1v0.8c-0.5,0-0.8-0.1-1.2-0.1h-5.2c-0.5,0-0.9,0-1.2,0.1v-0.8c0.4,0,0.7,0.1,1.2,0.1h2V445h-1.6
		c-0.5,0-0.8,0-1.2,0v-0.8c0.3,0,0.6,0.1,1.2,0.1h1.6v-1c0-0.6,0-1-0.1-1.3h0.9c0,0.3-0.1,0.6-0.1,1.3v1h2V444.4z"/>
	<path id="XMLID_396_" class="st5" d="M53.7,439.5c-0.1,0.1-0.1,0.2-0.3,0.6c-0.9,1.8-2.1,3.2-3.8,4.5c-0.2-0.3-0.3-0.5-0.6-0.7
		c1.4-1,2.4-1.9,3.1-3.2c0.4-0.7,0.6-1.2,0.7-1.6L53.7,439.5z M50.1,448.3c0.3,0,0.4-0.1,0.6-0.2c0.6-0.7,1.5-2.1,2.1-3.2
		c0.4-0.8,0.7-1.3,0.9-1.8c0.2-0.4,0.2-0.4,0.2-0.5l0.9,0.3c-0.1,0.1-0.1,0.2-0.2,0.4c-0.4,0.7-1,1.9-1.5,2.7s-0.6,0.9-1.7,2.3
		c2.9-0.1,4.8-0.3,6.1-0.5c-0.1-0.1-0.1-0.1-0.4-0.6c-0.3-0.5-0.8-1.2-1.5-2l0.6-0.4c1.2,1.5,2.2,2.9,3,4.4l-0.7,0.5
		c-0.3-0.6-0.4-0.8-0.6-1.2c-1.5,0.2-3.7,0.4-6.9,0.6c-0.2,0-0.6,0-0.6,0.1L50.1,448.3z M56.2,439c0.2,0.7,0.7,1.6,1.4,2.5
		s1.5,1.6,2.7,2.5c-0.3,0.3-0.4,0.4-0.6,0.7c-2-1.6-2.9-2.7-4.1-5c-0.1-0.2-0.1-0.2-0.2-0.3L56.2,439z"/>
	<path id="XMLID_400_" class="st5" d="M68.8,443.7h1.7c0.5,0,0.9,0,1.2-0.1v0.9c-0.3,0-0.7-0.1-1.2-0.1h-1.7v3.6c0,0.6,0,1,0.1,1.4
		h-1C68,449,68,448.6,68,448v-3.6h-2.9c0,1.2-0.3,2.1-0.7,2.8c-0.5,0.9-1.2,1.5-2.5,2.2c-0.2-0.3-0.3-0.5-0.6-0.7
		c2.2-1,2.9-2.1,3-4.4h-1.7c-0.5,0-0.9,0-1.2,0.1v-0.9c0.3,0,0.7,0.1,1.2,0.1h1.7c0-0.1,0-0.1,0-0.2v-2.9h-1.2c-0.5,0-0.9,0-1.2,0.1
		v-0.9c0.3,0,0.7,0.1,1.2,0.1h6.8c0.5,0,0.9,0,1.2-0.1v0.9c-0.3,0-0.7-0.1-1.2-0.1h-1.2v3.2H68.8z M65.2,440.6v2.9
		c0,0.1,0,0.1,0,0.2h2.9v-3.1C68.1,440.6,65.2,440.6,65.2,440.6z"/>
	<path id="XMLID_403_" class="st5" d="M78.8,448.4c0,0.5,0,0.9,0.1,1.3H78c0.1-0.5,0.1-0.8,0.1-1.3v-4.8h-2.8v3.6
		c0,0.6,0,0.9,0.1,1.3h-0.9c0-0.4,0.1-0.8,0.1-1.3v-3.4c0-0.4,0-0.7,0-1c0.3,0,0.7,0,1.2,0h2.5v-1.7h-3.4c-0.6,0-1,0-1.3,0.1v-0.9
		c0.4,0.1,0.8,0.1,1.3,0.1h3.6c0,0,0,0,0-0.1c-0.3-0.5-0.5-0.9-0.8-1.3l0.7-0.3c0.5,0.8,0.5,0.8,1,1.7H83c0.6,0,1,0,1.4-0.1v0.9
		c-0.3,0-0.7-0.1-1.4-0.1h-3.8v1.9H82c0.5,0,0.8,0,1.1,0c0,0.3,0,0.6,0,1v3.5c0,0.8-0.2,1-1.2,1c-0.5,0-0.7,0-1.2,0
		c0-0.3-0.1-0.5-0.2-0.8c0.6,0.1,1,0.1,1.4,0.1s0.5-0.1,0.5-0.3v-3.6h-3.1v4.5H78.8z"/>
	<path id="XMLID_405_" class="st5" d="M86.7,440.3c0-0.6,0-1-0.1-1.3h0.9c0,0.4-0.1,0.7-0.1,1.3v1.7h0.3c0.5,0,0.7,0,1,0v0.8
		c-0.3,0-0.7,0-1,0h-0.3v3.7c0.3-0.1,0.4-0.2,1.1-0.6v0.8c-1.3,0.6-2,0.9-2.8,1.2c-0.2,0.1-0.6,0.2-0.6,0.3l-0.2-0.9
		c0.1,0,0.1,0,0.3,0s0.3-0.1,1.4-0.5v-4h-0.5c-0.4,0-0.7,0-1,0.1v-0.8c0.3,0,0.6,0.1,1,0.1h0.5L86.7,440.3L86.7,440.3z M92.2,443.3
		c-0.2,0.4-0.4,0.9-0.8,1.3c-0.6,0.8-1.1,1.4-2.2,2.2c-0.2-0.3-0.3-0.3-0.6-0.5c0.9-0.5,1.5-1.1,2.1-1.8c0.4-0.4,0.6-0.9,0.7-1.2
		h-0.7c-0.3,0-1,0-1.3,0.1l-0.2-0.7c0.5-0.1,0.7-0.2,1.3-0.6c1.2-0.7,1.3-0.8,2.8-2h-3c-0.5,0-0.8,0-1.2,0.1v-0.8
		c0.3,0,0.7,0.1,1.2,0.1h3c0.4,0,0.6,0,0.8,0l0.5,0.6c-0.1,0.1-0.1,0.1-0.4,0.3c0,0-0.3,0.3-0.9,0.7c-0.5,0.4-1.6,1.2-2.5,1.8h3.6
		c0.6,0,0.9,0,1.2,0c0,0.3-0.1,0.7-0.1,1.5c0,1.1-0.2,2.7-0.3,3.6c-0.2,1.1-0.4,1.6-0.9,1.8c-0.3,0.1-0.5,0.2-1.1,0.2
		c-0.4,0-0.7,0-1.1,0v-0.1c0-0.3-0.1-0.6-0.2-0.9c0.5,0.1,0.9,0.2,1.3,0.2c0.7,0,0.9-0.1,1.1-0.6c0.3-0.8,0.5-2.5,0.5-5h-0.6
		c-0.5,1.4-0.6,1.6-1,2.5c-0.6,1.2-1.2,1.8-2.1,2.7c-0.4,0.4-0.5,0.5-1.6,1.1c-0.1-0.1-0.1-0.1-0.3-0.3c-0.1-0.1-0.1-0.2-0.3-0.3
		c1.1-0.5,1.8-1,2.4-1.7c0.7-0.8,1.4-1.9,1.8-3.1c0.1-0.2,0.1-0.4,0.3-0.8h-1.2V443.3z"/>
	<path id="XMLID_408_" class="st5" d="M105.7,442.8c0.5,0,0.9,0,1.2-0.1v0.9c-0.4,0-0.7-0.1-1.2-0.1h-3v4.9h3.9c0.6,0,0.9,0,1.3-0.1
		v0.9c-0.5-0.1-0.8-0.1-1.3-0.1h-8c-0.5,0-1,0-1.4,0.1v-0.9c0.4,0,0.8,0.1,1.4,0.1h3.2v-8.1c0-0.5,0-0.8-0.1-1.2h1
		c-0.1,0.4-0.1,0.8-0.1,1.2v2.5C102.6,442.8,105.7,442.8,105.7,442.8z"/>
	<path id="XMLID_410_" class="st5" d="M111.8,440.9c0,0.4,0,0.9,0,1.5v2.1c0,1.8-0.2,2.8-0.6,3.6c-0.4,0.6-0.8,1.1-1.6,1.7
		c-0.2-0.3-0.3-0.3-0.6-0.6c0.9-0.6,1.3-1,1.7-1.7c0.3-0.6,0.5-1.6,0.5-3.1v-2.1c0-0.9,0-1.1-0.1-1.5h0.7V440.9z M109.6,446.9
		c0-0.3,0-0.6,0-1.1v-5.4c0-0.5,0-0.8,0-1.1c0.3,0,0.5,0,1,0h1.8c0.4,0,0.7,0,0.9,0c0,0.3,0,0.7,0,1.1v5.3c0,0.5,0,0.8,0,1.1h-0.8
		c0-0.3,0-0.6,0-1.1V440h-2.3v5.8c0,0.5,0,0.8,0,1.1C110.2,446.9,109.6,446.9,109.6,446.9z M113,449.4c-0.3-0.7-0.6-1.2-1.2-1.9
		l0.6-0.4c0.4,0.5,0.9,1.3,1.2,1.8L113,449.4z M115.2,441.4c-0.3,0.7-0.7,1.4-1.3,2.1c-0.2-0.2-0.3-0.3-0.6-0.5
		c0.7-0.7,1.2-1.6,1.5-2.7c0.2-0.6,0.3-1,0.3-1.4l0.8,0.2c0,0.1-0.1,0.3-0.2,0.6c-0.1,0.4-0.2,0.6-0.3,1h3.3c0.5,0,0.7,0,1.1,0
		c0,0.3,0,0.4,0,0.9c0,2.9-0.2,4.9-0.4,6.3c-0.1,0.8-0.3,1.2-0.6,1.4c-0.2,0.2-0.6,0.2-1.2,0.2c-0.3,0-0.8,0-1.4-0.1
		c0-0.3-0.1-0.5-0.2-0.8c0.6,0.1,1.2,0.2,1.7,0.2s0.6-0.1,0.7-0.3c0.3-0.8,0.6-3.5,0.6-7.1C119,441.4,115.2,441.4,115.2,441.4z
		 M117.7,447.4c-0.1-0.5-0.1-0.6-0.2-0.9c0,0,0,0-0.1,0c-0.5,0.1-1,0.2-1.6,0.3c-0.5,0.1-1.2,0.2-1.6,0.3l-0.1-0.7
		c0.3-0.1,0.5-0.2,0.6-0.6c0.1-0.3,0.5-1.6,0.7-2.2c0.1-0.5,0.2-0.8,0.2-1.3l0.8,0.2c-0.1,0.2-0.1,0.2-0.6,2
		c-0.2,0.6-0.2,0.7-0.6,1.8c0.3-0.1,0.3-0.1,1.2-0.2c0.3,0,0.7-0.1,1-0.2c-0.2-0.6-0.4-1-0.7-1.7l0.6-0.3c0.5,1.1,0.8,1.8,1.2,3.2
		L117.7,447.4z"/>
	<path id="XMLID_416_" class="st5" d="M130.5,445.4c0.7,0,1,0,1.3-0.1v0.9c-0.4,0-0.8-0.1-1.3-0.1h-3.4c-0.4,1.2-1,1.9-2.4,2.6
		c-0.9,0.4-1.7,0.7-3.1,1c-0.1-0.3-0.3-0.6-0.5-0.8c1.6-0.2,2.5-0.5,3.6-1.1c0.9-0.5,1.3-1,1.6-1.7h-3.7c-0.6,0-1,0-1.3,0.1v-0.9
		c0.3,0,0.7,0.1,1.3,0.1h3.9c0.1-0.7,0.3-2.1,0.3-3.2c0-0.5,0-0.9-0.1-1.1h1c0,0.3-0.1,0.6-0.1,1.1c0,1-0.1,2.2-0.3,3.2H130.5z
		 M121.8,439.5c0.3,0,0.7,0.1,1.3,0.1h7c0.7,0,0.8,0,1.1-0.1l0.4,0.4c-0.1,0.1-0.1,0.1-0.2,0.6c-0.2,0.6-0.6,1.4-1,2.1
		c-0.3-0.2-0.4-0.3-0.8-0.3c0.4-0.6,0.7-1.2,1-2h-7.5c-0.6,0-1,0-1.3,0.1V439.5z M124.8,444.7c-1-0.6-1.7-0.8-2.8-1.2l0.5-0.6
		c1.2,0.4,1.9,0.7,2.7,1.2L124.8,444.7z M125.6,442.9c-1-0.6-1.5-0.9-2.6-1.2l0.5-0.6c1,0.3,1.6,0.6,2.6,1.2L125.6,442.9z
		 M127.4,446.9c1.8,0.7,3,1.3,4.6,2.1l-0.5,0.7c-1.4-0.9-2.7-1.5-4.5-2.2L127.4,446.9z"/>
	<path id="XMLID_422_" class="st5" d="M140.5,449.5c-0.2-0.3-0.3-0.4-1-1.1c-0.7,0.4-1.3,0.6-2.1,0.6c-2.5,0-4.1-1.8-4.1-4.7
		c0-2.9,1.6-4.8,4.2-4.8s4.1,1.8,4.1,4.7c0,0.9-0.1,1.6-0.4,2.3c-0.2,0.5-0.4,0.8-1,1.4c0.6,0.5,0.7,0.7,1,0.9L140.5,449.5z
		 M138.5,446.3c0.2,0.2,0.4,0.4,1,1c0.4-0.4,0.5-0.6,0.7-1c0.3-0.6,0.4-1.3,0.4-2.1c0-2.4-1.2-3.9-3.1-3.9c-1.9,0-3.2,1.5-3.2,3.9
		c0,2.4,1.3,3.9,3.2,3.9c0.5,0,1-0.1,1.4-0.4c-0.4-0.4-0.6-0.6-1-0.9L138.5,446.3z"/>
	<path id="XMLID_425_" class="st5" d="M144.1,447.6v1.2h-1.2v-1.2H144.1z"/>
	<path id="XMLID_427_" class="st5" d="M149.3,447.4c0,0.6,0,0.9,0.1,1.4h-1.1c0.1-0.4,0.1-0.8,0.1-1.4v-6.9h-1.9c-0.6,0-1,0-1.4,0.1
		v-1c0.4,0.1,0.7,0.1,1.4,0.1h4.7c0.7,0,1,0,1.4-0.1v1c-0.4-0.1-0.7-0.1-1.4-0.1h-1.9L149.3,447.4L149.3,447.4z"/>
	<path id="XMLID_429_" class="st5" d="M153.3,445.6c0-2.1,1.2-3.4,3.2-3.4s3.2,1.3,3.2,3.4s-1.2,3.4-3.2,3.4
		C154.6,448.9,153.3,447.6,153.3,445.6z M154.2,445.5c0,1.6,0.9,2.6,2.3,2.6s2.3-1,2.3-2.6s-0.9-2.6-2.2-2.6
		C155.1,442.9,154.2,443.9,154.2,445.5z"/>
	<path id="XMLID_432_" class="st5" d="M162.2,439.7c-0.1,0.4-0.1,0.7-0.1,1.4v4.3l2.2-2.1c0.5-0.5,0.7-0.7,0.9-0.9h1.4
		c-0.2,0.2-0.2,0.2-0.5,0.4c-0.1,0.1-0.3,0.2-0.4,0.4c-0.1,0.1-0.2,0.2-0.2,0.2l-1.7,1.5l2,2.6c0.7,0.9,0.8,1,1,1.3h-1.4
		c-0.1-0.3-0.2-0.3-0.8-1.1l-1.6-2.2l-1,1v1c0,0.5,0,0.9,0.1,1.3H161c0.1-0.4,0.1-0.8,0.1-1.4V441c0-0.6,0-0.9-0.1-1.4h1.2V439.7z"
		/>
	<path id="XMLID_434_" class="st5" d="M168.6,445.7c0,0.8,0.2,1.2,0.5,1.7c0.4,0.5,1,0.8,1.7,0.8c1,0,1.6-0.5,2-1.4l0.8,0.3
		c-0.2,0.5-0.4,0.7-0.7,1c-0.6,0.6-1.3,0.8-2.2,0.8c-1.9,0-3.1-1.3-3.1-3.4s1.2-3.4,3-3.4c1.5,0,2.7,1,2.9,2.6
		c0,0.1,0.1,0.6,0.1,0.9h-5V445.7z M172.7,444.9c-0.1-0.7-0.3-1.1-0.6-1.5c-0.4-0.4-0.8-0.5-1.4-0.5c-0.7,0-1.3,0.4-1.7,1
		c-0.2,0.3-0.2,0.5-0.3,1H172.7z"/>
	<path id="XMLID_437_" class="st5" d="M175.1,448.8c0.1-0.5,0.1-0.8,0.1-1.4v-3.8c0-0.5,0-0.9-0.1-1.4h1v0.8c0,0.1,0,0.2,0,0.5
		c0.6-1,1.3-1.5,2.4-1.5c0.9,0,1.5,0.3,1.9,0.9c0.2,0.3,0.3,0.8,0.3,1.4v3c0,0.6,0,0.9,0.1,1.3h-1.1c0.1-0.5,0.1-0.8,0.1-1.4v-2.8
		c0-1.1-0.5-1.7-1.5-1.7c-0.7,0-1.2,0.3-1.7,0.9c-0.3,0.4-0.5,0.7-0.6,1.2v2.3c0,0.5,0,0.9,0.1,1.4h-1V448.8z"/>
	<path id="XMLID_439_" class="st5" d="M81.6,467.8c-0.9-1-1.3-1.6-1.7-2.6s-0.6-1.9-0.6-3c0-1,0.2-2,0.6-3c0.4-1,0.8-1.5,1.7-2.6
		h1.1c-1,1-1.4,1.6-1.8,2.5c-0.4,1-0.6,2-0.6,3c0,1.1,0.2,2.1,0.6,3c0.4,0.9,0.8,1.5,1.8,2.5h-1.1V467.8z"/>
	<path id="XMLID_441_" class="st5" d="M84.8,466.1c-0.3-0.3-0.6-0.7-0.7-1.1c-0.3-0.8-0.5-1.8-0.5-2.8c0-1.3,0.3-2.6,0.7-3.3
		c0.6-1,1.5-1.5,2.7-1.5c0.9,0,1.7,0.3,2.2,0.9c0.3,0.3,0.6,0.7,0.7,1.1c0.3,0.8,0.5,1.8,0.5,2.8c0,1.5-0.3,2.7-0.8,3.5
		c-0.6,0.8-1.4,1.3-2.5,1.3C86.1,467,85.4,466.7,84.8,466.1z M85.5,458.9c-0.3,0.3-0.4,0.6-0.5,0.9c-0.3,0.7-0.4,1.5-0.4,2.4
		c0,1.1,0.2,2.3,0.6,2.9c0.4,0.7,1,1,1.9,1c0.6,0,1.1-0.2,1.5-0.6c0.3-0.3,0.5-0.6,0.6-0.9c0.3-0.7,0.4-1.5,0.4-2.4
		c0-1-0.2-2.2-0.5-2.8c-0.4-0.7-1-1.1-1.9-1.1C86.4,458.3,85.9,458.5,85.5,458.9z"/>
	<path id="XMLID_444_" class="st5" d="M93,465.6v1.2h-1.2v-1.2H93z"/>
	<path id="XMLID_446_" class="st5" d="M95.8,457.6c0.3,0,0.5,0.1,1,0.1h0.8c0.4,0,0.6,0,1-0.1c-0.1,0.7-0.1,1.3-0.1,2v5.8
		c0,0.6,0,0.9,0.1,1.4h-1.1c0.1-0.4,0.1-0.8,0.1-1.4v-6.9H97c-0.4,0-0.7,0-1,0.1v-1H95.8z"/>
	<path id="XMLID_448_" class="st5" d="M103.9,461.1c0,0.2,0,0.2-0.1,0.5c0.6-0.6,1.3-0.8,2.1-0.8c0.9,0,1.6,0.3,2.2,0.8
		c0.5,0.5,0.8,1.2,0.8,2.1c0,1.9-1.3,3.2-3.2,3.2c-0.9,0-1.7-0.3-2.3-0.8c-0.3-0.3-0.5-0.6-0.8-1.1l1-0.3c0.1,0.3,0.2,0.5,0.4,0.7
		c0.4,0.5,1,0.7,1.7,0.7c1.3,0,2.2-0.9,2.2-2.3c0-1.3-0.8-2.2-2.1-2.2c-0.6,0-1.1,0.2-1.6,0.5c-0.3,0.2-0.4,0.4-0.6,0.7l-0.9-0.1
		c0.1-0.5,0.1-0.7,0.2-1.2l0.3-2.7c0-0.3,0-0.5,0-0.7c0-0.2,0-0.2,0-0.5c0.4,0,0.6,0.1,1.3,0.1h2.5c0.6,0,0.9,0,1.4-0.1v1
		c-0.5-0.1-0.8-0.1-1.4-0.1h-2.8L103.9,461.1z"/>
	<path id="XMLID_450_" class="st5" d="M111.5,462.1c-0.4-0.4-0.7-1.1-0.7-2c0-1.6,0.8-2.6,2.1-2.6s2.1,0.9,2.1,2.6
		c0,0.9-0.2,1.6-0.7,2c-0.4,0.3-0.9,0.5-1.4,0.5C112.4,462.7,111.9,462.5,111.5,462.1z M111.7,460.1c0,1.2,0.5,1.8,1.3,1.8
		s1.3-0.7,1.3-1.8c0-1.2-0.5-1.8-1.3-1.8C112.1,458.3,111.7,459,111.7,460.1z M119,457.5l0.5,0.4l-7.3,9.2l-0.5-0.4L119,457.5z
		 M116.9,466.5c-0.4-0.4-0.7-1.1-0.7-2c0-1.6,0.8-2.6,2.1-2.6s2.1,0.9,2.1,2.6c0,0.9-0.2,1.6-0.7,2c-0.4,0.3-0.9,0.5-1.4,0.5
		C117.7,467,117.2,466.8,116.9,466.5z M117,464.5c0,1.2,0.5,1.8,1.3,1.8s1.3-0.7,1.3-1.8c0-1.2-0.5-1.8-1.3-1.8
		C117.5,462.6,117,463.3,117,464.5z"/>
	<path id="XMLID_456_" class="st5" d="M129.9,462c-1,1.7-1.1,1.8-1.8,2.6c0.5,0.4,1,0.8,1.5,1.1c0.9,0.6,2,1,3.3,1.3
		c-0.2,0.3-0.3,0.4-0.4,0.8c-1.4-0.4-2.4-0.8-3.4-1.5c-0.6-0.4-1-0.7-1.5-1.2c-0.5,0.4-1,0.8-1.6,1.2c-1,0.6-1.9,1.1-3.2,1.4
		c-0.1-0.3-0.2-0.5-0.4-0.7c1.2-0.3,1.9-0.6,3-1.2c0.7-0.4,1.1-0.7,1.7-1.3c-0.8-0.9-0.9-1.1-1.8-2.6l0.7-0.4c0.1,0.4,0.3,0.6,0.5,1
		c0.4,0.6,0.8,1.2,1.1,1.5c0.4-0.4,0.6-0.7,1.1-1.5c0.2-0.3,0.3-0.5,0.4-0.9L129.9,462z M131.5,458.4c0.6,0,1,0,1.4-0.1v0.9
		c-0.3,0-0.7-0.1-1.4-0.1h-7.7c-0.7,0-1,0-1.3,0.1v-0.9c0.3,0.1,0.8,0.1,1.3,0.1h3.5c-0.3-0.5-0.7-0.9-1-1.3l0.6-0.4
		c0.6,0.6,0.9,1,1.3,1.6h3.3V458.4z M126.3,459.9c-0.6,0.9-0.9,1.3-1.6,2c-0.6,0.5-1,0.9-1.6,1.3c-0.2-0.2-0.3-0.4-0.6-0.6
		c0.7-0.4,1.2-0.8,1.7-1.3s0.9-0.9,1.3-1.7L126.3,459.9z M129.2,459.5c1.2,1,2.2,1.9,3.3,3.1l-0.6,0.6c-1-1.1-2-2.1-3.3-3.2
		L129.2,459.5z"/>
	<path id="XMLID_461_" class="st5" d="M142.4,463.3c-0.4,0.8-0.6,1.2-1,1.7c-0.6,0.8-1.5,1.6-2.5,2.2c-0.3,0.2-0.6,0.3-1.1,0.6
		c-0.2-0.2-0.3-0.4-0.6-0.6c1-0.4,1.5-0.7,2.1-1.1c1.1-0.8,1.8-1.6,2.3-2.7h-1.7c-0.4,0.6-0.6,0.8-1,1.2c-0.9,0.9-1.8,1.4-3.3,2
		c-0.1-0.3-0.2-0.4-0.5-0.6c2-0.7,3.1-1.5,3.9-2.6h-1.8c-0.7,0.6-1.3,1-2.4,1.5c-0.2-0.3-0.3-0.4-0.5-0.6c1.2-0.4,1.9-0.9,2.7-1.5
		c0.4-0.3,0.6-0.6,0.9-1h-0.6c-0.6,0-0.9,0-1.3,0c0-0.3,0-0.6,0-1v-2.4c0-0.4,0-0.7,0-1c0.4,0,0.8,0,1.4,0h4.7c0.6,0,0.9,0,1.3,0
		c0,0.3,0,0.5,0,1v2.4c0,0.5,0,0.7,0,1c-0.4,0-0.8,0-1.3,0h-3.3c-0.3,0.4-0.5,0.7-0.8,1.1h5.4c0.5,0,0.8,0,1,0c0,0.2,0,0.2-0.1,1.3
		c-0.1,1.1-0.3,2.4-0.4,2.9c-0.1,0.4-0.3,0.6-0.5,0.8c-0.2,0.1-0.5,0.2-1,0.2s-0.8,0-1.2-0.1c0-0.3,0-0.5-0.2-0.8
		c0.5,0.1,0.9,0.1,1.3,0.1c0.6,0,0.8-0.1,0.9-0.7c0.2-0.6,0.3-1.6,0.4-3h-1.2V463.3z M136.7,459.1h5.8v-1.2h-5.8V459.1z M136.7,461
		h5.8v-1.2h-5.8V461z"/>
	<path id="XMLID_465_" class="st5" d="M147.5,462.6c0-0.7,0-1.2,0-1.8c-0.3,0.7-0.6,1.2-1.1,1.8c-0.1-0.3-0.3-0.5-0.5-0.7
		c0.9-1,1.5-2.2,2.1-3.5c0.2-0.6,0.4-1.2,0.4-1.5l0.8,0.3c-0.1,0.2-0.1,0.3-0.2,0.6c-0.2,0.7-0.4,1.2-0.8,2v6.6c0,0.7,0,1.1,0,1.5
		h-0.9c0-0.4,0.1-0.8,0.1-1.5v-3.8H147.5z M150.5,463.8c-0.1,1.6-0.5,2.8-1.3,3.9c-0.3-0.3-0.4-0.3-0.7-0.5c1.1-1.5,1.3-2.6,1.3-7.6
		c0-1.5,0-1.7,0-2.2c0.4,0,0.7,0,1.3,0h4.2c0.6,0,0.9,0,1.3,0c0,0.3,0,0.6,0,1.2v8c0,0.7-0.3,0.9-1.4,0.9c-0.3,0-0.6,0-0.9-0.1
		c0-0.3,0-0.4-0.1-0.8c0.5,0.1,0.8,0.1,1.2,0.1s0.5-0.1,0.5-0.4v-2.7h-2.3v2.4c0,0.6,0,1,0.1,1.3h-0.9c0-0.3,0.1-0.7,0.1-1.3v-2.3
		L150.5,463.8L150.5,463.8z M152.8,460.9h-2.1c0,0.3,0,0.6,0,0.8c0,0.8,0,0.9,0,1.3h2.2v-2.1H152.8z M150.7,458.1v1.4v0.7h2.1v-2.1
		C152.8,458.1,150.7,458.1,150.7,458.1z M153.5,460.2h2.3v-2.1h-2.3V460.2z M155.8,463.1V461h-2.3v2.1H155.8z"/>
	<path id="XMLID_472_" class="st5" d="M164,457.2c0.6,0.8,1,1.1,1.7,1.7c0.9,0.8,2.3,1.5,3.5,1.9c-0.2,0.3-0.3,0.5-0.4,0.8
		c-0.9-0.4-1.4-0.7-2.2-1.2v0.7c-0.3,0-0.6-0.1-1.1-0.1H164v1.6h3.2c0.5,0,0.8,0,1.2-0.1v0.8c-0.3,0-0.7-0.1-1.2-0.1H164v3.2h3.5
		c0.5,0,0.9,0,1.3-0.1v0.9c-0.4-0.1-0.8-0.1-1.3-0.1h-7.6c-0.5,0-0.9,0-1.4,0.1v-0.9c0.4,0,0.8,0.1,1.4,0.1h3.3v-3.2h-3
		c-0.5,0-0.8,0-1.2,0.1v-0.8c0.3,0,0.7,0.1,1.2,0.1h3V461h-1.3c-0.5,0-0.8,0-1.1,0.1v-0.8c-0.5,0.3-0.5,0.3-2.1,1.2
		c-0.1-0.2-0.2-0.3-0.2-0.3s0-0.1-0.1-0.2c0,0-0.1-0.1-0.2-0.2c1.2-0.5,2.1-1,2.9-1.6c1-0.8,1.8-1.6,2.4-2.7l0.7,0.4L164,457.2z
		 M160.8,463.8c0.4,0.7,0.7,1.3,1,2.2l-0.7,0.3c-0.3-0.8-0.6-1.5-1-2.1L160.8,463.8z M165.4,460.4c0.4,0,0.7,0,1,0
		c-1.1-0.7-2.1-1.6-2.8-2.6c-0.8,1-1.8,1.9-2.8,2.6c0,0,0,0,0.1,0c0.2,0,0.5,0,1,0H165.4z M167.1,464.1c-0.6,1.1-0.8,1.5-1.3,2.2
		l-0.7-0.3c0.5-0.7,0.9-1.3,1.2-2.3L167.1,464.1z"/>
	<path id="XMLID_477_" class="st5" d="M170.1,467.8c1-1,1.4-1.6,1.8-2.5c0.4-1,0.6-2,0.6-3c0-1.1-0.2-2.1-0.6-3
		c-0.4-0.9-0.8-1.5-1.8-2.5h1.1c0.9,1,1.3,1.6,1.7,2.6s0.6,1.9,0.6,3c0,1-0.2,2-0.6,3c-0.4,1-0.8,1.5-1.7,2.6h-1.1V467.8z"/>
</g>
<g id="XMLID_263_">
	<path id="XMLID_264_" class="st3" d="M-163.4,653.7c-0.3-0.3-0.4-0.5-1.2-1.3c-0.8,0.5-1.5,0.7-2.5,0.7c-2.9,0-4.8-2.2-4.8-5.5
		c0-3.4,1.9-5.5,4.8-5.5s4.8,2.2,4.8,5.5c0,1-0.2,1.9-0.5,2.7c-0.3,0.6-0.5,1-1.1,1.6c0.6,0.6,0.8,0.8,1.2,1.1L-163.4,653.7z
		 M-165.8,649.9c0.2,0.3,0.4,0.5,1.1,1.2c0.4-0.5,0.6-0.7,0.8-1.1c0.3-0.7,0.4-1.5,0.4-2.5c0-2.8-1.4-4.5-3.7-4.5
		c-2.3,0-3.7,1.8-3.7,4.6c0,2.8,1.5,4.6,3.8,4.6c0.6,0,1.1-0.1,1.7-0.4c-0.5-0.5-0.7-0.7-1.1-1L-165.8,649.9z"/>
	<path id="XMLID_267_" class="st3" d="M-159.3,651.5v1.4h-1.4v-1.4H-159.3z"/>
	<path id="XMLID_269_" class="st3" d="M-144.7,652.9c-0.1-0.5-0.3-1-0.4-1.4l-0.7-1.8h-4.9l-0.7,1.8c-0.2,0.5-0.3,0.9-0.4,1.4h-1.5
		c0.3-0.5,0.4-0.7,0.8-1.6l3.1-7.7c0.3-0.7,0.4-1,0.4-1.3h1.4c0.1,0.3,0.1,0.4,0.5,1.3l3.1,7.7c0.3,0.8,0.5,1.2,0.7,1.6H-144.7z
		 M-148.1,644c0-0.1,0-0.1-0.3-0.9c-0.1,0.2-0.1,0.4-0.2,0.5c-0.1,0.2-0.1,0.4-0.2,0.4l-1.8,4.6h4.2L-148.1,644z"/>
	<path id="XMLID_272_" class="st3" d="M-134.8,652.9c0-0.4-0.2-1-0.8-2.4c-0.8-1.9-1.4-2.5-2.5-2.5h-2.6v3.3c0,0.7,0,1.1,0.1,1.6
		h-1.3c0.1-0.5,0.1-0.9,0.1-1.6v-7.5c0-0.6,0-1-0.1-1.6c0.5,0,0.9,0,1.5,0h3.1c2,0,3.2,1,3.2,2.7c0,0.9-0.3,1.6-0.8,2.1
		c-0.4,0.4-0.8,0.5-1.5,0.7c0.6,0.2,0.9,0.5,1.4,1.5c0.3,0.7,0.7,1.4,1.1,2.4c0.2,0.5,0.4,1,0.6,1.3H-134.8z M-137.4,647
		c0.6,0,1.2-0.2,1.6-0.6c0.4-0.3,0.5-0.8,0.5-1.4c0-1.2-0.7-1.8-2-1.8h-3.4v3.9L-137.4,647L-137.4,647z"/>
	<path id="XMLID_275_" class="st3" d="M-127.8,651.3c0,0.7,0,1.1,0.1,1.6h-1.3c0.1-0.4,0.1-0.9,0.1-1.6v-8.1h-2.1
		c-0.7,0-1.1,0-1.6,0.1v-1.2c0.5,0.1,0.9,0.1,1.6,0.1h5.5c0.8,0,1.2,0,1.7-0.1v1.2c-0.5-0.1-0.9-0.1-1.7-0.1h-2.2L-127.8,651.3
		L-127.8,651.3z"/>
	<path id="XMLID_277_" class="st3" d="M-113.9,642.2c-0.1,0.5-0.1,0.9-0.1,1.5v7.5c0,0.7,0,1,0.1,1.6h-1.3c0.1-0.5,0.1-0.9,0.1-1.6
		v-3.5h-6.3v3.5c0,0.7,0,1.1,0.1,1.6h-1.3c0.1-0.5,0.1-0.9,0.1-1.6v-7.5c0-0.7,0-1.1-0.1-1.6h1.3c-0.1,0.5-0.1,0.9-0.1,1.5v3h6.3v-3
		c0-0.7,0-1.1-0.1-1.6h1.3V642.2z"/>
	<path id="XMLID_279_" class="st3" d="M-103.2,642.2c-0.1,0.5-0.1,0.9-0.1,1.6v5.2c0,1.2-0.4,2.3-1.1,3s-1.8,1.1-3.2,1.1
		c-1.4,0-2.5-0.4-3.2-1.1s-1-1.7-1-3v-5.2c0-0.7,0-1.1-0.1-1.6h1.3c-0.1,0.4-0.1,0.9-0.1,1.6v5.1c0,2,1.1,3.2,3.2,3.2
		c1.1,0,1.9-0.3,2.5-0.9c0.4-0.5,0.7-1.3,0.7-2.2v-5.1c0-0.7,0-1.1-0.1-1.6L-103.2,642.2L-103.2,642.2z"/>
	<path id="XMLID_281_" class="st3" d="M-93.9,652.9c0-0.4-0.2-1-0.8-2.4c-0.8-1.9-1.4-2.5-2.5-2.5h-2.6v3.3c0,0.7,0,1.1,0.1,1.6
		h-1.3c0.1-0.5,0.1-0.9,0.1-1.6v-7.5c0-0.6,0-1-0.1-1.6c0.5,0,0.9,0,1.5,0h3.1c2,0,3.2,1,3.2,2.7c0,0.9-0.3,1.6-0.8,2.1
		c-0.4,0.4-0.8,0.5-1.5,0.7c0.6,0.2,0.9,0.5,1.4,1.5c0.3,0.7,0.7,1.4,1.1,2.4c0.2,0.5,0.4,1,0.6,1.3H-93.9z M-96.6,647
		c0.6,0,1.2-0.2,1.6-0.6c0.4-0.3,0.5-0.8,0.5-1.4c0-1.2-0.7-1.8-2-1.8h-3.4v3.9L-96.6,647L-96.6,647z"/>
	<path id="XMLID_284_" class="st3" d="M-84.7,652.9c-0.6,0-1,0-1.5,0c0.1-0.5,0.1-1,0.1-1.7v-7.4c0-0.7,0-1.2-0.1-1.7h1.3
		c-0.1,0.5-0.1,0.9-0.1,1.7v8h4.4c0.7,0,1.1,0,1.6-0.1v1.2c-0.4-0.1-0.8-0.1-1.6-0.1h-4.1V652.9z"/>
	<path id="XMLID_286_" class="st3" d="M-73.8,651.3c0,0.7,0,1.1,0.1,1.6h-1.3c0.1-0.4,0.1-0.9,0.1-1.6v-8.1h-2.2
		c-0.7,0-1.1,0-1.6,0.1v-1.2c0.5,0.1,0.9,0.1,1.6,0.1h5.5c0.8,0,1.2,0,1.7-0.1v1.2c-0.5-0.1-0.9-0.1-1.7-0.1h-2.2V651.3z"/>
	<path id="XMLID_288_" class="st3" d="M-68.6,643.8c0-0.6,0-1-0.1-1.6c0.5,0,0.9,0,1.5,0h2.4c3.1,0,4.9,1.9,4.9,5.3
		c0,1.8-0.5,3.2-1.5,4.1c-0.8,0.8-2,1.2-3.4,1.2h-2.4c-0.7,0-1.1,0-1.5,0c0.1-0.5,0.1-1,0.1-1.7V643.8z M-64.8,651.9
		c1.1,0,2-0.3,2.6-1c0.8-0.8,1.2-2,1.2-3.4c0-1.5-0.4-2.6-1.1-3.3c-0.6-0.6-1.5-1-2.6-1h-2.7v8.7H-64.8z"/>
</g>
<g id="XMLID_51_">
	<path id="XMLID_57_" class="st3" d="M108.4,524.5v-0.9H97.5v0.9h-1.1c0.1-0.5,0.1-1,0.1-1.9v-9.9c0-0.8,0-1.4-0.1-2
		c0.6,0.1,1,0.1,1.9,0.1h9.4c0.8,0,1.3,0,1.9-0.1c-0.1,0.6-0.1,1.1-0.1,2v9.9c0,0.9,0,1.5,0.1,1.9H108.4z M97.5,522.6h10.9v-10.9
		H97.5V522.6z M104.3,514.2c0.8,0,1.2,0,1.7-0.1c0,0.3-0.1,0.7-0.1,1.2v3.5c0,0.6,0,0.8,0.1,1.2c-0.5,0-0.9-0.1-1.7-0.1h-2.8
		c-0.9,0-1.2,0-1.7,0.1c0-0.4,0.1-0.7,0.1-1.2v-3.5c0-0.5,0-0.8-0.1-1.2c0.4,0,0.9,0.1,1.7,0.1H104.3z M100.9,519.1h4V515h-4V519.1z
		"/>
	<path id="XMLID_91_" class="st3" d="M115.3,512.6c0,0.5-0.1,1.2-0.1,2v2.8c0,2.4-0.2,3.7-0.8,4.8c-0.5,0.9-1,1.5-2.1,2.3
		c-0.3-0.4-0.4-0.4-0.8-0.8c1.2-0.8,1.8-1.4,2.2-2.2c0.4-0.9,0.6-2.2,0.6-4.1v-2.8c0-1.2,0-1.5-0.1-2.1L115.3,512.6L115.3,512.6z
		 M112.3,520.6c0-0.4,0-0.9,0-1.4V512c0-0.6,0-1.1-0.1-1.5c0.4,0,0.7,0,1.4,0h2.4c0.5,0,0.9,0,1.2-0.1c0,0.4,0,0.9,0,1.5v7.1
		c0,0.7,0,1.1,0.1,1.5h-1.1c0-0.4,0.1-0.9,0.1-1.5v-7.7h-3v7.7c0,0.6,0,1,0,1.4h-1V520.6z M116.8,524c-0.4-0.9-0.9-1.6-1.6-2.6
		l0.8-0.5c0.5,0.6,1.2,1.7,1.7,2.4L116.8,524z M119.8,513.3c-0.4,0.9-1,1.9-1.7,2.7c-0.2-0.3-0.4-0.4-0.8-0.7c0.9-1,1.5-2.1,2-3.5
		c0.3-0.8,0.4-1.4,0.5-1.9l1.1,0.3c-0.1,0.2-0.1,0.4-0.3,0.8c-0.2,0.6-0.2,0.8-0.5,1.3h4.4c0.6,0,1,0,1.4-0.1c0,0.4-0.1,0.6-0.1,1.2
		c-0.1,3.8-0.2,6.6-0.6,8.4c-0.2,1-0.4,1.6-0.8,1.9c-0.3,0.2-0.8,0.3-1.6,0.3c-0.4,0-1,0-1.9-0.1c0-0.4-0.1-0.7-0.3-1.1
		c0.8,0.1,1.6,0.2,2.2,0.2c0.7,0,0.8-0.1,1-0.4c0.5-1.1,0.8-4.7,0.8-9.5h-4.8V513.3z M123.2,521.3c-0.1-0.6-0.2-0.8-0.3-1.3
		c-0.1,0-0.1,0-0.1,0c-0.7,0.2-1.3,0.3-2.1,0.4c-0.6,0.1-1.5,0.3-2.2,0.4l-0.2-0.9c0.4-0.1,0.6-0.3,0.8-0.8c0.2-0.4,0.7-2.1,0.9-3
		c0.2-0.7,0.2-1,0.3-1.7l1.1,0.2c-0.1,0.2-0.1,0.2-0.7,2.6c-0.2,0.8-0.3,1-0.8,2.4c0.4-0.1,0.4-0.1,1.5-0.3c0.3,0,1-0.2,1.3-0.3
		c-0.3-0.8-0.5-1.4-0.9-2.2l0.8-0.4c0.7,1.5,1.1,2.4,1.6,4.2L123.2,521.3z"/>
</g>
<g id="XMLID_152_">
	<path id="XMLID_153_" class="st3" d="M-355.6,508.1c-0.3-0.3-0.4-0.5-1.2-1.3c-0.8,0.5-1.5,0.7-2.5,0.7c-2.9,0-4.8-2.2-4.8-5.5
		c0-3.4,1.9-5.5,4.8-5.5c2.9,0,4.8,2.2,4.8,5.5c0,1-0.2,1.9-0.5,2.7c-0.3,0.6-0.5,1-1.1,1.6c0.6,0.6,0.8,0.8,1.2,1.1L-355.6,508.1z
		 M-357.9,504.3c0.2,0.3,0.4,0.5,1.1,1.2c0.4-0.5,0.6-0.7,0.8-1.1c0.3-0.7,0.4-1.5,0.4-2.5c0-2.8-1.4-4.5-3.7-4.5s-3.7,1.8-3.7,4.6
		s1.5,4.6,3.8,4.6c0.6,0,1.1-0.1,1.7-0.4c-0.5-0.5-0.7-0.7-1.1-1L-357.9,504.3z"/>
	<path id="XMLID_156_" class="st3" d="M-351.3,505.8v1.4h-1.4v-1.4H-351.3z"/>
	<path id="XMLID_158_" class="st3" d="M-336.8,507.2c-0.1-0.5-0.3-1-0.4-1.4l-0.8-1.8h-4.9l-0.7,1.8c-0.2,0.5-0.3,0.9-0.4,1.4h-1.5
		c0.3-0.5,0.4-0.7,0.8-1.6l3.1-7.7c0.3-0.7,0.4-1,0.4-1.3h1.4c0.1,0.3,0.1,0.4,0.5,1.3l3.1,7.7c0.3,0.8,0.5,1.2,0.7,1.6
		C-335.5,507.2-336.8,507.2-336.8,507.2z M-340.1,498.4c0-0.1,0-0.1-0.3-0.9c-0.1,0.2-0.1,0.4-0.2,0.5c-0.1,0.2-0.1,0.4-0.2,0.4
		l-1.8,4.6h4.2L-340.1,498.4z"/>
	<path id="XMLID_161_" class="st3" d="M-327,507.2c0-0.4-0.2-1-0.8-2.4c-0.8-1.9-1.4-2.5-2.5-2.5h-2.6v3.3c0,0.7,0,1.1,0.1,1.6h-1.3
		c0.1-0.5,0.1-0.9,0.1-1.6v-7.5c0-0.6,0-1.1-0.1-1.6c0.5,0,0.9,0,1.5,0h3.1c2,0,3.2,1,3.2,2.7c0,0.9-0.3,1.6-0.8,2.1
		c-0.4,0.4-0.8,0.5-1.5,0.7c0.6,0.2,0.9,0.5,1.4,1.5c0.3,0.7,0.7,1.4,1.1,2.4c0.2,0.5,0.4,1,0.6,1.3H-327z M-329.6,501.4
		c0.6,0,1.2-0.2,1.6-0.6c0.4-0.4,0.5-0.8,0.5-1.4c0-1.2-0.7-1.8-2-1.8h-3.4v3.9h3.3V501.4z"/>
	<path id="XMLID_164_" class="st3" d="M-319.9,505.6c0,0.7,0,1.1,0.1,1.6h-1.3c0.1-0.4,0.1-0.9,0.1-1.6v-8.1h-2.2
		c-0.7,0-1.1,0-1.6,0.1v-1.2c0.5,0.1,0.9,0.1,1.6,0.1h5.5c0.8,0,1.2,0,1.7-0.1v1.2c-0.5-0.1-0.9-0.1-1.7-0.1h-2.2L-319.9,505.6
		L-319.9,505.6z"/>
	<path id="XMLID_166_" class="st3" d="M-306.1,496.6c-0.1,0.5-0.1,0.9-0.1,1.5v7.5c0,0.7,0,1,0.1,1.6h-1.3c0.1-0.5,0.1-0.9,0.1-1.6
		v-3.5h-6.3v3.5c0,0.7,0,1.1,0.1,1.6h-1.3c0.1-0.5,0.1-0.9,0.1-1.6v-7.5c0-0.7,0-1.1-0.1-1.6h1.3c-0.1,0.5-0.1,0.9-0.1,1.5v3h6.3v-3
		c0-0.7,0-1.1-0.1-1.6h1.3V496.6z"/>
	<path id="XMLID_168_" class="st3" d="M-295.3,496.6c-0.1,0.5-0.1,0.9-0.1,1.6v5.2c0,1.2-0.4,2.3-1.1,3s-1.8,1.1-3.2,1.1
		c-1.4,0-2.5-0.4-3.2-1.1s-1-1.7-1-3v-5.2c0-0.7,0-1.1-0.1-1.6h1.3c-0.1,0.4-0.1,0.9-0.1,1.6v5.1c0,2,1.1,3.2,3.2,3.2
		c1.1,0,1.9-0.3,2.5-0.9c0.4-0.5,0.7-1.3,0.7-2.2v-5.1c0-0.7,0-1.1-0.1-1.6h1.2V496.6z"/>
	<path id="XMLID_170_" class="st3" d="M-286.1,507.2c0-0.4-0.2-1-0.8-2.4c-0.8-1.9-1.4-2.5-2.5-2.5h-2.6v3.3c0,0.7,0,1.1,0.1,1.6
		h-1.3c0.1-0.5,0.1-0.9,0.1-1.6v-7.5c0-0.6,0-1.1-0.1-1.6c0.5,0,0.9,0,1.5,0h3.1c2,0,3.2,1,3.2,2.7c0,0.9-0.3,1.6-0.8,2.1
		c-0.4,0.4-0.8,0.5-1.5,0.7c0.6,0.2,0.9,0.5,1.4,1.5c0.3,0.7,0.7,1.4,1.1,2.4c0.2,0.5,0.4,1,0.6,1.3H-286.1z M-288.6,501.4
		c0.6,0,1.2-0.2,1.6-0.6c0.4-0.4,0.5-0.8,0.5-1.4c0-1.2-0.7-1.8-2-1.8h-3.5v3.9h3.4V501.4z"/>
	<path id="XMLID_173_" class="st3" d="M-361.1,523.6c0,0.8,0,1.1,0.1,1.6h-1.3c0.1-0.5,0.1-0.9,0.1-1.6v-7.5c0-0.6,0-1.1-0.1-1.6
		c0.5,0,0.9,0,1.5,0h3.7c0.7,0,1.1,0,1.6-0.1v1.2c-0.5-0.1-0.9-0.1-1.6-0.1h-4v3.6h3.3c0.7,0,1.1,0,1.6-0.1v1.2
		c-0.5-0.1-0.9-0.1-1.6-0.1h-3.3V523.6z"/>
	<path id="XMLID_175_" class="st3" d="M-344.6,519.9c0,3.4-1.9,5.5-4.8,5.5c-3,0-4.8-2.2-4.8-5.5c0-3.4,1.9-5.5,4.8-5.5
		C-346.5,514.4-344.6,516.5-344.6,519.9z M-347,523.5c0.8-0.8,1.2-2.1,1.2-3.6s-0.4-2.8-1.2-3.6c-0.6-0.6-1.5-1-2.5-1
		c-2.2,0-3.7,1.8-3.7,4.5s1.5,4.6,3.7,4.6C-348.4,524.4-347.6,524.1-347,523.5z"/>
	<path id="XMLID_178_" class="st3" d="M-334.1,514.6c-0.1,0.5-0.1,0.9-0.1,1.6v5.2c0,1.2-0.4,2.3-1.1,3c-0.7,0.7-1.8,1.1-3.2,1.1
		c-1.4,0-2.5-0.4-3.2-1.1c-0.7-0.7-1-1.7-1-3v-5.2c0-0.7,0-1.1-0.1-1.6h1.3c-0.1,0.4-0.1,0.9-0.1,1.6v5.1c0,2,1.1,3.2,3.2,3.2
		c1.1,0,1.9-0.3,2.5-0.9c0.4-0.5,0.7-1.3,0.7-2.2v-5.1c0-0.7,0-1.1-0.1-1.6h1.2V514.6z"/>
	<path id="XMLID_180_" class="st3" d="M-330.5,514.6c0.1,0.3,0.3,0.6,0.7,1.3l4.4,6.6c0.2,0.2,0.6,0.9,0.9,1.5
		c-0.1-1.1-0.1-1.7-0.1-1.9v-5.9c0-0.7,0-1.1-0.1-1.6h1.3c-0.1,0.5-0.1,0.9-0.1,1.6v7.5c0,0.7,0,1.1,0.1,1.6h-1.5
		c-0.2-0.4-0.4-0.7-0.7-1.3l-4.5-6.8c-0.1-0.2-0.6-1-0.8-1.3c0.1,0.7,0.1,1.3,0.1,1.7v6c0,0.7,0,1.2,0.1,1.7h-1.3
		c0.1-0.4,0.1-0.9,0.1-1.7v-7.4c0-0.6,0-1.1-0.1-1.6H-330.5L-330.5,514.6z"/>
	<path id="XMLID_182_" class="st3" d="M-321,516.1c0-0.6,0-1-0.1-1.6c0.5,0,0.9,0,1.5,0h2.4c3.1,0,4.9,1.9,4.9,5.3
		c0,1.8-0.5,3.2-1.5,4.1c-0.8,0.8-2,1.2-3.4,1.2h-2.4c-0.7,0-1,0-1.5,0c0.1-0.5,0.1-1,0.1-1.7V516.1z M-317.3,524.2
		c1.1,0,2-0.3,2.6-1c0.8-0.8,1.2-2,1.2-3.4c0-1.5-0.4-2.6-1.1-3.3c-0.6-0.6-1.5-1-2.6-1h-2.7v8.7
		C-319.9,524.2-317.3,524.2-317.3,524.2z"/>
	<path id="XMLID_185_" class="st3" d="M-304.3,525.2c-0.6,0-1,0-1.5,0c0.1-0.5,0.1-1,0.1-1.7v-7.4c0-0.7,0-1.2-0.1-1.7h1.3
		c-0.1,0.5-0.1,0.9-0.1,1.7v8h4.4c0.7,0,1.1,0,1.6-0.1v1.2c-0.4-0.1-0.8-0.1-1.6-0.1h-4.1V525.2z"/>
	<path id="XMLID_187_" class="st3" d="M-295.9,525.2c-0.6,0-1,0-1.5,0c0.1-0.5,0.1-1,0.1-1.7v-7.4c0-0.7,0-1.2-0.1-1.7h1.3
		c-0.1,0.5-0.1,0.9-0.1,1.7v8h4.4c0.7,0,1.1,0,1.6-0.1v1.2c-0.4-0.1-0.8-0.1-1.6-0.1h-4.1V525.2z"/>
	<path id="XMLID_189_" class="st3" d="M-289,525.2c0.1-0.5,0.1-0.9,0.1-1.6v-7.5c0-0.6,0-1-0.1-1.6c0.5,0,0.9,0,1.5,0h2.9
		c2.2,0,3.4,1.1,3.4,3.1c0,2.1-1.3,3.2-3.4,3.2h-3.1v2.8c0,0.7,0,1.1,0.1,1.6H-289z M-284.7,519.9c1.5,0,2.3-0.8,2.3-2.2
		c0-1.4-0.8-2.1-2.3-2.1h-3.1v4.4L-284.7,519.9L-284.7,519.9z"/>
	<path id="XMLID_192_" class="st3" d="M-388.4,540.1c-0.8-0.9-1.1-1.3-1.4-2.1s-0.5-1.6-0.5-2.5s0.2-1.7,0.5-2.5s0.6-1.3,1.4-2.1
		h0.9c-0.8,0.8-1.2,1.3-1.5,2.1c-0.4,0.8-0.5,1.6-0.5,2.5s0.2,1.7,0.5,2.5s0.7,1.2,1.5,2.1H-388.4z"/>
	<path id="XMLID_194_" class="st3" d="M-382.6,531.7c0-0.4,0-0.6-0.1-0.9h0.8c0,0.3-0.1,0.5-0.1,0.9v0.1h3c0.5,0,0.8,0,1-0.1v0.7
		c-0.3,0-0.6-0.1-1-0.1h-3v1.3h2.4c0.4,0,0.7,0,0.9,0c0,0.3,0,0.5,0,0.9v1.8c0,0.5,0,0.7,0,1h-0.7v-0.7h-5.6c-0.1,1-0.3,1.5-0.6,2.2
		c-0.2,0.4-0.2,0.4-0.8,1.2c-0.3-0.3-0.3-0.3-0.6-0.5c0.6-0.7,0.7-0.8,0.9-1.4c0.3-0.8,0.4-1.6,0.4-3.3c0-0.6,0-0.9,0-1.2
		c0.3,0,0.5,0,1,0h1.9v-1.9H-382.6z M-379.3,536.1v-1.8h-5.5v0.6c0,0.5,0,0.9,0,1.1L-379.3,536.1L-379.3,536.1z"/>
	<path id="XMLID_197_" class="st3" d="M-375.7,536.4c-0.4,0-0.6,0-0.9,0.1v-0.6c0.3,0,0.4,0,0.9,0h1v-0.3c0-0.3,0-0.5,0-0.7h0.7
		c0,0.2,0,0.4,0,0.6v0.4h0.7c0.4,0,0.6,0,0.9,0v0.6c-0.3,0-0.5,0-0.8,0h-0.8v0.2c0.6,0.5,0.9,0.7,1.5,1.3l-0.4,0.4
		c-0.3-0.4-0.7-0.8-1.1-1.2v1.9c0,0.4,0,0.7,0.1,0.9h-0.7c0-0.3,0.1-0.5,0.1-0.9v-1.2c0-0.3,0-0.7,0-0.9c-0.3,0.5-0.5,0.9-0.9,1.3
		c-0.2,0.3-0.4,0.5-0.9,0.9c-0.2-0.2-0.3-0.3-0.4-0.5c0.5-0.4,0.9-0.7,1.3-1.2c0.3-0.3,0.4-0.5,0.7-1.1H-375.7z M-369.1,532
		c0.5,0,0.8,0,1-0.1v0.7c-0.3,0-0.6-0.1-1-0.1h-2.5c0.5,0.5,1,0.8,1.6,1.1c0.7,0.3,1.5,0.6,2.2,0.8c-0.2,0.2-0.3,0.3-0.4,0.6
		c-1.8-0.6-2.8-1.2-3.8-2.2c0,0.3,0,0.5,0,0.7v0.9c0,0.4,0,0.7,0,0.9h-0.7c0-0.2,0-0.5,0-0.9v-0.9c0-0.1,0-0.4,0-0.7
		c-0.9,0.9-1.9,1.5-3.6,2.2c-0.1-0.2-0.1-0.3-0.3-0.5c1.7-0.5,2.8-1.1,3.6-1.9h-2.3c-0.4,0-0.7,0-1,0.1V532c0.3,0,0.6,0.1,1,0.1h2.6
		v-0.2c0-0.3,0-0.6-0.1-0.8h0.7c0,0.2-0.1,0.4-0.1,0.8v0.2L-369.1,532L-369.1,532z M-371.2,536.4c-0.5,0-0.6,0-0.8,0v-0.6
		c0.2,0,0.4,0,0.9,0h0.7v-0.3c0-0.3,0-0.5,0-0.7h0.7c0,0.2,0,0.3,0,0.6v0.4h1.3c0.4,0,0.6,0,0.9,0v0.6c-0.2,0-0.4-0.1-0.9-0.1h-1.2
		c0.3,0.5,0.6,0.8,1,1.2c0.5,0.5,0.7,0.6,1.4,1c-0.2,0.2-0.3,0.3-0.4,0.6c-1-0.8-1.5-1.3-2.2-2.3c0,0.2,0,0.5,0,0.9v1.2
		c0,0.5,0,0.7,0.1,0.9h-0.7c0-0.2,0.1-0.5,0.1-0.9v-1.2c0-0.6,0-0.6,0-0.9c-0.5,1-1,1.5-2.1,2.3c-0.1-0.2-0.2-0.3-0.4-0.5
		c1.2-0.7,1.8-1.3,2.4-2.3h-0.8V536.4z"/>
	<path id="XMLID_201_" class="st3" d="M-365.5,534.6c0-0.4,0-0.7,0-1.1c-0.3,0.5-0.5,0.7-1,1.1c-0.1-0.2-0.2-0.3-0.4-0.5
		c0.8-0.6,1.4-1.4,1.8-2.2c0.1-0.3,0.3-0.6,0.3-0.9l0.6,0.3c0,0.1-0.1,0.1-0.1,0.2c-0.3,0.5-0.5,0.9-0.7,1.4v3.1
		c0,0.4,0,0.7,0.1,0.9h-0.7c0-0.2,0.1-0.5,0.1-0.9L-365.5,534.6L-365.5,534.6z M-361.8,539.1h3c0.6,0,0.8,0,1.1,0v0.7
		c-0.3,0-0.7-0.1-1.1-0.1h-6.5c-0.4,0-0.8,0-1.1,0.1v-0.7c0.2,0,0.5,0,1.1,0h2.9V538h-2c-0.5,0-0.8,0-1.1,0v-0.7
		c0.3,0,0.5,0.1,1.1,0.1h2v-0.1c0-0.4,0-0.5-0.1-0.8h0.7c-0.1,0.2-0.1,0.4-0.1,0.8v0.1h2.2c0.5,0,0.8,0,1.1-0.1v0.7
		c-0.3,0-0.6,0-1.1,0h-2.2v1.1H-361.8z M-360.7,534h2c0.5,0,0.7,0,1-0.1v0.6c-0.3,0-0.6,0-1,0h-1.7c0,0,0,0,0.1,0.1
		c0.8,0.6,1.6,1.1,2.8,1.4c-0.2,0.2-0.2,0.3-0.3,0.6c-1.3-0.5-2.2-1-3-1.9c0,0.3,0,0.5,0,0.8v0.4c0,0.4,0,0.5,0,0.8h-0.7
		c0-0.2,0.1-0.4,0.1-0.8v-0.4c0-0.2,0-0.5,0-0.8c-0.8,0.8-1.6,1.3-2.8,1.7c-0.1-0.2-0.2-0.3-0.3-0.5c1.1-0.3,2.1-0.8,2.8-1.5h-1.5
		c-0.4,0-0.7,0-1,0v-0.6c0.2,0,0.5,0.1,1,0.1h1.9v-0.7h-1.1c-0.4,0-0.7,0-1,0c0-0.3,0-0.4,0-0.8v-0.5c0-0.3,0-0.5,0-0.8
		c0.2,0,0.5,0,1,0h3.1c0.5,0,0.7,0,1,0c0,0.2,0,0.4,0,0.8v0.5c0,0.3,0,0.5,0,0.8c-0.2,0-0.5,0-1,0h-1.4L-360.7,534L-360.7,534z
		 M-362.8,531.8v0.9h3.8v-0.9H-362.8z"/>
	<path id="XMLID_206_" class="st3" d="M-354.9,536.4c-0.4,0-0.7,0-1,0.1v-0.7c0.3,0,0.6,0.1,1,0.1h2.4c0.1-0.4,0.1-0.7,0.1-1v-0.1
		l0.8,0.1c0,0.1-0.1,0.5-0.2,1h2.9c0.4,0,0.6,0,0.9,0c0,0.3,0,0.3-0.1,0.8c-0.1,1.2-0.2,2.1-0.3,2.5c-0.2,0.6-0.5,0.7-1.4,0.7
		c-0.3,0-0.5,0-1.1,0c0-0.2-0.1-0.5-0.1-0.7c0.6,0.1,0.9,0.1,1.3,0.1c0.5,0,0.6-0.1,0.8-0.5c0.1-0.4,0.2-1.2,0.3-2.3h-3.2
		c-0.2,0.9-0.6,1.6-1.2,2.2c-0.4,0.4-1,0.8-1.6,1c-0.3,0.1-0.6,0.2-1.3,0.4c-0.1-0.3-0.2-0.4-0.4-0.6c1.3-0.3,2-0.6,2.6-1.1
		c0.5-0.4,0.9-1.1,1.1-1.9L-354.9,536.4L-354.9,536.4z M-355.2,532c0-0.3,0-0.4,0-0.8c0.3,0,0.7,0,1.1,0h3.9c0.5,0,0.9,0,1.1,0
		c0,0.2,0,0.5,0,0.8v1.5c0,0.3,0,0.5,0,0.8c-0.3,0-0.6,0-1,0h-4.1c-0.5,0-0.8,0-1.1,0c0-0.2,0-0.5,0-0.8L-355.2,532L-355.2,532z
		 M-354.6,531.9v1.8h4.9v-1.8H-354.6z"/>
	<path id="XMLID_210_" class="st3" d="M-343.4,538.8c-0.7,0.5-1.4,0.9-2.7,1.3c-0.1-0.2-0.3-0.4-0.4-0.6c1.3-0.4,2-0.6,2.7-1.1
		c0.5-0.3,0.8-0.7,1-1.2h-2.6c-0.5,0-0.8,0-1.1,0.1v-0.7c0.3,0,0.6,0.1,1.1,0.1h2.8c0.1-0.3,0.1-0.6,0.1-0.8c0-0.1,0-0.2,0-0.3h0.7
		c0,0.1,0,0.1,0,0.3c0,0.3-0.1,0.6-0.1,0.8h3.3c0.4,0,0.8,0,1.1-0.1v0.7c-0.3,0-0.7-0.1-1.1-0.1h-2.8c0.8,1.1,1.9,1.8,4,2.3
		c-0.2,0.3-0.3,0.3-0.4,0.6c-2.1-0.6-3.4-1.5-4.1-2.9C-342.5,537.9-342.9,538.4-343.4,538.8z M-341.9,534.3c0,0.5,0,0.6,0,0.9h-0.7
		c0-0.3,0.1-0.5,0.1-0.9v-0.8c-0.3,0.3-0.7,0.7-1.2,1c-0.6,0.5-1.3,0.8-2.4,1.2c-0.1-0.3-0.2-0.4-0.4-0.6c1.5-0.5,2.3-0.9,3.4-1.8
		h-2.2c-0.4,0-0.7,0-1,0.1v-0.7c0.3,0,0.6,0.1,1,0.1h2.9v-1.2c0-0.3,0-0.4-0.1-0.7h0.7c0,0.2,0,0.4,0,0.7v1.2h3.1c0.4,0,0.8,0,1-0.1
		v0.7c-0.3,0-0.6-0.1-1-0.1h-3.1v0.1c1.4,0.5,2.7,1.1,3.8,1.7l-0.4,0.6c-0.7-0.5-1.3-0.8-2.5-1.4c-0.3-0.2-0.7-0.3-0.9-0.4v0.4
		H-341.9z M-344.5,531.2c0.4,0.4,0.5,0.6,0.9,1.2l-0.5,0.3c-0.3-0.5-0.5-0.8-0.9-1.2L-344.5,531.2z M-339.3,531.5
		c-0.5,0.6-0.8,1-1.1,1.3l-0.5-0.3c0.5-0.4,0.8-0.9,1-1.3L-339.3,531.5z"/>
	<path id="XMLID_215_" class="st3" d="M-334,532.9c0.3,0,0.4,0,0.6,0v0.6c-0.2,0-0.4,0-0.6,0h-0.6v2c0.3-0.1,0.5-0.2,1-0.5v0.6
		c-0.4,0.2-0.4,0.2-1,0.5v3.2c0,0.5-0.2,0.7-1.2,0.7c-0.1,0-0.3,0-0.5,0c0-0.3,0-0.4-0.1-0.6c0.4,0,0.6,0.1,0.9,0.1s0.3,0,0.3-0.2
		v-2.8c0,0-0.1,0-0.1,0.1c-0.5,0.2-0.5,0.2-1.1,0.4l-0.2-0.7c0.4-0.1,0.5-0.1,1.4-0.4v-2.2h-0.6c-0.3,0-0.5,0-0.7,0v-0.6
		c0.2,0,0.4,0,0.7,0h0.6V532c0-0.4,0-0.7-0.1-1h0.8c0,0.3-0.1,0.6-0.1,1v0.9H-334z M-328.5,535.6c-0.1,0.1-0.1,0.1-0.3,0.4
		c-0.5,0.8-0.9,1.4-1.5,2c0.9,0.6,1.7,1,2.7,1.3c-0.2,0.2-0.3,0.4-0.4,0.6c-1.2-0.4-2.1-0.8-2.8-1.5c-0.9,0.7-1.8,1.2-3,1.5
		c-0.1-0.2-0.2-0.4-0.4-0.6c1.2-0.3,2-0.7,2.9-1.4c-0.3-0.3-0.6-0.6-0.8-1c-0.3-0.4-0.4-0.6-0.6-1.2c-0.3,0-0.5,0-0.6,0V535
		c0.2,0,0.5,0.1,0.8,0.1h3c0.3,0,0.5,0,0.6,0L-328.5,535.6z M-327.7,534.3c-0.4,0-0.8,0.1-1.2,0.1c-0.5,0-0.9,0-1.1-0.1
		c-0.1-0.1-0.2-0.2-0.2-0.4V532h-1.8c0,0.9-0.2,1.3-0.5,1.9c-0.2,0.4-0.5,0.6-0.9,1c-0.2-0.2-0.3-0.3-0.5-0.5
		c0.9-0.6,1.2-1.3,1.2-2.6c0-0.1,0-0.2,0-0.4c0.2,0,0.3,0,0.7,0h1.7c0.4,0,0.5,0,0.7,0c0,0.2,0,0.3,0,0.7v1.6c0,0.2,0.1,0.2,0.5,0.2
		c0.5,0,0.6,0,1.2-0.1v0.5H-327.7z M-332.1,535.8c0.4,0.8,0.7,1.3,1.3,1.8c0.7-0.6,1-1,1.5-1.8H-332.1z"/>
	<path id="XMLID_220_" class="st3" d="M-323.8,533.7c-0.6,0.3-1.3,0.5-1.7,0.7c-0.3,0.1-0.3,0.1-0.5,0.2c-0.2,0.1-0.2,0.1-0.3,0.1
		l-0.2-0.7c0.9-0.2,1.6-0.4,2.7-0.9V533.7z M-321.8,536.1c0,0.2,0,0.2,0,0.7c0,0.9-0.1,1.3-0.4,1.8c-0.3,0.4-0.7,0.7-1.5,1
		c-0.5,0.2-0.9,0.3-1.6,0.4c-0.1,0-0.3,0-0.9,0.1c-0.1-0.2-0.1-0.4-0.3-0.6c1.1,0,2-0.2,2.7-0.5c0.6-0.3,1-0.6,1.2-1.1
		c0.1-0.3,0.1-0.7,0.1-1.2c0-0.2,0-0.3,0-0.5h0.7V536.1z M-324.4,532.6c-0.7-0.5-1.2-0.7-1.8-1l0.3-0.5c0.8,0.3,1.2,0.6,1.8,0.9
		L-324.4,532.6z M-325.3,538.5c0-0.3,0.1-0.6,0.1-1.1v-1.3c0-0.5,0-0.7,0-0.9c0.3,0,0.6,0,1.1,0h4.1c0.5,0,0.8,0,1.1,0
		c0,0.2,0,0.5,0,1v1.3c0,0.5,0,0.8,0,1.1h-0.8c0-0.4,0.1-0.6,0.1-1.1v-1.6h-4.9v1.6c0,0.4,0,0.9,0.1,1.1L-325.3,538.5L-325.3,538.5z
		 M-322.6,532.3c-0.2,0.3-0.6,0.6-0.9,0.9c-0.1-0.2-0.2-0.3-0.4-0.4c0.8-0.6,1.3-1.2,1.6-1.9l0.6,0.2c-0.2,0.4-0.3,0.5-0.4,0.7h3.3
		c0.3,0,0.5,0,0.7,0l0.4,0.3c0,0,0,0-0.1,0.2c0,0,0,0-0.1,0.2c-0.3,0.4-0.5,0.6-0.9,1c-0.2-0.1-0.3-0.2-0.5-0.3
		c0.4-0.3,0.6-0.5,0.9-0.8h-1.9c0.1,0.5,0.4,0.9,0.9,1.3c0.5,0.4,1.2,0.7,2.2,0.8c-0.1,0.2-0.2,0.3-0.3,0.6
		c-0.8-0.2-1.4-0.4-1.8-0.7c-0.6-0.4-0.9-0.7-1.2-1.4c-0.2,0.6-0.6,1-1.2,1.3c-0.3,0.2-0.6,0.3-0.9,0.4c0,0-0.2,0.1-0.5,0.2
		c-0.1,0-0.2,0-0.3,0.1c-0.1-0.2-0.1-0.3-0.3-0.6c0.9-0.1,1.5-0.4,2-0.8c0.4-0.3,0.6-0.7,0.8-1.3H-322.6L-322.6,532.3z
		 M-321.5,538.1c1.8,0.6,2.4,0.8,3.7,1.3l-0.3,0.6c-1.6-0.7-1.7-0.8-3.7-1.4L-321.5,538.1z"/>
	<path id="XMLID_227_" class="st3" d="M-310.4,532L-310.4,532c0-0.5,0-0.7-0.1-0.9h0.7c0,0.2,0,0.5,0,0.9v0.1h0.9c0.4,0,0.7,0,1-0.1
		v0.6c-0.3,0-0.6,0-1,0h-0.9v3.2h1.1c0.4,0,0.7,0,1-0.1v0.7c-0.3,0-0.6-0.1-1-0.1h-1.5c0.7,0.7,1.5,1.1,2.8,1.4
		c-0.2,0.2-0.2,0.4-0.3,0.6c-1.5-0.5-2.3-1-3.2-2h-2.5c-0.7,0.9-1.6,1.5-3.1,2c-0.1-0.3-0.2-0.4-0.3-0.6c1.2-0.3,2.1-0.8,2.7-1.4
		h-1.5c-0.4,0-0.7,0-1,0.1v-0.7c0.3,0,0.6,0.1,1,0.1h1.1v-3.2h-0.8c-0.4,0-0.7,0-1,0V532c0.3,0,0.6,0.1,1,0.1h0.8V532
		c0-0.4,0-0.7-0.1-0.9h0.7c0,0.2,0,0.5,0,0.9v0.1L-310.4,532L-310.4,532z M-310.5,537.5c0.4,0,0.6,0,0.9,0v0.6c-0.3,0-0.5,0-0.9,0
		h-1.4v1.1h2.7c0.5,0,0.8,0,1,0v0.7c-0.3,0-0.6-0.1-1.1-0.1h-5.7c-0.4,0-0.8,0-1.1,0.1v-0.7c0.2,0,0.5,0,1.1,0h2.5V538h-1.2
		c-0.4,0-0.6,0-0.9,0v-0.6c0.2,0,0.5,0,0.9,0h1.2v-0.1c0-0.4,0-0.6,0-0.8h0.7c0,0.2,0,0.4,0,0.8v0.1L-310.5,537.5L-310.5,537.5z
		 M-313.9,533.2h3.5v-0.7h-3.5V533.2z M-313.9,534.5h3.5v-0.7h-3.5V534.5z M-313.9,535.7h3.5V535h-3.5V535.7z"/>
	<path id="XMLID_233_" class="st3" d="M-301.8,531.3c0.5,0.6,0.8,0.9,1.4,1.4c0.8,0.6,1.9,1.2,2.9,1.6c-0.2,0.2-0.3,0.4-0.4,0.7
		c-0.8-0.3-1.2-0.6-1.8-1v0.6c-0.3,0-0.5,0-0.9,0h-1.2v1.4h2.7c0.4,0,0.7,0,1-0.1v0.7c-0.3,0-0.6-0.1-1-0.1h-2.7v2.6h2.9
		c0.4,0,0.8,0,1.1-0.1v0.7c-0.3-0.1-0.7-0.1-1.1-0.1h-6.3c-0.4,0-0.7,0-1.1,0.1V539c0.3,0,0.7,0.1,1.1,0.1h2.7v-2.6h-2.5
		c-0.4,0-0.7,0-1,0.1v-0.7c0.3,0,0.5,0.1,1,0.1h2.5v-1.4h-1.1c-0.4,0-0.7,0-0.9,0V534c-0.4,0.3-0.4,0.3-1.8,1
		c-0.1-0.1-0.1-0.2-0.2-0.3c0,0,0-0.1-0.1-0.1c0,0-0.1-0.1-0.1-0.2c1-0.4,1.7-0.8,2.4-1.3c0.8-0.7,1.5-1.4,2-2.2L-301.8,531.3
		L-301.8,531.3z M-304.5,536.7c0.4,0.6,0.6,1,0.9,1.8l-0.6,0.2c-0.2-0.7-0.5-1.2-0.9-1.8L-304.5,536.7z M-300.7,533.9
		c0.4,0,0.6,0,0.8,0c-1-0.6-1.8-1.4-2.3-2.1c-0.7,0.8-1.5,1.6-2.3,2.1c0,0,0,0,0.1,0c0.2,0,0.5,0,0.8,0H-300.7z M-299.2,537
		c-0.5,0.9-0.6,1.2-1.1,1.9l-0.6-0.2c0.4-0.5,0.7-1.1,1-1.9L-299.2,537z"/>
	<path id="XMLID_238_" class="st3" d="M-295.1,532.3c-0.3,0.4-0.6,0.7-0.9,1c-0.2-0.2-0.2-0.2-0.5-0.4c0.8-0.5,1.3-1.2,1.6-2
		l0.6,0.2c-0.2,0.3-0.2,0.4-0.4,0.7h1.7c0.4,0,0.6,0,0.8,0v0.6c-0.3,0-0.3,0-0.8,0h-0.8c0.2,0.3,0.3,0.5,0.4,0.8l-0.5,0.2
		c-0.1-0.5-0.3-0.7-0.5-1.1C-294.4,532.3-295.1,532.3-295.1,532.3z M-288.9,533.6c0.5,0,0.7,0,1,0c0,0.2,0,0.3,0,0.6v0.5
		c0,0.3,0,0.5,0,0.7h-0.6v-1.2h-7v1.2h-0.6c0-0.2,0-0.4,0-0.6v-0.5c0-0.3,0-0.5,0-0.6c0.3,0,0.5,0,1,0h2.8c-0.1-0.2-0.2-0.3-0.4-0.6
		l0.5-0.3c0.2,0.2,0.3,0.5,0.6,0.8H-288.9z M-294.9,540c0-0.3,0.1-0.6,0.1-1v-3.6c0-0.3,0-0.5,0-0.7c0.3,0,0.6,0,1,0h3.5
		c0.4,0,0.7,0,1,0c0,0.2,0,0.4,0,0.7v0.6c0,0.3,0,0.5,0,0.8c-0.3,0-0.6,0-1,0h-3.9v0.7h4.5c0.4,0,0.7,0,0.9,0c0,0.3,0,0.5,0,0.9v0.8
		c0,0.4,0,0.6,0.1,0.9h-0.7v-0.5h-4.8v0.5L-294.9,540L-294.9,540z M-294.3,536.2h4.3v-1h-4.3V536.2z M-294.3,539h4.8v-1h-4.8V539z
		 M-291.2,532.3c-0.1,0.2-0.2,0.3-0.6,0.7c-0.1-0.1-0.3-0.2-0.5-0.3c0.6-0.5,0.8-0.9,1.1-1.7l0.6,0.1c-0.1,0.3-0.2,0.5-0.4,0.7h2.4
		c0.4,0,0.6,0,0.9,0v0.6c-0.3,0-0.5,0-0.9,0h-1.3c0.2,0.3,0.3,0.5,0.5,0.8l-0.6,0.2c-0.2-0.5-0.3-0.7-0.5-1.1
		C-290.5,532.3-291.2,532.3-291.2,532.3z"/>
	<path id="XMLID_245_" class="st3" d="M-284.7,534.5h0.4c0.3,0,0.4,0,0.7-0.1v0.6c-0.2,0-0.4,0-0.7,0h-0.4v2.5
		c0.6-0.3,0.7-0.3,1.2-0.5v0.6c-0.9,0.4-1.3,0.6-2.5,1.1c-0.3,0.1-0.3,0.1-0.5,0.2l-0.2-0.7c0.4-0.1,0.8-0.2,1.4-0.4V535h-0.5
		c-0.3,0-0.4,0-0.7,0v-0.6c0.2,0,0.4,0.1,0.7,0.1h0.5v-2.3h-0.5c-0.4,0-0.5,0-0.8,0.1v-0.7c0.2,0,0.5,0.1,0.8,0.1h1.5
		c0.4,0,0.6,0,0.8-0.1v0.7c-0.3,0-0.5,0-0.8,0h-0.5v2.2H-284.7z M-280.3,537.1h1.5c0.5,0,0.7,0,1,0v0.7c-0.3,0-0.5,0-1,0h-1.5v1.5
		h1.9c0.5,0,0.7,0,1,0v0.7c-0.3,0-0.5-0.1-1-0.1h-4.6c-0.5,0-0.7,0-1,0.1v-0.7c0.3,0,0.5,0,0.9,0h2.1v-1.5h-1.3c-0.5,0-0.7,0-1,0
		V537c0.3,0,0.5,0,1,0h1.3v-1.1h-1c-0.6,0-1,0-1.2,0c0-0.2,0-0.3,0-0.4c0-0.2,0-0.2,0-0.8v-2.1c0-0.6,0-1-0.1-1.3c0.3,0,0.6,0,1.3,0
		h2.6c0.7,0,1,0,1.3,0c0,0.3,0,0.7,0,1.3v2c0,0.6,0,1,0,1.3c-0.4,0-0.6,0-1.2,0h-1.1v1.2H-280.3z M-280.9,532h-1.6v1.4h1.6V532z
		 M-280.9,534h-1.6v1.4h1.6V534z M-278.6,533.4V532h-1.7v1.4H-278.6z M-278.6,535.4V534h-1.7v1.4H-278.6z"/>
	<path id="XMLID_252_" class="st3" d="M-272.9,531.5c-0.1,0.1-0.1,0.2-0.3,0.5c-0.7,1.5-1.7,2.7-3.2,3.8c-0.2-0.2-0.3-0.4-0.5-0.6
		c1.2-0.8,2-1.6,2.6-2.6c0.4-0.6,0.5-1,0.6-1.3L-272.9,531.5z M-275.9,538.8c0.2,0,0.3-0.1,0.5-0.2c0.5-0.6,1.3-1.7,1.8-2.6
		c0.3-0.6,0.6-1.1,0.7-1.5c0.1-0.3,0.1-0.3,0.1-0.4l0.8,0.3c-0.1,0.1-0.1,0.1-0.2,0.3c-0.3,0.6-0.8,1.6-1.2,2.2
		c-0.4,0.7-0.5,0.8-1.4,1.9c2.4-0.1,4-0.2,5-0.4c-0.1-0.1-0.1-0.1-0.3-0.5c-0.3-0.4-0.7-1-1.3-1.7l0.5-0.3c1,1.2,1.8,2.4,2.5,3.6
		l-0.6,0.4c-0.3-0.5-0.4-0.7-0.5-1c-1.3,0.2-3.1,0.4-5.8,0.5c-0.2,0-0.5,0-0.5,0.1L-275.9,538.8z M-270.8,531.1
		c0.2,0.5,0.6,1.3,1.1,2.1c0.6,0.8,1.2,1.4,2.2,2.1c-0.2,0.2-0.3,0.4-0.5,0.6c-1.7-1.3-2.4-2.3-3.4-4.2c-0.1-0.1-0.1-0.2-0.2-0.3
		L-270.8,531.1z"/>
	<path id="XMLID_256_" class="st3" d="M-266.3,533.1c0.3,0,0.5,0.1,0.9,0.1h4.3c0.4,0,0.6,0,0.9-0.1v0.7c-0.3,0-0.5-0.1-0.9-0.1
		h-4.3c-0.4,0-0.6,0-0.9,0.1V533.1z M-260.9,537.2c0,0.3,0,0.5,0,0.8c-0.3,0-0.4,0-0.9,0h-3.2v0.9h-0.7c0-0.3,0-0.5,0-1v-2.2
		c0-0.4,0-0.6,0-0.8c0.3,0,0.5,0,0.9,0h3.2c0.4,0,0.6,0,0.8,0c0,0.3,0,0.4,0,0.8L-260.9,537.2L-260.9,537.2z M-258.3,539.1
		c0,0.7-0.2,0.9-1.1,0.9c-0.4,0-0.8,0-1.4-0.1c0-0.3,0-0.4-0.1-0.7c0.6,0.1,1.1,0.2,1.6,0.2c0.3,0,0.4-0.1,0.4-0.3v-7h-5.6
		c-0.5,0-0.8,0-1.1,0.1v-0.7c0.3,0.1,0.6,0.1,1.1,0.1h5.3c0.4,0,0.7,0,1,0c0,0.3,0,0.5,0,0.9L-258.3,539.1L-258.3,539.1z
		 M-265,537.4h3.5v-2h-3.5V537.4z"/>
	<path id="XMLID_261_" class="st3" d="M-256.7,540.1c0.8-0.8,1.2-1.3,1.5-2.1c0.4-0.8,0.5-1.6,0.5-2.5s-0.2-1.7-0.5-2.5
		c-0.4-0.8-0.7-1.2-1.5-2.1h0.9c0.7,0.9,1.1,1.3,1.4,2.1s0.5,1.6,0.5,2.5s-0.2,1.7-0.5,2.5s-0.6,1.3-1.4,2.1H-256.7z"/>
</g>
<g id="XMLID_127_">
	<path id="XMLID_128_" class="st3" d="M-342.1,418.8c0.3,0,0.5,0,0.7-0.1v0.8c-0.2,0-0.5,0-0.7,0h-0.7v2.4c0.4-0.2,0.6-0.3,1.2-0.5
		v0.7c-0.5,0.2-0.5,0.3-1.2,0.5v3.8c0,0.7-0.3,0.8-1.4,0.8c-0.2,0-0.3,0-0.6,0c0-0.3,0-0.4-0.2-0.8c0.5,0.1,0.7,0.1,1,0.1
		s0.4-0.1,0.4-0.3v-3.3c-0.1,0-0.1,0-0.2,0.1c-0.6,0.2-0.6,0.2-1.3,0.5l-0.2-0.8c0.5-0.1,0.7-0.1,1.7-0.5v-2.7h-0.7
		c-0.3,0-0.6,0-0.9,0v-0.8c0.3,0,0.5,0.1,0.9,0.1h0.7v-1.1c0-0.5,0-0.8-0.1-1.2h0.9c-0.1,0.4-0.1,0.7-0.1,1.2v1.1H-342.1z
		 M-335.5,422c-0.1,0.1-0.1,0.1-0.3,0.5c-0.6,1-1.1,1.7-1.9,2.4c1,0.8,2.1,1.3,3.3,1.6c-0.2,0.2-0.3,0.5-0.5,0.8
		c-1.4-0.4-2.5-1-3.4-1.8c-1.1,0.9-2.2,1.4-3.6,1.8c-0.1-0.3-0.3-0.5-0.5-0.7c1.4-0.4,2.4-0.8,3.5-1.7c-0.4-0.4-0.7-0.8-1-1.3
		s-0.4-0.7-0.7-1.4c-0.3,0-0.6,0-0.8,0v-0.8c0.3,0,0.6,0.1,1,0.1h3.7c0.4,0,0.6,0,0.7-0.1L-335.5,422z M-334.5,420.5
		c-0.5,0.1-0.9,0.1-1.4,0.1c-0.6,0-1.1-0.1-1.3-0.2c-0.1-0.1-0.2-0.2-0.2-0.5v-2.3h-2.1c0,1.1-0.2,1.6-0.6,2.3
		c-0.3,0.5-0.5,0.7-1.1,1.2c-0.2-0.3-0.3-0.4-0.6-0.6c1.1-0.8,1.5-1.5,1.5-3.1c0-0.2,0-0.3,0-0.5c0.2,0,0.4,0,0.9,0h2
		c0.5,0,0.6,0,0.9,0c0,0.2,0,0.4,0,0.9v1.9c0,0.2,0.1,0.2,0.6,0.2c0.6,0,0.7,0,1.5-0.2L-334.5,420.5L-334.5,420.5z M-339.8,422.3
		c0.4,0.9,0.9,1.5,1.5,2.2c0.8-0.7,1.2-1.2,1.8-2.2H-339.8z"/>
	<path id="XMLID_133_" class="st3" d="M-329.8,419.8c-0.7,0.3-1.5,0.6-2.1,0.8c-0.4,0.1-0.4,0.1-0.6,0.2c-0.2,0.1-0.2,0.1-0.4,0.2
		l-0.3-0.8c1.1-0.2,2-0.5,3.2-1.1L-329.8,419.8z M-327.5,422.6c0,0.2,0,0.2,0,0.8c0,1.1-0.2,1.6-0.5,2.1s-0.9,0.9-1.8,1.2
		c-0.6,0.2-1.1,0.3-1.9,0.5c-0.1,0-0.4,0-1.1,0.1c-0.1-0.3-0.2-0.4-0.4-0.8c1.3,0,2.4-0.2,3.3-0.6c0.8-0.3,1.2-0.7,1.4-1.4
		c0.1-0.3,0.2-0.8,0.2-1.4c0-0.3,0-0.4,0-0.6h0.8V422.6z M-330.6,418.4c-0.9-0.6-1.4-0.9-2.1-1.2l0.4-0.6c0.9,0.4,1.5,0.7,2.1,1.1
		L-330.6,418.4z M-331.7,425.5c0.1-0.4,0.1-0.8,0.1-1.3v-1.6c0-0.6,0-0.8,0-1.1c0.3,0,0.7,0,1.3,0h4.9c0.6,0,1,0,1.4,0
		c0,0.3,0,0.7,0,1.2v1.5c0,0.7,0,1,0.1,1.3h-1.1c0.1-0.4,0.1-0.7,0.1-1.3v-2h-5.9v2c0,0.4,0,1,0.1,1.3H-331.7z M-328.4,418.1
		c-0.3,0.4-0.7,0.7-1.1,1.1c-0.2-0.2-0.3-0.3-0.5-0.5c1-0.7,1.5-1.4,1.9-2.3l0.7,0.2c-0.2,0.4-0.3,0.6-0.5,0.9h3.9
		c0.4,0,0.6,0,0.8-0.1l0.5,0.4c0,0.1,0,0.1-0.1,0.2c0,0,0,0-0.2,0.2c-0.4,0.5-0.6,0.8-1.1,1.2c-0.2-0.2-0.4-0.3-0.7-0.3
		c0.5-0.3,0.8-0.6,1-0.9h-2.3c0.1,0.6,0.5,1.1,1,1.5c0.6,0.5,1.4,0.8,2.7,1c-0.2,0.2-0.2,0.4-0.4,0.8c-1-0.2-1.6-0.5-2.2-0.9
		c-0.7-0.4-1.1-0.9-1.5-1.7c-0.3,0.7-0.7,1.2-1.4,1.6c-0.3,0.2-0.7,0.4-1.1,0.5c0,0-0.3,0.1-0.6,0.2c-0.1,0-0.2,0-0.3,0.1
		c-0.1-0.3-0.2-0.4-0.3-0.7c1.1-0.2,1.8-0.4,2.4-0.9c0.5-0.4,0.8-0.9,0.9-1.5h-1.5V418.1z M-327.1,425.1c2.1,0.7,2.8,0.9,4.5,1.6
		l-0.4,0.7c-1.9-0.8-2.1-0.9-4.4-1.7L-327.1,425.1z"/>
	<path id="XMLID_140_" class="st3" d="M-319.9,417.6c0,2.6,0,3.6,0,4.9c-0.1,1.9-0.3,3-1,4.5c-0.2-0.3-0.3-0.5-0.6-0.6
		c0.5-0.9,0.6-1.5,0.8-2.4c0.1-0.7,0.2-2,0.2-3.2c0-2.8,0-3.3-0.1-3.9c0.4,0,0.8,0.1,1.3,0.1h2.1c0.5,0,0.8,0,1.2-0.1v0.8
		c-0.3,0-0.6-0.1-1.2-0.1C-317.2,417.6-319.9,417.6-319.9,417.6z M-319.1,420.1c0-0.4,0-0.7,0-1c0.3,0,0.5,0,0.9,0h1
		c0.5,0,0.7,0,0.9,0c0,0.3-0.1,0.5-0.1,1.1c0,2.1,0,2.5-0.2,2.9c-0.1,0.4-0.4,0.5-0.9,0.5c-0.2,0-0.3,0-0.5,0l0,0
		c0-0.3,0-0.4-0.1-0.7c0.2,0,0.4,0.1,0.5,0.1c0.5,0,0.5-0.1,0.5-3.1h-1.3v5.7c1.2-0.5,1.2-0.5,2-1v0.8c-1.1,0.5-1.3,0.6-2.6,1.2
		l-0.3-0.8c0.2-0.1,0.2-0.2,0.3-0.3L-319.1,420.1L-319.1,420.1z M-312.7,420.4c0,0.2-0.1,0.6-0.1,1.1v1.5c0,0.8,0,1-0.1,1.4
		c-0.2,0.8-0.6,1.4-1.3,1.9c-0.6,0.4-1,0.6-2,1c-0.2-0.4-0.2-0.4-0.5-0.7c1.3-0.4,1.9-0.7,2.5-1.2c0.5-0.5,0.7-1.1,0.7-2.4v-1.5
		c0-0.4,0-0.8-0.1-1.1C-313.6,420.4-312.7,420.4-312.7,420.4z M-314.6,417.6c-0.6,0-0.9,0-1.1,0v-0.7c0.3,0.1,0.6,0.1,1.2,0.1h3
		c0.6,0,0.9,0,1.1-0.1v0.8c-0.3,0-0.6-0.1-1.1-0.1h-1.2c-0.1,0.4-0.2,0.6-0.5,1.4h1.2c0.6,0,0.8,0,1.2,0c0,0.2,0,0.4,0,0.8v3.7
		c0,0.5,0,0.8,0.1,1.2h-0.9c0-0.4,0.1-0.7,0.1-1.2v-3.8h-3.2v3.8c0,0.5,0,0.8,0.1,1.2h-0.8c0-0.4,0.1-0.7,0.1-1.2v-3.6
		c0-0.4,0-0.7,0-0.9c0.3,0,0.6,0,1.1,0h0.4c0.2-0.5,0.4-0.9,0.5-1.4H-314.6z M-312.5,425c1.1,0.7,1.5,1,2.3,1.7l-0.4,0.6
		c-0.8-0.8-1-1-2.3-1.8L-312.5,425z"/>
	<path id="XMLID_146_" class="st3" d="M-308,419c0,0.4-0.1,0.7-0.1,1.4v5.6c0,0.7,0,1,0.1,1.4h-0.9c0.1-0.4,0.1-0.8,0.1-1.4v-5.7
		c0-0.7,0-0.9-0.1-1.4h0.9V419z M-307.8,416.4c0.8,0.8,1,1.1,1.8,2.3l-0.7,0.4c-0.6-1-0.7-1.2-1.8-2.4L-307.8,416.4z M-302.2,420.6
		c0.4,0,0.6,0,0.9,0c0,0.3,0,0.5,0,0.7v2.7c0,0.3,0,0.5,0,0.7c-0.3,0-0.5,0-0.8,0h-3.3c-0.3,0-0.8,0-1,0c0-0.3,0-0.5,0-1v-2.5
		c0-0.3,0-0.5,0-0.8c0.3,0,0.5,0,0.8,0h3.4V420.6z M-304.4,417.8c-0.5,0-0.8,0-1.1,0.1V417c0.3,0,0.6,0.1,1.1,0.1h4.6
		c0.5,0,0.7,0,1,0c0,0.3,0,0.6,0,1.1v8.4c0,0.4-0.1,0.7-0.5,0.8c-0.2,0.1-0.6,0.1-1.1,0.1c-0.1,0-0.5,0-1.1,0
		c-0.1-0.5-0.1-0.6-0.2-0.9c0.7,0.1,1,0.2,1.4,0.2c0.6,0,0.7,0,0.7-0.3v-8.4h-4.8V417.8z M-305.5,424.1h3.4v-2.8h-3.4V424.1z"/>
</g>
</svg>
