<?xml version="1.0" encoding="utf-8"?>
<!-- Generator: Adobe Illustrator 19.0.0, SVG Export Plug-In . SVG Version: 6.00 Build 0)  -->
<svg version="1.0" id="图层_1" xmlns="http://www.w3.org/2000/svg" xmlns:xlink="http://www.w3.org/1999/xlink" x="0px" y="0px"
	 viewBox="0 0 300 240" style="enable-background:new 0 0 300 240;" xml:space="preserve">
<style type="text/css">
	.st0{enable-background:new    ;}
	.st1{fill:url(#XMLID_23_);}
	.st2{fill:url(#XMLID_24_);}
	.st3{fill:url(#XMLID_25_);}
	.st4{fill:url(#XMLID_26_);}
	.st5{fill:url(#XMLID_27_);}
	.st6{fill:url(#XMLID_28_);}
	.st7{fill:#DEE7FF;}
	.st8{fill:#7E819E;}
	.st9{fill:#2E2F44;}
	.st10{fill:#CCDEFF;}
	.st11{fill:url(#XMLID_29_);}
	.st12{fill:url(#XMLID_30_);}
	.st13{fill:url(#XMLID_31_);}
	.st14{fill:url(#XMLID_32_);}
	.st15{fill:url(#XMLID_33_);}
	.st16{fill:url(#XMLID_34_);}
	.st17{fill:url(#XMLID_35_);}
	.st18{fill:url(#XMLID_36_);}
	.st19{fill:url(#XMLID_37_);}
	.st20{fill:url(#XMLID_38_);}
	.st21{fill:url(#XMLID_39_);}
	.st22{fill:#7BBAFF;}
	.st23{fill:#997817;}
	.st24{fill:url(#XMLID_40_);}
	.st25{fill:url(#XMLID_41_);}
	.st26{fill:url(#XMLID_42_);}
	.st27{fill:url(#XMLID_43_);}
	.st28{fill:url(#XMLID_44_);}
	.st29{fill:url(#XMLID_45_);}
	.st30{fill:url(#XMLID_46_);}
	.st31{fill:url(#XMLID_47_);}
	.st32{fill:url(#XMLID_48_);}
	.st33{fill:url(#XMLID_49_);}
	.st34{fill:url(#XMLID_50_);}
	.st35{fill:url(#XMLID_51_);}
	.st36{fill:url(#XMLID_52_);}
	.st37{fill:url(#XMLID_53_);}
	.st38{fill:url(#XMLID_54_);}
	.st39{fill:url(#XMLID_55_);}
	.st40{fill:url(#XMLID_56_);}
	.st41{fill:url(#XMLID_57_);}
	.st42{fill:url(#XMLID_58_);}
	.st43{fill:url(#XMLID_59_);}
	.st44{fill:url(#XMLID_60_);}
	.st45{fill:url(#XMLID_61_);}
	.st46{fill:url(#XMLID_62_);}
	.st47{fill:url(#XMLID_63_);}
	.st48{fill:url(#XMLID_64_);}
	.st49{fill:url(#XMLID_65_);}
	.st50{fill:url(#XMLID_66_);}
	.st51{fill:url(#XMLID_67_);}
	.st52{fill:url(#XMLID_68_);}
	.st53{fill:url(#XMLID_69_);}
	.st54{fill:url(#XMLID_70_);}
	.st55{fill:url(#XMLID_71_);}
	.st56{fill:url(#XMLID_72_);}
	.st57{fill:url(#XMLID_73_);}
	.st58{fill:url(#XMLID_74_);}
	.st59{fill:url(#XMLID_75_);}
	.st60{fill:url(#XMLID_76_);}
	.st61{fill:url(#XMLID_77_);}
	.st62{fill:url(#XMLID_78_);}
	.st63{fill:url(#XMLID_79_);}
	.st64{fill:url(#XMLID_80_);}
	.st65{fill:url(#XMLID_81_);}
	.st66{fill:url(#XMLID_82_);}
	.st67{fill:url(#XMLID_83_);}
	.st68{fill:url(#XMLID_84_);}
	.st69{fill:url(#XMLID_85_);}
	.st70{fill:url(#XMLID_86_);}
	.st71{fill:url(#XMLID_87_);}
	.st72{fill:url(#XMLID_88_);}
	.st73{fill:url(#XMLID_89_);}
	.st74{fill:url(#XMLID_90_);}
	.st75{fill:#808080;}
</style>
<g id="XMLID_1916_">
	<g id="XMLID_2059_">
		<g id="XMLID_2113_">
			<g id="XMLID_2114_" class="st0">
				<g id="XMLID_2126_">
					<linearGradient id="XMLID_23_" gradientUnits="userSpaceOnUse" x1="157.0512" y1="64.5267" x2="145.8478" y2="64.2299">
						<stop  offset="0" style="stop-color:#ACBEE8"/>
						<stop  offset="1" style="stop-color:#8FA2C6"/>
					</linearGradient>
					<path id="XMLID_2127_" class="st1" d="M164.8,54.6l-0.1,19.4c0,0.3-0.2,0.7-0.7,1l0.1-19.4C164.5,55.3,164.8,54.9,164.8,54.6z"
						/>
				</g>
				<g id="XMLID_2124_">
					<linearGradient id="XMLID_24_" gradientUnits="userSpaceOnUse" x1="157.0302" y1="65.3384" x2="145.8268" y2="65.0416">
						<stop  offset="0" style="stop-color:#ACBEE8"/>
						<stop  offset="1" style="stop-color:#8FA2C6"/>
					</linearGradient>
					<path id="XMLID_2125_" class="st2" d="M133.1,73.9l0.1-19.4c0,0.4,0.2,0.7,0.7,1l-0.1,19.4C133.3,74.6,133.1,74.3,133.1,73.9z"
						/>
				</g>
				<g id="XMLID_2122_">
					<linearGradient id="XMLID_25_" gradientUnits="userSpaceOnUse" x1="156.9307" y1="69.0824" x2="145.7275" y2="68.7857">
						<stop  offset="0" style="stop-color:#ACBEE8"/>
						<stop  offset="1" style="stop-color:#8FA2C6"/>
					</linearGradient>
					<polygon id="XMLID_2123_" class="st3" points="164.1,55.5 164,74.9 150.6,82.7 150.7,63.3 					"/>
				</g>
				<g id="XMLID_2120_">
					<linearGradient id="XMLID_26_" gradientUnits="userSpaceOnUse" x1="156.9188" y1="69.5269" x2="145.7157" y2="69.2301">
						<stop  offset="0" style="stop-color:#ACBEE8"/>
						<stop  offset="1" style="stop-color:#8FA2C6"/>
					</linearGradient>
					<polygon id="XMLID_2121_" class="st4" points="147.3,63.3 147.3,82.7 133.8,74.9 133.9,55.5 					"/>
				</g>
				<g id="XMLID_2117_">
					<linearGradient id="XMLID_27_" gradientUnits="userSpaceOnUse" x1="156.8158" y1="73.4134" x2="145.6128" y2="73.1166">
						<stop  offset="0" style="stop-color:#ACBEE8"/>
						<stop  offset="1" style="stop-color:#8FA2C6"/>
					</linearGradient>
					<path id="XMLID_2119_" class="st5" d="M147.3,63.3l-0.1,19.4c0.4,0.3,1,0.4,1.6,0.4V63.7C148.3,63.7,147.8,63.6,147.3,63.3z"/>
					<linearGradient id="XMLID_28_" gradientUnits="userSpaceOnUse" x1="156.8171" y1="73.3689" x2="145.6139" y2="73.0721">
						<stop  offset="0" style="stop-color:#ACBEE8"/>
						<stop  offset="1" style="stop-color:#8FA2C6"/>
					</linearGradient>
					<path id="XMLID_2118_" class="st6" d="M148.9,63.7v19.4c0.6,0,1.3-0.1,1.8-0.4l0.1-19.4C150.2,63.6,149.5,63.7,148.9,63.7z"/>
				</g>
				<g id="XMLID_2115_">
					<path id="XMLID_2116_" class="st7" d="M164.1,53.6c0.9,0.5,0.9,1.4,0,1.9l-13.4,7.8c-0.9,0.5-2.4,0.5-3.4,0l-13.5-7.8
						c-0.9-0.5-0.9-1.4,0-1.9l13.4-7.8c0.9-0.5,2.4-0.5,3.4,0L164.1,53.6z"/>
				</g>
			</g>
		</g>
		<g id="XMLID_2093_">
			<g id="XMLID_2094_" class="st0">
				<g id="XMLID_2109_">
					<path id="XMLID_2110_" class="st8" d="M161.2,67.5c0.5-0.3,0.9-0.1,0.9,0.5c0,0.6-0.4,1.3-0.9,1.5l-6.9,4
						c-0.5,0.3-0.9,0.1-0.9-0.5c0-0.6,0.4-1.3,0.9-1.5L161.2,67.5z M161.2,69.2c0.4-0.2,0.7-0.7,0.7-1.1c0-0.4-0.3-0.6-0.7-0.4
						l-6.9,4c-0.4,0.2-0.7,0.7-0.7,1.1c0,0.4,0.3,0.6,0.7,0.4L161.2,69.2"/>
				</g>
				<g id="XMLID_2107_">
					<path id="XMLID_2108_" class="st9" d="M161.2,68.1c0.2-0.1,0.3,0,0.3,0.2c0,0.2-0.1,0.5-0.3,0.6l-6.9,4c-0.2,0.1-0.3,0-0.3-0.2
						c0-0.2,0.1-0.5,0.3-0.6L161.2,68.1z"/>
				</g>
				<g id="XMLID_2103_">
					<path id="XMLID_2104_" class="st8" d="M161.2,64.8c0.5-0.3,0.9-0.1,0.9,0.5c0,0.6-0.4,1.3-0.9,1.5l-6.9,4
						c-0.5,0.3-0.9,0.1-0.9-0.5c0-0.6,0.4-1.3,0.9-1.5L161.2,64.8z M161.2,66.6c0.4-0.2,0.7-0.7,0.7-1.1c0-0.4-0.3-0.6-0.7-0.4
						l-6.9,4c-0.4,0.2-0.7,0.7-0.7,1.1c0,0.4,0.3,0.6,0.7,0.4L161.2,66.6"/>
				</g>
				<g id="XMLID_2101_">
					<path id="XMLID_2102_" class="st9" d="M161.2,65.4c0.2-0.1,0.3,0,0.3,0.2c0,0.2-0.1,0.5-0.3,0.6l-6.9,4c-0.2,0.1-0.3,0-0.3-0.2
						c0-0.2,0.1-0.5,0.3-0.6L161.2,65.4z"/>
				</g>
				<g id="XMLID_2099_">
					<path id="XMLID_2100_" class="st9" d="M161.2,62.8c0.2-0.1,0.3,0,0.3,0.2c0,0.2-0.1,0.5-0.3,0.6l-6.9,4c-0.2,0.1-0.3,0-0.3-0.2
						c0-0.2,0.1-0.5,0.3-0.6L161.2,62.8z"/>
				</g>
				<g id="XMLID_2095_">
					<path id="XMLID_2096_" class="st8" d="M161.2,62.1c0.5-0.3,0.9-0.1,0.9,0.5c0,0.6-0.4,1.3-0.9,1.5l-6.9,4
						c-0.5,0.3-0.9,0.1-0.9-0.5c0-0.6,0.4-1.3,0.9-1.5L161.2,62.1z M161.2,63.9c0.4-0.2,0.7-0.7,0.7-1.1c0-0.4-0.3-0.6-0.7-0.4
						l-6.9,4c-0.4,0.2-0.7,0.7-0.7,1.1c0,0.4,0.3,0.6,0.7,0.4L161.2,63.9"/>
				</g>
			</g>
		</g>
		<g id="XMLID_2076_">
			<g id="XMLID_2091_">
				<polygon id="XMLID_2092_" class="st9" points="137.4,63.2 137.4,64.1 138.8,64.9 138.8,64 				"/>
			</g>
			<g id="XMLID_2089_">
				<polygon id="XMLID_2090_" class="st9" points="137.5,61.9 137.5,62.8 138.8,63.5 138.8,62.6 				"/>
			</g>
			<g id="XMLID_2085_">
				<path id="XMLID_2086_" class="st8" d="M144,71.2l-4.4-2.5l0-5.7l4.4,2.5L144,71.2z M139.9,68.6l3.8,2.2l0-5.1l-3.8-2.2
					L139.9,68.6"/>
			</g>
			<g id="XMLID_2081_">
				<path id="XMLID_2082_" class="st8" d="M144.8,64.1c0.5,0.3,0.9,1,0.9,1.6l0,9.3c0,0.6-0.4,0.8-0.9,0.5l-8.1-4.7
					c-0.5-0.3-0.9-1-0.9-1.6l0-9.3c0-0.6,0.4-0.8,0.9-0.5L144.8,64.1z M136,69.4c0,0.4,0.3,1,0.7,1.2l8.1,4.7c0.4,0.2,0.7,0,0.7-0.4
					l0-9.3c0-0.4-0.3-1-0.7-1.2l-8.1-4.7c-0.4-0.2-0.7,0-0.7,0.4L136,69.4"/>
			</g>
			<g id="XMLID_2079_">
				<path id="XMLID_2080_" class="st9" d="M137.6,69.4c-0.1-0.1-0.2,0-0.2,0.1c0,0.1,0.1,0.3,0.2,0.3l6.3,3.6c0.1,0.1,0.2,0,0.2-0.1
					c0-0.1-0.1-0.3-0.2-0.3L137.6,69.4z"/>
			</g>
			<g id="XMLID_2077_">
				<path id="XMLID_2078_" class="st9" d="M137.6,68.5c-0.1-0.1-0.2,0-0.2,0.1c0,0.1,0.1,0.3,0.2,0.3l6.3,3.6c0.1,0.1,0.2,0,0.2-0.1
					c0-0.1-0.1-0.3-0.2-0.3L137.6,68.5z"/>
			</g>
		</g>
		<g id="XMLID_2061_">
			<g id="XMLID_2074_">
				<polygon id="XMLID_2075_" class="st10" points="158.4,54.6 149,60 139.5,54.6 148.9,49.1 				"/>
			</g>
			<g id="XMLID_2072_">
				<polygon id="XMLID_2073_" class="st9" points="162.8,54.6 161.9,55.1 160.9,54.6 161.9,54 				"/>
			</g>
			<g id="XMLID_2070_">
				<polygon id="XMLID_2071_" class="st9" points="149.8,47.1 148.9,47.6 148,47.1 148.9,46.5 				"/>
			</g>
			<g id="XMLID_2068_">
				<polygon id="XMLID_2069_" class="st9" points="149.9,62.1 149,62.6 148,62.1 149,61.5 				"/>
			</g>
			<g id="XMLID_2066_">
				<polygon id="XMLID_2067_" class="st9" points="136.9,54.6 136,55.1 135.1,54.6 136,54 				"/>
			</g>
			<g id="XMLID_2062_">
				<path id="XMLID_2063_" class="st9" d="M148.9,47.6l12,6.9l-12,6.9l-12-6.9L148.9,47.6z M149,60l9.4-5.5l-9.5-5.5l-9.4,5.5
					L149,60"/>
			</g>
		</g>
		<path id="XMLID_2060_" class="st9" d="M164.2,72c0,0-0.1,0.1-0.1,0.1l-13.4,7.8c-0.9,0.5-2.4,0.5-3.4,0l-13.5-7.8
			c-0.1,0-0.1-0.1-0.2-0.1c-0.4-0.3-0.5-0.6-0.5-0.9v1.7c0,0.4,0.2,0.7,0.7,1l13.5,7.8c0.9,0.5,2.4,0.5,3.4,0l13.4-7.8
			c0.5-0.3,0.7-0.6,0.7-1v0v-1.7C164.7,71.4,164.6,71.7,164.2,72z"/>
	</g>
	<g id="XMLID_2024_">
		<linearGradient id="XMLID_29_" gradientUnits="userSpaceOnUse" x1="148.7789" y1="27.9182" x2="148.9989" y2="57.3942">
			<stop  offset="0" style="stop-color:#000000"/>
			<stop  offset="9.207672e-002" style="stop-color:#000606"/>
			<stop  offset="0.2176" style="stop-color:#001818"/>
			<stop  offset="0.3623" style="stop-color:#003434"/>
			<stop  offset="0.5215" style="stop-color:#005C5C"/>
			<stop  offset="0.6925" style="stop-color:#009090"/>
			<stop  offset="0.8705" style="stop-color:#00CDCD"/>
			<stop  offset="1" style="stop-color:#00FFFF"/>
		</linearGradient>
		<polygon id="XMLID_2058_" class="st11" points="140.9,54.2 148.9,58.8 156.9,54.2 156.9,29.8 140.9,29.8 		"/>
	</g>
	<linearGradient id="XMLID_30_" gradientUnits="userSpaceOnUse" x1="161.7616" y1="23.0634" x2="161.9889" y2="53.5214">
		<stop  offset="0" style="stop-color:#000000"/>
		<stop  offset="9.207672e-002" style="stop-color:#000606"/>
		<stop  offset="0.2176" style="stop-color:#001818"/>
		<stop  offset="0.3623" style="stop-color:#003434"/>
		<stop  offset="0.5215" style="stop-color:#005C5C"/>
		<stop  offset="0.6925" style="stop-color:#009090"/>
		<stop  offset="0.8705" style="stop-color:#00CDCD"/>
		<stop  offset="1" style="stop-color:#00FFFF"/>
	</linearGradient>
	<polygon id="XMLID_2023_" class="st12" points="161.2,54.4 161.9,55 162.6,54.4 162.6,25 161.2,25 	"/>
	<linearGradient id="XMLID_31_" gradientUnits="userSpaceOnUse" x1="148.8884" y1="37.1202" x2="149.0688" y2="61.301">
		<stop  offset="0" style="stop-color:#000000"/>
		<stop  offset="9.207672e-002" style="stop-color:#000606"/>
		<stop  offset="0.2176" style="stop-color:#001818"/>
		<stop  offset="0.3623" style="stop-color:#003434"/>
		<stop  offset="0.5215" style="stop-color:#005C5C"/>
		<stop  offset="0.6925" style="stop-color:#009090"/>
		<stop  offset="0.8705" style="stop-color:#00CDCD"/>
		<stop  offset="1" style="stop-color:#00FFFF"/>
	</linearGradient>
	<polygon id="XMLID_2022_" class="st13" points="148.3,62 149,62.4 149.7,62 149.7,38.6 148.3,38.6 	"/>
	<linearGradient id="XMLID_32_" gradientUnits="userSpaceOnUse" x1="135.8796" y1="23.0946" x2="136.1069" y2="53.5526">
		<stop  offset="0" style="stop-color:#000000"/>
		<stop  offset="9.207672e-002" style="stop-color:#000606"/>
		<stop  offset="0.2176" style="stop-color:#001818"/>
		<stop  offset="0.3623" style="stop-color:#003434"/>
		<stop  offset="0.5215" style="stop-color:#005C5C"/>
		<stop  offset="0.6925" style="stop-color:#009090"/>
		<stop  offset="0.8705" style="stop-color:#00CDCD"/>
		<stop  offset="1" style="stop-color:#00FFFF"/>
	</linearGradient>
	<polygon id="XMLID_2021_" class="st14" points="135.3,54.5 136,55 136.7,54.5 136.7,25 135.3,25 	"/>
	<linearGradient id="XMLID_33_" gradientUnits="userSpaceOnUse" x1="148.804" y1="22.1604" x2="148.9845" y2="46.3411">
		<stop  offset="0" style="stop-color:#000000"/>
		<stop  offset="9.207672e-002" style="stop-color:#000606"/>
		<stop  offset="0.2176" style="stop-color:#001818"/>
		<stop  offset="0.3623" style="stop-color:#003434"/>
		<stop  offset="0.5215" style="stop-color:#005C5C"/>
		<stop  offset="0.6925" style="stop-color:#009090"/>
		<stop  offset="0.8705" style="stop-color:#00CDCD"/>
		<stop  offset="1" style="stop-color:#00FFFF"/>
	</linearGradient>
	<polygon id="XMLID_2020_" class="st15" points="148.2,47.1 148.9,47.5 149.6,47.1 149.6,23.7 148.2,23.7 	"/>
	<g id="XMLID_1951_">
		<g id="XMLID_2005_">
			<g id="XMLID_2006_" class="st0">
				<g id="XMLID_2018_">
					<linearGradient id="XMLID_34_" gradientUnits="userSpaceOnUse" x1="157.0512" y1="19.1264" x2="145.8478" y2="18.8296">
						<stop  offset="0" style="stop-color:#ACBEE8"/>
						<stop  offset="1" style="stop-color:#8FA2C6"/>
					</linearGradient>
					<path id="XMLID_2019_" class="st16" d="M164.8,9.2l-0.1,19.4c0,0.3-0.2,0.7-0.7,1l0.1-19.4C164.5,9.9,164.8,9.5,164.8,9.2z"/>
				</g>
				<g id="XMLID_2016_">
					<linearGradient id="XMLID_35_" gradientUnits="userSpaceOnUse" x1="157.0302" y1="19.9381" x2="145.8268" y2="19.6413">
						<stop  offset="0" style="stop-color:#ACBEE8"/>
						<stop  offset="1" style="stop-color:#8FA2C6"/>
					</linearGradient>
					<path id="XMLID_2017_" class="st17" d="M133.1,28.5l0.1-19.4c0,0.4,0.2,0.7,0.7,1l-0.1,19.4C133.3,29.2,133.1,28.9,133.1,28.5z
						"/>
				</g>
				<g id="XMLID_2014_">
					<linearGradient id="XMLID_36_" gradientUnits="userSpaceOnUse" x1="156.9307" y1="23.6821" x2="145.7275" y2="23.3854">
						<stop  offset="0" style="stop-color:#ACBEE8"/>
						<stop  offset="1" style="stop-color:#8FA2C6"/>
					</linearGradient>
					<polygon id="XMLID_2015_" class="st18" points="164.1,10.1 164,29.5 150.6,37.3 150.7,17.9 					"/>
				</g>
				<g id="XMLID_2012_">
					<linearGradient id="XMLID_37_" gradientUnits="userSpaceOnUse" x1="156.9188" y1="24.1266" x2="145.7157" y2="23.8298">
						<stop  offset="0" style="stop-color:#ACBEE8"/>
						<stop  offset="1" style="stop-color:#8FA2C6"/>
					</linearGradient>
					<polygon id="XMLID_2013_" class="st19" points="147.3,17.9 147.3,37.3 133.8,29.5 133.9,10.1 					"/>
				</g>
				<g id="XMLID_2009_">
					<linearGradient id="XMLID_38_" gradientUnits="userSpaceOnUse" x1="156.8158" y1="28.0131" x2="145.6128" y2="27.7163">
						<stop  offset="0" style="stop-color:#ACBEE8"/>
						<stop  offset="1" style="stop-color:#8FA2C6"/>
					</linearGradient>
					<path id="XMLID_2011_" class="st20" d="M147.3,17.9l-0.1,19.4c0.4,0.3,1,0.4,1.6,0.4V18.3C148.3,18.3,147.8,18.2,147.3,17.9z"
						/>
					<linearGradient id="XMLID_39_" gradientUnits="userSpaceOnUse" x1="156.8171" y1="27.9686" x2="145.6139" y2="27.6718">
						<stop  offset="0" style="stop-color:#ACBEE8"/>
						<stop  offset="1" style="stop-color:#8FA2C6"/>
					</linearGradient>
					<path id="XMLID_2010_" class="st21" d="M148.9,18.3v19.4c0.6,0,1.3-0.1,1.8-0.4l0.1-19.4C150.2,18.2,149.5,18.3,148.9,18.3z"/>
				</g>
				<g id="XMLID_2007_">
					<path id="XMLID_2008_" class="st7" d="M164.1,8.2c0.9,0.5,0.9,1.4,0,1.9l-13.4,7.8c-0.9,0.5-2.4,0.5-3.4,0l-13.5-7.8
						c-0.9-0.5-0.9-1.4,0-1.9l13.4-7.8c0.9-0.5,2.4-0.5,3.4,0L164.1,8.2z"/>
				</g>
			</g>
		</g>
		<g id="XMLID_1985_">
			<g id="XMLID_1986_" class="st0">
				<g id="XMLID_2001_">
					<path id="XMLID_2002_" class="st8" d="M161.2,22.1c0.5-0.3,0.9-0.1,0.9,0.5c0,0.6-0.4,1.3-0.9,1.5l-6.9,4
						c-0.5,0.3-0.9,0.1-0.9-0.5c0-0.6,0.4-1.3,0.9-1.5L161.2,22.1z M161.2,23.8c0.4-0.2,0.7-0.7,0.7-1.1c0-0.4-0.3-0.6-0.7-0.4
						l-6.9,4c-0.4,0.2-0.7,0.7-0.7,1.1c0,0.4,0.3,0.6,0.7,0.4L161.2,23.8"/>
				</g>
				<g id="XMLID_1999_">
					<path id="XMLID_2000_" class="st9" d="M161.2,22.7c0.2-0.1,0.3,0,0.3,0.2c0,0.2-0.1,0.5-0.3,0.6l-6.9,4c-0.2,0.1-0.3,0-0.3-0.2
						c0-0.2,0.1-0.5,0.3-0.6L161.2,22.7z"/>
				</g>
				<g id="XMLID_1995_">
					<path id="XMLID_1996_" class="st8" d="M161.2,19.4c0.5-0.3,0.9-0.1,0.9,0.5c0,0.6-0.4,1.3-0.9,1.5l-6.9,4
						c-0.5,0.3-0.9,0.1-0.9-0.5c0-0.6,0.4-1.3,0.9-1.5L161.2,19.4z M161.2,21.2c0.4-0.2,0.7-0.7,0.7-1.1c0-0.4-0.3-0.6-0.7-0.4
						l-6.9,4c-0.4,0.2-0.7,0.7-0.7,1.1c0,0.4,0.3,0.6,0.7,0.4L161.2,21.2"/>
				</g>
				<g id="XMLID_1993_">
					<path id="XMLID_1994_" class="st9" d="M161.2,20c0.2-0.1,0.3,0,0.3,0.2c0,0.2-0.1,0.5-0.3,0.6l-6.9,4c-0.2,0.1-0.3,0-0.3-0.2
						c0-0.2,0.1-0.5,0.3-0.6L161.2,20z"/>
				</g>
				<g id="XMLID_1991_">
					<path id="XMLID_1992_" class="st9" d="M161.2,17.4c0.2-0.1,0.3,0,0.3,0.2c0,0.2-0.1,0.5-0.3,0.6l-6.9,4c-0.2,0.1-0.3,0-0.3-0.2
						c0-0.2,0.1-0.5,0.3-0.6L161.2,17.4z"/>
				</g>
				<g id="XMLID_1987_">
					<path id="XMLID_1988_" class="st8" d="M161.2,16.7c0.5-0.3,0.9-0.1,0.9,0.5c0,0.6-0.4,1.3-0.9,1.5l-6.9,4
						c-0.5,0.3-0.9,0.1-0.9-0.5c0-0.6,0.4-1.3,0.9-1.5L161.2,16.7z M161.2,18.5c0.4-0.2,0.7-0.7,0.7-1.1c0-0.4-0.3-0.6-0.7-0.4
						l-6.9,4c-0.4,0.2-0.7,0.7-0.7,1.1c0,0.4,0.3,0.6,0.7,0.4L161.2,18.5"/>
				</g>
			</g>
		</g>
		<g id="XMLID_1968_">
			<g id="XMLID_1983_">
				<polygon id="XMLID_1984_" class="st9" points="137.4,17.8 137.4,18.7 138.8,19.5 138.8,18.6 				"/>
			</g>
			<g id="XMLID_1981_">
				<polygon id="XMLID_1982_" class="st9" points="137.5,16.5 137.5,17.4 138.8,18.1 138.8,17.2 				"/>
			</g>
			<g id="XMLID_1977_">
				<path id="XMLID_1978_" class="st8" d="M144,25.8l-4.4-2.5l0-5.7l4.4,2.5L144,25.8z M139.9,23.2l3.8,2.2l0-5.1l-3.8-2.2
					L139.9,23.2"/>
			</g>
			<g id="XMLID_1973_">
				<path id="XMLID_1974_" class="st8" d="M144.8,18.7c0.5,0.3,0.9,1,0.9,1.6l0,9.3c0,0.6-0.4,0.8-0.9,0.5l-8.1-4.7
					c-0.5-0.3-0.9-1-0.9-1.6l0-9.3c0-0.6,0.4-0.8,0.9-0.5L144.8,18.7z M136,24c0,0.4,0.3,1,0.7,1.2l8.1,4.7c0.4,0.2,0.7,0,0.7-0.4
					l0-9.3c0-0.4-0.3-1-0.7-1.2l-8.1-4.7c-0.4-0.2-0.7,0-0.7,0.4L136,24"/>
			</g>
			<g id="XMLID_1971_">
				<path id="XMLID_1972_" class="st9" d="M137.6,24c-0.1-0.1-0.2,0-0.2,0.1c0,0.1,0.1,0.3,0.2,0.3l6.3,3.6c0.1,0.1,0.2,0,0.2-0.1
					c0-0.1-0.1-0.3-0.2-0.3L137.6,24z"/>
			</g>
			<g id="XMLID_1969_">
				<path id="XMLID_1970_" class="st9" d="M137.6,23.1c-0.1-0.1-0.2,0-0.2,0.1c0,0.1,0.1,0.3,0.2,0.3l6.3,3.6c0.1,0.1,0.2,0,0.2-0.1
					c0-0.1-0.1-0.3-0.2-0.3L137.6,23.1z"/>
			</g>
		</g>
		<g id="XMLID_1953_">
			<g id="XMLID_1966_">
				<polygon id="XMLID_1967_" class="st9" points="158.4,9.2 149,14.6 139.5,9.2 148.9,3.7 				"/>
			</g>
			<g id="XMLID_1964_">
				<polygon id="XMLID_1965_" class="st9" points="162.8,9.2 161.9,9.7 160.9,9.2 161.9,8.6 				"/>
			</g>
			<g id="XMLID_1962_">
				<polygon id="XMLID_1963_" class="st9" points="149.8,1.7 148.9,2.2 148,1.7 148.9,1.1 				"/>
			</g>
			<g id="XMLID_1960_">
				<polygon id="XMLID_1961_" class="st9" points="149.9,16.7 149,17.2 148,16.7 149,16.1 				"/>
			</g>
			<g id="XMLID_1958_">
				<polygon id="XMLID_1959_" class="st9" points="136.9,9.2 136,9.7 135.1,9.2 136,8.6 				"/>
			</g>
			<g id="XMLID_1954_">
				<path id="XMLID_1955_" class="st9" d="M148.9,2.2l12,6.9l-12,6.9l-12-6.9L148.9,2.2z M149,14.6l9.4-5.5l-9.5-5.5l-9.4,5.5
					L149,14.6"/>
			</g>
		</g>
		<path id="XMLID_1952_" class="st9" d="M164.2,26.6c0,0-0.1,0.1-0.1,0.1l-13.4,7.8c-0.9,0.5-2.4,0.5-3.4,0l-13.5-7.8
			c-0.1,0-0.1-0.1-0.2-0.1c-0.4-0.3-0.5-0.6-0.5-0.9v1.7c0,0.4,0.2,0.7,0.7,1l13.5,7.8c0.9,0.5,2.4,0.5,3.4,0l13.4-7.8
			c0.5-0.3,0.7-0.6,0.7-1v0v-1.7C164.7,26,164.6,26.3,164.2,26.6z"/>
	</g>
	<g id="XMLID_1917_">
		<g id="XMLID_1942_" class="st0">
			<g id="XMLID_1949_">
				<path id="XMLID_1950_" class="st22" d="M148.5,11.9c0.1-0.1,0.4-0.1,0.5,0c0.1,0.1,0.1,0.2,0,0.3l-1.5,0.9
					c-0.1,0.1-0.4,0.1-0.5,0c-0.1-0.1-0.1-0.2,0-0.3L148.5,11.9z"/>
			</g>
			<g id="XMLID_1947_">
				<path id="XMLID_1948_" class="st22" d="M150.8,11.7c0.1-0.1,0.4-0.1,0.5,0c0.1,0.1,0.1,0.2,0,0.3l-2.9,1.7
					c-0.1,0.1-0.4,0.1-0.5,0c-0.1-0.1-0.1-0.2,0-0.3L150.8,11.7z"/>
			</g>
			<g id="XMLID_1945_">
				<path id="XMLID_1946_" class="st22" d="M150.4,10.8c0.1-0.1,0.4-0.1,0.5,0c0.1,0.1,0.1,0.2,0,0.3l-0.6,0.4
					c-0.1,0.1-0.4,0.1-0.5,0c-0.1-0.1-0.1-0.2,0-0.3L150.4,10.8z"/>
			</g>
			<g id="XMLID_1943_">
				<path id="XMLID_1944_" class="st22" d="M149.7,10c0.1-0.1,0.4-0.1,0.5,0c0.1,0.1,0.1,0.2,0,0.3l-3.8,2.3c-0.1,0.1-0.4,0.1-0.5,0
					c-0.1-0.1-0.1-0.2,0-0.3L149.7,10z"/>
			</g>
		</g>
		<g id="XMLID_1940_">
			<path id="XMLID_1941_" class="st22" d="M151.6,8.9c0.1-0.1,0.4-0.1,0.5,0c0.1,0.1,0.1,0.2,0,0.3l-0.6,0.4c-0.1,0.1-0.4,0.1-0.5,0
				c-0.1-0.1-0.1-0.2,0-0.3L151.6,8.9z"/>
		</g>
		<g id="XMLID_1938_">
			<path id="XMLID_1939_" class="st22" d="M154.4,7.2c0.1-0.1,0.4-0.1,0.5,0c0.1,0.1,0.1,0.2,0,0.3l-1.5,0.9c-0.1,0.1-0.4,0.1-0.5,0
				c-0.1-0.1-0.1-0.2,0-0.3L154.4,7.2z"/>
		</g>
		<g id="XMLID_1936_">
			<path id="XMLID_1937_" class="st22" d="M155.5,7.8c0.1-0.1,0.4-0.1,0.5,0c0.1,0.1,0.1,0.2,0,0.3l-3.8,2.3c-0.1,0.1-0.4,0.1-0.5,0
				c-0.1-0.1-0.1-0.2,0-0.3L155.5,7.8z"/>
		</g>
		<g id="XMLID_1934_">
			<path id="XMLID_1935_" class="st22" d="M153.5,10.1c0.1-0.1,0.4-0.1,0.5,0c0.1,0.1,0.1,0.2,0,0.3l-1.6,0.9
				c-0.1,0.1-0.4,0.1-0.5,0c-0.1-0.1-0.1-0.2,0-0.3L153.5,10.1z"/>
		</g>
		<g id="XMLID_1932_">
			<path id="XMLID_1933_" class="st22" d="M144.6,7.1c0.1-0.1,0.4-0.1,0.5,0c0.1,0.1,0.1,0.2,0,0.3l-3.8,2.3c-0.1,0.1-0.4,0.1-0.5,0
				c-0.1-0.1-0.1-0.2,0-0.3L144.6,7.1z"/>
		</g>
		<g id="XMLID_1930_">
			<path id="XMLID_1931_" class="st22" d="M146.5,6c0.1-0.1,0.4-0.1,0.5,0c0.1,0.1,0.1,0.2,0,0.3l-0.6,0.4c-0.1,0.1-0.4,0.1-0.5,0
				c-0.1-0.1-0.1-0.2,0-0.3L146.5,6z"/>
		</g>
		<g id="XMLID_1928_">
			<path id="XMLID_1929_" class="st22" d="M149.3,4.3c0.1-0.1,0.4-0.1,0.5,0c0.1,0.1,0.1,0.2,0,0.3l-1.5,0.9c-0.1,0.1-0.4,0.1-0.5,0
				c-0.1-0.1-0.1-0.2,0-0.3L149.3,4.3z"/>
		</g>
		<g id="XMLID_1926_">
			<path id="XMLID_1927_" class="st22" d="M148.4,7.2c0.1-0.1,0.4-0.1,0.5,0c0.1,0.1,0.1,0.2,0,0.3l-1.6,0.9c-0.1,0.1-0.4,0.1-0.5,0
				c-0.1-0.1-0.1-0.2,0-0.3L148.4,7.2z"/>
		</g>
		<g id="XMLID_1924_">
			<path id="XMLID_1925_" class="st22" d="M150.3,4.9c0.1-0.1,0.4-0.1,0.5,0c0.1,0.1,0.1,0.2,0,0.3l-3.8,2.3c-0.1,0.1-0.4,0.1-0.5,0
				c-0.1-0.1-0.1-0.2,0-0.3L150.3,4.9z"/>
		</g>
		<g id="XMLID_1922_">
			<path id="XMLID_1923_" class="st22" d="M145.3,7.9c0.1-0.1,0.4-0.1,0.5,0c0.1,0.1,0.1,0.2,0,0.3l-0.6,0.4c-0.1,0.1-0.4,0.1-0.5,0
				c-0.1-0.1-0.1-0.2,0-0.3L145.3,7.9z"/>
		</g>
		<g id="XMLID_1920_">
			<path id="XMLID_1921_" class="st22" d="M145.7,8.8c0.1-0.1,0.4-0.1,0.5,0c0.1,0.1,0.1,0.2,0,0.3l-2.9,1.7c-0.1,0.1-0.4,0.1-0.5,0
				c-0.1-0.1-0.1-0.2,0-0.3L145.7,8.8z"/>
		</g>
		<g id="XMLID_1918_">
			<path id="XMLID_1919_" class="st22" d="M143.3,9c0.1-0.1,0.4-0.1,0.5,0c0.1,0.1,0.1,0.2,0,0.3l-1.5,0.9c-0.1,0.1-0.4,0.1-0.5,0
				c-0.1-0.1-0.1-0.2,0-0.3L143.3,9z"/>
		</g>
	</g>
</g>
<g id="XMLID_2342_">
	<path id="XMLID_2347_" class="st23" d="M33.6,136.5l-0.8-1.3l105.6-61.1c0.4-0.2,0.8-0.1,1,0.3l0,0c0.2,0.4,0.1,0.8-0.3,1
		L33.6,136.5z"/>
</g>
<g id="XMLID_2343_">
	<path id="XMLID_2346_" class="st23" d="M265.2,137.3L158.1,75.5c-0.4-0.2-0.5-0.7-0.3-1v0c0.2-0.4,0.7-0.5,1-0.3L266,136
		c0.4,0.2,0.5,0.7,0.3,1l0,0C266,137.4,265.6,137.6,265.2,137.3z"/>
</g>
<g id="XMLID_1704_">
	<g id="XMLID_1847_">
		<g id="XMLID_1901_">
			<g id="XMLID_1902_" class="st0">
				<g id="XMLID_1914_">
					<linearGradient id="XMLID_40_" gradientUnits="userSpaceOnUse" x1="29.093" y1="137.6413" x2="17.8902" y2="137.3445">
						<stop  offset="0" style="stop-color:#ACBEE8"/>
						<stop  offset="1" style="stop-color:#8FA2C6"/>
					</linearGradient>
					<path id="XMLID_1915_" class="st24" d="M36.8,127.7L36.8,147c0,0.3-0.2,0.7-0.7,1l0.1-19.4C36.6,128.4,36.8,128,36.8,127.7z"/>
				</g>
				<g id="XMLID_1912_">
					<linearGradient id="XMLID_41_" gradientUnits="userSpaceOnUse" x1="29.0716" y1="138.4529" x2="17.8683" y2="138.1562">
						<stop  offset="0" style="stop-color:#ACBEE8"/>
						<stop  offset="1" style="stop-color:#8FA2C6"/>
					</linearGradient>
					<path id="XMLID_1913_" class="st25" d="M5.1,147l0.1-19.4c0,0.4,0.2,0.7,0.7,1L5.8,148C5.4,147.7,5.1,147.4,5.1,147z"/>
				</g>
				<g id="XMLID_1910_">
					<linearGradient id="XMLID_42_" gradientUnits="userSpaceOnUse" x1="28.9721" y1="142.197" x2="17.7689" y2="141.9003">
						<stop  offset="0" style="stop-color:#ACBEE8"/>
						<stop  offset="1" style="stop-color:#8FA2C6"/>
					</linearGradient>
					<polygon id="XMLID_1911_" class="st26" points="36.1,128.6 36.1,148 22.7,155.8 22.7,136.4 					"/>
				</g>
				<g id="XMLID_1908_">
					<linearGradient id="XMLID_43_" gradientUnits="userSpaceOnUse" x1="28.9603" y1="142.6415" x2="17.7571" y2="142.3448">
						<stop  offset="0" style="stop-color:#ACBEE8"/>
						<stop  offset="1" style="stop-color:#8FA2C6"/>
					</linearGradient>
					<polygon id="XMLID_1909_" class="st27" points="19.4,136.4 19.3,155.8 5.8,148 5.9,128.6 					"/>
				</g>
				<g id="XMLID_1905_">
					<linearGradient id="XMLID_44_" gradientUnits="userSpaceOnUse" x1="28.8573" y1="146.528" x2="17.6542" y2="146.2312">
						<stop  offset="0" style="stop-color:#ACBEE8"/>
						<stop  offset="1" style="stop-color:#8FA2C6"/>
					</linearGradient>
					<path id="XMLID_1907_" class="st28" d="M19.4,136.4l-0.1,19.4c0.4,0.3,1,0.4,1.6,0.4v-19.4C20.4,136.8,19.8,136.7,19.4,136.4z"
						/>
					<linearGradient id="XMLID_45_" gradientUnits="userSpaceOnUse" x1="28.8586" y1="146.4835" x2="17.6553" y2="146.1867">
						<stop  offset="0" style="stop-color:#ACBEE8"/>
						<stop  offset="1" style="stop-color:#8FA2C6"/>
					</linearGradient>
					<path id="XMLID_1906_" class="st29" d="M20.9,136.8v19.4c0.6,0,1.3-0.1,1.8-0.4l0.1-19.4C22.2,136.7,21.6,136.8,20.9,136.8z"/>
				</g>
				<g id="XMLID_1903_">
					<path id="XMLID_1904_" class="st7" d="M36.1,126.7c0.9,0.5,0.9,1.4,0,1.9l-13.4,7.8c-0.9,0.5-2.4,0.5-3.4,0l-13.5-7.8
						c-0.9-0.5-0.9-1.4,0-1.9l13.4-7.8c0.9-0.5,2.4-0.5,3.4,0L36.1,126.7z"/>
				</g>
			</g>
		</g>
		<g id="XMLID_1881_">
			<g id="XMLID_1882_" class="st0">
				<g id="XMLID_1897_">
					<path id="XMLID_1898_" class="st8" d="M33.3,140.6c0.5-0.3,0.9-0.1,0.9,0.5c0,0.6-0.4,1.3-0.9,1.5l-6.9,4
						c-0.5,0.3-0.9,0.1-0.9-0.5c0-0.6,0.4-1.3,0.9-1.5L33.3,140.6z M33.3,142.4c0.4-0.2,0.7-0.7,0.7-1.1c0-0.4-0.3-0.6-0.7-0.4
						l-6.9,4c-0.4,0.2-0.7,0.7-0.7,1.1c0,0.4,0.3,0.6,0.7,0.4L33.3,142.4"/>
				</g>
				<g id="XMLID_1895_">
					<path id="XMLID_1896_" class="st9" d="M33.3,141.2c0.2-0.1,0.3,0,0.3,0.2c0,0.2-0.1,0.5-0.3,0.6l-6.9,4c-0.2,0.1-0.3,0-0.3-0.2
						c0-0.2,0.1-0.5,0.3-0.6L33.3,141.2z"/>
				</g>
				<g id="XMLID_1891_">
					<path id="XMLID_1892_" class="st8" d="M33.3,137.9c0.5-0.3,0.9-0.1,0.9,0.5c0,0.6-0.4,1.3-0.9,1.5l-6.9,4
						c-0.5,0.3-0.9,0.1-0.9-0.5c0-0.6,0.4-1.3,0.9-1.5L33.3,137.9z M33.3,139.7c0.4-0.2,0.7-0.7,0.7-1.1c0-0.4-0.3-0.6-0.7-0.4
						l-6.9,4c-0.4,0.2-0.7,0.7-0.7,1.1c0,0.4,0.3,0.6,0.7,0.4L33.3,139.7"/>
				</g>
				<g id="XMLID_1889_">
					<path id="XMLID_1890_" class="st9" d="M33.3,138.5c0.2-0.1,0.3,0,0.3,0.2c0,0.2-0.1,0.5-0.3,0.6l-6.9,4c-0.2,0.1-0.3,0-0.3-0.2
						c0-0.2,0.1-0.5,0.3-0.6L33.3,138.5z"/>
				</g>
				<g id="XMLID_1887_">
					<path id="XMLID_1888_" class="st9" d="M33.3,135.9c0.2-0.1,0.3,0,0.3,0.2c0,0.2-0.1,0.5-0.3,0.6l-6.9,4c-0.2,0.1-0.3,0-0.3-0.2
						c0-0.2,0.1-0.5,0.3-0.6L33.3,135.9z"/>
				</g>
				<g id="XMLID_1883_">
					<path id="XMLID_1884_" class="st8" d="M33.3,135.2c0.5-0.3,0.9-0.1,0.9,0.5s-0.4,1.3-0.9,1.5l-6.9,4c-0.5,0.3-0.9,0.1-0.9-0.5
						c0-0.6,0.4-1.3,0.9-1.5L33.3,135.2z M33.3,137c0.4-0.2,0.7-0.7,0.7-1.1c0-0.4-0.3-0.6-0.7-0.4l-6.9,4c-0.4,0.2-0.7,0.7-0.7,1.1
						c0,0.4,0.3,0.6,0.7,0.4L33.3,137"/>
				</g>
			</g>
		</g>
		<g id="XMLID_1864_">
			<g id="XMLID_1879_">
				<polygon id="XMLID_1880_" class="st9" points="9.5,136.3 9.5,137.2 10.8,138 10.8,137.1 				"/>
			</g>
			<g id="XMLID_1877_">
				<polygon id="XMLID_1878_" class="st9" points="9.5,135 9.5,135.9 10.8,136.6 10.8,135.7 				"/>
			</g>
			<g id="XMLID_1873_">
				<path id="XMLID_1874_" class="st8" d="M16.1,144.3l-4.4-2.5l0-5.7l4.4,2.5L16.1,144.3z M12,141.7l3.8,2.2l0-5.1l-3.8-2.2
					L12,141.7"/>
			</g>
			<g id="XMLID_1869_">
				<path id="XMLID_1870_" class="st8" d="M16.8,137.2c0.5,0.3,0.9,1,0.9,1.6l0,9.3c0,0.6-0.4,0.8-0.9,0.5L8.7,144
					c-0.5-0.3-0.9-1-0.9-1.6l0-9.3c0-0.6,0.4-0.8,0.9-0.5L16.8,137.2z M8,142.6c0,0.4,0.3,1,0.7,1.2l8.1,4.7c0.4,0.2,0.7,0,0.7-0.4
					l0-9.3c0-0.4-0.3-1-0.7-1.2l-8.1-4.7c-0.4-0.2-0.7,0-0.7,0.4L8,142.6"/>
			</g>
			<g id="XMLID_1867_">
				<path id="XMLID_1868_" class="st9" d="M9.6,142.5c-0.1-0.1-0.2,0-0.2,0.1c0,0.1,0.1,0.3,0.2,0.3l6.3,3.6c0.1,0.1,0.2,0,0.2-0.1
					c0-0.1-0.1-0.3-0.2-0.3L9.6,142.5z"/>
			</g>
			<g id="XMLID_1865_">
				<path id="XMLID_1866_" class="st9" d="M9.6,141.6c-0.1-0.1-0.2,0-0.2,0.1s0.1,0.3,0.2,0.3l6.3,3.6c0.1,0.1,0.2,0,0.2-0.1
					c0-0.1-0.1-0.3-0.2-0.3L9.6,141.6z"/>
			</g>
		</g>
		<g id="XMLID_1849_">
			<g id="XMLID_1862_">
				<polygon id="XMLID_1863_" class="st10" points="30.4,127.7 21,133.1 11.5,127.7 21,122.2 				"/>
			</g>
			<g id="XMLID_1860_">
				<polygon id="XMLID_1861_" class="st9" points="34.9,127.7 33.9,128.2 33,127.7 33.9,127.1 				"/>
			</g>
			<g id="XMLID_1858_">
				<polygon id="XMLID_1859_" class="st9" points="21.9,120.2 20.9,120.7 20,120.2 20.9,119.6 				"/>
			</g>
			<g id="XMLID_1856_">
				<polygon id="XMLID_1857_" class="st9" points="22,135.2 21,135.7 20.1,135.2 21,134.6 				"/>
			</g>
			<g id="XMLID_1854_">
				<polygon id="XMLID_1855_" class="st9" points="9,127.7 8,128.2 7.1,127.7 8,127.1 				"/>
			</g>
			<g id="XMLID_1850_">
				<path id="XMLID_1851_" class="st9" d="M20.9,120.7l12,6.9l-12,6.9l-12-6.9L20.9,120.7z M21,133.1l9.4-5.5l-9.5-5.5l-9.4,5.5
					L21,133.1"/>
			</g>
		</g>
		<path id="XMLID_1848_" class="st9" d="M36.2,145.1c0,0-0.1,0.1-0.1,0.1L22.7,153c-0.9,0.5-2.4,0.5-3.4,0l-13.5-7.8
			c-0.1,0-0.1-0.1-0.2-0.1c-0.4-0.3-0.5-0.6-0.5-0.9v1.7c0,0.4,0.2,0.7,0.7,1l13.5,7.8c0.9,0.5,2.4,0.5,3.4,0l13.4-7.8
			c0.5-0.3,0.7-0.6,0.7-1v0v-1.7C36.8,144.5,36.6,144.9,36.2,145.1z"/>
	</g>
	<g id="XMLID_1812_">
		<linearGradient id="XMLID_46_" gradientUnits="userSpaceOnUse" x1="20.8204" y1="101.0328" x2="21.0403" y2="130.5088">
			<stop  offset="0" style="stop-color:#000000"/>
			<stop  offset="9.207672e-002" style="stop-color:#000606"/>
			<stop  offset="0.2176" style="stop-color:#001818"/>
			<stop  offset="0.3623" style="stop-color:#003434"/>
			<stop  offset="0.5215" style="stop-color:#005C5C"/>
			<stop  offset="0.6925" style="stop-color:#009090"/>
			<stop  offset="0.8705" style="stop-color:#00CDCD"/>
			<stop  offset="1" style="stop-color:#00FFFF"/>
		</linearGradient>
		<polygon id="XMLID_1846_" class="st30" points="13,127.3 21,131.9 28.9,127.3 28.9,102.9 13,102.9 		"/>
	</g>
	<linearGradient id="XMLID_47_" gradientUnits="userSpaceOnUse" x1="33.802" y1="95.912" x2="34.0312" y2="126.6236">
		<stop  offset="0" style="stop-color:#000000"/>
		<stop  offset="9.207672e-002" style="stop-color:#000606"/>
		<stop  offset="0.2176" style="stop-color:#001818"/>
		<stop  offset="0.3623" style="stop-color:#003434"/>
		<stop  offset="0.5215" style="stop-color:#005C5C"/>
		<stop  offset="0.6925" style="stop-color:#009090"/>
		<stop  offset="0.8705" style="stop-color:#00CDCD"/>
		<stop  offset="1" style="stop-color:#00FFFF"/>
	</linearGradient>
	<polygon id="XMLID_1811_" class="st31" points="33.2,127.5 33.9,128.1 34.7,127.5 34.7,97.8 33.2,97.8 	"/>
	<linearGradient id="XMLID_48_" gradientUnits="userSpaceOnUse" x1="20.9298" y1="110.2348" x2="21.1103" y2="134.4155">
		<stop  offset="0" style="stop-color:#000000"/>
		<stop  offset="9.207672e-002" style="stop-color:#000606"/>
		<stop  offset="0.2176" style="stop-color:#001818"/>
		<stop  offset="0.3623" style="stop-color:#003434"/>
		<stop  offset="0.5215" style="stop-color:#005C5C"/>
		<stop  offset="0.6925" style="stop-color:#009090"/>
		<stop  offset="0.8705" style="stop-color:#00CDCD"/>
		<stop  offset="1" style="stop-color:#00FFFF"/>
	</linearGradient>
	<polygon id="XMLID_1810_" class="st32" points="20.3,135.1 21,135.6 21.8,135.1 21.8,111.8 20.3,111.8 	"/>
	<linearGradient id="XMLID_49_" gradientUnits="userSpaceOnUse" x1="7.9201" y1="95.9435" x2="8.1493" y2="126.6552">
		<stop  offset="0" style="stop-color:#000000"/>
		<stop  offset="9.207672e-002" style="stop-color:#000606"/>
		<stop  offset="0.2176" style="stop-color:#001818"/>
		<stop  offset="0.3623" style="stop-color:#003434"/>
		<stop  offset="0.5215" style="stop-color:#005C5C"/>
		<stop  offset="0.6925" style="stop-color:#009090"/>
		<stop  offset="0.8705" style="stop-color:#00CDCD"/>
		<stop  offset="1" style="stop-color:#00FFFF"/>
	</linearGradient>
	<polygon id="XMLID_1809_" class="st33" points="7.3,127.6 8,128.1 8.8,127.6 8.8,97.9 7.3,97.9 	"/>
	<linearGradient id="XMLID_50_" gradientUnits="userSpaceOnUse" x1="20.8455" y1="95.275" x2="21.0259" y2="119.4558">
		<stop  offset="0" style="stop-color:#000000"/>
		<stop  offset="9.207672e-002" style="stop-color:#000606"/>
		<stop  offset="0.2176" style="stop-color:#001818"/>
		<stop  offset="0.3623" style="stop-color:#003434"/>
		<stop  offset="0.5215" style="stop-color:#005C5C"/>
		<stop  offset="0.6925" style="stop-color:#009090"/>
		<stop  offset="0.8705" style="stop-color:#00CDCD"/>
		<stop  offset="1" style="stop-color:#00FFFF"/>
	</linearGradient>
	<polygon id="XMLID_1808_" class="st34" points="20.2,120.2 20.9,120.6 21.7,120.2 21.7,96.8 20.2,96.8 	"/>
	<g id="XMLID_1739_">
		<g id="XMLID_1793_">
			<g id="XMLID_1794_" class="st0">
				<g id="XMLID_1806_">
					<linearGradient id="XMLID_51_" gradientUnits="userSpaceOnUse" x1="29.093" y1="92.241" x2="17.8901" y2="91.9442">
						<stop  offset="0" style="stop-color:#ACBEE8"/>
						<stop  offset="1" style="stop-color:#8FA2C6"/>
					</linearGradient>
					<path id="XMLID_1807_" class="st35" d="M36.8,82.3l-0.1,19.4c0,0.3-0.2,0.7-0.7,1l0.1-19.4C36.6,83,36.8,82.6,36.8,82.3z"/>
				</g>
				<g id="XMLID_1804_">
					<linearGradient id="XMLID_52_" gradientUnits="userSpaceOnUse" x1="29.0717" y1="93.0526" x2="17.8683" y2="92.7559">
						<stop  offset="0" style="stop-color:#ACBEE8"/>
						<stop  offset="1" style="stop-color:#8FA2C6"/>
					</linearGradient>
					<path id="XMLID_1805_" class="st36" d="M5.1,101.6l0.1-19.4c0,0.4,0.2,0.7,0.7,1l-0.1,19.4C5.4,102.3,5.1,102,5.1,101.6z"/>
				</g>
				<g id="XMLID_1802_">
					<linearGradient id="XMLID_53_" gradientUnits="userSpaceOnUse" x1="28.9721" y1="96.7967" x2="17.7689" y2="96.4999">
						<stop  offset="0" style="stop-color:#ACBEE8"/>
						<stop  offset="1" style="stop-color:#8FA2C6"/>
					</linearGradient>
					<polygon id="XMLID_1803_" class="st37" points="36.1,83.2 36.1,102.6 22.7,110.4 22.7,91 					"/>
				</g>
				<g id="XMLID_1800_">
					<linearGradient id="XMLID_54_" gradientUnits="userSpaceOnUse" x1="28.9603" y1="97.2412" x2="17.7571" y2="96.9444">
						<stop  offset="0" style="stop-color:#ACBEE8"/>
						<stop  offset="1" style="stop-color:#8FA2C6"/>
					</linearGradient>
					<polygon id="XMLID_1801_" class="st38" points="19.4,91 19.3,110.4 5.8,102.6 5.9,83.2 					"/>
				</g>
				<g id="XMLID_1797_">
					<linearGradient id="XMLID_55_" gradientUnits="userSpaceOnUse" x1="28.8573" y1="101.1277" x2="17.6542" y2="100.8309">
						<stop  offset="0" style="stop-color:#ACBEE8"/>
						<stop  offset="1" style="stop-color:#8FA2C6"/>
					</linearGradient>
					<path id="XMLID_1799_" class="st39" d="M19.4,91l-0.1,19.4c0.4,0.3,1,0.4,1.6,0.4V91.4C20.4,91.4,19.8,91.3,19.4,91z"/>
					<linearGradient id="XMLID_56_" gradientUnits="userSpaceOnUse" x1="28.8586" y1="101.0832" x2="17.6553" y2="100.7864">
						<stop  offset="0" style="stop-color:#ACBEE8"/>
						<stop  offset="1" style="stop-color:#8FA2C6"/>
					</linearGradient>
					<path id="XMLID_1798_" class="st40" d="M20.9,91.4v19.4c0.6,0,1.3-0.1,1.8-0.4L22.7,91C22.2,91.3,21.6,91.4,20.9,91.4z"/>
				</g>
				<g id="XMLID_1795_">
					<path id="XMLID_1796_" class="st7" d="M36.1,81.3c0.9,0.5,0.9,1.4,0,1.9L22.7,91c-0.9,0.5-2.4,0.5-3.4,0L5.9,83.2
						c-0.9-0.5-0.9-1.4,0-1.9l13.4-7.8c0.9-0.5,2.4-0.5,3.4,0L36.1,81.3z"/>
				</g>
			</g>
		</g>
		<g id="XMLID_1773_">
			<g id="XMLID_1774_" class="st0">
				<g id="XMLID_1789_">
					<path id="XMLID_1790_" class="st8" d="M33.3,95.2c0.5-0.3,0.9-0.1,0.9,0.5c0,0.6-0.4,1.3-0.9,1.5l-6.9,4
						c-0.5,0.3-0.9,0.1-0.9-0.5c0-0.6,0.4-1.3,0.9-1.5L33.3,95.2z M33.3,97c0.4-0.2,0.7-0.7,0.7-1.1c0-0.4-0.3-0.6-0.7-0.4l-6.9,4
						c-0.4,0.2-0.7,0.7-0.7,1.1c0,0.4,0.3,0.6,0.7,0.4L33.3,97"/>
				</g>
				<g id="XMLID_1787_">
					<path id="XMLID_1788_" class="st9" d="M33.3,95.8c0.2-0.1,0.3,0,0.3,0.2c0,0.2-0.1,0.5-0.3,0.6l-6.9,4c-0.2,0.1-0.3,0-0.3-0.2
						c0-0.2,0.1-0.5,0.3-0.6L33.3,95.8z"/>
				</g>
				<g id="XMLID_1783_">
					<path id="XMLID_1784_" class="st8" d="M33.3,92.5c0.5-0.3,0.9-0.1,0.9,0.5c0,0.6-0.4,1.3-0.9,1.5l-6.9,4
						c-0.5,0.3-0.9,0.1-0.9-0.5c0-0.6,0.4-1.3,0.9-1.5L33.3,92.5z M33.3,94.3c0.4-0.2,0.7-0.7,0.7-1.1c0-0.4-0.3-0.6-0.7-0.4l-6.9,4
						c-0.4,0.2-0.7,0.7-0.7,1.1s0.3,0.6,0.7,0.4L33.3,94.3"/>
				</g>
				<g id="XMLID_1781_">
					<path id="XMLID_1782_" class="st9" d="M33.3,93.1c0.2-0.1,0.3,0,0.3,0.2c0,0.2-0.1,0.5-0.3,0.6l-6.9,4c-0.2,0.1-0.3,0-0.3-0.2
						c0-0.2,0.1-0.5,0.3-0.6L33.3,93.1z"/>
				</g>
				<g id="XMLID_1779_">
					<path id="XMLID_1780_" class="st9" d="M33.3,90.5c0.2-0.1,0.3,0,0.3,0.2c0,0.2-0.1,0.5-0.3,0.6l-6.9,4c-0.2,0.1-0.3,0-0.3-0.2
						c0-0.2,0.1-0.5,0.3-0.6L33.3,90.5z"/>
				</g>
				<g id="XMLID_1775_">
					<path id="XMLID_1776_" class="st8" d="M33.3,89.8c0.5-0.3,0.9-0.1,0.9,0.5c0,0.6-0.4,1.3-0.9,1.5l-6.9,4
						c-0.5,0.3-0.9,0.1-0.9-0.5c0-0.6,0.4-1.3,0.9-1.5L33.3,89.8z M33.3,91.6c0.4-0.2,0.7-0.7,0.7-1.1c0-0.4-0.3-0.6-0.7-0.4l-6.9,4
						c-0.4,0.2-0.7,0.7-0.7,1.1c0,0.4,0.3,0.6,0.7,0.4L33.3,91.6"/>
				</g>
			</g>
		</g>
		<g id="XMLID_1756_">
			<g id="XMLID_1771_">
				<polygon id="XMLID_1772_" class="st9" points="9.5,90.9 9.5,91.8 10.8,92.6 10.8,91.7 				"/>
			</g>
			<g id="XMLID_1769_">
				<polygon id="XMLID_1770_" class="st9" points="9.5,89.6 9.5,90.5 10.8,91.2 10.8,90.3 				"/>
			</g>
			<g id="XMLID_1765_">
				<path id="XMLID_1766_" class="st8" d="M16.1,98.9l-4.4-2.5l0-5.7l4.4,2.5L16.1,98.9z M12,96.3l3.8,2.2l0-5.1L12,91.2L12,96.3"/>
			</g>
			<g id="XMLID_1761_">
				<path id="XMLID_1762_" class="st8" d="M16.8,91.8c0.5,0.3,0.9,1,0.9,1.6l0,9.3c0,0.6-0.4,0.8-0.9,0.5l-8.1-4.7
					c-0.5-0.3-0.9-1-0.9-1.6l0-9.3c0-0.6,0.4-0.8,0.9-0.5L16.8,91.8z M8,97.2c0,0.4,0.3,1,0.7,1.2l8.1,4.7c0.4,0.2,0.7,0,0.7-0.4
					l0-9.3c0-0.4-0.3-1-0.7-1.2l-8.1-4.7c-0.4-0.2-0.7,0-0.7,0.4L8,97.2"/>
			</g>
			<g id="XMLID_1759_">
				<path id="XMLID_1760_" class="st9" d="M9.6,97.1c-0.1-0.1-0.2,0-0.2,0.1c0,0.1,0.1,0.3,0.2,0.3l6.3,3.6c0.1,0.1,0.2,0,0.2-0.1
					c0-0.1-0.1-0.3-0.2-0.3L9.6,97.1z"/>
			</g>
			<g id="XMLID_1757_">
				<path id="XMLID_1758_" class="st9" d="M9.6,96.2c-0.1-0.1-0.2,0-0.2,0.1c0,0.1,0.1,0.3,0.2,0.3l6.3,3.6c0.1,0.1,0.2,0,0.2-0.1
					c0-0.1-0.1-0.3-0.2-0.3L9.6,96.2z"/>
			</g>
		</g>
		<g id="XMLID_1741_">
			<g id="XMLID_1754_">
				<polygon id="XMLID_1755_" class="st9" points="30.4,82.3 21,87.7 11.5,82.3 21,76.8 				"/>
			</g>
			<g id="XMLID_1752_">
				<polygon id="XMLID_1753_" class="st9" points="34.9,82.3 33.9,82.8 33,82.3 33.9,81.7 				"/>
			</g>
			<g id="XMLID_1750_">
				<polygon id="XMLID_1751_" class="st9" points="21.9,74.8 20.9,75.3 20,74.8 20.9,74.2 				"/>
			</g>
			<g id="XMLID_1748_">
				<polygon id="XMLID_1749_" class="st9" points="22,89.8 21,90.3 20.1,89.8 21,89.2 				"/>
			</g>
			<g id="XMLID_1746_">
				<polygon id="XMLID_1747_" class="st9" points="9,82.3 8,82.8 7.1,82.3 8,81.7 				"/>
			</g>
			<g id="XMLID_1742_">
				<path id="XMLID_1743_" class="st9" d="M20.9,75.3l12,6.9l-12,6.9L9,82.3L20.9,75.3z M21,87.7l9.4-5.5L21,76.8l-9.4,5.5L21,87.7"
					/>
			</g>
		</g>
		<path id="XMLID_1740_" class="st9" d="M36.2,99.7c0,0-0.1,0.1-0.1,0.1l-13.4,7.8c-0.9,0.5-2.4,0.5-3.4,0L5.9,99.8
			c-0.1,0-0.1-0.1-0.2-0.1c-0.4-0.3-0.5-0.6-0.5-0.9v1.7c0,0.4,0.2,0.7,0.7,1l13.5,7.8c0.9,0.5,2.4,0.5,3.4,0l13.4-7.8
			c0.5-0.3,0.7-0.6,0.7-1v0v-1.7C36.8,99.1,36.6,99.5,36.2,99.7z"/>
	</g>
	<g id="XMLID_1705_">
		<g id="XMLID_1730_" class="st0">
			<g id="XMLID_1737_">
				<path id="XMLID_1738_" class="st22" d="M20.5,85.1c0.1-0.1,0.4-0.1,0.5,0c0.1,0.1,0.1,0.2,0,0.3l-1.5,0.9
					c-0.1,0.1-0.4,0.1-0.5,0c-0.1-0.1-0.1-0.2,0-0.3L20.5,85.1z"/>
			</g>
			<g id="XMLID_1735_">
				<path id="XMLID_1736_" class="st22" d="M22.9,84.8c0.1-0.1,0.4-0.1,0.5,0c0.1,0.1,0.1,0.2,0,0.3l-2.9,1.7
					c-0.1,0.1-0.4,0.1-0.5,0c-0.1-0.1-0.1-0.2,0-0.3L22.9,84.8z"/>
			</g>
			<g id="XMLID_1733_">
				<path id="XMLID_1734_" class="st22" d="M22.4,83.9c0.1-0.1,0.4-0.1,0.5,0c0.1,0.1,0.1,0.2,0,0.3l-0.6,0.4
					c-0.1,0.1-0.4,0.1-0.5,0c-0.1-0.1-0.1-0.2,0-0.3L22.4,83.9z"/>
			</g>
			<g id="XMLID_1731_">
				<path id="XMLID_1732_" class="st22" d="M21.8,83.1c0.1-0.1,0.4-0.1,0.5,0c0.1,0.1,0.1,0.2,0,0.3l-3.8,2.3
					c-0.1,0.1-0.4,0.1-0.5,0c-0.1-0.1-0.1-0.2,0-0.3L21.8,83.1z"/>
			</g>
		</g>
		<g id="XMLID_1728_">
			<path id="XMLID_1729_" class="st22" d="M23.7,82c0.1-0.1,0.4-0.1,0.5,0c0.1,0.1,0.1,0.2,0,0.3l-0.6,0.4c-0.1,0.1-0.4,0.1-0.5,0
				c-0.1-0.1-0.1-0.2,0-0.3L23.7,82z"/>
		</g>
		<g id="XMLID_1726_">
			<path id="XMLID_1727_" class="st22" d="M26.5,80.3c0.1-0.1,0.4-0.1,0.5,0c0.1,0.1,0.1,0.2,0,0.3l-1.5,0.9c-0.1,0.1-0.4,0.1-0.5,0
				c-0.1-0.1-0.1-0.2,0-0.3L26.5,80.3z"/>
		</g>
		<g id="XMLID_1724_">
			<path id="XMLID_1725_" class="st22" d="M27.5,80.9c0.1-0.1,0.4-0.1,0.5,0c0.1,0.1,0.1,0.2,0,0.3l-3.8,2.3c-0.1,0.1-0.4,0.1-0.5,0
				c-0.1-0.1-0.1-0.2,0-0.3L27.5,80.9z"/>
		</g>
		<g id="XMLID_1722_">
			<path id="XMLID_1723_" class="st22" d="M25.6,83.3c0.1-0.1,0.4-0.1,0.5,0c0.1,0.1,0.1,0.2,0,0.3l-1.6,0.9c-0.1,0.1-0.4,0.1-0.5,0
				c-0.1-0.1-0.1-0.2,0-0.3L25.6,83.3z"/>
		</g>
		<g id="XMLID_1720_">
			<path id="XMLID_1721_" class="st22" d="M16.7,80.2c0.1-0.1,0.4-0.1,0.5,0c0.1,0.1,0.1,0.2,0,0.3l-3.8,2.3c-0.1,0.1-0.4,0.1-0.5,0
				c-0.1-0.1-0.1-0.2,0-0.3L16.7,80.2z"/>
		</g>
		<g id="XMLID_1718_">
			<path id="XMLID_1719_" class="st22" d="M18.5,79.1c0.1-0.1,0.4-0.1,0.5,0c0.1,0.1,0.1,0.2,0,0.3l-0.6,0.4c-0.1,0.1-0.4,0.1-0.5,0
				c-0.1-0.1-0.1-0.2,0-0.3L18.5,79.1z"/>
		</g>
		<g id="XMLID_1716_">
			<path id="XMLID_1717_" class="st22" d="M21.3,77.4c0.1-0.1,0.4-0.1,0.5,0c0.1,0.1,0.1,0.2,0,0.3l-1.5,0.9c-0.1,0.1-0.4,0.1-0.5,0
				c-0.1-0.1-0.1-0.2,0-0.3L21.3,77.4z"/>
		</g>
		<g id="XMLID_1714_">
			<path id="XMLID_1715_" class="st22" d="M20.5,80.4c0.1-0.1,0.4-0.1,0.5,0c0.1,0.1,0.1,0.2,0,0.3l-1.6,0.9c-0.1,0.1-0.4,0.1-0.5,0
				c-0.1-0.1-0.1-0.2,0-0.3L20.5,80.4z"/>
		</g>
		<g id="XMLID_1712_">
			<path id="XMLID_1713_" class="st22" d="M22.4,78c0.1-0.1,0.4-0.1,0.5,0c0.1,0.1,0.1,0.2,0,0.3l-3.8,2.3c-0.1,0.1-0.4,0.1-0.5,0
				c-0.1-0.1-0.1-0.2,0-0.3L22.4,78z"/>
		</g>
		<g id="XMLID_1710_">
			<path id="XMLID_1711_" class="st22" d="M17.3,81c0.1-0.1,0.4-0.1,0.5,0c0.1,0.1,0.1,0.2,0,0.3l-0.6,0.4c-0.1,0.1-0.4,0.1-0.5,0
				c-0.1-0.1-0.1-0.2,0-0.3L17.3,81z"/>
		</g>
		<g id="XMLID_1708_">
			<path id="XMLID_1709_" class="st22" d="M17.8,81.9c0.1-0.1,0.4-0.1,0.5,0c0.1,0.1,0.1,0.2,0,0.3l-2.9,1.7c-0.1,0.1-0.4,0.1-0.5,0
				c-0.1-0.1-0.1-0.2,0-0.3L17.8,81.9z"/>
		</g>
		<g id="XMLID_1706_">
			<path id="XMLID_1707_" class="st22" d="M15.4,82.2c0.1-0.1,0.4-0.1,0.5,0c0.1,0.1,0.1,0.2,0,0.3l-1.5,0.9c-0.1,0.1-0.4,0.1-0.5,0
				c-0.1-0.1-0.1-0.2,0-0.3L15.4,82.2z"/>
		</g>
	</g>
</g>
<g id="XMLID_2128_">
	<g id="XMLID_2271_">
		<g id="XMLID_2325_">
			<g id="XMLID_2326_" class="st0">
				<g id="XMLID_2338_">
					<linearGradient id="XMLID_57_" gradientUnits="userSpaceOnUse" x1="287.1348" y1="137.9826" x2="275.9319" y2="137.6858">
						<stop  offset="0" style="stop-color:#ACBEE8"/>
						<stop  offset="1" style="stop-color:#8FA2C6"/>
					</linearGradient>
					<path id="XMLID_2339_" class="st41" d="M294.9,128l-0.1,19.4c0,0.3-0.2,0.7-0.7,1l0.1-19.4C294.6,128.7,294.9,128.4,294.9,128z
						"/>
				</g>
				<g id="XMLID_2336_">
					<linearGradient id="XMLID_58_" gradientUnits="userSpaceOnUse" x1="287.1133" y1="138.7942" x2="275.9099" y2="138.4975">
						<stop  offset="0" style="stop-color:#ACBEE8"/>
						<stop  offset="1" style="stop-color:#8FA2C6"/>
					</linearGradient>
					<path id="XMLID_2337_" class="st42" d="M263.2,147.4l0.1-19.4c0,0.4,0.2,0.7,0.7,1l-0.1,19.4
						C263.4,148.1,263.2,147.7,263.2,147.4z"/>
				</g>
				<g id="XMLID_2334_">
					<linearGradient id="XMLID_59_" gradientUnits="userSpaceOnUse" x1="287.0139" y1="142.5383" x2="275.8107" y2="142.2415">
						<stop  offset="0" style="stop-color:#ACBEE8"/>
						<stop  offset="1" style="stop-color:#8FA2C6"/>
					</linearGradient>
					<polygon id="XMLID_2335_" class="st43" points="294.2,129 294.1,148.3 280.7,156.1 280.8,136.8 					"/>
				</g>
				<g id="XMLID_2332_">
					<linearGradient id="XMLID_60_" gradientUnits="userSpaceOnUse" x1="287.002" y1="142.9828" x2="275.7989" y2="142.686">
						<stop  offset="0" style="stop-color:#ACBEE8"/>
						<stop  offset="1" style="stop-color:#8FA2C6"/>
					</linearGradient>
					<polygon id="XMLID_2333_" class="st44" points="277.4,136.8 277.4,156.1 263.9,148.3 263.9,129 					"/>
				</g>
				<g id="XMLID_2329_">
					<linearGradient id="XMLID_61_" gradientUnits="userSpaceOnUse" x1="286.899" y1="146.8693" x2="275.696" y2="146.5725">
						<stop  offset="0" style="stop-color:#ACBEE8"/>
						<stop  offset="1" style="stop-color:#8FA2C6"/>
					</linearGradient>
					<path id="XMLID_2331_" class="st45" d="M277.4,136.8l-0.1,19.4c0.4,0.3,1,0.4,1.6,0.4v-19.4C278.4,137.1,277.8,137,277.4,136.8
						z"/>
					<linearGradient id="XMLID_62_" gradientUnits="userSpaceOnUse" x1="286.9003" y1="146.8248" x2="275.6971" y2="146.528">
						<stop  offset="0" style="stop-color:#ACBEE8"/>
						<stop  offset="1" style="stop-color:#8FA2C6"/>
					</linearGradient>
					<path id="XMLID_2330_" class="st46" d="M279,137.2v19.4c0.6,0,1.3-0.1,1.8-0.4l0.1-19.4C280.3,137.1,279.6,137.2,279,137.2z"/>
				</g>
				<g id="XMLID_2327_">
					<path id="XMLID_2328_" class="st7" d="M294.2,127c0.9,0.5,0.9,1.4,0,1.9l-13.4,7.8c-0.9,0.5-2.4,0.5-3.4,0l-13.5-7.8
						c-0.9-0.5-0.9-1.4,0-1.9l13.4-7.8c0.9-0.5,2.4-0.5,3.4,0L294.2,127z"/>
				</g>
			</g>
		</g>
		<g id="XMLID_2305_">
			<g id="XMLID_2306_" class="st0">
				<g id="XMLID_2321_">
					<path id="XMLID_2322_" class="st8" d="M291.3,140.9c0.5-0.3,0.9-0.1,0.9,0.5c0,0.6-0.4,1.3-0.9,1.5l-6.9,4
						c-0.5,0.3-0.9,0.1-0.9-0.5s0.4-1.3,0.9-1.5L291.3,140.9z M291.3,142.7c0.4-0.2,0.7-0.7,0.7-1.1c0-0.4-0.3-0.6-0.7-0.4l-6.9,4
						c-0.4,0.2-0.7,0.7-0.7,1.1c0,0.4,0.3,0.6,0.7,0.4L291.3,142.7"/>
				</g>
				<g id="XMLID_2319_">
					<path id="XMLID_2320_" class="st9" d="M291.3,141.6c0.2-0.1,0.3,0,0.3,0.2c0,0.2-0.1,0.5-0.3,0.6l-6.9,4
						c-0.2,0.1-0.3,0-0.3-0.2c0-0.2,0.1-0.5,0.3-0.6L291.3,141.6z"/>
				</g>
				<g id="XMLID_2315_">
					<path id="XMLID_2316_" class="st8" d="M291.3,138.2c0.5-0.3,0.9-0.1,0.9,0.5c0,0.6-0.4,1.3-0.9,1.5l-6.9,4
						c-0.5,0.3-0.9,0.1-0.9-0.5c0-0.6,0.4-1.3,0.9-1.5L291.3,138.2z M291.3,140c0.4-0.2,0.7-0.7,0.7-1.1c0-0.4-0.3-0.6-0.7-0.4
						l-6.9,4c-0.4,0.2-0.7,0.7-0.7,1.1c0,0.4,0.3,0.6,0.7,0.4L291.3,140"/>
				</g>
				<g id="XMLID_2313_">
					<path id="XMLID_2314_" class="st9" d="M291.3,138.9c0.2-0.1,0.3,0,0.3,0.2c0,0.2-0.1,0.5-0.3,0.6l-6.9,4
						c-0.2,0.1-0.3,0-0.3-0.2c0-0.2,0.1-0.5,0.3-0.6L291.3,138.9z"/>
				</g>
				<g id="XMLID_2311_">
					<path id="XMLID_2312_" class="st9" d="M291.3,136.2c0.2-0.1,0.3,0,0.3,0.2c0,0.2-0.1,0.5-0.3,0.6l-6.9,4
						c-0.2,0.1-0.3,0-0.3-0.2c0-0.2,0.1-0.5,0.3-0.6L291.3,136.2z"/>
				</g>
				<g id="XMLID_2307_">
					<path id="XMLID_2308_" class="st8" d="M291.3,135.6c0.5-0.3,0.9-0.1,0.9,0.5c0,0.6-0.4,1.3-0.9,1.5l-6.9,4
						c-0.5,0.3-0.9,0.1-0.9-0.5c0-0.6,0.4-1.3,0.9-1.5L291.3,135.6z M291.3,137.3c0.4-0.2,0.7-0.7,0.7-1.1c0-0.4-0.3-0.6-0.7-0.4
						l-6.9,4c-0.4,0.2-0.7,0.7-0.7,1.1c0,0.4,0.3,0.6,0.7,0.4L291.3,137.3"/>
				</g>
			</g>
		</g>
		<g id="XMLID_2288_">
			<g id="XMLID_2303_">
				<polygon id="XMLID_2304_" class="st9" points="267.5,136.7 267.5,137.6 268.8,138.3 268.8,137.4 				"/>
			</g>
			<g id="XMLID_2301_">
				<polygon id="XMLID_2302_" class="st9" points="267.5,135.3 267.5,136.2 268.8,137 268.8,136.1 				"/>
			</g>
			<g id="XMLID_2297_">
				<path id="XMLID_2298_" class="st8" d="M274.1,144.7l-4.4-2.5l0-5.7l4.4,2.5L274.1,144.7z M270,142l3.8,2.2l0-5.1l-3.8-2.2
					L270,142"/>
			</g>
			<g id="XMLID_2293_">
				<path id="XMLID_2294_" class="st8" d="M274.9,137.6c0.5,0.3,0.9,1,0.9,1.6l0,9.3c0,0.6-0.4,0.8-0.9,0.5l-8.1-4.7
					c-0.5-0.3-0.9-1-0.9-1.6l0-9.3c0-0.6,0.4-0.8,0.9-0.5L274.9,137.6z M266,142.9c0,0.4,0.3,1,0.7,1.2l8.1,4.7
					c0.4,0.2,0.7,0,0.7-0.4l0-9.3c0-0.4-0.3-1-0.7-1.2l-8.1-4.7c-0.4-0.2-0.7,0-0.7,0.4L266,142.9"/>
			</g>
			<g id="XMLID_2291_">
				<path id="XMLID_2292_" class="st9" d="M267.6,142.9c-0.1-0.1-0.2,0-0.2,0.1c0,0.1,0.1,0.3,0.2,0.3l6.3,3.6
					c0.1,0.1,0.2,0,0.2-0.1c0-0.1-0.1-0.3-0.2-0.3L267.6,142.9z"/>
			</g>
			<g id="XMLID_2289_">
				<path id="XMLID_2290_" class="st9" d="M267.6,141.9c-0.1-0.1-0.2,0-0.2,0.1s0.1,0.3,0.2,0.3l6.3,3.6c0.1,0.1,0.2,0,0.2-0.1
					c0-0.1-0.1-0.3-0.2-0.3L267.6,141.9z"/>
			</g>
		</g>
		<g id="XMLID_2273_">
			<g id="XMLID_2286_">
				<polygon id="XMLID_2287_" class="st10" points="288.5,128 279.1,133.5 269.6,128 279,122.5 				"/>
			</g>
			<g id="XMLID_2284_">
				<polygon id="XMLID_2285_" class="st9" points="292.9,128 292,128.6 291,128 292,127.5 				"/>
			</g>
			<g id="XMLID_2282_">
				<polygon id="XMLID_2283_" class="st9" points="279.9,120.5 279,121.1 278,120.5 279,120 				"/>
			</g>
			<g id="XMLID_2280_">
				<polygon id="XMLID_2281_" class="st9" points="280,135.5 279.1,136.1 278.1,135.5 279.1,135 				"/>
			</g>
			<g id="XMLID_2278_">
				<polygon id="XMLID_2279_" class="st9" points="267,128 266.1,128.6 265.1,128 266.1,127.5 				"/>
			</g>
			<g id="XMLID_2274_">
				<path id="XMLID_2275_" class="st9" d="M279,121.1l12,6.9l-12,6.9l-12-6.9L279,121.1z M279.1,133.5l9.4-5.5l-9.5-5.5l-9.4,5.5
					L279.1,133.5"/>
			</g>
		</g>
		<path id="XMLID_2272_" class="st9" d="M294.3,145.4c0,0-0.1,0.1-0.1,0.1l-13.4,7.8c-0.9,0.5-2.4,0.5-3.4,0l-13.5-7.8
			c-0.1,0-0.1-0.1-0.2-0.1c-0.4-0.3-0.5-0.6-0.5-0.9v1.7c0,0.4,0.2,0.7,0.7,1l13.5,7.8c0.9,0.5,2.4,0.5,3.4,0l13.4-7.8
			c0.5-0.3,0.7-0.6,0.7-1v0v-1.7C294.8,144.9,294.6,145.2,294.3,145.4z"/>
	</g>
	<g id="XMLID_2236_">
		<linearGradient id="XMLID_63_" gradientUnits="userSpaceOnUse" x1="278.8621" y1="101.3741" x2="279.0821" y2="130.8501">
			<stop  offset="0" style="stop-color:#000000"/>
			<stop  offset="9.207672e-002" style="stop-color:#000606"/>
			<stop  offset="0.2176" style="stop-color:#001818"/>
			<stop  offset="0.3623" style="stop-color:#003434"/>
			<stop  offset="0.5215" style="stop-color:#005C5C"/>
			<stop  offset="0.6925" style="stop-color:#009090"/>
			<stop  offset="0.8705" style="stop-color:#00CDCD"/>
			<stop  offset="1" style="stop-color:#00FFFF"/>
		</linearGradient>
		<polygon id="XMLID_2270_" class="st47" points="271,127.6 279,132.2 286.9,127.6 286.9,103.3 271,103.3 		"/>
	</g>
	<linearGradient id="XMLID_64_" gradientUnits="userSpaceOnUse" x1="291.8452" y1="96.6521" x2="292.0716" y2="126.9834">
		<stop  offset="0" style="stop-color:#000000"/>
		<stop  offset="9.207672e-002" style="stop-color:#000606"/>
		<stop  offset="0.2176" style="stop-color:#001818"/>
		<stop  offset="0.3623" style="stop-color:#003434"/>
		<stop  offset="0.5215" style="stop-color:#005C5C"/>
		<stop  offset="0.6925" style="stop-color:#009090"/>
		<stop  offset="0.8705" style="stop-color:#00CDCD"/>
		<stop  offset="1" style="stop-color:#00FFFF"/>
	</linearGradient>
	<polygon id="XMLID_2235_" class="st48" points="291.2,127.9 292,128.4 292.7,127.9 292.7,98.6 291.2,98.6 	"/>
	<linearGradient id="XMLID_65_" gradientUnits="userSpaceOnUse" x1="278.9716" y1="110.5761" x2="279.152" y2="134.7568">
		<stop  offset="0" style="stop-color:#000000"/>
		<stop  offset="9.207672e-002" style="stop-color:#000606"/>
		<stop  offset="0.2176" style="stop-color:#001818"/>
		<stop  offset="0.3623" style="stop-color:#003434"/>
		<stop  offset="0.5215" style="stop-color:#005C5C"/>
		<stop  offset="0.6925" style="stop-color:#009090"/>
		<stop  offset="0.8705" style="stop-color:#00CDCD"/>
		<stop  offset="1" style="stop-color:#00FFFF"/>
	</linearGradient>
	<polygon id="XMLID_2234_" class="st49" points="278.3,135.5 279.1,135.9 279.8,135.5 279.8,112.1 278.3,112.1 	"/>
	<linearGradient id="XMLID_66_" gradientUnits="userSpaceOnUse" x1="265.9633" y1="96.6833" x2="266.1897" y2="127.0145">
		<stop  offset="0" style="stop-color:#000000"/>
		<stop  offset="9.207672e-002" style="stop-color:#000606"/>
		<stop  offset="0.2176" style="stop-color:#001818"/>
		<stop  offset="0.3623" style="stop-color:#003434"/>
		<stop  offset="0.5215" style="stop-color:#005C5C"/>
		<stop  offset="0.6925" style="stop-color:#009090"/>
		<stop  offset="0.8705" style="stop-color:#00CDCD"/>
		<stop  offset="1" style="stop-color:#00FFFF"/>
	</linearGradient>
	<polygon id="XMLID_2233_" class="st50" points="265.4,127.9 266.1,128.5 266.8,127.9 266.8,98.6 265.4,98.6 	"/>
	<linearGradient id="XMLID_67_" gradientUnits="userSpaceOnUse" x1="278.8872" y1="95.6163" x2="279.0677" y2="119.797">
		<stop  offset="0" style="stop-color:#000000"/>
		<stop  offset="9.207672e-002" style="stop-color:#000606"/>
		<stop  offset="0.2176" style="stop-color:#001818"/>
		<stop  offset="0.3623" style="stop-color:#003434"/>
		<stop  offset="0.5215" style="stop-color:#005C5C"/>
		<stop  offset="0.6925" style="stop-color:#009090"/>
		<stop  offset="0.8705" style="stop-color:#00CDCD"/>
		<stop  offset="1" style="stop-color:#00FFFF"/>
	</linearGradient>
	<polygon id="XMLID_2232_" class="st51" points="278.3,120.5 279,120.9 279.7,120.5 279.7,97.1 278.3,97.1 	"/>
	<g id="XMLID_2163_">
		<g id="XMLID_2217_">
			<g id="XMLID_2218_" class="st0">
				<g id="XMLID_2230_">
					<linearGradient id="XMLID_68_" gradientUnits="userSpaceOnUse" x1="287.1348" y1="92.5823" x2="275.9319" y2="92.2855">
						<stop  offset="0" style="stop-color:#ACBEE8"/>
						<stop  offset="1" style="stop-color:#8FA2C6"/>
					</linearGradient>
					<path id="XMLID_2231_" class="st52" d="M294.9,82.6l-0.1,19.4c0,0.3-0.2,0.7-0.7,1l0.1-19.4C294.6,83.3,294.9,83,294.9,82.6z"
						/>
				</g>
				<g id="XMLID_2228_">
					<linearGradient id="XMLID_69_" gradientUnits="userSpaceOnUse" x1="287.1132" y1="93.3939" x2="275.9099" y2="93.0971">
						<stop  offset="0" style="stop-color:#ACBEE8"/>
						<stop  offset="1" style="stop-color:#8FA2C6"/>
					</linearGradient>
					<path id="XMLID_2229_" class="st53" d="M263.2,102l0.1-19.4c0,0.4,0.2,0.7,0.7,1l-0.1,19.4C263.4,102.7,263.2,102.3,263.2,102z
						"/>
				</g>
				<g id="XMLID_2226_">
					<linearGradient id="XMLID_70_" gradientUnits="userSpaceOnUse" x1="287.0139" y1="97.138" x2="275.8107" y2="96.8412">
						<stop  offset="0" style="stop-color:#ACBEE8"/>
						<stop  offset="1" style="stop-color:#8FA2C6"/>
					</linearGradient>
					<polygon id="XMLID_2227_" class="st54" points="294.2,83.6 294.1,102.9 280.7,110.7 280.8,91.4 					"/>
				</g>
				<g id="XMLID_2224_">
					<linearGradient id="XMLID_71_" gradientUnits="userSpaceOnUse" x1="287.002" y1="97.5825" x2="275.7989" y2="97.2857">
						<stop  offset="0" style="stop-color:#ACBEE8"/>
						<stop  offset="1" style="stop-color:#8FA2C6"/>
					</linearGradient>
					<polygon id="XMLID_2225_" class="st55" points="277.4,91.4 277.4,110.7 263.9,102.9 263.9,83.6 					"/>
				</g>
				<g id="XMLID_2221_">
					<linearGradient id="XMLID_72_" gradientUnits="userSpaceOnUse" x1="286.899" y1="101.469" x2="275.696" y2="101.1722">
						<stop  offset="0" style="stop-color:#ACBEE8"/>
						<stop  offset="1" style="stop-color:#8FA2C6"/>
					</linearGradient>
					<path id="XMLID_2223_" class="st56" d="M277.4,91.4l-0.1,19.4c0.4,0.3,1,0.4,1.6,0.4V91.8C278.4,91.7,277.8,91.6,277.4,91.4z"
						/>
					<linearGradient id="XMLID_73_" gradientUnits="userSpaceOnUse" x1="286.9003" y1="101.4245" x2="275.6971" y2="101.1277">
						<stop  offset="0" style="stop-color:#ACBEE8"/>
						<stop  offset="1" style="stop-color:#8FA2C6"/>
					</linearGradient>
					<path id="XMLID_2222_" class="st57" d="M279,91.8v19.4c0.6,0,1.3-0.1,1.8-0.4l0.1-19.4C280.3,91.7,279.6,91.8,279,91.8z"/>
				</g>
				<g id="XMLID_2219_">
					<path id="XMLID_2220_" class="st7" d="M294.2,81.6c0.9,0.5,0.9,1.4,0,1.9l-13.4,7.8c-0.9,0.5-2.4,0.5-3.4,0l-13.5-7.8
						c-0.9-0.5-0.9-1.4,0-1.9l13.4-7.8c0.9-0.5,2.4-0.5,3.4,0L294.2,81.6z"/>
				</g>
			</g>
		</g>
		<g id="XMLID_2197_">
			<g id="XMLID_2198_" class="st0">
				<g id="XMLID_2213_">
					<path id="XMLID_2214_" class="st8" d="M291.3,95.5c0.5-0.3,0.9-0.1,0.9,0.5c0,0.6-0.4,1.3-0.9,1.5l-6.9,4
						c-0.5,0.3-0.9,0.1-0.9-0.5c0-0.6,0.4-1.3,0.9-1.5L291.3,95.5z M291.3,97.3c0.4-0.2,0.7-0.7,0.7-1.1c0-0.4-0.3-0.6-0.7-0.4
						l-6.9,4c-0.4,0.2-0.7,0.7-0.7,1.1c0,0.4,0.3,0.6,0.7,0.4L291.3,97.3"/>
				</g>
				<g id="XMLID_2211_">
					<path id="XMLID_2212_" class="st9" d="M291.3,96.2c0.2-0.1,0.3,0,0.3,0.2c0,0.2-0.1,0.5-0.3,0.6l-6.9,4c-0.2,0.1-0.3,0-0.3-0.2
						c0-0.2,0.1-0.5,0.3-0.6L291.3,96.2z"/>
				</g>
				<g id="XMLID_2207_">
					<path id="XMLID_2208_" class="st8" d="M291.3,92.8c0.5-0.3,0.9-0.1,0.9,0.5c0,0.6-0.4,1.3-0.9,1.5l-6.9,4
						c-0.5,0.3-0.9,0.1-0.9-0.5c0-0.6,0.4-1.3,0.9-1.5L291.3,92.8z M291.3,94.6c0.4-0.2,0.7-0.7,0.7-1.1c0-0.4-0.3-0.6-0.7-0.4
						l-6.9,4c-0.4,0.2-0.7,0.7-0.7,1.1c0,0.4,0.3,0.6,0.7,0.4L291.3,94.6"/>
				</g>
				<g id="XMLID_2205_">
					<path id="XMLID_2206_" class="st9" d="M291.3,93.5c0.2-0.1,0.3,0,0.3,0.2c0,0.2-0.1,0.5-0.3,0.6l-6.9,4c-0.2,0.1-0.3,0-0.3-0.2
						c0-0.2,0.1-0.5,0.3-0.6L291.3,93.5z"/>
				</g>
				<g id="XMLID_2203_">
					<path id="XMLID_2204_" class="st9" d="M291.3,90.8c0.2-0.1,0.3,0,0.3,0.2c0,0.2-0.1,0.5-0.3,0.6l-6.9,4c-0.2,0.1-0.3,0-0.3-0.2
						c0-0.2,0.1-0.5,0.3-0.6L291.3,90.8z"/>
				</g>
				<g id="XMLID_2199_">
					<path id="XMLID_2200_" class="st8" d="M291.3,90.2c0.5-0.3,0.9-0.1,0.9,0.5c0,0.6-0.4,1.3-0.9,1.5l-6.9,4
						c-0.5,0.3-0.9,0.1-0.9-0.5c0-0.6,0.4-1.3,0.9-1.5L291.3,90.2z M291.3,91.9c0.4-0.2,0.7-0.7,0.7-1.1c0-0.4-0.3-0.6-0.7-0.4
						l-6.9,4c-0.4,0.2-0.7,0.7-0.7,1.1c0,0.4,0.3,0.6,0.7,0.4L291.3,91.9"/>
				</g>
			</g>
		</g>
		<g id="XMLID_2180_">
			<g id="XMLID_2195_">
				<polygon id="XMLID_2196_" class="st9" points="267.5,91.3 267.5,92.2 268.8,92.9 268.8,92 				"/>
			</g>
			<g id="XMLID_2193_">
				<polygon id="XMLID_2194_" class="st9" points="267.5,89.9 267.5,90.8 268.8,91.6 268.8,90.7 				"/>
			</g>
			<g id="XMLID_2189_">
				<path id="XMLID_2190_" class="st8" d="M274.1,99.3l-4.4-2.5l0-5.7l4.4,2.5L274.1,99.3z M270,96.6l3.8,2.2l0-5.1l-3.8-2.2
					L270,96.6"/>
			</g>
			<g id="XMLID_2185_">
				<path id="XMLID_2186_" class="st8" d="M274.9,92.2c0.5,0.3,0.9,1,0.9,1.6l0,9.3c0,0.6-0.4,0.8-0.9,0.5l-8.1-4.7
					c-0.5-0.3-0.9-1-0.9-1.6l0-9.3c0-0.6,0.4-0.8,0.9-0.5L274.9,92.2z M266,97.5c0,0.4,0.3,1,0.7,1.2l8.1,4.7c0.4,0.2,0.7,0,0.7-0.4
					l0-9.3c0-0.4-0.3-1-0.7-1.2l-8.1-4.7c-0.4-0.2-0.7,0-0.7,0.4L266,97.5"/>
			</g>
			<g id="XMLID_2183_">
				<path id="XMLID_2184_" class="st9" d="M267.6,97.5c-0.1-0.1-0.2,0-0.2,0.1c0,0.1,0.1,0.3,0.2,0.3l6.3,3.6c0.1,0.1,0.2,0,0.2-0.1
					c0-0.1-0.1-0.3-0.2-0.3L267.6,97.5z"/>
			</g>
			<g id="XMLID_2181_">
				<path id="XMLID_2182_" class="st9" d="M267.6,96.5c-0.1-0.1-0.2,0-0.2,0.1c0,0.1,0.1,0.3,0.2,0.3l6.3,3.6c0.1,0.1,0.2,0,0.2-0.1
					c0-0.1-0.1-0.3-0.2-0.3L267.6,96.5z"/>
			</g>
		</g>
		<g id="XMLID_2165_">
			<g id="XMLID_2178_">
				<polygon id="XMLID_2179_" class="st9" points="288.5,82.6 279.1,88.1 269.6,82.6 279,77.1 				"/>
			</g>
			<g id="XMLID_2176_">
				<polygon id="XMLID_2177_" class="st9" points="292.9,82.6 292,83.2 291,82.6 292,82.1 				"/>
			</g>
			<g id="XMLID_2174_">
				<polygon id="XMLID_2175_" class="st9" points="279.9,75.1 279,75.7 278,75.1 279,74.6 				"/>
			</g>
			<g id="XMLID_2172_">
				<polygon id="XMLID_2173_" class="st9" points="280,90.1 279.1,90.7 278.1,90.1 279.1,89.6 				"/>
			</g>
			<g id="XMLID_2170_">
				<polygon id="XMLID_2171_" class="st9" points="267,82.6 266.1,83.2 265.1,82.6 266.1,82.1 				"/>
			</g>
			<g id="XMLID_2166_">
				<path id="XMLID_2167_" class="st9" d="M279,75.7l12,6.9l-12,6.9l-12-6.9L279,75.7z M279.1,88.1l9.4-5.5l-9.5-5.5l-9.4,5.5
					L279.1,88.1"/>
			</g>
		</g>
		<path id="XMLID_2164_" class="st9" d="M294.3,100c0,0-0.1,0.1-0.1,0.1l-13.4,7.8c-0.9,0.5-2.4,0.5-3.4,0l-13.5-7.8
			c-0.1,0-0.1-0.1-0.2-0.1c-0.4-0.3-0.5-0.6-0.5-0.9v1.7c0,0.4,0.2,0.7,0.7,1l13.5,7.8c0.9,0.5,2.4,0.5,3.4,0l13.4-7.8
			c0.5-0.3,0.7-0.6,0.7-1v0v-1.7C294.8,99.5,294.6,99.8,294.3,100z"/>
	</g>
	<g id="XMLID_2129_">
		<g id="XMLID_2154_" class="st0">
			<g id="XMLID_2161_">
				<path id="XMLID_2162_" class="st22" d="M278.5,85.4c0.1-0.1,0.4-0.1,0.5,0c0.1,0.1,0.1,0.2,0,0.3l-1.5,0.9
					c-0.1,0.1-0.4,0.1-0.5,0c-0.1-0.1-0.1-0.2,0-0.3L278.5,85.4z"/>
			</g>
			<g id="XMLID_2159_">
				<path id="XMLID_2160_" class="st22" d="M280.9,85.2c0.1-0.1,0.4-0.1,0.5,0c0.1,0.1,0.1,0.2,0,0.3l-2.9,1.7
					c-0.1,0.1-0.4,0.1-0.5,0c-0.1-0.1-0.1-0.2,0-0.3L280.9,85.2z"/>
			</g>
			<g id="XMLID_2157_">
				<path id="XMLID_2158_" class="st22" d="M280.5,84.2c0.1-0.1,0.4-0.1,0.5,0c0.1,0.1,0.1,0.2,0,0.3l-0.6,0.4
					c-0.1,0.1-0.4,0.1-0.5,0c-0.1-0.1-0.1-0.2,0-0.3L280.5,84.2z"/>
			</g>
			<g id="XMLID_2155_">
				<path id="XMLID_2156_" class="st22" d="M279.8,83.4c0.1-0.1,0.4-0.1,0.5,0c0.1,0.1,0.1,0.2,0,0.3l-3.8,2.3
					c-0.1,0.1-0.4,0.1-0.5,0c-0.1-0.1-0.1-0.2,0-0.3L279.8,83.4z"/>
			</g>
		</g>
		<g id="XMLID_2152_">
			<path id="XMLID_2153_" class="st22" d="M281.7,82.3c0.1-0.1,0.4-0.1,0.5,0c0.1,0.1,0.1,0.2,0,0.3l-0.6,0.4
				c-0.1,0.1-0.4,0.1-0.5,0c-0.1-0.1-0.1-0.2,0-0.3L281.7,82.3z"/>
		</g>
		<g id="XMLID_2150_">
			<path id="XMLID_2151_" class="st22" d="M284.5,80.7c0.1-0.1,0.4-0.1,0.5,0c0.1,0.1,0.1,0.2,0,0.3l-1.5,0.9
				c-0.1,0.1-0.4,0.1-0.5,0c-0.1-0.1-0.1-0.2,0-0.3L284.5,80.7z"/>
		</g>
		<g id="XMLID_2148_">
			<path id="XMLID_2149_" class="st22" d="M285.5,81.3c0.1-0.1,0.4-0.1,0.5,0c0.1,0.1,0.1,0.2,0,0.3l-3.8,2.3
				c-0.1,0.1-0.4,0.1-0.5,0c-0.1-0.1-0.1-0.2,0-0.3L285.5,81.3z"/>
		</g>
		<g id="XMLID_2146_">
			<path id="XMLID_2147_" class="st22" d="M283.6,83.6c0.1-0.1,0.4-0.1,0.5,0c0.1,0.1,0.1,0.2,0,0.3l-1.6,0.9
				c-0.1,0.1-0.4,0.1-0.5,0c-0.1-0.1-0.1-0.2,0-0.3L283.6,83.6z"/>
		</g>
		<g id="XMLID_2144_">
			<path id="XMLID_2145_" class="st22" d="M274.7,80.5c0.1-0.1,0.4-0.1,0.5,0c0.1,0.1,0.1,0.2,0,0.3l-3.8,2.3
				c-0.1,0.1-0.4,0.1-0.5,0c-0.1-0.1-0.1-0.2,0-0.3L274.7,80.5z"/>
		</g>
		<g id="XMLID_2142_">
			<path id="XMLID_2143_" class="st22" d="M276.6,79.4c0.1-0.1,0.4-0.1,0.5,0c0.1,0.1,0.1,0.2,0,0.3l-0.6,0.4
				c-0.1,0.1-0.4,0.1-0.5,0c-0.1-0.1-0.1-0.2,0-0.3L276.6,79.4z"/>
		</g>
		<g id="XMLID_2140_">
			<path id="XMLID_2141_" class="st22" d="M279.4,77.8c0.1-0.1,0.4-0.1,0.5,0c0.1,0.1,0.1,0.2,0,0.3l-1.5,0.9
				c-0.1,0.1-0.4,0.1-0.5,0c-0.1-0.1-0.1-0.2,0-0.3L279.4,77.8z"/>
		</g>
		<g id="XMLID_2138_">
			<path id="XMLID_2139_" class="st22" d="M278.5,80.7c0.1-0.1,0.4-0.1,0.5,0s0.1,0.2,0,0.3l-1.6,0.9c-0.1,0.1-0.4,0.1-0.5,0
				c-0.1-0.1-0.1-0.2,0-0.3L278.5,80.7z"/>
		</g>
		<g id="XMLID_2136_">
			<path id="XMLID_2137_" class="st22" d="M280.4,78.4c0.1-0.1,0.4-0.1,0.5,0c0.1,0.1,0.1,0.2,0,0.3l-3.8,2.3
				c-0.1,0.1-0.4,0.1-0.5,0c-0.1-0.1-0.1-0.2,0-0.3L280.4,78.4z"/>
		</g>
		<g id="XMLID_2134_">
			<path id="XMLID_2135_" class="st22" d="M275.4,81.4c0.1-0.1,0.4-0.1,0.5,0c0.1,0.1,0.1,0.2,0,0.3l-0.6,0.4
				c-0.1,0.1-0.4,0.1-0.5,0c-0.1-0.1-0.1-0.2,0-0.3L275.4,81.4z"/>
		</g>
		<g id="XMLID_2132_">
			<path id="XMLID_2133_" class="st22" d="M275.8,82.3c0.1-0.1,0.4-0.1,0.5,0c0.1,0.1,0.1,0.2,0,0.3l-2.9,1.7
				c-0.1,0.1-0.4,0.1-0.5,0c-0.1-0.1-0.1-0.2,0-0.3L275.8,82.3z"/>
		</g>
		<g id="XMLID_2130_">
			<path id="XMLID_2131_" class="st22" d="M273.4,82.5c0.1-0.1,0.4-0.1,0.5,0c0.1,0.1,0.1,0.2,0,0.3l-1.5,0.9
				c-0.1,0.1-0.4,0.1-0.5,0c-0.1-0.1-0.1-0.2,0-0.3L273.4,82.5z"/>
		</g>
	</g>
</g>
<g id="XMLID_2341_">
	<path id="XMLID_2348_" class="st23" d="M137.3,208.3L31,147.2c-0.4-0.2-0.5-0.7-0.3-1l0,0c0.2-0.4,0.7-0.5,1-0.3L138.1,207
		c0.4,0.2,0.5,0.7,0.3,1l0,0C138.1,208.4,137.7,208.5,137.3,208.3z"/>
</g>
<g id="XMLID_2344_">
	<path id="XMLID_2345_" class="st23" d="M161.7,210.2l-0.8-1.3l106.9-61.7c0.4-0.2,0.8-0.1,1,0.3l0,0c0.2,0.4,0.1,0.8-0.3,1
		L161.7,210.2z"/>
</g>
<g id="XMLID_1481_">
	<g id="XMLID_1635_">
		<g id="XMLID_1689_">
			<g id="XMLID_1690_" class="st0">
				<g id="XMLID_1702_">
					<linearGradient id="XMLID_74_" gradientUnits="userSpaceOnUse" x1="157.8691" y1="210.3833" x2="146.6657" y2="210.0865">
						<stop  offset="0" style="stop-color:#ACBEE8"/>
						<stop  offset="1" style="stop-color:#8FA2C6"/>
					</linearGradient>
					<path id="XMLID_1703_" class="st58" d="M165.6,200.4l-0.1,19.4c0,0.3-0.2,0.7-0.7,1l0.1-19.4
						C165.4,201.1,165.6,200.8,165.6,200.4z"/>
				</g>
				<g id="XMLID_1700_">
					<linearGradient id="XMLID_75_" gradientUnits="userSpaceOnUse" x1="157.8481" y1="211.195" x2="146.6447" y2="210.8982">
						<stop  offset="0" style="stop-color:#ACBEE8"/>
						<stop  offset="1" style="stop-color:#8FA2C6"/>
					</linearGradient>
					<path id="XMLID_1701_" class="st59" d="M133.9,219.8l0.1-19.4c0,0.4,0.2,0.7,0.7,1l-0.1,19.4
						C134.2,220.5,133.9,220.1,133.9,219.8z"/>
				</g>
				<g id="XMLID_1698_">
					<linearGradient id="XMLID_76_" gradientUnits="userSpaceOnUse" x1="157.7486" y1="214.9391" x2="146.5454" y2="214.6423">
						<stop  offset="0" style="stop-color:#ACBEE8"/>
						<stop  offset="1" style="stop-color:#8FA2C6"/>
					</linearGradient>
					<polygon id="XMLID_1699_" class="st60" points="164.9,201.4 164.8,220.7 151.5,228.5 151.5,209.2 					"/>
				</g>
				<g id="XMLID_1696_">
					<linearGradient id="XMLID_77_" gradientUnits="userSpaceOnUse" x1="157.7367" y1="215.3836" x2="146.5336" y2="215.0868">
						<stop  offset="0" style="stop-color:#ACBEE8"/>
						<stop  offset="1" style="stop-color:#8FA2C6"/>
					</linearGradient>
					<polygon id="XMLID_1697_" class="st61" points="148.2,209.2 148.1,228.5 134.6,220.7 134.7,201.4 					"/>
				</g>
				<g id="XMLID_1693_">
					<linearGradient id="XMLID_78_" gradientUnits="userSpaceOnUse" x1="157.6337" y1="219.2701" x2="146.4307" y2="218.9733">
						<stop  offset="0" style="stop-color:#ACBEE8"/>
						<stop  offset="1" style="stop-color:#8FA2C6"/>
					</linearGradient>
					<path id="XMLID_1695_" class="st62" d="M148.2,209.2l-0.1,19.4c0.4,0.3,1,0.4,1.6,0.4v-19.4
						C149.1,209.5,148.6,209.4,148.2,209.2z"/>
					<linearGradient id="XMLID_79_" gradientUnits="userSpaceOnUse" x1="157.635" y1="219.2255" x2="146.4318" y2="218.9288">
						<stop  offset="0" style="stop-color:#ACBEE8"/>
						<stop  offset="1" style="stop-color:#8FA2C6"/>
					</linearGradient>
					<path id="XMLID_1694_" class="st63" d="M149.7,209.6v19.4c0.6,0,1.3-0.1,1.8-0.4l0.1-19.4C151,209.5,150.4,209.6,149.7,209.6z"
						/>
				</g>
				<g id="XMLID_1691_">
					<path id="XMLID_1692_" class="st7" d="M164.9,199.4c0.9,0.5,0.9,1.4,0,1.9l-13.4,7.8c-0.9,0.5-2.4,0.5-3.4,0l-13.5-7.8
						c-0.9-0.5-0.9-1.4,0-1.9l13.4-7.8c0.9-0.5,2.4-0.5,3.4,0L164.9,199.4z"/>
				</g>
			</g>
		</g>
		<g id="XMLID_1669_">
			<g id="XMLID_1670_" class="st0">
				<g id="XMLID_1685_">
					<path id="XMLID_1686_" class="st8" d="M162,213.3c0.5-0.3,0.9-0.1,0.9,0.5c0,0.6-0.4,1.3-0.9,1.5l-6.9,4
						c-0.5,0.3-0.9,0.1-0.9-0.5s0.4-1.3,0.9-1.5L162,213.3z M162.1,215.1c0.4-0.2,0.7-0.7,0.7-1.1c0-0.4-0.3-0.6-0.7-0.4l-6.9,4
						c-0.4,0.2-0.7,0.7-0.7,1.1c0,0.4,0.3,0.6,0.7,0.4L162.1,215.1"/>
				</g>
				<g id="XMLID_1683_">
					<path id="XMLID_1684_" class="st9" d="M162.1,214c0.2-0.1,0.3,0,0.3,0.2c0,0.2-0.1,0.5-0.3,0.6l-6.9,4c-0.2,0.1-0.3,0-0.3-0.2
						c0-0.2,0.1-0.5,0.3-0.6L162.1,214z"/>
				</g>
				<g id="XMLID_1679_">
					<path id="XMLID_1680_" class="st8" d="M162,210.6c0.5-0.3,0.9-0.1,0.9,0.5c0,0.6-0.4,1.3-0.9,1.5l-6.9,4
						c-0.5,0.3-0.9,0.1-0.9-0.5c0-0.6,0.4-1.3,0.9-1.5L162,210.6z M162,212.4c0.4-0.2,0.7-0.7,0.7-1.1c0-0.4-0.3-0.6-0.7-0.4l-6.9,4
						c-0.4,0.2-0.7,0.7-0.7,1.1c0,0.4,0.3,0.6,0.7,0.4L162,212.4"/>
				</g>
				<g id="XMLID_1677_">
					<path id="XMLID_1678_" class="st9" d="M162,211.3c0.2-0.1,0.3,0,0.3,0.2c0,0.2-0.1,0.5-0.3,0.6l-6.9,4c-0.2,0.1-0.3,0-0.3-0.2
						c0-0.2,0.1-0.5,0.3-0.6L162,211.3z"/>
				</g>
				<g id="XMLID_1675_">
					<path id="XMLID_1676_" class="st9" d="M162,208.6c0.2-0.1,0.3,0,0.3,0.2c0,0.2-0.1,0.5-0.3,0.6l-6.9,4c-0.2,0.1-0.3,0-0.3-0.2
						c0-0.2,0.1-0.5,0.3-0.6L162,208.6z"/>
				</g>
				<g id="XMLID_1671_">
					<path id="XMLID_1672_" class="st8" d="M162,208c0.5-0.3,0.9-0.1,0.9,0.5c0,0.6-0.4,1.3-0.9,1.5l-6.9,4
						c-0.5,0.3-0.9,0.1-0.9-0.5c0-0.6,0.4-1.3,0.9-1.5L162,208z M162,209.7c0.4-0.2,0.7-0.7,0.7-1.1c0-0.4-0.3-0.6-0.7-0.4l-6.9,4
						c-0.4,0.2-0.7,0.7-0.7,1.1c0,0.4,0.3,0.6,0.7,0.4L162,209.7"/>
				</g>
			</g>
		</g>
		<g id="XMLID_1652_">
			<g id="XMLID_1667_">
				<polygon id="XMLID_1668_" class="st9" points="138.3,209.1 138.3,210 139.6,210.7 139.6,209.8 				"/>
			</g>
			<g id="XMLID_1665_">
				<polygon id="XMLID_1666_" class="st9" points="138.3,207.7 138.3,208.6 139.6,209.4 139.6,208.5 				"/>
			</g>
			<g id="XMLID_1661_">
				<path id="XMLID_1662_" class="st8" d="M144.8,217.1l-4.4-2.5l0-5.7l4.4,2.5L144.8,217.1z M140.8,214.4l3.8,2.2l0-5.1l-3.8-2.2
					L140.8,214.4"/>
			</g>
			<g id="XMLID_1657_">
				<path id="XMLID_1658_" class="st8" d="M145.6,210c0.5,0.3,0.9,1,0.9,1.6l0,9.3c0,0.6-0.4,0.8-0.9,0.5l-8.1-4.7
					c-0.5-0.3-0.9-1-0.9-1.6l0-9.3c0-0.6,0.4-0.8,0.9-0.5L145.6,210z M136.8,215.3c0,0.4,0.3,1,0.7,1.2l8.1,4.7
					c0.4,0.2,0.7,0,0.7-0.4l0-9.3c0-0.4-0.3-1-0.7-1.2l-8.1-4.7c-0.4-0.2-0.7,0-0.7,0.4L136.8,215.3"/>
			</g>
			<g id="XMLID_1655_">
				<path id="XMLID_1656_" class="st9" d="M138.4,215.3c-0.1-0.1-0.2,0-0.2,0.1c0,0.1,0.1,0.3,0.2,0.3l6.3,3.6
					c0.1,0.1,0.2,0,0.2-0.1c0-0.1-0.1-0.3-0.2-0.3L138.4,215.3z"/>
			</g>
			<g id="XMLID_1653_">
				<path id="XMLID_1654_" class="st9" d="M138.4,214.3c-0.1-0.1-0.2,0-0.2,0.1c0,0.1,0.1,0.3,0.2,0.3l6.3,3.6
					c0.1,0.1,0.2,0,0.2-0.1s-0.1-0.3-0.2-0.3L138.4,214.3z"/>
			</g>
		</g>
		<g id="XMLID_1637_">
			<g id="XMLID_1650_">
				<polygon id="XMLID_1651_" class="st10" points="159.2,200.4 149.8,205.9 140.3,200.4 149.7,194.9 				"/>
			</g>
			<g id="XMLID_1648_">
				<polygon id="XMLID_1649_" class="st9" points="163.6,200.4 162.7,201 161.8,200.4 162.7,199.9 				"/>
			</g>
			<g id="XMLID_1646_">
				<polygon id="XMLID_1647_" class="st9" points="150.7,192.9 149.7,193.5 148.8,192.9 149.7,192.4 				"/>
			</g>
			<g id="XMLID_1644_">
				<polygon id="XMLID_1645_" class="st9" points="150.7,207.9 149.8,208.5 148.9,207.9 149.8,207.4 				"/>
			</g>
			<g id="XMLID_1642_">
				<polygon id="XMLID_1643_" class="st9" points="137.8,200.4 136.8,201 135.9,200.4 136.8,199.9 				"/>
			</g>
			<g id="XMLID_1638_">
				<path id="XMLID_1639_" class="st9" d="M149.7,193.5l12,6.9l-12,6.9l-12-6.9L149.7,193.5z M149.8,205.9l9.4-5.5l-9.5-5.5
					l-9.4,5.5L149.8,205.9"/>
			</g>
		</g>
		<path id="XMLID_1636_" class="st9" d="M165,217.8c0,0-0.1,0.1-0.1,0.1l-13.4,7.8c-0.9,0.5-2.4,0.5-3.4,0l-13.5-7.8
			c-0.1,0-0.1-0.1-0.2-0.1c-0.4-0.3-0.5-0.6-0.5-0.9v1.7c0,0.4,0.2,0.7,0.7,1l13.5,7.8c0.9,0.5,2.4,0.5,3.4,0l13.4-7.8
			c0.5-0.3,0.7-0.6,0.7-1v0V217C165.6,217.3,165.4,217.6,165,217.8z"/>
	</g>
	<g id="XMLID_1600_">
		<linearGradient id="XMLID_80_" gradientUnits="userSpaceOnUse" x1="149.5968" y1="173.7749" x2="149.8168" y2="203.2509">
			<stop  offset="0" style="stop-color:#000000"/>
			<stop  offset="9.207672e-002" style="stop-color:#000606"/>
			<stop  offset="0.2176" style="stop-color:#001818"/>
			<stop  offset="0.3623" style="stop-color:#003434"/>
			<stop  offset="0.5215" style="stop-color:#005C5C"/>
			<stop  offset="0.6925" style="stop-color:#009090"/>
			<stop  offset="0.8705" style="stop-color:#00CDCD"/>
			<stop  offset="1" style="stop-color:#00FFFF"/>
		</linearGradient>
		<polygon id="XMLID_1634_" class="st64" points="141.7,200 149.7,204.6 157.7,200 157.7,175.7 141.7,175.7 		"/>
	</g>
	<linearGradient id="XMLID_81_" gradientUnits="userSpaceOnUse" x1="162.5942" y1="172.709" x2="162.7945" y2="199.5528">
		<stop  offset="0" style="stop-color:#000000"/>
		<stop  offset="9.207672e-002" style="stop-color:#000606"/>
		<stop  offset="0.2176" style="stop-color:#001818"/>
		<stop  offset="0.3623" style="stop-color:#003434"/>
		<stop  offset="0.5215" style="stop-color:#005C5C"/>
		<stop  offset="0.6925" style="stop-color:#009090"/>
		<stop  offset="0.8705" style="stop-color:#00CDCD"/>
		<stop  offset="1" style="stop-color:#00FFFF"/>
	</linearGradient>
	<polygon id="XMLID_1599_" class="st65" points="162,200.4 162.7,200.8 163.4,200.4 163.4,174.4 162,174.4 	"/>
	<linearGradient id="XMLID_82_" gradientUnits="userSpaceOnUse" x1="149.7063" y1="182.9768" x2="149.8867" y2="207.1576">
		<stop  offset="0" style="stop-color:#000000"/>
		<stop  offset="9.207672e-002" style="stop-color:#000606"/>
		<stop  offset="0.2176" style="stop-color:#001818"/>
		<stop  offset="0.3623" style="stop-color:#003434"/>
		<stop  offset="0.5215" style="stop-color:#005C5C"/>
		<stop  offset="0.6925" style="stop-color:#009090"/>
		<stop  offset="0.8705" style="stop-color:#00CDCD"/>
		<stop  offset="1" style="stop-color:#00FFFF"/>
	</linearGradient>
	<polygon id="XMLID_1598_" class="st66" points="149.1,207.9 149.8,208.3 150.5,207.9 150.5,184.5 149.1,184.5 	"/>
	<linearGradient id="XMLID_83_" gradientUnits="userSpaceOnUse" x1="136.7123" y1="172.7365" x2="136.9126" y2="199.5803">
		<stop  offset="0" style="stop-color:#000000"/>
		<stop  offset="9.207672e-002" style="stop-color:#000606"/>
		<stop  offset="0.2176" style="stop-color:#001818"/>
		<stop  offset="0.3623" style="stop-color:#003434"/>
		<stop  offset="0.5215" style="stop-color:#005C5C"/>
		<stop  offset="0.6925" style="stop-color:#009090"/>
		<stop  offset="0.8705" style="stop-color:#00CDCD"/>
		<stop  offset="1" style="stop-color:#00FFFF"/>
	</linearGradient>
	<polygon id="XMLID_1597_" class="st67" points="136.1,200.4 136.8,200.9 137.6,200.4 137.6,174.4 136.1,174.4 	"/>
	<linearGradient id="XMLID_84_" gradientUnits="userSpaceOnUse" x1="149.6219" y1="168.0171" x2="149.8024" y2="192.1978">
		<stop  offset="0" style="stop-color:#000000"/>
		<stop  offset="9.207672e-002" style="stop-color:#000606"/>
		<stop  offset="0.2176" style="stop-color:#001818"/>
		<stop  offset="0.3623" style="stop-color:#003434"/>
		<stop  offset="0.5215" style="stop-color:#005C5C"/>
		<stop  offset="0.6925" style="stop-color:#009090"/>
		<stop  offset="0.8705" style="stop-color:#00CDCD"/>
		<stop  offset="1" style="stop-color:#00FFFF"/>
	</linearGradient>
	<polygon id="XMLID_1596_" class="st68" points="149,192.9 149.7,193.3 150.5,192.9 150.5,169.5 149,169.5 	"/>
	<g id="XMLID_1527_">
		<g id="XMLID_1581_">
			<g id="XMLID_1582_" class="st0">
				<g id="XMLID_1594_">
					<linearGradient id="XMLID_85_" gradientUnits="userSpaceOnUse" x1="157.8691" y1="164.983" x2="146.6657" y2="164.6862">
						<stop  offset="0" style="stop-color:#ACBEE8"/>
						<stop  offset="1" style="stop-color:#8FA2C6"/>
					</linearGradient>
					<path id="XMLID_1595_" class="st69" d="M165.6,155l-0.1,19.4c0,0.3-0.2,0.7-0.7,1l0.1-19.4C165.4,155.7,165.6,155.4,165.6,155z
						"/>
				</g>
				<g id="XMLID_1592_">
					<linearGradient id="XMLID_86_" gradientUnits="userSpaceOnUse" x1="157.8481" y1="165.7947" x2="146.6447" y2="165.4979">
						<stop  offset="0" style="stop-color:#ACBEE8"/>
						<stop  offset="1" style="stop-color:#8FA2C6"/>
					</linearGradient>
					<path id="XMLID_1593_" class="st70" d="M133.9,174.4L134,155c0,0.4,0.2,0.7,0.7,1l-0.1,19.4
						C134.2,175.1,133.9,174.7,133.9,174.4z"/>
				</g>
				<g id="XMLID_1590_">
					<linearGradient id="XMLID_87_" gradientUnits="userSpaceOnUse" x1="157.7486" y1="169.5388" x2="146.5454" y2="169.242">
						<stop  offset="0" style="stop-color:#ACBEE8"/>
						<stop  offset="1" style="stop-color:#8FA2C6"/>
					</linearGradient>
					<polygon id="XMLID_1591_" class="st71" points="164.9,156 164.8,175.3 151.5,183.1 151.5,163.8 					"/>
				</g>
				<g id="XMLID_1588_">
					<linearGradient id="XMLID_88_" gradientUnits="userSpaceOnUse" x1="157.7367" y1="169.9832" x2="146.5336" y2="169.6864">
						<stop  offset="0" style="stop-color:#ACBEE8"/>
						<stop  offset="1" style="stop-color:#8FA2C6"/>
					</linearGradient>
					<polygon id="XMLID_1589_" class="st72" points="148.2,163.8 148.1,183.1 134.6,175.3 134.7,156 					"/>
				</g>
				<g id="XMLID_1585_">
					<linearGradient id="XMLID_89_" gradientUnits="userSpaceOnUse" x1="157.6337" y1="173.8697" x2="146.4307" y2="173.573">
						<stop  offset="0" style="stop-color:#ACBEE8"/>
						<stop  offset="1" style="stop-color:#8FA2C6"/>
					</linearGradient>
					<path id="XMLID_1587_" class="st73" d="M148.2,163.8l-0.1,19.4c0.4,0.3,1,0.4,1.6,0.4v-19.4C149.1,164.1,148.6,164,148.2,163.8
						z"/>
					<linearGradient id="XMLID_90_" gradientUnits="userSpaceOnUse" x1="157.635" y1="173.8252" x2="146.4318" y2="173.5285">
						<stop  offset="0" style="stop-color:#ACBEE8"/>
						<stop  offset="1" style="stop-color:#8FA2C6"/>
					</linearGradient>
					<path id="XMLID_1586_" class="st74" d="M149.7,164.2v19.4c0.6,0,1.3-0.1,1.8-0.4l0.1-19.4C151,164.1,150.4,164.2,149.7,164.2z"
						/>
				</g>
				<g id="XMLID_1583_">
					<path id="XMLID_1584_" class="st7" d="M164.9,154c0.9,0.5,0.9,1.4,0,1.9l-13.4,7.8c-0.9,0.5-2.4,0.5-3.4,0l-13.5-7.8
						c-0.9-0.5-0.9-1.4,0-1.9l13.4-7.8c0.9-0.5,2.4-0.5,3.4,0L164.9,154z"/>
				</g>
			</g>
		</g>
		<g id="XMLID_1561_">
			<g id="XMLID_1562_" class="st0">
				<g id="XMLID_1577_">
					<path id="XMLID_1578_" class="st8" d="M162,167.9c0.5-0.3,0.9-0.1,0.9,0.5c0,0.6-0.4,1.3-0.9,1.5l-6.9,4
						c-0.5,0.3-0.9,0.1-0.9-0.5c0-0.6,0.4-1.3,0.9-1.5L162,167.9z M162.1,169.7c0.4-0.2,0.7-0.7,0.7-1.1c0-0.4-0.3-0.6-0.7-0.4
						l-6.9,4c-0.4,0.2-0.7,0.7-0.7,1.1c0,0.4,0.3,0.6,0.7,0.4L162.1,169.7"/>
				</g>
				<g id="XMLID_1575_">
					<path id="XMLID_1576_" class="st9" d="M162.1,168.6c0.2-0.1,0.3,0,0.3,0.2c0,0.2-0.1,0.5-0.3,0.6l-6.9,4
						c-0.2,0.1-0.3,0-0.3-0.2c0-0.2,0.1-0.5,0.3-0.6L162.1,168.6z"/>
				</g>
				<g id="XMLID_1571_">
					<path id="XMLID_1572_" class="st8" d="M162,165.2c0.5-0.3,0.9-0.1,0.9,0.5c0,0.6-0.4,1.3-0.9,1.5l-6.9,4
						c-0.5,0.3-0.9,0.1-0.9-0.5c0-0.6,0.4-1.3,0.9-1.5L162,165.2z M162,167c0.4-0.2,0.7-0.7,0.7-1.1c0-0.4-0.3-0.6-0.7-0.4l-6.9,4
						c-0.4,0.2-0.7,0.7-0.7,1.1c0,0.4,0.3,0.6,0.7,0.4L162,167"/>
				</g>
				<g id="XMLID_1569_">
					<path id="XMLID_1570_" class="st9" d="M162,165.9c0.2-0.1,0.3,0,0.3,0.2c0,0.2-0.1,0.5-0.3,0.6l-6.9,4c-0.2,0.1-0.3,0-0.3-0.2
						c0-0.2,0.1-0.5,0.3-0.6L162,165.9z"/>
				</g>
				<g id="XMLID_1567_">
					<path id="XMLID_1568_" class="st9" d="M162,163.2c0.2-0.1,0.3,0,0.3,0.2c0,0.2-0.1,0.5-0.3,0.6l-6.9,4c-0.2,0.1-0.3,0-0.3-0.2
						c0-0.2,0.1-0.5,0.3-0.6L162,163.2z"/>
				</g>
				<g id="XMLID_1563_">
					<path id="XMLID_1564_" class="st8" d="M162,162.6c0.5-0.3,0.9-0.1,0.9,0.5c0,0.6-0.4,1.3-0.9,1.5l-6.9,4
						c-0.5,0.3-0.9,0.1-0.9-0.5c0-0.6,0.4-1.3,0.9-1.5L162,162.6z M162,164.3c0.4-0.2,0.7-0.7,0.7-1.1c0-0.4-0.3-0.6-0.7-0.4l-6.9,4
						c-0.4,0.2-0.7,0.7-0.7,1.1c0,0.4,0.3,0.6,0.7,0.4L162,164.3"/>
				</g>
			</g>
		</g>
		<g id="XMLID_1544_">
			<g id="XMLID_1559_">
				<polygon id="XMLID_1560_" class="st9" points="138.3,163.7 138.3,164.6 139.6,165.3 139.6,164.4 				"/>
			</g>
			<g id="XMLID_1557_">
				<polygon id="XMLID_1558_" class="st9" points="138.3,162.3 138.3,163.2 139.6,164 139.6,163.1 				"/>
			</g>
			<g id="XMLID_1553_">
				<path id="XMLID_1554_" class="st8" d="M144.8,171.7l-4.4-2.5l0-5.7l4.4,2.5L144.8,171.7z M140.8,169l3.8,2.2l0-5.1l-3.8-2.2
					L140.8,169"/>
			</g>
			<g id="XMLID_1549_">
				<path id="XMLID_1550_" class="st8" d="M145.6,164.6c0.5,0.3,0.9,1,0.9,1.6l0,9.3c0,0.6-0.4,0.8-0.9,0.5l-8.1-4.7
					c-0.5-0.3-0.9-1-0.9-1.6l0-9.3c0-0.6,0.4-0.8,0.9-0.5L145.6,164.6z M136.8,169.9c0,0.4,0.3,1,0.7,1.2l8.1,4.7
					c0.4,0.2,0.7,0,0.7-0.4l0-9.3c0-0.4-0.3-1-0.7-1.2l-8.1-4.7c-0.4-0.2-0.7,0-0.7,0.4L136.8,169.9"/>
			</g>
			<g id="XMLID_1547_">
				<path id="XMLID_1548_" class="st9" d="M138.4,169.9c-0.1-0.1-0.2,0-0.2,0.1c0,0.1,0.1,0.3,0.2,0.3l6.3,3.6
					c0.1,0.1,0.2,0,0.2-0.1c0-0.1-0.1-0.3-0.2-0.3L138.4,169.9z"/>
			</g>
			<g id="XMLID_1545_">
				<path id="XMLID_1546_" class="st9" d="M138.4,168.9c-0.1-0.1-0.2,0-0.2,0.1c0,0.1,0.1,0.3,0.2,0.3l6.3,3.6
					c0.1,0.1,0.2,0,0.2-0.1s-0.1-0.3-0.2-0.3L138.4,168.9z"/>
			</g>
		</g>
		<g id="XMLID_1529_">
			<g id="XMLID_1542_">
				<polygon id="XMLID_1543_" class="st9" points="159.2,155 149.8,160.5 140.3,155 149.7,149.5 				"/>
			</g>
			<g id="XMLID_1540_">
				<polygon id="XMLID_1541_" class="st9" points="163.6,155 162.7,155.6 161.8,155 162.7,154.5 				"/>
			</g>
			<g id="XMLID_1538_">
				<polygon id="XMLID_1539_" class="st9" points="150.7,147.5 149.7,148.1 148.8,147.5 149.7,147 				"/>
			</g>
			<g id="XMLID_1536_">
				<polygon id="XMLID_1537_" class="st9" points="150.7,162.5 149.8,163.1 148.9,162.5 149.8,162 				"/>
			</g>
			<g id="XMLID_1534_">
				<polygon id="XMLID_1535_" class="st9" points="137.8,155 136.8,155.6 135.9,155 136.8,154.5 				"/>
			</g>
			<g id="XMLID_1530_">
				<path id="XMLID_1531_" class="st9" d="M149.7,148.1l12,6.9l-12,6.9l-12-6.9L149.7,148.1z M149.8,160.5l9.4-5.5l-9.5-5.5
					l-9.4,5.5L149.8,160.5"/>
			</g>
		</g>
		<path id="XMLID_1528_" class="st9" d="M165,172.4c0,0-0.1,0.1-0.1,0.1l-13.4,7.8c-0.9,0.5-2.4,0.5-3.4,0l-13.5-7.8
			c-0.1,0-0.1-0.1-0.2-0.1c-0.4-0.3-0.5-0.6-0.5-0.9v1.7c0,0.4,0.2,0.7,0.7,1l13.5,7.8c0.9,0.5,2.4,0.5,3.4,0l13.4-7.8
			c0.5-0.3,0.7-0.6,0.7-1v0v-1.7C165.6,171.9,165.4,172.2,165,172.4z"/>
	</g>
	<g id="XMLID_1483_">
		<g id="XMLID_1518_" class="st0">
			<g id="XMLID_1525_">
				<path id="XMLID_1526_" class="st22" d="M149.3,157.8c0.1-0.1,0.4-0.1,0.5,0c0.1,0.1,0.1,0.2,0,0.3l-1.5,0.9
					c-0.1,0.1-0.4,0.1-0.5,0c-0.1-0.1-0.1-0.2,0-0.3L149.3,157.8z"/>
			</g>
			<g id="XMLID_1523_">
				<path id="XMLID_1524_" class="st22" d="M151.7,157.6c0.1-0.1,0.4-0.1,0.5,0c0.1,0.1,0.1,0.2,0,0.3l-2.9,1.7
					c-0.1,0.1-0.4,0.1-0.5,0c-0.1-0.1-0.1-0.2,0-0.3L151.7,157.6z"/>
			</g>
			<g id="XMLID_1521_">
				<path id="XMLID_1522_" class="st22" d="M151.2,156.6c0.1-0.1,0.4-0.1,0.5,0c0.1,0.1,0.1,0.2,0,0.3l-0.6,0.4
					c-0.1,0.1-0.4,0.1-0.5,0c-0.1-0.1-0.1-0.2,0-0.3L151.2,156.6z"/>
			</g>
			<g id="XMLID_1519_">
				<path id="XMLID_1520_" class="st22" d="M150.6,155.8c0.1-0.1,0.4-0.1,0.5,0c0.1,0.1,0.1,0.2,0,0.3l-3.8,2.3
					c-0.1,0.1-0.4,0.1-0.5,0c-0.1-0.1-0.1-0.2,0-0.3L150.6,155.8z"/>
			</g>
		</g>
		<g id="XMLID_1516_">
			<path id="XMLID_1517_" class="st22" d="M152.4,154.7c0.1-0.1,0.4-0.1,0.5,0c0.1,0.1,0.1,0.2,0,0.3l-0.6,0.4
				c-0.1,0.1-0.4,0.1-0.5,0c-0.1-0.1-0.1-0.2,0-0.3L152.4,154.7z"/>
		</g>
		<g id="XMLID_1514_">
			<path id="XMLID_1515_" class="st22" d="M155.2,153.1c0.1-0.1,0.4-0.1,0.5,0c0.1,0.1,0.1,0.2,0,0.3l-1.5,0.9
				c-0.1,0.1-0.4,0.1-0.5,0c-0.1-0.1-0.1-0.2,0-0.3L155.2,153.1z"/>
		</g>
		<g id="XMLID_1512_">
			<path id="XMLID_1513_" class="st22" d="M156.3,153.7c0.1-0.1,0.4-0.1,0.5,0c0.1,0.1,0.1,0.2,0,0.3l-3.8,2.3
				c-0.1,0.1-0.4,0.1-0.5,0c-0.1-0.1-0.1-0.2,0-0.3L156.3,153.7z"/>
		</g>
		<g id="XMLID_1510_">
			<path id="XMLID_1511_" class="st22" d="M154.4,156c0.1-0.1,0.4-0.1,0.5,0c0.1,0.1,0.1,0.2,0,0.3l-1.6,0.9c-0.1,0.1-0.4,0.1-0.5,0
				c-0.1-0.1-0.1-0.2,0-0.3L154.4,156z"/>
		</g>
		<g id="XMLID_1508_">
			<path id="XMLID_1509_" class="st22" d="M145.5,152.9c0.1-0.1,0.4-0.1,0.5,0c0.1,0.1,0.1,0.2,0,0.3l-3.8,2.3
				c-0.1,0.1-0.4,0.1-0.5,0c-0.1-0.1-0.1-0.2,0-0.3L145.5,152.9z"/>
		</g>
		<g id="XMLID_1506_">
			<path id="XMLID_1507_" class="st22" d="M147.3,151.8c0.1-0.1,0.4-0.1,0.5,0c0.1,0.1,0.1,0.2,0,0.3l-0.6,0.4
				c-0.1,0.1-0.4,0.1-0.5,0c-0.1-0.1-0.1-0.2,0-0.3L147.3,151.8z"/>
		</g>
		<g id="XMLID_1504_">
			<path id="XMLID_1505_" class="st22" d="M150.1,150.2c0.1-0.1,0.4-0.1,0.5,0c0.1,0.1,0.1,0.2,0,0.3l-1.5,0.9
				c-0.1,0.1-0.4,0.1-0.5,0c-0.1-0.1-0.1-0.2,0-0.3L150.1,150.2z"/>
		</g>
		<g id="XMLID_1502_">
			<path id="XMLID_1503_" class="st22" d="M149.2,153.1c0.1-0.1,0.4-0.1,0.5,0c0.1,0.1,0.1,0.2,0,0.3l-1.6,0.9
				c-0.1,0.1-0.4,0.1-0.5,0c-0.1-0.1-0.1-0.2,0-0.3L149.2,153.1z"/>
		</g>
		<g id="XMLID_1500_">
			<path id="XMLID_1501_" class="st22" d="M151.2,150.8c0.1-0.1,0.4-0.1,0.5,0c0.1,0.1,0.1,0.2,0,0.3l-3.8,2.3
				c-0.1,0.1-0.4,0.1-0.5,0c-0.1-0.1-0.1-0.2,0-0.3L151.2,150.8z"/>
		</g>
		<g id="XMLID_1498_">
			<path id="XMLID_1499_" class="st22" d="M146.1,153.8c0.1-0.1,0.4-0.1,0.5,0c0.1,0.1,0.1,0.2,0,0.3l-0.6,0.4
				c-0.1,0.1-0.4,0.1-0.5,0c-0.1-0.1-0.1-0.2,0-0.3L146.1,153.8z"/>
		</g>
		<g id="XMLID_1490_">
			<path id="XMLID_1492_" class="st22" d="M146.6,154.7c0.1-0.1,0.4-0.1,0.5,0c0.1,0.1,0.1,0.2,0,0.3l-2.9,1.7
				c-0.1,0.1-0.4,0.1-0.5,0c-0.1-0.1-0.1-0.2,0-0.3L146.6,154.7z"/>
		</g>
		<g id="XMLID_1484_">
			<path id="XMLID_1486_" class="st22" d="M144.2,154.9c0.1-0.1,0.4-0.1,0.5,0c0.1,0.1,0.1,0.2,0,0.3l-1.5,0.9
				c-0.1,0.1-0.4,0.1-0.5,0c-0.1-0.1-0.1-0.2,0-0.3L144.2,154.9z"/>
		</g>
	</g>
</g>
<g id="XMLID_1_">
	<path id="XMLID_3_" class="st75" d="M131.7,238.4c0,0.5-0.2,0.9-0.6,1.2c-0.4,0.3-0.9,0.4-1.5,0.4c-0.7,0-1.2-0.1-1.6-0.3v-0.7
		c0.2,0.1,0.5,0.2,0.8,0.2c0.3,0.1,0.6,0.1,0.8,0.1c0.5,0,0.8-0.1,1-0.3c0.2-0.2,0.3-0.4,0.3-0.7c0-0.2,0-0.4-0.1-0.5
		c-0.1-0.1-0.2-0.2-0.4-0.4c-0.2-0.1-0.5-0.2-0.9-0.4c-0.5-0.2-0.9-0.4-1.2-0.7c-0.2-0.3-0.3-0.6-0.3-1c0-0.5,0.2-0.8,0.5-1.1
		c0.3-0.3,0.8-0.4,1.3-0.4c0.6,0,1.1,0.1,1.6,0.3l-0.2,0.6c-0.5-0.2-1-0.3-1.4-0.3c-0.4,0-0.6,0.1-0.8,0.2c-0.2,0.2-0.3,0.4-0.3,0.6
		c0,0.2,0,0.4,0.1,0.5c0.1,0.1,0.2,0.2,0.4,0.4c0.2,0.1,0.4,0.2,0.8,0.4c0.6,0.2,1,0.5,1.3,0.7C131.6,237.6,131.7,238,131.7,238.4z"
		/>
	<path id="XMLID_5_" class="st75" d="M132.9,239.9v-5.8h0.7v5.8H132.9z"/>
	<path id="XMLID_7_" class="st75" d="M139.9,236.9c0,1-0.3,1.7-0.8,2.2c-0.5,0.5-1.3,0.8-2.3,0.8h-1.6v-5.8h1.8
		c0.9,0,1.6,0.3,2.1,0.8C139.6,235.3,139.9,236,139.9,236.9z M139.1,237c0-0.8-0.2-1.3-0.6-1.7c-0.4-0.4-1-0.6-1.7-0.6h-1v4.7h0.8
		c0.8,0,1.4-0.2,1.8-0.6C138.9,238.3,139.1,237.7,139.1,237z"/>
	<path id="XMLID_10_" class="st75" d="M144.4,239.9h-3.3v-5.8h3.3v0.6h-2.6v1.9h2.4v0.6h-2.4v2.2h2.6V239.9z"/>
	<path id="XMLID_12_" class="st75" d="M150.4,234.6c-0.6,0-1.1,0.2-1.5,0.6s-0.6,1-0.6,1.8c0,0.8,0.2,1.4,0.5,1.8
		c0.4,0.4,0.9,0.6,1.5,0.6c0.4,0,0.9-0.1,1.4-0.2v0.6c-0.4,0.2-0.9,0.2-1.5,0.2c-0.9,0-1.5-0.3-2-0.8c-0.5-0.5-0.7-1.3-0.7-2.2
		c0-0.6,0.1-1.1,0.3-1.6c0.2-0.5,0.6-0.8,1-1c0.4-0.2,0.9-0.4,1.5-0.4c0.6,0,1.1,0.1,1.6,0.3l-0.3,0.6
		C151.2,234.7,150.8,234.6,150.4,234.6z"/>
	<path id="XMLID_14_" class="st75" d="M157.5,239.9h-0.7v-2.8h-3.1v2.8H153v-5.8h0.7v2.5h3.1v-2.5h0.7V239.9z"/>
	<path id="XMLID_16_" class="st75" d="M162.7,239.9l-0.7-1.9h-2.3l-0.7,1.9h-0.7l2.3-5.9h0.6l2.3,5.9H162.7z M161.8,237.4l-0.7-1.8
		c-0.1-0.2-0.2-0.5-0.3-0.8c-0.1,0.3-0.1,0.5-0.3,0.8l-0.7,1.8H161.8z"/>
	<path id="XMLID_19_" class="st75" d="M164.2,239.9v-5.8h0.7v5.8H164.2z"/>
	<path id="XMLID_21_" class="st75" d="M171.1,239.9h-0.8l-3.2-4.9h0c0,0.6,0.1,1.1,0.1,1.6v3.3h-0.6v-5.8h0.8l3.2,4.9h0
		c0-0.1,0-0.3,0-0.7c0-0.4,0-0.7,0-0.8v-3.4h0.6V239.9z"/>
</g>
</svg>
