<?xml version="1.0" encoding="utf-8"?>
<!-- Generator: Adobe Illustrator 19.0.0, SVG Export Plug-In . SVG Version: 6.00 Build 0)  -->
<svg version="1.1" id="图层_1" xmlns="http://www.w3.org/2000/svg" xmlns:xlink="http://www.w3.org/1999/xlink" x="0px" y="0px"
	 viewBox="-107 320.9 380 200" style="enable-background:new -107 320.9 380 200;" xml:space="preserve">
<style type="text/css">
	.st0{opacity:0.9;}
	.st1{fill:#D19824;}
	.st2{opacity:0.5;fill:#D19824;enable-background:new    ;}
	.st3{fill:#FFCC00;}
	.st4{opacity:0.5;}
	.st5{fill:#808080;}
</style>
<g id="XMLID_4701_" class="st0">
	<g id="XMLID_5038_">
		<path id="XMLID_5039_" class="st1" d="M83.1,341l-8.5,4.7h-0.1v10.2l8.6,5.1l8.5-5h0.1v-10.3L83.1,341z M83.1,341.7l7.6,4.2
			l-7.6,4.6l-7.6-4.6L83.1,341.7z M91,355.5l-7.9,4.7l-7.9-4.7v-9.1l7.9,4.8l7.9-4.8V355.5z"/>
	</g>
	<path id="XMLID_5034_" class="st2" d="M83.1,373.7l-14.3,8h-0.1v17.1l14.3,8.5h0.1l14.3-8.5h0.1v-17.1L83.1,373.7z M69.5,382.7
		l13.6,8.2l13.6-8.2v15.6l-13.6,8l-13.6-8V382.7z M83.1,389.9L69.9,382l13.2-7.3l13.1,7.3L83.1,389.9z"/>
	<path id="XMLID_5030_" class="st1" d="M87,323.1l-0.1-0.1l-3.8-2.1l-4.1,2.3v4.8l4.1,2.4l4.1-2.4v-4.8L87,323.1z M83.1,321.6
		l3.2,1.8l-3.2,1.9l-3.2-1.9L83.1,321.6z M86.6,327.7l-3.5,2.1l-3.5-2.1v-3.8l3.5,2.1l3.5-2.1V327.7z"/>
	<path id="XMLID_5026_" class="st1" d="M86.7,358.8l-1.4,0.8l24.7,13.7l-26.9,16.2l-26.9-16.2l24.7-13.7l-1.4-0.8l-25.3,14h-0.1
		v34.4L83,424.3h0.1l28.9-17h0.1v-34.4L86.7,358.8z M82.3,422.3l-26.8-15.9v-31.9l26.8,16.1V422.3z M110.7,406.4l-26.8,15.9v-31.7
		l26.8-16.2V406.4z"/>
	<g id="XMLID_5024_">
		<path id="XMLID_5025_" class="st3" d="M29.6,421.7c-0.2,0-0.3-0.1-0.4-0.2c-0.1-0.2-0.1-0.5,0.2-0.6l47.5-28.2
			c0.2-0.1,0.5-0.1,0.6,0.2c0.1,0.2,0.1,0.5-0.2,0.6l-47.5,28.2C29.7,421.7,29.6,421.7,29.6,421.7z"/>
	</g>
	<g id="XMLID_5022_">
		<path id="XMLID_5023_" class="st3" d="M136.3,420.9c-0.1,0-0.2,0-0.2-0.1l-47.5-28.2c-0.2-0.1-0.3-0.4-0.2-0.6
			c0.1-0.2,0.4-0.3,0.6-0.2l47.5,28.2c0.2,0.1,0.3,0.4,0.2,0.6C136.6,420.8,136.5,420.9,136.3,420.9z"/>
	</g>
	<g id="XMLID_5014_">
		<path id="XMLID_5015_" class="st1" d="M83.1,346.1c-0.2,0-0.4-0.2-0.4-0.4v-0.1c0-0.2,0.2-0.4,0.4-0.4s0.4,0.2,0.4,0.4v0.1
			C83.5,345.9,83.3,346.1,83.1,346.1z M83.1,343.1c-0.2,0-0.4-0.2-0.4-0.4v-0.1c0-0.2,0.2-0.4,0.4-0.4s0.4,0.2,0.4,0.4v0.1
			C83.5,342.9,83.3,343.1,83.1,343.1z M83.1,340.1c-0.2,0-0.4-0.2-0.4-0.4v-0.1c0-0.2,0.2-0.4,0.4-0.4s0.4,0.2,0.4,0.4v0.1
			C83.5,339.9,83.3,340.1,83.1,340.1z M83.1,337.1c-0.2,0-0.4-0.2-0.4-0.4v-0.1c0-0.2,0.2-0.4,0.4-0.4s0.4,0.2,0.4,0.4v0.1
			C83.5,336.9,83.3,337.1,83.1,337.1z M83.1,334.1c-0.2,0-0.4-0.2-0.4-0.4v-0.1c0-0.2,0.2-0.4,0.4-0.4s0.4,0.2,0.4,0.4v0.1
			C83.5,333.9,83.3,334.1,83.1,334.1z M83.1,331.1c-0.2,0-0.4-0.2-0.4-0.4v-0.1c0-0.2,0.2-0.4,0.4-0.4s0.4,0.2,0.4,0.4v0.1
			C83.5,330.9,83.3,331.1,83.1,331.1z"/>
	</g>
	<g id="XMLID_5012_">
		<path id="XMLID_5013_" class="st1" d="M83.1,383.1c-0.2,0-0.4-0.2-0.4-0.4v-21.4c0-0.2,0.2-0.4,0.4-0.4s0.4,0.2,0.4,0.4v21.4
			C83.5,382.9,83.3,383.1,83.1,383.1z"/>
	</g>
	<g id="XMLID_5007_">
		<path id="XMLID_5008_" class="st1" d="M143.5,375.4l-8.5,4.7h-0.1v10.1l8.6,5.1l8.5-5h0.1v-10.1L143.5,375.4z M143.5,376.1
			l7.6,4.2l-7.6,4.6l-7.6-4.6L143.5,376.1z M151.5,390l-7.9,4.7l-7.9-4.7v-9.1l7.9,4.8l7.9-4.8V390z"/>
	</g>
	<path id="XMLID_5003_" class="st1" d="M143.5,408.2l-14.3,8h-0.1v17.1l14.3,8.5h0.1l14.3-8.5h0.1v-17.1L143.5,408.2z M130,417.2
		l13.6,8.2l13.6-8.2v15.6l-13.6,8l-13.6-8V417.2z M143.5,424.4l-13.2-7.9l13.2-7.3l13.1,7.3L143.5,424.4z"/>
	<g id="XMLID_5001_">
		<path id="XMLID_5002_" class="st3" d="M89.2,456.7c-0.2,0-0.3-0.1-0.4-0.2c-0.1-0.2-0.1-0.5,0.2-0.6l47.5-28.2
			c0.2-0.1,0.5-0.1,0.6,0.2c0.1,0.2,0.1,0.5-0.2,0.6l-47.5,28.2C89.3,456.7,89.2,456.7,89.2,456.7z"/>
	</g>
	<g id="XMLID_4999_">
		<path id="XMLID_5000_" class="st3" d="M197.1,456.8c-0.1,0-0.2,0-0.2-0.1l-47.5-28.2c-0.2-0.1-0.3-0.4-0.2-0.6
			c0.1-0.2,0.4-0.3,0.6-0.2l47.5,28.2c0.2,0.1,0.3,0.4,0.2,0.6C197.4,456.8,197.2,456.8,197.1,456.8z"/>
	</g>
	<g id="XMLID_4989_">
		<path id="XMLID_4990_" class="st1" d="M143.5,417.6c-0.2,0-0.4-0.2-0.4-0.4v-0.1c0-0.2,0.2-0.4,0.4-0.4s0.4,0.2,0.4,0.4v0.1
			C144,417.4,143.8,417.6,143.5,417.6z M143.5,414.6c-0.2,0-0.4-0.2-0.4-0.4v-0.1c0-0.2,0.2-0.4,0.4-0.4s0.4,0.2,0.4,0.4v0.1
			C144,414.4,143.8,414.6,143.5,414.6z M143.5,411.6c-0.2,0-0.4-0.2-0.4-0.4v-0.1c0-0.2,0.2-0.4,0.4-0.4s0.4,0.2,0.4,0.4v0.1
			C144,411.4,143.8,411.6,143.5,411.6z M143.5,408.6c-0.2,0-0.4-0.2-0.4-0.4v-0.1c0-0.2,0.2-0.4,0.4-0.4s0.4,0.2,0.4,0.4v0.1
			C144,408.4,143.8,408.6,143.5,408.6z M143.5,405.6c-0.2,0-0.4-0.2-0.4-0.4v-0.1c0-0.2,0.2-0.4,0.4-0.4s0.4,0.2,0.4,0.4v0.1
			C144,405.4,143.8,405.6,143.5,405.6z M143.5,402.6c-0.2,0-0.4-0.2-0.4-0.4v-0.1c0-0.2,0.2-0.4,0.4-0.4s0.4,0.2,0.4,0.4v0.1
			C144,402.4,143.8,402.6,143.5,402.6z M143.5,399.5c-0.2,0-0.4-0.2-0.4-0.4V399c0-0.2,0.2-0.4,0.4-0.4s0.4,0.2,0.4,0.4v0.1
			C144,399.4,143.8,399.5,143.5,399.5z M143.5,396.5c-0.2,0-0.4-0.2-0.4-0.4V396c0-0.2,0.2-0.4,0.4-0.4s0.4,0.2,0.4,0.4v0.1
			C144,396.3,143.8,396.5,143.5,396.5z"/>
	</g>
	<g id="XMLID_4987_">
		<path id="XMLID_4988_" class="st3" d="M77.3,455.7c-0.1,0-0.2,0-0.2-0.1l-47.5-28.2c-0.2-0.1-0.3-0.4-0.2-0.6
			c0.1-0.2,0.4-0.3,0.6-0.2l47.5,28.2c0.2,0.1,0.3,0.4,0.2,0.6C77.6,455.6,77.5,455.7,77.3,455.7z"/>
	</g>
	<path id="XMLID_4983_" class="st2" d="M84.2,442.6l-14.3,8h-0.1v17.1l14.3,8.5h0.1l14.3-8.5h0.1v-17.1L84.2,442.6z M70.7,451.6
		l13.6,8.2l13.6-8.2v15.6l-13.6,8l-13.6-8V451.6z M84.2,458.8L71,450.9l13.2-7.3l13.1,7.3L84.2,458.8z"/>
	<g id="XMLID_4981_">
		<path id="XMLID_4982_" class="st3" d="M29.8,491.1c-0.2,0-0.3-0.1-0.4-0.2c-0.1-0.2-0.1-0.5,0.2-0.6l47.5-28.2
			c0.2-0.1,0.5-0.1,0.6,0.2c0.1,0.2,0.1,0.5-0.2,0.6L30,491.1C30,491.1,29.9,491.1,29.8,491.1z"/>
	</g>
	<g id="XMLID_4979_">
		<path id="XMLID_4980_" class="st3" d="M137.2,491c-0.1,0-0.2,0-0.2-0.1l-47.5-28.2c-0.2-0.1-0.3-0.4-0.2-0.6
			c0.1-0.2,0.4-0.3,0.6-0.2l47.5,28.2c0.2,0.1,0.3,0.4,0.2,0.6S137.3,491,137.2,491z"/>
	</g>
	<g id="XMLID_4971_">
		<path id="XMLID_4972_" class="st1" d="M84.2,452c-0.2,0-0.4-0.2-0.4-0.4v-0.1c0-0.2,0.2-0.4,0.4-0.4s0.4,0.2,0.4,0.4v0.1
			C84.6,451.8,84.5,452,84.2,452z M84.2,449c-0.2,0-0.4-0.2-0.4-0.4v-0.1c0-0.2,0.2-0.4,0.4-0.4s0.4,0.2,0.4,0.4v0.1
			C84.7,448.8,84.5,449,84.2,449z M84.2,446c-0.2,0-0.4-0.2-0.4-0.4v-0.1c0-0.2,0.2-0.4,0.4-0.4s0.4,0.2,0.4,0.4v0.1
			C84.7,445.8,84.5,446,84.2,446z M84.2,443c-0.2,0-0.4-0.2-0.4-0.4v-0.1c0-0.2,0.2-0.4,0.4-0.4s0.4,0.2,0.4,0.4v0.1
			C84.7,442.8,84.5,443,84.2,443z M84.2,440c-0.2,0-0.4-0.2-0.4-0.4v-0.1c0-0.2,0.2-0.4,0.4-0.4s0.4,0.2,0.4,0.4v0.1
			C84.7,439.8,84.5,440,84.2,440z"/>
	</g>
	<g id="XMLID_4931_">
		<path id="XMLID_4938_" class="st1" d="M23.5,375.4l-8.5,4.7h-0.1v10.1l8.6,5.1l8.5-5h0.1v-10.1L23.5,375.4z M23.5,376.1l7.6,4.2
			l-7.6,4.6l-7.6-4.6L23.5,376.1z M31.5,390l-7.9,4.7l-7.9-4.7v-9.1l7.9,4.8l7.9-4.8V390z"/>
	</g>
	<path id="XMLID_4927_" class="st1" d="M23.5,408.2l-14.3,8H9.1v17.1l14.3,8.5h0.1l14.3-8.5h0.1v-17.1L23.5,408.2z M9.9,417.2
		l13.6,8.2l13.6-8.2v15.6l-13.6,8l-13.6-8V417.2z M23.5,424.4l-13.2-7.9l13.2-7.3l13.1,7.3L23.5,424.4z"/>
	<path id="XMLID_4839_" class="st1" d="M86.9,436.6l-1,0.6l17.8,9.9l-19.4,11.7l-19.5-11.7l17.8-9.9l-1-0.6l-18.3,10.2h-0.1v24.8
		L84.1,484h0.1l20.9-12.4h0.1v-24.8L86.9,436.6z M83.7,482.6l-19.4-11.5V448l19.4,11.7V482.6z M104.2,471.1l-19.4,11.5v-22.9
		l19.4-11.7V471.1z"/>
	<g id="XMLID_4837_">
		<path id="XMLID_4838_" class="st3" d="M-30.9,456.9c-0.1,0-0.3-0.1-0.4-0.2c-0.1-0.2-0.1-0.5,0.2-0.6l47.5-28.4
			c0.2-0.1,0.5-0.1,0.6,0.2c0.1,0.2,0.1,0.5-0.2,0.6l-47.5,28.4C-30.7,456.9-30.8,456.9-30.9,456.9z"/>
	</g>
	<g id="XMLID_4801_" class="st4">
		<path id="XMLID_4802_" class="st1" d="M23.5,417.6c-0.2,0-0.4-0.2-0.4-0.4v-0.1c0-0.2,0.2-0.4,0.4-0.4s0.4,0.2,0.4,0.4v0.1
			C23.9,417.4,23.7,417.6,23.5,417.6z M23.5,414.6c-0.2,0-0.4-0.2-0.4-0.4v-0.1c0-0.2,0.2-0.4,0.4-0.4s0.4,0.2,0.4,0.4v0.1
			C23.9,414.4,23.7,414.6,23.5,414.6z M23.5,411.6c-0.2,0-0.4-0.2-0.4-0.4v-0.1c0-0.2,0.2-0.4,0.4-0.4s0.4,0.2,0.4,0.4v0.1
			C23.9,411.4,23.7,411.6,23.5,411.6z M23.5,408.6c-0.2,0-0.4-0.2-0.4-0.4v-0.1c0-0.2,0.2-0.4,0.4-0.4s0.4,0.2,0.4,0.4v0.1
			C23.9,408.4,23.7,408.6,23.5,408.6z M23.5,405.6c-0.2,0-0.4-0.2-0.4-0.4v-0.1c0-0.2,0.2-0.4,0.4-0.4s0.4,0.2,0.4,0.4v0.1
			C23.9,405.4,23.7,405.6,23.5,405.6z M23.5,402.6c-0.2,0-0.4-0.2-0.4-0.4v-0.1c0-0.2,0.2-0.4,0.4-0.4s0.4,0.2,0.4,0.4v0.1
			C23.9,402.4,23.7,402.6,23.5,402.6z M23.5,399.5c-0.2,0-0.4-0.2-0.4-0.4V399c0-0.2,0.2-0.4,0.4-0.4s0.4,0.2,0.4,0.4v0.1
			C23.9,399.4,23.7,399.5,23.5,399.5z M23.5,396.5c-0.2,0-0.4-0.2-0.4-0.4V396c0-0.2,0.2-0.4,0.4-0.4s0.4,0.2,0.4,0.4v0.1
			C23.9,396.3,23.7,396.5,23.5,396.5z"/>
	</g>
	<g id="XMLID_4794_">
		<path id="XMLID_4795_" class="st1" d="M137.6,480.9l-8.5,4.7H129v10.1l8.6,5.1l8.5-5h0.1v-10.1L137.6,480.9z M137.6,481.6l7.6,4.2
			l-7.6,4.6l-7.6-4.5L137.6,481.6z M145.5,495.5l-7.9,4.7l-7.9-4.7v-9.1l7.9,4.8l7.9-4.8V495.5z"/>
	</g>
	<g id="XMLID_4789_">
		<path id="XMLID_4790_" class="st1" d="M29.7,480.9l-8.5,4.7h-0.1v10.1l8.6,5.1l8.5-5h0.1v-10.1L29.7,480.9z M29.7,481.6l7.6,4.2
			l-7.6,4.6l-7.6-4.6L29.7,481.6z M37.6,495.5l-7.9,4.7l-7.9-4.7v-9.1l7.9,4.8l7.9-4.8V495.5z"/>
	</g>
	<g id="XMLID_4784_" class="st4">
		<path id="XMLID_4785_" class="st1" d="M-31.1,446.7l-8.5,4.7h-0.1v10.1l8.6,5.1l8.5-5h0.1v-10.1L-31.1,446.7z M-31.1,447.4
			l7.6,4.2l-7.6,4.6l-7.6-4.6L-31.1,447.4z M-23.2,461.2l-7.9,4.7l-7.9-4.7v-9.1l7.9,4.8l7.9-4.8V461.2z"/>
	</g>
	<path id="XMLID_4779_" class="st1" d="M88.1,430.9H88l-3.8-2.1l-4.1,2.3v4.8l4.1,2.4l4.1-2.4v-4.8L88.1,430.9z M84.2,429.5l3.2,1.8
		l-3.2,1.9l-3.2-1.9L84.2,429.5z M87.7,435.5l-3.5,2.1l-3.5-2.1v-3.8l3.5,2.1l3.5-2.1V435.5z"/>
	<g id="XMLID_4773_">
		<path id="XMLID_4774_" class="st1" d="M29.7,486.8c-0.2,0-0.4-0.2-0.4-0.4v-0.1c0-0.2,0.2-0.4,0.4-0.4s0.4,0.2,0.4,0.4v0.1
			C30.1,486.6,29.9,486.8,29.7,486.8z M29.7,483.8c-0.2,0-0.4-0.2-0.4-0.4v-0.1c0-0.2,0.2-0.4,0.4-0.4s0.4,0.2,0.4,0.4v0.1
			C30.1,483.6,29.9,483.8,29.7,483.8z M29.7,480.8c-0.2,0-0.4-0.2-0.4-0.4v-0.1c0-0.2,0.2-0.4,0.4-0.4s0.4,0.2,0.4,0.4v0.1
			C30.1,480.6,29.9,480.8,29.7,480.8z"/>
	</g>
	<path id="XMLID_4768_" class="st1" d="M33.6,471.3l-0.1-0.1l-3.8-2.1l-4.1,2.3v4.8l4.1,2.4l4.1-2.4v-4.8L33.6,471.3z M29.7,469.9
		l3.2,1.8l-3.2,1.9l-3.2-1.9L29.7,469.9z M33.2,475.9l-3.5,2.1l-3.5-2.1v-3.8l3.5,2.1l3.5-2.1V475.9z"/>
	<g id="XMLID_4763_">
		<path id="XMLID_4764_" class="st1" d="M137.6,486.8c-0.2,0-0.4-0.2-0.4-0.4v-0.1c0-0.2,0.2-0.4,0.4-0.4s0.4,0.2,0.4,0.4v0.1
			C138,486.6,137.8,486.8,137.6,486.8z M137.6,483.8c-0.2,0-0.4-0.2-0.4-0.4v-0.1c0-0.2,0.2-0.4,0.4-0.4s0.4,0.2,0.4,0.4v0.1
			C138,483.6,137.8,483.8,137.6,483.8z M137.6,480.8c-0.2,0-0.4-0.2-0.4-0.4v-0.1c0-0.2,0.2-0.4,0.4-0.4s0.4,0.2,0.4,0.4v0.1
			C138,480.6,137.8,480.8,137.6,480.8z"/>
	</g>
	<path id="XMLID_4759_" class="st1" d="M141.5,471.4l-0.1-0.1l-3.8-2.1l-4.1,2.3v4.8l4.1,2.4l4.1-2.4v-4.8L141.5,471.4z
		 M137.6,469.9l3.2,1.8l-3.2,1.9l-3.2-1.9L137.6,469.9z M141.1,476l-3.5,2.1l-3.5-2.1v-3.8l3.5,2.1l3.5-2.1V476z"/>
	<g id="XMLID_4719_" class="st4">
		<path id="XMLID_4720_" class="st1" d="M197.2,446.6l-8.5,4.7h-0.1v10.1l8.6,5.1l8.5-5h0.1v-10.1L197.2,446.6z M197.2,447.4
			l7.6,4.2l-7.6,4.6l-7.6-4.6L197.2,447.4z M205.1,461.2l-7.9,4.7l-7.9-4.7v-9.1l7.9,4.8l7.9-4.8V461.2z"/>
	</g>
	<path id="XMLID_4715_" class="st1" d="M198.8,442.3l-0.6,0.4l11.1,6.2l-12.2,7.3l-12.2-7.3l11.2-6.2l-0.6-0.4l-11.4,6.3l0,0v15.5
		l13.1,7.7l0,0l13.1-7.7l0,0v-15.5L198.8,442.3z M196.8,471.1l-12.1-7.2v-14.4l12.1,7.3V471.1z M209.6,463.9l-12.1,7.2v-14.3
		l12.1-7.3V463.9z"/>
	<path id="XMLID_4711_" class="st1" d="M201.1,436.1L201,436l-3.8-2.1l-4.1,2.3v4.8l4.1,2.4l4.1-2.4v-4.8L201.1,436.1z M197.2,434.6
		l3.2,1.8l-3.2,1.9l-3.2-1.9L197.2,434.6z M200.7,440.7l-3.5,2.1l-3.5-2.1v-3.8l3.5,2.1l3.5-2.1V440.7z"/>
	<g id="XMLID_4706_">
		<path id="XMLID_4707_" class="st1" d="M197.2,451.8c-0.2,0-0.4-0.2-0.4-0.4v-0.1c0-0.2,0.2-0.4,0.4-0.4c0.2,0,0.4,0.2,0.4,0.4v0.1
			C197.6,451.6,197.4,451.8,197.2,451.8z M197.2,448.8c-0.2,0-0.4-0.2-0.4-0.4v-0.1c0-0.2,0.2-0.4,0.4-0.4c0.2,0,0.4,0.2,0.4,0.4
			v0.1C197.6,448.6,197.4,448.8,197.2,448.8z M197.2,445.8c-0.2,0-0.4-0.2-0.4-0.4v-0.1c0-0.2,0.2-0.4,0.4-0.4
			c0.2,0,0.4,0.2,0.4,0.4v0.1C197.6,445.6,197.4,445.8,197.2,445.8z"/>
	</g>
	<path id="XMLID_4702_" class="st1" d="M-29.5,442.3l-0.6,0.4l11.1,6.2l-12.2,7.3l-12.1-7.3l11.2-6.2l-0.6-0.4l-11.4,6.3l0,0v15.5
		l13.1,7.7l0,0l13.1-7.7l0,0v-15.5L-29.5,442.3z M-31.5,471l-12.1-7.1v-14.4l12.1,7.3V471z M-18.6,463.9l-12.1,7.2v-14.3l12.1-7.3
		V463.9z"/>
</g>
<g id="XMLID_3_">
	<path id="XMLID_4_" class="st5" d="M54,520.7h-6.4v-11.4H54v1.2h-5v3.7h4.7v1.2H49v4.2h5V520.7z"/>
	<path id="XMLID_6_" class="st5" d="M59.1,519.8c0.2,0,0.5,0,0.7-0.1c0.2,0,0.4-0.1,0.5-0.1v1c-0.1,0.1-0.3,0.1-0.6,0.2
		s-0.5,0.1-0.7,0.1c-1.7,0-2.5-0.9-2.5-2.6v-5.1h-1.2v-0.6l1.2-0.5l0.5-1.8h0.8v2h2.5v1h-2.5v5c0,0.5,0.1,0.9,0.4,1.2
		C58.4,519.7,58.7,519.8,59.1,519.8z"/>
	<path id="XMLID_8_" class="st5" d="M67.9,520.7v-5.5c0-0.7-0.2-1.2-0.5-1.6c-0.3-0.3-0.8-0.5-1.5-0.5c-0.9,0-1.6,0.2-2,0.7
		s-0.6,1.3-0.6,2.4v4.5H62v-12.2h1.3v3.7c0,0.4,0,0.8-0.1,1.1h0.1c0.3-0.4,0.6-0.7,1.1-1c0.5-0.2,1-0.4,1.6-0.4c1,0,1.8,0.2,2.4,0.7
		s0.8,1.3,0.8,2.4v5.6L67.9,520.7L67.9,520.7z"/>
	<path id="XMLID_10_" class="st5" d="M75.4,520.9c-1.3,0-2.3-0.4-3-1.2s-1.1-1.8-1.1-3.2c0-1.4,0.3-2.5,1-3.3s1.6-1.2,2.7-1.2
		c1.1,0,1.9,0.4,2.5,1.1s0.9,1.6,0.9,2.8v0.8h-5.9c0,1,0.3,1.8,0.8,2.3s1.2,0.8,2,0.8c0.9,0,1.8-0.2,2.7-0.6v1.2
		c-0.5,0.2-0.9,0.3-1.3,0.4C76.3,520.9,76,520.9,75.4,520.9z M75.1,513.1c-0.7,0-1.2,0.2-1.6,0.7s-0.6,1.1-0.7,1.9h4.5
		c0-0.8-0.2-1.4-0.5-1.9S75.8,513.1,75.1,513.1z"/>
	<path id="XMLID_13_" class="st5" d="M84.7,512c0.4,0,0.7,0,1,0.1l-0.2,1.2c-0.4-0.1-0.7-0.1-0.9-0.1c-0.7,0-1.3,0.3-1.8,0.8
		s-0.7,1.3-0.7,2.1v4.6h-1.3v-8.6h1.1l0.1,1.6h0.1c0.3-0.6,0.7-1,1.1-1.3S84.2,512,84.7,512z"/>
	<path id="XMLID_15_" class="st5" d="M91,520.9c-1.3,0-2.3-0.4-3-1.2s-1.1-1.8-1.1-3.2c0-1.4,0.3-2.5,1-3.3s1.6-1.2,2.7-1.2
		c1.1,0,1.9,0.4,2.5,1.1s0.9,1.6,0.9,2.8v0.8h-5.9c0,1,0.3,1.8,0.8,2.3s1.2,0.8,2,0.8c0.9,0,1.8-0.2,2.7-0.6v1.2
		c-0.5,0.2-0.9,0.3-1.3,0.4C91.9,520.9,91.5,520.9,91,520.9z M90.6,513.1c-0.7,0-1.2,0.2-1.6,0.7s-0.6,1.1-0.7,1.9h4.5
		c0-0.8-0.2-1.4-0.5-1.9S91.3,513.1,90.6,513.1z"/>
	<path id="XMLID_18_" class="st5" d="M97.5,512.2v5.6c0,0.7,0.2,1.2,0.5,1.6s0.8,0.5,1.5,0.5c0.9,0,1.6-0.2,2-0.7s0.6-1.3,0.6-2.4
		v-4.5h1.3v8.6h-1.1l-0.2-1.1H102c-0.3,0.4-0.6,0.7-1.1,1s-1,0.3-1.6,0.3c-1,0-1.8-0.2-2.3-0.7s-0.8-1.3-0.8-2.4v-5.6h1.3V512.2z"/>
	<path id="XMLID_20_" class="st5" d="M117,520.7v-5.6c0-0.7-0.1-1.2-0.4-1.5c-0.3-0.3-0.7-0.5-1.4-0.5c-0.8,0-1.4,0.2-1.8,0.7
		s-0.6,1.2-0.6,2.1v4.8h-1.3v-5.6c0-0.7-0.1-1.2-0.4-1.5c-0.3-0.3-0.7-0.5-1.4-0.5c-0.8,0-1.4,0.2-1.8,0.7s-0.6,1.3-0.6,2.4v4.5H106
		v-8.6h1.1l0.2,1.2h0.1c0.2-0.4,0.6-0.7,1-1s0.9-0.4,1.5-0.4c1.3,0,2.2,0.5,2.6,1.5h0.1c0.3-0.4,0.6-0.8,1.1-1.1s1-0.4,1.7-0.4
		c1,0,1.7,0.2,2.2,0.7s0.7,1.3,0.7,2.4v5.6H117V520.7z"/>
</g>
</svg>
