<?xml version="1.0" encoding="utf-8"?>
<!-- Generator: Adobe Illustrator 19.0.0, SVG Export Plug-In . SVG Version: 6.00 Build 0)  -->
<svg version="1.1" id="图层_1" xmlns="http://www.w3.org/2000/svg" xmlns:xlink="http://www.w3.org/1999/xlink" x="0px" y="0px"
	 viewBox="-579 416 760 250" style="enable-background:new -579 416 760 250;" xml:space="preserve">
<style type="text/css">
	.st0{fill:#808080;}
	.st1{fill:#997817;}
	.st2{fill:#E0B153;}
	.st3{fill:#FFFFFF;}
</style>
<g id="XMLID_68_">
	<g id="XMLID_396_">
		<path id="XMLID_1477_" class="st0" d="M-578.1,540.9h-0.6V428.3h0.6C-578.1,428.3-578.1,540.9-578.1,540.9z"/>
	</g>
</g>
<g id="XMLID_66_">
	<g id="XMLID_394_">
		<path id="XMLID_1476_" class="st0" d="M-579,540v0.6h45.5V540H-579z"/>
	</g>
</g>
<g id="XMLID_64_">
	<g id="XMLID_392_">
		<path id="XMLID_1475_" class="st0" d="M-579,428.2v0.6h46v-0.6H-579z"/>
	</g>
</g>
<g id="XMLID_62_">
	<g id="XMLID_390_">
		<path id="XMLID_1474_" class="st0" d="M-536.9,424.1l-0.4,0.4l4.1,4l-4.1,4l0.4,0.4l4.5-4.3L-536.9,424.1z"/>
	</g>
</g>
<g id="XMLID_60_">
	<g id="XMLID_389_">
		<path id="XMLID_1473_" class="st0" d="M-372.4,530v-0.6h-11.8v0.6H-372.4z"/>
	</g>
</g>
<g id="XMLID_58_">
	<g id="XMLID_387_">
		<path id="XMLID_1472_" class="st0" d="M-380.4,534.1l0.4-0.4l-4.1-4l4.1-4l-0.4-0.4l-4.5,4.3L-380.4,534.1z"/>
	</g>
</g>
<g id="XMLID_56_">
	<g id="XMLID_386_">
		<path id="XMLID_1471_" class="st0" d="M-237.2,529.5v0.6h11.9v-0.6H-237.2z"/>
	</g>
</g>
<g id="XMLID_54_">
	<g id="XMLID_384_">
		<path id="XMLID_1470_" class="st0" d="M-229.3,525.4l-0.4,0.4l4.1,4l-4.1,4l0.4,0.4l4.5-4.3L-229.3,525.4z"/>
	</g>
</g>
<g id="XMLID_52_">
	<g id="XMLID_382_">
		<path id="XMLID_1469_" class="st0" d="M-157.4,593.1h-0.6v-11.9h0.6V593.1z"/>
	</g>
</g>
<g id="XMLID_50_">
	<g id="XMLID_381_">
		<path id="XMLID_1468_" class="st0" d="M-153.3,585.1l-0.4,0.4l-4-4.1l-4,4.1l-0.4-0.4l4.3-4.5L-153.3,585.1z"/>
	</g>
</g>
<g id="XMLID_48_">
	<g id="XMLID_379_">
		<path id="XMLID_1467_" class="st0" d="M-157.9,608.6h0.6v11.8h-0.6V608.6z"/>
	</g>
</g>
<g id="XMLID_46_">
	<g id="XMLID_377_">
		<path id="XMLID_1466_" class="st0" d="M-162,616.6l0.4-0.4l4,4.1l4-4.1l0.4,0.4l-4.3,4.5L-162,616.6z"/>
	</g>
</g>
<g id="XMLID_44_">
	<g id="XMLID_375_">
		<path id="XMLID_1465_" class="st0" d="M-456.5,593.1h-0.5v-11.8h0.6v11.8H-456.5z"/>
	</g>
</g>
<g id="XMLID_42_">
	<g id="XMLID_373_">
		<path id="XMLID_1464_" class="st0" d="M-452.4,585.1l-0.4,0.4l-4-4.1l-4,4.1l-0.4-0.4l4.3-4.5L-452.4,585.1z"/>
	</g>
</g>
<g id="XMLID_40_">
	<g id="XMLID_371_">
		<path id="XMLID_1463_" class="st0" d="M-457,608.6h0.6v11.8h-0.6V608.6z"/>
	</g>
</g>
<g id="XMLID_38_">
	<g id="XMLID_370_">
		<path id="XMLID_1462_" class="st0" d="M-461.1,616.6l0.4-0.4l4,4.1l4-4.1l0.4,0.4l-4.3,4.5L-461.1,616.6z"/>
	</g>
</g>
<g id="XMLID_36_">
	<g id="XMLID_368_">
		<path id="XMLID_1461_" class="st0" d="M-456.5,471.9h-0.5v-11.7h0.6v11.7H-456.5z"/>
	</g>
</g>
<g id="XMLID_34_">
	<g id="XMLID_366_">
		<path id="XMLID_1460_" class="st0" d="M-452.4,464l-0.4,0.4l-4-4.1l-4,4.1l-0.4-0.4l4.3-4.5L-452.4,464z"/>
	</g>
</g>
<g id="XMLID_32_">
	<g id="XMLID_365_">
		<path id="XMLID_1459_" class="st0" d="M-457,487.4h0.6v11.8h-0.6V487.4z"/>
	</g>
</g>
<g id="XMLID_30_">
	<g id="XMLID_363_">
		<path id="XMLID_1458_" class="st0" d="M-461.1,495.4l0.4-0.4l4,4.1l4-4.1l0.4,0.4l-4.3,4.5L-461.1,495.4z"/>
	</g>
</g>
<g id="XMLID_28_">
	<g id="XMLID_361_">
		<path id="XMLID_1457_" class="st1" d="M-528.6,512.9h139.7c1.5,0,2.8,1.1,2.8,2.5v49.3c0,1.4-1.3,2.5-2.8,2.5h-139.7
			c-1.5,0-2.8-1.1-2.8-2.5v-49.3C-531.3,514-530.1,512.9-528.6,512.9z"/>
	</g>
</g>
<g id="XMLID_24_">
	<g id="XMLID_357_">
		<path id="XMLID_1455_" class="st2" d="M-520.9,416h124.3c1.4,0,2.5,1.1,2.5,2.5v24.9c0,1.4-1.1,2.5-2.5,2.5h-124.3
			c-1.4,0-2.5-1.1-2.5-2.5v-24.9C-523.3,417.1-522.2,416-520.9,416z"/>
	</g>
</g>
<g id="XMLID_22_">
	<g id="XMLID_356_">
		<path id="XMLID_1454_" class="st1" d="M-72.5,539.9v-0.6h92.7v0.6H-72.5z"/>
	</g>
</g>
<g id="XMLID_20_">
	<g id="XMLID_354_">
		<path id="XMLID_1453_" class="st1" d="M16.2,544l-0.4-0.4l4.1-4l-4.1-4l0.4-0.4l4.5,4.3L16.2,544z"/>
	</g>
</g>
<g id="XMLID_18_">
	<g id="XMLID_352_">
		<path id="XMLID_1452_" class="st1" d="M-365.7,546.1v-0.6h117.6v0.6H-365.7z"/>
	</g>
</g>
<g id="XMLID_16_">
	<g id="XMLID_350_">
		<path id="XMLID_1451_" class="st1" d="M-252.1,550.2l-0.4-0.4l4.1-4l-4.1-4l0.4-0.4l4.5,4.3L-252.1,550.2z"/>
	</g>
</g>
<g id="XMLID_14_">
	<g id="XMLID_348_">
		<path id="XMLID_1450_" class="st1" d="M54.2,512.7h124.3c1.4,0,2.5,1.1,2.5,2.5v49.3c0,1.4-1.1,2.5-2.5,2.5H54.2
			c-1.4,0-2.5-1.1-2.5-2.5v-49.3C51.7,513.8,52.9,512.7,54.2,512.7z"/>
	</g>
</g>
<g id="XMLID_12_">
	<g id="XMLID_346_">
		<path id="XMLID_1449_" class="st1" d="M-220.4,512.9h124.3c1.4,0,2.5,1.1,2.5,2.5v49.3c0,1.4-1.1,2.5-2.5,2.5h-124.3
			c-1.4,0-2.5-1.1-2.5-2.5v-49.3C-222.9,514-221.7,512.9-220.4,512.9z"/>
	</g>
</g>
<g id="XMLID_398_">
	<path id="XMLID_1264_" class="st3" d="M-510.4,436.2v-10h1.2v8.9h4.4v1.1H-510.4z"/>
	<path id="XMLID_1266_" class="st3" d="M-496.8,432.4c0,1.2-0.3,2.2-0.9,2.9c-0.6,0.7-1.5,1-2.5,1c-0.7,0-1.3-0.2-1.8-0.5
		c-0.5-0.3-0.9-0.8-1.2-1.4s-0.4-1.3-0.4-2.1c0-1.2,0.3-2.2,0.9-2.9c0.6-0.7,1.5-1,2.5-1s1.9,0.3,2.5,1
		C-497.1,430.1-496.8,431.3-496.8,432.4z M-502.5,432.4c0,1,0.2,1.7,0.6,2.2s0.9,0.8,1.7,0.8s1.3-0.2,1.7-0.7s0.6-1.2,0.6-2.2
		s-0.2-1.7-0.6-2.2c-0.4-0.5-1-0.7-1.7-0.7c-0.7,0-1.3,0.2-1.7,0.7S-502.5,431.5-502.5,432.4z"/>
	<path id="XMLID_1269_" class="st3" d="M-489.7,436.2v-4.8c0-0.6-0.1-1.1-0.4-1.4c-0.3-0.3-0.7-0.5-1.3-0.5c-0.8,0-1.4,0.2-1.7,0.6
		c-0.3,0.4-0.5,1.1-0.5,2.1v3.9h-1.1v-7.5h0.9l0.2,1h0.1c0.2-0.4,0.6-0.7,1-0.9c0.4-0.2,0.9-0.3,1.4-0.3c0.9,0,1.6,0.2,2,0.7
		s0.7,1.1,0.7,2.1v4.9h-1.3V436.2z"/>
	<path id="XMLID_1271_" class="st3" d="M-481.1,435.2L-481.1,435.2c-0.6,0.8-1.4,1.1-2.4,1.1s-1.7-0.3-2.3-1
		c-0.6-0.7-0.8-1.6-0.8-2.9c0-1.3,0.3-2.2,0.8-2.9s1.3-1,2.3-1s1.8,0.4,2.3,1.1h0.1v-0.5v-0.5v-3h1.1v10.6h-1L-481.1,435.2z
		 M-483.4,435.4c0.8,0,1.3-0.2,1.7-0.6c0.4-0.4,0.5-1.1,0.5-2v-0.2c0-1.1-0.2-1.8-0.5-2.3c-0.3-0.5-0.9-0.7-1.7-0.7
		c-0.7,0-1.2,0.3-1.5,0.8c-0.3,0.5-0.5,1.2-0.5,2.2s0.2,1.7,0.5,2.2C-484.6,435.3-484.1,435.4-483.4,435.4z"/>
	<path id="XMLID_1274_" class="st3" d="M-471.2,432.4c0,1.2-0.3,2.2-0.9,2.9c-0.6,0.7-1.5,1-2.5,1c-0.7,0-1.3-0.2-1.8-0.5
		c-0.5-0.3-0.9-0.8-1.2-1.4c-0.3-0.6-0.4-1.3-0.4-2.1c0-1.2,0.3-2.2,0.9-2.9c0.6-0.7,1.5-1,2.5-1s1.9,0.3,2.5,1
		C-471.5,430.1-471.2,431.3-471.2,432.4z M-476.9,432.4c0,1,0.2,1.7,0.6,2.2c0.4,0.5,0.9,0.8,1.7,0.8s1.3-0.2,1.7-0.7
		c0.4-0.5,0.6-1.2,0.6-2.2s-0.2-1.7-0.6-2.2c-0.4-0.5-1-0.7-1.7-0.7s-1.3,0.2-1.7,0.7C-476.7,430.8-476.9,431.5-476.9,432.4z"/>
	<path id="XMLID_1277_" class="st3" d="M-464.1,436.2v-4.8c0-0.6-0.1-1.1-0.4-1.4s-0.7-0.5-1.3-0.5c-0.8,0-1.4,0.2-1.7,0.6
		s-0.5,1.1-0.5,2.1v3.9h-1.1v-7.5h0.9l0.2,1h0.1c0.2-0.4,0.6-0.7,1-0.9c0.4-0.2,0.9-0.3,1.4-0.3c0.9,0,1.6,0.2,2,0.7
		s0.7,1.1,0.7,2.1v4.9h-1.3V436.2z"/>
	<path id="XMLID_1279_" class="st3" d="M-461,433.6c0-0.6,0.2-1.1,0.5-1.6s0.9-0.9,1.7-1.4c-0.4-0.4-0.7-0.8-0.8-1
		c-0.1-0.2-0.2-0.5-0.3-0.7c-0.1-0.2-0.1-0.5-0.1-0.8c0-0.7,0.2-1.2,0.7-1.6s1.1-0.6,1.9-0.6c0.7,0,1.3,0.2,1.7,0.6s0.6,0.9,0.6,1.6
		c0,0.5-0.2,0.9-0.5,1.4c-0.3,0.5-0.8,0.8-1.5,1.3l2.8,2.7c0.3-0.3,0.5-0.6,0.6-1s0.3-0.8,0.4-1.2h1.1c-0.3,1.3-0.8,2.3-1.4,3l2,2
		h-1.6l-1.3-1.2c-0.5,0.5-1.1,0.8-1.6,1c-0.5,0.2-1.2,0.3-1.9,0.3c-1,0-1.7-0.2-2.3-0.7S-461,434.5-461,433.6z M-457.9,435.3
		c1.1,0,2-0.4,2.7-1.1l-3-2.9c-0.5,0.3-0.9,0.6-1.1,0.8c-0.2,0.2-0.4,0.4-0.5,0.7c-0.1,0.3-0.2,0.5-0.2,0.8c0,0.5,0.2,1,0.5,1.3
		C-459.2,435.2-458.5,435.3-457.9,435.3z M-459,428.2c0,0.3,0.1,0.6,0.2,0.9c0.1,0.3,0.4,0.6,0.8,1c0.6-0.3,1-0.7,1.2-0.9
		c0.2-0.2,0.3-0.6,0.3-1c0-0.4-0.1-0.6-0.4-0.9c-0.3-0.3-0.5-0.3-0.9-0.3c-0.4,0-0.7,0.1-1,0.3C-459.1,427.5-459,427.8-459,428.2z"
		/>
	<path id="XMLID_1283_" class="st3" d="M-441.5,431.2c0,1.6-0.4,2.9-1.2,3.8c-0.8,0.9-1.9,1.4-3.4,1.4s-2.6-0.5-3.4-1.4
		s-1.2-2.2-1.2-3.8c0-1.6,0.4-2.9,1.2-3.8c0.8-0.9,1.9-1.3,3.4-1.3c1.4,0,2.6,0.5,3.4,1.4S-441.5,429.6-441.5,431.2z M-449.5,431.2
		c0,1.4,0.3,2.4,0.9,3.1c0.6,0.7,1.4,1,2.5,1s1.9-0.3,2.5-1c0.6-0.7,0.8-1.7,0.8-3.1c0-1.3-0.3-2.4-0.8-3.1c-0.5-0.7-1.4-1-2.5-1
		s-1.9,0.3-2.5,1C-449.2,428.8-449.5,429.9-449.5,431.2z"/>
	<path id="XMLID_1286_" class="st3" d="M-437.7,432.4l-2.6-3.7h1.3l2,2.9l2-2.9h1.3l-2.6,3.7l2.7,3.8h-1.3l-2.1-3l-2.1,3h-1.3
		L-437.7,432.4z"/>
	<path id="XMLID_1288_" class="st3" d="M-428.8,429.6h-1.9v6.6h-1.1v-6.6h-1.3v-0.5l1.3-0.4v-0.4c0-1.8,0.8-2.8,2.4-2.8
		c0.4,0,0.9,0.1,1.4,0.2l-0.3,0.9c-0.4-0.1-0.8-0.2-1.1-0.2c-0.4,0-0.7,0.1-1,0.4c-0.3,0.3-0.3,0.7-0.3,1.4v0.5h1.9L-428.8,429.6
		L-428.8,429.6z"/>
	<path id="XMLID_1290_" class="st3" d="M-420.9,432.4c0,1.2-0.3,2.2-0.9,2.9c-0.6,0.7-1.5,1-2.5,1c-0.7,0-1.3-0.2-1.8-0.5
		c-0.5-0.3-0.9-0.8-1.2-1.4s-0.4-1.3-0.4-2.1c0-1.2,0.3-2.2,0.9-2.9c0.6-0.7,1.5-1,2.5-1s1.9,0.3,2.5,1
		C-421.2,430.1-420.9,431.3-420.9,432.4z M-426.6,432.4c0,1,0.2,1.7,0.6,2.2s0.9,0.8,1.7,0.8c0.8,0,1.3-0.2,1.7-0.7s0.6-1.2,0.6-2.2
		s-0.2-1.7-0.6-2.2s-1-0.7-1.7-0.7c-0.7,0-1.3,0.2-1.7,0.7S-426.6,431.5-426.6,432.4z"/>
	<path id="XMLID_1293_" class="st3" d="M-415.5,428.6c0.3,0,0.6,0,0.9,0.1l-0.2,1.1c-0.3-0.1-0.6-0.1-0.8-0.1
		c-0.6,0-1.1,0.2-1.6,0.7s-0.6,1.1-0.6,1.8v4h-1.1v-7.5h0.9l0.1,1.4h0.1c0.3-0.5,0.6-0.9,1-1.1S-416,428.6-415.5,428.6z"/>
	<path id="XMLID_1295_" class="st3" d="M-408.1,435.2L-408.1,435.2c-0.6,0.8-1.4,1.1-2.4,1.1s-1.7-0.3-2.3-1
		c-0.6-0.7-0.8-1.6-0.8-2.9c0-1.3,0.3-2.2,0.8-2.9s1.3-1,2.3-1s1.8,0.4,2.3,1.1h0.1v-0.5v-0.5v-3h1.1v10.6h-1L-408.1,435.2z
		 M-410.4,435.4c0.8,0,1.3-0.2,1.7-0.6c0.4-0.4,0.5-1.1,0.5-2v-0.2c0-1.1-0.2-1.8-0.5-2.3c-0.3-0.5-0.9-0.7-1.7-0.7
		c-0.7,0-1.2,0.3-1.5,0.8s-0.5,1.2-0.5,2.2s0.2,1.7,0.5,2.2S-411.1,435.4-410.4,435.4z"/>
</g>
<g id="XMLID_2_">
	<g id="XMLID_26_">
		<g id="XMLID_359_">
			<path id="XMLID_1456_" class="st2" d="M-520.9,636.2h124.3c1.4,0,2.5,1.1,2.5,2.5v24.9c0,1.4-1.1,2.5-2.5,2.5h-124.3
				c-1.4,0-2.5-1.1-2.5-2.5v-24.9C-523.3,637.3-522.2,636.2-520.9,636.2z"/>
		</g>
	</g>
	<g id="XMLID_10_">
		<g id="XMLID_344_">
			<path id="XMLID_1448_" class="st2" d="M-220.4,636.2h124.3c1.4,0,2.5,1.1,2.5,2.5v24.9c0,1.4-1.1,2.5-2.5,2.5h-124.3
				c-1.4,0-2.5-1.1-2.5-2.5v-24.9C-222.9,637.3-221.7,636.2-220.4,636.2z"/>
		</g>
	</g>
	<g id="XMLID_401_">
		<path id="XMLID_1235_" class="st3" d="M-500.5,645.4c-1.1,0-2,0.4-2.6,1.1s-1,1.7-1,3s0.3,2.3,0.9,3c0.6,0.7,1.5,1.1,2.6,1.1
			c0.7,0,1.5-0.1,2.4-0.4v1c-0.7,0.3-1.5,0.4-2.6,0.4c-1.5,0-2.6-0.4-3.4-1.3c-0.8-0.9-1.2-2.2-1.2-3.8c0-1,0.2-1.9,0.6-2.7
			c0.4-0.8,0.9-1.4,1.7-1.8c0.8-0.4,1.6-0.6,2.6-0.6s2,0.2,2.7,0.6l-0.5,1C-499,645.6-499.7,645.4-500.5,645.4z"/>
		<path id="XMLID_1237_" class="st3" d="M-497.3,647h1.2l1.6,4.3c0.4,1,0.6,1.7,0.7,2.1h0.1c0.1-0.2,0.2-0.6,0.4-1.2
			c0.2-0.6,0.8-2.3,1.9-5.2h1.2l-3.2,8.5c-0.3,0.8-0.7,1.4-1.1,1.8c-0.4,0.4-0.9,0.5-1.6,0.5c-0.3,0-0.7,0-1-0.1v-0.9
			c0.3,0.1,0.5,0.1,0.8,0.1c0.8,0,1.3-0.4,1.7-1.3l0.4-1.1L-497.3,647z"/>
		<path id="XMLID_1239_" class="st3" d="M-484.4,654.5l-0.2-1.1h-0.1c-0.4,0.5-0.7,0.8-1.1,1c-0.4,0.2-0.8,0.3-1.4,0.3
			c-0.7,0-1.3-0.2-1.7-0.6s-0.6-0.9-0.6-1.6c0-1.5,1.2-2.3,3.6-2.4h1.3v-0.5c0-0.6-0.1-1-0.4-1.3c-0.3-0.3-0.7-0.4-1.2-0.4
			c-0.6,0-1.3,0.2-2.1,0.6l-0.3-0.9c0.4-0.2,0.8-0.4,1.2-0.5c0.4-0.1,0.9-0.2,1.3-0.2c0.9,0,1.6,0.2,2,0.6c0.4,0.4,0.6,1,0.6,1.9
			v5.1H-484.4L-484.4,654.5z M-487,653.7c0.7,0,1.3-0.2,1.7-0.6c0.4-0.4,0.6-0.9,0.6-1.6v-0.7h-1.1c-0.9,0-1.6,0.2-2,0.4
			c-0.4,0.2-0.6,0.6-0.6,1.2c0,0.4,0.1,0.7,0.4,0.9S-487.4,653.7-487,653.7z"/>
		<path id="XMLID_1242_" class="st3" d="M-476.1,654.5v-4.8c0-0.6-0.1-1.1-0.4-1.4s-0.7-0.5-1.3-0.5c-0.8,0-1.4,0.2-1.7,0.6
			s-0.5,1.1-0.5,2.1v3.9h-1.1V647h0.9l0.2,1h0.1c0.2-0.4,0.6-0.7,1-0.9c0.4-0.2,0.9-0.3,1.4-0.3c0.9,0,1.6,0.2,2,0.7
			c0.5,0.4,0.7,1.1,0.7,2.1v4.9H-476.1z"/>
		<path id="XMLID_1244_" class="st3" d="M-467.8,652.4c0,0.7-0.3,1.2-0.8,1.6s-1.2,0.6-2.2,0.6s-1.8-0.2-2.3-0.5V653
			c0.4,0.2,0.7,0.3,1.2,0.4c0.5,0.1,0.8,0.2,1.2,0.2c0.6,0,1-0.1,1.4-0.3c0.3-0.2,0.5-0.5,0.5-0.9c0-0.3-0.1-0.5-0.4-0.7
			s-0.7-0.5-1.5-0.7c-0.7-0.3-1.2-0.5-1.5-0.7s-0.5-0.4-0.7-0.7c-0.2-0.3-0.2-0.5-0.2-0.9c0-0.6,0.2-1.1,0.7-1.4
			c0.5-0.4,1.2-0.5,2-0.5c0.8,0,1.6,0.2,2.4,0.5l-0.4,0.9c-0.8-0.3-1.4-0.5-2-0.5c-0.5,0-0.9,0.1-1.2,0.3c-0.3,0.2-0.4,0.4-0.4,0.7
			c0,0.2,0.1,0.4,0.2,0.5s0.3,0.3,0.5,0.4c0.2,0.1,0.7,0.3,1.3,0.6c0.9,0.3,1.5,0.6,1.8,1C-467.9,651.6-467.8,651.9-467.8,652.4z"/>
		<path id="XMLID_1246_" class="st3" d="M-463.6,653.7c0.2,0,0.4,0,0.6,0s0.3-0.1,0.4-0.1v0.9c-0.1,0.1-0.3,0.1-0.5,0.1
			c-0.2,0-0.5,0.1-0.6,0.1c-1.4,0-2.2-0.8-2.2-2.3v-4.5h-1.1v-0.5l1.1-0.5l0.5-1.6h0.7v1.7h2.2v0.9h-2.2v4.4c0,0.5,0.1,0.8,0.3,1
			C-464.2,653.5-463.9,653.7-463.6,653.7z"/>
		<path id="XMLID_1248_" class="st3" d="M-454.6,650.7c0,1.2-0.3,2.2-0.9,2.9c-0.6,0.7-1.5,1-2.5,1c-0.7,0-1.3-0.2-1.8-0.5
			c-0.5-0.3-0.9-0.8-1.2-1.4c-0.3-0.6-0.4-1.3-0.4-2.1c0-1.2,0.3-2.2,0.9-2.9s1.5-1,2.5-1s1.9,0.3,2.5,1S-454.6,649.5-454.6,650.7z
			 M-460.3,650.7c0,1,0.2,1.7,0.6,2.2c0.4,0.5,0.9,0.8,1.7,0.8s1.3-0.2,1.7-0.7s0.6-1.2,0.6-2.2s-0.2-1.7-0.6-2.2s-1-0.7-1.7-0.7
			c-0.7,0-1.3,0.2-1.7,0.7S-460.3,649.8-460.3,650.7z"/>
		<path id="XMLID_1251_" class="st3" d="M-447.5,654.5v-4.8c0-0.6-0.1-1.1-0.4-1.4s-0.7-0.5-1.3-0.5c-0.8,0-1.4,0.2-1.7,0.6
			s-0.5,1.1-0.5,2.1v3.9h-1.1V647h0.9l0.2,1h0.1c0.2-0.4,0.6-0.7,1-0.9c0.4-0.2,0.9-0.3,1.4-0.3c0.9,0,1.6,0.2,2,0.7
			c0.5,0.4,0.7,1.1,0.7,2.1v4.9H-447.5z"/>
		<path id="XMLID_1253_" class="st3" d="M-440.8,654.6c-1.1,0-2-0.3-2.6-1c-0.6-0.7-1-1.6-1-2.8s0.3-2.2,0.9-2.9
			c0.6-0.7,1.4-1.1,2.4-1.1c0.9,0,1.7,0.3,2.2,0.9c0.5,0.6,0.8,1.4,0.8,2.4v0.7h-5.2c0,0.9,0.2,1.5,0.7,2s1,0.7,1.8,0.7
			s1.6-0.2,2.4-0.5v1c-0.4,0.2-0.8,0.3-1.1,0.4C-439.9,654.6-440.3,654.6-440.8,654.6z M-441.1,647.8c-0.6,0-1.1,0.2-1.4,0.6
			s-0.6,0.9-0.6,1.6h3.9c0-0.7-0.2-1.3-0.5-1.6C-440.1,648-440.5,647.8-441.1,647.8z"/>
		<path id="XMLID_1256_" class="st3" d="M-436.8,650.6c0-1.2,0.2-2.3,0.5-3.4c0.3-1.1,0.9-2,1.5-2.8h1.1c-0.7,0.9-1.1,1.8-1.5,2.9
			c-0.4,1.1-0.5,2.1-0.5,3.2s0.2,2.2,0.5,3.2c0.3,1,0.8,2,1.5,2.9h-1.1c-0.7-0.8-1.2-1.7-1.5-2.7
			C-436.6,652.9-436.8,651.8-436.8,650.6z"/>
		<path id="XMLID_1258_" class="st3" d="M-427.4,654.5l-3.4-8.9h-0.1c0.1,0.7,0.1,1.5,0.1,2.5v6.4h-1.1v-10h1.8l3.2,8.2h0.1l3.2-8.2
			h1.7v10h-1.2V648c0-0.7,0-1.5,0.1-2.4h-0.1l-3.4,8.8L-427.4,654.5L-427.4,654.5z"/>
		<path id="XMLID_1260_" class="st3" d="M-414.9,645.4c-1.1,0-2,0.4-2.6,1.1s-1,1.7-1,3s0.3,2.3,0.9,3s1.5,1.1,2.6,1.1
			c0.7,0,1.5-0.1,2.4-0.4v1c-0.7,0.3-1.5,0.4-2.6,0.4c-1.5,0-2.6-0.4-3.4-1.3c-0.8-0.9-1.2-2.2-1.2-3.8c0-1,0.2-1.9,0.6-2.7
			c0.4-0.8,0.9-1.4,1.7-1.8s1.6-0.6,2.6-0.6s2,0.2,2.7,0.6l-0.5,1C-413.4,645.6-414.2,645.4-414.9,645.4z"/>
		<path id="XMLID_1262_" class="st3" d="M-408.1,650.6c0,1.2-0.2,2.3-0.5,3.3s-0.9,1.9-1.5,2.7h-1.1c0.6-0.9,1.1-1.8,1.5-2.9
			c0.3-1,0.5-2.1,0.5-3.2s-0.2-2.2-0.5-3.2s-0.8-2-1.5-2.9h1.1c0.7,0.8,1.2,1.7,1.5,2.8S-408.1,649.4-408.1,650.6z"/>
	</g>
	<g id="XMLID_403_">
		<path id="XMLID_1220_" class="st3" d="M-175.3,650.2c0,1.3-0.3,2.3-0.8,3.2c-0.5,0.8-1.2,1.4-2.2,1.7l2.4,2.5h-1.7l-1.9-2.3h-0.4
			c-1.5,0-2.6-0.5-3.4-1.3c-0.8-0.9-1.2-2.2-1.2-3.8c0-1.6,0.4-2.9,1.2-3.8c0.8-0.9,1.9-1.3,3.4-1.3c1.4,0,2.6,0.5,3.4,1.4
			C-175.7,647.4-175.3,648.6-175.3,650.2z M-183.3,650.2c0,1.4,0.3,2.4,0.9,3.1s1.4,1,2.5,1s1.9-0.3,2.5-1s0.8-1.7,0.8-3.1
			c0-1.3-0.3-2.4-0.8-3.1c-0.6-0.7-1.4-1-2.5-1s-1.9,0.3-2.5,1C-183,647.9-183.3,648.9-183.3,650.2z"/>
		<path id="XMLID_1223_" class="st3" d="M-166.4,655.2h-1.2v-9h-3.2v-1h7.5v1h-3.2v9H-166.4z"/>
		<path id="XMLID_1225_" class="st3" d="M-155.4,651.5c0,1.2-0.3,2.2-0.9,2.9c-0.6,0.7-1.5,1-2.5,1c-0.7,0-1.3-0.2-1.8-0.5
			c-0.5-0.3-0.9-0.8-1.2-1.4c-0.3-0.6-0.4-1.3-0.4-2.1c0-1.2,0.3-2.2,0.9-2.9s1.5-1,2.5-1s1.9,0.3,2.5,1
			C-155.7,649.3-155.4,650.3-155.4,651.5z M-161.1,651.5c0,1,0.2,1.7,0.6,2.2s0.9,0.8,1.7,0.8c0.7,0,1.3-0.2,1.7-0.7
			c0.4-0.5,0.6-1.2,0.6-2.2s-0.2-1.7-0.6-2.2s-1-0.7-1.7-0.7s-1.3,0.2-1.7,0.7C-160.9,649.8-161.1,650.5-161.1,651.5z"/>
		<path id="XMLID_1228_" class="st3" d="M-152.3,651.4c0.2-0.3,0.5-0.6,0.9-1.1l2.4-2.6h1.3l-3,3.2l3.2,4.3h-1.4l-2.6-3.5l-0.9,0.7
			v2.8h-1.1v-10.6h1.1v5.6C-152.3,650.5-152.3,650.9-152.3,651.4L-152.3,651.4z"/>
		<path id="XMLID_1230_" class="st3" d="M-142.9,655.4c-1.1,0-2-0.3-2.6-1c-0.6-0.7-1-1.6-1-2.8c0-1.2,0.3-2.2,0.9-2.9
			s1.4-1.1,2.4-1.1c0.9,0,1.7,0.3,2.2,0.9s0.8,1.4,0.8,2.4v0.7h-5.2c0,0.9,0.2,1.5,0.7,2c0.4,0.5,1,0.7,1.8,0.7s1.6-0.2,2.4-0.5v1
			c-0.4,0.2-0.8,0.3-1.1,0.4C-142,655.3-142.4,655.4-142.9,655.4z M-143.2,648.5c-0.6,0-1.1,0.2-1.4,0.6c-0.4,0.4-0.6,0.9-0.6,1.6
			h3.9c0-0.7-0.2-1.3-0.5-1.6C-142.2,648.7-142.6,648.5-143.2,648.5z"/>
		<path id="XMLID_1233_" class="st3" d="M-133.1,655.2v-4.8c0-0.6-0.1-1.1-0.4-1.4s-0.7-0.5-1.3-0.5c-0.8,0-1.4,0.2-1.7,0.6
			c-0.4,0.4-0.5,1.1-0.5,2.1v3.9h-1.1v-7.5h0.9l0.2,1h0.1c0.2-0.4,0.6-0.7,1-0.9s0.9-0.3,1.4-0.3c0.9,0,1.6,0.2,2,0.7
			c0.5,0.4,0.7,1.1,0.7,2.1v4.9h-1.3V655.2z"/>
	</g>
</g>
<g id="XMLID_867_">
	<path id="XMLID_868_" class="st3" d="M114,546.2v-0.8h-9.6v0.8h-1c0.1-0.4,0.1-0.9,0.1-1.7v-8.7c0-0.7,0-1.2-0.1-1.7
		c0.5,0.1,0.9,0.1,1.6,0.1h8.3c0.7,0,1.1,0,1.7-0.1c-0.1,0.5-0.1,1-0.1,1.7v8.7c0,0.8,0,1.3,0.1,1.7H114z M104.4,544.5h9.6V535h-9.6
		V544.5z M110.4,537.2c0.7,0,1.1,0,1.5-0.1c0,0.3-0.1,0.6-0.1,1.1v3.1c0,0.5,0,0.7,0.1,1.1c-0.4,0-0.8-0.1-1.5-0.1h-2.5
		c-0.8,0-1.1,0-1.5,0.1c0-0.3,0.1-0.6,0.1-1.1v-3.1c0-0.5,0-0.7-0.1-1.1c0.4,0,0.8,0.1,1.5,0.1H110.4z M107.4,541.5h3.5v-3.6h-3.5
		V541.5z"/>
	<path id="XMLID_873_" class="st3" d="M120,535.8c0,0.4-0.1,1-0.1,1.8v2.4c0,2.1-0.2,3.3-0.7,4.2c-0.4,0.8-0.9,1.3-1.9,2
		c-0.3-0.3-0.3-0.4-0.7-0.7c1.1-0.7,1.6-1.2,1.9-2c0.3-0.8,0.5-1.9,0.5-3.6v-2.4c0-1,0-1.3-0.1-1.8L120,535.8L120,535.8z
		 M117.4,542.8c0-0.4,0-0.8,0-1.3v-6.3c0-0.5,0-0.9-0.1-1.3c0.4,0,0.6,0,1.2,0h2.1c0.4,0,0.8,0,1.1-0.1c0,0.3,0,0.8,0,1.3v6.2
		c0,0.6,0,0.9,0.1,1.3h-0.9c0-0.4,0.1-0.8,0.1-1.3v-6.7h-2.6v6.8c0,0.5,0,0.9,0,1.3L117.4,542.8L117.4,542.8z M121.3,545.8
		c-0.4-0.8-0.8-1.4-1.4-2.3l0.7-0.4c0.4,0.5,1.1,1.5,1.5,2.1L121.3,545.8z M123.9,536.4c-0.4,0.8-0.9,1.6-1.5,2.4
		c-0.2-0.3-0.4-0.4-0.7-0.6c0.8-0.9,1.3-1.9,1.8-3.1c0.2-0.7,0.4-1.2,0.4-1.7l1,0.2c-0.1,0.1-0.1,0.3-0.3,0.7
		c-0.2,0.5-0.2,0.7-0.4,1.2h3.8c0.5,0,0.9,0,1.2-0.1c0,0.3-0.1,0.5-0.1,1.1c-0.1,3.3-0.2,5.7-0.5,7.3c-0.2,0.9-0.4,1.4-0.7,1.7
		c-0.3,0.2-0.7,0.3-1.4,0.3c-0.3,0-0.9,0-1.6-0.1c0-0.4-0.1-0.6-0.2-0.9c0.7,0.1,1.4,0.2,1.9,0.2c0.6,0,0.7-0.1,0.9-0.3
		c0.4-0.9,0.7-4.1,0.7-8.3C128.2,536.4,123.9,536.4,123.9,536.4z M126.9,543.4c-0.1-0.5-0.2-0.7-0.3-1.1c-0.1,0-0.1,0-0.1,0
		c-0.6,0.2-1.1,0.3-1.8,0.4c-0.5,0.1-1.3,0.3-1.9,0.4l-0.2-0.8c0.4-0.1,0.5-0.3,0.7-0.7c0.2-0.4,0.6-1.9,0.8-2.6
		c0.1-0.6,0.2-0.9,0.3-1.5l0.9,0.2c-0.1,0.2-0.1,0.2-0.6,2.3c-0.2,0.7-0.3,0.9-0.7,2.1c0.3-0.1,0.3-0.1,1.3-0.3
		c0.3,0,0.8-0.2,1.1-0.2c-0.2-0.7-0.4-1.2-0.8-1.9l0.7-0.3c0.6,1.3,0.9,2.1,1.4,3.7L126.9,543.4z"/>
</g>
<g id="XMLID_807_">
	<path id="XMLID_808_" class="st3" d="M-199,539c0,1.3-0.3,2.3-0.8,3.2c-0.5,0.9-1.2,1.4-2.2,1.7l2.4,2.5h-1.7l-1.9-2.3h-0.4
		c-1.5,0-2.6-0.5-3.4-1.4c-0.8-0.9-1.2-2.2-1.2-3.8c0-1.6,0.4-2.9,1.2-3.8c0.8-0.9,1.9-1.3,3.4-1.3c1.4,0,2.6,0.5,3.4,1.4
		C-199.4,536-199,537.4-199,539z M-206.9,539c0,1.4,0.3,2.4,0.9,3.1c0.6,0.7,1.4,1,2.5,1s1.9-0.3,2.5-1c0.6-0.7,0.8-1.7,0.8-3.1
		c0-1.3-0.3-2.4-0.8-3.1c-0.5-0.7-1.4-1-2.5-1s-1.9,0.3-2.5,1C-206.6,536.5-206.9,537.6-206.9,539z"/>
	<path id="XMLID_811_" class="st3" d="M-197.1,543.2c0-0.3,0.1-0.5,0.2-0.7s0.3-0.2,0.6-0.2c0.3,0,0.5,0.1,0.6,0.2
		c0.1,0.2,0.2,0.4,0.2,0.7s-0.1,0.5-0.2,0.7c-0.1,0.2-0.4,0.2-0.6,0.2s-0.4-0.1-0.6-0.2C-197.1,543.8-197.1,543.6-197.1,543.2z"/>
	<path id="XMLID_813_" class="st3" d="M-183.1,544l-1.2-3.2h-4l-1.2,3.2h-1.2l4-10h1l3.9,10H-183.1z M-184.7,539.7l-1.2-3.1
		c-0.2-0.4-0.3-0.9-0.5-1.4c-0.1,0.4-0.2,0.9-0.4,1.4l-1.2,3.1H-184.7z"/>
	<path id="XMLID_816_" class="st3" d="M-179.4,539.8v4.2h-1.2v-10h2.7c1.2,0,2.1,0.2,2.7,0.7s0.9,1.2,0.9,2.1c0,1.3-0.7,2.2-2,2.7
		l2.7,4.5h-1.4l-2.4-4.2C-177.4,539.8-179.4,539.8-179.4,539.8z M-179.4,538.8h1.6c0.8,0,1.4-0.2,1.8-0.5c0.4-0.3,0.6-0.8,0.6-1.5
		c0-0.7-0.2-1.1-0.6-1.4c-0.4-0.3-1-0.4-1.9-0.4h-1.5V538.8z"/>
	<path id="XMLID_819_" class="st3" d="M-168.8,544h-1.2v-9h-3.2v-1h7.5v1h-3.2v9H-168.8z"/>
	<path id="XMLID_821_" class="st3" d="M-156.5,544h-1.2v-4.7h-5.3v4.7h-1.2v-10h1.2v4.3h5.3V534h1.2V544z"/>
	<path id="XMLID_823_" class="st3" d="M-146.2,534v6.5c0,1.1-0.3,2-1,2.7c-0.7,0.7-1.6,1-2.8,1s-2.1-0.3-2.8-1c-0.7-0.7-1-1.6-1-2.7
		V534h1.2v6.5c0,0.8,0.2,1.5,0.7,1.9s1.1,0.7,2,0.7c0.8,0,1.5-0.2,1.9-0.7s0.7-1.1,0.7-1.9V534L-146.2,534L-146.2,534z"/>
	<path id="XMLID_825_" class="st3" d="M-142.4,539.8v4.2h-1.2v-10h2.7c1.2,0,2.1,0.2,2.7,0.7s0.9,1.2,0.9,2.1c0,1.3-0.7,2.2-2,2.7
		l2.7,4.5h-1.4l-2.4-4.2C-140.4,539.8-142.4,539.8-142.4,539.8z M-142.4,538.8h1.6c0.8,0,1.4-0.2,1.8-0.5c0.4-0.3,0.6-0.8,0.6-1.5
		c0-0.7-0.2-1.1-0.6-1.4c-0.4-0.3-1-0.4-1.9-0.4h-1.5V538.8z"/>
	<path id="XMLID_828_" class="st3" d="M-131.3,544v-10h1.2v8.9h4.4v1.1H-131.3z"/>
	<path id="XMLID_830_" class="st3" d="M-121,544h-1.2v-9h-3.2v-1h7.5v1h-3.1V544z"/>
	<path id="XMLID_832_" class="st3" d="M-108.3,538.9c0,1.6-0.4,2.9-1.3,3.8s-2.2,1.3-3.9,1.3h-2.8v-10h3.1c1.6,0,2.8,0.4,3.6,1.3
		C-108.8,536.2-108.3,537.3-108.3,538.9z M-109.5,538.9c0-1.3-0.3-2.3-1-2.9c-0.7-0.7-1.6-1-2.9-1h-1.7v8h1.4c1.4,0,2.4-0.3,3.1-1
		S-109.5,540.3-109.5,538.9z"/>
</g>
<g id="XMLID_9_">
	<path id="XMLID_47_" class="st3" d="M-519.3,529.7c0,1.3-0.3,2.3-0.8,3.2c-0.5,0.9-1.2,1.4-2.2,1.7l2.4,2.5h-1.7l-1.9-2.3h-0.4
		c-1.5,0-2.6-0.5-3.4-1.4c-0.8-0.9-1.2-2.2-1.2-3.8c0-1.6,0.4-2.9,1.2-3.8c0.8-0.9,1.9-1.3,3.4-1.3c1.4,0,2.6,0.5,3.4,1.4
		C-519.7,526.8-519.3,528.1-519.3,529.7z M-527.3,529.7c0,1.4,0.3,2.4,0.9,3.1c0.6,0.7,1.4,1,2.5,1c1.1,0,1.9-0.3,2.5-1
		c0.6-0.7,0.8-1.7,0.8-3.1c0-1.3-0.3-2.4-0.8-3.1c-0.5-0.7-1.4-1-2.5-1c-1.1,0-1.9,0.3-2.5,1C-527,527.3-527.3,528.4-527.3,529.7z"
		/>
	<path id="XMLID_53_" class="st3" d="M-517.4,534c0-0.3,0.1-0.5,0.2-0.7c0.1-0.2,0.3-0.2,0.6-0.2c0.3,0,0.5,0.1,0.6,0.2
		c0.1,0.1,0.2,0.4,0.2,0.7s-0.1,0.5-0.2,0.7s-0.4,0.2-0.6,0.2c-0.2,0-0.4-0.1-0.6-0.2C-517.4,534.6-517.4,534.3-517.4,534z"/>
	<path id="XMLID_405_" class="st3" d="M-503.4,534.7l-1.2-3.2h-4l-1.2,3.2h-1.2l4-10h1l3.9,10H-503.4z M-505,530.5l-1.2-3.1
		c-0.2-0.4-0.3-0.9-0.5-1.4c-0.1,0.4-0.2,0.9-0.4,1.4l-1.2,3.1H-505z"/>
	<path id="XMLID_419_" class="st3" d="M-499.7,530.6v4.2h-1.2v-10h2.7c1.2,0,2.1,0.2,2.7,0.7s0.9,1.2,0.9,2.1c0,1.3-0.7,2.2-2,2.7
		l2.7,4.5h-1.4l-2.4-4.2C-497.7,530.6-499.7,530.6-499.7,530.6z M-499.7,529.6h1.6c0.8,0,1.4-0.2,1.8-0.5c0.4-0.3,0.6-0.8,0.6-1.5
		c0-0.7-0.2-1.1-0.6-1.4c-0.4-0.3-1-0.4-1.9-0.4h-1.5V529.6z"/>
	<path id="XMLID_536_" class="st3" d="M-489.1,534.7h-1.2v-9h-3.2v-1h7.5v1h-3.2L-489.1,534.7L-489.1,534.7z"/>
	<path id="XMLID_541_" class="st3" d="M-476.9,534.7h-1.1V530h-5.3v4.7h-1.2v-10h1.2v4.3h5.3v-4.3h1.2v10H-476.9z"/>
	<path id="XMLID_546_" class="st3" d="M-466.6,524.7v6.5c0,1.1-0.3,2-1,2.7c-0.7,0.7-1.6,1-2.8,1c-1.2,0-2.1-0.3-2.8-1
		c-0.7-0.7-1-1.6-1-2.7v-6.4h1.2v6.5c0,0.8,0.2,1.5,0.7,1.9c0.5,0.4,1.1,0.7,2,0.7c0.8,0,1.5-0.2,1.9-0.7c0.4-0.5,0.7-1.1,0.7-1.9
		v-6.5L-466.6,524.7L-466.6,524.7z"/>
	<path id="XMLID_551_" class="st3" d="M-462.8,530.6v4.2h-1.2v-10h2.7c1.2,0,2.1,0.2,2.7,0.7s0.9,1.2,0.9,2.1c0,1.3-0.7,2.2-2,2.7
		l2.7,4.5h-1.4l-2.4-4.2C-460.8,530.6-462.8,530.6-462.8,530.6z M-462.8,529.6h1.6c0.8,0,1.4-0.2,1.8-0.5c0.4-0.3,0.6-0.8,0.6-1.5
		c0-0.7-0.2-1.1-0.6-1.4s-1-0.4-1.9-0.4h-1.5V529.6z"/>
	<path id="XMLID_559_" class="st3" d="M-450.5,534.7h-1.2v-10h5.6v1h-4.4v3.7h4.1v1h-4.1V534.7L-450.5,534.7z"/>
	<path id="XMLID_563_" class="st3" d="M-436.9,524.7v6.5c0,1.1-0.3,2-1,2.7c-0.7,0.7-1.6,1-2.8,1c-1.2,0-2.1-0.3-2.8-1
		c-0.7-0.7-1-1.6-1-2.7v-6.4h1.2v6.5c0,0.8,0.2,1.5,0.7,1.9c0.5,0.4,1.1,0.7,2,0.7c0.8,0,1.5-0.2,1.9-0.7s0.7-1.1,0.7-1.9v-6.5
		L-436.9,524.7L-436.9,524.7z"/>
	<path id="XMLID_568_" class="st3" d="M-426.4,534.7h-1.3l-5.5-8.4h-0.1c0.1,1,0.1,1.9,0.1,2.7v5.7h-1.1v-10h1.3l5.4,8.4h0.1
		c0-0.1,0-0.5-0.1-1.2c-0.1-0.7,0-1.1,0-1.4v-5.7h1.1v9.9H-426.4z"/>
	<path id="XMLID_572_" class="st3" d="M-415.7,529.7c0,1.6-0.4,2.9-1.3,3.8s-2.2,1.3-3.9,1.3h-2.8v-10h3.1c1.6,0,2.8,0.4,3.6,1.3
		C-416.2,527-415.7,528.1-415.7,529.7z M-416.9,529.7c0-1.3-0.3-2.3-1-2.9c-0.7-0.6-1.6-1-2.9-1h-1.7v8h1.4c1.4,0,2.4-0.3,3.1-1
		S-416.9,531-416.9,529.7z"/>
	<path id="XMLID_579_" class="st3" d="M-409.8,534.7v-10h1.2v8.9h4.4v1.1H-409.8z"/>
	<path id="XMLID_583_" class="st3" d="M-402.5,534.7v-10h1.2v8.9h4.4v1.1H-402.5z"/>
	<path id="XMLID_588_" class="st3" d="M-388.9,527.7c0,1-0.3,1.8-1,2.3s-1.7,0.8-3,0.8h-1.2v3.9h-1.2v-10h2.6
		C-390.2,524.7-388.9,525.7-388.9,527.7z M-394.1,529.8h1c1,0,1.8-0.2,2.2-0.5c0.4-0.3,0.7-0.9,0.7-1.6s-0.2-1.2-0.6-1.5
		s-1.1-0.5-2-0.5h-1.3L-394.1,529.8L-394.1,529.8z"/>
	<path id="XMLID_595_" class="st3" d="M-525.1,555.6c-0.7-0.9-1.1-1.3-1.4-2.1s-0.5-1.6-0.5-2.5s0.1-1.7,0.5-2.5
		c0.3-0.8,0.6-1.3,1.4-2.1h0.9c-0.8,0.8-1.2,1.3-1.5,2.1c-0.4,0.8-0.5,1.6-0.5,2.5s0.2,1.7,0.5,2.5s0.7,1.2,1.5,2.1H-525.1z"/>
	<path id="XMLID_600_" class="st3" d="M-519.2,547.2c0-0.4,0-0.6-0.1-0.9h0.8c-0.1,0.3-0.1,0.5-0.1,0.9v0.1h3c0.4,0,0.7,0,1-0.1v0.7
		c-0.3,0-0.6-0.1-1-0.1h-3v1.3h2.4c0.4,0,0.7,0,0.9,0c0,0.3,0,0.5,0,0.9v1.8c0,0.5,0,0.7,0,1h-0.7v-0.7h-5.6c-0.1,1-0.3,1.5-0.6,2.2
		c-0.2,0.4-0.2,0.4-0.8,1.2c-0.3-0.3-0.3-0.3-0.6-0.5c0.6-0.7,0.7-0.8,0.9-1.4c0.3-0.8,0.4-1.6,0.4-3.3c0-0.7,0-0.9,0-1.3
		c0.3,0,0.5,0,1,0h1.9v-1.8H-519.2z M-515.9,551.5v-1.8h-5.5v0.6c0,0.5,0,0.9,0,1.1L-515.9,551.5L-515.9,551.5z"/>
	<path id="XMLID_608_" class="st3" d="M-512.3,551.9c-0.4,0-0.6,0-0.9,0v-0.6c0.3,0,0.4,0.1,0.9,0.1h1V551c0-0.3,0-0.5,0-0.7h0.7
		c0,0.2,0,0.4,0,0.6v0.4h0.6c0.4,0,0.6,0,0.9,0v0.6c-0.3,0-0.5,0-0.8,0h-0.7v0.2c0.6,0.5,0.9,0.7,1.5,1.3l-0.4,0.4
		c-0.3-0.4-0.7-0.8-1.1-1.2v1.9c0,0.4,0,0.7,0.1,0.9h-0.7c0-0.3,0.1-0.5,0.1-0.9v-1.2c0-0.3,0-0.7,0-0.9c-0.3,0.5-0.5,0.9-0.9,1.3
		c-0.2,0.3-0.4,0.5-0.9,0.9c-0.1-0.2-0.3-0.3-0.4-0.5c0.5-0.4,0.9-0.7,1.3-1.2c0.3-0.3,0.4-0.5,0.7-1.1h-1V551.9z M-505.8,547.4
		c0.4,0,0.7,0,1-0.1v0.7c-0.3,0-0.6-0.1-1-0.1h-2.5c0.5,0.5,1,0.8,1.6,1.1c0.7,0.3,1.5,0.6,2.2,0.8c-0.2,0.2-0.3,0.4-0.4,0.6
		c-1.8-0.6-2.8-1.2-3.8-2.2c0,0.3,0,0.5,0,0.7v0.9c0,0.4,0,0.7,0,0.9h-0.7c0-0.2,0-0.5,0-0.9v-0.9c0-0.1,0-0.4,0-0.7
		c-0.9,0.9-1.9,1.5-3.6,2.2c-0.1-0.2-0.1-0.3-0.3-0.5c1.7-0.5,2.8-1.1,3.6-1.9h-2.3c-0.4,0-0.7,0-1,0.1v-0.7c0.3,0,0.6,0.1,1,0.1
		h2.6v-0.2c0-0.3,0-0.6-0.1-0.8h0.7c0,0.2-0.1,0.4-0.1,0.8v0.2L-505.8,547.4L-505.8,547.4z M-507.9,551.9c-0.5,0-0.6,0-0.8,0v-0.6
		c0.2,0,0.4,0,0.9,0h0.7V551c0-0.3,0-0.5,0-0.7h0.7c0,0.2,0,0.3,0,0.6v0.4h1.3c0.4,0,0.6,0,0.9-0.1v0.6c-0.2,0-0.4,0-0.9,0h-1.2
		c0.3,0.5,0.6,0.8,1,1.2c0.5,0.5,0.7,0.6,1.4,1c-0.2,0.2-0.3,0.3-0.4,0.6c-1-0.8-1.5-1.3-2.2-2.3c0,0.2,0,0.5,0,0.9v1.2
		c0,0.4,0,0.7,0.1,0.9h-0.7c0-0.2,0.1-0.5,0.1-0.9v-1.2c0-0.6,0-0.6,0-0.9c-0.5,1-1,1.5-2.1,2.3c-0.1-0.2-0.2-0.3-0.4-0.5
		c1.2-0.7,1.8-1.3,2.4-2.3h-0.8V551.9z"/>
	<path id="XMLID_745_" class="st3" d="M-502.1,550c0-0.4,0-0.7,0-1.1c-0.3,0.5-0.5,0.7-1,1.1c-0.1-0.2-0.2-0.3-0.4-0.5
		c0.8-0.6,1.4-1.4,1.8-2.2c0.1-0.3,0.3-0.6,0.3-0.9l0.6,0.3c0,0.1-0.1,0.1-0.1,0.2c-0.3,0.5-0.5,0.9-0.7,1.4v3.1
		c0,0.4,0,0.7,0.1,0.9h-0.7c0-0.2,0.1-0.5,0.1-0.9C-502.1,551.4-502.1,550-502.1,550z M-498.5,554.6h3c0.6,0,0.8,0,1.1,0v0.7
		c-0.4,0-0.7-0.1-1.1-0.1h-6.5c-0.4,0-0.8,0-1.1,0.1v-0.7c0.2,0,0.5,0,1.1,0h2.9v-1.2h-2c-0.5,0-0.8,0-1.1,0.1v-0.7
		c0.3,0,0.5,0.1,1.1,0.1h2v-0.1c0-0.4,0-0.5-0.1-0.8h0.7c-0.1,0.2-0.1,0.4-0.1,0.8v0.1h2.2c0.5,0,0.8,0,1.1-0.1v0.7
		c-0.3,0-0.6-0.1-1.1-0.1h-2.2v1.2H-498.5z M-497.4,549.4h2c0.5,0,0.7,0,1-0.1v0.6c-0.3,0-0.6,0-1,0h-1.6c0,0,0,0,0.1,0.1
		c0.8,0.6,1.6,1.1,2.8,1.4c-0.2,0.2-0.2,0.3-0.3,0.6c-1.3-0.5-2.2-1-3-1.9c0,0.3,0,0.5,0,0.8v0.5c0,0.4,0,0.5,0.1,0.8h-0.7
		c0-0.2,0.1-0.4,0.1-0.8V551c0-0.2,0-0.5,0-0.8c-0.8,0.8-1.6,1.3-2.8,1.7c-0.1-0.2-0.2-0.3-0.3-0.5c1.1-0.3,2.1-0.8,2.8-1.5h-1.5
		c-0.4,0-0.7,0-1,0v-0.6c0.2,0,0.5,0.1,1,0.1h1.9v-0.7h-1.1c-0.4,0-0.7,0-1,0c0-0.3,0-0.4,0-0.8v-0.5c0-0.3,0-0.5,0-0.8
		c0.2,0,0.5,0,1,0h2.9c0.5,0,0.7,0,1,0c0,0.2,0,0.4,0,0.8v0.5c0,0.4,0,0.5,0,0.8c-0.2,0-0.5,0-1,0h-1.4V549.4z M-499.4,547.3v0.9
		h3.8v-0.9H-499.4z"/>
	<path id="XMLID_750_" class="st3" d="M-491.6,551.8c-0.4,0-0.7,0-1,0.1v-0.7c0.3,0,0.6,0.1,1,0.1h2.4c0.1-0.4,0.1-0.7,0.1-1v-0.1
		l0.8,0.1c0,0.1-0.1,0.5-0.2,1h2.9c0.4,0,0.6,0,0.9,0c0,0.3,0,0.3-0.1,0.8c-0.1,1.2-0.2,2.1-0.3,2.5c-0.2,0.6-0.5,0.7-1.4,0.7
		c-0.3,0-0.5,0-1.1,0c0-0.2-0.1-0.5-0.1-0.7c0.6,0.1,0.9,0.1,1.3,0.1c0.5,0,0.6-0.1,0.8-0.5c0.1-0.4,0.2-1.2,0.3-2.3h-3.2
		c-0.2,0.9-0.6,1.6-1.2,2.2c-0.4,0.4-1,0.8-1.6,1c-0.3,0.2-0.6,0.3-1.3,0.4c-0.1-0.3-0.2-0.4-0.4-0.6c1.3-0.3,2-0.6,2.6-1.1
		c0.5-0.4,0.9-1.1,1.1-1.9h-2.3V551.8z M-491.8,547.5c0-0.3,0-0.4,0-0.7c0.3,0,0.7,0,1.1,0h3.9c0.5,0,0.9,0,1.1,0c0,0.2,0,0.5,0,0.7
		v1.5c0,0.3,0,0.5,0,0.8c-0.3,0-0.6,0-1,0h-4.1c-0.4,0-0.8,0-1.1,0c0-0.2,0-0.5,0-0.8v-1.5H-491.8z M-491.2,547.3v1.8h4.9v-1.8
		H-491.2z"/>
	<path id="XMLID_754_" class="st3" d="M-480.1,554.3c-0.7,0.5-1.4,0.9-2.7,1.3c-0.1-0.2-0.3-0.4-0.4-0.6c1.3-0.3,2-0.6,2.7-1.1
		c0.5-0.3,0.8-0.7,1-1.2h-2.6c-0.5,0-0.8,0-1.1,0.1V552c0.3,0,0.6,0.1,1.1,0.1h2.8c0.1-0.3,0.1-0.6,0.1-0.8c0-0.1,0-0.2,0-0.3h0.7
		c0,0.1,0,0.1,0,0.3c0,0.3-0.1,0.6-0.1,0.8h3.3c0.4,0,0.7,0,1.1-0.1v0.7c-0.3,0-0.7-0.1-1.1-0.1h-2.8c0.8,1.1,1.9,1.8,4,2.3
		c-0.2,0.2-0.3,0.3-0.4,0.6c-2.1-0.6-3.4-1.5-4.1-2.9C-479.1,553.3-479.5,553.8-480.1,554.3z M-478.5,549.7c0,0.5,0,0.6,0,0.9h-0.7
		c0.1-0.2,0.1-0.5,0.1-0.9v-0.8c-0.3,0.3-0.7,0.7-1.2,1c-0.6,0.5-1.3,0.8-2.4,1.2c-0.1-0.3-0.2-0.4-0.4-0.6c1.5-0.5,2.3-0.9,3.4-1.8
		h-2.3c-0.4,0-0.7,0-1,0.1v-0.7c0.3,0,0.6,0.1,1,0.1h2.9V547c0-0.3,0-0.4-0.1-0.7h0.7c0,0.2,0,0.4,0,0.7v1.2h3.1c0.4,0,0.8,0,1-0.1
		v0.7c-0.3,0-0.6-0.1-1-0.1h-3.1v0.1c1.4,0.5,2.7,1.1,3.8,1.7l-0.4,0.6c-0.7-0.5-1.3-0.8-2.5-1.4c-0.3-0.2-0.7-0.3-0.9-0.4V549.7z
		 M-481.1,546.6c0.4,0.4,0.5,0.7,0.9,1.2l-0.5,0.3c-0.3-0.5-0.5-0.8-0.9-1.2L-481.1,546.6z M-475.9,546.9c-0.5,0.6-0.8,0.9-1.1,1.3
		l-0.5-0.3c0.5-0.4,0.8-0.9,1-1.3L-475.9,546.9z"/>
	<path id="XMLID_759_" class="st3" d="M-470.7,548.4c0.3,0,0.4,0,0.6,0v0.6c-0.2,0-0.4,0-0.6,0h-0.6v2c0.3-0.1,0.5-0.2,1-0.5v0.6
		c-0.4,0.2-0.4,0.2-1,0.5v3.2c0,0.5-0.2,0.7-1.2,0.7c-0.1,0-0.3,0-0.5,0c0-0.3,0-0.4-0.1-0.6c0.4,0,0.6,0.1,0.9,0.1
		c0.3,0,0.3,0,0.3-0.2V552c-0.1,0-0.1,0-0.1,0.1c-0.5,0.2-0.5,0.2-1.1,0.4l-0.2-0.7c0.4-0.1,0.5-0.1,1.4-0.4v-2.2h-0.6
		c-0.3,0-0.5,0-0.7,0v-0.6c0.2,0,0.4,0,0.7,0h0.6v-0.9c0-0.4,0-0.7-0.1-1h0.8c0,0.3-0.1,0.6-0.1,1v0.9h0.6V548.4z M-465.1,551
		c-0.1,0.1-0.1,0.1-0.3,0.4c-0.5,0.8-0.9,1.4-1.5,2c0.9,0.6,1.7,1,2.7,1.3c-0.2,0.2-0.3,0.4-0.4,0.6c-1.2-0.4-2.1-0.8-2.8-1.5
		c-0.9,0.7-1.8,1.2-3,1.5c-0.1-0.2-0.2-0.4-0.4-0.6c1.2-0.3,2-0.7,2.9-1.4c-0.3-0.3-0.6-0.6-0.8-1c-0.3-0.4-0.4-0.6-0.6-1.2
		c-0.3,0-0.5,0-0.6,0v-0.7c0.2,0,0.5,0.1,0.8,0.1h3c0.3,0,0.5,0,0.6,0L-465.1,551z M-464.3,549.8c-0.4,0-0.8,0.1-1.2,0.1
		c-0.5,0-0.9,0-1.1-0.1c-0.1-0.1-0.2-0.2-0.2-0.4v-1.9h-1.8c0,0.9-0.1,1.3-0.5,1.9c-0.2,0.4-0.4,0.6-0.9,1c-0.1-0.2-0.3-0.3-0.5-0.5
		c0.9-0.6,1.2-1.2,1.2-2.6c0-0.1,0-0.2,0-0.4c0.2,0,0.3,0,0.7,0h1.7c0.4,0,0.5,0,0.7,0c0,0.2,0,0.3,0,0.7v1.6c0,0.2,0.1,0.2,0.5,0.2
		c0.5,0,0.6,0,1.2-0.1v0.5H-464.3z M-468.7,551.2c0.4,0.8,0.7,1.3,1.3,1.8c0.7-0.6,1-1,1.5-1.8H-468.7z"/>
	<path id="XMLID_764_" class="st3" d="M-460.4,549.2c-0.6,0.3-1.2,0.5-1.7,0.7c-0.3,0.1-0.3,0.1-0.5,0.2c-0.2,0.1-0.2,0.1-0.3,0.1
		l-0.2-0.7c0.9-0.2,1.6-0.4,2.7-0.9V549.2z M-458.5,551.5c0,0.2,0,0.2,0,0.7c0,0.9-0.1,1.3-0.4,1.8c-0.3,0.4-0.7,0.7-1.5,1
		c-0.5,0.2-0.9,0.3-1.6,0.4c-0.1,0-0.4,0-0.9,0.1c-0.1-0.2-0.1-0.4-0.3-0.6c1.1,0,2-0.2,2.7-0.5c0.6-0.3,1-0.6,1.2-1.1
		c0.1-0.3,0.1-0.7,0.1-1.2c0-0.2,0-0.3,0-0.5L-458.5,551.5L-458.5,551.5z M-461.1,548c-0.7-0.5-1.2-0.7-1.8-1l0.3-0.5
		c0.8,0.3,1.2,0.6,1.8,0.9L-461.1,548z M-462,553.9c0-0.3,0.1-0.6,0.1-1.1v-1.3c0-0.5,0-0.7,0-1c0.3,0,0.6,0,1.1,0h4.1
		c0.5,0,0.8,0,1.1,0c0,0.2,0,0.5,0,1v1.3c0,0.5,0,0.8,0,1.1h-0.8c0.1-0.4,0.1-0.6,0.1-1.1v-1.6h-4.9v1.6c0,0.4,0,0.9,0.1,1.1H-462z
		 M-459.3,547.8c-0.2,0.3-0.6,0.6-0.9,0.9c-0.1-0.2-0.2-0.3-0.4-0.4c0.8-0.6,1.3-1.2,1.6-1.9l0.6,0.2c-0.2,0.4-0.3,0.5-0.4,0.7h3.3
		c0.3,0,0.5,0,0.7,0l0.4,0.3c0,0,0,0-0.1,0.2c0,0,0,0-0.1,0.2c-0.3,0.4-0.5,0.6-0.9,1c-0.2-0.1-0.3-0.2-0.5-0.3
		c0.4-0.3,0.6-0.5,0.9-0.8h-1.9c0.1,0.5,0.4,0.9,0.9,1.3c0.5,0.4,1.2,0.7,2.2,0.8c-0.1,0.2-0.2,0.3-0.3,0.6
		c-0.8-0.2-1.4-0.4-1.8-0.7c-0.6-0.4-0.9-0.7-1.2-1.4c-0.2,0.6-0.6,1-1.2,1.3c-0.3,0.2-0.6,0.3-0.9,0.4c0,0-0.2,0.1-0.5,0.2
		c-0.1,0-0.2,0-0.3,0.1c-0.1-0.2-0.1-0.3-0.3-0.6c0.9-0.1,1.5-0.4,2-0.8c0.4-0.3,0.6-0.7,0.7-1.3H-459.3z M-458.1,553.6
		c1.8,0.6,2.4,0.8,3.7,1.3l-0.3,0.6c-1.6-0.7-1.7-0.8-3.7-1.4L-458.1,553.6z"/>
	<path id="XMLID_771_" class="st3" d="M-447.1,547.4L-447.1,547.4c0-0.5,0-0.7-0.1-0.9h0.7c0,0.2,0,0.5,0,0.9v0.1h0.9
		c0.4,0,0.7,0,1-0.1v0.7c-0.3,0-0.6-0.1-1-0.1h-0.9v3.2h1.1c0.4,0,0.7,0,1-0.1v0.6c-0.3,0-0.6-0.1-1-0.1h-1.5
		c0.7,0.7,1.5,1.1,2.8,1.4c-0.2,0.2-0.2,0.4-0.4,0.6c-1.5-0.5-2.3-1-3.2-2h-2.5c-0.7,0.9-1.6,1.5-3.1,2c-0.1-0.3-0.2-0.4-0.3-0.6
		c1.2-0.3,2.1-0.8,2.7-1.4h-1.5c-0.4,0-0.7,0-1,0.1v-0.6c0.3,0,0.6,0.1,1,0.1h1.1V548h-0.7c-0.4,0-0.7,0-1,0.1v-0.7
		c0.3,0,0.6,0.1,1,0.1h0.7v-0.1c0-0.4,0-0.7-0.1-0.9h0.7c0,0.2-0.1,0.5-0.1,0.9v0.1L-447.1,547.4L-447.1,547.4z M-447.2,552.9
		c0.4,0,0.6,0,0.9,0v0.6c-0.3,0-0.5,0-0.9,0h-1.4v1.1h2.7c0.5,0,0.8,0,1,0v0.7c-0.3,0-0.6-0.1-1.1-0.1h-5.7c-0.4,0-0.8,0-1.1,0.1
		v-0.7c0.2,0,0.5,0,1.1,0h2.5v-1.1h-1.2c-0.4,0-0.6,0-0.9,0v-0.6c0.2,0,0.5,0,0.9,0h1.2v-0.1c0-0.4,0-0.6,0-0.8h0.7
		c0,0.2,0,0.4,0,0.8v0.1H-447.2z M-450.6,548.7h3.5V548h-3.5V548.7z M-450.6,549.9h3.5v-0.7h-3.5V549.9z M-450.6,551.2h3.5v-0.7
		h-3.5V551.2z"/>
	<path id="XMLID_777_" class="st3" d="M-438.5,546.7c0.5,0.6,0.8,1,1.4,1.4c0.8,0.6,1.9,1.2,2.9,1.6c-0.2,0.3-0.3,0.4-0.4,0.7
		c-0.7-0.3-1.2-0.6-1.8-1v0.6c-0.3,0-0.5,0-0.9,0h-1.2v1.4h2.7c0.4,0,0.7,0,1-0.1v0.7c-0.3,0-0.6-0.1-1-0.1h-2.7v2.6h2.9
		c0.4,0,0.8,0,1.1-0.1v0.7c-0.3,0-0.7-0.1-1.1-0.1h-6.3c-0.4,0-0.7,0-1.1,0.1v-0.7c0.3,0,0.7,0.1,1.1,0.1h2.7v-2.6h-2.5
		c-0.4,0-0.7,0-1,0.1v-0.7c0.3,0,0.5,0.1,1,0.1h2.5V550h-1.1c-0.4,0-0.7,0-0.9,0v-0.6c-0.4,0.3-0.4,0.3-1.8,1
		c-0.1-0.2-0.1-0.2-0.2-0.3c0,0,0-0.1-0.1-0.1c0,0-0.1-0.1-0.1-0.2c1-0.4,1.7-0.8,2.4-1.3c0.8-0.7,1.5-1.4,2-2.2l0.6,0.3
		L-438.5,546.7z M-441.2,552.2c0.4,0.6,0.6,1,0.9,1.8l-0.6,0.2c-0.2-0.7-0.5-1.2-0.9-1.8L-441.2,552.2z M-437.3,549.4
		c0.4,0,0.6,0,0.8,0c-0.9-0.6-1.8-1.4-2.3-2.1c-0.7,0.8-1.5,1.6-2.3,2.1c0,0,0,0,0.1,0s0.4,0,0.8,0H-437.3z M-435.9,552.4
		c-0.5,0.9-0.6,1.2-1.1,1.9l-0.6-0.2c0.4-0.5,0.7-1.1,1-1.9L-435.9,552.4z"/>
	<path id="XMLID_782_" class="st3" d="M-431.8,547.7c-0.3,0.4-0.6,0.7-0.9,1c-0.2-0.2-0.2-0.2-0.5-0.4c0.8-0.5,1.3-1.2,1.6-2
		l0.6,0.2c-0.2,0.3-0.2,0.4-0.4,0.7h1.7c0.4,0,0.6,0,0.8,0v0.6c-0.3,0-0.3,0-0.8,0h-0.8c0.2,0.3,0.3,0.5,0.4,0.8l-0.5,0.2
		c-0.1-0.5-0.3-0.7-0.5-1.1H-431.8z M-425.6,549c0.5,0,0.7,0,1,0c0,0.2,0,0.3,0,0.6v0.5c0,0.3,0,0.5,0,0.7h-0.6v-1.3h-7v1.3h-0.6
		c0-0.2,0-0.4,0-0.7v-0.5c0-0.3,0-0.4,0-0.6c0.3,0,0.5,0,1,0h2.8c-0.1-0.2-0.2-0.3-0.4-0.6l0.5-0.3c0.1,0.2,0.3,0.5,0.6,0.8
		L-425.6,549L-425.6,549z M-431.6,555.5c0-0.3,0.1-0.6,0.1-1v-3.6c0-0.3,0-0.5,0-0.7c0.3,0,0.6,0,1,0h3.5c0.4,0,0.7,0,1,0
		c0,0.2,0,0.4,0,0.7v0.6c0,0.4,0,0.5,0,0.8c-0.3,0-0.6,0-1,0h-3.9v0.7h4.5c0.4,0,0.7,0,0.9,0c0,0.3-0.1,0.5-0.1,0.9v0.8
		c0,0.4,0,0.6,0.1,0.9h-0.7V555h-4.8v0.5H-431.6z M-430.9,551.7h4.3v-0.9h-4.3V551.7z M-430.9,554.5h4.8v-1h-4.8V554.5z
		 M-427.9,547.7c-0.1,0.2-0.2,0.3-0.6,0.7c-0.1-0.1-0.3-0.2-0.5-0.3c0.6-0.5,0.8-0.9,1.1-1.7l0.6,0.2c-0.1,0.3-0.2,0.5-0.3,0.7h2.4
		c0.4,0,0.6,0,0.9,0v0.6c-0.3,0-0.5,0-0.9,0h-1.3c0.2,0.3,0.3,0.5,0.5,0.8l-0.6,0.2c-0.2-0.5-0.3-0.7-0.5-1.1L-427.9,547.7
		L-427.9,547.7z"/>
	<path id="XMLID_789_" class="st3" d="M-421.4,549.9h0.4c0.3,0,0.4,0,0.7,0v0.6c-0.2,0-0.4,0-0.7,0h-0.4v2.5
		c0.6-0.3,0.7-0.3,1.2-0.5v0.6c-0.9,0.5-1.3,0.6-2.5,1.1c-0.3,0.1-0.4,0.1-0.5,0.2l-0.2-0.7c0.4-0.1,0.8-0.2,1.4-0.4v-2.8h-0.5
		c-0.3,0-0.4,0-0.7,0v-0.6c0.2,0,0.4,0,0.7,0h0.5v-2.3h-0.5c-0.4,0-0.5,0-0.8,0v-0.7c0.2,0,0.4,0.1,0.8,0.1h1.5c0.4,0,0.6,0,0.8-0.1
		v0.7c-0.3,0-0.4,0-0.8,0h-0.5v2.3H-421.4z M-417,552.5h1.5c0.5,0,0.7,0,1,0v0.7c-0.3,0-0.5,0-1,0h-1.5v1.5h1.9c0.5,0,0.7,0,1,0v0.7
		c-0.3,0-0.5,0-1,0h-4.5c-0.5,0-0.7,0-1,0v-0.7c0.3,0,0.5,0,0.9,0h2.1v-1.5h-1.3c-0.5,0-0.7,0-1,0v-0.7c0.3,0,0.5,0,1,0h1.3v-1.1h-1
		c-0.6,0-1,0-1.2,0c0-0.2,0-0.3,0-0.4c0-0.2,0-0.2,0-0.8v-2.1c0-0.6,0-1,0-1.3c0.3,0,0.6,0,1.3,0h2.6c0.7,0,1,0,1.3,0
		c0,0.3,0,0.7,0,1.3v2c0,0.7,0,1,0,1.3c-0.4,0-0.6,0-1.2,0h-1.2V552.5z M-417.6,547.5h-1.6v1.4h1.6V547.5z M-417.6,549.4h-1.6v1.4
		h1.6V549.4z M-415.3,548.9v-1.4h-1.7v1.4H-415.3z M-415.3,550.8v-1.4h-1.7v1.4H-415.3z"/>
	<path id="XMLID_796_" class="st3" d="M-409.5,547c-0.1,0.1-0.1,0.2-0.3,0.5c-0.8,1.5-1.7,2.7-3.2,3.8c-0.1-0.2-0.3-0.4-0.5-0.6
		c1.2-0.8,2-1.6,2.6-2.6c0.4-0.6,0.5-1,0.6-1.3L-409.5,547z M-412.5,554.2c0.2,0,0.3-0.1,0.5-0.2c0.5-0.6,1.3-1.7,1.8-2.6
		c0.3-0.6,0.6-1.1,0.7-1.5c0.1-0.4,0.1-0.4,0.1-0.4l0.8,0.3c-0.1,0.1-0.1,0.1-0.2,0.3c-0.3,0.6-0.8,1.6-1.2,2.2
		c-0.4,0.7-0.5,0.8-1.4,1.9c2.4-0.1,4-0.2,5-0.4c-0.1-0.1-0.1-0.1-0.3-0.5c-0.3-0.4-0.7-1-1.3-1.7l0.5-0.3c1,1.2,1.8,2.4,2.5,3.6
		l-0.6,0.4c-0.3-0.5-0.3-0.7-0.5-1c-1.3,0.2-3.1,0.4-5.8,0.5c-0.2,0-0.5,0-0.5,0.1L-412.5,554.2z M-407.4,546.5
		c0.1,0.5,0.6,1.3,1.1,2.1c0.6,0.8,1.2,1.4,2.2,2.1c-0.2,0.2-0.3,0.4-0.5,0.6c-1.7-1.3-2.4-2.3-3.4-4.2c-0.1-0.1-0.1-0.2-0.2-0.3
		L-407.4,546.5z"/>
	<path id="XMLID_800_" class="st3" d="M-402.9,548.6c0.3,0,0.5,0.1,0.9,0.1h4.3c0.4,0,0.6,0,0.9-0.1v0.7c-0.3,0-0.5-0.1-0.9-0.1
		h-4.3c-0.4,0-0.6,0-0.9,0.1V548.6z M-397.5,552.7c0,0.3,0,0.5,0,0.8c-0.3,0-0.4,0-0.9,0h-3.3v0.9h-0.7c0-0.3,0.1-0.5,0.1-0.9v-2.2
		c0-0.4,0-0.6,0-0.8c0.3,0,0.5,0,0.9,0h3.2c0.4,0,0.6,0,0.8,0c0,0.3,0,0.5,0,0.8v1.4H-397.5z M-395,554.5c0,0.7-0.2,0.9-1.1,0.9
		c-0.4,0-0.8,0-1.4-0.1c0-0.3,0-0.4-0.1-0.7c0.6,0.1,1.1,0.2,1.6,0.2c0.3,0,0.4-0.1,0.4-0.3v-7h-5.6c-0.5,0-0.8,0-1.1,0.1v-0.7
		c0.3,0,0.6,0.1,1.1,0.1h5.3c0.4,0,0.7,0,1,0c0,0.3,0,0.5,0,0.9L-395,554.5L-395,554.5z M-401.6,552.9h3.5v-2h-3.5V552.9z"/>
	<path id="XMLID_805_" class="st3" d="M-393.4,555.6c0.8-0.8,1.2-1.3,1.5-2.1c0.4-0.8,0.5-1.6,0.5-2.5s-0.2-1.7-0.5-2.5
		s-0.7-1.2-1.5-2.1h0.9c0.7,0.9,1.1,1.3,1.4,2.1c0.3,0.8,0.5,1.6,0.5,2.5s-0.1,1.7-0.5,2.5c-0.3,0.8-0.6,1.3-1.4,2.1H-393.4z"/>
</g>
<g id="XMLID_209_">
	<path id="XMLID_211_" class="st0" d="M-473.7,477.1c0.3,0,0.4,0,0.6,0v0.6c-0.2,0-0.4,0-0.6,0h-0.6v2c0.3-0.1,0.5-0.2,1-0.5v0.6
		c-0.4,0.2-0.4,0.2-1,0.4v3.2c0,0.5-0.2,0.7-1.2,0.7c-0.1,0-0.3,0-0.5,0c0-0.3,0-0.4-0.1-0.6c0.4,0,0.6,0.1,0.9,0.1
		c0.3,0,0.3,0,0.3-0.2v-2.8c-0.1,0-0.1,0-0.1,0.1c-0.5,0.2-0.5,0.2-1.1,0.4l-0.2-0.7c0.4-0.1,0.5-0.1,1.4-0.4v-2.2h-0.6
		c-0.3,0-0.5,0-0.7,0v-0.6c0.2,0,0.4,0,0.7,0h0.6v-0.9c0-0.4,0-0.7-0.1-1h0.8c0,0.3-0.1,0.6-0.1,1v0.9L-473.7,477.1L-473.7,477.1z
		 M-468.1,479.8c-0.1,0.1-0.1,0.1-0.3,0.4c-0.5,0.8-0.9,1.4-1.5,2c0.9,0.6,1.7,1,2.7,1.3c-0.2,0.2-0.3,0.4-0.4,0.6
		c-1.2-0.4-2.1-0.8-2.8-1.5c-0.9,0.7-1.8,1.2-3,1.5c-0.1-0.2-0.2-0.4-0.4-0.6c1.2-0.3,2-0.7,2.9-1.4c-0.3-0.3-0.6-0.6-0.8-1
		c-0.3-0.4-0.4-0.6-0.6-1.2c-0.3,0-0.5,0-0.6,0v-0.7c0.2,0,0.5,0.1,0.8,0.1h3c0.3,0,0.5,0,0.6,0L-468.1,479.8z M-467.3,478.5
		c-0.4,0-0.8,0.1-1.2,0.1c-0.5,0-0.9,0-1.1-0.1c-0.1-0.1-0.2-0.2-0.2-0.4v-1.9h-1.8c0,0.9-0.1,1.3-0.5,1.9c-0.2,0.4-0.4,0.6-0.9,1
		c-0.1-0.2-0.3-0.3-0.5-0.5c0.9-0.6,1.2-1.2,1.2-2.6c0-0.1,0-0.2,0-0.4c0.2,0,0.3,0,0.7,0h1.7c0.4,0,0.5,0,0.7,0c0,0.2,0,0.3,0,0.7
		v1.6c0,0.2,0.1,0.2,0.5,0.2c0.5,0,0.6,0,1.2-0.1v0.5H-467.3z M-471.7,480c0.4,0.8,0.7,1.3,1.3,1.8c0.7-0.6,1-1,1.5-1.8H-471.7z"/>
	<path id="XMLID_224_" class="st0" d="M-463.4,478c-0.6,0.3-1.2,0.5-1.7,0.7c-0.3,0.1-0.3,0.1-0.5,0.2c-0.2,0.1-0.2,0.1-0.3,0.1
		l-0.2-0.7c0.9-0.2,1.6-0.4,2.7-0.9V478z M-461.5,480.3c0,0.2,0,0.2,0,0.7c0,0.9-0.1,1.3-0.4,1.8c-0.3,0.4-0.7,0.7-1.5,1
		c-0.5,0.2-0.9,0.3-1.6,0.4c-0.1,0-0.4,0-0.9,0.1c-0.1-0.2-0.1-0.4-0.3-0.6c1.1,0,2-0.2,2.7-0.5c0.6-0.3,1-0.6,1.2-1.1
		c0.1-0.3,0.1-0.7,0.1-1.2c0-0.2,0-0.3,0-0.5h0.7V480.3z M-464.1,476.8c-0.7-0.5-1.2-0.7-1.8-1l0.3-0.5c0.8,0.3,1.2,0.6,1.8,0.9
		L-464.1,476.8z M-465,482.7c0-0.3,0.1-0.6,0.1-1.1v-1.3c0-0.5,0-0.7,0-0.9c0.3,0,0.6,0,1.1,0h4.1c0.5,0,0.8,0,1.1,0
		c0,0.2,0,0.5,0,1v1.3c0,0.5,0,0.8,0,1.1h-0.8c0.1-0.4,0.1-0.6,0.1-1.1v-1.6h-4.9v1.6c0,0.4,0,0.9,0.1,1.1L-465,482.7L-465,482.7z
		 M-462.3,476.6c-0.2,0.3-0.6,0.6-0.9,0.9c-0.1-0.2-0.2-0.3-0.4-0.4c0.8-0.6,1.3-1.2,1.6-1.9l0.6,0.2c-0.2,0.4-0.3,0.5-0.4,0.7h3.3
		c0.3,0,0.5,0,0.7,0l0.4,0.3c0,0.1,0,0.1-0.1,0.2c0,0,0,0-0.1,0.2c-0.3,0.4-0.5,0.6-0.9,1c-0.2-0.1-0.3-0.2-0.5-0.3
		c0.4-0.3,0.6-0.5,0.9-0.8h-1.9c0.1,0.5,0.4,0.9,0.9,1.3s1.2,0.7,2.2,0.8c-0.1,0.2-0.2,0.3-0.3,0.6c-0.8-0.2-1.4-0.4-1.8-0.7
		c-0.6-0.4-0.9-0.7-1.2-1.4c-0.2,0.6-0.6,1-1.2,1.3c-0.3,0.2-0.6,0.3-0.9,0.4c0,0-0.2,0.1-0.5,0.1c-0.1,0-0.2,0-0.3,0.1
		c-0.1-0.2-0.1-0.3-0.3-0.6c0.9-0.1,1.5-0.4,2-0.8c0.4-0.3,0.6-0.7,0.7-1.3h-1.6V476.6z M-461.1,482.4c1.8,0.6,2.4,0.8,3.7,1.3
		l-0.3,0.6c-1.6-0.7-1.7-0.8-3.7-1.4L-461.1,482.4z"/>
	<path id="XMLID_240_" class="st0" d="M-454.8,476.5c-0.3,0.4-0.6,0.7-0.9,1c-0.2-0.2-0.2-0.2-0.5-0.4c0.8-0.5,1.3-1.2,1.6-2
		l0.6,0.2c-0.2,0.3-0.2,0.4-0.4,0.7h1.7c0.4,0,0.6,0,0.8,0v0.6c-0.3,0-0.3,0-0.8,0h-0.8c0.2,0.3,0.3,0.5,0.4,0.8l-0.5,0.2
		c-0.1-0.5-0.3-0.7-0.5-1.1H-454.8z M-448.6,477.8c0.5,0,0.7,0,1,0c0,0.2,0,0.3,0,0.6v0.5c0,0.3,0,0.5,0,0.7h-0.6v-1.2h-7v1.2h-0.6
		c0-0.2,0-0.4,0-0.6v-0.5c0-0.3,0-0.4,0-0.6c0.3,0,0.5,0,1,0h2.8c-0.1-0.2-0.2-0.3-0.4-0.6l0.4-0.3c0.1,0.2,0.3,0.5,0.6,0.8H-448.6z
		 M-454.6,484.3c0-0.3,0.1-0.6,0.1-1v-3.6c0-0.3,0-0.5,0-0.7c0.3,0,0.6,0,1,0h3.5c0.4,0,0.7,0,1,0c0,0.2,0,0.4,0,0.7v0.6
		c0,0.4,0,0.5,0,0.8c-0.3,0-0.6,0-1,0h-3.9v0.7h4.5c0.4,0,0.7,0,0.9,0c0,0.3-0.1,0.5-0.1,0.9v0.8c0,0.4,0,0.6,0.1,0.9h-0.7v-0.5
		h-4.8v0.5h-0.6V484.3z M-453.9,480.4h4.3v-0.9h-4.3C-453.9,479.5-453.9,480.4-453.9,480.4z M-453.9,483.3h4.8v-1h-4.8
		C-453.9,482.3-453.9,483.3-453.9,483.3z M-450.9,476.5c-0.1,0.2-0.2,0.3-0.6,0.7c-0.1-0.1-0.3-0.2-0.5-0.3c0.6-0.5,0.8-0.9,1.1-1.7
		l0.6,0.1c-0.1,0.3-0.2,0.5-0.3,0.7h2.4c0.4,0,0.6,0,0.9,0v0.6c-0.3,0-0.5-0.1-0.9-0.1h-1.3c0.2,0.3,0.3,0.5,0.5,0.8l-0.6,0.2
		c-0.2-0.5-0.3-0.7-0.5-1.1h-0.8V476.5z"/>
	<path id="XMLID_251_" class="st0" d="M-444.4,478.7h0.4c0.3,0,0.4,0,0.7,0v0.6c-0.2,0-0.4,0-0.7,0h-0.4v2.5
		c0.6-0.3,0.7-0.3,1.2-0.5v0.6c-0.9,0.4-1.3,0.6-2.5,1.1c-0.3,0.1-0.4,0.1-0.5,0.2l-0.2-0.7c0.4-0.1,0.8-0.2,1.4-0.4v-2.8h-0.5
		c-0.3,0-0.4,0-0.7,0.1v-0.6c0.2,0,0.4,0,0.7,0h0.5v-2.3h-0.5c-0.4,0-0.5,0-0.8,0v-0.7c0.2,0,0.4,0.1,0.8,0.1h1.5
		c0.4,0,0.6,0,0.8-0.1v0.7c-0.3,0-0.4,0-0.8,0h-0.5v2.2H-444.4z M-440,481.3h1.5c0.5,0,0.7,0,1,0v0.7c-0.3,0-0.5,0-1,0h-1.5v1.5h1.9
		c0.5,0,0.7,0,1-0.1v0.7c-0.3,0-0.5,0-1,0h-4.5c-0.5,0-0.7,0-1,0v-0.7c0.3,0,0.5,0.1,0.9,0.1h2.1V482h-1.3c-0.5,0-0.7,0-1,0v-0.7
		c0.3,0,0.5,0,1,0h1.3v-1.1h-1c-0.6,0-1,0-1.2,0c0-0.2,0-0.3,0-0.4c0-0.2,0-0.2,0-0.8v-2.1c0-0.6,0-1,0-1.3c0.3,0,0.6,0,1.3,0h2.6
		c0.7,0,1,0,1.3,0c0,0.3,0,0.7,0,1.3v2c0,0.6,0,1,0,1.3c-0.4,0-0.6,0-1.2,0h-1.2V481.3z M-440.6,476.2h-1.6v1.4h1.6V476.2z
		 M-440.6,478.2h-1.6v1.4h1.6V478.2z M-438.3,477.7v-1.4h-1.7v1.4H-438.3z M-438.3,479.6v-1.4h-1.7v1.4H-438.3z"/>
</g>
<g id="XMLID_431_">
	<path id="XMLID_435_" class="st0" d="M-344.4,526.8c0.4-0.6,0.8-1.3,1.1-1.9l0.7,0.2c-0.3,0.6-0.7,1.2-1.1,1.6h1.3c0.5,0,0.8,0,1,0
		c0,0.3,0,0.5,0,1v1.9c0,0.5,0,0.7,0,1c-0.3,0-0.6,0-1,0h-2.2v0.9h3.2c0.4,0,0.7,0,1-0.1v0.7c-0.3,0-0.6-0.1-1-0.1h-3.1v0.9
		c0,0.5,0,0.6,0.1,0.9h-0.7c0.1-0.3,0.1-0.4,0.1-0.9V532h-3c-0.4,0-0.7,0-1,0.1v-0.7c0.3,0,0.6,0.1,1,0.1h3v-0.9h-2
		c-0.4,0-0.7,0-1,0c0-0.3,0-0.5,0-0.9v-1.9c0-0.5,0-0.7,0-1c0.2,0,0.5,0,1,0C-347,526.8-344.4,526.8-344.4,526.8z M-347.6,527.3v1.1
		h2.4v-1.1H-347.6z M-347.6,528.9v1.1h2.4v-1.1H-347.6z M-346.6,524.9c0.4,0.4,0.6,0.7,1,1.4l-0.6,0.3c-0.3-0.6-0.6-1-1-1.5
		L-346.6,524.9z M-344.6,528.4h2.5v-1.1h-2.5V528.4z M-344.6,530h2.5v-1.1h-2.5V530z"/>
	<path id="XMLID_452_" class="st0" d="M-330.5,529.7c-0.4,0-0.7-0.1-1.3-0.1h-6.2c-0.5,0-1,0-1.3,0.1v-0.8c0.3,0,0.7,0.1,1.3,0.1
		h6.2c0.6,0,1,0,1.3-0.1V529.7z"/>
	<path id="XMLID_457_" class="st0" d="M-328.1,526.8c-0.5,0-0.8,0-1.1,0.1v-0.7c0.3,0,0.6,0.1,1.1,0.1h2c0.2-0.4,0.3-0.8,0.4-1.3
		l0.7,0.1c0,0.1-0.1,0.1-0.2,0.5c-0.1,0.2-0.1,0.4-0.3,0.6h4c0.5,0,0.8,0,1.1-0.1v0.7c-0.3,0-0.7-0.1-1.1-0.1h-4.3
		c-0.2,0.4-0.4,0.8-0.7,1.1h3.6c0.5,0,0.8,0,1.1,0c0,0.3,0,0.6,0,1.2v4c0,0.3-0.1,0.5-0.3,0.6c-0.1,0.1-0.3,0.1-0.8,0.1
		c-0.3,0-0.6,0-1.1,0c0-0.3-0.1-0.4-0.1-0.6c0.5,0.1,0.8,0.1,1.3,0.1c0.4,0,0.5-0.1,0.5-0.3v-1.2h-4.2v1.1c0,0.5,0,0.8,0.1,1.1h-0.7
		c0-0.4,0.1-0.7,0.1-1.1V529c-0.6,0.6-1,1.1-1.8,1.7c-0.1-0.2-0.2-0.3-0.4-0.5c0.7-0.5,1.4-1,2-1.7c0.5-0.5,0.8-1,1.1-1.6
		L-328.1,526.8L-328.1,526.8z M-322.4,529.5v-1.1h-4.2v1.1H-322.4z M-326.6,531.2h4.2v-1.1h-4.2L-326.6,531.2L-326.6,531.2z"/>
	<path id="XMLID_467_" class="st0" d="M-318.8,526c0-0.3,0-0.5,0-0.8c0.1,0,0.4,0,0.7,0h1.5c0.3,0,0.5,0,0.6,0l0.4,0.4
		c-0.1,0.1-0.1,0.2-0.1,0.3c-0.4,0.8-0.6,1.5-1.1,2.3c0.5,0.6,0.7,0.9,0.8,1.3c0.1,0.3,0.2,0.7,0.2,1c0,0.5-0.1,0.9-0.4,1
		c-0.2,0.1-0.4,0.1-0.8,0.1c-0.1,0-0.3,0-0.5,0c0-0.3-0.1-0.4-0.1-0.6c0.3,0.1,0.5,0.1,0.7,0.1c0.4,0,0.6-0.1,0.6-0.5
		c0-0.4-0.1-0.7-0.2-1.1c-0.2-0.4-0.4-0.7-0.9-1.2c0.5-1,0.7-1.4,1.1-2.5h-1.7v7.2c0,0.4,0,0.6,0,0.9h-0.7c0-0.3,0.1-0.6,0.1-0.9v-7
		H-318.8z M-310.5,530.1c-0.1,0-0.1,0-0.1,0.1c-0.5,0.4-1.1,0.8-1.8,1.3c0.6,0.8,1.2,1.3,2.2,1.8c-0.2,0.2-0.3,0.3-0.4,0.6
		c-1.1-0.7-1.7-1.2-2.3-2.1c-0.5-0.7-0.7-1.3-1-2.3h-1v3.5c0,0,0,0,0.1,0c0.5-0.1,1.3-0.4,1.8-0.5v0.6c-0.8,0.2-0.8,0.2-1.2,0.3
		c-0.3,0.1-0.5,0.1-0.6,0.2c-0.6,0.2-0.6,0.2-0.8,0.3l-0.2-0.6c0.3-0.1,0.3-0.2,0.4-0.6v-6.3c0-0.4,0-0.7,0-1c0.3,0,0.5,0,1,0h2.6
		c0.5,0,0.8,0,1,0c0,0.3,0,0.5,0,1.1v2.1c0,0.6,0,0.8,0,1c-0.3,0-0.6,0-0.9,0h-1.3c0.2,0.7,0.3,1.1,0.6,1.5c0.7-0.4,1.5-1.1,1.7-1.4
		L-310.5,530.1z M-314.8,527.2h3.3V526h-3.3V527.2z M-314.8,529h3.3v-1.3h-3.3V529z"/>
	<path id="XMLID_480_" class="st0" d="M-301.3,530.5c0.5,0,0.8,0,1-0.1v0.6c-0.3,0-0.5-0.1-1-0.1l0,0v0.6c0,0.5,0,0.8,0.1,1h-0.8
		v-0.4h-2.7v0.8c0,0.7-0.2,0.8-1.2,0.8c-0.2,0-0.5,0-0.9,0c0-0.3-0.1-0.4-0.2-0.6c0.5,0.1,0.9,0.1,1.2,0.1c0.4,0,0.5-0.1,0.5-0.3
		v-0.8h-2.4c-0.5,0-0.7,0-1,0v-0.6c0.3,0,0.5,0,1,0h2.4V531h-3c-0.5,0-0.8,0-1.1,0.1v-0.6c0.2,0,0.5,0.1,1.1,0.1h3v-0.7h-2.3
		c-0.4,0-0.6,0-0.9,0v-0.6c0.3,0,0.5,0,1,0h2.3v-0.6h-2.1c-0.3,0-0.6,0-0.8,0c0-0.2,0-0.4,0-0.7v-0.4c0-0.3,0-0.4,0-0.7
		c0.3,0,0.5,0,0.8,0h2.1v-0.7h-2.9c-0.5,0-0.8,0-1.1,0.1v-0.7c0.3,0,0.6,0.1,1.1,0.1h2.9c0-0.5,0-0.6-0.1-0.9h0.7
		c-0.1,0.3-0.1,0.4-0.1,0.9h3.1c0.6,0,0.9,0,1.1-0.1v0.7c-0.3,0-0.7-0.1-1.1-0.1h-3.1v0.7h2.3c0.3,0,0.6,0,0.8,0c0,0.3,0,0.4,0,0.7
		v0.4c0,0.3,0,0.4,0,0.7c-0.2,0-0.5,0-0.8,0h-2.3v0.6h2.2c0.6,0,0.8,0,1.1,0c0,0.2,0,0.4,0,0.8L-301.3,530.5L-301.3,530.5z
		 M-305.2,527.4h-2.3v0.7h2.3V527.4z M-302.2,528.1v-0.7h-2.5v0.7H-302.2z M-302,530.5v-0.7h-2.7v0.7H-302z M-304.6,531.7h2.7V531
		h-2.7V531.7z"/>
	<path id="XMLID_494_" class="st0" d="M-297.7,530.9c-0.5,0-0.7,0-1,0.1v-0.7c0.2,0,0.5,0.1,1,0.1h2.3c0.1-0.3,0.1-0.6,0.1-0.8
		c0-0.1,0-0.1,0-0.2h0.8c0,0.1,0,0.1-0.1,0.7c0,0.1,0,0.2-0.1,0.3h2.5c0.5,0,0.8,0,1,0c0,0.1,0,0.1,0,0.4c-0.1,1-0.3,1.9-0.5,2.4
		c-0.1,0.2-0.3,0.4-0.4,0.5c-0.1,0.1-0.4,0.1-0.9,0.1c-0.3,0-0.6,0-1.2-0.1c-0.1-0.3-0.1-0.4-0.2-0.7c0.5,0.1,0.9,0.1,1.4,0.1
		s0.6-0.1,0.8-0.5c0.1-0.4,0.2-0.9,0.3-1.7h-2.9c-0.6,1.6-1.7,2.5-4,3c-0.1-0.2-0.2-0.4-0.4-0.6c2.1-0.4,3.1-1,3.7-2.4
		C-295.5,530.9-297.7,530.9-297.7,530.9z M-291.7,526.3c-0.1,0.1-0.1,0.1-0.6,0.6s-1,1-1.7,1.3c1,0.4,1.9,0.6,3.5,0.8
		c-0.2,0.2-0.2,0.4-0.3,0.6c-1.4-0.2-2.3-0.4-3.3-0.8c-0.3-0.1-0.3-0.1-0.7-0.3c-1.1,0.5-2.4,0.8-4.2,1.1c-0.1-0.3-0.1-0.4-0.3-0.6
		c1.4-0.2,2.7-0.4,3.8-0.9c-0.8-0.5-1.1-0.7-1.6-1.4c-0.6,0.5-1,0.8-1.7,1.2c-0.2-0.2-0.2-0.3-0.4-0.4c1-0.5,1.7-1,2.3-1.7
		c0.4-0.4,0.6-0.7,0.7-0.9l0.7,0.2c-0.2,0.2-0.3,0.3-0.3,0.4c-0.1,0.2-0.2,0.2-0.3,0.4h3c0.4,0,0.7,0,0.9,0L-291.7,526.3z
		 M-296.5,526.4c0.6,0.7,1.2,1.1,1.9,1.5c0.7-0.3,1.3-0.8,1.9-1.5H-296.5L-296.5,526.4z"/>
	<path id="XMLID_504_" class="st0" d="M-284.6,525.1c0.5,0.7,0.9,1.1,1.7,1.7c0.9,0.7,1.8,1.2,2.7,1.5c-0.2,0.2-0.3,0.4-0.4,0.6
		c-1.9-0.9-3.4-2-4.4-3.3c-0.5,0.6-0.7,0.9-1.2,1.3c-0.7,0.6-1.2,1-1.9,1.4c-0.5,0.3-0.7,0.4-1.1,0.6c-0.1-0.2-0.2-0.3-0.4-0.6
		c1.2-0.5,2.1-1.1,3-1.9c0.6-0.6,1.1-1.2,1.5-1.8l0.6,0.3L-284.6,525.1z M-288,533.9c0-0.3,0.1-0.6,0.1-1v-2.2c0-0.4,0-0.6-0.1-0.9
		c0.2,0,0.4,0,0.8,0h4.7c0.4,0,0.6,0,0.8,0c0,0.3,0,0.5,0,0.9v2.2c0,0.4,0,0.7,0.1,1h-0.7v-0.6h-4.8v0.6H-288z M-287.3,532.7h4.8
		v-2.3h-4.8V532.7z M-287.2,528c0.2,0,0.4,0,0.8,0h3.1c0.4,0,0.6,0,0.8,0v0.7c-0.2,0-0.5,0-0.8,0h-3.1c-0.3,0-0.6,0-0.8,0V528z"/>
	<path id="XMLID_517_" class="st0" d="M-278.2,529.5c0-0.4,0-0.8,0.1-1.3c-0.3,0.6-0.6,1-1.1,1.5c-0.1-0.2-0.1-0.3-0.4-0.6
		c0.8-0.8,1.4-1.8,1.9-2.9c0.2-0.5,0.4-1,0.4-1.3l0.7,0.2c-0.3,0.9-0.4,1.1-0.9,2.2v5.4c0,0.4,0,0.8,0.1,1.2h-0.8
		c0-0.3,0.1-0.6,0.1-1.2v-3.2H-278.2z M-273.2,524.9c-0.1,0.3-0.1,0.5-0.1,1.3c0,2,0.1,2.7,0.4,3.7c0.3,0.9,0.8,1.7,1.4,2.4
		c0.4,0.4,0.7,0.6,1.3,1c-0.3,0.1-0.4,0.3-0.6,0.5c-0.7-0.4-1.1-0.8-1.5-1.3c-0.3-0.4-0.7-0.9-0.9-1.4c-0.2-0.5-0.3-0.9-0.5-1.6
		c-0.2,1-0.3,1.5-0.7,2.1c-0.6,1-1.3,1.7-2.4,2.3c-0.1-0.2-0.3-0.4-0.5-0.5c1.2-0.6,1.9-1.3,2.4-2.3c0.3-0.6,0.5-1.3,0.7-2.1
		c0.1-0.6,0.1-1.2,0.1-2.5c0-0.9,0-1.1-0.1-1.4h1V524.9z M-276.5,529.3c0.4-1,0.5-1.5,0.6-2.7l0.7,0.1c-0.2,1.4-0.3,2-0.7,2.9
		L-276.5,529.3z M-270.4,526.8c-0.4,1.1-0.7,1.8-1.3,2.7c-0.2-0.2-0.3-0.3-0.6-0.4c0.6-0.8,0.9-1.6,1.2-2.6L-270.4,526.8z"/>
	<path id="XMLID_529_" class="st0" d="M-264.5,525c0,0.2-0.1,0.6-0.1,0.9c0,0.6,0.1,1.6,0.2,2.2c0.2,0.8,0.7,2,1.3,2.8
		c0.4,0.6,0.9,1.1,1.5,1.6c0.3,0.3,0.6,0.4,1.2,0.8c-0.2,0.2-0.4,0.3-0.5,0.6c-1.2-0.8-1.9-1.5-2.6-2.6c-0.6-0.9-1-1.8-1.3-3.2
		c-0.2,0.9-0.3,1.5-0.7,2.2c-0.3,0.8-0.8,1.4-1.4,2c-0.6,0.6-1,0.9-1.8,1.5c-0.2-0.3-0.3-0.4-0.5-0.6c1-0.6,1.5-0.9,2-1.5
		c1.4-1.5,2.1-3.4,2.1-5.9c0-0.4,0-0.6-0.1-0.9L-264.5,525L-264.5,525z"/>
</g>
<g id="XMLID_383_">
	<path id="XMLID_385_" class="st1" d="M-333.8,559.5l-0.2,0.6h-3c0,0.2,0,0.4,0,0.6c0,0.1,0,0.1,0,0.2h2.7l-0.2,0.6h-2.5
		c0.2,1.5,1,2.4,2.2,2.4c0.6,0,1.2-0.3,1.5-0.8c0.2-0.3,0.3-0.5,0.4-0.9l0.8,0.2c-0.2,0.6-0.3,0.8-0.5,1.1c-0.5,0.7-1.2,1-2.1,1
		c-1.7,0-2.7-1.1-3-3.1h-1l0.2-0.6h0.7c0-0.1,0-0.2,0-0.3c0-0.2,0-0.3,0-0.5h-0.9l0.2-0.6h0.8c0.1-0.6,0.3-1,0.5-1.5
		c0.6-0.9,1.3-1.3,2.4-1.3c0.8,0,1.5,0.3,2,0.8c0.3,0.3,0.4,0.5,0.6,1.1l-0.8,0.2c-0.1-0.4-0.2-0.5-0.3-0.7
		c-0.3-0.5-0.8-0.7-1.5-0.7c-1.1,0-1.9,0.8-2.1,2.1L-333.8,559.5L-333.8,559.5z"/>
	<path id="XMLID_391_" class="st1" d="M-326.7,559.5l-0.2,0.6h-3c0,0.2,0,0.4,0,0.6c0,0.1,0,0.1,0,0.2h2.7l-0.2,0.6h-2.4
		c0.2,1.5,1,2.4,2.2,2.4c0.6,0,1.2-0.3,1.5-0.8c0.2-0.3,0.3-0.5,0.4-0.9l0.8,0.2c-0.2,0.6-0.3,0.8-0.5,1.1c-0.5,0.7-1.2,1-2.1,1
		c-1.7,0-2.7-1.1-3-3.1h-1l0.2-0.6h0.7c0-0.1,0-0.2,0-0.3c0-0.2,0-0.3,0-0.5h-0.9l0.2-0.6h0.8c0.1-0.6,0.3-1,0.5-1.5
		c0.6-0.9,1.3-1.3,2.4-1.3c0.8,0,1.5,0.3,2,0.8c0.3,0.3,0.4,0.5,0.6,1.1l-0.8,0.2c-0.1-0.4-0.2-0.5-0.3-0.7
		c-0.3-0.5-0.8-0.7-1.5-0.7c-1.1,0-1.9,0.8-2.1,2.1L-326.7,559.5L-326.7,559.5z"/>
	<path id="XMLID_395_" class="st1" d="M-319.5,559.5l-0.2,0.6h-3c0,0.2,0,0.4,0,0.6c0,0.1,0,0.1,0,0.2h2.7l-0.2,0.6h-2.4
		c0.2,1.5,1,2.4,2.2,2.4c0.6,0,1.2-0.3,1.5-0.8c0.2-0.3,0.3-0.5,0.4-0.9l0.8,0.2c-0.2,0.6-0.3,0.8-0.5,1.1c-0.5,0.7-1.2,1-2.1,1
		c-1.7,0-2.7-1.1-3-3.1h-1l0.2-0.6h0.7c0-0.1,0-0.2,0-0.3c0-0.2,0-0.3,0-0.5h-0.9l0.2-0.6h0.8c0.1-0.6,0.3-1,0.5-1.5
		c0.6-0.9,1.3-1.3,2.4-1.3c0.8,0,1.5,0.3,2,0.8c0.3,0.3,0.4,0.5,0.6,1.1l-0.8,0.2c-0.1-0.4-0.2-0.5-0.3-0.7
		c-0.3-0.5-0.8-0.7-1.5-0.7c-1.1,0-1.9,0.8-2.1,2.1L-319.5,559.5L-319.5,559.5z"/>
	<path id="XMLID_400_" class="st1" d="M-308.9,558.2h3c0.5,0,0.8,0,1-0.1v0.7c-0.3,0-0.6-0.1-1-0.1h-2.4c0.3,0.3,0.6,0.5,1.1,0.7
		c0.8,0.5,1.5,0.7,2.7,1c-0.2,0.2-0.3,0.3-0.4,0.6c-0.8-0.2-1.4-0.5-2.1-0.8c-0.8-0.4-1.3-0.8-1.8-1.3c0,0.2,0,0.4,0,0.5v0.3
		c0,0.3,0,0.5,0,0.7h-0.7c0-0.2,0-0.4,0-0.7v-0.3c0-0.1,0-0.3,0-0.5c-0.6,0.6-1,0.9-1.7,1.3c-0.6,0.4-1.3,0.7-2.1,0.9
		c-0.1-0.2-0.2-0.3-0.4-0.5c0.8-0.2,1.5-0.5,2.1-0.8c0.5-0.3,1.1-0.6,1.4-0.9h-2.3c-0.4,0-0.7,0-1,0.1v-0.7c0.3,0,0.6,0.1,1,0.1h2.9
		v-0.9c-1.2,0.1-1.8,0.1-3,0.1c-0.1-0.2-0.1-0.4-0.3-0.6c0.3,0,0.6,0,0.7,0c2.2,0,4.9-0.3,5.9-0.7l0.5,0.6c-0.1,0-0.1,0-0.9,0.2
		c-0.6,0.1-1.7,0.3-2.4,0.3v0.8H-308.9z M-305.9,562.6c0.5,0,0.8,0,1-0.1v0.7c-0.3,0-0.6-0.1-1.1-0.1h-2.8v1.3
		c0,0.6-0.3,0.8-1.1,0.8c-0.3,0-0.8,0-1.2-0.1c0-0.3-0.1-0.4-0.2-0.6c0.5,0.1,0.9,0.1,1.3,0.1s0.5-0.1,0.5-0.3V563h-3
		c-0.4,0-0.8,0-1.1,0.1v-0.7c0.3,0,0.6,0.1,1,0.1h3l0,0c0-0.2,0-0.3,0-0.5h0.4c0.5-0.2,1-0.5,1.4-0.8h-3.1c-0.5,0-0.7,0-0.9,0v-0.6
		c0.2,0,0.5,0,0.9,0h3.1c0.4,0,0.5,0,0.7,0l0.4,0.4l-0.2,0.1c-0.9,0.7-1.2,0.9-2,1.2v0.2L-305.9,562.6L-305.9,562.6z"/>
	<path id="XMLID_406_" class="st1" d="M-302.2,559.2c0,1.9-0.1,2.7-0.3,3.6c-0.2,0.9-0.4,1.5-0.8,2.3c-0.2-0.2-0.3-0.4-0.5-0.5
		c0.4-0.6,0.6-1.1,0.7-1.8c0.2-1,0.3-2.4,0.3-4.6c0-0.6,0-0.9,0-1.2c0.3,0,0.6,0,1,0h2.8c-0.2-0.3-0.2-0.4-0.4-0.7l0.5-0.3
		c0.2,0.3,0.2,0.3,0.5,0.9c0,0,0,0,0.1,0.1h2.4c0.5,0,0.8,0,1.1-0.1v0.7c-0.3,0-0.6,0-1,0h-6.4v1.1h1.8v-0.2c0-0.3,0-0.5,0-0.6h0.7
		c0,0.2,0,0.4,0,0.6v0.2h2.3v-0.2c0-0.3,0-0.5,0-0.7h0.7c0,0.2,0,0.4,0,0.7v0.2h1.2c0.4,0,0.7,0,0.9-0.1v0.6c-0.2,0-0.5,0-0.9,0
		h-1.2v1c0,0.2,0,0.4,0,0.6c-0.2,0-0.3,0-0.6,0h-2.2c-0.4,0-0.6,0-0.7,0c0-0.2,0-0.4,0-0.6v-1H-302.2z M-295.9,561.9
		c-0.1,0.1-0.2,0.2-0.3,0.4c-0.5,0.5-1.1,1.1-1.6,1.5c1,0.5,2.1,0.8,3.3,0.8c-0.1,0.2-0.2,0.4-0.3,0.7c-1.5-0.2-2.5-0.6-3.5-1.1
		c-1.1,0.6-2.1,0.9-3.6,1.2c-0.1-0.2-0.1-0.4-0.3-0.6c1.5-0.2,2.4-0.4,3.4-0.9c-0.7-0.5-1.1-0.9-1.6-1.7c-0.5,0-0.7,0-1,0v-0.6
		c0.2,0,0.5,0,1,0h3.6c0.3,0,0.5,0,0.7,0L-295.9,561.9z M-299.9,562.1c0.4,0.5,0.8,0.9,1.5,1.4c0.6-0.4,1-0.7,1.6-1.4H-299.9z
		 M-299.7,560.3h2.3v-1.1h-2.3V560.3z"/>
	<path id="XMLID_413_" class="st1" d="M-289.9,563.8c-1,0.3-2.1,0.6-3.2,0.8c-0.2,0-0.3,0-0.4,0.1l-0.1-0.7c0,0,0,0,0.1,0
		c0.6,0,2.4-0.4,3.6-0.7V563.8z M-291.2,556.5c-0.1,0.2-0.1,0.3-0.2,0.4c-0.4,1.1-0.7,1.6-1.3,2.4c0.7,0,0.7,0,1.5-0.1
		c0.3-0.5,0.4-0.7,0.6-1l0.6,0.3c-0.7,1.1-0.7,1.1-0.9,1.4c-0.4,0.6-0.9,1.2-1.5,1.9c0.6-0.1,0.6-0.1,2.3-0.4l-0.1,0.6
		c-0.1,0-0.7,0.1-1.8,0.3c-0.7,0.1-0.8,0.1-1.2,0.2l-0.2-0.6c0.4-0.2,0.4-0.2,0.9-0.8c0.3-0.4,0.4-0.5,0.9-1.3c-0.3,0-0.4,0-0.8,0.1
		h-0.3c-0.3,0-0.3,0-0.5,0.1c-0.1,0-0.1,0-0.2,0l-0.1-0.6c0.2-0.1,0.2-0.1,0.4-0.3c0.4-0.6,1-1.8,1.3-2.8L-291.2,556.5z
		 M-288.5,557.6c-0.4,0-0.7,0-1,0V557c0.3,0,0.6,0.1,1,0.1h2.6c0.4,0,0.8,0,1.1-0.1v0.7c-0.3,0-0.6,0-1.1,0h-1v6.6h1.2
		c0.5,0,0.8,0,1.1-0.1v0.7c-0.3,0-0.7,0-1.1,0h-3c-0.4,0-0.8,0-1.1,0v-0.7c0.3,0,0.6,0.1,1,0.1h1.2v-6.6h-0.9V557.6z"/>
	<path id="XMLID_421_" class="st1" d="M-281.5,557.6c-0.4,0.1-1,0.2-1.7,0.3c-0.1-0.2-0.1-0.4-0.3-0.6c1.2-0.2,2-0.3,3.2-0.8
		c0.4-0.1,0.5-0.2,0.6-0.3l0.4,0.5c-0.2,0.1-0.2,0.1-0.4,0.1c-0.5,0.2-0.8,0.3-1.3,0.4v1.6h1c0.3,0,0.6,0,0.9-0.1v0.7
		c-0.2,0-0.5,0-0.9,0h-1v0.3c1,1.1,1.2,1.3,1.8,2l-0.5,0.4c-0.2-0.3-0.2-0.3-0.4-0.6c-0.7-0.9-0.8-1-0.8-1.1v3.5
		c0,0.6,0,0.9,0.1,1.2h-0.7c0-0.3,0.1-0.7,0.1-1.2V562c0-0.6,0-0.9,0-1.7c-0.5,1.3-1,2.1-1.9,3c-0.1-0.3-0.2-0.4-0.4-0.6
		c0.7-0.6,1.1-1.2,1.6-2c0.3-0.6,0.4-0.9,0.6-1.3h-0.9c-0.4,0-0.7,0-0.9,0.1V559c0.2,0,0.5,0.1,0.9,0.1h1v-1.5H-281.5z M-277.6,557
		c0,0.3,0,0.6,0,1.1v3.9c0,0.7,0,0.9,0,1.2h-0.7c0-0.3,0-0.5,0-1.2v-3.9c0-0.6,0-0.8-0.1-1.1H-277.6z M-275.1,556.4
		c-0.1,0.3-0.1,0.7-0.1,1.3v6.6c0,0.7-0.2,0.9-1.2,0.9c-0.3,0-0.7,0-1,0c-0.1-0.3-0.1-0.4-0.2-0.7c0.5,0.1,0.9,0.1,1.3,0.1
		s0.5,0,0.5-0.3v-6.5c0-0.6,0-0.9-0.1-1.3L-275.1,556.4L-275.1,556.4z"/>
</g>
<g id="XMLID_290_">
	<path id="XMLID_291_" class="st1" d="M-61.3,563.8c-0.2-0.2-0.3-0.4-0.9-0.9c-0.6,0.3-1.1,0.5-1.8,0.5c-2.1,0-3.4-1.5-3.4-3.9
		c0-2.4,1.4-4,3.5-4s3.4,1.5,3.4,3.9c0,0.7-0.1,1.4-0.4,1.9c-0.2,0.4-0.4,0.7-0.8,1.2c0.5,0.5,0.6,0.6,0.9,0.8L-61.3,563.8z
		 M-63,561c0.2,0.2,0.3,0.3,0.8,0.8c0.3-0.3,0.4-0.5,0.6-0.8c0.2-0.5,0.3-1.1,0.3-1.8c0-2-1-3.2-2.6-3.2s-2.7,1.3-2.7,3.2
		c0,2,1,3.2,2.7,3.2c0.5,0,0.8-0.1,1.2-0.3c-0.3-0.3-0.5-0.5-0.8-0.7L-63,561z"/>
	<path id="XMLID_294_" class="st1" d="M-58.3,562.2v1h-1v-1H-58.3z"/>
	<path id="XMLID_296_" class="st1" d="M-47.9,563.1c-0.1-0.4-0.2-0.7-0.3-1l-0.5-1.3h-3.5l-0.5,1.3c-0.1,0.4-0.2,0.7-0.3,1h-1
		c0.2-0.3,0.3-0.5,0.5-1.1l2.2-5.5c0.2-0.5,0.3-0.7,0.3-0.9h1c0,0.2,0.1,0.3,0.3,0.9l2.2,5.5c0.3,0.6,0.4,0.9,0.5,1.1H-47.9z
		 M-50.3,556.8c0-0.1,0-0.1-0.2-0.6c-0.1,0.1-0.1,0.3-0.1,0.3c-0.1,0.2-0.1,0.3-0.1,0.3l-1.3,3.3h3L-50.3,556.8z"/>
	<path id="XMLID_299_" class="st1" d="M-40.9,563.1c0-0.3-0.2-0.7-0.6-1.7c-0.6-1.4-1-1.8-1.8-1.8h-1.8v2.3c0,0.5,0,0.8,0.1,1.1h-1
		c0.1-0.4,0.1-0.6,0.1-1.1v-5.4c0-0.4,0-0.8-0.1-1.1c0.3,0,0.6,0,1.1,0h2.2c1.4,0,2.2,0.7,2.2,1.9c0,0.6-0.2,1.1-0.6,1.5
		c-0.3,0.3-0.5,0.4-1.1,0.5c0.4,0.1,0.7,0.4,1,1.1c0.2,0.5,0.5,1,0.8,1.7c0.2,0.4,0.3,0.7,0.5,0.9L-40.9,563.1L-40.9,563.1z
		 M-42.8,559c0.4,0,0.9-0.2,1.1-0.4c0.3-0.3,0.4-0.6,0.4-1c0-0.8-0.5-1.3-1.4-1.3h-2.4v2.7H-42.8z"/>
	<path id="XMLID_302_" class="st1" d="M-35.9,562c0,0.5,0,0.8,0.1,1.1h-0.9c0.1-0.3,0.1-0.7,0.1-1.1v-5.8h-1.6c-0.5,0-0.8,0-1.1,0.1
		v-0.8c0.3,0.1,0.6,0.1,1.1,0.1h3.9c0.6,0,0.8,0,1.2-0.1v0.8c-0.3,0-0.6-0.1-1.2-0.1h-1.5L-35.9,562L-35.9,562z"/>
	<path id="XMLID_304_" class="st1" d="M-26,555.5c-0.1,0.4-0.1,0.6-0.1,1.1v5.4c0,0.5,0,0.7,0.1,1.1h-0.9c0.1-0.4,0.1-0.6,0.1-1.1
		v-2.5h-4.5v2.5c0,0.5,0,0.8,0.1,1.1h-0.9c0.1-0.3,0.1-0.6,0.1-1.1v-5.4c0-0.5,0-0.8-0.1-1.1h0.9c-0.1,0.4-0.1,0.6-0.1,1.1v2.1h4.5
		v-2.1c0-0.5,0-0.8-0.1-1.1H-26z"/>
	<path id="XMLID_306_" class="st1" d="M-18.3,555.5c-0.1,0.3-0.1,0.6-0.1,1.1v3.7c0,0.9-0.3,1.6-0.8,2.1s-1.3,0.8-2.3,0.8
		s-1.8-0.3-2.3-0.8s-0.7-1.2-0.7-2.1v-3.7c0-0.5,0-0.8-0.1-1.1h0.9c-0.1,0.3-0.1,0.6-0.1,1.1v3.7c0,1.4,0.8,2.3,2.2,2.3
		c0.8,0,1.4-0.2,1.7-0.7c0.3-0.4,0.5-0.9,0.5-1.6v-3.7c0-0.5,0-0.8-0.1-1.1H-18.3z"/>
	<path id="XMLID_308_" class="st1" d="M-11.7,563.1c0-0.3-0.2-0.7-0.6-1.7c-0.6-1.4-1-1.8-1.8-1.8h-1.8v2.3c0,0.5,0,0.8,0.1,1.1
		h-0.9c0.1-0.4,0.1-0.6,0.1-1.1v-5.4c0-0.4,0-0.8-0.1-1.1c0.3,0,0.6,0,1.1,0h2.2c1.4,0,2.2,0.7,2.2,1.9c0,0.6-0.2,1.1-0.6,1.5
		c-0.3,0.3-0.5,0.4-1.1,0.5c0.4,0.1,0.7,0.4,1,1.1c0.2,0.5,0.5,1,0.8,1.7c0.2,0.4,0.3,0.7,0.5,0.9L-11.7,563.1L-11.7,563.1z
		 M-13.5,559c0.4,0,0.9-0.2,1.1-0.4c0.3-0.3,0.4-0.6,0.4-1c0-0.8-0.5-1.3-1.4-1.3h-2.4v2.7H-13.5z"/>
	<path id="XMLID_311_" class="st1" d="M-5.1,563.1c-0.5,0-0.7,0-1.1,0c0.1-0.4,0.1-0.7,0.1-1.2v-5.3c0-0.5,0-0.8-0.1-1.2h0.9
		c-0.1,0.4-0.1,0.6-0.1,1.2v5.7h3.1c0.5,0,0.8,0,1.2-0.1v0.8c-0.3-0.1-0.6-0.1-1.2-0.1h-2.8V563.1z"/>
	<path id="XMLID_313_" class="st1" d="M2.7,562c0,0.5,0,0.8,0.1,1.1H1.9C2,562.8,2,562.4,2,562v-5.8H0.4c-0.5,0-0.8,0-1.1,0.1v-0.8
		c0.3,0.1,0.6,0.1,1.1,0.1h3.9c0.6,0,0.8,0,1.2-0.1v0.8c-0.3,0-0.6-0.1-1.2-0.1H2.8L2.7,562L2.7,562z"/>
	<path id="XMLID_315_" class="st1" d="M6.4,556.7c0-0.4,0-0.7-0.1-1.1c0.3,0,0.6,0,1.1,0h1.7c2.2,0,3.5,1.4,3.5,3.7
		c0,1.2-0.4,2.3-1.1,3c-0.6,0.6-1.4,0.9-2.4,0.9H7.4c-0.5,0-0.8,0-1.1,0c0.1-0.4,0.1-0.7,0.1-1.2V556.7z M9.1,562.4
		c0.8,0,1.4-0.2,1.9-0.7c0.5-0.6,0.8-1.4,0.8-2.4s-0.3-1.8-0.8-2.4c-0.4-0.5-1.1-0.7-1.9-0.7H7.2v6.2H9.1L9.1,562.4z"/>
	<path id="XMLID_318_" class="st1" d="M-66.2,575.2c0.5-0.2,1-0.4,1.3-0.6V570c0-0.4,0-0.7-0.1-1h0.7c0,0.3-0.1,0.6-0.1,1v6.9
		c0,0.5,0,0.8,0,1H-65c0-0.3,0.1-0.6,0.1-1v-1.6c-0.2,0.1-0.3,0.1-0.6,0.3c-0.4,0.2-0.5,0.2-0.9,0.4c-0.2,0.1-0.2,0.1-0.5,0.2
		l-0.3-0.6c0.2-0.1,0.3-0.2,0.3-0.5V571c0-0.4,0-0.8-0.1-1h0.7c0,0.3-0.1,0.6-0.1,1v4.2H-66.2z M-59.6,571.2c-0.1,1-0.1,1.1-0.2,1.8
		c-0.2,0.9-0.5,1.6-0.9,2.2c0.7,0.9,1.5,1.5,2.5,2.1c-0.2,0.2-0.3,0.4-0.5,0.6c-1.1-0.7-1.7-1.2-2.5-2.1c-0.6,0.8-1.4,1.5-2.5,2.1
		c-0.3-0.4-0.4-0.5-0.5-0.6c1.2-0.6,2-1.2,2.6-2.1c-0.6-0.8-1-1.8-1.4-2.8c-0.4,0.6-0.4,0.8-0.8,1.3c-0.2-0.2-0.2-0.3-0.5-0.5
		c0.6-0.7,1-1.5,1.3-2.4c0.2-0.7,0.4-1.4,0.4-2l0.7,0.1c0,0.1-0.1,0.2-0.3,1.2c0,0.1-0.1,0.3-0.1,0.5h2.7c0.4,0,0.7,0,0.9-0.1v0.7
		c-0.3,0-0.5-0.1-0.9-0.1l0,0V571.2z M-62.3,571.2c0,0.1-0.1,0.2-0.2,0.4c0.3,0.8,0.3,1,0.6,1.5s0.5,0.9,0.8,1.5
		c0.5-1,0.8-2.1,0.9-3.4H-62.3z"/>
	<path id="XMLID_322_" class="st1" d="M-56.5,576.6c-0.3-0.3-0.5-0.6-0.6-0.9c-0.3-0.7-0.4-1.5-0.4-2.3c0-1.1,0.2-2.1,0.6-2.7
		c0.5-0.8,1.3-1.2,2.2-1.2c0.7,0,1.4,0.2,1.8,0.7c0.3,0.3,0.5,0.6,0.6,0.9c0.3,0.7,0.4,1.5,0.4,2.3c0,1.2-0.3,2.3-0.7,2.9
		c-0.5,0.7-1.2,1-2.1,1C-55.4,577.3-56,577.1-56.5,576.6z M-55.9,570.6c-0.2,0.2-0.4,0.5-0.5,0.7c-0.2,0.6-0.3,1.3-0.3,2
		c0,0.9,0.2,1.9,0.5,2.4c0.3,0.6,0.9,0.9,1.5,0.9c0.5,0,0.9-0.2,1.2-0.5c0.2-0.2,0.4-0.5,0.5-0.8c0.2-0.6,0.3-1.3,0.3-2
		c0-0.9-0.2-1.9-0.4-2.3c-0.3-0.6-0.9-0.9-1.6-0.9C-55.2,570.1-55.6,570.3-55.9,570.6z"/>
	<path id="XMLID_325_" class="st1" d="M-49.7,576.2v1h-1v-1H-49.7z"/>
	<path id="XMLID_327_" class="st1" d="M-47.4,569.5c0.3,0,0.5,0,0.8,0h0.6c0.3,0,0.5,0,0.8,0c-0.1,0.6-0.1,1.1-0.1,1.7v4.9
		c0,0.5,0,0.8,0.1,1.1H-46c0.1-0.3,0.1-0.7,0.1-1.1v-5.8h-0.5c-0.3,0-0.6,0-0.9,0.1L-47.4,569.5L-47.4,569.5z"/>
	<path id="XMLID_329_" class="st1" d="M-40.6,572.4c0,0.2,0,0.2-0.1,0.4c0.5-0.5,1.1-0.7,1.8-0.7s1.3,0.2,1.8,0.7
		c0.4,0.4,0.7,1,0.7,1.8c0,1.6-1.1,2.6-2.7,2.6c-0.8,0-1.4-0.2-1.9-0.7c-0.2-0.3-0.4-0.5-0.6-0.9l0.8-0.2c0.1,0.3,0.2,0.4,0.3,0.6
		c0.3,0.4,0.8,0.6,1.4,0.6c1.1,0,1.9-0.8,1.9-1.9c0-1.1-0.7-1.8-1.7-1.8c-0.5,0-1,0.1-1.3,0.4c-0.2,0.2-0.3,0.3-0.5,0.6l-0.8-0.1
		c0.1-0.4,0.1-0.6,0.2-1l0.2-2.3c0-0.3,0-0.4,0-0.6c0-0.1,0-0.2,0-0.4c0.3,0,0.5,0,1.1,0h2.1c0.5,0,0.8,0,1.2-0.1v0.8
		c-0.4-0.1-0.7-0.1-1.2-0.1h-2.3L-40.6,572.4z"/>
	<path id="XMLID_331_" class="st1" d="M-34.3,573.3c-0.4-0.4-0.6-0.9-0.6-1.7c0-1.3,0.6-2.1,1.7-2.1c1.1,0,1.7,0.8,1.7,2.1
		c0,0.7-0.2,1.3-0.5,1.7c-0.3,0.3-0.7,0.4-1.2,0.4C-33.5,573.7-34,573.6-34.3,573.3z M-34.1,571.6c0,1,0.4,1.5,1.1,1.5
		c0.7,0,1.1-0.6,1.1-1.5c0-1-0.4-1.5-1.1-1.5C-33.8,570.1-34.1,570.6-34.1,571.6z M-28,569.4l0.4,0.3l-6.1,7.7l-0.4-0.3L-28,569.4z
		 M-29.8,576.9c-0.4-0.3-0.5-0.9-0.5-1.7c0-1.3,0.6-2.1,1.7-2.1s1.7,0.8,1.7,2.1c0,0.7-0.2,1.3-0.5,1.7c-0.3,0.3-0.7,0.5-1.2,0.5
		C-29.1,577.3-29.5,577.2-29.8,576.9z M-29.7,575.2c0,1,0.4,1.5,1.1,1.5c0.7,0,1.1-0.6,1.1-1.5c0-1-0.4-1.5-1.1-1.5
		S-29.7,574.2-29.7,575.2z"/>
	<path id="XMLID_337_" class="st1" d="M-22.6,570.4c0.5,0,0.8,0,0.9,0c0,0.3,0,0.5,0,0.9v5.1c0,0.4,0,0.8,0.1,1h-0.7v-0.6h-1.9v0.9
		H-25c0-0.3,0.1-0.6,0.1-1.2v-5.1c0-0.5,0-0.7,0-0.9c0.2,0,0.4,0,0.9,0h0.2c0.2-0.5,0.3-1,0.4-1.5l0.7,0.1c-0.2,0.5-0.4,1-0.5,1.4
		L-22.6,570.4L-22.6,570.4z M-24.3,573.2h1.9V571h-1.9V573.2z M-24.3,576.2h1.9v-2.4h-1.9V576.2z M-17.4,570.4c0.4,0,0.7,0,0.9,0
		c0,0.2,0,0.3,0,0.6c-0.1,4-0.2,5.3-0.6,6.1c-0.2,0.5-0.5,0.6-1.1,0.6c-0.4,0-0.7,0-1.3-0.1c0-0.3-0.1-0.5-0.2-0.7
		c0.6,0.1,1.1,0.2,1.4,0.2c0.4,0,0.5-0.1,0.6-0.4c0.2-0.5,0.3-1.4,0.4-2.8c0-0.8,0.1-1.5,0.1-3h-2.9c-0.3,0.7-0.6,1.2-1.1,1.8
		c-0.1-0.2-0.3-0.3-0.5-0.5c0.6-0.6,1.1-1.5,1.5-2.5c0.1-0.4,0.2-0.8,0.3-1l0.7,0.1c0,0.1-0.1,0.2-0.1,0.4c-0.1,0.4-0.2,0.6-0.4,1
		h2.3V570.4z M-19,575.1c-0.6-1.2-0.9-1.8-1.5-2.5l0.5-0.3c0.6,0.8,1,1.4,1.6,2.5L-19,575.1z"/>
	<path id="XMLID_343_" class="st1" d="M-10.5,571.9h2.4c0.5,0,0.8,0,1.1-0.1v0.7c-0.3,0-0.6-0.1-1.1-0.1h-2.4v1.6h2.9
		c0.5,0,0.8,0,1-0.1v0.7c-0.3,0-0.6-0.1-1-0.1h-2.9v2.3c0,0.6-0.2,0.8-1.1,0.8c-0.4,0-0.9,0-1.5-0.1c0-0.3-0.1-0.4-0.2-0.7
		c0.6,0.1,1.3,0.2,1.7,0.2c0.3,0,0.4-0.1,0.4-0.3v-2.2h-3.1c-0.5,0-0.7,0-1,0.1V574c0.3,0,0.6,0.1,1,0.1h3.1v-1.6h-2.5
		c-0.4,0-0.8,0-1.1,0.1v-0.7c0.3,0,0.6,0.1,1.1,0.1h2.5v-1.6c0,0,0,0-0.1,0c-1.1,0.1-2,0.2-3.2,0.2c-0.1-0.3-0.1-0.4-0.3-0.6h0.2
		c2.5,0,5.4-0.5,6.5-1l0.5,0.6c-1.5,0.4-2,0.5-3,0.7L-10.5,571.9L-10.5,571.9z"/>
	<path id="XMLID_347_" class="st1" d="M-2.3,576.5c-1.6,0.6-1.6,0.6-2.6,0.8c-0.2,0-0.2,0.1-0.3,0.1l-0.2-0.7c0.1,0,0.5-0.1,0.8-0.2
		c0.2,0,0.9-0.3,1.3-0.4c0.4-0.1,0.5-0.2,0.9-0.3L-2.3,576.5z M-3.1,569.3c0,0.1,0,0.1-0.2,0.5c-0.1,0.1-0.6,1.2-0.7,1.4
		c-0.1,0.3-0.3,0.5-0.5,1c0.4,0,0.4,0,1.2-0.1c0,0,0,0,0-0.1c0-0.1,0.1-0.2,0.2-0.5c0-0.1,0.1-0.2,0.2-0.4l0.6,0.3
		c-0.2,0.3-0.2,0.3-0.5,0.8c-0.3,0.6-0.9,1.5-1.5,2.4c0.8-0.2,1-0.2,1.8-0.5l-0.1,0.6c-2.1,0.4-2.2,0.5-2.5,0.6l-0.2-0.6
		c0.2-0.1,0.3-0.2,0.5-0.4c0.3-0.3,0.3-0.3,1-1.6c-0.8,0.1-1.1,0.1-1.6,0.2l-0.1-0.6c0.2-0.1,0.4-0.4,0.7-1.1c0.5-1,0.7-1.5,0.9-2.1
		L-3.1,569.3z M-1.1,575.4c-0.5,0-0.8,0-1.1,0v-0.7c0.2,0,0.5,0.1,1,0.1h1.8c0.1-0.5,0.1-1.2,0.1-2c0-0.2,0-0.3,0-0.5h0.7
		c0,0.2,0,0.3-0.1,0.5c0,1-0.1,1.5-0.2,2h1.5c0.5,0,0.8,0,1,0v0.6c-0.3,0-0.6,0-1,0H1c-0.2,0.6-0.4,1-0.9,1.4
		c-0.6,0.5-1.2,0.9-2.3,1.2c-0.1-0.3-0.2-0.4-0.4-0.5c1.1-0.3,1.7-0.6,2.3-1.1c0.3-0.3,0.5-0.5,0.6-0.9L-1.1,575.4L-1.1,575.4z
		 M-0.6,574.6c-0.6-0.5-0.9-0.7-1.5-1l0.4-0.4c0.9,0.5,1,0.6,1.5,0.9L-0.6,574.6z M0.3,570.4h-1.1c-0.4,0-0.8,0-1,0.1v-0.7
		c0.2,0,0.6,0.1,1,0.1h1.1c0-0.4,0-0.6-0.1-0.8h0.7c0,0.2,0,0.4-0.1,0.8h1.4c0.4,0,0.8,0,1-0.1v0.7c-0.3,0-0.6-0.1-1-0.1H0.8v1h1.6
		c0.3,0,0.5,0,0.7,0l0.4,0.4c-0.1,0.2-0.1,0.2-0.3,0.7c0,0.1-0.3,0.6-0.6,0.9c-0.2-0.2-0.3-0.3-0.5-0.4c0.3-0.4,0.5-0.7,0.7-1.1h-4
		c-0.4,0-0.7,0-0.9,0.1v-0.7c0.2,0,0.5,0.1,0.9,0.1h1.5L0.3,570.4L0.3,570.4z M0,573.6c-0.5-0.4-0.8-0.6-1.5-1l0.4-0.4
		c0.6,0.3,0.9,0.5,1.4,0.9L0,573.6z M3.2,577.9c-0.7-0.5-0.8-0.6-2.2-1.5l0.3-0.4c0.8,0.4,1.5,0.9,2.2,1.4L3.2,577.9z"/>
	<path id="XMLID_364_" class="st1" d="M10.6,571.6h2c0.6,0,0.7,0,1,0c0,0.1,0,0.3-0.1,0.5c-0.1,0.4-0.1,0.7-0.2,0.8
		c-0.1,0.1-0.3,0.2-0.5,0.2s-0.4,0-0.7-0.1c0-0.3,0-0.3-0.1-0.5c0.3,0.1,0.5,0.1,0.6,0.1c0.2,0,0.2,0,0.3-0.5h-2.3v0.4
		c0,0.3,0,0.4,0,0.6H10c0-0.2,0-0.3,0-0.6V572H7.9c-0.3,0.5-0.8,0.9-1.5,1.2c0.3,0,0.3,0,0.7,0h4.1c0.5,0,0.8,0,1.1,0
		c0,0.2,0,0.5,0,1v1c0,0.6,0,0.9,0.1,1.1h-0.8c0-0.3,0.1-0.6,0.1-1.1v-1.5H6.8v1.5c0,0.3,0,0.9,0.1,1.1H6c0-0.3,0.1-0.7,0.1-1.1v-1
		c0-0.5,0-0.6,0-0.8c-0.4,0.2-0.5,0.2-1.1,0.4c-0.1-0.2-0.2-0.4-0.3-0.5c1.4-0.3,2.1-0.6,2.6-1.2H6c-0.3,0-0.6,0-0.9,0
		c0.3-0.5,0.4-1,0.5-1.6c0.2,0,0.5,0,0.9,0h1.3c0-0.1,0-0.4,0-0.5H6.1c-0.4,0-0.7,0-1,0.1v-0.6c0.3,0,0.5,0.1,1,0.1h1.8
		c0-0.3,0-0.4,0-0.7h0.7c0,0.1,0,0.2,0,0.7h1.6v-0.1c0-0.2,0-0.4,0-0.6h0.7c0,0.2,0,0.4,0,0.6v0.1h1.4c0.5,0,0.7,0,1-0.1
		c0,0.2,0,0.4,0,0.7v0.3c0,0.3,0,0.4,0,0.6c-0.3,0-0.6,0-0.9,0H11v0.5H10.6z M9.5,574.2c0,0.2,0,0.2,0,0.5c0,0.9-0.2,1.4-0.5,1.8
		c-0.4,0.5-1,0.8-2,1.1c-0.5,0.1-1,0.2-1.8,0.3c-0.1-0.2-0.1-0.4-0.3-0.6c1.2,0,2.4-0.2,3-0.6c0.7-0.4,1-0.9,1-2.1
		c0-0.2,0-0.2,0-0.4H9.5z M6.1,571l-0.2,0.6h1.6c0.1-0.2,0.1-0.4,0.2-0.6H6.1z M8.3,571c0,0.2-0.1,0.4-0.2,0.6H10V571H8.3z M8.4,570
		c0,0.2,0,0.4,0,0.5H10V570H8.4z M9.8,576.1l1.9,0.7c0.3,0.1,0.3,0.1,1,0.4c0.3,0.1,0.4,0.2,0.8,0.3l-0.2,0.6
		c-1.6-0.7-2.2-0.9-3.8-1.4L9.8,576.1z M10.6,570.5h1.8V570h-1.8V570.5z"/>
</g>
<g id="XMLID_280_">
	<path id="XMLID_281_" class="st0" d="M-170.6,601c0-0.5,0-0.8,0-1.2c-0.4,0.6-0.6,0.9-1.3,1.6c-0.2-0.3-0.2-0.4-0.4-0.6
		c1-0.9,1.7-1.9,2.2-3.1c0.2-0.5,0.4-1,0.4-1.3l0.7,0.3c-0.1,0.2-0.1,0.2-0.2,0.6c-0.2,0.5-0.5,1.2-0.8,1.7v5.3c0,0.5,0,0.8,0.1,1.2
		h-0.8c0-0.3,0.1-0.7,0.1-1.2L-170.6,601L-170.6,601z M-168.4,599.9c-0.4,0-0.7,0.1-1,0.1v-0.7c0.1,0,0.1,0,0.2,0c0.2,0,0.5,0,0.8,0
		l1.3-0.1c-0.1-0.5-0.1-1.2-0.1-1.7c0-0.4,0-0.7-0.1-0.9h0.8c0,0.2,0,0.4,0,0.7c0,0.5,0,1.3,0.1,1.9l2.3-0.2c0.6-0.1,0.8-0.1,1-0.2
		l0.1,0.7c-0.1,0-0.1,0-0.2,0c-0.2,0-0.5,0-0.8,0l-2.3,0.2c0.2,1.6,0.6,2.7,1.3,3.6c0.5,0.7,1,1.2,1.2,1.2c0.1,0,0.2-0.1,0.3-0.3
		c0.1-0.3,0.2-0.7,0.2-1.3c0.3,0.2,0.4,0.3,0.6,0.4c-0.2,1.4-0.5,2-1,2c-0.7,0-1.7-1.1-2.4-2.5c-0.4-0.8-0.6-1.8-0.8-3L-168.4,599.9
		z M-165.4,596.5c0.6,0.5,1,0.8,1.6,1.5l-0.5,0.5c-0.4-0.5-0.9-1-1.6-1.5L-165.4,596.5z"/>
	<path id="XMLID_285_" class="st0" d="M-157.9,597.7c-0.1,0-0.1,0-0.2,0c-1,0.1-2.2,0.2-3.2,0.2c0-0.2-0.1-0.4-0.3-0.6
		c3,0,6.3-0.5,7.5-1l0.5,0.6c-1.5,0.4-2.1,0.5-3.5,0.7v1.8h2.5c0.3,0,0.6,0,0.9-0.1c0,0.3,0,0.5,0,0.9v2.9c0,0.4-0.1,0.6-0.3,0.7
		c-0.2,0.1-0.3,0.1-0.8,0.1c-0.4,0-0.8,0-1.1-0.1c0-0.3-0.1-0.5-0.2-0.7c0.5,0.1,0.9,0.1,1.4,0.1c0.3,0,0.4-0.1,0.4-0.3v-3h-2.7v4.3
		c0,0.5,0,0.8,0.1,1.1h-1.1c0-0.3,0.1-0.6,0.1-1.1V600h-2.5v3c0,0.4,0,0.8,0.1,1.1h-0.8c0-0.3,0.1-0.6,0.1-1.1v-2.9
		c0-0.3,0-0.6,0-0.8c0.3,0,0.6,0.1,0.9,0.1h2.3v-1.7H-157.9z"/>
	<path id="XMLID_287_" class="st0" d="M-150.4,601c0-0.6,0-0.7,0-1.2c-0.3,0.5-0.7,1-1.3,1.7c-0.1-0.2-0.3-0.4-0.4-0.6
		c1-1,1.7-2.1,2.3-3.4c0.2-0.5,0.3-0.8,0.3-1.2l0.7,0.2c0,0.1,0,0.1-0.2,0.6c-0.1,0.3-0.4,0.9-0.8,1.9v5.2c0,0.4,0,0.8,0.1,1.2h-0.8
		c0-0.4,0.1-0.8,0.1-1.2L-150.4,601L-150.4,601z M-147,604c0,0.4,0.1,0.4,1.3,0.4c1.1,0,1.5,0,1.7-0.2s0.3-0.7,0.3-1.8
		c0.2,0.2,0.5,0.3,0.7,0.3c-0.1,1.1-0.3,1.7-0.5,2c-0.3,0.3-0.7,0.4-2.2,0.4c-1.7,0-1.9-0.1-1.9-0.9V602c-0.7,0.4-0.8,0.5-1.2,0.6
		c-0.1-0.2-0.2-0.3-0.4-0.5c0.5-0.2,0.8-0.3,1.7-0.8v-3.8c0-0.4,0-0.8-0.1-1.1h0.8c0,0.3-0.1,0.6-0.1,1.1v3.4c0.7-0.5,1.4-1.1,2.2-2
		c0.4-0.5,0.8-1,0.9-1.3l0.7,0.4c-0.2,0.2-0.2,0.2-0.5,0.6c-0.5,0.6-1,1.2-1.7,1.8c-0.4,0.4-1,0.8-1.6,1.2L-147,604L-147,604z"/>
</g>
<g id="XMLID_1_">
	<path id="XMLID_43_" class="st1" d="M-53.7,528.2l-0.2,0.6h-3c0,0.2,0,0.4,0,0.6c0,0.1,0,0.1,0,0.2h2.7l-0.2,0.6h-2.4
		c0.3,1.5,1,2.4,2.2,2.4c0.6,0,1.2-0.3,1.5-0.8c0.2-0.3,0.3-0.5,0.3-0.9l0.8,0.2c-0.2,0.6-0.3,0.8-0.5,1.1c-0.5,0.7-1.2,1-2.1,1
		c-1.7,0-2.7-1.1-3-3.1h-1l0.2-0.6h0.7c0-0.1,0-0.2,0-0.3c0-0.2,0-0.3,0-0.5h-0.9l0.2-0.6h0.8c0.1-0.6,0.3-1,0.5-1.5
		c0.6-0.9,1.3-1.3,2.4-1.3c0.8,0,1.5,0.3,2,0.8c0.3,0.3,0.4,0.5,0.6,1.1l-0.8,0.2c-0.1-0.4-0.2-0.5-0.3-0.7
		c-0.3-0.4-0.8-0.7-1.5-0.7c-1.1,0-1.9,0.8-2.1,2.1h3.1V528.2z"/>
	<path id="XMLID_258_" class="st1" d="M-46.6,528.2l-0.2,0.6h-3c0,0.2,0,0.4,0,0.6c0,0.1,0,0.1,0,0.2h2.7l-0.2,0.6h-2.4
		c0.3,1.5,1,2.4,2.2,2.4c0.6,0,1.2-0.3,1.5-0.8c0.2-0.3,0.3-0.5,0.3-0.9l0.8,0.2c-0.2,0.6-0.3,0.8-0.5,1.1c-0.5,0.7-1.2,1-2.1,1
		c-1.7,0-2.7-1.1-3-3.1h-1l0.2-0.6h0.7c0-0.1,0-0.2,0-0.3c0-0.2,0-0.3,0-0.5h-0.9l0.2-0.6h0.8c0.1-0.6,0.3-1,0.5-1.5
		c0.6-0.9,1.3-1.3,2.4-1.3c0.8,0,1.5,0.3,2,0.8c0.3,0.3,0.4,0.5,0.6,1.1l-0.8,0.2c-0.1-0.4-0.2-0.5-0.3-0.7
		c-0.3-0.4-0.8-0.7-1.5-0.7c-1.1,0-1.9,0.8-2.1,2.1h3.1V528.2z"/>
	<path id="XMLID_260_" class="st1" d="M-39.4,528.2l-0.2,0.6h-3c0,0.2,0,0.4,0,0.6c0,0.1,0,0.1,0,0.2h2.7l-0.2,0.6h-2.4
		c0.2,1.5,1,2.4,2.2,2.4c0.6,0,1.2-0.3,1.5-0.8c0.2-0.3,0.3-0.5,0.4-0.9l0.8,0.2c-0.2,0.6-0.3,0.8-0.5,1.1c-0.5,0.7-1.2,1-2.1,1
		c-1.7,0-2.7-1.1-3-3.1h-1l0.2-0.6h0.7c0-0.1,0-0.2,0-0.3c0-0.2,0-0.3,0-0.5h-0.9l0.2-0.6h0.8c0.1-0.6,0.3-1,0.5-1.5
		c0.6-0.9,1.3-1.3,2.4-1.3c0.8,0,1.5,0.3,2,0.8c0.3,0.3,0.4,0.5,0.6,1.1l-0.8,0.2c-0.1-0.4-0.2-0.5-0.3-0.7
		c-0.3-0.4-0.8-0.7-1.5-0.7c-1.1,0-1.9,0.8-2.1,2.1h3V528.2z"/>
	<path id="XMLID_262_" class="st1" d="M-31.3,526.5c0,0.3,0,0.7,0,1.3v1.7c0,1.5-0.1,2.3-0.5,3c-0.3,0.5-0.6,0.9-1.3,1.4
		c-0.2-0.2-0.2-0.3-0.5-0.5c0.8-0.5,1.1-0.9,1.4-1.4s0.4-1.4,0.4-2.6v-1.7c0-0.7,0-0.9-0.1-1.3L-31.3,526.5L-31.3,526.5z
		 M-33.2,531.5c0-0.3,0-0.5,0-0.9v-4.5c0-0.4,0-0.7,0-0.9c0.3,0,0.4,0,0.9,0h1.5c0.3,0,0.6,0,0.8,0c0,0.2,0,0.6,0,0.9v4.4
		c0,0.4,0,0.7,0,0.9h-0.7c0-0.3,0-0.5,0-0.9v-4.8h-1.9v4.8c0,0.4,0,0.6,0,0.9L-33.2,531.5L-33.2,531.5z M-30.4,533.7
		c-0.3-0.6-0.5-1-1-1.6l0.5-0.3c0.3,0.4,0.8,1.1,1,1.5L-30.4,533.7z M-28.5,527c-0.3,0.6-0.6,1.2-1.1,1.7c-0.1-0.2-0.3-0.3-0.5-0.4
		c0.6-0.6,1-1.3,1.3-2.2c0.2-0.5,0.3-0.9,0.3-1.2l0.7,0.2c0,0.1-0.1,0.2-0.2,0.5c-0.1,0.4-0.2,0.5-0.3,0.8h2.7c0.4,0,0.6,0,0.9,0
		c0,0.2,0,0.4,0,0.8c0,2.4-0.2,4.1-0.4,5.2c-0.1,0.6-0.3,1-0.5,1.2c-0.2,0.1-0.5,0.2-1,0.2c-0.2,0-0.6,0-1.2-0.1
		c0-0.2-0.1-0.4-0.2-0.7c0.5,0.1,1,0.1,1.4,0.1s0.5,0,0.6-0.2c0.3-0.7,0.5-2.9,0.5-6L-28.5,527L-28.5,527z M-26.4,532
		c-0.1-0.4-0.1-0.5-0.2-0.8c0,0,0,0-0.1,0c-0.4,0.1-0.8,0.2-1.3,0.3c-0.4,0.1-1,0.2-1.4,0.3l-0.1-0.6c0.3-0.1,0.4-0.2,0.5-0.5
		s0.4-1.3,0.5-1.9c0.1-0.4,0.1-0.6,0.2-1l0.7,0.1c-0.1,0.1-0.1,0.1-0.5,1.6c-0.1,0.5-0.2,0.6-0.5,1.5c0.2-0.1,0.2-0.1,1-0.2
		c0.2,0,0.6-0.1,0.8-0.2c-0.2-0.5-0.3-0.9-0.6-1.4l0.5-0.2c0.5,0.9,0.7,1.5,1,2.6L-26.4,532z"/>
	<path id="XMLID_268_" class="st1" d="M-15.8,530.3c0.6,0,0.8,0,1.1-0.1v0.7c-0.3,0-0.7-0.1-1.1-0.1h-2.8c-0.3,1-0.9,1.6-2,2.2
		c-0.7,0.4-1.4,0.6-2.6,0.8c-0.1-0.3-0.2-0.5-0.4-0.6c1.3-0.2,2.1-0.4,3-0.9c0.7-0.4,1.1-0.8,1.4-1.4h-3.1c-0.5,0-0.8,0-1.1,0.1
		v-0.7c0.3,0,0.6,0.1,1.1,0.1h3.2c0.1-0.5,0.2-1.7,0.2-2.6c0-0.4,0-0.7-0.1-0.9h0.8c0,0.3-0.1,0.5-0.1,0.9c0,0.9-0.1,1.8-0.2,2.6
		h2.7V530.3z M-23,525.4c0.3,0,0.6,0.1,1.1,0.1h5.8c0.6,0,0.7,0,0.9-0.1l0.4,0.4c0,0.1,0,0.1-0.2,0.5c-0.2,0.5-0.5,1.1-0.8,1.7
		c-0.3-0.2-0.4-0.2-0.6-0.3c0.3-0.5,0.6-1,0.8-1.6h-6.3c-0.5,0-0.8,0-1.1,0.1L-23,525.4L-23,525.4z M-20.5,529.7
		c-0.8-0.5-1.4-0.7-2.3-1l0.4-0.5c1,0.3,1.5,0.6,2.3,1L-20.5,529.7z M-19.8,528.2c-0.8-0.5-1.3-0.7-2.2-1l0.4-0.5
		c0.8,0.3,1.3,0.5,2.1,1L-19.8,528.2z M-18.3,531.5c1.5,0.6,2.5,1.1,3.8,1.8l-0.4,0.6c-1.2-0.7-2.2-1.2-3.7-1.8L-18.3,531.5z"/>
	<path id="XMLID_274_" class="st1" d="M-12.1,529.6c0-0.5,0-0.8,0-1.2c-0.4,0.6-0.6,0.9-1.3,1.6c-0.2-0.3-0.2-0.4-0.4-0.6
		c1-0.9,1.7-1.9,2.2-3.1c0.2-0.5,0.4-1,0.4-1.3l0.7,0.3c-0.1,0.2-0.1,0.2-0.2,0.6c-0.2,0.5-0.5,1.2-0.8,1.7v5.3c0,0.5,0,0.8,0.1,1.2
		h-0.8c0-0.3,0.1-0.7,0.1-1.2V529.6z M-9.9,528.5c-0.4,0-0.7,0.1-1,0.1v-0.7c0.1,0,0.1,0,0.2,0c0.2,0,0.5,0,0.8,0l1.3-0.1
		c-0.1-0.5-0.1-1.2-0.1-1.7c0-0.4,0-0.7-0.1-0.9H-8c0,0.2-0.1,0.4-0.1,0.7c0,0.5,0.1,1.3,0.1,1.9l2.3-0.2c0.6-0.1,0.8-0.1,1-0.2
		l0.1,0.7c-0.1,0-0.1,0-0.2,0c-0.2,0-0.5,0-0.8,0l-2.3,0.2c0.2,1.6,0.6,2.7,1.3,3.6c0.5,0.7,1,1.2,1.2,1.2c0.1,0,0.2-0.1,0.3-0.3
		c0.1-0.3,0.2-0.7,0.2-1.3c0.3,0.2,0.4,0.3,0.6,0.4c-0.2,1.4-0.5,2-1,2c-0.7,0-1.7-1.1-2.4-2.5c-0.4-0.8-0.6-1.8-0.8-3L-9.9,528.5z
		 M-6.9,525.1c0.6,0.5,1,0.8,1.6,1.5l-0.5,0.5c-0.4-0.5-0.9-1-1.6-1.5L-6.9,525.1z"/>
	<path id="XMLID_278_" class="st1" d="M0.5,526.2c-0.1,0-0.1,0-0.2,0c-1,0.1-2.2,0.2-3.2,0.2c0-0.2-0.1-0.4-0.3-0.6
		c3,0,6.3-0.5,7.5-1l0.5,0.6c-1.5,0.4-2.1,0.5-3.5,0.7v1.7h2.5c0.3,0,0.6,0,0.9-0.1c0,0.3,0,0.5,0,0.9v2.9c0,0.4-0.1,0.6-0.3,0.7
		c-0.2,0.1-0.3,0.1-0.8,0.1c-0.4,0-0.8,0-1.1-0.1c0-0.3-0.1-0.4-0.2-0.7c0.5,0.1,0.9,0.1,1.4,0.1c0.3,0,0.4-0.1,0.4-0.3v-3H1.4v4.3
		c0,0.5,0,0.8,0.1,1.1H0.7c0-0.3,0.1-0.6,0.1-1.1v-4.3H-2v3c0,0.4,0,0.8,0.1,1.1h-0.8c0-0.3,0.1-0.6,0.1-1.1v-2.9c0-0.3,0-0.6,0-0.8
		c0.3,0,0.6,0.1,0.9,0.1h2.3L0.5,526.2L0.5,526.2z"/>
</g>
<g id="XMLID_134_">
	<path id="XMLID_137_" class="st0" d="M-486,597.6c0.4-0.4,0.6-0.8,0.8-1.2l0.6,0.2c-0.3,0.4-0.5,0.7-0.8,1h1.7c0.4,0,0.7,0,1-0.1
		v0.7c-0.3,0-0.6-0.1-0.9-0.1h-2.1v2.1h2.3c0.4,0,0.7,0,1-0.1v0.7c-0.3,0-0.6-0.1-1-0.1h-6.9c-0.4,0-0.7,0-1,0.1v-0.7
		c0.3,0,0.5,0.1,1,0.1h2.3v-2.1h-2c-0.4,0-0.7,0-1,0.1v-0.7c0.3,0,0.6,0.1,1,0.1h1.6c-0.2-0.4-0.4-0.7-0.8-1l0.6-0.2
		c0.4,0.5,0.6,0.8,0.9,1.2H-486z M-489.8,598.3c0.4,0.5,0.6,0.8,0.9,1.4l-0.5,0.3c-0.3-0.7-0.5-0.9-0.9-1.5L-489.8,598.3z
		 M-489.8,602.2c0-0.3,0-0.5,0-0.8c0.3,0,0.6,0,0.9,0h4.4c0.3,0,0.5,0,0.9,0c0,0.3,0,0.5,0,0.8v2.4c0,0.4,0,0.6,0.1,0.9h-0.7v-0.4
		h-4.9v0.4h-0.7c0-0.3,0.1-0.6,0.1-0.9L-489.8,602.2L-489.8,602.2z M-489.2,603h4.9v-1h-4.9V603z M-489.2,604.5h4.9v-1h-4.9V604.5z
		 M-487.4,600.2h1.1v-2.1h-1.1V600.2z M-484.9,599.9c0.4-0.5,0.6-0.8,0.9-1.5l0.6,0.2c-0.4,0.8-0.5,1-0.9,1.5L-484.9,599.9z"/>
	<path id="XMLID_156_" class="st0" d="M-479.5,603.5c0.1,0,0.1,0.1,0.2,0.2c0.4,0.4,0.6,0.6,1,0.7c0.4,0.1,1.2,0.2,2.5,0.2
		c1.6,0,2.7,0,3.5-0.2c-0.2,0.4-0.2,0.4-0.2,0.7c-1,0.1-2,0.1-3.7,0.1c-0.6,0-1.4,0-1.8-0.1c-0.5-0.1-0.8-0.2-1.2-0.4
		c-0.2-0.1-0.2-0.1-0.5-0.5c-0.1-0.1-0.2-0.1-0.3-0.1c-0.2,0-0.7,0.5-1.1,1.2l-0.4-0.5c0.6-0.7,1.1-1.1,1.4-1.2V601h-0.5
		c-0.3,0-0.5,0-0.7,0v-0.6c0.2,0,0.4,0,0.8,0h0.4c0.3,0,0.5,0,0.7,0c0,0.3,0,0.6,0,1v2.1H-479.5z M-480.8,596.7
		c0.7,0.6,1.1,1.1,1.6,1.8l-0.5,0.5c-0.5-0.7-0.9-1.2-1.6-1.8L-480.8,596.7z M-475.9,598.7c-0.4-0.3-0.9-0.6-1.3-0.8l0.4-0.3
		c0.5,0.3,0.8,0.5,1.3,0.9c0.7-0.4,1-0.6,1.5-1h-3.7c-0.5,0-0.7,0-1,0v-0.6c0.3,0,0.5,0.1,1,0.1h3.5c0.6,0,0.8,0,1,0l0.3,0.4
		c-0.1,0.1-0.1,0.1-0.3,0.2c-0.6,0.5-1.3,1-2,1.3h1.3c0.5,0,0.8,0,1.1,0c0,0.3,0,0.6,0,1.2v3.3c0,0.6-0.2,0.8-0.9,0.8
		c-0.2,0-0.4,0-0.7,0c0-0.2-0.1-0.4-0.1-0.6c0.3,0,0.6,0.1,0.8,0.1c0.3,0,0.3,0,0.3-0.3v-1h-2.1v0.6c0,0.5,0,0.8,0,1.1h-0.5
		c0-0.3,0.1-0.6,0.1-1.1v-0.6h-1.9v0.8c0,0.5,0,0.8,0.1,1h-0.7c0-0.3,0.1-0.6,0.1-1V600c0-0.6,0-0.9,0-1.1c0.3,0,0.6,0,1.1,0h1.3
		V598.7z M-477.8,599.2v1h1.9v-1H-477.8z M-477.8,601.7h1.9v-1h-1.9V601.7z M-475.4,600.2h2.1v-1h-2.1V600.2z M-473.3,600.6h-2.1v1
		h2.1V600.6z"/>
	<path id="XMLID_174_" class="st0" d="M-463.3,602c0.5,0,0.8,0,1-0.1v0.6c-0.3,0-0.5,0-1,0l0,0v0.6c0,0.5,0,0.8,0.1,1h-0.6v-0.4
		h-2.7v0.8c0,0.7-0.2,0.8-1.2,0.8c-0.2,0-0.5,0-0.9,0c0-0.3-0.1-0.4-0.2-0.6c0.5,0.1,0.9,0.1,1.2,0.1c0.4,0,0.5-0.1,0.5-0.3v-0.8
		h-2.4c-0.5,0-0.7,0-1,0v-0.6c0.3,0,0.5,0,1,0h2.4v-0.7h-3c-0.5,0-0.8,0-1.1,0V602c0.2,0,0.5,0.1,1.1,0.1h3v-0.7h-2.3
		c-0.4,0-0.6,0-0.9,0v-0.6c0.3,0,0.5,0,1,0h2.3v-0.6h-2.1c-0.3,0-0.6,0-0.8,0c0-0.2,0-0.4,0-0.7v-0.4c0-0.3,0-0.4,0-0.7
		c0.3,0,0.5,0,0.8,0h2.1v-0.7h-2.9c-0.5,0-0.8,0-1.1,0.1v-0.7c0.3,0,0.6,0.1,1.1,0.1h2.9c0-0.5,0-0.6-0.1-0.9h0.7
		c-0.1,0.3-0.1,0.4-0.1,0.9h3.1c0.6,0,0.9,0,1.1-0.1v0.7c-0.3,0-0.7-0.1-1.1-0.1h-3.1v0.7h2.3c0.3,0,0.6,0,0.8,0c0,0.3,0,0.4,0,0.7
		v0.4c0,0.3,0,0.4,0,0.7c-0.2,0-0.5,0-0.8,0h-2.3v0.6h2.2c0.6,0,0.8,0,1.1,0c0,0.2,0,0.4,0,0.8L-463.3,602L-463.3,602z M-467.2,599
		h-2.3v0.7h2.3V599z M-464.1,599.7V599h-2.5v0.7H-464.1z M-463.9,602v-0.7h-2.7v0.7H-463.9z M-466.6,603.3h2.7v-0.7h-2.7V603.3z"/>
	<path id="XMLID_182_" class="st0" d="M-459.6,602.5c-0.5,0-0.7,0-1,0.1v-0.7c0.2,0,0.5,0.1,1,0.1h2.3c0.1-0.3,0.1-0.6,0.1-0.8
		c0-0.1,0-0.1,0-0.2h0.8c0,0.1,0,0.1-0.1,0.7c0,0.1,0,0.2-0.1,0.3h2.5c0.5,0,0.8,0,1,0c0,0.1,0,0.1,0,0.4c-0.1,1-0.3,1.9-0.5,2.4
		c-0.1,0.2-0.3,0.4-0.4,0.5c-0.1,0.1-0.4,0.1-0.9,0.1c-0.3,0-0.6,0-1.2-0.1c-0.1-0.3-0.1-0.5-0.2-0.7c0.5,0.1,0.9,0.1,1.4,0.1
		s0.6-0.1,0.8-0.5c0.1-0.4,0.2-0.9,0.3-1.7h-2.9c-0.6,1.6-1.7,2.5-4,3c-0.1-0.2-0.2-0.4-0.4-0.6c2.1-0.4,3.1-1,3.7-2.4H-459.6
		L-459.6,602.5z M-453.6,597.8c-0.1,0.1-0.1,0.1-0.6,0.6s-1,1-1.7,1.3c1,0.4,1.9,0.6,3.5,0.8c-0.2,0.2-0.2,0.3-0.3,0.6
		c-1.4-0.2-2.3-0.4-3.3-0.8c-0.3-0.1-0.3-0.1-0.7-0.3c-1.1,0.5-2.4,0.8-4.2,1.1c-0.1-0.3-0.1-0.4-0.3-0.6c1.4-0.2,2.7-0.4,3.8-0.9
		c-0.8-0.5-1.1-0.7-1.6-1.4c-0.6,0.5-1,0.8-1.7,1.2c-0.2-0.3-0.2-0.3-0.4-0.4c1-0.5,1.7-1,2.3-1.7c0.4-0.4,0.6-0.7,0.7-0.9l0.7,0.2
		c-0.2,0.2-0.3,0.3-0.3,0.4c-0.1,0.2-0.2,0.2-0.3,0.4h3c0.4,0,0.7,0,0.9,0L-453.6,597.8z M-458.4,598c0.6,0.7,1.2,1.1,1.9,1.5
		c0.7-0.3,1.3-0.8,1.9-1.5H-458.4L-458.4,598z"/>
	<path id="XMLID_186_" class="st0" d="M-446.5,596.7c0.5,0.7,0.9,1.1,1.7,1.7c0.9,0.7,1.8,1.2,2.7,1.5c-0.2,0.2-0.3,0.4-0.4,0.6
		c-1.9-0.9-3.4-2-4.4-3.3c-0.5,0.6-0.7,0.9-1.2,1.3c-0.7,0.7-1.2,1-1.9,1.4c-0.5,0.3-0.7,0.4-1.1,0.6c-0.1-0.2-0.2-0.3-0.4-0.6
		c1.2-0.5,2.1-1.1,3-1.9c0.6-0.6,1.1-1.2,1.5-1.8l0.6,0.3L-446.5,596.7z M-449.9,605.4c0-0.3,0.1-0.6,0.1-1v-2.2
		c0-0.4,0-0.6-0.1-0.9c0.2,0,0.4,0,0.8,0h4.7c0.4,0,0.6,0,0.8,0c0,0.3,0,0.5,0,0.9v2.2c0,0.4,0,0.7,0.1,1h-0.7v-0.6h-4.8v0.6H-449.9
		z M-449.2,604.3h4.8V602h-4.8V604.3z M-449.1,599.5c0.2,0,0.4,0,0.8,0h3.1c0.4,0,0.6,0,0.8,0v0.7c-0.2,0-0.5,0-0.8,0h-3.1
		c-0.3,0-0.6,0-0.8,0V599.5z"/>
	<path id="XMLID_191_" class="st0" d="M-440.2,601c0-0.4,0-0.8,0.1-1.3c-0.3,0.6-0.6,1-1.1,1.5c-0.1-0.2-0.1-0.3-0.4-0.6
		c0.8-0.8,1.4-1.8,1.9-2.9c0.2-0.5,0.4-1,0.4-1.3l0.7,0.2c-0.3,1-0.4,1.1-0.9,2.2v5.4c0,0.5,0,0.8,0.1,1.2h-0.8
		c0-0.3,0.1-0.6,0.1-1.2V601H-440.2z M-435.2,596.5c-0.1,0.3-0.1,0.5-0.1,1.3c0,2,0.1,2.7,0.4,3.7c0.3,0.9,0.8,1.7,1.4,2.4
		c0.4,0.4,0.7,0.6,1.3,1c-0.3,0.2-0.4,0.3-0.6,0.5c-0.7-0.4-1.1-0.8-1.5-1.3c-0.3-0.4-0.7-0.9-0.9-1.4s-0.3-0.9-0.5-1.6
		c-0.2,1-0.3,1.5-0.7,2.1c-0.6,1-1.3,1.7-2.4,2.3c-0.1-0.2-0.3-0.4-0.5-0.5c1.2-0.6,1.9-1.3,2.4-2.3c0.3-0.6,0.5-1.3,0.7-2.1
		c0.1-0.6,0.1-1.2,0.1-2.5c0-0.9,0-1.1-0.1-1.4h1V596.5z M-438.4,600.9c0.4-1,0.5-1.5,0.6-2.7l0.7,0.1c-0.2,1.4-0.3,2-0.7,2.9
		L-438.4,600.9z M-432.4,598.4c-0.4,1.1-0.7,1.8-1.3,2.7c-0.2-0.2-0.3-0.3-0.6-0.4c0.6-0.8,0.9-1.6,1.2-2.6L-432.4,598.4z"/>
	<path id="XMLID_204_" class="st0" d="M-426.4,596.6c0,0.2-0.1,0.6-0.1,0.9c0,0.6,0.1,1.6,0.2,2.2c0.2,0.8,0.7,2,1.3,2.8
		c0.4,0.6,0.9,1.1,1.5,1.6c0.3,0.3,0.6,0.4,1.2,0.8c-0.2,0.2-0.4,0.3-0.5,0.6c-1.2-0.8-1.9-1.5-2.6-2.6c-0.6-0.9-1-1.8-1.3-3.2
		c-0.2,0.9-0.3,1.5-0.7,2.2c-0.3,0.8-0.8,1.4-1.4,2c-0.6,0.6-1,0.9-1.8,1.5c-0.2-0.3-0.3-0.4-0.5-0.6c1-0.6,1.5-0.9,2-1.5
		c1.4-1.5,2.1-3.4,2.1-5.9c0-0.4,0-0.6-0.1-0.9L-426.4,596.6L-426.4,596.6z"/>
</g>
<g id="XMLID_4_">
	<path id="XMLID_5_" class="st1" d="M-572.4,461.6c-0.3,0.4-0.6,0.7-0.9,1c-0.2-0.2-0.2-0.2-0.5-0.4c0.8-0.5,1.3-1.2,1.6-2l0.6,0.2
		c-0.2,0.3-0.3,0.4-0.4,0.6h1.7c0.4,0,0.6,0,0.8,0v0.6c-0.3,0-0.3,0-0.8,0h-0.8c0.2,0.3,0.3,0.5,0.4,0.8l-0.5,0.2
		c-0.1-0.5-0.3-0.7-0.5-1.1h-0.7V461.6z M-566.2,462.9c0.5,0,0.7,0,1,0c0,0.2,0,0.3,0,0.6v0.5c0,0.3,0,0.5,0,0.7h-0.6v-1.2h-7v1.2
		h-0.7c0-0.2,0-0.4,0-0.6v-0.5c0-0.3,0-0.4,0-0.6c0.3,0,0.5,0,1,0h2.8c-0.1-0.2-0.2-0.3-0.4-0.6l0.5-0.4c0.1,0.2,0.3,0.5,0.6,0.8
		h2.8V462.9z M-572.2,469.3c0-0.3,0.1-0.6,0.1-1v-3.6c0-0.3,0-0.5,0-0.7c0.3,0,0.6,0,1,0h3.5c0.4,0,0.7,0,1,0c0,0.2,0,0.4,0,0.7v0.6
		c0,0.4,0,0.5,0,0.8c-0.3,0-0.6,0-1,0h-4v0.7h4.5c0.4,0,0.7,0,0.9,0c0,0.3-0.1,0.5-0.1,0.9v0.8c0,0.4,0,0.6,0.1,0.9h-0.7v-0.5h-4.7
		v0.5h-0.6V469.3z M-571.6,465.5h4.3v-0.9h-4.3V465.5z M-571.6,468.3h4.8v-1h-4.8V468.3z M-568.5,461.6c-0.1,0.2-0.2,0.3-0.6,0.7
		c-0.1-0.1-0.3-0.2-0.5-0.3c0.6-0.5,0.8-0.9,1.1-1.7l0.6,0.1c-0.1,0.3-0.2,0.5-0.3,0.7h2.4c0.4,0,0.6,0,0.9,0v0.6
		c-0.3,0-0.5-0.1-0.9-0.1h-1.3c0.2,0.3,0.3,0.5,0.5,0.8l-0.6,0.2c-0.2-0.5-0.3-0.7-0.5-1.1h-0.8V461.6z"/>
	<path id="XMLID_74_" class="st1" d="M-562,463.8h0.4c0.3,0,0.4,0,0.7,0v0.6c-0.2,0-0.4,0-0.7,0h-0.4v2.5c0.6-0.3,0.7-0.3,1.2-0.5
		v0.6c-0.9,0.4-1.3,0.6-2.5,1.1c-0.3,0.1-0.4,0.1-0.5,0.2l-0.2-0.8c0.4-0.1,0.8-0.2,1.4-0.4v-2.8h-0.5c-0.3,0-0.4,0-0.7,0.1v-0.6
		c0.2,0,0.4,0,0.7,0h0.5v-2.3h-0.5c-0.4,0-0.5,0-0.8,0v-0.7c0.2,0,0.4,0.1,0.8,0.1h1.5c0.4,0,0.6,0,0.8-0.1v0.7c-0.3,0-0.4,0-0.8,0
		h-0.4V463.8z M-557.6,466.4h1.5c0.5,0,0.7,0,1,0v0.6c-0.3,0-0.5,0-1,0h-1.5v1.5h1.9c0.5,0,0.7,0,1-0.1v0.6c-0.3,0-0.5,0-1,0h-4.5
		c-0.5,0-0.7,0-1,0v-0.7c0.3,0,0.5,0.1,0.9,0.1h2.1v-1.5h-1.3c-0.5,0-0.7,0-1,0v-0.7c0.3,0,0.5,0,1,0h1.3v-1.1h-1c-0.6,0-1,0-1.2,0
		c0-0.2,0-0.3,0-0.4c0-0.2,0-0.2,0-0.8V462c0-0.6,0-1,0-1.3c0.3,0,0.6,0,1.3,0h2.6c0.7,0,1,0,1.3,0c0,0.3,0,0.7,0,1.3v2
		c0,0.6,0,1,0,1.3c-0.4,0-0.6,0-1.2,0h-1.1L-557.6,466.4L-557.6,466.4z M-558.2,461.3h-1.6v1.4h1.6V461.3z M-558.2,463.3h-1.6v1.4
		h1.6V463.3z M-555.9,462.7v-1.4h-1.7v1.4H-555.9z M-555.9,464.7v-1.4h-1.7v1.4H-555.9z"/>
	<path id="XMLID_82_" class="st1" d="M-548,463h2c0.6,0,0.7,0,1,0c0,0.1,0,0.3-0.1,0.5c-0.1,0.5-0.1,0.7-0.2,0.8
		c-0.1,0.1-0.3,0.2-0.5,0.2s-0.4,0-0.7-0.1c0-0.3,0-0.3-0.1-0.5c0.3,0.1,0.5,0.1,0.6,0.1c0.2,0,0.2,0,0.3-0.5h-2.3v0.4
		c0,0.3,0,0.4,0,0.6h-0.7c0-0.2,0-0.3,0-0.6v-0.4h-2.1c-0.3,0.5-0.8,0.9-1.5,1.2c0.3,0,0.3,0,0.7,0h4.1c0.5,0,0.8,0,1.1,0
		c0,0.2,0,0.5,0,1v1c0,0.6,0,0.9,0,1.1h-0.6c0.1-0.3,0.1-0.6,0.1-1.1v-1.5h-4.9v1.5c0,0.4,0,0.9,0.1,1.1h-0.8c0-0.3,0.1-0.7,0.1-1.1
		v-1c0-0.5,0-0.6,0-0.8c-0.4,0.1-0.5,0.2-1.1,0.4c-0.1-0.2-0.2-0.4-0.3-0.5c1.4-0.3,2.1-0.6,2.6-1.2h-1.3c-0.3,0-0.6,0-0.9,0
		c0.3-0.5,0.4-1,0.5-1.6c0.2,0,0.5,0,0.9,0h1.3c0-0.1,0-0.4,0-0.5h-1.7c-0.4,0-0.7,0-1,0.1V461c0.3,0,0.5,0.1,1,0.1h1.8
		c0-0.3,0-0.4,0-0.7h0.7c0,0.1,0,0.2,0,0.7h1.6V461c0-0.2,0-0.4,0-0.6h0.7c0,0.2,0,0.4,0,0.6v0.1h1.4c0.5,0,0.7,0,0.9-0.1
		c0,0.2,0,0.4,0,0.6v0.3c0,0.3,0,0.4,0,0.6c-0.3,0-0.6,0-0.9,0h-1.8V463z M-549.1,465.6c0,0.2,0,0.2,0,0.5c0,0.9-0.2,1.4-0.5,1.8
		c-0.4,0.5-1,0.8-2,1.1c-0.4,0.1-1,0.2-1.8,0.3c-0.1-0.2-0.1-0.4-0.3-0.6c1.2,0,2.4-0.2,3-0.6c0.7-0.4,1-0.9,1-2.1
		c0-0.2,0-0.2,0-0.4H-549.1z M-552.5,462.4l-0.2,0.6h1.7c0.1-0.2,0.1-0.4,0.2-0.6H-552.5z M-550.3,462.4c0,0.2-0.1,0.4-0.2,0.6h1.9
		v-0.6H-550.3z M-550.1,461.4c0,0.2,0,0.4-0.1,0.5h1.6v-0.5H-550.1z M-548.8,467.5l1.9,0.7c0.3,0.1,0.3,0.1,1,0.4
		c0.3,0.1,0.4,0.1,0.8,0.3l-0.2,0.6c-1.6-0.7-2.2-0.9-3.8-1.4L-548.8,467.5z M-548,461.9h1.8v-0.5h-1.8V461.9z"/>
	<path id="XMLID_103_" class="st1" d="M-541.7,464.1h-1v-1h1V464.1z M-542.7,468.5v-1h1v1H-542.7z"/>
	<path id="XMLID_110_" class="st1" d="M-532.8,460.9c0.3,0,0.5,0,0.8,0h0.6c0.3,0,0.5,0,0.8,0c-0.1,0.6-0.1,1.1-0.1,1.7v4.9
		c0,0.5,0,0.8,0.1,1.1h-0.9c0.1-0.3,0.1-0.7,0.1-1.1v-5.8h-0.5c-0.3,0-0.6,0-0.9,0.1C-532.8,461.8-532.8,460.9-532.8,460.9z"/>
	<path id="XMLID_115_" class="st1" d="M-526.9,464.6c-0.4-0.3-0.5-0.9-0.5-1.7c0-1.3,0.6-2.1,1.7-2.1c1.1,0,1.7,0.8,1.7,2.1
		c0,0.7-0.2,1.3-0.5,1.7c-0.3,0.3-0.7,0.4-1.2,0.4C-526.2,465.1-526.6,464.9-526.9,464.6z M-526.8,462.9c0,1,0.4,1.5,1.1,1.5
		s1.1-0.6,1.1-1.5c0-1-0.4-1.5-1.1-1.5S-526.8,461.9-526.8,462.9z M-520.6,460.7l0.4,0.3l-6.1,7.7l-0.4-0.3L-520.6,460.7z
		 M-522.4,468.2c-0.4-0.3-0.5-0.9-0.5-1.7c0-1.3,0.6-2.1,1.7-2.1c1.1,0,1.7,0.8,1.7,2.1c0,0.7-0.2,1.3-0.5,1.7
		c-0.3,0.3-0.7,0.4-1.2,0.4C-521.7,468.7-522.1,468.5-522.4,468.2z M-522.3,466.5c0,1,0.4,1.5,1.1,1.5s1.1-0.6,1.1-1.5
		c0-1-0.4-1.5-1.1-1.5S-522.3,465.6-522.3,466.5z"/>
</g>
</svg>
