<?xml version="1.0" encoding="utf-8"?>
<!-- Generator: Adobe Illustrator 19.0.0, SVG Export Plug-In . SVG Version: 6.00 Build 0)  -->
<svg version="1.1" id="图层_1" xmlns="http://www.w3.org/2000/svg" xmlns:xlink="http://www.w3.org/1999/xlink" x="0px" y="0px"
	 viewBox="0 0 760 250" style="enable-background:new 0 0 760 250;" xml:space="preserve">
<style type="text/css">
	.st0{fill:#808080;}
	.st1{fill:#997817;}
	.st2{fill:#E0B153;}
	.st3{fill:#FFFFFF;}
</style>
<g id="XMLID_68_">
	<g id="XMLID_396_">
		<path id="XMLID_1477_" class="st0" d="M0.9,124.9H0.3V12.3h0.6C0.9,12.3,0.9,124.9,0.9,124.9z"/>
	</g>
</g>
<g id="XMLID_66_">
	<g id="XMLID_394_">
		<path id="XMLID_1476_" class="st0" d="M0,124v0.6h45.5V124H0z"/>
	</g>
</g>
<g id="XMLID_64_">
	<g id="XMLID_392_">
		<path id="XMLID_1475_" class="st0" d="M0,12.2v0.6h46v-0.6H0z"/>
	</g>
</g>
<g id="XMLID_62_">
	<g id="XMLID_390_">
		<path id="XMLID_1474_" class="st0" d="M42.1,8.1l-0.4,0.4l4.1,4l-4.1,4l0.4,0.4l4.5-4.3L42.1,8.1z"/>
	</g>
</g>
<g id="XMLID_60_">
	<g id="XMLID_389_">
		<path id="XMLID_1473_" class="st0" d="M206.6,114v-0.6h-11.8v0.6H206.6z"/>
	</g>
</g>
<g id="XMLID_58_">
	<g id="XMLID_387_">
		<path id="XMLID_1472_" class="st0" d="M198.6,118.1l0.4-0.4l-4.1-4l4.1-4l-0.4-0.4l-4.5,4.3L198.6,118.1z"/>
	</g>
</g>
<g id="XMLID_56_">
	<g id="XMLID_386_">
		<path id="XMLID_1471_" class="st0" d="M341.8,113.5v0.6h11.9v-0.6H341.8z"/>
	</g>
</g>
<g id="XMLID_54_">
	<g id="XMLID_384_">
		<path id="XMLID_1470_" class="st0" d="M349.7,109.4l-0.4,0.4l4.1,4l-4.1,4l0.4,0.4l4.5-4.3L349.7,109.4z"/>
	</g>
</g>
<g id="XMLID_52_">
	<g id="XMLID_382_">
		<path id="XMLID_1469_" class="st0" d="M421.6,177.1H421v-11.9h0.6V177.1z"/>
	</g>
</g>
<g id="XMLID_50_">
	<g id="XMLID_381_">
		<path id="XMLID_1468_" class="st0" d="M425.7,169.1l-0.4,0.4l-4-4.1l-4,4.1l-0.4-0.4l4.3-4.5L425.7,169.1z"/>
	</g>
</g>
<g id="XMLID_48_">
	<g id="XMLID_379_">
		<path id="XMLID_1467_" class="st0" d="M421.1,192.6h0.6v11.8h-0.6V192.6z"/>
	</g>
</g>
<g id="XMLID_46_">
	<g id="XMLID_377_">
		<path id="XMLID_1466_" class="st0" d="M417,200.6l0.4-0.4l4,4.1l4-4.1l0.4,0.4l-4.3,4.5L417,200.6z"/>
	</g>
</g>
<g id="XMLID_44_">
	<g id="XMLID_375_">
		<path id="XMLID_1465_" class="st0" d="M122.5,177.1H122v-11.8h0.6L122.5,177.1L122.5,177.1z"/>
	</g>
</g>
<g id="XMLID_42_">
	<g id="XMLID_373_">
		<path id="XMLID_1464_" class="st0" d="M126.6,169.1l-0.4,0.4l-4-4.1l-4,4.1l-0.4-0.4l4.3-4.5L126.6,169.1z"/>
	</g>
</g>
<g id="XMLID_40_">
	<g id="XMLID_371_">
		<path id="XMLID_1463_" class="st0" d="M122,192.6h0.6v11.8H122V192.6z"/>
	</g>
</g>
<g id="XMLID_38_">
	<g id="XMLID_370_">
		<path id="XMLID_1462_" class="st0" d="M117.9,200.6l0.4-0.4l4,4.1l4-4.1l0.4,0.4l-4.3,4.5L117.9,200.6z"/>
	</g>
</g>
<g id="XMLID_36_">
	<g id="XMLID_368_">
		<path id="XMLID_1461_" class="st0" d="M122.5,55.9H122V44.2h0.6L122.5,55.9L122.5,55.9z"/>
	</g>
</g>
<g id="XMLID_34_">
	<g id="XMLID_366_">
		<path id="XMLID_1460_" class="st0" d="M126.6,48l-0.4,0.4l-4-4.1l-4,4.1l-0.4-0.4l4.3-4.5L126.6,48z"/>
	</g>
</g>
<g id="XMLID_32_">
	<g id="XMLID_365_">
		<path id="XMLID_1459_" class="st0" d="M122,71.4h0.6v11.8H122V71.4z"/>
	</g>
</g>
<g id="XMLID_30_">
	<g id="XMLID_363_">
		<path id="XMLID_1458_" class="st0" d="M117.9,79.4l0.4-0.4l4,4.1l4-4.1l0.4,0.4l-4.3,4.5L117.9,79.4z"/>
	</g>
</g>
<g id="XMLID_28_">
	<g id="XMLID_361_">
		<path id="XMLID_1457_" class="st1" d="M50.4,96.9h139.7c1.5,0,2.8,1.1,2.8,2.5v49.3c0,1.4-1.3,2.5-2.8,2.5H50.4
			c-1.5,0-2.8-1.1-2.8-2.5V99.4C47.7,98,48.9,96.9,50.4,96.9z"/>
	</g>
</g>
<g id="XMLID_24_">
	<g id="XMLID_357_">
		<path id="XMLID_1455_" class="st2" d="M58.1,0h124.3c1.4,0,2.5,1.1,2.5,2.5v24.9c0,1.4-1.1,2.5-2.5,2.5H58.1
			c-1.4,0-2.5-1.1-2.5-2.5V2.5C55.7,1.1,56.8,0,58.1,0z"/>
	</g>
</g>
<g id="XMLID_22_">
	<g id="XMLID_356_">
		<path id="XMLID_1454_" class="st1" d="M506.5,123.9v-0.6h92.7v0.6H506.5z"/>
	</g>
</g>
<g id="XMLID_20_">
	<g id="XMLID_354_">
		<path id="XMLID_1453_" class="st1" d="M595.2,128l-0.4-0.4l4.1-4l-4.1-4l0.4-0.4l4.5,4.3L595.2,128z"/>
	</g>
</g>
<g id="XMLID_18_">
	<g id="XMLID_352_">
		<path id="XMLID_1452_" class="st1" d="M213.3,130.1v-0.6h117.6v0.6H213.3z"/>
	</g>
</g>
<g id="XMLID_16_">
	<g id="XMLID_350_">
		<path id="XMLID_1451_" class="st1" d="M326.9,134.2l-0.4-0.4l4.1-4l-4.1-4l0.4-0.4l4.5,4.3L326.9,134.2z"/>
	</g>
</g>
<g id="XMLID_14_">
	<g id="XMLID_348_">
		<path id="XMLID_1450_" class="st1" d="M633.2,96.7h124.3c1.4,0,2.5,1.1,2.5,2.5v49.3c0,1.4-1.1,2.5-2.5,2.5H633.2
			c-1.4,0-2.5-1.1-2.5-2.5V99.2C630.7,97.8,631.9,96.7,633.2,96.7z"/>
	</g>
</g>
<g id="XMLID_12_">
	<g id="XMLID_346_">
		<path id="XMLID_1449_" class="st1" d="M358.6,96.9h124.3c1.4,0,2.5,1.1,2.5,2.5v49.3c0,1.4-1.1,2.5-2.5,2.5H358.6
			c-1.4,0-2.5-1.1-2.5-2.5V99.4C356.1,98,357.3,96.9,358.6,96.9z"/>
	</g>
</g>
<g id="XMLID_398_">
	<path id="XMLID_1264_" class="st3" d="M68.6,20.2v-10h1.2v8.9h4.4v1.1H68.6z"/>
	<path id="XMLID_1266_" class="st3" d="M82.2,16.4c0,1.2-0.3,2.2-0.9,2.9s-1.5,1-2.5,1c-0.7,0-1.3-0.2-1.8-0.5s-0.9-0.8-1.2-1.4
		s-0.4-1.3-0.4-2.1c0-1.2,0.3-2.2,0.9-2.9s1.5-1,2.5-1s1.9,0.3,2.5,1S82.2,15.3,82.2,16.4z M76.5,16.4c0,1,0.2,1.7,0.6,2.2
		s0.9,0.8,1.7,0.8s1.3-0.2,1.7-0.7s0.6-1.2,0.6-2.2s-0.2-1.7-0.6-2.2s-1-0.7-1.7-0.7s-1.3,0.2-1.7,0.7S76.5,15.5,76.5,16.4z"/>
	<path id="XMLID_1269_" class="st3" d="M89.3,20.2v-4.8c0-0.6-0.1-1.1-0.4-1.4s-0.7-0.5-1.3-0.5c-0.8,0-1.4,0.2-1.7,0.6
		s-0.5,1.1-0.5,2.1v3.9h-1.1v-7.5h0.9l0.2,1h0.1c0.2-0.4,0.6-0.7,1-0.9s0.9-0.3,1.4-0.3c0.9,0,1.6,0.2,2,0.7s0.7,1.1,0.7,2.1v4.9
		h-1.3V20.2z"/>
	<path id="XMLID_1271_" class="st3" d="M97.9,19.2L97.9,19.2c-0.6,0.8-1.4,1.1-2.4,1.1s-1.7-0.3-2.3-1s-0.8-1.6-0.8-2.9
		s0.3-2.2,0.8-2.9s1.3-1,2.3-1s1.8,0.4,2.3,1.1h0.1v-0.5v-0.5v-3H99v10.6h-1L97.9,19.2z M95.6,19.4c0.8,0,1.3-0.2,1.7-0.6
		s0.5-1.1,0.5-2v-0.2c0-1.1-0.2-1.8-0.5-2.3s-0.9-0.7-1.7-0.7c-0.7,0-1.2,0.3-1.5,0.8s-0.5,1.2-0.5,2.2s0.2,1.7,0.5,2.2
		S94.9,19.4,95.6,19.4z"/>
	<path id="XMLID_1274_" class="st3" d="M107.8,16.4c0,1.2-0.3,2.2-0.9,2.9s-1.5,1-2.5,1c-0.7,0-1.3-0.2-1.8-0.5s-0.9-0.8-1.2-1.4
		s-0.4-1.3-0.4-2.1c0-1.2,0.3-2.2,0.9-2.9s1.5-1,2.5-1s1.9,0.3,2.5,1S107.8,15.3,107.8,16.4z M102.1,16.4c0,1,0.2,1.7,0.6,2.2
		s0.9,0.8,1.7,0.8s1.3-0.2,1.7-0.7s0.6-1.2,0.6-2.2s-0.2-1.7-0.6-2.2s-1-0.7-1.7-0.7s-1.3,0.2-1.7,0.7S102.1,15.5,102.1,16.4z"/>
	<path id="XMLID_1277_" class="st3" d="M114.9,20.2v-4.8c0-0.6-0.1-1.1-0.4-1.4s-0.7-0.5-1.3-0.5c-0.8,0-1.4,0.2-1.7,0.6
		s-0.5,1.1-0.5,2.1v3.9h-1.1v-7.5h0.9l0.2,1h0.1c0.2-0.4,0.6-0.7,1-0.9s0.9-0.3,1.4-0.3c0.9,0,1.6,0.2,2,0.7s0.7,1.1,0.7,2.1v4.9
		h-1.3V20.2z"/>
	<path id="XMLID_1279_" class="st3" d="M118,17.6c0-0.6,0.2-1.1,0.5-1.6s0.9-0.9,1.7-1.4c-0.4-0.4-0.7-0.8-0.8-1s-0.2-0.5-0.3-0.7
		s-0.1-0.5-0.1-0.8c0-0.7,0.2-1.2,0.7-1.6s1.1-0.6,1.9-0.6c0.7,0,1.3,0.2,1.7,0.6s0.6,0.9,0.6,1.6c0,0.5-0.2,0.9-0.5,1.4
		s-0.8,0.8-1.5,1.3l2.8,2.7c0.3-0.3,0.5-0.6,0.6-1s0.3-0.8,0.4-1.2h1.1c-0.3,1.3-0.8,2.3-1.4,3l2,2h-1.6l-1.3-1.2
		c-0.5,0.5-1.1,0.8-1.6,1s-1.2,0.3-1.9,0.3c-1,0-1.7-0.2-2.3-0.7S118,18.5,118,17.6z M121.1,19.3c1.1,0,2-0.4,2.7-1.1l-3-2.9
		c-0.5,0.3-0.9,0.6-1.1,0.8c-0.2,0.2-0.4,0.4-0.5,0.7s-0.2,0.5-0.2,0.8c0,0.5,0.2,1,0.5,1.3S120.5,19.3,121.1,19.3z M120,12.2
		c0,0.3,0.1,0.6,0.2,0.9s0.4,0.6,0.8,1c0.6-0.3,1-0.7,1.2-0.9s0.3-0.6,0.3-1s-0.1-0.6-0.4-0.9s-0.5-0.3-0.9-0.3s-0.7,0.1-1,0.3
		S120,11.8,120,12.2z"/>
	<path id="XMLID_1283_" class="st3" d="M137.5,15.2c0,1.6-0.4,2.9-1.2,3.8s-1.9,1.4-3.4,1.4s-2.6-0.5-3.4-1.4s-1.2-2.2-1.2-3.8
		s0.4-2.9,1.2-3.8s1.9-1.3,3.4-1.3c1.4,0,2.6,0.5,3.4,1.4S137.5,13.6,137.5,15.2z M129.5,15.2c0,1.4,0.3,2.4,0.9,3.1s1.4,1,2.5,1
		s1.9-0.3,2.5-1s0.8-1.7,0.8-3.1c0-1.3-0.3-2.4-0.8-3.1s-1.4-1-2.5-1s-1.9,0.3-2.5,1S129.5,13.9,129.5,15.2z"/>
	<path id="XMLID_1286_" class="st3" d="M141.3,16.4l-2.6-3.7h1.3l2,2.9l2-2.9h1.3l-2.6,3.7l2.7,3.8h-1.3l-2.1-3l-2.1,3h-1.3
		L141.3,16.4z"/>
	<path id="XMLID_1288_" class="st3" d="M150.2,13.6h-1.9v6.6h-1.1v-6.6h-1.3v-0.5l1.3-0.4v-0.4c0-1.8,0.8-2.8,2.4-2.8
		c0.4,0,0.9,0.1,1.4,0.2l-0.3,0.9c-0.4-0.1-0.8-0.2-1.1-0.2c-0.4,0-0.7,0.1-1,0.4s-0.3,0.7-0.3,1.4v0.5h1.9L150.2,13.6L150.2,13.6z"
		/>
	<path id="XMLID_1290_" class="st3" d="M158.1,16.4c0,1.2-0.3,2.2-0.9,2.9s-1.5,1-2.5,1c-0.7,0-1.3-0.2-1.8-0.5s-0.9-0.8-1.2-1.4
		s-0.4-1.3-0.4-2.1c0-1.2,0.3-2.2,0.9-2.9s1.5-1,2.5-1s1.9,0.3,2.5,1S158.1,15.3,158.1,16.4z M152.4,16.4c0,1,0.2,1.7,0.6,2.2
		s0.9,0.8,1.7,0.8s1.3-0.2,1.7-0.7s0.6-1.2,0.6-2.2s-0.2-1.7-0.6-2.2s-1-0.7-1.7-0.7s-1.3,0.2-1.7,0.7S152.4,15.5,152.4,16.4z"/>
	<path id="XMLID_1293_" class="st3" d="M163.5,12.6c0.3,0,0.6,0,0.9,0.1l-0.2,1.1c-0.3-0.1-0.6-0.1-0.8-0.1c-0.6,0-1.1,0.2-1.6,0.7
		s-0.6,1.1-0.6,1.8v4h-1.1v-7.5h0.9l0.1,1.4h0.1c0.3-0.5,0.6-0.9,1-1.1S163,12.6,163.5,12.6z"/>
	<path id="XMLID_1295_" class="st3" d="M170.9,19.2L170.9,19.2c-0.6,0.8-1.4,1.1-2.4,1.1s-1.7-0.3-2.3-1s-0.8-1.6-0.8-2.9
		s0.3-2.2,0.8-2.9s1.3-1,2.3-1s1.8,0.4,2.3,1.1h0.1v-0.5v-0.5v-3h1.1v10.6h-1L170.9,19.2z M168.6,19.4c0.8,0,1.3-0.2,1.7-0.6
		s0.5-1.1,0.5-2v-0.2c0-1.1-0.2-1.8-0.5-2.3s-0.9-0.7-1.7-0.7c-0.7,0-1.2,0.3-1.5,0.8s-0.5,1.2-0.5,2.2s0.2,1.7,0.5,2.2
		S167.9,19.4,168.6,19.4z"/>
</g>
<g>
	<g id="XMLID_26_">
		<g id="XMLID_359_">
			<path id="XMLID_1456_" class="st2" d="M58.1,220.1h124.3c1.4,0,2.5,1.1,2.5,2.5v24.9c0,1.4-1.1,2.5-2.5,2.5H58.1
				c-1.4,0-2.5-1.1-2.5-2.5v-24.9C55.7,221.2,56.8,220.1,58.1,220.1z"/>
		</g>
	</g>
	<g id="XMLID_10_">
		<g id="XMLID_344_">
			<path id="XMLID_1448_" class="st2" d="M358.6,220.1h124.3c1.4,0,2.5,1.1,2.5,2.5v24.9c0,1.4-1.1,2.5-2.5,2.5H358.6
				c-1.4,0-2.5-1.1-2.5-2.5v-24.9C356.1,221.2,357.3,220.1,358.6,220.1z"/>
		</g>
	</g>
	<g id="XMLID_401_">
		<path id="XMLID_1235_" class="st3" d="M78.5,229.3c-1.1,0-2,0.4-2.6,1.1c-0.6,0.7-1,1.7-1,3s0.3,2.3,0.9,3s1.5,1.1,2.6,1.1
			c0.7,0,1.5-0.1,2.4-0.4v1c-0.7,0.3-1.5,0.4-2.6,0.4c-1.5,0-2.6-0.4-3.4-1.3s-1.2-2.2-1.2-3.8c0-1,0.2-1.9,0.6-2.7s0.9-1.4,1.7-1.8
			s1.6-0.6,2.6-0.6s2,0.2,2.7,0.6l-0.5,1C80,229.5,79.3,229.3,78.5,229.3z"/>
		<path id="XMLID_1237_" class="st3" d="M81.7,230.9h1.2l1.6,4.3c0.4,1,0.6,1.7,0.7,2.1h0.1c0.1-0.2,0.2-0.6,0.4-1.2
			c0.2-0.6,0.8-2.3,1.9-5.2h1.2l-3.2,8.5c-0.3,0.8-0.7,1.4-1.1,1.8c-0.4,0.4-0.9,0.5-1.6,0.5c-0.3,0-0.7,0-1-0.1v-0.9
			c0.3,0.1,0.5,0.1,0.8,0.1c0.8,0,1.3-0.4,1.7-1.3l0.4-1.1L81.7,230.9z"/>
		<path id="XMLID_1239_" class="st3" d="M94.6,238.4l-0.2-1.1h-0.1c-0.4,0.5-0.7,0.8-1.1,1s-0.8,0.3-1.4,0.3c-0.7,0-1.3-0.2-1.7-0.6
			s-0.6-0.9-0.6-1.6c0-1.5,1.2-2.3,3.6-2.4h1.3v-0.5c0-0.6-0.1-1-0.4-1.3s-0.7-0.4-1.2-0.4c-0.6,0-1.3,0.2-2.1,0.6l-0.3-0.9
			c0.4-0.2,0.8-0.4,1.2-0.5s0.9-0.2,1.3-0.2c0.9,0,1.6,0.2,2,0.6s0.6,1,0.6,1.9v5.1L94.6,238.4L94.6,238.4z M92,237.6
			c0.7,0,1.3-0.2,1.7-0.6s0.6-0.9,0.6-1.6v-0.7h-1.1c-0.9,0-1.6,0.2-2,0.4s-0.6,0.6-0.6,1.2c0,0.4,0.1,0.7,0.4,0.9
			S91.6,237.6,92,237.6z"/>
		<path id="XMLID_1242_" class="st3" d="M102.9,238.4v-4.8c0-0.6-0.1-1.1-0.4-1.4s-0.7-0.5-1.3-0.5c-0.8,0-1.4,0.2-1.7,0.6
			s-0.5,1.1-0.5,2.1v3.9h-1.1v-7.5h0.9l0.2,1h0.1c0.2-0.4,0.6-0.7,1-0.9s0.9-0.3,1.4-0.3c0.9,0,1.6,0.2,2,0.7
			c0.5,0.4,0.7,1.1,0.7,2.1v4.9L102.9,238.4L102.9,238.4z"/>
		<path id="XMLID_1244_" class="st3" d="M111.2,236.4c0,0.7-0.3,1.2-0.8,1.6s-1.2,0.6-2.2,0.6s-1.8-0.2-2.3-0.5V237
			c0.4,0.2,0.7,0.3,1.2,0.4s0.8,0.2,1.2,0.2c0.6,0,1-0.1,1.4-0.3c0.3-0.2,0.5-0.5,0.5-0.9c0-0.3-0.1-0.5-0.4-0.7s-0.7-0.5-1.5-0.7
			c-0.7-0.3-1.2-0.5-1.5-0.7s-0.5-0.4-0.7-0.7s-0.2-0.5-0.2-0.9c0-0.6,0.2-1.1,0.7-1.4c0.5-0.4,1.2-0.5,2-0.5s1.6,0.2,2.4,0.5
			l-0.4,0.9c-0.8-0.3-1.4-0.5-2-0.5c-0.5,0-0.9,0.1-1.2,0.3s-0.4,0.4-0.4,0.7c0,0.2,0.1,0.4,0.2,0.5s0.3,0.3,0.5,0.4
			s0.7,0.3,1.3,0.6c0.9,0.3,1.5,0.6,1.8,1S111.2,235.9,111.2,236.4z"/>
		<path id="XMLID_1246_" class="st3" d="M115.4,237.6c0.2,0,0.4,0,0.6,0s0.3-0.1,0.4-0.1v0.9c-0.1,0.1-0.3,0.1-0.5,0.1
			s-0.5,0.1-0.6,0.1c-1.4,0-2.2-0.8-2.2-2.3v-4.5H112v-0.5l1.1-0.5l0.5-1.6h0.7v1.7h2.2v0.9h-2.2v4.4c0,0.5,0.1,0.8,0.3,1
			S115.1,237.6,115.4,237.6z"/>
		<path id="XMLID_1248_" class="st3" d="M124.4,234.7c0,1.2-0.3,2.2-0.9,2.9s-1.5,1-2.5,1c-0.7,0-1.3-0.2-1.8-0.5s-0.9-0.8-1.2-1.4
			s-0.4-1.3-0.4-2.1c0-1.2,0.3-2.2,0.9-2.9s1.5-1,2.5-1s1.9,0.3,2.5,1S124.4,233.5,124.4,234.7z M118.7,234.7c0,1,0.2,1.7,0.6,2.2
			s0.9,0.8,1.7,0.8s1.3-0.2,1.7-0.7c0.4-0.5,0.6-1.2,0.6-2.2s-0.2-1.7-0.6-2.2s-1-0.7-1.7-0.7s-1.3,0.2-1.7,0.7
			S118.7,233.7,118.7,234.7z"/>
		<path id="XMLID_1251_" class="st3" d="M131.5,238.4v-4.8c0-0.6-0.1-1.1-0.4-1.4s-0.7-0.5-1.3-0.5c-0.8,0-1.4,0.2-1.7,0.6
			s-0.5,1.1-0.5,2.1v3.9h-1.1v-7.5h0.9l0.2,1h0.1c0.2-0.4,0.6-0.7,1-0.9c0.4-0.2,0.9-0.3,1.4-0.3c0.9,0,1.6,0.2,2,0.7
			c0.5,0.4,0.7,1.1,0.7,2.1v4.9L131.5,238.4L131.5,238.4z"/>
		<path id="XMLID_1253_" class="st3" d="M138.2,238.6c-1.1,0-2-0.3-2.6-1s-1-1.6-1-2.8s0.3-2.2,0.9-2.9s1.4-1.1,2.4-1.1
			c0.9,0,1.7,0.3,2.2,0.9c0.5,0.6,0.8,1.4,0.8,2.4v0.7h-5.2c0,0.9,0.2,1.5,0.7,2s1,0.7,1.8,0.7s1.6-0.2,2.4-0.5v1
			c-0.4,0.2-0.8,0.3-1.1,0.4C139.1,238.5,138.7,238.6,138.2,238.6z M137.9,231.7c-0.6,0-1.1,0.2-1.4,0.6s-0.6,0.9-0.6,1.6h3.9
			c0-0.7-0.2-1.3-0.5-1.6C138.9,231.9,138.5,231.7,137.9,231.7z"/>
		<path id="XMLID_1256_" class="st3" d="M142.2,234.6c0-1.2,0.2-2.3,0.5-3.4s0.9-2,1.5-2.8h1.1c-0.7,0.9-1.1,1.8-1.5,2.9
			s-0.5,2.1-0.5,3.2c0,1.1,0.2,2.2,0.5,3.2s0.8,2,1.5,2.9h-1.1c-0.7-0.8-1.2-1.7-1.5-2.7S142.2,235.8,142.2,234.6z"/>
		<path id="XMLID_1258_" class="st3" d="M151.6,238.4l-3.4-8.9h-0.1c0.1,0.7,0.1,1.5,0.1,2.5v6.4h-1.1v-10h1.8l3.2,8.2h0.1l3.2-8.2
			h1.7v10h-1.2V232c0-0.7,0-1.5,0.1-2.4h-0.1l-3.4,8.8L151.6,238.4L151.6,238.4z"/>
		<path id="XMLID_1260_" class="st3" d="M164.1,229.3c-1.1,0-2,0.4-2.6,1.1c-0.6,0.7-1,1.7-1,3s0.3,2.3,0.9,3
			c0.6,0.7,1.5,1.1,2.6,1.1c0.7,0,1.5-0.1,2.4-0.4v1c-0.7,0.3-1.5,0.4-2.6,0.4c-1.5,0-2.6-0.4-3.4-1.3s-1.2-2.2-1.2-3.8
			c0-1,0.2-1.9,0.6-2.7s0.9-1.4,1.7-1.8s1.6-0.6,2.6-0.6s2,0.2,2.7,0.6l-0.5,1C165.6,229.5,164.8,229.3,164.1,229.3z"/>
		<path id="XMLID_1262_" class="st3" d="M170.9,234.6c0,1.2-0.2,2.3-0.5,3.3s-0.9,1.9-1.5,2.7h-1.1c0.6-0.9,1.1-1.8,1.5-2.9
			c0.3-1,0.5-2.1,0.5-3.2c0-1.1-0.2-2.2-0.5-3.2s-0.8-2-1.5-2.9h1.1c0.7,0.8,1.2,1.7,1.5,2.8C170.7,232.3,170.9,233.4,170.9,234.6z"
			/>
	</g>
	<g id="XMLID_403_">
		<path id="XMLID_1220_" class="st3" d="M403.7,234.2c0,1.3-0.3,2.3-0.8,3.2c-0.5,0.8-1.2,1.4-2.2,1.7l2.4,2.5h-1.7l-1.9-2.3h-0.4
			c-1.5,0-2.6-0.5-3.4-1.3c-0.8-0.9-1.2-2.2-1.2-3.8s0.4-2.9,1.2-3.8c0.8-0.9,1.9-1.3,3.4-1.3c1.4,0,2.6,0.5,3.4,1.4
			S403.7,232.6,403.7,234.2z M395.7,234.2c0,1.4,0.3,2.4,0.9,3.1c0.6,0.7,1.4,1,2.5,1s1.9-0.3,2.5-1s0.8-1.7,0.8-3.1
			c0-1.3-0.3-2.4-0.8-3.1c-0.6-0.7-1.4-1-2.5-1s-1.9,0.3-2.5,1S395.7,232.8,395.7,234.2z"/>
		<path id="XMLID_1223_" class="st3" d="M412.6,239.2h-1.2v-9h-3.2v-1h7.5v1h-3.2v9H412.6z"/>
		<path id="XMLID_1225_" class="st3" d="M423.6,235.4c0,1.2-0.3,2.2-0.9,2.9s-1.5,1-2.5,1c-0.7,0-1.3-0.2-1.8-0.5s-0.9-0.8-1.2-1.4
			c-0.3-0.6-0.4-1.3-0.4-2.1c0-1.2,0.3-2.2,0.9-2.9s1.5-1,2.5-1s1.9,0.3,2.5,1C423.3,233.3,423.6,234.2,423.6,235.4z M417.9,235.4
			c0,1,0.2,1.7,0.6,2.2s0.9,0.8,1.7,0.8c0.7,0,1.3-0.2,1.7-0.7c0.4-0.5,0.6-1.2,0.6-2.2s-0.2-1.7-0.6-2.2s-1-0.7-1.7-0.7
			s-1.3,0.2-1.7,0.7C418.1,233.7,417.9,234.4,417.9,235.4z"/>
		<path id="XMLID_1228_" class="st3" d="M426.7,235.3c0.2-0.3,0.5-0.6,0.9-1.1l2.4-2.6h1.3l-3,3.2l3.2,4.3h-1.4l-2.6-3.5l-0.9,0.7
			v2.8h-1.1v-10.6h1.1v5.6C426.7,234.4,426.7,234.8,426.7,235.3L426.7,235.3z"/>
		<path id="XMLID_1230_" class="st3" d="M436.1,239.3c-1.1,0-2-0.3-2.6-1s-1-1.6-1-2.8s0.3-2.2,0.9-2.9s1.4-1.1,2.4-1.1
			c0.9,0,1.7,0.3,2.2,0.9c0.5,0.6,0.8,1.4,0.8,2.4v0.7h-5.2c0,0.9,0.2,1.5,0.7,2c0.4,0.5,1,0.7,1.8,0.7s1.6-0.2,2.4-0.5v1
			c-0.4,0.2-0.8,0.3-1.1,0.4C437,239.3,436.6,239.3,436.1,239.3z M435.8,232.5c-0.6,0-1.1,0.2-1.4,0.6c-0.4,0.4-0.6,0.9-0.6,1.6h3.9
			c0-0.7-0.2-1.3-0.5-1.6C436.8,232.7,436.4,232.5,435.8,232.5z"/>
		<path id="XMLID_1233_" class="st3" d="M445.9,239.2v-4.8c0-0.6-0.1-1.1-0.4-1.4c-0.3-0.3-0.7-0.5-1.3-0.5c-0.8,0-1.4,0.2-1.7,0.6
			c-0.4,0.4-0.5,1.1-0.5,2.1v3.9h-1.1v-7.5h0.9l0.2,1h0.1c0.2-0.4,0.6-0.7,1-0.9s0.9-0.3,1.4-0.3c0.9,0,1.6,0.2,2,0.7
			c0.5,0.4,0.7,1.1,0.7,2.1v4.9L445.9,239.2L445.9,239.2z"/>
	</g>
</g>
<g id="XMLID_405_">
	<path id="XMLID_1185_" class="st3" d="M642.4,118.4c-1.1,0-2,0.4-2.6,1.1s-1,1.7-1,3s0.3,2.3,0.9,3c0.6,0.7,1.5,1.1,2.6,1.1
		c0.7,0,1.5-0.1,2.4-0.4v1c-0.7,0.3-1.5,0.4-2.6,0.4c-1.5,0-2.6-0.4-3.4-1.3c-0.8-0.9-1.2-2.2-1.2-3.8c0-1,0.2-1.9,0.6-2.7
		c0.4-0.8,0.9-1.4,1.7-1.8c0.7-0.4,1.6-0.6,2.6-0.6s2,0.2,2.7,0.6l-0.5,1C643.9,118.5,643.2,118.4,642.4,118.4z"/>
	<path id="XMLID_1187_" class="st3" d="M653.3,123.7c0,1.2-0.3,2.2-0.9,2.9c-0.6,0.7-1.5,1-2.5,1c-0.7,0-1.3-0.2-1.8-0.5
		s-0.9-0.8-1.2-1.4s-0.4-1.3-0.4-2.1c0-1.2,0.3-2.2,0.9-2.9c0.6-0.7,1.5-1,2.5-1s1.9,0.3,2.5,1C653,121.6,653.3,122.5,653.3,123.7z
		 M647.6,123.7c0,1,0.2,1.7,0.6,2.2c0.4,0.5,0.9,0.8,1.7,0.8c0.7,0,1.3-0.3,1.7-0.7c0.4-0.5,0.6-1.2,0.6-2.2s-0.2-1.7-0.6-2.2
		c-0.4-0.5-1-0.7-1.7-0.7s-1.3,0.2-1.7,0.7C647.8,122,647.6,122.8,647.6,123.7z"/>
	<path id="XMLID_1190_" class="st3" d="M656.3,120v4.9c0,0.6,0.1,1.1,0.4,1.4c0.3,0.3,0.7,0.5,1.3,0.5c0.8,0,1.4-0.2,1.7-0.6
		c0.4-0.4,0.5-1.1,0.5-2.1V120h1.1v7.5h-0.9l-0.2-1h-0.1c-0.2,0.4-0.6,0.7-1,0.8c-0.4,0.2-0.9,0.3-1.4,0.3c-0.9,0-1.6-0.2-2-0.6
		c-0.5-0.4-0.7-1.1-0.7-2.1V120H656.3z"/>
	<path id="XMLID_1192_" class="st3" d="M669,127.5v-4.8c0-0.6-0.1-1.1-0.4-1.4c-0.3-0.3-0.7-0.5-1.3-0.5c-0.8,0-1.4,0.2-1.7,0.6
		c-0.4,0.4-0.5,1.1-0.5,2.1v3.9H664V120h0.9l0.2,1h0.1c0.2-0.4,0.6-0.7,1-0.9c0.4-0.2,0.9-0.3,1.4-0.3c0.9,0,1.6,0.2,2,0.7
		c0.5,0.4,0.7,1.1,0.7,2.1v4.9C670.3,127.5,669,127.5,669,127.5z"/>
	<path id="XMLID_1194_" class="st3" d="M674.9,126.7c0.2,0,0.4,0,0.6,0c0.2,0,0.3-0.1,0.4-0.1v0.9c-0.1,0.1-0.3,0.1-0.5,0.1
		s-0.5,0.1-0.6,0.1c-1.4,0-2.2-0.8-2.2-2.3v-4.5h-1.1v-0.5l1.1-0.5l0.5-1.6h0.7v1.7h2.2v0.9h-2.2v4.4c0,0.5,0.1,0.8,0.3,1
		C674.2,126.6,674.5,126.7,674.9,126.7z"/>
	<path id="XMLID_1196_" class="st3" d="M680.6,127.6c-1.1,0-2-0.3-2.6-1s-1-1.6-1-2.8c0-1.2,0.3-2.2,0.9-2.9s1.4-1.1,2.4-1.1
		c0.9,0,1.7,0.3,2.2,0.9s0.8,1.4,0.8,2.4v0.7h-5.2c0,0.9,0.2,1.5,0.7,2c0.4,0.5,1,0.7,1.8,0.7s1.6-0.2,2.4-0.5v1
		c-0.4,0.2-0.8,0.3-1.1,0.4C681.5,127.6,681.1,127.6,680.6,127.6z M680.2,120.8c-0.6,0-1.1,0.2-1.4,0.6c-0.4,0.4-0.6,0.9-0.6,1.6
		h3.9c0-0.7-0.2-1.3-0.5-1.6C681.3,121,680.8,120.8,680.2,120.8z"/>
	<path id="XMLID_1199_" class="st3" d="M688.7,119.8c0.3,0,0.6,0,0.9,0.1l-0.2,1.1c-0.3-0.1-0.6-0.1-0.8-0.1c-0.6,0-1.1,0.2-1.6,0.7
		s-0.6,1.1-0.6,1.8v4h-1.1V120h0.9l0.1,1.4h0.1c0.3-0.5,0.6-0.9,1-1.1C687.8,120,688.2,119.8,688.7,119.8z"/>
	<path id="XMLID_1201_" class="st3" d="M698.1,127.6c-0.5,0-0.9-0.1-1.3-0.3c-0.4-0.2-0.7-0.5-1-0.8h-0.1c0.1,0.4,0.1,0.9,0.1,1.2
		v3.1h-1.1V120h0.9l0.2,1h0.1c0.3-0.4,0.6-0.7,1-0.9c0.4-0.2,0.8-0.3,1.3-0.3c1,0,1.8,0.3,2.3,1s0.8,1.6,0.8,2.9
		c0,1.2-0.3,2.2-0.8,2.9C699.8,127.3,699.1,127.6,698.1,127.6z M697.9,120.8c-0.8,0-1.3,0.2-1.7,0.6s-0.5,1.1-0.5,2v0.3
		c0,1.1,0.2,1.8,0.5,2.3c0.4,0.5,0.9,0.7,1.7,0.7c0.6,0,1.2-0.3,1.5-0.8c0.4-0.5,0.5-1.2,0.5-2.2c0-0.9-0.2-1.7-0.5-2.2
		C699.1,121.1,698.6,120.8,697.9,120.8z"/>
	<path id="XMLID_1204_" class="st3" d="M704.2,120v4.9c0,0.6,0.1,1.1,0.4,1.4c0.3,0.3,0.7,0.5,1.3,0.5c0.8,0,1.4-0.2,1.7-0.6
		c0.4-0.4,0.5-1.1,0.5-2.1V120h1.1v7.5h-0.9l-0.2-1H708c-0.2,0.4-0.6,0.7-1,0.8c-0.4,0.2-0.9,0.3-1.4,0.3c-0.9,0-1.6-0.2-2-0.6
		c-0.5-0.4-0.7-1.1-0.7-2.1V120H704.2z"/>
	<path id="XMLID_1206_" class="st3" d="M715.2,119.8c0.3,0,0.6,0,0.9,0.1l-0.2,1.1c-0.3-0.1-0.6-0.1-0.8-0.1c-0.6,0-1.1,0.2-1.6,0.7
		s-0.6,1.1-0.6,1.8v4h-1.1V120h0.9l0.1,1.4h0.1c0.3-0.5,0.6-0.9,1-1.1C714.3,120,714.7,119.8,715.2,119.8z"/>
	<path id="XMLID_1208_" class="st3" d="M720.5,127.6c-1.1,0-1.9-0.3-2.5-1s-0.9-1.6-0.9-2.8c0-1.3,0.3-2.2,0.9-2.9
		c0.6-0.7,1.5-1,2.6-1c0.4,0,0.7,0,1.1,0.1c0.4,0.1,0.6,0.2,0.8,0.3l-0.3,1c-0.3-0.1-0.5-0.2-0.8-0.2c-0.3-0.1-0.6-0.1-0.8-0.1
		c-1.5,0-2.3,1-2.3,2.9c0,0.9,0.2,1.6,0.6,2.1c0.4,0.5,0.9,0.7,1.7,0.7c0.6,0,1.3-0.1,1.9-0.4v1
		C721.9,127.5,721.2,127.6,720.5,127.6z"/>
	<path id="XMLID_1210_" class="st3" d="M729.3,127.5v-4.8c0-0.6-0.1-1.1-0.4-1.4c-0.3-0.3-0.7-0.5-1.3-0.5c-0.8,0-1.4,0.2-1.7,0.6
		s-0.5,1.1-0.5,2.1v3.9h-1.1v-10.6h1.1v3.2c0,0.4,0,0.7-0.1,1h0.1c0.2-0.4,0.5-0.6,1-0.9c0.4-0.2,0.9-0.3,1.4-0.3
		c0.9,0,1.6,0.2,2.1,0.7s0.7,1.1,0.7,2.1v4.9L729.3,127.5L729.3,127.5z"/>
	<path id="XMLID_1212_" class="st3" d="M737.3,127.5l-0.2-1.1H737c-0.4,0.5-0.7,0.8-1.1,1c-0.4,0.2-0.8,0.3-1.4,0.3
		c-0.7,0-1.3-0.2-1.7-0.6s-0.6-0.9-0.6-1.6c0-1.5,1.2-2.3,3.6-2.4h1.3v-0.5c0-0.6-0.1-1-0.4-1.3s-0.7-0.4-1.2-0.4
		c-0.6,0-1.3,0.2-2.1,0.6l-0.3-0.9c0.4-0.2,0.8-0.4,1.2-0.5s0.9-0.2,1.3-0.2c0.9,0,1.6,0.2,2,0.6s0.6,1,0.6,1.9v5.1H737.3z
		 M734.8,126.7c0.7,0,1.3-0.2,1.7-0.6s0.6-0.9,0.6-1.6v-0.7H736c-0.9,0-1.6,0.2-2,0.4c-0.4,0.2-0.6,0.6-0.6,1.2
		c0,0.4,0.1,0.7,0.4,0.9C734,126.6,734.3,126.7,734.8,126.7z"/>
	<path id="XMLID_1215_" class="st3" d="M745.4,125.4c0,0.7-0.3,1.2-0.8,1.6s-1.2,0.6-2.2,0.6s-1.8-0.2-2.3-0.5V126
		c0.4,0.2,0.7,0.3,1.2,0.4c0.4,0.1,0.8,0.2,1.2,0.2c0.6,0,1-0.1,1.4-0.3c0.3-0.2,0.5-0.5,0.5-0.9c0-0.3-0.1-0.5-0.4-0.7
		c-0.3-0.2-0.7-0.5-1.5-0.7c-0.7-0.3-1.2-0.5-1.5-0.7s-0.5-0.4-0.7-0.7s-0.2-0.5-0.2-0.9c0-0.6,0.2-1.1,0.7-1.4
		c0.5-0.4,1.2-0.5,2-0.5s1.6,0.2,2.4,0.5l-0.4,0.9c-0.8-0.3-1.4-0.5-2-0.5c-0.5,0-0.9,0.1-1.2,0.3s-0.4,0.4-0.4,0.7
		c0,0.2,0.1,0.4,0.2,0.5s0.3,0.3,0.5,0.4s0.7,0.3,1.3,0.6c0.9,0.3,1.5,0.6,1.8,1C745.2,124.5,745.4,124.9,745.4,125.4z"/>
	<path id="XMLID_1217_" class="st3" d="M750.4,127.6c-1.1,0-2-0.3-2.6-1s-1-1.6-1-2.8c0-1.2,0.3-2.2,0.9-2.9s1.4-1.1,2.4-1.1
		c0.9,0,1.7,0.3,2.2,0.9s0.8,1.4,0.8,2.4v0.7H748c0,0.9,0.2,1.5,0.7,2c0.4,0.5,1,0.7,1.8,0.7s1.6-0.2,2.4-0.5v1
		c-0.4,0.2-0.8,0.3-1.1,0.4C751.3,127.6,750.9,127.6,750.4,127.6z M750.1,120.8c-0.6,0-1.1,0.2-1.4,0.6c-0.4,0.4-0.6,0.9-0.6,1.6
		h3.9c0-0.7-0.2-1.3-0.5-1.6C751.1,121,750.7,120.8,750.1,120.8z"/>
</g>
<g id="XMLID_407_">
	<path id="XMLID_1158_" class="st3" d="M380,123c0,1.3-0.3,2.3-0.8,3.2c-0.5,0.8-1.2,1.4-2.2,1.7l2.4,2.5h-1.7l-1.9-2.3h-0.4
		c-1.5,0-2.6-0.5-3.4-1.4s-1.2-2.2-1.2-3.8c0-1.6,0.4-2.9,1.2-3.8s1.9-1.3,3.4-1.3c1.4,0,2.6,0.5,3.4,1.4S380,121.4,380,123z
		 M372.1,123c0,1.4,0.3,2.4,0.9,3.1s1.4,1,2.5,1s1.9-0.3,2.5-1s0.8-1.7,0.8-3.1c0-1.3-0.3-2.4-0.8-3.1s-1.4-1-2.5-1s-1.9,0.3-2.5,1
		S372.1,121.6,372.1,123z"/>
	<path id="XMLID_1161_" class="st3" d="M381.9,127.2c0-0.3,0.1-0.5,0.2-0.7s0.3-0.2,0.6-0.2c0.3,0,0.5,0.1,0.6,0.2s0.2,0.4,0.2,0.7
		c0,0.3-0.1,0.5-0.2,0.7c-0.2,0.2-0.4,0.2-0.6,0.2s-0.4-0.1-0.6-0.2S381.9,127.6,381.9,127.2z"/>
	<path id="XMLID_1163_" class="st3" d="M395.9,128l-1.2-3.2h-4l-1.2,3.2h-1.2l4-10h1l3.9,10H395.9z M394.3,123.7l-1.2-3.1
		c-0.2-0.4-0.3-0.9-0.5-1.4c-0.1,0.4-0.2,0.9-0.4,1.4l-1.2,3.1H394.3z"/>
	<path id="XMLID_1166_" class="st3" d="M399.6,123.8v4.2h-1.2v-10h2.7c1.2,0,2.1,0.2,2.7,0.7s0.9,1.2,0.9,2.1c0,1.3-0.7,2.2-2,2.7
		l2.7,4.5H404l-2.4-4.2C401.6,123.8,399.6,123.8,399.6,123.8z M399.6,122.8h1.6c0.8,0,1.4-0.2,1.8-0.5s0.6-0.8,0.6-1.5
		s-0.2-1.1-0.6-1.4s-1-0.4-1.9-0.4h-1.5V122.8z"/>
	<path id="XMLID_1169_" class="st3" d="M410.2,128H409v-9h-3.2v-1h7.5v1h-3.2v9H410.2z"/>
	<path id="XMLID_1171_" class="st3" d="M422.5,128h-1.2v-4.7H416v4.7h-1.2v-10h1.2v4.3h5.3V118h1.2V128z"/>
	<path id="XMLID_1173_" class="st3" d="M432.8,118v6.5c0,1.1-0.3,2-1,2.7s-1.6,1-2.8,1s-2.1-0.3-2.8-1c-0.7-0.7-1-1.6-1-2.7V118h1.2
		v6.5c0,0.8,0.2,1.5,0.7,1.9s1.1,0.7,2,0.7c0.8,0,1.5-0.2,1.9-0.7c0.5-0.4,0.7-1.1,0.7-1.9V118H432.8z"/>
	<path id="XMLID_1175_" class="st3" d="M436.6,123.8v4.2h-1.2v-10h2.7c1.2,0,2.1,0.2,2.7,0.7s0.9,1.2,0.9,2.1c0,1.3-0.7,2.2-2,2.7
		l2.7,4.5H441l-2.4-4.2C438.6,123.8,436.6,123.8,436.6,123.8z M436.6,122.8h1.6c0.8,0,1.4-0.2,1.8-0.5s0.6-0.8,0.6-1.5
		s-0.2-1.1-0.6-1.4s-1-0.4-1.9-0.4h-1.5V122.8z"/>
	<path id="XMLID_1178_" class="st3" d="M447.7,128v-10h1.2v8.9h4.4v1.1H447.7z"/>
	<path id="XMLID_1180_" class="st3" d="M458,128h-1.2v-9h-3.2v-1h7.5v1H458V128z"/>
	<path id="XMLID_1182_" class="st3" d="M470.7,122.9c0,1.6-0.4,2.9-1.3,3.8s-2.2,1.3-3.9,1.3h-2.8v-10h3.1c1.6,0,2.8,0.4,3.6,1.3
		S470.7,121.3,470.7,122.9z M469.5,122.9c0-1.3-0.3-2.3-1-2.9c-0.7-0.7-1.6-1-2.9-1h-1.7v8h1.4c1.4,0,2.4-0.3,3.1-1
		S469.5,124.3,469.5,122.9z"/>
</g>
<g id="XMLID_408_">
	<path id="XMLID_1122_" class="st3" d="M59.7,123c0,1.3-0.3,2.3-0.8,3.2c-0.5,0.8-1.2,1.4-2.2,1.7l2.4,2.5h-1.7l-1.9-2.3h-0.4
		c-1.5,0-2.6-0.5-3.4-1.3c-0.8-0.9-1.2-2.2-1.2-3.8c0-1.6,0.4-2.9,1.2-3.8s1.9-1.3,3.4-1.3c1.4,0,2.6,0.5,3.4,1.4
		S59.7,121.4,59.7,123z M51.7,123c0,1.4,0.3,2.4,0.9,3.1c0.6,0.7,1.4,1,2.5,1s1.9-0.3,2.5-1s0.8-1.7,0.8-3.1c0-1.3-0.3-2.4-0.8-3.1
		s-1.4-1-2.5-1s-1.9,0.3-2.5,1S51.7,121.6,51.7,123z"/>
	<path id="XMLID_1125_" class="st3" d="M61.6,127.2c0-0.3,0.1-0.5,0.2-0.7s0.3-0.2,0.6-0.2s0.5,0.1,0.6,0.2s0.2,0.4,0.2,0.7
		c0,0.3-0.1,0.5-0.2,0.7c-0.2,0.2-0.4,0.2-0.6,0.2c-0.2,0-0.4-0.1-0.6-0.2S61.6,127.6,61.6,127.2z"/>
	<path id="XMLID_1127_" class="st3" d="M75.6,128l-1.2-3.2h-4l-1.2,3.2H68l4-10h1l3.9,10H75.6z M74,123.7l-1.2-3.1
		c-0.2-0.4-0.3-0.9-0.5-1.4c-0.1,0.4-0.2,0.9-0.4,1.4l-1.2,3.1H74z"/>
	<path id="XMLID_1130_" class="st3" d="M79.3,123.8v4.2h-1.2v-10h2.7c1.2,0,2.1,0.2,2.7,0.7s0.9,1.2,0.9,2.1c0,1.3-0.7,2.2-2,2.7
		l2.7,4.5h-1.4l-2.4-4.2C81.3,123.8,79.3,123.8,79.3,123.8z M79.3,122.8h1.6c0.8,0,1.4-0.2,1.8-0.5s0.6-0.8,0.6-1.5
		s-0.2-1.1-0.6-1.4s-1-0.4-1.9-0.4h-1.5V122.8z"/>
	<path id="XMLID_1133_" class="st3" d="M89.9,128h-1.2v-9h-3.2v-1H93v1h-3.2L89.9,128L89.9,128z"/>
	<path id="XMLID_1135_" class="st3" d="M102.1,128H101v-4.7h-5.3v4.7h-1.2v-10h1.2v4.3h5.3V118h1.2L102.1,128L102.1,128z"/>
	<path id="XMLID_1137_" class="st3" d="M112.4,118v6.5c0,1.1-0.3,2-1,2.7s-1.6,1-2.8,1s-2.1-0.3-2.8-1c-0.7-0.7-1-1.6-1-2.7V118h1.2
		v6.5c0,0.8,0.2,1.5,0.7,1.9s1.1,0.7,2,0.7c0.8,0,1.5-0.2,1.9-0.7c0.5-0.4,0.7-1.1,0.7-1.9V118H112.4z"/>
	<path id="XMLID_1139_" class="st3" d="M116.2,123.8v4.2H115v-10h2.7c1.2,0,2.1,0.2,2.7,0.7s0.9,1.2,0.9,2.1c0,1.3-0.7,2.2-2,2.7
		l2.7,4.5h-1.4l-2.4-4.2C118.2,123.8,116.2,123.8,116.2,123.8z M116.2,122.8h1.6c0.8,0,1.4-0.2,1.8-0.5s0.6-0.8,0.6-1.5
		s-0.2-1.1-0.6-1.4s-1-0.4-1.9-0.4h-1.5V122.8z"/>
	<path id="XMLID_1142_" class="st3" d="M128.5,128h-1.2v-10h5.6v1h-4.4v3.7h4.1v1h-4.1L128.5,128L128.5,128z"/>
	<path id="XMLID_1144_" class="st3" d="M142.1,118v6.5c0,1.1-0.3,2-1,2.7s-1.6,1-2.8,1s-2.1-0.3-2.8-1s-1-1.6-1-2.7V118h1.2v6.5
		c0,0.8,0.2,1.5,0.7,1.9s1.1,0.7,2,0.7c0.8,0,1.5-0.2,1.9-0.7c0.5-0.4,0.7-1.1,0.7-1.9V118H142.1z"/>
	<path id="XMLID_1146_" class="st3" d="M152.6,128h-1.3l-5.5-8.4h-0.1c0.1,1,0.1,1.9,0.1,2.7v5.7h-1.1v-10h1.3l5.4,8.4h0.1
		c0-0.1,0-0.5-0.1-1.2s0-1.1,0-1.4V118h1.1v10H152.6z"/>
	<path id="XMLID_1148_" class="st3" d="M163.3,122.9c0,1.6-0.4,2.9-1.3,3.8c-0.9,0.9-2.2,1.3-3.9,1.3h-2.8v-10h3.1
		c1.6,0,2.8,0.4,3.6,1.3S163.3,121.3,163.3,122.9z M162.1,122.9c0-1.3-0.3-2.3-1-2.9s-1.6-1-2.9-1h-1.7v8h1.4c1.4,0,2.4-0.3,3.1-1
		S162.1,124.3,162.1,122.9z"/>
	<path id="XMLID_1151_" class="st3" d="M169.2,128v-10h1.2v8.9h4.4v1.1H169.2z"/>
	<path id="XMLID_1153_" class="st3" d="M176.5,128v-10h1.2v8.9h4.4v1.1H176.5z"/>
	<path id="XMLID_1155_" class="st3" d="M190.1,120.9c0,1-0.3,1.8-1,2.3s-1.7,0.8-3,0.8h-1.2v3.9h-1.2v-10h2.6
		C188.8,118,190.1,118.9,190.1,120.9z M184.9,123h1c1,0,1.8-0.2,2.2-0.5s0.7-0.9,0.7-1.6s-0.2-1.2-0.6-1.5s-1.1-0.5-2-0.5h-1.3
		L184.9,123L184.9,123z"/>
</g>
<g id="XMLID_412_">
	<path id="XMLID_1074_" class="st0" d="M64.2,66.1V59H65v7.1H64.2z"/>
	<path id="XMLID_1076_" class="st0" d="M70.5,66.1v-3.5c0-0.4-0.1-0.8-0.3-1s-0.5-0.3-0.9-0.3c-0.6,0-1,0.2-1.2,0.5
		s-0.4,0.8-0.4,1.5v2.8h-0.8v-5.4h0.7l0.1,0.7l0,0c0.2-0.3,0.4-0.5,0.7-0.6s0.6-0.2,1-0.2c0.6,0,1.1,0.2,1.5,0.5s0.5,0.8,0.5,1.5
		v3.5H70.5z"/>
	<path id="XMLID_1078_" class="st0" d="M74.2,66.1l-2-5.4H73l1.2,3.2c0.3,0.7,0.4,1.2,0.5,1.4l0,0c0-0.2,0.1-0.5,0.3-1.1
		s0.6-1.7,1.3-3.5h0.9l-2,5.4H74.2z"/>
	<path id="XMLID_1080_" class="st0" d="M80.3,66.2c-0.8,0-1.4-0.2-1.9-0.7s-0.7-1.2-0.7-2c0-0.9,0.2-1.5,0.6-2.1s1-0.8,1.7-0.8
		s1.2,0.2,1.6,0.7s0.6,1,0.6,1.7v0.5h-3.7c0,0.6,0.2,1.1,0.5,1.4s0.7,0.5,1.3,0.5c0.6,0,1.1-0.1,1.7-0.4v0.7
		c-0.3,0.1-0.6,0.2-0.8,0.3S80.7,66.2,80.3,66.2z M80.1,61.3c-0.4,0-0.8,0.1-1,0.4s-0.4,0.7-0.5,1.2h2.8c0-0.5-0.1-0.9-0.3-1.2
		S80.5,61.3,80.1,61.3z"/>
	<path id="XMLID_1083_" class="st0" d="M87.1,64.6c0,0.5-0.2,0.9-0.6,1.2s-0.9,0.4-1.6,0.4s-1.3-0.1-1.7-0.3v-0.8
		c0.3,0.1,0.5,0.2,0.8,0.3s0.6,0.1,0.9,0.1c0.4,0,0.7-0.1,1-0.2s0.3-0.3,0.3-0.6c0-0.2-0.1-0.4-0.3-0.5s-0.5-0.3-1.1-0.5
		c-0.5-0.2-0.9-0.3-1.1-0.5s-0.4-0.3-0.5-0.5S83,62.3,83,62.1c0-0.4,0.2-0.8,0.5-1s0.8-0.4,1.5-0.4c0.6,0,1.1,0.1,1.7,0.4l-0.3,0.7
		c-0.5-0.2-1-0.3-1.5-0.3c-0.4,0-0.7,0.1-0.9,0.2s-0.3,0.3-0.3,0.5c0,0.1,0,0.3,0.1,0.4s0.2,0.2,0.4,0.3s0.5,0.2,0.9,0.4
		c0.6,0.2,1.1,0.5,1.3,0.7S87.1,64.2,87.1,64.6z"/>
	<path id="XMLID_1085_" class="st0" d="M90.1,65.5c0.1,0,0.3,0,0.4,0s0.2,0,0.3-0.1V66c-0.1,0-0.2,0.1-0.4,0.1s-0.3,0-0.5,0
		c-1,0-1.6-0.5-1.6-1.6v-3.2h-0.8V61l0.8-0.3l0.3-1.1h0.5v1.2h1.6v0.6h-1.6v3.1c0,0.3,0.1,0.6,0.2,0.7S89.9,65.5,90.1,65.5z"/>
	<path id="XMLID_1087_" class="st0" d="M98.8,66.1v-3.5c0-0.4-0.1-0.7-0.3-1s-0.5-0.3-0.8-0.3c-0.5,0-0.9,0.1-1.1,0.4
		s-0.4,0.7-0.4,1.3v3h-0.8v-3.5c0-0.4-0.1-0.7-0.3-1s-0.5-0.3-0.9-0.3c-0.5,0-0.9,0.2-1.1,0.5s-0.4,0.8-0.4,1.5V66h-0.8v-5.4h0.7
		l0.1,0.7l0,0c0.2-0.3,0.4-0.5,0.6-0.6s0.6-0.2,0.9-0.2c0.8,0,1.4,0.3,1.6,0.9l0,0c0.2-0.3,0.4-0.5,0.7-0.7s0.6-0.2,1-0.2
		c0.6,0,1.1,0.2,1.4,0.5s0.5,0.8,0.5,1.5V66L98.8,66.1L98.8,66.1z"/>
	<path id="XMLID_1089_" class="st0" d="M103.5,66.2c-0.8,0-1.4-0.2-1.9-0.7s-0.7-1.2-0.7-2c0-0.9,0.2-1.5,0.6-2.1s1-0.8,1.7-0.8
		s1.2,0.2,1.6,0.7s0.6,1,0.6,1.7v0.5h-3.7c0,0.6,0.2,1.1,0.5,1.4s0.7,0.5,1.3,0.5c0.6,0,1.1-0.1,1.7-0.4v0.7
		c-0.3,0.1-0.6,0.2-0.8,0.3S103.9,66.2,103.5,66.2z M103.3,61.3c-0.4,0-0.8,0.1-1,0.4s-0.4,0.7-0.5,1.2h2.8c0-0.5-0.1-0.9-0.3-1.2
		S103.7,61.3,103.3,61.3z"/>
	<path id="XMLID_1092_" class="st0" d="M110.5,66.1v-3.5c0-0.4-0.1-0.8-0.3-1s-0.5-0.3-0.9-0.3c-0.6,0-1,0.2-1.2,0.5
		s-0.4,0.8-0.4,1.5v2.8h-0.8v-5.4h0.7l0.1,0.7l0,0c0.2-0.3,0.4-0.5,0.7-0.6s0.6-0.2,1-0.2c0.6,0,1.1,0.2,1.5,0.5s0.5,0.8,0.5,1.5
		v3.5H110.5z"/>
	<path id="XMLID_1094_" class="st0" d="M114.7,65.5c0.1,0,0.3,0,0.4,0s0.2,0,0.3-0.1V66c-0.1,0-0.2,0.1-0.4,0.1s-0.3,0-0.5,0
		c-1,0-1.6-0.5-1.6-1.6v-3.2h-0.8V61l0.8-0.3l0.3-1.1h0.5v1.2h1.6v0.6h-1.6v3.1c0,0.3,0.1,0.6,0.2,0.7S114.5,65.5,114.7,65.5z"/>
	<path id="XMLID_1096_" class="st0" d="M125.9,66.1v-3.5c0-0.4-0.1-0.7-0.3-1s-0.5-0.3-0.8-0.3c-0.5,0-0.9,0.1-1.1,0.4
		s-0.4,0.7-0.4,1.3v3h-0.8v-3.5c0-0.4-0.1-0.7-0.3-1s-0.5-0.3-0.9-0.3c-0.5,0-0.9,0.2-1.1,0.5s-0.4,0.8-0.4,1.5V66H119v-5.4h0.7
		l0.1,0.7l0,0c0.2-0.3,0.4-0.5,0.6-0.6s0.6-0.2,0.9-0.2c0.8,0,1.4,0.3,1.6,0.9l0,0c0.2-0.3,0.4-0.5,0.7-0.7s0.6-0.2,1-0.2
		c0.6,0,1.1,0.2,1.4,0.5s0.5,0.8,0.5,1.5V66L125.9,66.1L125.9,66.1z"/>
	<path id="XMLID_1098_" class="st0" d="M131.7,66.1l-0.2-0.8l0,0c-0.3,0.3-0.5,0.6-0.8,0.7s-0.6,0.2-1,0.2c-0.5,0-0.9-0.1-1.2-0.4
		s-0.5-0.7-0.5-1.2c0-1.1,0.9-1.6,2.6-1.7h0.9v-0.3c0-0.4-0.1-0.7-0.3-0.9s-0.5-0.3-0.9-0.3s-1,0.1-1.5,0.4l-0.2-0.6
		c0.3-0.1,0.6-0.3,0.9-0.3s0.6-0.1,0.9-0.1c0.6,0,1.1,0.1,1.4,0.4s0.5,0.7,0.5,1.4v3.7h-0.6V66.1z M129.9,65.5
		c0.5,0,0.9-0.1,1.2-0.4s0.4-0.7,0.4-1.2v-0.5h-0.8c-0.6,0-1.1,0.1-1.4,0.3s-0.4,0.5-0.4,0.8s0.1,0.5,0.3,0.7S129.6,65.5,129.9,65.5
		z"/>
	<path id="XMLID_1101_" class="st0" d="M137.6,66.1v-3.5c0-0.4-0.1-0.8-0.3-1s-0.5-0.3-0.9-0.3c-0.6,0-1,0.2-1.2,0.5
		s-0.4,0.8-0.4,1.5v2.8H134v-5.4h0.7l0.1,0.7l0,0c0.2-0.3,0.4-0.5,0.7-0.6s0.6-0.2,1-0.2c0.6,0,1.1,0.2,1.5,0.5s0.5,0.8,0.5,1.5v3.5
		H137.6z"/>
	<path id="XMLID_1103_" class="st0" d="M143.4,66.1l-0.2-0.8l0,0c-0.3,0.3-0.5,0.6-0.8,0.7s-0.6,0.2-1,0.2c-0.5,0-0.9-0.1-1.2-0.4
		s-0.5-0.7-0.5-1.2c0-1.1,0.9-1.6,2.6-1.7h0.9v-0.3c0-0.4-0.1-0.7-0.3-0.9s-0.5-0.3-0.9-0.3s-1,0.1-1.5,0.4l-0.2-0.6
		c0.3-0.1,0.6-0.3,0.9-0.3s0.6-0.1,0.9-0.1c0.6,0,1.1,0.1,1.4,0.4s0.5,0.7,0.5,1.4v3.7h-0.6V66.1z M141.6,65.5
		c0.5,0,0.9-0.1,1.2-0.4s0.4-0.7,0.4-1.2v-0.5h-0.8c-0.6,0-1.1,0.1-1.4,0.3s-0.4,0.5-0.4,0.8s0.1,0.5,0.3,0.7S141.3,65.5,141.6,65.5
		z"/>
	<path id="XMLID_1106_" class="st0" d="M150.1,60.7v0.5l-1,0.1c0.1,0.1,0.2,0.3,0.2,0.4s0.1,0.4,0.1,0.6c0,0.5-0.2,0.9-0.5,1.3
		s-0.8,0.5-1.5,0.5c-0.2,0-0.3,0-0.4,0c-0.3,0.2-0.5,0.4-0.5,0.7c0,0.1,0.1,0.3,0.2,0.3s0.3,0.1,0.6,0.1h0.9c0.6,0,1,0.1,1.3,0.4
		s0.5,0.6,0.5,1.1c0,0.6-0.2,1-0.7,1.4s-1.2,0.5-2.1,0.5c-0.7,0-1.2-0.1-1.6-0.4S145,67.4,145,67c0-0.3,0.1-0.6,0.3-0.8
		s0.5-0.4,0.9-0.5c-0.1-0.1-0.3-0.2-0.3-0.3s-0.1-0.3-0.1-0.5s0.1-0.4,0.2-0.5s0.3-0.3,0.5-0.4c-0.3-0.1-0.5-0.3-0.7-0.6
		s-0.3-0.6-0.3-0.9c0-0.6,0.2-1,0.5-1.4s0.8-0.5,1.5-0.5c0.3,0,0.5,0,0.8,0.1L150.1,60.7L150.1,60.7z M145.8,67
		c0,0.3,0.1,0.5,0.4,0.7s0.6,0.2,1,0.2c0.7,0,1.2-0.1,1.5-0.3s0.5-0.5,0.5-0.8s-0.1-0.5-0.3-0.6s-0.5-0.2-1-0.2h-1
		c-0.4,0-0.7,0.1-0.9,0.3S145.8,66.6,145.8,67z M146.2,62.4c0,0.4,0.1,0.7,0.3,0.8s0.5,0.3,0.9,0.3c0.8,0,1.2-0.4,1.2-1.2
		s-0.4-1.2-1.2-1.2c-0.4,0-0.7,0.1-0.9,0.3S146.2,62,146.2,62.4z"/>
	<path id="XMLID_1110_" class="st0" d="M153.4,66.2c-0.8,0-1.4-0.2-1.9-0.7s-0.7-1.2-0.7-2c0-0.9,0.2-1.5,0.6-2.1s1-0.8,1.7-0.8
		s1.2,0.2,1.6,0.7s0.6,1,0.6,1.7v0.5h-3.7c0,0.6,0.2,1.1,0.5,1.4s0.7,0.5,1.3,0.5s1.1-0.1,1.7-0.4v0.7c-0.3,0.1-0.6,0.2-0.8,0.3
		S153.8,66.2,153.4,66.2z M153.2,61.3c-0.4,0-0.8,0.1-1,0.4s-0.4,0.7-0.5,1.2h2.8c0-0.5-0.1-0.9-0.3-1.2S153.6,61.3,153.2,61.3z"/>
	<path id="XMLID_1113_" class="st0" d="M163.6,66.1v-3.5c0-0.4-0.1-0.7-0.3-1s-0.5-0.3-0.8-0.3c-0.5,0-0.9,0.1-1.1,0.4
		S161,62.4,161,63v3h-0.8v-3.5c0-0.4-0.1-0.7-0.3-1s-0.5-0.3-0.9-0.3c-0.5,0-0.9,0.2-1.1,0.5s-0.4,0.8-0.4,1.5V66h-0.8v-5.4h0.7
		l0.1,0.7l0,0c0.2-0.3,0.4-0.5,0.6-0.6s0.6-0.2,0.9-0.2c0.8,0,1.4,0.3,1.6,0.9l0,0c0.2-0.3,0.4-0.5,0.7-0.7s0.6-0.2,1-0.2
		c0.6,0,1.1,0.2,1.4,0.5s0.5,0.8,0.5,1.5V66L163.6,66.1L163.6,66.1z"/>
	<path id="XMLID_1115_" class="st0" d="M168.3,66.2c-0.8,0-1.4-0.2-1.9-0.7s-0.7-1.2-0.7-2c0-0.9,0.2-1.5,0.6-2.1s1-0.8,1.7-0.8
		s1.2,0.2,1.6,0.7s0.6,1,0.6,1.7v0.5h-3.7c0,0.6,0.2,1.1,0.5,1.4s0.7,0.5,1.3,0.5s1.1-0.1,1.7-0.4v0.7c-0.3,0.1-0.6,0.2-0.8,0.3
		S168.7,66.2,168.3,66.2z M168.1,61.3c-0.4,0-0.8,0.1-1,0.4s-0.4,0.7-0.5,1.2h2.8c0-0.5-0.1-0.9-0.3-1.2S168.5,61.3,168.1,61.3z"/>
	<path id="XMLID_1118_" class="st0" d="M175.3,66.1v-3.5c0-0.4-0.1-0.8-0.3-1s-0.5-0.3-0.9-0.3c-0.6,0-1,0.2-1.2,0.5
		s-0.4,0.8-0.4,1.5v2.8h-0.8v-5.4h0.7l0.1,0.7l0,0c0.2-0.3,0.4-0.5,0.7-0.6s0.6-0.2,1-0.2c0.6,0,1.1,0.2,1.5,0.5s0.5,0.8,0.5,1.5
		v3.5H175.3z"/>
	<path id="XMLID_1120_" class="st0" d="M179.6,65.5c0.1,0,0.3,0,0.4,0s0.2,0,0.3-0.1V66c-0.1,0-0.2,0.1-0.4,0.1s-0.3,0-0.5,0
		c-1,0-1.6-0.5-1.6-1.6v-3.2H177V61l0.8-0.3l0.3-1.1h0.5v1.2h1.6v0.6h-1.6v3.1c0,0.3,0.1,0.6,0.2,0.7S179.3,65.5,179.6,65.5z"/>
</g>
<g id="XMLID_417_">
	<path id="XMLID_970_" class="st1" d="M222.5,140.8c-1,0-1.7,0.7-1.9,2h2.5v0.6h-2.6v0.3v0.3v0.2h2.3v0.6h-2.2
		c0.1,0.6,0.3,1,0.7,1.4c0.3,0.3,0.8,0.5,1.3,0.5s1-0.1,1.5-0.3v0.7c-0.5,0.2-1,0.3-1.5,0.3c-0.8,0-1.4-0.2-1.9-0.7
		c-0.5-0.4-0.8-1.1-0.9-1.9H219v-0.6h0.7V144v-0.2v-0.4H219v-0.6h0.8c0.1-0.8,0.4-1.5,0.9-2s1.1-0.7,1.9-0.7c0.7,0,1.3,0.2,1.8,0.5
		l-0.3,0.7C223.4,140.9,222.9,140.8,222.5,140.8z"/>
	<path id="XMLID_972_" class="st1" d="M228.4,140.8c-1,0-1.7,0.7-1.9,2h2.5v0.6h-2.6v0.3v0.3v0.2h2.3v0.6h-2.2
		c0.1,0.6,0.3,1,0.7,1.4c0.3,0.3,0.8,0.5,1.3,0.5s1-0.1,1.5-0.3v0.7c-0.5,0.2-1,0.3-1.5,0.3c-0.8,0-1.4-0.2-1.9-0.7
		c-0.5-0.4-0.8-1.1-0.9-1.9h-0.8v-0.6h0.7V144v-0.2v-0.4h-0.7v-0.6h0.8c0.1-0.8,0.4-1.5,0.9-2s1.1-0.7,1.9-0.7
		c0.7,0,1.3,0.2,1.8,0.5l-0.3,0.7C229.3,140.9,228.8,140.8,228.4,140.8z"/>
	<path id="XMLID_974_" class="st1" d="M234.3,140.8c-1,0-1.7,0.7-1.9,2h2.5v0.6h-2.6v0.3v0.3v0.2h2.3v0.6h-2.2
		c0.1,0.6,0.3,1,0.7,1.4c0.3,0.3,0.8,0.5,1.3,0.5s1-0.1,1.5-0.3v0.7c-0.5,0.2-1,0.3-1.5,0.3c-0.8,0-1.4-0.2-1.9-0.7
		c-0.5-0.4-0.8-1.1-0.9-1.9h-0.8v-0.6h0.7V144v-0.2v-0.4h-0.7v-0.6h0.8c0.1-0.8,0.4-1.5,0.9-2s1.1-0.7,1.9-0.7
		c0.7,0,1.3,0.2,1.8,0.5l-0.3,0.7C235.2,140.9,234.7,140.8,234.3,140.8z"/>
	<path id="XMLID_976_" class="st1" d="M246.1,143.7c0,0.9-0.2,1.7-0.6,2.3s-0.9,1-1.6,1.2l1.7,1.8h-1.2l-1.4-1.6h-0.3
		c-1.1,0-1.9-0.3-2.4-1c-0.6-0.6-0.9-1.5-0.9-2.7s0.3-2.1,0.9-2.7s1.4-1,2.4-1s1.8,0.3,2.4,1C245.8,141.7,246.1,142.6,246.1,143.7z
		 M240.4,143.7c0,1,0.2,1.7,0.6,2.2c0.4,0.5,1,0.8,1.8,0.8s1.4-0.2,1.8-0.7s0.6-1.2,0.6-2.2s-0.2-1.7-0.6-2.2
		c-0.4-0.5-1-0.7-1.8-0.7s-1.4,0.3-1.8,0.7C240.6,142,240.4,142.8,240.4,143.7z"/>
	<path id="XMLID_979_" class="st1" d="M248.3,142v3.5c0,0.4,0.1,0.8,0.3,1s0.5,0.3,0.9,0.3c0.6,0,1-0.2,1.2-0.5
		c0.3-0.3,0.4-0.8,0.4-1.5V142h0.8v5.4h-0.7l-0.1-0.7l0,0c-0.2,0.3-0.4,0.5-0.7,0.6s-0.6,0.2-1,0.2c-0.7,0-1.1-0.2-1.5-0.5
		c-0.3-0.3-0.5-0.8-0.5-1.5V142H248.3z"/>
	<path id="XMLID_981_" class="st1" d="M257,147.3l-0.2-0.8l0,0c-0.3,0.3-0.5,0.6-0.8,0.7c-0.3,0.1-0.6,0.2-1,0.2
		c-0.5,0-0.9-0.1-1.2-0.4s-0.5-0.7-0.5-1.2c0-1.1,0.9-1.6,2.6-1.7h0.9v-0.3c0-0.4-0.1-0.7-0.3-0.9s-0.5-0.3-0.9-0.3s-1,0.1-1.5,0.4
		l-0.2-0.6c0.3-0.1,0.6-0.3,0.9-0.3c0.3-0.1,0.6-0.1,0.9-0.1c0.6,0,1.1,0.1,1.4,0.4s0.5,0.7,0.5,1.4v3.7H257V147.3z M255.2,146.7
		c0.5,0,0.9-0.1,1.2-0.4c0.3-0.3,0.4-0.7,0.4-1.2v-0.5H256c-0.6,0-1.1,0.1-1.4,0.3c-0.3,0.2-0.4,0.5-0.4,0.8s0.1,0.5,0.3,0.7
		C254.6,146.7,254.9,146.7,255.2,146.7z"/>
	<path id="XMLID_984_" class="st1" d="M261.7,141.9c0.2,0,0.5,0,0.6,0.1l-0.1,0.8c-0.2,0-0.4-0.1-0.6-0.1c-0.4,0-0.8,0.2-1.1,0.5
		s-0.5,0.8-0.5,1.3v2.9h-0.8V142h0.7l0.1,1l0,0c0.2-0.3,0.4-0.6,0.7-0.8C261.1,142,261.4,141.9,261.7,141.9z"/>
	<path id="XMLID_986_" class="st1" d="M265.1,146.7c0.1,0,0.3,0,0.4,0s0.2,0,0.3-0.1v0.6c-0.1,0-0.2,0.1-0.4,0.1c-0.2,0-0.3,0-0.5,0
		c-1,0-1.6-0.5-1.6-1.6v-3.2h-0.8v-0.4l0.8-0.3l0.3-1.1h0.5v1.2h1.6v0.6h-1.6v3.1c0,0.3,0.1,0.6,0.2,0.7
		C264.6,146.6,264.8,146.7,265.1,146.7z"/>
	<path id="XMLID_988_" class="st1" d="M269.2,147.4c-0.8,0-1.4-0.2-1.9-0.7s-0.7-1.2-0.7-2c0-0.9,0.2-1.5,0.6-2.1s1-0.8,1.7-0.8
		s1.2,0.2,1.6,0.7c0.4,0.4,0.6,1,0.6,1.7v0.5h-3.7c0,0.6,0.2,1.1,0.5,1.4c0.3,0.3,0.7,0.5,1.3,0.5c0.6,0,1.1-0.1,1.7-0.4v0.7
		c-0.3,0.1-0.6,0.2-0.8,0.3S269.5,147.4,269.2,147.4z M268.9,142.5c-0.4,0-0.8,0.1-1,0.4c-0.3,0.3-0.4,0.7-0.5,1.2h2.8
		c0-0.5-0.1-0.9-0.3-1.2C269.7,142.7,269.4,142.5,268.9,142.5z"/>
	<path id="XMLID_991_" class="st1" d="M274.9,141.9c0.2,0,0.5,0,0.6,0.1l-0.1,0.8c-0.2,0-0.4-0.1-0.6-0.1c-0.4,0-0.8,0.2-1.1,0.5
		s-0.5,0.8-0.5,1.3v2.9h-0.8V142h0.7l0.1,1l0,0c0.2-0.3,0.4-0.6,0.7-0.8C274.3,142,274.6,141.9,274.9,141.9z"/>
	<path id="XMLID_993_" class="st1" d="M277.4,147.3h-0.8v-7.6h0.8V147.3z"/>
	<path id="XMLID_995_" class="st1" d="M278.3,142h0.9l1.2,3.1c0.3,0.7,0.4,1.2,0.5,1.5l0,0c0-0.2,0.1-0.5,0.3-0.9
		c0.1-0.4,0.6-1.6,1.3-3.7h0.9l-2.4,6c-0.2,0.6-0.5,1-0.8,1.3s-0.7,0.4-1.1,0.4c-0.2,0-0.5,0-0.7-0.1V149c0.2,0,0.4,0.1,0.6,0.1
		c0.6,0,1-0.3,1.2-0.9l0.3-0.8L278.3,142z"/>
	<path id="XMLID_997_" class="st1" d="M290.4,146.6L290.4,146.6c-0.4,0.5-1,0.8-1.7,0.8s-1.2-0.2-1.6-0.7s-0.6-1.2-0.6-2
		c0-0.9,0.2-1.6,0.6-2.1s0.9-0.7,1.6-0.7s1.3,0.3,1.7,0.8h0.1v-0.4v-0.4v-2.2h0.8v7.6h-0.7L290.4,146.6z M288.8,146.7
		c0.6,0,1-0.2,1.2-0.5s0.4-0.8,0.4-1.5v-0.2c0-0.8-0.1-1.3-0.4-1.6s-0.7-0.5-1.2-0.5s-0.8,0.2-1.1,0.6c-0.3,0.4-0.4,0.9-0.4,1.6
		c0,0.7,0.1,1.2,0.4,1.5C287.9,146.6,288.3,146.7,288.8,146.7z"/>
	<path id="XMLID_1000_" class="st1" d="M292.8,140.5c0-0.2,0-0.3,0.1-0.4c0.1-0.1,0.2-0.1,0.3-0.1c0.1,0,0.2,0,0.3,0.1
		s0.1,0.2,0.1,0.4s0,0.3-0.1,0.4c-0.1,0.1-0.2,0.1-0.3,0.1c-0.1,0-0.3,0-0.3-0.1C292.9,140.8,292.8,140.7,292.8,140.5z M293.7,147.3
		h-0.8V142h0.8V147.3z"/>
	<path id="XMLID_1003_" class="st1" d="M296.6,147.3l-2-5.4h0.9l1.2,3.2c0.3,0.7,0.4,1.2,0.5,1.4l0,0c0-0.2,0.1-0.5,0.3-1.1
		s0.6-1.7,1.3-3.5h0.9l-2,5.4L296.6,147.3L296.6,147.3z"/>
	<path id="XMLID_1005_" class="st1" d="M300.4,140.5c0-0.2,0-0.3,0.1-0.4c0.1-0.1,0.2-0.1,0.3-0.1c0.1,0,0.2,0,0.3,0.1
		s0.1,0.2,0.1,0.4s0,0.3-0.1,0.4c-0.1,0.1-0.2,0.1-0.3,0.1c-0.1,0-0.3,0-0.3-0.1C300.4,140.8,300.4,140.7,300.4,140.5z M301.2,147.3
		h-0.8V142h0.8V147.3z"/>
	<path id="XMLID_1008_" class="st1" d="M306.6,146.6L306.6,146.6c-0.4,0.5-1,0.8-1.7,0.8s-1.2-0.2-1.6-0.7s-0.6-1.2-0.6-2
		c0-0.9,0.2-1.6,0.6-2.1s0.9-0.7,1.6-0.7s1.3,0.3,1.7,0.8h0.1v-0.4v-0.4v-2.2h0.8v7.6h-0.7L306.6,146.6z M305,146.7
		c0.6,0,1-0.2,1.2-0.5s0.4-0.8,0.4-1.5v-0.2c0-0.8-0.1-1.3-0.4-1.6s-0.7-0.5-1.2-0.5s-0.8,0.2-1.1,0.6c-0.3,0.4-0.4,0.9-0.4,1.6
		c0,0.7,0.1,1.2,0.4,1.5C304.1,146.6,304.5,146.7,305,146.7z"/>
	<path id="XMLID_1011_" class="st1" d="M311.3,147.4c-0.8,0-1.4-0.2-1.9-0.7s-0.7-1.2-0.7-2c0-0.9,0.2-1.5,0.6-2.1s1-0.8,1.7-0.8
		s1.2,0.2,1.6,0.7c0.4,0.4,0.6,1,0.6,1.7v0.5h-3.7c0,0.6,0.2,1.1,0.5,1.4c0.3,0.3,0.7,0.5,1.3,0.5c0.6,0,1.1-0.1,1.7-0.4v0.7
		c-0.3,0.1-0.6,0.2-0.8,0.3S311.7,147.4,311.3,147.4z M311.1,142.5c-0.4,0-0.8,0.1-1,0.4c-0.3,0.3-0.4,0.7-0.5,1.2h2.8
		c0-0.5-0.1-0.9-0.3-1.2C311.9,142.7,311.5,142.5,311.1,142.5z"/>
	<path id="XMLID_1014_" class="st1" d="M318.3,147.3v-3.5c0-0.4-0.1-0.8-0.3-1s-0.5-0.3-0.9-0.3c-0.6,0-1,0.2-1.2,0.5
		s-0.4,0.8-0.4,1.5v2.8h-0.8V142h0.7l0.1,0.7l0,0c0.2-0.3,0.4-0.5,0.7-0.6c0.3-0.1,0.6-0.2,1-0.2c0.6,0,1.1,0.2,1.5,0.5
		c0.3,0.3,0.5,0.8,0.5,1.5v3.5L318.3,147.3L318.3,147.3z"/>
	<path id="XMLID_1016_" class="st1" d="M324.5,146.6L324.5,146.6c-0.4,0.5-1,0.8-1.7,0.8s-1.2-0.2-1.6-0.7s-0.6-1.2-0.6-2
		c0-0.9,0.2-1.6,0.6-2.1s0.9-0.7,1.6-0.7s1.3,0.3,1.7,0.8h0.1v-0.4v-0.4v-2.2h0.8v7.6h-0.7L324.5,146.6z M322.8,146.7
		c0.6,0,1-0.2,1.2-0.5s0.4-0.8,0.4-1.5v-0.2c0-0.8-0.1-1.3-0.4-1.6s-0.7-0.5-1.2-0.5s-0.8,0.2-1.1,0.6c-0.3,0.4-0.4,0.9-0.4,1.6
		c0,0.7,0.1,1.2,0.4,1.5C322,146.6,322.4,146.7,322.8,146.7z"/>
</g>
<g id="XMLID_419_">
	<path id="XMLID_876_" class="st1" d="M502,143.4c0,0.9-0.2,1.7-0.6,2.3s-0.9,1-1.6,1.2l1.7,1.8h-1.2l-1.4-1.6h-0.3
		c-1.1,0-1.9-0.3-2.4-1c-0.6-0.6-0.9-1.5-0.9-2.7s0.3-2.1,0.9-2.7c0.6-0.6,1.4-1,2.4-1s1.8,0.3,2.4,1S502,142.3,502,143.4z
		 M496.3,143.4c0,1,0.2,1.7,0.6,2.2s1,0.7,1.8,0.7s1.4-0.2,1.8-0.7s0.6-1.2,0.6-2.2s-0.2-1.7-0.6-2.2s-1-0.7-1.8-0.7
		s-1.4,0.3-1.8,0.7C496.5,141.7,496.3,142.5,496.3,143.4z"/>
	<path id="XMLID_879_" class="st1" d="M503.3,146.5c0-0.2,0-0.4,0.1-0.5s0.2-0.2,0.4-0.2c0.2,0,0.3,0.1,0.4,0.2
		c0.1,0.1,0.2,0.3,0.2,0.5s-0.1,0.4-0.2,0.5s-0.3,0.2-0.4,0.2c-0.2,0-0.3-0.1-0.4-0.2C503.4,146.9,503.3,146.7,503.3,146.5z"/>
	<path id="XMLID_881_" class="st1" d="M510.7,147l-0.9-2.3H507l-0.9,2.3h-0.8l2.8-7.2h0.7l2.8,7.2H510.7z M509.6,144l-0.8-2.2
		c-0.1-0.3-0.2-0.6-0.3-1c-0.1,0.3-0.2,0.7-0.3,1l-0.8,2.2H509.6z"/>
	<path id="XMLID_884_" class="st1" d="M513.4,144v3h-0.8v-7.1h2c0.9,0,1.5,0.2,1.9,0.5s0.6,0.8,0.6,1.5c0,0.9-0.5,1.6-1.4,1.9
		l1.9,3.2h-1l-1.7-3L513.4,144L513.4,144z M513.4,143.3h1.1c0.6,0,1-0.1,1.3-0.3s0.4-0.6,0.4-1c0-0.5-0.1-0.8-0.4-1
		c-0.3-0.2-0.7-0.3-1.3-0.3h-1.1V143.3z"/>
	<path id="XMLID_887_" class="st1" d="M520.9,147h-0.8v-6.4h-2.3v-0.7h5.4v0.7h-2.3L520.9,147L520.9,147z"/>
	<path id="XMLID_889_" class="st1" d="M529.7,147h-0.8v-3.4h-3.8v3.4h-0.8v-7.1h0.8v3h3.8v-3h0.8V147z"/>
	<path id="XMLID_891_" class="st1" d="M537,139.9v4.6c0,0.8-0.2,1.5-0.7,1.9s-1.2,0.7-2,0.7s-1.5-0.2-2-0.7s-0.7-1.1-0.7-1.9v-4.6
		h0.8v4.7c0,0.6,0.2,1.1,0.5,1.4s0.8,0.5,1.4,0.5c0.6,0,1.1-0.2,1.4-0.5c0.3-0.3,0.5-0.8,0.5-1.4V140L537,139.9L537,139.9z"/>
	<path id="XMLID_893_" class="st1" d="M539.8,144v3H539v-7.1h2c0.9,0,1.5,0.2,1.9,0.5s0.6,0.8,0.6,1.5c0,0.9-0.5,1.6-1.4,1.9
		l1.9,3.2h-1l-1.7-3L539.8,144L539.8,144z M539.8,143.3h1.1c0.6,0,1-0.1,1.3-0.3s0.4-0.6,0.4-1c0-0.5-0.1-0.8-0.4-1
		c-0.3-0.2-0.7-0.3-1.3-0.3h-1.1V143.3z"/>
	<path id="XMLID_896_" class="st1" d="M549.1,147h-4v-7.1h4v0.7H546v2.3h3v0.7h-3v2.6h3.1V147z"/>
	<path id="XMLID_898_" class="st1" d="M553.3,147v-7.1h0.8v6.4h3.1v0.8L553.3,147L553.3,147z"/>
	<path id="XMLID_900_" class="st1" d="M560.7,147h-0.8v-6.4h-2.3v-0.7h5.4v0.7h-2.3L560.7,147L560.7,147z"/>
	<path id="XMLID_902_" class="st1" d="M569.7,143.4c0,1.2-0.3,2.1-1,2.7c-0.6,0.6-1.6,0.9-2.8,0.9h-2v-7.1h2.2c1.1,0,2,0.3,2.6,0.9
		S569.7,142.3,569.7,143.4z M568.8,143.4c0-0.9-0.2-1.6-0.7-2.1s-1.2-0.7-2.1-0.7h-1.2v5.7h1c1,0,1.7-0.2,2.2-0.7
		C568.6,145.1,568.8,144.3,568.8,143.4z"/>
	<path id="XMLID_905_" class="st1" d="M575.9,147.1c-0.8,0-1.4-0.2-1.8-0.7c-0.4-0.5-0.6-1.2-0.6-2c0-0.9,0.2-1.6,0.6-2.1
		c0.4-0.5,1-0.7,1.8-0.7c0.3,0,0.5,0,0.8,0.1s0.5,0.1,0.6,0.2l-0.2,0.7c-0.2-0.1-0.4-0.1-0.6-0.2c-0.2,0-0.4-0.1-0.6-0.1
		c-1.1,0-1.6,0.7-1.6,2.1c0,0.7,0.1,1.2,0.4,1.5c0.3,0.4,0.7,0.5,1.2,0.5c0.4,0,0.9-0.1,1.4-0.3v0.7
		C576.9,147,576.4,147.1,575.9,147.1z"/>
	<path id="XMLID_907_" class="st1" d="M582.2,147v-3.5c0-0.4-0.1-0.8-0.3-1s-0.5-0.3-0.9-0.3c-0.6,0-1,0.2-1.2,0.5
		c-0.3,0.3-0.4,0.8-0.4,1.5v2.8h-0.8v-7.6h0.8v2.3c0,0.3,0,0.5,0,0.7l0,0c0.2-0.3,0.4-0.5,0.7-0.6s0.6-0.2,1-0.2
		c0.7,0,1.1,0.2,1.5,0.5c0.3,0.3,0.5,0.8,0.5,1.5v3.5L582.2,147L582.2,147z"/>
	<path id="XMLID_909_" class="st1" d="M587.9,147l-0.2-0.8l0,0c-0.3,0.3-0.5,0.6-0.8,0.7c-0.3,0.1-0.6,0.2-1,0.2
		c-0.5,0-0.9-0.1-1.2-0.4c-0.3-0.3-0.5-0.7-0.5-1.2c0-1.1,0.9-1.6,2.6-1.7h0.9v-0.3c0-0.4-0.1-0.7-0.3-0.9s-0.5-0.3-0.9-0.3
		s-1,0.1-1.5,0.4l-0.2-0.6c0.3-0.1,0.6-0.3,0.9-0.3c0.3-0.1,0.6-0.1,0.9-0.1c0.6,0,1.1,0.1,1.4,0.4c0.3,0.3,0.5,0.7,0.5,1.4v3.7
		h-0.6V147z M586.1,146.4c0.5,0,0.9-0.1,1.2-0.4c0.3-0.3,0.4-0.7,0.4-1.2v-0.5h-0.8c-0.6,0-1.1,0.1-1.4,0.3
		c-0.3,0.2-0.4,0.5-0.4,0.8s0.1,0.5,0.3,0.7C585.5,146.3,585.8,146.4,586.1,146.4z"/>
	<path id="XMLID_912_" class="st1" d="M592.7,141.5c0.2,0,0.5,0,0.6,0.1l-0.1,0.8c-0.2,0-0.4-0.1-0.6-0.1c-0.4,0-0.8,0.2-1.1,0.5
		c-0.3,0.4-0.5,0.8-0.5,1.3v2.9h-0.8v-5.4h0.7l0.1,1l0,0c0.2-0.3,0.4-0.6,0.7-0.8S592.3,141.5,592.7,141.5z"/>
	<path id="XMLID_914_" class="st1" d="M598.7,141.6v0.5l-1,0.1c0.1,0.1,0.2,0.3,0.2,0.4c0.1,0.2,0.1,0.4,0.1,0.6
		c0,0.5-0.2,0.9-0.5,1.3s-0.8,0.5-1.5,0.5c-0.2,0-0.3,0-0.4,0c-0.3,0.2-0.5,0.4-0.5,0.7c0,0.1,0.1,0.3,0.2,0.3
		c0.1,0.1,0.3,0.1,0.6,0.1h0.9c0.6,0,1,0.1,1.3,0.4c0.3,0.2,0.5,0.6,0.5,1.1c0,0.6-0.2,1-0.7,1.4c-0.5,0.3-1.2,0.5-2.1,0.5
		c-0.7,0-1.2-0.1-1.6-0.4c-0.4-0.3-0.6-0.6-0.6-1.1c0-0.3,0.1-0.6,0.3-0.8s0.5-0.4,0.9-0.5c-0.1-0.1-0.3-0.2-0.3-0.3
		c-0.1-0.1-0.1-0.3-0.1-0.5s0.1-0.4,0.2-0.5s0.3-0.3,0.5-0.4c-0.3-0.1-0.5-0.3-0.7-0.6s-0.3-0.6-0.3-0.9c0-0.6,0.2-1,0.5-1.4
		c0.4-0.3,0.8-0.5,1.5-0.5c0.3,0,0.5,0,0.8,0.1h1.8V141.6z M594.4,147.9c0,0.3,0.1,0.5,0.4,0.7s0.6,0.2,1,0.2c0.7,0,1.2-0.1,1.5-0.3
		s0.5-0.5,0.5-0.8s-0.1-0.5-0.3-0.6s-0.5-0.2-1-0.2h-1c-0.4,0-0.7,0.1-0.9,0.3S594.4,147.6,594.4,147.9z M594.8,143.4
		c0,0.4,0.1,0.7,0.3,0.8s0.5,0.3,0.9,0.3c0.8,0,1.2-0.4,1.2-1.2s-0.4-1.2-1.2-1.2c-0.4,0-0.7,0.1-0.9,0.3S594.8,143,594.8,143.4z"/>
	<path id="XMLID_918_" class="st1" d="M602,147.1c-0.8,0-1.4-0.2-1.9-0.7s-0.7-1.2-0.7-2c0-0.9,0.2-1.5,0.6-2.1
		c0.4-0.5,1-0.8,1.7-0.8s1.2,0.2,1.6,0.7c0.4,0.4,0.6,1,0.6,1.7v0.5h-3.7c0,0.6,0.2,1.1,0.5,1.4c0.3,0.3,0.7,0.5,1.3,0.5
		s1.1-0.1,1.7-0.4v0.7c-0.3,0.1-0.6,0.2-0.8,0.3C602.7,147.1,602.4,147.1,602,147.1z M601.8,142.2c-0.4,0-0.8,0.1-1,0.4
		c-0.3,0.3-0.4,0.7-0.5,1.2h2.8c0-0.5-0.1-0.9-0.3-1.2C602.6,142.4,602.2,142.2,601.8,142.2z"/>
	<path id="XMLID_921_" class="st1" d="M608.8,145.5c0,0.5-0.2,0.9-0.6,1.2s-0.9,0.4-1.6,0.4c-0.7,0-1.3-0.1-1.7-0.3V146
		c0.3,0.1,0.5,0.2,0.8,0.3s0.6,0.1,0.9,0.1c0.4,0,0.7-0.1,1-0.2c0.2-0.1,0.3-0.3,0.3-0.6c0-0.2-0.1-0.4-0.3-0.5s-0.5-0.3-1.1-0.5
		c-0.5-0.2-0.9-0.3-1.1-0.5c-0.2-0.1-0.4-0.3-0.5-0.5s-0.2-0.4-0.2-0.6c0-0.4,0.2-0.8,0.5-1c0.4-0.3,0.8-0.4,1.5-0.4
		c0.6,0,1.1,0.1,1.7,0.4l-0.3,0.7c-0.5-0.2-1-0.3-1.5-0.3c-0.4,0-0.7,0.1-0.9,0.2s-0.3,0.3-0.3,0.5c0,0.1,0,0.3,0.1,0.4
		c0.1,0.1,0.2,0.2,0.4,0.3s0.5,0.2,0.9,0.4c0.6,0.2,1.1,0.5,1.3,0.7C608.7,144.9,608.8,145.2,608.8,145.5z"/>
	<path id="XMLID_923_" class="st1" d="M500,157.4c0,1.2-0.2,2.2-0.6,2.8s-1,0.9-1.8,0.9s-1.4-0.3-1.8-0.9c-0.4-0.6-0.6-1.5-0.6-2.7
		s0.2-2.2,0.6-2.8s1-0.9,1.8-0.9s1.4,0.3,1.8,0.9C499.8,155.3,500,156.2,500,157.4z M496.1,157.4c0,1,0.1,1.8,0.4,2.3
		c0.2,0.5,0.6,0.7,1.2,0.7c0.5,0,0.9-0.2,1.2-0.7c0.2-0.5,0.4-1.2,0.4-2.3s-0.1-1.8-0.4-2.3c-0.2-0.5-0.6-0.7-1.2-0.7
		c-0.5,0-0.9,0.2-1.2,0.7C496.2,155.6,496.1,156.4,496.1,157.4z"/>
	<path id="XMLID_926_" class="st1" d="M501.3,160.5c0-0.2,0-0.4,0.1-0.5s0.2-0.2,0.4-0.2c0.2,0,0.3,0.1,0.4,0.2
		c0.1,0.1,0.2,0.3,0.2,0.5s-0.1,0.4-0.2,0.5s-0.3,0.2-0.4,0.2c-0.2,0-0.3-0.1-0.4-0.2C501.3,160.9,501.3,160.7,501.3,160.5z"/>
	<path id="XMLID_928_" class="st1" d="M506.7,161h-0.8v-5.1c0-0.4,0-0.8,0-1.2c-0.1,0.1-0.1,0.1-0.2,0.2s-0.5,0.4-1.2,1l-0.4-0.6
		l1.9-1.5h0.7V161z"/>
	<path id="XMLID_930_" class="st1" d="M511.6,156.6c0.8,0,1.3,0.2,1.8,0.6c0.4,0.4,0.6,0.9,0.6,1.5c0,0.7-0.2,1.3-0.7,1.7
		s-1.1,0.6-1.9,0.6c-0.8,0-1.4-0.1-1.8-0.4v-0.8c0.2,0.1,0.5,0.3,0.8,0.3c0.3,0.1,0.7,0.1,1,0.1c0.6,0,1-0.1,1.3-0.4
		c0.3-0.3,0.5-0.7,0.5-1.2c0-1-0.6-1.5-1.8-1.5c-0.3,0-0.7,0-1.2,0.1l-0.4-0.3l0.3-3.3h3.5v0.7h-2.9l-0.2,2.1
		C510.9,156.7,511.2,156.6,511.6,156.6z"/>
	<path id="XMLID_932_" class="st1" d="M518,156c0,0.7-0.1,1.3-0.4,1.7c-0.3,0.4-0.6,0.6-1.1,0.6s-0.8-0.2-1.1-0.6
		c-0.3-0.4-0.4-0.9-0.4-1.7c0-0.7,0.1-1.3,0.4-1.7c0.2-0.4,0.6-0.6,1.1-0.6s0.8,0.2,1.1,0.6S518,155.3,518,156z M515.8,156
		c0,0.6,0.1,1,0.2,1.2s0.3,0.4,0.6,0.4c0.5,0,0.8-0.6,0.8-1.7c0-1.1-0.3-1.7-0.8-1.7c-0.3,0-0.5,0.1-0.6,0.4S515.8,155.4,515.8,156z
		 M521.1,153.9l-4,7.1h-0.7l4-7.1H521.1z M522.3,158.8c0,0.7-0.1,1.3-0.4,1.7c-0.2,0.4-0.6,0.6-1.1,0.6s-0.8-0.2-1.1-0.6
		c-0.3-0.4-0.4-0.9-0.4-1.7c0-0.7,0.1-1.3,0.4-1.7c0.2-0.4,0.6-0.6,1.1-0.6s0.8,0.2,1.1,0.6C522.2,157.6,522.3,158.1,522.3,158.8z
		 M520.1,158.8c0,0.6,0.1,1,0.2,1.2c0.1,0.3,0.3,0.4,0.6,0.4s0.5-0.1,0.6-0.4c0.1-0.3,0.2-0.7,0.2-1.3s-0.1-1-0.2-1.2
		c-0.1-0.3-0.3-0.4-0.6-0.4s-0.5,0.1-0.6,0.4C520.1,157.9,520.1,158.3,520.1,158.8z"/>
	<path id="XMLID_938_" class="st1" d="M528.4,161.1c-0.8,0-1.4-0.2-1.8-0.7c-0.4-0.5-0.6-1.2-0.6-2c0-0.9,0.2-1.6,0.6-2.1
		c0.4-0.5,1-0.7,1.8-0.7c0.3,0,0.5,0,0.8,0.1s0.5,0.1,0.6,0.2l-0.2,0.7c-0.2-0.1-0.4-0.1-0.6-0.2c-0.2,0-0.4-0.1-0.6-0.1
		c-1.1,0-1.6,0.7-1.6,2.1c0,0.7,0.1,1.2,0.4,1.5c0.3,0.4,0.7,0.5,1.2,0.5c0.4,0,0.9-0.1,1.4-0.3v0.7
		C529.4,161,529,161.1,528.4,161.1z"/>
	<path id="XMLID_940_" class="st1" d="M535.7,158.3c0,0.9-0.2,1.6-0.7,2c-0.4,0.5-1,0.7-1.8,0.7c-0.5,0-0.9-0.1-1.3-0.3
		s-0.7-0.5-0.9-1s-0.3-0.9-0.3-1.5c0-0.9,0.2-1.6,0.7-2c0.4-0.5,1-0.7,1.8-0.7c0.7,0,1.3,0.2,1.8,0.7
		C535.5,156.8,535.7,157.5,535.7,158.3z M531.6,158.3c0,0.7,0.1,1.2,0.4,1.6s0.7,0.5,1.2,0.5s0.9-0.2,1.2-0.5
		c0.3-0.4,0.4-0.9,0.4-1.6c0-0.7-0.1-1.2-0.4-1.5c-0.3-0.4-0.7-0.5-1.2-0.5s-0.9,0.2-1.2,0.5S531.6,157.6,531.6,158.3z"/>
	<path id="XMLID_943_" class="st1" d="M543.9,161v-3.5c0-0.4-0.1-0.7-0.3-1c-0.2-0.2-0.5-0.3-0.8-0.3c-0.5,0-0.9,0.1-1.1,0.4
		s-0.4,0.7-0.4,1.3v3h-0.8v-3.5c0-0.4-0.1-0.7-0.3-1c-0.2-0.2-0.5-0.3-0.9-0.3c-0.5,0-0.9,0.2-1.1,0.5c-0.2,0.3-0.4,0.8-0.4,1.5v2.8
		H537v-5.4h0.7l0.1,0.7l0,0c0.2-0.3,0.4-0.5,0.6-0.6c0.3-0.1,0.6-0.2,0.9-0.2c0.8,0,1.4,0.3,1.6,0.9l0,0c0.2-0.3,0.4-0.5,0.7-0.7
		s0.6-0.2,1-0.2c0.6,0,1.1,0.2,1.4,0.5c0.3,0.3,0.5,0.8,0.5,1.5v3.5h-0.6V161z"/>
	<path id="XMLID_945_" class="st1" d="M553.2,161v-3.5c0-0.4-0.1-0.7-0.3-1c-0.2-0.2-0.5-0.3-0.8-0.3c-0.5,0-0.9,0.1-1.1,0.4
		s-0.4,0.7-0.4,1.3v3h-0.8v-3.5c0-0.4-0.1-0.7-0.3-1c-0.2-0.2-0.5-0.3-0.9-0.3c-0.5,0-0.9,0.2-1.1,0.5c-0.2,0.3-0.4,0.8-0.4,1.5v2.8
		h-0.8v-5.4h0.7l0.1,0.7l0,0c0.2-0.3,0.4-0.5,0.6-0.6c0.3-0.1,0.6-0.2,0.9-0.2c0.8,0,1.4,0.3,1.6,0.9l0,0c0.2-0.3,0.4-0.5,0.7-0.7
		s0.6-0.2,1-0.2c0.6,0,1.1,0.2,1.4,0.5c0.3,0.3,0.5,0.8,0.5,1.5v3.5h-0.6V161z"/>
	<path id="XMLID_947_" class="st1" d="M555.6,154.2c0-0.2,0-0.3,0.1-0.4c0.1-0.1,0.2-0.1,0.3-0.1s0.2,0,0.3,0.1s0.1,0.2,0.1,0.4
		s0,0.3-0.1,0.4c-0.1,0.1-0.2,0.1-0.3,0.1s-0.3,0-0.3-0.1C555.7,154.5,555.6,154.4,555.6,154.2z M556.5,161h-0.8v-5.4h0.8V161z"/>
	<path id="XMLID_950_" class="st1" d="M561.7,159.5c0,0.5-0.2,0.9-0.6,1.2s-0.9,0.4-1.6,0.4c-0.7,0-1.3-0.1-1.7-0.3V160
		c0.3,0.1,0.5,0.2,0.8,0.3s0.6,0.1,0.9,0.1c0.4,0,0.7-0.1,1-0.2c0.2-0.1,0.3-0.3,0.3-0.6c0-0.2-0.1-0.4-0.3-0.5s-0.5-0.3-1.1-0.5
		c-0.5-0.2-0.9-0.3-1.1-0.5c-0.2-0.1-0.4-0.3-0.5-0.5s-0.2-0.4-0.2-0.6c0-0.4,0.2-0.8,0.5-1c0.4-0.3,0.8-0.4,1.5-0.4
		c0.6,0,1.1,0.1,1.7,0.4l-0.3,0.7c-0.5-0.2-1-0.3-1.5-0.3c-0.4,0-0.7,0.1-0.9,0.2s-0.3,0.3-0.3,0.5c0,0.1,0,0.3,0.1,0.4
		c0.1,0.1,0.2,0.2,0.4,0.3s0.5,0.2,0.9,0.4c0.6,0.2,1.1,0.5,1.3,0.7C561.6,158.9,561.7,159.2,561.7,159.5z"/>
	<path id="XMLID_952_" class="st1" d="M566.5,159.5c0,0.5-0.2,0.9-0.6,1.2s-0.9,0.4-1.6,0.4c-0.7,0-1.3-0.1-1.7-0.3V160
		c0.3,0.1,0.5,0.2,0.8,0.3s0.6,0.1,0.9,0.1c0.4,0,0.7-0.1,1-0.2c0.2-0.1,0.3-0.3,0.3-0.6c0-0.2-0.1-0.4-0.3-0.5s-0.5-0.3-1.1-0.5
		c-0.5-0.2-0.9-0.3-1.1-0.5c-0.2-0.1-0.4-0.3-0.5-0.5s-0.2-0.4-0.2-0.6c0-0.4,0.2-0.8,0.5-1c0.4-0.3,0.8-0.4,1.5-0.4
		c0.6,0,1.1,0.1,1.7,0.4l-0.3,0.7c-0.5-0.2-1-0.3-1.5-0.3c-0.4,0-0.7,0.1-0.9,0.2s-0.3,0.3-0.3,0.5c0,0.1,0,0.3,0.1,0.4
		c0.1,0.1,0.2,0.2,0.4,0.3s0.5,0.2,0.9,0.4c0.6,0.2,1.1,0.5,1.3,0.7C566.3,158.9,566.5,159.2,566.5,159.5z"/>
	<path id="XMLID_954_" class="st1" d="M567.7,154.2c0-0.2,0-0.3,0.1-0.4c0.1-0.1,0.2-0.1,0.3-0.1s0.2,0,0.3,0.1s0.1,0.2,0.1,0.4
		s0,0.3-0.1,0.4c-0.1,0.1-0.2,0.1-0.3,0.1s-0.3,0-0.3-0.1C567.7,154.5,567.7,154.4,567.7,154.2z M568.6,161h-0.8v-5.4h0.8V161z"/>
	<path id="XMLID_957_" class="st1" d="M574.9,158.3c0,0.9-0.2,1.6-0.7,2c-0.4,0.5-1,0.7-1.8,0.7c-0.5,0-0.9-0.1-1.3-0.3
		s-0.7-0.5-0.9-1s-0.3-0.9-0.3-1.5c0-0.9,0.2-1.6,0.7-2c0.4-0.5,1-0.7,1.8-0.7c0.7,0,1.3,0.2,1.8,0.7
		C574.7,156.8,574.9,157.5,574.9,158.3z M570.8,158.3c0,0.7,0.1,1.2,0.4,1.6s0.7,0.5,1.2,0.5s0.9-0.2,1.2-0.5
		c0.3-0.4,0.4-0.9,0.4-1.6c0-0.7-0.1-1.2-0.4-1.5c-0.3-0.4-0.7-0.5-1.2-0.5s-0.9,0.2-1.2,0.5S570.8,157.6,570.8,158.3z"/>
	<path id="XMLID_960_" class="st1" d="M580,161v-3.5c0-0.4-0.1-0.8-0.3-1s-0.5-0.3-0.9-0.3c-0.6,0-1,0.2-1.2,0.5s-0.4,0.8-0.4,1.5
		v2.8h-0.8v-5.4h0.7l0.1,0.7l0,0c0.2-0.3,0.4-0.5,0.7-0.6s0.6-0.2,1-0.2c0.6,0,1.1,0.2,1.5,0.5c0.3,0.3,0.5,0.8,0.5,1.5v3.5H580z"/>
	<path id="XMLID_962_" class="st1" d="M587.5,156.3h-1.4v4.7h-0.8v-4.7h-1v-0.4l1-0.3v-0.3c0-1.3,0.6-2,1.7-2c0.3,0,0.6,0.1,1,0.2
		l-0.2,0.6c-0.3-0.1-0.6-0.2-0.8-0.2c-0.3,0-0.5,0.1-0.7,0.3c-0.1,0.2-0.2,0.5-0.2,1v0.3h1.4V156.3z"/>
	<path id="XMLID_964_" class="st1" d="M590.7,161.1c-0.8,0-1.4-0.2-1.9-0.7s-0.7-1.2-0.7-2c0-0.9,0.2-1.5,0.6-2.1
		c0.4-0.5,1-0.8,1.7-0.8s1.2,0.2,1.6,0.7c0.4,0.4,0.6,1,0.6,1.7v0.5H589c0,0.6,0.2,1.1,0.5,1.4c0.3,0.3,0.7,0.5,1.3,0.5
		s1.1-0.1,1.7-0.4v0.7c-0.3,0.1-0.6,0.2-0.8,0.3C591.4,161.1,591.1,161.1,590.7,161.1z M590.5,156.2c-0.4,0-0.8,0.1-1,0.4
		c-0.3,0.3-0.4,0.7-0.5,1.2h2.8c0-0.5-0.1-0.9-0.3-1.2C591.3,156.4,590.9,156.2,590.5,156.2z"/>
	<path id="XMLID_967_" class="st1" d="M596.3,161.1c-0.8,0-1.4-0.2-1.9-0.7s-0.7-1.2-0.7-2c0-0.9,0.2-1.5,0.6-2.1
		c0.4-0.5,1-0.8,1.7-0.8s1.2,0.2,1.6,0.7c0.4,0.4,0.6,1,0.6,1.7v0.5h-3.7c0,0.6,0.2,1.1,0.5,1.4c0.3,0.3,0.7,0.5,1.3,0.5
		s1.1-0.1,1.7-0.4v0.7c-0.3,0.1-0.6,0.2-0.8,0.3C597,161.1,596.7,161.1,596.3,161.1z M596.1,156.2c-0.4,0-0.8,0.1-1,0.4
		c-0.3,0.3-0.4,0.7-0.5,1.2h2.8c0-0.5-0.1-0.9-0.3-1.2C596.9,156.4,596.5,156.2,596.1,156.2z"/>
</g>
<g id="XMLID_9_">
	<path id="XMLID_846_" class="st0" d="M395.1,188.6h-0.8v-6.4H392v-0.7h5.4v0.7h-2.3V188.6z"/>
	<path id="XMLID_848_" class="st0" d="M402.9,185.9c0,0.9-0.2,1.6-0.7,2c-0.4,0.5-1,0.7-1.8,0.7c-0.5,0-0.9-0.1-1.3-0.3
		s-0.7-0.5-0.9-1s-0.3-0.9-0.3-1.5c0-0.9,0.2-1.6,0.7-2c0.4-0.5,1-0.7,1.8-0.7c0.7,0,1.3,0.2,1.8,0.7S402.9,185.1,402.9,185.9z
		 M398.9,185.9c0,0.7,0.1,1.2,0.4,1.6s0.7,0.5,1.2,0.5s0.9-0.2,1.2-0.5c0.3-0.4,0.4-0.9,0.4-1.6c0-0.7-0.1-1.2-0.4-1.5
		c-0.3-0.4-0.7-0.5-1.2-0.5s-0.9,0.2-1.2,0.5S398.9,185.2,398.9,185.9z"/>
	<path id="XMLID_851_" class="st0" d="M405.2,185.9c0.1-0.2,0.4-0.5,0.6-0.8l1.7-1.8h1l-2.2,2.3l2.3,3.1h-1l-1.9-2.5l-0.6,0.5v2
		h-0.8V181h0.8v4C405.2,185.2,405.1,185.5,405.2,185.9L405.2,185.9z"/>
	<path id="XMLID_853_" class="st0" d="M411.9,188.7c-0.8,0-1.4-0.2-1.9-0.7s-0.7-1.2-0.7-2c0-0.9,0.2-1.5,0.6-2.1s1-0.8,1.7-0.8
		s1.2,0.2,1.6,0.7c0.4,0.4,0.6,1,0.6,1.7v0.5h-3.7c0,0.6,0.2,1.1,0.5,1.4s0.7,0.5,1.3,0.5c0.6,0,1.1-0.1,1.7-0.4v0.7
		c-0.3,0.1-0.6,0.2-0.8,0.3C412.5,188.7,412.2,188.7,411.9,188.7z M411.6,183.8c-0.4,0-0.8,0.1-1,0.4s-0.4,0.7-0.5,1.2h2.8
		c0-0.5-0.1-0.9-0.3-1.2C412.4,184,412.1,183.8,411.6,183.8z"/>
	<path id="XMLID_856_" class="st0" d="M418.9,188.6v-3.5c0-0.4-0.1-0.8-0.3-1s-0.5-0.3-0.9-0.3c-0.6,0-1,0.2-1.2,0.5
		s-0.4,0.8-0.4,1.5v2.8h-0.8v-5.4h0.7l0.1,0.7l0,0c0.2-0.3,0.4-0.5,0.7-0.6c0.3-0.1,0.6-0.2,1-0.2c0.6,0,1.1,0.2,1.5,0.5
		c0.3,0.3,0.5,0.8,0.5,1.5v3.5H418.9z"/>
	<path id="XMLID_858_" class="st0" d="M421.3,181.8c0-0.2,0-0.3,0.1-0.4c0.1-0.1,0.2-0.1,0.3-0.1c0.1,0,0.2,0,0.3,0.1
		s0.1,0.2,0.1,0.4s0,0.3-0.1,0.4c-0.1,0.1-0.2,0.1-0.3,0.1c-0.1,0-0.3,0-0.3-0.1C421.3,182.1,421.3,182,421.3,181.8z M422.2,188.6
		h-0.8v-5.4h0.8V188.6z"/>
	<path id="XMLID_861_" class="st0" d="M427.3,188.6h-3.9V188l2.9-4.2h-2.7v-0.6h3.6v0.6l-2.9,4.1h3V188.6z"/>
	<path id="XMLID_863_" class="st0" d="M431.8,188.6l-0.2-0.8l0,0c-0.3,0.3-0.5,0.6-0.8,0.7c-0.3,0.1-0.6,0.2-1,0.2
		c-0.5,0-0.9-0.1-1.2-0.4s-0.5-0.7-0.5-1.2c0-1.1,0.9-1.6,2.6-1.7h0.9v-0.3c0-0.4-0.1-0.7-0.3-0.9c-0.2-0.2-0.5-0.3-0.9-0.3
		s-1,0.1-1.5,0.4l-0.2-0.6c0.3-0.1,0.6-0.3,0.9-0.3s0.6-0.1,0.9-0.1c0.6,0,1.1,0.1,1.4,0.4s0.5,0.7,0.5,1.4v3.7h-0.6V188.6z
		 M430,188c0.5,0,0.9-0.1,1.2-0.4s0.4-0.7,0.4-1.2V186h-0.8c-0.6,0-1.1,0.1-1.4,0.3s-0.4,0.5-0.4,0.8s0.1,0.5,0.3,0.7
		S429.7,188,430,188z"/>
	<path id="XMLID_866_" class="st0" d="M435.8,188c0.1,0,0.3,0,0.4,0s0.2,0,0.3-0.1v0.6c-0.1,0-0.2,0.1-0.4,0.1c-0.2,0-0.3,0-0.5,0
		c-1,0-1.6-0.5-1.6-1.6v-3.2h-0.8v-0.4l0.8-0.3l0.3-1.1h0.5v1.2h1.6v0.6H435v3.1c0,0.3,0.1,0.6,0.2,0.7S435.6,188,435.8,188z"/>
	<path id="XMLID_868_" class="st0" d="M437.6,181.8c0-0.2,0-0.3,0.1-0.4c0.1-0.1,0.2-0.1,0.3-0.1c0.1,0,0.2,0,0.3,0.1
		s0.1,0.2,0.1,0.4s0,0.3-0.1,0.4c-0.1,0.1-0.2,0.1-0.3,0.1c-0.1,0-0.3,0-0.3-0.1C437.6,182.1,437.6,182,437.6,181.8z M438.5,188.6
		h-0.8v-5.4h0.8V188.6z"/>
	<path id="XMLID_871_" class="st0" d="M444.8,185.9c0,0.9-0.2,1.6-0.7,2c-0.4,0.5-1,0.7-1.8,0.7c-0.5,0-0.9-0.1-1.3-0.3
		s-0.7-0.5-0.9-1s-0.3-0.9-0.3-1.5c0-0.9,0.2-1.6,0.7-2c0.4-0.5,1-0.7,1.8-0.7c0.7,0,1.3,0.2,1.8,0.7S444.8,185.1,444.8,185.9z
		 M440.7,185.9c0,0.7,0.1,1.2,0.4,1.6s0.7,0.5,1.2,0.5s0.9-0.2,1.2-0.5c0.3-0.4,0.4-0.9,0.4-1.6c0-0.7-0.1-1.2-0.4-1.5
		c-0.3-0.4-0.7-0.5-1.2-0.5s-0.9,0.2-1.2,0.5S440.7,185.2,440.7,185.9z"/>
	<path id="XMLID_874_" class="st0" d="M449.9,188.6v-3.5c0-0.4-0.1-0.8-0.3-1s-0.5-0.3-0.9-0.3c-0.6,0-1,0.2-1.2,0.5
		s-0.4,0.8-0.4,1.5v2.8h-0.8v-5.4h0.7l0.1,0.7l0,0c0.2-0.3,0.4-0.5,0.7-0.6c0.3-0.1,0.6-0.2,1-0.2c0.6,0,1.1,0.2,1.5,0.5
		c0.3,0.3,0.5,0.8,0.5,1.5v3.5H449.9z"/>
</g>
<g id="XMLID_420_">
	<path id="XMLID_820_" class="st1" d="M522.6,109.1c-1,0-1.7,0.7-1.9,2h2.5v0.6h-2.6v0.3v0.3v0.2h2.3v0.6h-2.2
		c0.1,0.6,0.3,1,0.7,1.4c0.3,0.3,0.8,0.5,1.3,0.5s1-0.1,1.5-0.3v0.7c-0.5,0.2-1,0.3-1.5,0.3c-0.8,0-1.4-0.2-1.9-0.7
		c-0.5-0.4-0.8-1.1-0.9-1.9h-0.8v-0.6h0.7v-0.2v-0.2v-0.4h-0.7V111h0.8c0.1-0.8,0.4-1.5,0.9-2s1.1-0.7,1.9-0.7
		c0.7,0,1.3,0.2,1.8,0.5l-0.3,0.7C523.5,109.2,523.1,109.1,522.6,109.1z"/>
	<path id="XMLID_822_" class="st1" d="M528.5,109.1c-1,0-1.7,0.7-1.9,2h2.5v0.6h-2.6v0.3v0.3v0.2h2.3v0.6h-2.2
		c0.1,0.6,0.3,1,0.7,1.4c0.3,0.3,0.8,0.5,1.3,0.5s1-0.1,1.5-0.3v0.7c-0.5,0.2-1,0.3-1.5,0.3c-0.8,0-1.4-0.2-1.9-0.7
		c-0.5-0.4-0.8-1.1-0.9-1.9H525v-0.6h0.7v-0.2v-0.2v-0.4H525V111h0.8c0.1-0.8,0.4-1.5,0.9-2s1.1-0.7,1.9-0.7c0.7,0,1.3,0.2,1.8,0.5
		l-0.3,0.7C529.4,109.2,529,109.1,528.5,109.1z"/>
	<path id="XMLID_824_" class="st1" d="M534.4,109.1c-1,0-1.7,0.7-1.9,2h2.5v0.6h-2.6v0.3v0.3v0.2h2.3v0.6h-2.2
		c0.1,0.6,0.3,1,0.7,1.4c0.3,0.3,0.8,0.5,1.3,0.5s1-0.1,1.5-0.3v0.7c-0.5,0.2-1,0.3-1.5,0.3c-0.8,0-1.4-0.2-1.9-0.7
		c-0.5-0.4-0.8-1.1-0.9-1.9h-0.8v-0.6h0.7v-0.2v-0.2v-0.4h-0.7V111h0.8c0.1-0.8,0.4-1.5,0.9-2s1.1-0.7,1.9-0.7
		c0.7,0,1.3,0.2,1.8,0.5l-0.3,0.7C535.3,109.2,534.9,109.1,534.4,109.1z"/>
	<path id="XMLID_826_" class="st1" d="M540,108.4h2c0.9,0,1.6,0.1,2.1,0.4s0.6,0.7,0.6,1.3c0,0.4-0.1,0.8-0.4,1
		c-0.2,0.3-0.6,0.5-1,0.5l0,0c1.1,0.2,1.6,0.8,1.6,1.7c0,0.6-0.2,1.1-0.6,1.5c-0.4,0.4-1,0.5-1.8,0.5H540V108.4z M540.9,111.5h1.4
		c0.6,0,1-0.1,1.3-0.3s0.4-0.5,0.4-0.9s-0.1-0.7-0.4-0.9s-0.7-0.3-1.4-0.3H541L540.9,111.5L540.9,111.5z M540.9,112.2v2.7h1.5
		c0.6,0,1-0.1,1.3-0.3c0.3-0.2,0.4-0.6,0.4-1s-0.1-0.8-0.4-1c-0.3-0.2-0.8-0.3-1.4-0.3L540.9,112.2L540.9,112.2z"/>
	<path id="XMLID_830_" class="st1" d="M547.1,110.2v3.5c0,0.4,0.1,0.8,0.3,1s0.5,0.3,0.9,0.3c0.6,0,1-0.2,1.2-0.5
		c0.3-0.3,0.4-0.8,0.4-1.5v-2.8h0.8v5.4H550l-0.1-0.7l0,0c-0.2,0.3-0.4,0.5-0.7,0.6s-0.6,0.2-1,0.2c-0.7,0-1.1-0.2-1.5-0.5
		c-0.3-0.3-0.5-0.8-0.5-1.5v-3.5H547.1z"/>
	<path id="XMLID_832_" class="st1" d="M551.7,110.2h0.9l1.2,3.1c0.3,0.7,0.4,1.2,0.5,1.5l0,0c0-0.2,0.1-0.5,0.3-0.9
		c0.1-0.4,0.6-1.6,1.3-3.7h0.9l-2.3,6.1c-0.2,0.6-0.5,1-0.8,1.3s-0.7,0.4-1.1,0.4c-0.2,0-0.5,0-0.7-0.1v-0.6c0.2,0,0.4,0.1,0.6,0.1
		c0.6,0,1-0.3,1.2-0.9l0.3-0.8L551.7,110.2z"/>
	<path id="XMLID_834_" class="st1" d="M561.9,115c0.1,0,0.3,0,0.4,0s0.2,0,0.3-0.1v0.6c-0.1,0-0.2,0.1-0.4,0.1s-0.3,0-0.5,0
		c-1,0-1.6-0.5-1.6-1.6v-3.2h-0.8v-0.4l0.8-0.3l0.3-1.1h0.5v1.2h1.6v0.6H561v3.1c0,0.3,0.1,0.6,0.2,0.7S561.6,115,561.9,115z"/>
	<path id="XMLID_836_" class="st1" d="M568.3,112.9c0,0.9-0.2,1.6-0.7,2s-1,0.7-1.8,0.7c-0.5,0-0.9-0.1-1.3-0.3s-0.7-0.5-0.9-1
		s-0.3-0.9-0.3-1.5c0-0.9,0.2-1.6,0.7-2s1-0.7,1.8-0.7c0.7,0,1.3,0.2,1.8,0.7C568.1,111.4,568.3,112.1,568.3,112.9z M564.2,112.9
		c0,0.7,0.1,1.2,0.4,1.6s0.7,0.5,1.2,0.5s0.9-0.2,1.2-0.5c0.3-0.4,0.4-0.9,0.4-1.6s-0.1-1.2-0.4-1.6c-0.3-0.4-0.7-0.5-1.2-0.5
		s-0.9,0.2-1.2,0.5S564.2,112.2,564.2,112.9z"/>
	<path id="XMLID_839_" class="st1" d="M570.5,112.8c0.1-0.2,0.4-0.5,0.6-0.8l1.7-1.8h1l-2.2,2.3l2.3,3.1h-1l-1.9-2.5l-0.6,0.5v2
		h-0.8V108h0.8v4C570.5,112.2,570.5,112.5,570.5,112.8L570.5,112.8z"/>
	<path id="XMLID_841_" class="st1" d="M577.2,115.7c-0.8,0-1.4-0.2-1.9-0.7s-0.7-1.2-0.7-2c0-0.9,0.2-1.5,0.6-2.1
		c0.4-0.5,1-0.8,1.7-0.8s1.2,0.2,1.6,0.7s0.6,1,0.6,1.7v0.5h-3.7c0,0.6,0.2,1.1,0.5,1.4s0.7,0.5,1.3,0.5s1.1-0.1,1.7-0.4v0.7
		c-0.3,0.1-0.6,0.2-0.8,0.3C577.9,115.7,577.6,115.7,577.2,115.7z M577,110.8c-0.4,0-0.8,0.1-1,0.4c-0.3,0.3-0.4,0.7-0.5,1.2h2.8
		c0-0.5-0.1-0.9-0.3-1.2S577.4,110.8,577,110.8z"/>
	<path id="XMLID_844_" class="st1" d="M584.3,115.6v-3.5c0-0.4-0.1-0.8-0.3-1s-0.5-0.3-0.9-0.3c-0.6,0-1,0.2-1.2,0.5
		s-0.4,0.8-0.4,1.5v2.8h-0.8v-5.4h0.7l0.1,0.7l0,0c0.2-0.3,0.4-0.5,0.7-0.6s0.6-0.2,1-0.2c0.6,0,1.1,0.2,1.5,0.5s0.5,0.8,0.5,1.5
		v3.5H584.3z"/>
</g>
<g id="XMLID_414_">
	<path id="XMLID_786_" class="st0" d="M88.9,183.7h2.4v3.5c-0.4,0.1-0.8,0.2-1.2,0.3s-0.8,0.1-1.4,0.1c-1.1,0-1.9-0.3-2.5-1
		c-0.6-0.6-0.9-1.5-0.9-2.7c0-0.7,0.1-1.4,0.4-2s0.7-1,1.3-1.3c0.6-0.3,1.2-0.4,2-0.4s1.5,0.1,2.1,0.4l-0.3,0.7
		c-0.6-0.3-1.3-0.4-1.9-0.4c-0.9,0-1.5,0.3-2,0.8s-0.7,1.2-0.7,2.2s0.2,1.7,0.7,2.2s1.2,0.7,2.1,0.7c0.5,0,1-0.1,1.5-0.2v-2.2h-1.6
		V183.7z"/>
	<path id="XMLID_788_" class="st0" d="M95.1,187.6c-0.8,0-1.4-0.2-1.9-0.7s-0.7-1.2-0.7-2c0-0.9,0.2-1.5,0.6-2.1s1-0.8,1.7-0.8
		s1.2,0.2,1.6,0.7c0.4,0.4,0.6,1,0.6,1.7v0.5h-3.7c0,0.6,0.2,1.1,0.5,1.4s0.7,0.5,1.3,0.5c0.6,0,1.1-0.1,1.7-0.4v0.7
		c-0.3,0.1-0.6,0.2-0.8,0.3C95.8,187.5,95.5,187.6,95.1,187.6z M94.9,182.7c-0.4,0-0.8,0.1-1,0.4s-0.4,0.7-0.5,1.2h2.8
		c0-0.5-0.1-0.9-0.3-1.2C95.7,182.8,95.4,182.7,94.9,182.7z"/>
	<path id="XMLID_791_" class="st0" d="M102.2,187.5V184c0-0.4-0.1-0.8-0.3-1s-0.5-0.3-0.9-0.3c-0.6,0-1,0.2-1.2,0.5
		s-0.4,0.8-0.4,1.5v2.8h-0.8v-5.4h0.7l0.1,0.7l0,0c0.2-0.3,0.4-0.5,0.7-0.6c0.3-0.1,0.6-0.2,1-0.2c0.6,0,1.1,0.2,1.5,0.5
		c0.3,0.3,0.5,0.8,0.5,1.5v3.5H102.2z"/>
	<path id="XMLID_793_" class="st0" d="M106.9,187.6c-0.8,0-1.4-0.2-1.9-0.7s-0.7-1.2-0.7-2c0-0.9,0.2-1.5,0.6-2.1s1-0.8,1.7-0.8
		s1.2,0.2,1.6,0.7c0.4,0.4,0.6,1,0.6,1.7v0.5h-3.7c0,0.6,0.2,1.1,0.5,1.4s0.7,0.5,1.3,0.5c0.6,0,1.1-0.1,1.7-0.4v0.7
		c-0.3,0.1-0.6,0.2-0.8,0.3C107.6,187.5,107.3,187.6,106.9,187.6z M106.7,182.7c-0.4,0-0.8,0.1-1,0.4s-0.4,0.7-0.5,1.2h2.8
		c0-0.5-0.1-0.9-0.3-1.2C107.4,182.8,107.1,182.7,106.7,182.7z"/>
	<path id="XMLID_796_" class="st0" d="M112.7,182c0.2,0,0.5,0,0.6,0.1l-0.1,0.8c-0.2,0-0.4-0.1-0.6-0.1c-0.4,0-0.8,0.2-1.1,0.5
		s-0.5,0.8-0.5,1.3v2.9h-0.8v-5.4h0.7l0.1,1l0,0c0.2-0.3,0.4-0.6,0.7-0.8S112.4,182,112.7,182z"/>
	<path id="XMLID_798_" class="st0" d="M117.6,187.5l-0.2-0.8l0,0c-0.3,0.3-0.5,0.6-0.8,0.7c-0.3,0.1-0.6,0.2-1,0.2
		c-0.5,0-0.9-0.1-1.2-0.4s-0.5-0.7-0.5-1.2c0-1.1,0.9-1.6,2.6-1.7h0.9V184c0-0.4-0.1-0.7-0.3-0.9c-0.2-0.2-0.5-0.3-0.9-0.3
		s-1,0.1-1.5,0.4l-0.2-0.6c0.3-0.1,0.6-0.3,0.9-0.3s0.6-0.1,0.9-0.1c0.6,0,1.1,0.1,1.4,0.4s0.5,0.7,0.5,1.4v3.7h-0.6V187.5z
		 M115.8,186.9c0.5,0,0.9-0.1,1.2-0.4s0.4-0.7,0.4-1.2v-0.5h-0.8c-0.6,0-1.1,0.1-1.4,0.3s-0.4,0.5-0.4,0.8s0.1,0.5,0.3,0.7
		S115.5,186.9,115.8,186.9z"/>
	<path id="XMLID_801_" class="st0" d="M120.7,187.5h-0.8v-7.6h0.8V187.5z"/>
	<path id="XMLID_803_" class="st0" d="M127.5,187.6c-0.3,0-0.7-0.1-1-0.2c-0.3-0.1-0.5-0.3-0.7-0.6h-0.1c0,0.3,0.1,0.6,0.1,0.9v2.2
		H125v-7.8h0.7l0.1,0.7l0,0c0.2-0.3,0.5-0.5,0.7-0.6s0.6-0.2,1-0.2c0.7,0,1.3,0.2,1.6,0.7s0.6,1.2,0.6,2c0,0.9-0.2,1.6-0.6,2
		C128.7,187.3,128.2,187.6,127.5,187.6z M127.4,182.7c-0.5,0-0.9,0.2-1.2,0.5s-0.4,0.8-0.4,1.4v0.2c0,0.8,0.1,1.3,0.4,1.6
		s0.7,0.5,1.2,0.5s0.8-0.2,1.1-0.6s0.4-0.9,0.4-1.5c0-0.7-0.1-1.2-0.4-1.5C128.2,182.9,127.9,182.7,127.4,182.7z"/>
	<path id="XMLID_806_" class="st0" d="M134.4,187.5l-0.2-0.8l0,0c-0.3,0.3-0.5,0.6-0.8,0.7c-0.3,0.1-0.6,0.2-1,0.2
		c-0.5,0-0.9-0.1-1.2-0.4s-0.5-0.7-0.5-1.2c0-1.1,0.9-1.6,2.6-1.7h0.9V184c0-0.4-0.1-0.7-0.3-0.9s-0.5-0.3-0.9-0.3s-1,0.1-1.5,0.4
		l-0.2-0.6c0.3-0.1,0.6-0.3,0.9-0.3s0.6-0.1,0.9-0.1c0.6,0,1.1,0.1,1.4,0.4s0.5,0.7,0.5,1.4v3.7h-0.6V187.5z M132.6,186.9
		c0.5,0,0.9-0.1,1.2-0.4s0.4-0.7,0.4-1.2v-0.5h-0.8c-0.6,0-1.1,0.1-1.4,0.3c-0.3,0.2-0.4,0.5-0.4,0.8s0.1,0.5,0.3,0.7
		S132.3,186.9,132.6,186.9z"/>
	<path id="XMLID_809_" class="st0" d="M139.1,182c0.2,0,0.5,0,0.6,0.1l-0.1,0.8c-0.2,0-0.4-0.1-0.6-0.1c-0.4,0-0.8,0.2-1.1,0.5
		s-0.5,0.8-0.5,1.3v2.9h-0.8v-5.4h0.7l0.1,1l0,0c0.2-0.3,0.4-0.6,0.7-0.8S138.8,182,139.1,182z"/>
	<path id="XMLID_811_" class="st0" d="M142.5,186.9c0.1,0,0.3,0,0.4,0c0.1,0,0.2,0,0.3-0.1v0.6c-0.1,0-0.2,0.1-0.4,0.1s-0.3,0-0.5,0
		c-1,0-1.6-0.5-1.6-1.6v-3.2h-0.8v-0.4l0.8-0.3l0.3-1.1h0.5v1.2h1.6v0.6h-1.6v3.1c0,0.3,0.1,0.6,0.2,0.7S142.3,186.9,142.5,186.9z"
		/>
	<path id="XMLID_813_" class="st0" d="M148,187.5V184c0-0.4-0.1-0.8-0.3-1s-0.5-0.3-0.9-0.3c-0.6,0-1,0.2-1.2,0.5s-0.4,0.8-0.4,1.5
		v2.8h-0.8v-5.4h0.7l0.1,0.7l0,0c0.2-0.3,0.4-0.5,0.7-0.6s0.6-0.2,1-0.2c0.6,0,1.1,0.2,1.5,0.5c0.3,0.3,0.5,0.8,0.5,1.5v3.5H148z"/>
	<path id="XMLID_815_" class="st0" d="M152.7,187.6c-0.8,0-1.4-0.2-1.9-0.7s-0.7-1.2-0.7-2c0-0.9,0.2-1.5,0.6-2.1s1-0.8,1.7-0.8
		s1.2,0.2,1.6,0.7c0.4,0.4,0.6,1,0.6,1.7v0.5H151c0,0.6,0.2,1.1,0.5,1.4s0.7,0.5,1.3,0.5s1.1-0.1,1.7-0.4v0.7
		c-0.3,0.1-0.6,0.2-0.8,0.3C153.4,187.5,153.1,187.6,152.7,187.6z M152.5,182.7c-0.4,0-0.8,0.1-1,0.4s-0.4,0.7-0.5,1.2h2.8
		c0-0.5-0.1-0.9-0.3-1.2C153.2,182.8,152.9,182.7,152.5,182.7z"/>
	<path id="XMLID_818_" class="st0" d="M158.5,182c0.2,0,0.5,0,0.6,0.1l-0.1,0.8c-0.2,0-0.4-0.1-0.6-0.1c-0.4,0-0.8,0.2-1.1,0.5
		s-0.5,0.8-0.5,1.3v2.9H156v-5.4h0.7l0.1,1l0,0c0.2-0.3,0.4-0.6,0.7-0.8S158.2,182,158.5,182z"/>
</g>
<g id="XMLID_410_">
	<path id="XMLID_744_" class="st1" d="M9.1,45.3L6.7,39l0,0c0,0.5,0.1,1.1,0.1,1.8v4.5H6v-7.1h1.3L9.5,44l0,0l2.3-5.9H13v7.1h-0.8
		v-4.6c0-0.5,0-1.1,0.1-1.7l0,0l-2.4,6.3H9.1V45.3z"/>
	<path id="XMLID_746_" class="st1" d="M18.2,45.3L18,44.5l0,0c-0.3,0.3-0.5,0.6-0.8,0.7s-0.6,0.2-1,0.2c-0.5,0-0.9-0.1-1.2-0.4
		s-0.5-0.7-0.5-1.2c0-1.1,0.9-1.6,2.6-1.7H18v-0.3c0-0.4-0.1-0.7-0.3-0.9s-0.5-0.3-0.9-0.3s-1,0.1-1.5,0.4l-0.2-0.6
		c0.3-0.1,0.6-0.3,0.9-0.3c0.3-0.1,0.6-0.1,0.9-0.1c0.6,0,1.1,0.1,1.4,0.4s0.5,0.7,0.5,1.4v3.7h-0.6V45.3z M16.3,44.7
		c0.5,0,0.9-0.1,1.2-0.4s0.4-0.7,0.4-1.2v-0.5h-0.8c-0.6,0-1.1,0.1-1.4,0.3c-0.3,0.2-0.4,0.5-0.4,0.8s0.1,0.5,0.3,0.7
		S16,44.7,16.3,44.7z"/>
	<path id="XMLID_749_" class="st1" d="M24.1,45.3v-3.5c0-0.4-0.1-0.8-0.3-1s-0.5-0.3-0.9-0.3c-0.6,0-1,0.2-1.2,0.5s-0.4,0.8-0.4,1.5
		v2.8h-0.8v-5.4h0.7l0.1,0.7l0,0c0.2-0.3,0.4-0.5,0.7-0.6s0.6-0.2,1-0.2c0.6,0,1.1,0.2,1.5,0.5s0.5,0.8,0.5,1.5v3.5H24.1z"/>
	<path id="XMLID_751_" class="st1" d="M29.9,45.3l-0.2-0.8l0,0c-0.3,0.3-0.5,0.6-0.8,0.7s-0.6,0.2-1,0.2c-0.5,0-0.9-0.1-1.2-0.4
		s-0.5-0.7-0.5-1.2c0-1.1,0.9-1.6,2.6-1.7h0.9v-0.3c0-0.4-0.1-0.7-0.3-0.9s-0.5-0.3-0.9-0.3s-1,0.1-1.5,0.4l-0.2-0.6
		c0.3-0.1,0.6-0.3,0.9-0.3s0.6-0.1,0.9-0.1c0.6,0,1.1,0.1,1.4,0.4s0.5,0.7,0.5,1.4v3.7h-0.6V45.3z M28,44.7c0.5,0,0.9-0.1,1.2-0.4
		s0.4-0.7,0.4-1.2v-0.5h-0.8c-0.6,0-1.1,0.1-1.4,0.3S27,43.4,27,43.8c0,0.3,0.1,0.5,0.3,0.7S27.7,44.7,28,44.7z"/>
	<path id="XMLID_754_" class="st1" d="M36.5,39.9v0.5l-1,0.1c0.1,0.1,0.2,0.3,0.2,0.4s0.1,0.4,0.1,0.6c0,0.5-0.2,0.9-0.5,1.3
		s-0.8,0.5-1.5,0.5c-0.2,0-0.3,0-0.4,0c-0.3,0.2-0.5,0.4-0.5,0.7c0,0.1,0.1,0.3,0.2,0.3s0.3,0.1,0.6,0.1h0.9c0.6,0,1,0.1,1.3,0.4
		s0.5,0.6,0.5,1.1c0,0.6-0.2,1-0.7,1.4s-1.2,0.5-2.1,0.5c-0.7,0-1.2-0.1-1.6-0.4s-0.6-0.6-0.6-1.1c0-0.3,0.1-0.6,0.3-0.8
		s0.5-0.4,0.9-0.5c-0.1-0.1-0.3-0.2-0.3-0.3s-0.1-0.3-0.1-0.5s0.1-0.4,0.2-0.5s0.3-0.3,0.5-0.4c-0.3-0.1-0.5-0.3-0.7-0.6
		s-0.3-0.6-0.3-0.9c0-0.6,0.2-1,0.5-1.4s0.8-0.5,1.5-0.5c0.3,0,0.5,0,0.8,0.1L36.5,39.9L36.5,39.9z M32.3,46.2
		c0,0.3,0.1,0.5,0.4,0.7s0.6,0.2,1,0.2c0.7,0,1.2-0.1,1.5-0.3s0.5-0.5,0.5-0.8s-0.1-0.5-0.3-0.6s-0.5-0.2-1-0.2h-1
		c-0.4,0-0.7,0.1-0.9,0.3S32.3,45.9,32.3,46.2z M32.7,41.6c0,0.4,0.1,0.7,0.3,0.8s0.5,0.3,0.9,0.3c0.8,0,1.2-0.4,1.2-1.2
		s-0.4-1.2-1.2-1.2c-0.4,0-0.7,0.1-0.9,0.3S32.7,41.2,32.7,41.6z"/>
	<path id="XMLID_758_" class="st1" d="M39.9,45.4c-0.8,0-1.4-0.2-1.9-0.7s-0.7-1.2-0.7-2c0-0.9,0.2-1.5,0.6-2.1s1-0.8,1.7-0.8
		s1.2,0.2,1.6,0.7s0.6,1,0.6,1.7v0.5h-3.7c0,0.6,0.2,1.1,0.5,1.4s0.7,0.5,1.3,0.5s1.1-0.1,1.7-0.4V45c-0.3,0.1-0.6,0.2-0.8,0.3
		S40.2,45.4,39.9,45.4z M39.7,40.5c-0.4,0-0.8,0.1-1,0.4s-0.4,0.7-0.5,1.2H41c0-0.5-0.1-0.9-0.3-1.2S40.1,40.5,39.7,40.5z"/>
	<path id="XMLID_761_" class="st1" d="M50.1,45.3v-3.5c0-0.4-0.1-0.7-0.3-1s-0.5-0.3-0.8-0.3c-0.5,0-0.9,0.1-1.1,0.4
		s-0.4,0.7-0.4,1.3v3h-0.8v-3.5c0-0.4-0.1-0.7-0.3-1s-0.5-0.3-0.9-0.3c-0.5,0-0.9,0.2-1.1,0.5S44,41.8,44,42.5v2.8h-0.8v-5.4h0.7
		l0.1,0.7l0,0c0.2-0.3,0.4-0.5,0.6-0.6s0.6-0.2,0.9-0.2c0.8,0,1.4,0.3,1.6,0.9l0,0c0.2-0.3,0.4-0.5,0.7-0.7s0.6-0.2,1-0.2
		c0.6,0,1.1,0.2,1.4,0.5s0.5,0.8,0.5,1.5v3.5H50.1z"/>
	<path id="XMLID_763_" class="st1" d="M54.8,45.4c-0.8,0-1.4-0.2-1.9-0.7s-0.7-1.2-0.7-2c0-0.9,0.2-1.5,0.6-2.1s1-0.8,1.7-0.8
		s1.2,0.2,1.6,0.7s0.6,1,0.6,1.7v0.5H53c0,0.6,0.2,1.1,0.5,1.4s0.7,0.5,1.3,0.5s1.1-0.1,1.7-0.4V45c-0.3,0.1-0.6,0.2-0.8,0.3
		S55.2,45.4,54.8,45.4z M54.6,40.5c-0.4,0-0.8,0.1-1,0.4s-0.4,0.7-0.5,1.2h2.8c0-0.5-0.1-0.9-0.3-1.2S55,40.5,54.6,40.5z"/>
	<path id="XMLID_766_" class="st1" d="M61.8,45.3v-3.5c0-0.4-0.1-0.8-0.3-1s-0.5-0.3-0.9-0.3c-0.6,0-1,0.2-1.2,0.5S59,41.8,59,42.5
		v2.8h-0.8v-5.4h0.7l0.1,0.7l0,0c0.2-0.3,0.4-0.5,0.7-0.6s0.6-0.2,1-0.2c0.6,0,1.1,0.2,1.5,0.5s0.5,0.8,0.5,1.5v3.5H61.8z"/>
	<path id="XMLID_768_" class="st1" d="M66,44.7c0.1,0,0.3,0,0.4,0s0.2,0,0.3-0.1v0.6c-0.1,0-0.2,0.1-0.4,0.1s-0.3,0-0.5,0
		c-1,0-1.6-0.5-1.6-1.6v-3.2h-0.8v-0.4l0.8-0.3l0.3-1.1H65v1.2h1.6v0.6H65v3.1c0,0.3,0.1,0.6,0.2,0.7S65.7,44.7,66,44.7z"/>
	<path id="XMLID_770_" class="st1" d="M8.3,54.6H6.9v4.7H6.1v-4.7h-1v-0.4l1-0.3v-0.3c0-1.3,0.6-2,1.7-2c0.3,0,0.6,0.1,1,0.2
		l-0.2,0.6c-0.3-0.1-0.6-0.2-0.8-0.2c-0.3,0-0.5,0.1-0.7,0.3s-0.2,0.5-0.2,1v0.3h1.4V54.6z"/>
	<path id="XMLID_772_" class="st1" d="M11.5,59.4c-0.8,0-1.4-0.2-1.9-0.7s-0.7-1.2-0.7-2c0-0.9,0.2-1.5,0.6-2.1s1-0.8,1.7-0.8
		s1.2,0.2,1.6,0.7s0.6,1,0.6,1.7v0.5H9.8c0,0.6,0.2,1.1,0.5,1.4s0.7,0.5,1.3,0.5s1.1-0.1,1.7-0.4V59c-0.3,0.1-0.6,0.2-0.8,0.3
		S11.9,59.4,11.5,59.4z M11.3,54.5c-0.4,0-0.8,0.1-1,0.4s-0.4,0.7-0.5,1.2h2.8c0-0.5-0.1-0.9-0.3-1.2S11.7,54.5,11.3,54.5z"/>
	<path id="XMLID_775_" class="st1" d="M17.1,59.4c-0.8,0-1.4-0.2-1.9-0.7s-0.7-1.2-0.7-2c0-0.9,0.2-1.5,0.6-2.1s1-0.8,1.7-0.8
		c0.7,0,1.2,0.2,1.6,0.7s0.6,1,0.6,1.7v0.5h-3.7c0,0.6,0.2,1.1,0.5,1.4c0.3,0.3,0.7,0.5,1.3,0.5s1.1-0.1,1.7-0.4V59
		c-0.3,0.1-0.6,0.2-0.8,0.3S17.5,59.4,17.1,59.4z M16.9,54.5c-0.4,0-0.8,0.1-1,0.4c-0.3,0.3-0.4,0.7-0.5,1.2h2.8
		c0-0.5-0.1-0.9-0.3-1.2S17.3,54.5,16.9,54.5z"/>
	<path id="XMLID_778_" class="st1" d="M25.7,59.3h-0.8v-5.1c0-0.4,0-0.8,0-1.2c-0.1,0.1-0.1,0.1-0.2,0.2s-0.5,0.4-1.2,1l-0.4-0.6
		l1.9-1.5h0.7V59.3z"/>
	<path id="XMLID_780_" class="st1" d="M31.3,54.3c0,0.7-0.1,1.3-0.4,1.7s-0.6,0.6-1.1,0.6S29,56.4,28.7,56s-0.4-0.9-0.4-1.7
		c0-0.7,0.1-1.3,0.4-1.7s0.6-0.6,1.1-0.6s0.8,0.2,1.1,0.6S31.3,53.6,31.3,54.3z M29.1,54.3c0,0.6,0.1,1,0.2,1.2s0.3,0.4,0.6,0.4
		c0.5,0,0.8-0.6,0.8-1.7c0-1.1-0.3-1.7-0.8-1.7c-0.3,0-0.5,0.1-0.6,0.4S29.1,53.7,29.1,54.3z M34.4,52.1l-4,7.1h-0.7l4-7.1H34.4z
		 M35.6,57.1c0,0.7-0.1,1.3-0.4,1.7s-0.6,0.6-1.1,0.6s-0.8-0.2-1.1-0.6s-0.4-0.9-0.4-1.7c0-0.7,0.1-1.3,0.4-1.7s0.6-0.6,1.1-0.6
		s0.8,0.2,1.1,0.6S35.6,56.4,35.6,57.1z M33.4,57.1c0,0.6,0.1,1,0.2,1.2s0.3,0.4,0.6,0.4s0.5-0.1,0.6-0.4S35,57.6,35,57
		s-0.1-1-0.2-1.2s-0.3-0.4-0.6-0.4s-0.5,0.1-0.6,0.4S33.4,56.6,33.4,57.1z"/>
</g>
<g id="XMLID_1_">
	<path id="XMLID_3_" class="st0" d="M223.8,115c0,0.6-0.2,1.1-0.7,1.5s-1.1,0.5-1.9,0.5c-0.8,0-1.5-0.1-2-0.3v-0.8
		c0.3,0.1,0.6,0.2,1,0.3c0.3,0.1,0.7,0.1,1,0.1c0.6,0,1-0.1,1.3-0.3s0.4-0.5,0.4-0.9c0-0.2,0-0.5-0.1-0.6c-0.1-0.2-0.3-0.3-0.5-0.4
		s-0.6-0.3-1.1-0.5c-0.7-0.2-1.1-0.5-1.4-0.8c-0.3-0.3-0.4-0.8-0.4-1.3c0-0.6,0.2-1,0.6-1.3c0.4-0.3,1-0.5,1.6-0.5
		c0.7,0,1.4,0.1,2,0.4l-0.3,0.7c-0.6-0.2-1.2-0.4-1.7-0.4c-0.4,0-0.8,0.1-1,0.3c-0.2,0.2-0.4,0.5-0.4,0.8c0,0.2,0,0.5,0.1,0.6
		c0.1,0.2,0.2,0.3,0.5,0.4s0.5,0.3,1,0.4c0.7,0.3,1.3,0.6,1.5,0.9C223.7,114.1,223.8,114.5,223.8,115z"/>
	<path id="XMLID_5_" class="st0" d="M225.1,110.1c0-0.2,0-0.3,0.1-0.4s0.2-0.1,0.3-0.1s0.2,0,0.3,0.1s0.1,0.2,0.1,0.4
		c0,0.2,0,0.3-0.1,0.4s-0.2,0.1-0.3,0.1s-0.3,0-0.3-0.1C225.1,110.4,225.1,110.3,225.1,110.1z M225.9,116.9h-0.8v-5.4h0.8V116.9z"/>
	<path id="XMLID_8_" class="st0" d="M231.3,116.9v-3.5c0-0.4-0.1-0.8-0.3-1s-0.5-0.3-0.9-0.3c-0.6,0-1,0.2-1.2,0.5s-0.4,0.8-0.4,1.5
		v2.8h-0.8v-5.4h0.7l0.1,0.7l0,0c0.2-0.3,0.4-0.5,0.7-0.6s0.6-0.2,1-0.2c0.6,0,1.1,0.2,1.5,0.5c0.3,0.3,0.5,0.8,0.5,1.5v3.5H231.3z"
		/>
	<path id="XMLID_13_" class="st0" d="M238.2,111.6v0.5l-1,0.1c0.1,0.1,0.2,0.3,0.2,0.4c0.1,0.2,0.1,0.4,0.1,0.6
		c0,0.5-0.2,0.9-0.5,1.3s-0.8,0.5-1.5,0.5c-0.2,0-0.3,0-0.4,0c-0.3,0.2-0.5,0.4-0.5,0.7c0,0.1,0.1,0.3,0.2,0.3
		c0.1,0.1,0.3,0.1,0.6,0.1h0.9c0.6,0,1,0.1,1.3,0.4s0.5,0.6,0.5,1.1c0,0.6-0.2,1-0.7,1.4c-0.5,0.3-1.2,0.5-2.1,0.5
		c-0.7,0-1.2-0.1-1.6-0.4c-0.4-0.3-0.6-0.6-0.6-1.1c0-0.3,0.1-0.6,0.3-0.8c0.2-0.2,0.5-0.4,0.9-0.5c-0.1-0.1-0.3-0.2-0.3-0.3
		c-0.1-0.1-0.1-0.3-0.1-0.5s0.1-0.4,0.2-0.5s0.3-0.3,0.5-0.4c-0.3-0.1-0.5-0.3-0.7-0.6s-0.3-0.6-0.3-0.9c0-0.6,0.2-1,0.5-1.4
		s0.8-0.5,1.5-0.5c0.3,0,0.5,0,0.8,0.1L238.2,111.6L238.2,111.6z M233.9,117.8c0,0.3,0.1,0.5,0.4,0.7c0.2,0.1,0.6,0.2,1,0.2
		c0.7,0,1.2-0.1,1.5-0.3c0.3-0.2,0.5-0.5,0.5-0.8s-0.1-0.5-0.3-0.6s-0.5-0.2-1-0.2h-1c-0.4,0-0.7,0.1-0.9,0.3
		S233.9,117.5,233.9,117.8z M234.4,113.3c0,0.4,0.1,0.7,0.3,0.8c0.2,0.2,0.5,0.3,0.9,0.3c0.8,0,1.2-0.4,1.2-1.2
		c0-0.8-0.4-1.2-1.2-1.2c-0.4,0-0.7,0.1-0.9,0.3S234.4,112.9,234.4,113.3z"/>
	<path id="XMLID_21_" class="st0" d="M240,111.6v3.5c0,0.4,0.1,0.8,0.3,1s0.5,0.3,0.9,0.3c0.6,0,1-0.2,1.2-0.5
		c0.3-0.3,0.4-0.8,0.4-1.5v-2.8h0.8v5.4H243l-0.1-0.7l0,0c-0.2,0.3-0.4,0.5-0.7,0.6s-0.6,0.2-1,0.2c-0.7,0-1.1-0.2-1.5-0.5
		c-0.3-0.3-0.5-0.8-0.5-1.5v-3.5H240z"/>
	<path id="XMLID_25_" class="st0" d="M246.2,116.9h-0.8v-7.6h0.8V116.9z"/>
	<path id="XMLID_29_" class="st0" d="M251.2,116.9l-0.2-0.8l0,0c-0.3,0.3-0.5,0.6-0.8,0.7s-0.6,0.2-1,0.2c-0.5,0-0.9-0.1-1.2-0.4
		s-0.5-0.7-0.5-1.2c0-1.1,0.9-1.6,2.6-1.7h0.9v-0.3c0-0.4-0.1-0.7-0.3-0.9s-0.5-0.3-0.9-0.3s-1,0.1-1.5,0.4l-0.2-0.6
		c0.3-0.1,0.6-0.3,0.9-0.3c0.3-0.1,0.6-0.1,0.9-0.1c0.6,0,1.1,0.1,1.4,0.4s0.5,0.7,0.5,1.4v3.7h-0.6V116.9z M249.4,116.3
		c0.5,0,0.9-0.1,1.2-0.4s0.4-0.7,0.4-1.2v-0.5h-0.8c-0.6,0-1.1,0.1-1.4,0.3c-0.3,0.2-0.4,0.5-0.4,0.8s0.1,0.5,0.3,0.7
		C248.8,116.3,249.1,116.3,249.4,116.3z"/>
	<path id="XMLID_35_" class="st0" d="M255.9,111.5c0.2,0,0.5,0,0.6,0.1l-0.1,0.8c-0.2,0-0.4-0.1-0.6-0.1c-0.4,0-0.8,0.2-1.1,0.5
		s-0.5,0.8-0.5,1.3v2.9h-0.8v-5.4h0.7l0.1,1l0,0c0.2-0.3,0.4-0.6,0.7-0.8C255.3,111.5,255.6,111.5,255.9,111.5z"/>
	<path id="XMLID_39_" class="st0" d="M261,116.9h-0.8v-7.6h0.8V116.9z"/>
	<path id="XMLID_57_" class="st0" d="M262.6,110.1c0-0.2,0-0.3,0.1-0.4s0.2-0.1,0.3-0.1c0.1,0,0.2,0,0.3,0.1s0.1,0.2,0.1,0.4
		c0,0.2,0,0.3-0.1,0.4s-0.2,0.1-0.3,0.1c-0.1,0-0.3,0-0.3-0.1S262.6,110.3,262.6,110.1z M263.5,116.9h-0.8v-5.4h0.8V116.9z"/>
	<path id="XMLID_63_" class="st0" d="M272.1,116.9v-3.5c0-0.4-0.1-0.7-0.3-1c-0.2-0.2-0.5-0.3-0.8-0.3c-0.5,0-0.9,0.1-1.1,0.4
		s-0.4,0.7-0.4,1.3v3h-0.8v-3.5c0-0.4-0.1-0.7-0.3-1c-0.2-0.2-0.5-0.3-0.9-0.3c-0.5,0-0.9,0.2-1.1,0.5s-0.4,0.8-0.4,1.5v2.8h-0.8
		v-5.4h0.7l0.1,0.7l0,0c0.2-0.3,0.4-0.5,0.6-0.6s0.6-0.2,0.9-0.2c0.8,0,1.4,0.3,1.6,0.9l0,0c0.2-0.3,0.4-0.5,0.7-0.7
		c0.3-0.2,0.6-0.2,1-0.2c0.6,0,1.1,0.2,1.4,0.5s0.5,0.8,0.5,1.5v3.5L272.1,116.9L272.1,116.9z"/>
	<path id="XMLID_67_" class="st0" d="M274.5,110.1c0-0.2,0-0.3,0.1-0.4s0.2-0.1,0.3-0.1c0.1,0,0.2,0,0.3,0.1s0.1,0.2,0.1,0.4
		c0,0.2,0,0.3-0.1,0.4s-0.2,0.1-0.3,0.1c-0.1,0-0.3,0-0.3-0.1C274.5,110.4,274.5,110.3,274.5,110.1z M275.4,116.9h-0.8v-5.4h0.8
		V116.9z"/>
	<path id="XMLID_74_" class="st0" d="M278.8,116.3c0.1,0,0.3,0,0.4,0s0.2,0,0.3-0.1v0.6c-0.1,0-0.2,0.1-0.4,0.1c-0.2,0-0.3,0-0.5,0
		c-1,0-1.6-0.5-1.6-1.6v-3.2h-0.8v-0.4l0.8-0.3l0.3-1.1h0.5v1.2h1.6v0.6h-1.6v3.1c0,0.3,0.1,0.6,0.2,0.7
		C278.3,116.2,278.5,116.3,278.8,116.3z"/>
	<path id="XMLID_77_" class="st0" d="M282.9,117c-0.8,0-1.4-0.2-1.9-0.7s-0.7-1.2-0.7-2c0-0.9,0.2-1.5,0.6-2.1s1-0.8,1.7-0.8
		s1.2,0.2,1.6,0.7c0.4,0.4,0.6,1,0.6,1.7v0.5h-3.7c0,0.6,0.2,1.1,0.5,1.4s0.7,0.5,1.3,0.5c0.6,0,1.1-0.1,1.7-0.4v0.7
		c-0.3,0.1-0.6,0.2-0.8,0.3S283.2,117,282.9,117z M282.6,112.1c-0.4,0-0.8,0.1-1,0.4c-0.3,0.3-0.4,0.7-0.5,1.2h2.8
		c0-0.5-0.1-0.9-0.3-1.2C283.4,112.3,283.1,112.1,282.6,112.1z"/>
	<path id="XMLID_80_" class="st0" d="M289.9,116.2L289.9,116.2c-0.4,0.5-1,0.8-1.7,0.8s-1.2-0.2-1.6-0.7s-0.6-1.2-0.6-2
		c0-0.9,0.2-1.6,0.6-2.1s0.9-0.7,1.6-0.7s1.3,0.3,1.7,0.8h0.1v-0.4v-0.4v-2.2h0.8v7.6H290L289.9,116.2z M288.2,116.3
		c0.6,0,1-0.2,1.2-0.5s0.4-0.8,0.4-1.5v-0.2c0-0.8-0.1-1.3-0.4-1.6c-0.3-0.3-0.7-0.5-1.2-0.5s-0.8,0.2-1.1,0.6
		c-0.3,0.4-0.4,0.9-0.4,1.6s0.1,1.2,0.4,1.5C287.4,116.1,287.8,116.3,288.2,116.3z"/>
	<path id="XMLID_83_" class="st0" d="M297.4,117c-0.3,0-0.7-0.1-1-0.2s-0.5-0.3-0.7-0.6h-0.1c0,0.3,0.1,0.6,0.1,0.9v2.2h-0.8v-7.8
		h0.7l0.1,0.7l0,0c0.2-0.3,0.5-0.5,0.7-0.6c0.3-0.1,0.6-0.2,1-0.2c0.7,0,1.3,0.2,1.6,0.7c0.4,0.5,0.6,1.2,0.6,2c0,0.9-0.2,1.6-0.6,2
		C298.7,116.8,298.1,117,297.4,117z M297.3,112.1c-0.5,0-0.9,0.2-1.2,0.5s-0.4,0.8-0.4,1.4v0.2c0,0.8,0.1,1.3,0.4,1.6
		c0.3,0.3,0.7,0.5,1.2,0.5s0.8-0.2,1.1-0.6c0.3-0.4,0.4-0.9,0.4-1.5c0-0.7-0.1-1.2-0.4-1.5S297.8,112.1,297.3,112.1z"/>
	<path id="XMLID_86_" class="st0" d="M304.4,116.9l-0.2-0.8l0,0c-0.3,0.3-0.5,0.6-0.8,0.7s-0.6,0.2-1,0.2c-0.5,0-0.9-0.1-1.2-0.4
		s-0.5-0.7-0.5-1.2c0-1.1,0.9-1.6,2.6-1.7h0.9v-0.3c0-0.4-0.1-0.7-0.3-0.9s-0.5-0.3-0.9-0.3s-1,0.1-1.5,0.4l-0.2-0.6
		c0.3-0.1,0.6-0.3,0.9-0.3c0.3-0.1,0.6-0.1,0.9-0.1c0.6,0,1.1,0.1,1.4,0.4s0.5,0.7,0.5,1.4v3.7h-0.6V116.9z M302.5,116.3
		c0.5,0,0.9-0.1,1.2-0.4c0.3-0.3,0.4-0.7,0.4-1.2v-0.5h-0.8c-0.6,0-1.1,0.1-1.4,0.3c-0.3,0.2-0.4,0.5-0.4,0.8s0.1,0.5,0.3,0.7
		C302,116.3,302.2,116.3,302.5,116.3z"/>
	<path id="XMLID_89_" class="st0" d="M309.1,111.5c0.2,0,0.5,0,0.6,0.1l-0.1,0.8c-0.2,0-0.4-0.1-0.6-0.1c-0.4,0-0.8,0.2-1.1,0.5
		s-0.5,0.8-0.5,1.3v2.9h-0.8v-5.4h0.7l0.1,1l0,0c0.2-0.3,0.4-0.6,0.7-0.8C308.4,111.5,308.7,111.5,309.1,111.5z"/>
	<path id="XMLID_91_" class="st0" d="M312.4,116.3c0.1,0,0.3,0,0.4,0s0.2,0,0.3-0.1v0.6c-0.1,0-0.2,0.1-0.4,0.1c-0.2,0-0.3,0-0.5,0
		c-1,0-1.6-0.5-1.6-1.6v-3.2H310v-0.4l0.8-0.3l0.3-1.1h0.5v1.2h1.6v0.6h-1.6v3.1c0,0.3,0.1,0.6,0.2,0.7
		C312,116.2,312.2,116.3,312.4,116.3z"/>
	<path id="XMLID_93_" class="st0" d="M317.9,116.9v-3.5c0-0.4-0.1-0.8-0.3-1s-0.5-0.3-0.9-0.3c-0.6,0-1,0.2-1.2,0.5
		s-0.4,0.8-0.4,1.5v2.8h-0.8v-5.4h0.7l0.1,0.7l0,0c0.2-0.3,0.4-0.5,0.7-0.6c0.3-0.1,0.6-0.2,1-0.2c0.6,0,1.1,0.2,1.5,0.5
		c0.3,0.3,0.5,0.8,0.5,1.5v3.5H317.9z"/>
	<path id="XMLID_95_" class="st0" d="M322.6,117c-0.8,0-1.4-0.2-1.9-0.7s-0.7-1.2-0.7-2c0-0.9,0.2-1.5,0.6-2.1s1-0.8,1.7-0.8
		s1.2,0.2,1.6,0.7c0.4,0.4,0.6,1,0.6,1.7v0.5h-3.7c0,0.6,0.2,1.1,0.5,1.4s0.7,0.5,1.3,0.5c0.6,0,1.1-0.1,1.7-0.4v0.7
		c-0.3,0.1-0.6,0.2-0.8,0.3S323,117,322.6,117z M322.4,112.1c-0.4,0-0.8,0.1-1,0.4c-0.3,0.3-0.4,0.7-0.5,1.2h2.8
		c0-0.5-0.1-0.9-0.3-1.2C323.2,112.3,322.8,112.1,322.4,112.1z"/>
	<path id="XMLID_98_" class="st0" d="M328.4,111.5c0.2,0,0.5,0,0.6,0.1l-0.1,0.8c-0.2,0-0.4-0.1-0.6-0.1c-0.4,0-0.8,0.2-1.1,0.5
		s-0.5,0.8-0.5,1.3v2.9H326v-5.4h0.7l0.1,1l0,0c0.2-0.3,0.4-0.6,0.7-0.8C327.8,111.5,328.1,111.5,328.4,111.5z"/>
</g>
</svg>
