<?xml version="1.0" encoding="utf-8"?>
<!-- Generator: Adobe Illustrator 19.0.0, SVG Export Plug-In . SVG Version: 6.00 Build 0)  -->
<svg version="1.1" id="图层_1" xmlns="http://www.w3.org/2000/svg" xmlns:xlink="http://www.w3.org/1999/xlink" x="0px" y="0px"
	 viewBox="2 235.9 600 370" style="enable-background:new 2 235.9 600 370;" xml:space="preserve">
<style type="text/css">
	.st0{fill:#997817;}
	.st1{fill:#E0B153;}
	.st2{fill:#073B4C;}
	.st3{fill:#FFFFFF;}
</style>
<g>
	<g>
		<rect id="XMLID_637_" x="188.3" y="236" class="st0" width="0.9" height="0.8"/>
	</g>
	<g>
		<path class="st0" d="M366.2,236.8h-1.7V236h1.7V236.8z M362.7,236.8H361V236h1.7V236.8z M359.3,236.8h-1.7V236h1.7V236.8z
			 M355.7,236.8H354V236h1.7V236.8z M352.3,236.8h-1.7V236h1.7V236.8z M348.8,236.8h-1.7V236h1.7V236.8z M345.3,236.8h-1.7V236h1.7
			V236.8z M341.9,236.8h-1.7V236h1.7V236.8z M338.4,236.8h-1.7V236h1.7V236.8z M334.9,236.8h-1.7V236h1.7V236.8z M331.4,236.8h-1.7
			V236h1.7V236.8z M328,236.8h-1.7V236h1.7V236.8z M324.5,236.8h-1.7V236h1.7V236.8z M321.1,236.8h-1.7V236h1.7V236.8z M317.6,236.8
			h-1.7V236h1.7V236.8z M314.1,236.8h-1.7V236h1.7V236.8z M310.6,236.8h-1.7V236h1.7V236.8z M307.2,236.8h-1.7V236h1.7V236.8z
			 M303.7,236.8H302V236h1.7V236.8z M300.3,236.8h-1.7V236h1.7V236.8z M296.7,236.8H295V236h1.7V236.8z M293.3,236.8h-1.7V236h1.7
			V236.8z M289.8,236.8h-1.7V236h1.7V236.8z M286.4,236.8h-1.7V236h1.7V236.8z M282.9,236.8h-1.7V236h1.7V236.8z M279.5,236.8h-1.7
			V236h1.7V236.8z M275.9,236.8h-1.7V236h1.7V236.8z M272.5,236.8h-1.7V236h1.7V236.8z M269,236.8h-1.7V236h1.7V236.8z M265.6,236.8
			h-1.7V236h1.7V236.8z M262.1,236.8h-1.7V236h1.7V236.8z M258.6,236.8h-1.7V236h1.7V236.8z M255.1,236.8h-1.7V236h1.7V236.8z
			 M251.6,236.8h-1.7V236h1.7V236.8z M248.2,236.8h-1.7V236h1.7V236.8z M244.7,236.8H243V236h1.7V236.8z M241.3,236.8h-1.7V236h1.7
			V236.8z M237.7,236.8H236V236h1.7V236.8z M234.3,236.8h-1.7V236h1.7V236.8z M230.8,236.8h-1.7V236h1.7V236.8z M227.4,236.8h-1.7
			V236h1.7V236.8z M223.9,236.8h-1.7V236h1.7V236.8z M220.5,236.8h-1.7V236h1.7V236.8z M216.9,236.8h-1.7V236h1.7V236.8z
			 M213.5,236.8h-1.7V236h1.7V236.8z M210,236.8h-1.7V236h1.7V236.8z M206.6,236.8h-1.7V236h1.7V236.8z M203.1,236.8h-1.7V236h1.7
			V236.8z M199.7,236.8H198V236h1.7V236.8z M196.1,236.8h-1.7V236h1.7V236.8z M192.7,236.8H191V236h1.7V236.8z"/>
	</g>
	<g>
		<rect id="XMLID_585_" x="367.9" y="236" class="st0" width="0.9" height="0.8"/>
	</g>
</g>
<g>
	<path id="XMLID_584_" class="st0" d="M189.1,268.1h-0.7"/>
</g>
<g>
	<path id="XMLID_583_" class="st1" d="M133,569.9h292.6c1.9,0,3.4,1.6,3.4,3.4v29c0,1.9-1.6,3.4-3.4,3.4H133c-1.9,0-3.4-1.6-3.4-3.4
		v-29C129.6,571.5,131.1,569.9,133,569.9z"/>
</g>
<g>
	<path id="XMLID_582_" class="st2" d="M368.1,535.5h0.7V549h-0.7V535.5z"/>
</g>
<g>
	<path id="XMLID_581_" class="st2" d="M368.8,535.5h-0.7V521h0.7V535.5z"/>
</g>
<g>
	<path id="XMLID_580_" class="st2" d="M373.6,525.9l-0.5,0.5l-4.7-4.9l-4.7,4.9l-0.5-0.5l5.3-5.4L373.6,525.9z"/>
</g>
<g>
	<path id="XMLID_579_" class="st2" d="M188.4,535.5h0.7v14.1h-0.7V535.5z"/>
</g>
<g>
	<path id="XMLID_578_" class="st2" d="M183.5,545.1l0.5-0.5l4.7,4.9l4.7-4.9l0.5,0.5l-5.3,5.4L183.5,545.1z"/>
</g>
<g>
	<path id="XMLID_577_" class="st2" d="M189.1,535.5h-0.7V522h0.7V535.5z"/>
</g>
<g>
	<path id="XMLID_576_" class="st1" d="M133,472h292.6c1.9,0,3.4,1.6,3.4,3.4v29c0,1.9-1.6,3.4-3.4,3.4H133c-1.9,0-3.4-1.6-3.4-3.4
		v-29C129.6,473.5,131.1,472,133,472z"/>
</g>
<g>
	<path id="XMLID_575_" class="st2" d="M368.1,437.6h0.7v13.5h-0.7V437.6z"/>
</g>
<g>
	<path id="XMLID_574_" class="st2" d="M368.8,437.6h-0.7v-14h0.7V437.6z"/>
</g>
<g>
	<path id="XMLID_573_" class="st2" d="M373.6,428.1l-0.5,0.5l-4.7-4.9l-4.7,4.9l-0.5-0.5l5.3-5.4L373.6,428.1z"/>
</g>
<g>
	<path id="XMLID_572_" class="st2" d="M188.4,437.6h0.7v14h-0.7V437.6z"/>
</g>
<g>
	<path id="XMLID_571_" class="st2" d="M183.5,447.2l0.5-0.5l4.7,4.9l4.7-4.9l0.5,0.5l-5.3,5.4L183.5,447.2z"/>
</g>
<g>
	<path id="XMLID_570_" class="st2" d="M189.1,437.6h-0.7v-13.5h0.7V437.6z"/>
</g>
<g>
	<path id="XMLID_569_" class="st1" d="M132.2,368h292.6c1.9,0,3.4,1.6,3.4,3.4v29.1c0,1.9-1.6,3.4-3.4,3.4H132.2
		c-1.9,0-3.4-1.6-3.4-3.4v-29C128.8,369.6,130.3,368,132.2,368z"/>
</g>
<g>
	<path id="XMLID_568_" class="st2" d="M367.3,333.7h0.7v13.5h-0.7V333.7z"/>
</g>
<g>
	<path id="XMLID_567_" class="st2" d="M368,333.7h-0.7v-14.4h0.7V333.7z"/>
</g>
<g>
	<path id="XMLID_566_" class="st2" d="M372.9,324.1l-0.5,0.5l-4.7-4.9l-4.7,4.9l-0.5-0.5l5.3-5.4L372.9,324.1z"/>
</g>
<g>
	<path id="XMLID_565_" class="st2" d="M187.6,333.7h0.7v14h-0.7V333.7z"/>
</g>
<g>
	<path id="XMLID_564_" class="st2" d="M182.7,343.3l0.5-0.5l4.7,4.9l4.7-4.9l0.5,0.5l-5.3,5.4L182.7,343.3z"/>
</g>
<g>
	<path id="XMLID_563_" class="st2" d="M188.3,333.7h-0.7v-14h0.7V333.7z"/>
</g>
<g>
	<path id="XMLID_562_" class="st2" d="M193.2,324.1l-0.5,0.5l-4.7-4.9l-4.7,4.9l-0.5-0.5l5.3-5.4L193.2,324.1z"/>
</g>
<g>
	<g>
		<rect id="XMLID_561_" x="188.4" y="236.2" class="st0" width="0.7" height="0.9"/>
	</g>
	<g>
		<path class="st0" d="M189.1,266.1h-0.7v-1.8h0.7V266.1z M189.1,262.5h-0.7v-1.8h0.7V262.5z M189.1,258.9h-0.7v-1.8h0.7V258.9z
			 M189.1,255.2h-0.7v-1.8h0.7V255.2z M189.1,251.6h-0.7v-1.8h0.7V251.6z M189.1,247.9h-0.7v-1.8h0.7V247.9z M189.1,244.3h-0.7v-1.8
			h0.7V244.3z M189.1,240.7h-0.7v-1.9h0.7V240.7z"/>
	</g>
	<g>
		<rect id="XMLID_552_" x="188.4" y="267.9" class="st0" width="0.7" height="0.9"/>
	</g>
</g>
<g>
	<g>
		<rect id="XMLID_551_" x="368.2" y="236.2" class="st0" width="0.7" height="0.9"/>
	</g>
	<g>
		<path class="st0" d="M368.9,266.1h-0.7v-1.8h0.7V266.1z M368.9,262.5h-0.7v-1.8h0.7V262.5z M368.9,258.9h-0.7v-1.8h0.7V258.9z
			 M368.9,255.2h-0.7v-1.8h0.7V255.2z M368.9,251.6h-0.7v-1.8h0.7V251.6z M368.9,247.9h-0.7v-1.8h0.7V247.9z M368.9,244.3h-0.7v-1.8
			h0.7V244.3z M368.9,240.7h-0.7v-1.9h0.7V240.7z"/>
	</g>
	<g>
		<rect id="XMLID_542_" x="368.2" y="267.9" class="st0" width="0.7" height="0.9"/>
	</g>
</g>
<g>
	<path class="st0" d="M348,283.3c0-1,0.3-1.8,0.9-2.5c0.6-0.7,1.4-0.9,2.3-0.9s1.7,0.3,2.2,0.9s0.9,1.4,0.9,2.4s-0.3,1.8-0.9,2.5
		l-0.1,0.1l1.6,1.6h-2.1l-0.9-0.9c-0.3,0.1-0.6,0.1-0.9,0.1c-0.9,0-1.7-0.3-2.2-0.9C348.4,285.2,348,284.3,348,283.3z M349.5,283.3
		c0,0.6,0.2,1.1,0.4,1.6c0.3,0.4,0.7,0.6,1.3,0.6c0.5,0,0.9-0.2,1.3-0.6c0.3-0.4,0.4-0.9,0.4-1.6c0-0.7-0.2-1.2-0.4-1.6
		c-0.3-0.4-0.7-0.6-1.2-0.6s-0.9,0.2-1.3,0.6C349.6,282.1,349.5,282.7,349.5,283.3z"/>
	<path id="XMLID_539_" class="st0" d="M355.9,285.9c0-0.2,0.1-0.3,0.3-0.5c0.2-0.2,0.3-0.2,0.6-0.2c0.3,0,0.4,0.1,0.6,0.2
		c0.2,0.1,0.3,0.3,0.3,0.5c0,0.3-0.1,0.4-0.3,0.5c-0.2,0.1-0.3,0.2-0.6,0.2c-0.3,0-0.4-0.1-0.6-0.2
		C355.9,286.4,355.9,286.1,355.9,285.9z"/>
	<path class="st0" d="M368.3,286.5h-1.6l-0.5-1.5h-2.3l-0.5,1.5h-1.5l2.4-6.6h1.6L368.3,286.5z M365.9,283.9l-0.8-2.2
		c-0.1-0.2-0.1-0.3-0.1-0.6l0,0c0,0.2-0.1,0.3-0.1,0.5l-0.8,2.2L365.9,283.9L365.9,283.9z"/>
	<path id="XMLID_536_" class="st0" d="M372.6,283.1c-0.2-0.1-0.3-0.2-0.6-0.2c-0.3,0-0.5,0.1-0.8,0.3c-0.3,0.3-0.3,0.5-0.3,0.9v2.2
		h-1.4v-4.7h1.4v0.9l0,0c0.3-0.6,0.6-0.9,1.2-0.9c0.2,0,0.3,0,0.3,0.1L372.6,283.1L372.6,283.1z"/>
	<path id="XMLID_535_" class="st0" d="M376.7,286.4c-0.2,0.1-0.5,0.2-0.9,0.2c-0.9,0-1.5-0.5-1.5-1.6v-2.1h-0.8v-1h0.8v-1l1.4-0.3
		v1.3h1v1h-1v2c0,0.5,0.2,0.8,0.6,0.8c0.2,0,0.3-0.1,0.4-0.2V286.4z"/>
	<path id="XMLID_534_" class="st0" d="M382.6,286.5h-1.3v-2.6c0-0.7-0.3-1-0.8-1c-0.3,0-0.5,0.1-0.6,0.3s-0.3,0.4-0.3,0.8v2.7h-1.4
		v-6.9h1.4v2.9l0,0c0.3-0.5,0.9-0.8,1.5-0.8c1,0,1.6,0.6,1.6,1.9L382.6,286.5L382.6,286.5z"/>
	<path id="XMLID_533_" class="st0" d="M388.8,286.5h-1.4v-0.7l0,0c-0.3,0.5-0.9,0.9-1.5,0.9c-1.1,0-1.6-0.7-1.6-2v-2.8h1.4v2.7
		c0,0.7,0.3,1,0.8,1c0.3,0,0.5-0.1,0.7-0.3c0.2-0.2,0.3-0.4,0.3-0.8v-2.6h1.4L388.8,286.5L388.8,286.5z"/>
	<path id="XMLID_532_" class="st0" d="M393.7,283.1c-0.2-0.1-0.3-0.2-0.6-0.2c-0.3,0-0.5,0.1-0.8,0.3c-0.3,0.3-0.3,0.5-0.3,0.9v2.2
		h-1.3v-4.7h1.4v0.9l0,0c0.3-0.6,0.6-0.9,1.2-0.9c0.2,0,0.3,0,0.3,0.1L393.7,283.1L393.7,283.1z"/>
</g>
<g>
	<path id="XMLID_441_" class="st0" d="M175,319v6.6h-1.4v-5.2c-0.2,0.2-0.4,0.3-0.7,0.4c-0.3,0.2-0.5,0.2-0.8,0.3v-1.2
		c0.8-0.3,1.5-0.5,2-0.9C174.1,319,175,319,175,319z"/>
</g>
<g>
	<path id="XMLID_440_" class="st0" d="M173.4,430.4h2.8v1.1h-4.3V431c0-0.3,0.1-0.7,0.2-0.9c0.1-0.3,0.3-0.5,0.5-0.8
		c0.3-0.3,0.5-0.5,1-0.9c0.4-0.3,0.7-0.6,0.9-0.9s0.3-0.5,0.3-0.8c0-0.6-0.3-0.9-0.9-0.9c-0.6,0-1.1,0.3-1.6,0.7v-1.2
		c0.6-0.3,1.2-0.5,1.9-0.5s1.2,0.2,1.6,0.5c0.3,0.3,0.6,0.8,0.6,1.4c0,0.3-0.1,0.6-0.2,0.9c-0.1,0.3-0.3,0.5-0.5,0.8
		c-0.3,0.3-0.5,0.5-1,0.9c-0.4,0.3-0.8,0.5-0.9,0.7C173.7,430.2,173.4,430.2,173.4,430.4z"/>
</g>
<g>
	<path class="st0" d="M203.9,325.9c-0.9,0-1.6-0.3-2.2-0.9c-0.6-0.6-0.9-1.4-0.9-2.4s0.3-1.9,0.9-2.5c0.6-0.6,1.3-0.9,2.3-0.9
		c0.9,0,1.6,0.3,2.2,0.9s0.8,1.4,0.8,2.3c0,1.1-0.3,1.9-0.9,2.6c-0.2,0.2-0.3,0.3-0.6,0.5l1.6,1.2h-0.8l-1.2-0.9
		C204.8,325.8,204.3,325.9,203.9,325.9z M203.9,319.5c-0.8,0-1.4,0.3-1.9,0.9c-0.5,0.6-0.8,1.3-0.8,2.2s0.3,1.6,0.7,2.2
		c0.4,0.5,1.1,0.8,1.9,0.8s1.5-0.3,1.9-0.8s0.7-1.3,0.7-2.2s-0.3-1.6-0.7-2.2C205.3,319.7,204.8,319.5,203.9,319.5z"/>
</g>
<g>
	<path id="XMLID_375_" class="st0" d="M200.7,348.6v-0.4c0.8-0.3,1.1-0.9,1.1-1.6v-0.9h-1v-0.4h1v-1.4c0-0.6,0.2-1,0.4-1.4
		c0.3-0.3,0.7-0.5,1.2-0.5c0.3,0,0.6,0.1,0.9,0.2v0.4c-0.3-0.2-0.5-0.2-0.9-0.2s-0.7,0.2-0.9,0.4s-0.3,0.7-0.3,1.2v1.3h1.4v0.4h-1.4
		v0.8c0,0.9-0.3,1.5-0.9,1.8h3.4v0.3L200.7,348.6L200.7,348.6z"/>
</g>
<g>
	<path id="XMLID_374_" class="st0" d="M197.9,451.2v-0.4c0.8-0.3,1.1-0.9,1.1-1.6v-0.9h-1v-0.4h1v-1.3c0-0.6,0.2-1,0.4-1.4
		c0.3-0.3,0.7-0.5,1.2-0.5c0.3,0,0.6,0.1,0.9,0.2v0.4c-0.3-0.2-0.5-0.2-0.9-0.2s-0.7,0.2-0.9,0.4c-0.2,0.2-0.3,0.7-0.3,1.2v1.3h1.4
		v0.4h-1.4v0.8c0,0.9-0.3,1.5-0.9,1.8h3.4v0.3L197.9,451.2L197.9,451.2z"/>
</g>
<g>
	<path id="XMLID_373_" class="st0" d="M197.9,549.1v-0.4c0.8-0.3,1.1-0.9,1.1-1.6v-0.9h-1v-0.4h1v-1.3c0-0.6,0.2-1,0.4-1.4
		c0.3-0.3,0.7-0.5,1.2-0.5c0.3,0,0.6,0.1,0.9,0.2v0.4c-0.3-0.2-0.5-0.2-0.9-0.2s-0.7,0.2-0.9,0.4c-0.2,0.2-0.3,0.7-0.3,1.2v1.3h1.4
		v0.4h-1.4v0.8c0,0.9-0.3,1.5-0.9,1.8h3.4v0.3L197.9,549.1L197.9,549.1z"/>
</g>
<g>
	<path id="XMLID_372_" class="st0" d="M353.5,528.8v-0.4c0.8-0.3,1.1-0.9,1.1-1.6v-0.9h-1v-0.4h1v-1.3c0-0.6,0.2-1,0.4-1.4
		c0.2-0.4,0.7-0.5,1.2-0.5c0.3,0,0.6,0.1,0.9,0.2v0.4c-0.3-0.2-0.5-0.2-0.9-0.2s-0.7,0.2-0.9,0.4c-0.2,0.3-0.3,0.7-0.3,1.2v1.3h1.4
		v0.4H355v0.8c0,0.9-0.3,1.5-0.9,1.8h3.4v0.3L353.5,528.8L353.5,528.8z"/>
</g>
<g>
	<path id="XMLID_338_" class="st0" d="M172.1,527.3c0.4,0.3,0.9,0.5,1.6,0.5c0.3,0,0.7-0.1,0.9-0.3c0.2-0.2,0.3-0.4,0.3-0.7
		c0-0.3-0.1-0.5-0.3-0.7s-0.6-0.3-1.1-0.3h-0.6v-1h0.5c0.9,0,1.3-0.3,1.3-0.9c0-0.5-0.3-0.9-1-0.9c-0.4,0-0.9,0.2-1.3,0.4v-1.1
		c0.4-0.3,0.9-0.3,1.6-0.3s1.1,0.2,1.5,0.4c0.3,0.3,0.6,0.7,0.6,1.2c0,0.9-0.4,1.4-1.3,1.6l0,0c0.4,0.1,0.8,0.3,1.1,0.5
		c0.3,0.3,0.4,0.6,0.4,1c0,0.6-0.3,1.1-0.7,1.5c-0.4,0.3-1,0.5-1.8,0.5c-0.7,0-1.2-0.1-1.6-0.3L172.1,527.3L172.1,527.3z"/>
</g>
<g>
	<path class="st0" d="M384.9,522.2v4.1h0.9v0.9h-0.9v1.4h-1.2v-1.4h-2.9v-1c0.6-0.7,1.2-1.4,1.7-2.2s0.9-1.4,1.2-2L384.9,522.2
		L384.9,522.2z M382,526.4h1.7V524c-0.2,0.3-0.3,0.5-0.6,0.9C382.9,525.3,382.5,525.8,382,526.4z"/>
</g>
<g>
	<path id="XMLID_193_" class="st0" d="M353.5,431.5v-0.4c0.8-0.3,1.1-0.9,1.1-1.6v-0.9h-1v-0.4h1v-1.3c0-0.6,0.2-1,0.4-1.4
		s0.7-0.5,1.2-0.5c0.3,0,0.6,0.1,0.9,0.2v0.4c-0.3-0.2-0.5-0.2-0.9-0.2s-0.7,0.2-0.9,0.4c-0.2,0.3-0.3,0.7-0.3,1.2v1.3h1.4v0.4H355
		v0.8c0,0.9-0.3,1.5-0.9,1.8h3.4v0.3L353.5,431.5L353.5,431.5z"/>
</g>
<g>
	<path id="XMLID_192_" class="st0" d="M381.4,431.3v-1.2c0.4,0.3,0.9,0.4,1.5,0.4c0.3,0,0.7-0.1,0.9-0.3c0.2-0.2,0.3-0.4,0.3-0.8
		c0-0.7-0.4-1-1.4-1c-0.3,0-0.8,0-1.2,0.1l0.3-3.6h3.4v1.1h-2.3l-0.1,1.4c0.3,0,0.4,0,0.6,0c0.6,0,1.1,0.2,1.6,0.5
		c0.4,0.3,0.5,0.9,0.5,1.4c0,0.7-0.3,1.2-0.7,1.6c-0.4,0.4-1,0.6-1.8,0.6C382.3,431.6,381.8,431.5,381.4,431.3z"/>
</g>
<g>
	<path id="XMLID_147_" class="st0" d="M353.5,326.7v-0.3c0.8-0.3,1.1-0.9,1.1-1.6v-0.9h-1v-0.4h1v-1.3c0-0.6,0.2-1,0.4-1.4
		c0.2-0.4,0.7-0.5,1.2-0.5c0.3,0,0.6,0.1,0.9,0.2v0.4c-0.3-0.2-0.5-0.2-0.9-0.2s-0.7,0.2-0.9,0.4c-0.2,0.3-0.3,0.7-0.3,1.2v1.3h1.4
		v0.4H355v0.8c0,0.9-0.3,1.5-0.9,1.8h3.4v0.3h-4L353.5,326.7L353.5,326.7z"/>
</g>
<g>
	<path class="st0" d="M385.2,321.5c-0.3-0.2-0.7-0.3-1.1-0.3c-0.5,0-0.9,0.2-1.2,0.6c-0.3,0.4-0.4,0.9-0.4,1.6l0,0
		c0.3-0.5,0.8-0.7,1.4-0.7c0.5,0,0.9,0.2,1.3,0.6c0.3,0.4,0.5,0.9,0.5,1.5c0,0.7-0.2,1.2-0.6,1.6c-0.4,0.4-0.9,0.6-1.6,0.6
		c-0.8,0-1.3-0.3-1.7-0.8s-0.8-1.3-0.8-2.2c0-1.1,0.3-2,0.8-2.7c0.5-0.7,1.2-1,2.2-1c0.5,0,0.9,0.1,1.2,0.2V321.5L385.2,321.5z
		 M382.5,324.6c0,0.3,0.1,0.6,0.3,0.9c0.2,0.3,0.4,0.3,0.7,0.3c0.3,0,0.5-0.1,0.7-0.3c0.2-0.3,0.3-0.5,0.3-0.8
		c0-0.7-0.3-1.1-0.9-1.1c-0.3,0-0.5,0.1-0.7,0.3C382.7,324,382.5,324.3,382.5,324.6z"/>
</g>
<g>
	<path id="XMLID_3_" class="st0" d="M373.6,264l-0.5-0.5l-4.7,4.9l-4.7-4.9l-0.5,0.5l5.3,5.4L373.6,264z"/>
</g>
<g>
	<path id="XMLID_2_" class="st0" d="M183.5,264l0.5-0.5l4.7,4.9l4.7-4.9l0.5,0.5l-5.3,5.4L183.5,264z"/>
</g>
<g id="XMLID_1229_">
	<path id="XMLID_1276_" class="st3" d="M204.9,389.8c-1.1,0-2-0.3-2.7-1.1c-0.7-0.8-0.9-1.7-0.9-2.8c0-1.2,0.3-2.2,1-3
		c0.7-0.8,1.5-1.1,2.8-1.1c1,0,1.9,0.3,2.6,1.1c0.7,0.8,0.9,1.6,0.9,2.8c0,1.3-0.3,2.3-1,3c-0.2,0.3-0.4,0.4-0.7,0.6l1.9,1.5h-0.9
		l-1.5-1.2C205.9,389.7,205.5,389.8,204.9,389.8z M205,382.2c-0.9,0-1.6,0.3-2.2,0.9c-0.6,0.6-0.9,1.5-0.9,2.6s0.3,1.9,0.9,2.6
		c0.6,0.7,1.3,0.9,2.2,0.9s1.7-0.3,2.3-0.9s0.9-1.5,0.9-2.7c0-1.2-0.3-2-0.9-2.6C206.7,382.5,205.9,382.2,205,382.2z"/>
	<path id="XMLID_1275_" class="st3" d="M211.2,389.7c-0.1,0-0.3,0-0.3-0.1c-0.1-0.1-0.1-0.2-0.1-0.3s0-0.3,0.1-0.3
		c0.1-0.1,0.2-0.1,0.3-0.1s0.3,0,0.3,0.1c0.1,0.1,0.2,0.2,0.2,0.3s-0.1,0.3-0.2,0.3C211.4,389.7,211.3,389.7,211.2,389.7z"/>
	<path id="XMLID_1272_" class="st3" d="M219.4,389.6l-0.9-2.4h-3.4l-0.9,2.4h-0.6l2.9-7.8h0.5l2.9,7.8H219.4z M216.9,383.1
		c0-0.1-0.1-0.3-0.1-0.3c0-0.1-0.1-0.2-0.1-0.3l0,0c-0.1,0.3-0.1,0.4-0.2,0.6l-1.3,3.6h3L216.9,383.1z"/>
	<path id="XMLID_1269_" class="st3" d="M226.1,389.6l-1-2.3c-0.3-0.4-0.4-0.8-0.6-0.9c-0.2-0.2-0.5-0.3-0.8-0.3h-0.9v3.4h-0.5v-7.8
		h2.2c0.7,0,1.2,0.2,1.6,0.6c0.4,0.4,0.6,0.9,0.6,1.5s-0.2,1-0.5,1.4s-0.8,0.6-1.4,0.7l0,0c0.3,0.1,0.6,0.5,0.9,1.1l1.1,2.5h-0.6
		v0.1H226.1z M222.6,382.3v3.4h1.4c0.6,0,1-0.2,1.5-0.4c0.5-0.2,0.5-0.8,0.5-1.3s-0.2-0.9-0.5-1.2c-0.3-0.3-0.8-0.4-1.4-0.4h-1.5
		V382.3z"/>
	<path id="XMLID_1268_" class="st3" d="M231.2,382.3v7.3h-0.5v-7.3h-2.3v-0.5h5.1v0.5H231.2z"/>
	<path id="XMLID_1267_" class="st3" d="M240.6,389.6v-3.8h-4.5v3.8h-0.5v-7.8h0.5v3.6h4.5v-3.6h0.5v7.8H240.6z"/>
	<path id="XMLID_1266_" class="st3" d="M249.3,386.5c0,2.2-0.9,3.3-2.8,3.3c-1.7,0-2.7-1-2.7-3.1v-4.8h0.5v4.7
		c0,1.8,0.8,2.8,2.2,2.8c1.5,0,2.2-0.9,2.2-2.7v-4.8h0.5L249.3,386.5L249.3,386.5z"/>
	<path id="XMLID_1263_" class="st3" d="M256,389.6l-1-2.3c-0.3-0.4-0.4-0.8-0.6-0.9c-0.2-0.2-0.5-0.3-0.8-0.3h-0.9v3.4h-0.5v-7.8
		h2.2c0.7,0,1.2,0.2,1.6,0.6c0.4,0.4,0.6,0.9,0.6,1.5s-0.2,1-0.5,1.4c-0.3,0.4-0.8,0.6-1.4,0.7l0,0c0.3,0.1,0.6,0.5,0.9,1.1l1.1,2.5
		H256V389.6z M252.6,382.3v3.4h1.4c0.6,0,1-0.2,1.5-0.4c0.4-0.3,0.5-0.8,0.5-1.3s-0.2-0.9-0.5-1.2c-0.3-0.3-0.8-0.4-1.4-0.4h-1.5
		V382.3z"/>
	<path id="XMLID_1262_" class="st3" d="M263,389.6v-7.8h0.5v7.3h3.1v0.5H263z"/>
	<path id="XMLID_1261_" class="st3" d="M271,382.3v7.3h-0.5v-7.3h-2.2v-0.5h5.1v0.5H271z"/>
	<path id="XMLID_1258_" class="st3" d="M275.4,389.6v-7.8h2c1.3,0,2.3,0.3,2.9,0.9s1,1.5,1,2.8c0,1.2-0.3,2.2-1.1,2.9
		c-0.8,0.7-1.7,1.1-3,1.1h-1.8V389.6z M276,382.3v6.8h1.2c1.1,0,2.1-0.3,2.7-0.9s0.9-1.5,0.9-2.6c0-2.2-1.2-3.4-3.5-3.4H276V382.3z"
		/>
	<path id="XMLID_1253_" class="st3" d="M300.3,390.8c-2.4-0.4-3.9-1.4-4.6-2.8c-0.5,1.3-2,2.2-4.6,2.9c-0.1-0.2-0.2-0.3-0.3-0.6
		c2.3-0.5,3.8-1.4,4.4-2.7h-4.4v-0.5h1.3v-2.7h3.3v-0.9h0.5v0.9h3.3v2.7h1.3v0.5h-4.4c0.7,1.4,2.2,2.2,4.4,2.5
		C300.4,390.5,300.3,390.7,300.3,390.8z M297.3,381.2h0.5v1.2h2.7v0.5h-2.7v0.9h-0.5v-0.9h-3.2v0.9h-0.5v-0.9h-2.7v-0.5h2.7v-1.2
		h0.5v1.2h3.2V381.2z M295.4,387.2c0-0.3,0.1-0.9,0.1-2.2h-2.8v2.2H295.4z M296,385.1c0,0.9,0,1.6-0.1,2.2h2.8v-2.2H296z"/>
	<path id="XMLID_1248_" class="st3" d="M302.5,381.7h8.6v9.2h-0.5v-0.5h-7.5v0.5h-0.5L302.5,381.7L302.5,381.7z M303.1,382.2v7.7
		h7.5v-7.7H303.1z M304.2,385.5h2.4v-1.6H304v-0.5h5.8v0.5h-2.7v1.5h2.4v0.5h-2.4v2.2h2.8v0.5h-6.1v-0.5h2.8v-2.2h-2.4L304.2,385.5
		L304.2,385.5z M307.9,386.7l0.3-0.3c0.3,0.3,0.7,0.6,1,0.9l-0.4,0.3C308.5,387.4,308.2,387.1,307.9,386.7z"/>
	<path id="XMLID_1244_" class="st3" d="M315.7,390.9h-0.5v-5.4c-0.5,0.5-1,1.1-1.7,1.6c-0.1-0.2-0.3-0.3-0.3-0.4
		c1.4-1.1,2.4-2.3,3.3-3.7h-2.8v-0.5h3.2c0.3-0.4,0.5-0.9,0.7-1.4l0.5,0.2c-0.3,0.5-0.4,0.9-0.6,1.2h5.5v0.5h-5.8
		c-0.3,0.4-0.6,0.9-0.9,1.4h5.5v5.2c0,0.8-0.3,1.1-1.2,1.1c-0.3,0-0.9,0-1.5,0c0-0.3-0.1-0.4-0.2-0.6c0.4,0,0.9,0,1.5,0
		c0.3,0,0.5-0.1,0.6-0.2s0.2-0.3,0.2-0.6v-0.9h-5.3v2.5H315.7z M315.7,384.9v1.4h5.3v-1.4H315.7z M315.7,386.7v1.4h5.3v-1.4H315.7z"
		/>
	<path id="XMLID_1239_" class="st3" d="M327.7,387.6c0,0.9-0.3,1.5-1,1.5c-0.1,0-0.2,0-0.3,0c-0.1,0-0.1,0-0.2,0s-0.2,0-0.3,0
		c0-0.2-0.1-0.3-0.1-0.5c0.3,0,0.5,0,0.7,0c0.5,0,0.7-0.3,0.7-1c0-0.9-0.3-1.6-1-2.4l0.9-2.9h-1.7v8.7h-0.5v-9.2h2.8v0.5l-0.9,2.8
		C327.3,385.8,327.7,386.7,327.7,387.6z M328.4,381.7h4.6v4.6h-2.4c0.3,0.8,0.5,1.5,0.8,1.9c0.6-0.3,1.3-0.8,2.1-1.3l0.3,0.4
		c-0.7,0.4-1.4,0.9-2.1,1.3c0.4,0.6,1.3,1.1,2.3,1.7c-0.1,0.2-0.3,0.3-0.3,0.4c-2-0.9-3.2-2.4-3.6-4.5H329v3.7
		c0.7-0.3,1.3-0.7,1.7-0.9c0,0.2,0,0.4,0.1,0.6c-0.6,0.3-1.1,0.6-1.7,0.9c-0.2,0.1-0.3,0.2-0.5,0.3l-0.3-0.4
		c0.1-0.1,0.2-0.3,0.2-0.3c0-0.1,0.1-0.3,0.1-0.4v-8H328.4z M328.9,382.1v1.5h3.5v-1.5H328.9z M328.9,385.8h3.5v-1.5h-3.5V385.8z"/>
	<path id="XMLID_1235_" class="st3" d="M335.9,386.4c-0.1-0.2-0.3-0.3-0.4-0.5c1.5-1.1,2.7-2.5,3.4-4.2l0.6,0.3
		C338.6,383.7,337.4,385.2,335.9,386.4z M344,390.9c-0.3-0.3-0.5-0.6-0.7-0.9c-2.3,0.1-4.2,0.2-5.7,0.3c-0.4,0-0.7,0.1-1,0.1
		l-0.3-0.6c0.3-0.2,0.5-0.3,0.7-0.5c1-1.1,1.9-2.4,2.8-3.9l0.6,0.3c-0.9,1.5-1.9,2.8-2.9,4c0.2,0,0.3,0,0.7,0
		c1.9-0.1,3.5-0.2,4.8-0.2c-0.4-0.5-0.9-1.2-1.7-2.1l0.4-0.3c0.9,1,1.9,2.2,2.9,3.4L344,390.9z M341.3,381.7l0.5-0.2
		c0.7,1.8,1.8,3.1,3.4,4.1c-0.2,0.2-0.3,0.3-0.4,0.5C343.1,385,342,383.4,341.3,381.7z"/>
	<path id="XMLID_1230_" class="st3" d="M346.7,383.7h7.5v0.5h-7.5V383.7z M347.3,382.2v-0.5h8.5v7.7c0,0.9-0.4,1.5-1.3,1.5
		c-0.3,0-0.4,0-0.7,0c-0.1,0-0.3,0-0.4,0c-0.2,0-0.3,0-0.6,0c0-0.2-0.1-0.4-0.1-0.6c0.3,0,0.6,0,0.8,0c0.2,0,0.5,0,0.9,0
		c0.6,0,0.9-0.3,0.9-0.9v-7.1L347.3,382.2L347.3,382.2z M347.7,385.7h5.3v3.4h-4.7v0.8h-0.5L347.7,385.7L347.7,385.7z M348.3,386.2
		v2.3h4.1v-2.3H348.3z"/>
</g>
<g id="XMLID_1181_">
	<path id="XMLID_1226_" class="st3" d="M186.3,493.4c-1.1,0-2-0.3-2.7-1.1s-0.9-1.7-0.9-2.8c0-1.2,0.3-2.2,1-3
		c0.7-0.8,1.5-1.1,2.8-1.1c1,0,1.9,0.3,2.6,1.1c0.7,0.8,0.9,1.6,0.9,2.8c0,1.3-0.3,2.3-1,3c-0.2,0.3-0.4,0.4-0.7,0.6l1.9,1.5h-0.9
		l-1.5-1.2C187.3,493.3,186.9,493.4,186.3,493.4z M186.4,485.9c-0.9,0-1.6,0.3-2.2,0.9c-0.6,0.6-0.9,1.5-0.9,2.6s0.3,1.9,0.9,2.6
		c0.6,0.7,1.3,0.9,2.2,0.9s1.7-0.3,2.3-0.9s0.9-1.5,0.9-2.7c0-1.1-0.3-2-0.9-2.6S187.3,485.9,186.4,485.9z"/>
	<path id="XMLID_1225_" class="st3" d="M192.6,493.3c-0.1,0-0.3,0-0.3-0.1c-0.1-0.1-0.1-0.2-0.1-0.3c0-0.1,0-0.3,0.1-0.3
		c0.1-0.1,0.2-0.1,0.3-0.1c0.2,0,0.3,0,0.3,0.1c0.1,0.1,0.2,0.2,0.2,0.3c0,0.1-0.1,0.3-0.2,0.3C192.8,493.3,192.7,493.3,192.6,493.3
		z"/>
	<path id="XMLID_1222_" class="st3" d="M200.8,493.3l-0.9-2.4h-3.4l-0.9,2.4H195l2.9-7.8h0.5l2.9,7.8H200.8z M198.3,486.7
		c0-0.1-0.1-0.3-0.1-0.3c0-0.1-0.1-0.2-0.1-0.3l0,0c-0.1,0.3-0.1,0.4-0.2,0.6l-1.3,3.6h3L198.3,486.7z"/>
	<path id="XMLID_1219_" class="st3" d="M207.5,493.3l-1-2.3c-0.3-0.4-0.4-0.8-0.6-0.9c-0.2-0.2-0.5-0.3-0.8-0.3h-0.9v3.4h-0.5v-7.8
		h2.2c0.7,0,1.2,0.2,1.6,0.6c0.4,0.4,0.6,0.9,0.6,1.5s-0.2,1-0.5,1.4c-0.3,0.3-0.8,0.6-1.4,0.7l0,0c0.3,0.1,0.6,0.5,0.9,1.1l1.1,2.5
		h-0.6v0.1H207.5z M204,485.9v3.4h1.4c0.6,0,1-0.2,1.5-0.4c0.4-0.3,0.5-0.8,0.5-1.3s-0.2-0.9-0.5-1.2c-0.3-0.3-0.8-0.4-1.4-0.4H204
		V485.9z"/>
	<path id="XMLID_1218_" class="st3" d="M212.6,485.9v7.3h-0.5v-7.3h-2.2v-0.5h5.1v0.5H212.6z"/>
	<path id="XMLID_1217_" class="st3" d="M222,493.3v-3.8h-4.5v3.8H217v-7.8h0.5v3.6h4.5v-3.6h0.5v7.8H222z"/>
	<path id="XMLID_1216_" class="st3" d="M230.7,490.2c0,2.2-0.9,3.3-2.8,3.3c-1.7,0-2.7-1-2.7-3.1v-4.8h0.5v4.7
		c0,1.8,0.8,2.8,2.2,2.8c1.5,0,2.2-0.9,2.2-2.7v-4.8h0.5L230.7,490.2L230.7,490.2z"/>
	<path id="XMLID_1213_" class="st3" d="M237.4,493.3l-1-2.3c-0.3-0.4-0.4-0.8-0.6-0.9c-0.2-0.1-0.5-0.3-0.8-0.3h-0.9v3.4h-0.5v-7.8
		h2.2c0.7,0,1.2,0.2,1.6,0.6c0.4,0.4,0.6,0.9,0.6,1.5s-0.2,1-0.5,1.4c-0.3,0.3-0.8,0.6-1.4,0.7l0,0c0.3,0.1,0.6,0.5,0.9,1.1l1.1,2.5
		h-0.6v0.1H237.4z M234,485.9v3.4h1.4c0.6,0,1-0.2,1.5-0.4c0.4-0.3,0.5-0.8,0.5-1.3s-0.2-0.9-0.5-1.2c-0.3-0.3-0.8-0.4-1.4-0.4H234
		V485.9z"/>
	<path id="XMLID_1212_" class="st3" d="M244.9,485.9v3.2h2.9v0.5h-2.9v3.6h-0.5v-7.8h3.6v0.5L244.9,485.9L244.9,485.9z"/>
	<path id="XMLID_1211_" class="st3" d="M255.7,490.2c0,2.2-0.9,3.3-2.8,3.3c-1.7,0-2.7-1-2.7-3.1v-4.8h0.5v4.7
		c0,1.8,0.8,2.8,2.2,2.8c1.5,0,2.2-0.9,2.2-2.7v-4.8h0.5L255.7,490.2L255.7,490.2z"/>
	<path id="XMLID_1210_" class="st3" d="M263.9,493.3l-4.6-6.3c-0.1-0.1-0.2-0.3-0.3-0.3l-0.1-0.1l0,0c0,0.1,0,0.2,0,0.3v6.5h-0.5
		v-7.8h0.4l4.6,6.3c0.1,0.2,0.2,0.3,0.3,0.5l0,0c0-0.3,0-0.5,0-0.7v-6.1h0.5v7.8L263.9,493.3L263.9,493.3z"/>
	<path id="XMLID_1207_" class="st3" d="M267.1,493.3v-7.8h2c1.3,0,2.3,0.3,2.9,0.9c0.6,0.6,1,1.5,1,2.8c0,1.2-0.3,2.2-1.1,2.9
		c-0.8,0.7-1.7,1.1-3,1.1L267.1,493.3L267.1,493.3z M267.7,485.9v6.8h1.2c1.1,0,2.1-0.3,2.7-0.9s0.9-1.5,0.9-2.6
		c0-2.2-1.2-3.4-3.5-3.4h-1.3V485.9z"/>
	<path id="XMLID_1206_" class="st3" d="M279.4,493.3v-7.8h0.5v7.3h3.1v0.5H279.4z"/>
	<path id="XMLID_1205_" class="st3" d="M285.3,493.3v-7.8h0.5v7.3h3.1v0.5H285.3z"/>
	<path id="XMLID_1202_" class="st3" d="M291.8,490.2v3.1h-0.6v-7.8h1.9c0.8,0,1.4,0.2,1.8,0.6s0.6,0.9,0.6,1.6s-0.3,1.3-0.7,1.8
		s-1.1,0.7-2,0.7H291.8z M291.8,485.9v3.7h1.1c0.7,0,1.2-0.2,1.6-0.5c0.4-0.3,0.5-0.8,0.5-1.5c0-1.2-0.7-1.7-2-1.7H291.8
		L291.8,485.9z"/>
	<path id="XMLID_1201_" class="st3" d="M307.4,495.1c-1.1-1.3-1.6-2.8-1.6-4.7c0-2,0.5-3.6,1.6-4.8h0.5c-1.1,1.3-1.7,2.9-1.7,4.8
		c0,1.8,0.6,3.4,1.7,4.7H307.4z"/>
	<path id="XMLID_1198_" class="st3" d="M313.5,484.8h0.6v1h4.6v0.5h-4.6v1.5h3.8v4h-0.6v-0.7h-6.5c-0.1,1.3-0.5,2.4-1.3,3.4
		c-0.2-0.2-0.3-0.3-0.5-0.3c0.5-0.7,0.9-1.3,1-2c0.2-0.6,0.3-1.5,0.3-2.8v-1.5h3.1L313.5,484.8L313.5,484.8z M311,489.3
		c0,0.4,0,0.9,0,1.2h6.4v-2.2H311V489.3z"/>
	<path id="XMLID_1194_" class="st3" d="M322.6,488.8h0.5v1.2h1.6v0.5h-1.6v0.9l0.3-0.3c0.5,0.3,1,0.7,1.4,1l-0.3,0.4
		c-0.5-0.4-0.9-0.7-1.3-0.9v3h-0.5v-3.4c-0.4,0.9-1,1.6-1.9,2.3c-0.2-0.2-0.3-0.3-0.4-0.4c0.9-0.7,1.7-1.5,2.3-2.6h-1.9V490h2
		L322.6,488.8L322.6,488.8z M329.6,488.9c-1.8-0.4-3.2-1.1-4.2-2.1v2.2h-0.5v-2.2c-1,0.9-2.4,1.6-4.1,2.2c-0.1-0.2-0.2-0.3-0.3-0.5
		c1.6-0.3,3.1-1,4.2-1.9h-3.8v-0.5h4v-1.3h0.5v1.3h4v0.5h-3.7c1.2,0.9,2.6,1.5,4.3,1.8C329.9,488.4,329.7,488.7,329.6,488.9z
		 M324.7,493.7c-0.2-0.2-0.3-0.3-0.4-0.4c1-0.6,1.9-1.5,2.6-2.8h-1.5V490h1.6v-1.2h0.5v1.2h2.2v0.5h-2.2c0.7,1.1,1.5,2,2.6,2.5
		c-0.2,0.2-0.3,0.3-0.4,0.4c-1-0.7-1.7-1.5-2.2-2.4v3.4H327V491C326.5,492.1,325.7,493,324.7,493.7z"/>
	<path id="XMLID_1189_" class="st3" d="M331.8,488.9c-0.1-0.2-0.2-0.3-0.3-0.5c0.9-0.9,1.7-2.2,2.3-3.6l0.5,0.2
		c-0.3,0.7-0.7,1.4-1,1.9v4.2h-0.5v-3.4C332.5,488.1,332.1,488.4,331.8,488.9z M336.1,490.9h0.5v0.9h3.7v0.5h-3.7v1.3h4.6v0.5h-9.7
		v-0.5h4.6v-1.3h-3.7v-0.4h3.7V490.9L336.1,490.9z M333.9,490.5c1.3-0.4,2.3-0.9,2.9-1.5H334v-0.4h3.2v-0.9H335v-2.2h5.2v2.3h-2.3
		v0.9h3.2v0.4h-2.8c0.7,0.6,1.6,1.1,2.8,1.5c-0.2,0.2-0.3,0.3-0.3,0.5c-1.4-0.4-2.3-1-3-1.8v2h-0.5v-2c-0.8,0.8-1.7,1.5-3,1.9
		C334.2,490.8,334.1,490.7,333.9,490.5z M335.6,485.8v1.4h4v-1.4H335.6z"/>
	<path id="XMLID_1186_" class="st3" d="M352.4,493.3l-0.9-2.4h-3.4l-0.9,2.4h-0.6l2.9-7.8h0.5l2.9,7.8H352.4z M350,486.7
		c0-0.1-0.1-0.3-0.1-0.3c0-0.1-0.1-0.2-0.1-0.3l0,0c-0.1,0.3-0.1,0.4-0.2,0.6l-1.3,3.6h3L350,486.7z"/>
	<path id="XMLID_1185_" class="st3" d="M355.1,493.3v-7.8h0.5v7.8H355.1z"/>
	<path id="XMLID_1184_" class="st3" d="M359,485.9v3.2h2.9v0.5H359v3.6h-0.5v-7.8h3.6v0.5L359,485.9L359,485.9z"/>
	<path id="XMLID_1183_" class="st3" d="M371.2,493.3v-5.5c0-0.2,0-0.5,0.1-1.1l0,0c-0.1,0.3-0.2,0.5-0.3,0.7l-2.8,6H368l-2.8-5.9
		c-0.1-0.2-0.2-0.4-0.3-0.8l0,0c0,0.3,0,0.7,0,1v5.7h-0.5v-7.8h0.5l2.9,6.3c0,0,0,0.1,0.1,0.2c0,0.1,0.1,0.1,0.1,0.2
		s0.1,0.2,0.1,0.3l0,0l0.1-0.2c0,0,0.1-0.2,0.2-0.5l2.8-6.3h0.5v7.8L371.2,493.3L371.2,493.3z"/>
	<path id="XMLID_1182_" class="st3" d="M374.3,495.1h-0.5c1.1-1.4,1.7-2.9,1.7-4.7c0-1.9-0.6-3.5-1.7-4.8h0.5
		c1.1,1.3,1.6,2.9,1.6,4.8C376,492.1,375.4,493.8,374.3,495.1z"/>
</g>
<g id="XMLID_1170_">
	<path id="XMLID_1175_" class="st3" d="M268.9,587.2c0.9-0.6,1.6-1.2,2.4-1.8c0,0.1,0.1,0.3,0.3,0.5c-0.8,0.6-1.5,1.2-2.3,1.8
		L268.9,587.2z M273.6,589.1h0.5c0,0.3,0,0.7-0.1,1v0.1c0,0.1-0.1,0.2-0.1,0.3c1.3,0.5,2.8,1,4.3,1.7l-0.3,0.5
		c-1.5-0.7-3-1.3-4.2-1.8c-0.4,0.8-1.9,1.4-4.2,1.8c-0.1-0.2-0.2-0.3-0.3-0.6c2.7-0.3,4.1-1,4.3-2.2
		C273.5,589.9,273.6,589.5,273.6,589.1z M270.9,584.9c-0.5-0.4-1-0.9-1.5-1.2l0.3-0.4c0.5,0.3,1,0.7,1.6,1.2L270.9,584.9z
		 M270.4,588h6.7v2.9h-0.5v-2.4h-5.7v2.4h-0.5V588L270.4,588z M272,587.6c-0.1-0.2-0.2-0.3-0.3-0.5c2.1-0.4,3.1-1.4,3.3-2.7h-1.6
		c-0.3,0.4-0.6,0.9-1,1.4c-0.2-0.2-0.3-0.3-0.4-0.3c0.7-0.7,1.2-1.5,1.6-2.4l0.5,0.2c-0.1,0.3-0.3,0.5-0.3,0.8h4.6v0.5l-0.6,1.2
		c-0.2-0.1-0.3-0.2-0.5-0.2l0.6-1h-2.2c0,0.1,0,0.2-0.1,0.3c0.5,1.3,1.5,2.2,3.1,2.4c-0.1,0.2-0.2,0.3-0.3,0.5
		c-1.6-0.4-2.6-1.2-3-2.3C274.9,586.3,273.9,587.1,272,587.6z"/>
	<path id="XMLID_1171_" class="st3" d="M281.1,587.1h4.9c0.4-0.6,0.8-1.3,1.2-2l0.5,0.3c-0.3,0.5-0.7,1.1-1.1,1.6h2.9v0.5h-7.8v0.8
		c0.1,1.8-0.3,3.3-1.2,4.3c-0.2-0.2-0.3-0.3-0.4-0.4c0.4-0.5,0.7-1,0.9-1.6c0.2-0.6,0.3-1.4,0.3-2.3L281.1,587.1L281.1,587.1z
		 M284.6,583.2l0.5-0.2c0.2,0.4,0.3,0.9,0.4,1.2h4.1v0.5h-9.5v-0.5h4.7C285,584,284.8,583.7,284.6,583.2
		C284.6,583.3,284.6,583.2,284.6,583.2z M282.5,585.5l0.4-0.3c0.3,0.3,0.7,0.9,1.1,1.5l-0.5,0.3
		C283.2,586.4,282.9,585.9,282.5,585.5z"/>
</g>
<g id="XMLID_1329_">
	<path id="XMLID_1353_" class="st0" d="M162.6,304.3c-0.9-1-1.4-2.4-1.4-4s0.4-3,1.4-4h0.4c-0.9,1.1-1.5,2.4-1.5,4
		c0,1.5,0.4,2.8,1.4,4H162.6z"/>
	<path id="XMLID_1350_" class="st0" d="M167.4,302.9c-0.9,0-1.6-0.3-2.2-0.9c-0.6-0.6-0.9-1.4-0.9-2.4s0.3-1.9,0.9-2.5
		c0.6-0.6,1.3-0.9,2.3-0.9c0.9,0,1.5,0.3,2.2,0.9s0.8,1.4,0.8,2.3c0,1.1-0.3,1.9-0.9,2.6c-0.2,0.2-0.3,0.3-0.6,0.5l1.5,1.2h-0.8
		l-1.2-0.9C168.3,302.8,167.8,302.9,167.4,302.9z M167.4,296.6c-0.8,0-1.4,0.3-1.9,0.9c-0.5,0.6-0.8,1.3-0.8,2.2s0.3,1.6,0.7,2.2
		c0.4,0.5,1.1,0.8,1.9,0.8c0.8,0,1.5-0.3,1.9-0.8s0.7-1.3,0.7-2.2s-0.3-1.6-0.7-2.2C168.8,296.8,168.3,296.6,167.4,296.6z"/>
	<path id="XMLID_1349_" class="st0" d="M172.6,302.9c-0.1,0-0.2,0-0.3-0.1s-0.1-0.2-0.1-0.3c0-0.1,0-0.2,0.1-0.3s0.2-0.1,0.3-0.1
		s0.2,0,0.3,0.1s0.1,0.2,0.1,0.3s0,0.2-0.1,0.3S172.8,302.9,172.6,302.9z"/>
	<path id="XMLID_1345_" class="st0" d="M174.7,300.2c0-0.2-0.1-0.3-0.2-0.5c0.9-1.1,1.5-2.4,2.1-4l0.4,0.2c-0.3,0.7-0.5,1.3-0.8,1.8
		v6.1h-0.4v-5.3C175.4,299.2,175.1,299.7,174.7,300.2z M176.9,298.7l2-0.2c-0.1-0.8-0.1-1.6-0.1-2.7h0.5c0,1,0,1.9,0.1,2.7l3.1-0.3
		l0.1,0.4l-3.2,0.3c0.1,1.4,0.3,2.5,0.8,3.4c0.3,0.8,0.8,1.1,1.2,1.1c0.3,0,0.5-0.2,0.6-0.6c0.1-0.3,0.2-0.7,0.3-1.1
		c0.2,0.1,0.3,0.1,0.4,0.2c-0.1,0.3-0.2,0.7-0.3,1c-0.2,0.6-0.5,0.9-1,0.9c-0.7,0-1.2-0.4-1.6-1.4c-0.4-0.9-0.7-2-0.9-3.5l-2,0.2
		L176.9,298.7z M180.2,296.4l0.3-0.3c0.4,0.3,0.9,0.8,1.5,1.2l-0.3,0.3C181.3,297.4,180.8,296.9,180.2,296.4z"/>
	<path id="XMLID_1344_" class="st0" d="M191.6,296.6c-0.8,0.1-2,0.1-3.5,0.2v1.7h3v3.4c0,0.7-0.3,1-1,1c-0.1,0-0.3,0-0.4,0
		c-0.2,0-0.3,0-0.5,0c0-0.2-0.1-0.3-0.1-0.5c0.1,0,0.2,0,0.3,0s0.1,0,0.2,0c0.1,0,0.2,0,0.3,0c0.5,0,0.8-0.2,0.8-0.6v-2.9h-2.6v4.9
		h-0.4v-4.9h-2.5v4h-0.4v-4.4h3v-1.6c-1.5,0.1-2.7,0.1-3.4,0.1c0-0.2-0.1-0.3-0.1-0.4c2.8,0,5.2-0.1,7.3-0.3L191.6,296.6z"/>
	<path id="XMLID_1339_" class="st0" d="M193.2,300.2c0.1,0,0.2,0,0.3-0.1c0.4-0.1,0.8-0.2,0.9-0.3v-2h-1.1v-0.4h1.1v-1.8h0.4v1.8h1
		v0.5h-1v1.9c0.1,0,0.3-0.1,0.4-0.1c0.3-0.1,0.5-0.1,0.6-0.2c0,0.1,0,0.2,0,0.2c0,0.1,0,0.2,0,0.3c-0.2,0-0.3,0.1-0.6,0.2
		c-0.2,0.1-0.3,0.1-0.4,0.1v2.6c0,0.6-0.3,0.9-0.8,0.9c-0.3,0-0.4,0-0.7,0c0-0.2,0-0.3-0.1-0.5c0.1,0,0.3,0,0.7,0
		c0.3,0,0.4-0.2,0.4-0.4v-2.4c-0.2,0-0.3,0.1-0.6,0.2s-0.4,0.1-0.5,0.2L193.2,300.2z M199.5,299.5h0.4v0.8h1.4v0.4H200v2
		c0,0.6-0.3,0.9-1.1,0.9c-0.2,0-0.3,0-0.5,0c-0.1,0-0.2,0-0.3,0s-0.2,0-0.3,0c0-0.2,0-0.3-0.1-0.5c0.2,0,0.3,0,0.5,0
		c0.1,0,0.2,0,0.3,0s0.2,0,0.3,0c0.3,0,0.4-0.1,0.6-0.2c0.1-0.1,0.2-0.3,0.2-0.5v-1.8H196v-0.4h3.5V299.5L199.5,299.5z M196.3,296.9
		h2.1v-1.2h0.4v1.2h2.1v0.4h-2.1v1.4h2.4v0.4h-5.3v-0.4h2.4v-1.4h-2.1L196.3,296.9L196.3,296.9z M196.4,301.4l0.3-0.3
		c0.6,0.5,0.9,0.9,1.2,1.1l-0.3,0.3C197.2,302.2,196.9,301.8,196.4,301.4z"/>
	<path id="XMLID_1335_" class="st0" d="M204.6,303.8h-0.4v-4.5c-0.4,0.4-0.9,0.9-1.4,1.4c-0.1-0.1-0.2-0.3-0.3-0.3
		c1.1-0.9,2.1-2,2.7-3.1h-2.4v-0.4h2.7c0.3-0.3,0.4-0.8,0.6-1.1l0.4,0.1c-0.2,0.4-0.4,0.8-0.5,1h4.6v0.4h-4.8
		c-0.3,0.3-0.5,0.8-0.8,1.1h4.6v4.3c0,0.6-0.3,0.9-0.9,0.9c-0.3,0-0.7,0-1.2,0c0-0.2-0.1-0.3-0.1-0.4c0.3,0,0.7,0,1.2,0
		c0.3,0,0.4,0,0.5-0.2c0.1-0.1,0.2-0.3,0.2-0.4v-0.8h-4.4L204.6,303.8L204.6,303.8z M204.6,298.8v1.1h4.4v-1.1H204.6z M204.6,300.4
		v1.1h4.4v-1.1H204.6z"/>
	<path id="XMLID_1331_" class="st0" d="M218.8,296.3l0.3,0.3c-0.6,0.7-1.2,1.3-1.9,1.8h2.5v0.4h-3c-0.5,0.4-1.1,0.8-1.8,1.1h3.5v3.9
		H218v-0.5h-4.1v0.5h-0.4v-3.2c-0.5,0.2-1,0.4-1.5,0.6c-0.1-0.2-0.2-0.3-0.3-0.4c1.7-0.5,3.1-1.2,4.3-2h-4.1v-0.4h3.2v-1.2h-2.4
		v-0.4h2.4v-1.1h0.4v1.1h2.1v0.4h-2.1v1.2h1C217.4,297.9,218.1,297.2,218.8,296.3z M214.2,300.4L214.2,300.4c-0.2,0-0.2,0.1-0.3,0.1
		v1h4.1v-1.1H214.2z M213.9,301.8v1.1h4.1v-1.1H213.9z"/>
	<path id="XMLID_1330_" class="st0" d="M221.4,304.3H221c0.9-1.1,1.4-2.5,1.4-4c0-1.6-0.5-2.9-1.5-4h0.4c0.9,1,1.4,2.4,1.4,4
		C222.8,301.9,222.3,303.2,221.4,304.3z"/>
</g>
<g id="XMLID_1290_">
	<path id="XMLID_1328_" class="st0" d="M334.6,304.6c-0.9-1-1.4-2.4-1.4-4s0.4-3,1.4-4h0.4c-0.9,1.1-1.5,2.4-1.5,4
		c0,1.5,0.4,2.8,1.4,4H334.6z"/>
	<path id="XMLID_1320_" class="st0" d="M336.2,300.9h1.4c0.1-0.2,0.2-0.3,0.3-0.6l0,0l0.4,0.2c-0.1,0.2-0.2,0.3-0.3,0.5h2.1
		c-0.1,0.8-0.4,1.4-0.9,1.9c0.3,0.2,0.7,0.3,0.9,0.4l-0.3,0.3c-0.3-0.2-0.7-0.3-1-0.5c-0.6,0.4-1.5,0.8-2.5,1.1
		c-0.1-0.1-0.1-0.3-0.3-0.4c0.9-0.3,1.7-0.5,2.2-0.9c-0.4-0.2-0.9-0.4-1.6-0.8c0.3-0.3,0.4-0.6,0.6-0.9h-1.1L336.2,300.9
		L336.2,300.9z M338.2,296.2h0.4v1.9h1.7v0.3h-1.7v0.7l0.2-0.3c0.4,0.3,0.9,0.5,1.3,0.9l-0.3,0.3c-0.2-0.2-0.6-0.4-1.3-0.9v0.9h-0.4
		v-1.3c-0.4,0.6-1,1-1.8,1.5c-0.1-0.1-0.2-0.3-0.3-0.3c0.8-0.3,1.5-0.9,2-1.5h-1.9v-0.3h2L338.2,296.2L338.2,296.2z M336.5,296.8
		l0.3-0.3c0.4,0.4,0.8,0.8,0.9,0.9l-0.3,0.3C337.3,297.6,337,297.3,336.5,296.8z M337.3,302.1c0.5,0.3,1,0.4,1.5,0.6
		c0.4-0.3,0.7-0.8,0.9-1.3h-1.8C337.7,301.5,337.5,301.8,337.3,302.1z M340.4,296.8c-0.3,0.4-0.7,0.8-1,1l-0.3-0.3
		c0.3-0.3,0.6-0.6,0.9-0.9L340.4,296.8z M340,303.9c0.9-0.7,1.5-1.3,1.9-1.8c-0.4-0.8-0.8-1.7-0.9-3c0,0-0.1,0.1-0.1,0.2
		c-0.2,0.3-0.3,0.4-0.3,0.6c-0.1-0.1-0.3-0.2-0.3-0.3c0.6-0.9,1.1-2.2,1.5-3.4l0.4,0.1c-0.2,0.5-0.3,1-0.5,1.5h2.5v0.4h-0.7
		c-0.2,1.8-0.5,3.1-1,4c0.3,0.6,0.9,1.1,1.8,1.7c-0.2,0.2-0.3,0.3-0.3,0.3c-0.8-0.6-1.4-1.2-1.7-1.7c-0.4,0.6-1,1.2-1.8,1.8
		C340.2,304.1,340.1,304,340,303.9z M341.3,298.4c0.2,1.4,0.4,2.5,0.9,3.2c0.4-0.8,0.8-2,0.9-3.6h-1.5
		C341.4,298.1,341.4,298.3,341.3,298.4z"/>
	<path id="XMLID_1316_" class="st0" d="M349.3,300.5l1.9-1.1h-4.3V299h4.9v0.5l-2.1,1.3v0.4h3.8v0.4h-3.8v1.5c0,0.7-0.3,1-1,1
		c-0.5,0-0.9,0-1.1,0c0-0.2,0-0.3-0.1-0.5c0.2,0,0.3,0,0.4,0s0.2,0,0.3,0c0.1,0,0.2,0,0.3,0c0.3,0,0.4-0.1,0.5-0.2s0.2-0.3,0.2-0.5
		v-1.5h-3.9V301h3.9L349.3,300.5L349.3,300.5z M345.7,297.4h7.5v1.5h-0.4v-1.1h-6.6v1.1h-0.4v-1.5H345.7z M349.1,296.2l0.4-0.2
		c0.1,0.3,0.3,0.6,0.5,1.1l-0.4,0.2C349.4,296.9,349.3,296.5,349.1,296.2z"/>
	<path id="XMLID_1310_" class="st0" d="M354.8,299.6c0.7-0.5,1.4-0.9,2.1-1.5c0,0.1,0.1,0.2,0.3,0.4c-0.6,0.5-1.3,0.9-2,1.5
		L354.8,299.6z M358.6,301.1h0.4c0,0.3,0,0.6-0.1,0.9v0.1c0,0.1,0,0.2-0.1,0.2c1.1,0.4,2.3,0.9,3.6,1.4l-0.3,0.4
		c-1.3-0.6-2.5-1-3.5-1.5c-0.3,0.6-1.5,1.1-3.5,1.5c-0.1-0.2-0.2-0.3-0.3-0.5c2.2-0.3,3.4-0.9,3.6-1.8
		C358.6,301.7,358.6,301.5,358.6,301.1z M356.4,297.6c-0.4-0.3-0.9-0.7-1.3-1l0.3-0.3c0.4,0.3,0.9,0.6,1.4,0.9L356.4,297.6z
		 M356,300.2h5.6v2.4h-0.4v-2.1h-4.7v2.1H356V300.2z M357.3,299.9c-0.1-0.2-0.2-0.3-0.3-0.4c1.7-0.3,2.6-1.1,2.8-2.2h-1.4
		c-0.3,0.3-0.5,0.8-0.9,1.1c-0.1-0.1-0.3-0.3-0.3-0.3c0.6-0.6,1-1.3,1.4-2.1l0.4,0.1c-0.1,0.3-0.2,0.4-0.3,0.7h3.8v0.4l-0.5,1
		c-0.1-0.1-0.3-0.1-0.4-0.2l0.5-0.9h-1.9c0,0.1,0,0.2-0.1,0.3c0.4,1.1,1.3,1.8,2.6,2.1c-0.1,0.2-0.2,0.3-0.3,0.4
		c-1.3-0.3-2.2-1-2.5-1.9C359.8,298.8,358.9,299.5,357.3,299.9z"/>
	<path id="XMLID_1306_" class="st0" d="M364.8,299.5h4c0.3-0.5,0.7-1,1-1.6l0.4,0.3c-0.3,0.4-0.6,0.9-0.9,1.4h2.4v0.3h-6.5v0.7
		c0.1,1.5-0.3,2.7-1,3.6c-0.2-0.2-0.3-0.3-0.3-0.3c0.3-0.4,0.6-0.9,0.7-1.4c0.2-0.5,0.2-1.1,0.2-1.9L364.8,299.5L364.8,299.5z
		 M367.8,296.2l0.4-0.1c0.2,0.3,0.3,0.7,0.3,0.9h3.4v0.4H364V297h4C368.1,296.9,368,296.6,367.8,296.2
		C367.8,296.3,367.8,296.3,367.8,296.2z M366,298.1l0.3-0.3c0.3,0.3,0.6,0.7,0.9,1.3l-0.4,0.3C366.6,299,366.4,298.5,366,298.1z"/>
	<path id="XMLID_1301_" class="st0" d="M375.9,299.8c0.4,0.9,0.9,1.5,1.5,2.1c0.5-0.4,0.9-1.2,1.4-2.2l0.4,0.2
		c-0.4,0.9-0.9,1.7-1.5,2.2c0.8,0.6,2,1.1,3.5,1.5c-0.1,0.1-0.2,0.3-0.3,0.5c-1.7-0.4-2.9-0.9-3.6-1.6c-0.7,0.6-2,1.2-3.7,1.7
		l-0.3-0.5c1.7-0.4,2.9-0.9,3.6-1.5c-0.5-0.5-1-1.2-1.5-2.2L375.9,299.8z M373.4,297.4h4c-0.2-0.3-0.3-0.7-0.6-1l0.4-0.2
		c0.3,0.3,0.4,0.8,0.6,1l-0.4,0.2h3.9v0.4h-7.8v-0.4H373.4z M376,298.4l0.3,0.3c-0.8,0.6-1.6,1.3-2.6,1.9c-0.1-0.1-0.2-0.3-0.3-0.4
		C374.4,299.6,375.3,299,376,298.4z M380.8,300.4c-0.8-0.6-1.5-1.1-2.5-1.7l0.3-0.3c0.8,0.5,1.6,1,2.5,1.7L380.8,300.4z"/>
	<path id="XMLID_1296_" class="st0" d="M383,302c-0.1-0.1-0.2-0.3-0.3-0.3c0.9-0.5,1.6-1.2,2.2-2l0.4,0.2c-0.2,0.3-0.3,0.4-0.5,0.6
		h5.4c0,0.6,0,1.2-0.1,2c0,1.2-0.6,1.7-1.6,1.7c-0.3,0-0.6,0-1,0c0-0.2-0.1-0.3-0.1-0.5c0.3,0,0.7,0,1.1,0c0,0,0.1,0,0.2,0
		c0.7,0,1-0.4,1.1-1.3c0.1-0.6,0.1-1.1,0.1-1.5h-1.4c-0.3,1.5-1.3,2.6-2.9,3.4c-0.1-0.2-0.3-0.3-0.3-0.3c1.6-0.8,2.5-1.7,2.8-3h-1.5
		c-0.5,1.2-1.7,2.2-3.5,2.8c-0.1-0.1-0.2-0.3-0.3-0.3c1.7-0.6,2.8-1.5,3.3-2.5h-1.5C383.9,301.3,383.5,301.6,383,302z M383.8,296.5
		h6v3h-6V296.5z M384.2,296.9v0.9h5.1v-0.9H384.2z M384.2,298.2v0.9h5.1v-0.9H384.2z"/>
	<path id="XMLID_1292_" class="st0" d="M391.9,303.9c0.3-0.5,0.5-1,0.6-1.5c0.1-0.4,0.2-1.2,0.2-2.2v-3.4c0.9,0,1.9-0.2,2.8-0.3
		l0.2,0.4c-0.8,0.1-1.5,0.2-2.5,0.3v1.5h2.2v2.7h-2.2c0,1.1-0.3,2.1-0.9,2.9C392.1,304.1,392,303.9,391.9,303.9z M394.8,299h-1.7
		v1.1c0,0.1,0,0.3,0,0.4c0,0.2,0,0.3,0,0.3h1.8L394.8,299L394.8,299z M394.8,303.9c0.5-0.6,0.9-1.2,1.1-1.8s0.3-1.5,0.3-2.7v-2.6
		c1.3-0.1,2.5-0.2,3.5-0.3l0.2,0.4c-0.9,0.1-2.1,0.3-3.3,0.3v2.1h3.4v0.4h-1.3v4.6h-0.4v-4.6h-1.7c0.1,2-0.4,3.5-1.5,4.6
		C395.1,304.1,395,304,394.8,303.9z"/>
	<path id="XMLID_1291_" class="st0" d="M401.5,304.6h-0.4c0.9-1.1,1.4-2.5,1.4-4c0-1.6-0.5-2.9-1.5-4h0.4c0.9,1,1.4,2.4,1.4,4
		C402.9,302.3,402.5,303.6,401.5,304.6z"/>
</g>
<g id="XMLID_1279_">
	<path id="XMLID_1286_" class="st0" d="M179.2,280.5h0.8v-1.3h0.9v1.3h0.7v0.9h-0.7v1.1l0.7-0.2c0,0.4,0,0.8,0,1l-0.7,0.2v2
		c0,0.3-0.1,0.5-0.2,0.7c-0.2,0.2-0.6,0.3-1.4,0.3c-0.1-0.3-0.2-0.6-0.3-1c0.2,0,0.3,0,0.4,0c0.2,0,0.3,0,0.3-0.1
		c0.1-0.1,0.1-0.2,0.1-0.3v-1.4l-0.8,0.2l-0.1-1.1l0.9-0.2v-1.4H179L179.2,280.5L179.2,280.5z M186.2,282.2v0.9
		c-0.3,0.7-0.8,1.2-1.3,1.7c0.5,0.3,1.1,0.5,1.7,0.7c-0.3,0.4-0.6,0.8-0.8,1c-0.7-0.3-1.3-0.6-1.8-0.9c-0.6,0.4-1.3,0.8-2.2,1
		c-0.2-0.3-0.3-0.5-0.7-0.9c0.8-0.2,1.4-0.4,2-0.8c-0.3-0.3-0.8-0.8-1-1.2l0.8-0.5c0.3,0.4,0.7,0.8,1.1,1.1c0.4-0.3,0.7-0.7,0.9-1.1
		h-3v-1H186.2z M186.6,280.9c-0.1,0.4-0.2,0.7-0.2,0.9h-0.9c-0.3,0-0.4-0.1-0.6-0.2c-0.2-0.1-0.2-0.3-0.2-0.6v-0.7h-1.2
		c0,0.8-0.3,1.5-0.9,1.9c-0.3-0.2-0.5-0.4-0.8-0.7c0.3-0.2,0.5-0.4,0.7-0.7c0.1-0.3,0.2-0.8,0.2-1.5h3.2v1.2c0,0.2,0.1,0.3,0.2,0.3
		C186,280.9,186.3,280.9,186.6,280.9z"/>
	<path id="XMLID_1281_" class="st0" d="M187.9,282.8l-0.4-1c0.6-0.3,1.2-0.7,1.7-1l0.4,0.9C188.9,282.1,188.4,282.4,187.9,282.8z
		 M190.8,283.9h1.1c-0.1,0.3-0.1,0.6-0.2,0.9c0.9,0.3,1.9,0.5,3.1,0.9l-0.5,0.9c-0.7-0.3-1.7-0.6-3.1-1c-0.5,0.6-1.5,0.9-3.2,1.1
		c-0.1-0.3-0.3-0.6-0.5-1c0.9-0.1,1.7-0.2,2.3-0.4C190.4,284.9,190.7,284.5,190.8,283.9z M187.6,279.9l0.6-0.8
		c0.5,0.3,0.9,0.6,1.2,0.9l-0.7,0.9C188.4,280.5,188.1,280.2,187.6,279.9z M194.8,279.6v0.7l-0.5,0.9l-0.8-0.3l0.3-0.5h-1.1
		c0,0.1,0,0.2-0.1,0.3c0.4,0.7,1.3,1,2.4,1.1c-0.2,0.3-0.3,0.7-0.4,0.9c-1.1-0.2-2-0.5-2.4-1.2c-0.4,0.6-1.1,1-2.1,1.2h4v2.2h-1
		v-1.2h-3.6v1.3h-1v-2.2h1.4l-0.4-0.8c1.4-0.2,2.2-0.7,2.3-1.5h-0.9c-0.2,0.3-0.3,0.6-0.6,0.8c-0.3-0.2-0.5-0.3-0.9-0.5
		c0.4-0.5,0.8-1,1-1.7l1,0.1c-0.1,0.2-0.2,0.3-0.2,0.4C191.3,279.6,194.8,279.6,194.8,279.6z"/>
	<path id="XMLID_1280_" class="st0" d="M199,279.2h1.1c0,0.5,0,1.1-0.1,1.5c0.3,2.3,1.5,3.9,3.3,4.6c-0.4,0.4-0.7,0.9-0.9,1.1
		c-1.4-0.7-2.3-1.9-2.8-3.5c-0.5,1.5-1.5,2.7-3,3.6c-0.2-0.3-0.4-0.6-0.8-1.1c1.1-0.7,2-1.5,2.5-2.3
		C198.8,282.2,199.1,280.9,199,279.2z"/>
</g>
<g id="XMLID_1107_">
	<path id="XMLID_1161_" class="st0" d="M116.2,324.4l-0.1-0.5c0.1,0,0.2-0.1,0.3-0.1c0.3-0.1,0.7-0.2,0.9-0.3v-2h-1.1V321h1.1v-1.6
		h0.4v1.6h1v0.4h-1v1.9c0.3-0.1,0.6-0.2,0.9-0.3c0,0.2,0,0.3,0,0.4h-0.1c-0.3,0.1-0.7,0.2-0.9,0.3v2.6c0,0.6-0.3,0.9-0.9,0.9
		c-0.3,0-0.4,0-0.6,0v-0.1c0-0.2,0-0.3-0.1-0.4c0.3,0,0.4,0,0.6,0c0.3,0,0.5-0.2,0.5-0.5v-2.4c-0.1,0-0.2,0.1-0.3,0.1
		C116.9,324.2,116.5,324.2,116.2,324.4z M119.3,323.6v-0.4h4.1v0.4c-0.4,0.9-0.9,1.6-1.6,2.2c0.6,0.4,1.5,0.8,2.5,1
		c-0.1,0.1-0.2,0.3-0.3,0.4c-1.1-0.3-2-0.7-2.7-1.2c-0.7,0.5-1.5,0.9-2.7,1.3c-0.1-0.2-0.2-0.3-0.3-0.4c1-0.3,1.9-0.7,2.6-1.1
		c-0.6-0.5-1-1.3-1.4-2.2C119.6,323.6,119.3,323.6,119.3,323.6z M123.5,322h0.8c0,0.2-0.1,0.3-0.1,0.4h-0.8c-0.6,0-0.9-0.3-0.9-0.9
		v-1.3h-2.1v0.3c0.1,0.9-0.3,1.7-1.1,2.3c-0.1-0.2-0.3-0.3-0.3-0.3c0.4-0.3,0.7-0.6,0.9-0.9c0.2-0.3,0.3-0.6,0.2-1.1v-0.8h2.9v1.6
		c0,0.2,0,0.3,0.1,0.4C123.2,322,123.2,322,123.5,322z M122.9,323.6h-2.8c0.3,0.9,0.7,1.5,1.3,2C122,325.1,122.5,324.4,122.9,323.6z
		"/>
	<path id="XMLID_1155_" class="st0" d="M125.5,322.8c0.7-0.5,1.4-0.9,2.1-1.5c0,0.1,0.1,0.2,0.3,0.4c-0.6,0.5-1.3,0.9-2,1.5
		L125.5,322.8z M129.4,324.4h0.4c0,0.3,0,0.6-0.1,0.9v0.1c0,0.1,0,0.2-0.1,0.2c1.1,0.4,2.3,0.9,3.6,1.4l-0.3,0.4
		c-1.3-0.6-2.5-1-3.5-1.5c-0.3,0.6-1.5,1.1-3.5,1.5c-0.1-0.2-0.2-0.3-0.3-0.5c2.2-0.3,3.4-0.9,3.6-1.8
		C129.4,325,129.4,324.8,129.4,324.4z M127.1,320.8c-0.4-0.3-0.9-0.7-1.3-1l0.3-0.3c0.4,0.3,0.9,0.6,1.4,0.9L127.1,320.8z
		 M126.7,323.5h5.6v2.4h-0.4v-2.1h-4.7v2.1h-0.4v-2.4H126.7z M128.1,323.2c-0.1-0.2-0.2-0.3-0.3-0.4c1.7-0.3,2.6-1.1,2.8-2.2h-1.4
		c-0.3,0.3-0.5,0.8-0.9,1.1c-0.1-0.1-0.3-0.3-0.3-0.3c0.6-0.6,1-1.3,1.4-2.1l0.4,0.1c-0.1,0.3-0.2,0.4-0.3,0.7h3.8v0.4l-0.5,1
		c-0.1-0.1-0.3-0.1-0.4-0.2l0.5-0.9H131c0,0.1,0,0.2-0.1,0.3c0.4,1.1,1.3,1.8,2.6,2.1c-0.1,0.2-0.2,0.3-0.3,0.4
		c-1.3-0.3-2.2-1-2.5-1.9C130.5,322.1,129.6,322.7,128.1,323.2z"/>
	<path id="XMLID_1151_" class="st0" d="M141.7,320l0.3,0.3c-0.6,0.7-1.2,1.3-1.9,1.8h2.5v0.4h-3c-0.5,0.4-1.1,0.8-1.8,1.1h3.5v3.9
		H141V327h-4.1v0.5h-0.4v-3.2c-0.5,0.2-1,0.4-1.5,0.6c-0.1-0.2-0.2-0.3-0.3-0.4c1.7-0.5,3.1-1.2,4.3-2h-4v-0.4h3.2v-1.2h-2.4v-0.4
		h2.4v-1.1h0.4v1.1h2.1v0.4h-2.1v1.2h1C140.4,321.5,141.1,320.8,141.7,320z M137.1,324L137.1,324c-0.2,0-0.2,0.1-0.3,0.1v0.9h4.1
		v-1.1L137.1,324L137.1,324z M136.9,325.4v1.1h4.1v-1.1H136.9z"/>
	<path id="XMLID_1146_" class="st0" d="M144.2,323.8c-0.1-0.2-0.2-0.3-0.3-0.5c0.8-1.2,1.4-2.5,1.8-4l0.4,0.1
		c-0.2,0.7-0.4,1.4-0.8,2.1v5.9H145v-5C144.8,322.9,144.6,323.4,144.2,323.8z M146.3,320.5h2.6v-1.1h0.4v1.1h2.8v0.4h-2.8v1h2.2v2.5
		h-0.3v-0.3h-1.9c-0.1,0.9-0.3,1.5-0.6,2c0.6,0.4,1.7,0.8,3.4,0.9c-0.1,0.2-0.2,0.3-0.3,0.4c-1.6-0.2-2.8-0.5-3.4-1
		c-0.4,0.3-1.1,0.7-2.2,1.1c-0.1-0.2-0.2-0.3-0.3-0.4c1-0.3,1.7-0.7,2.1-1c-0.3-0.3-0.7-0.8-1.1-1.3l0.3-0.3c0.3,0.5,0.7,0.9,1,1.2
		c0.3-0.3,0.5-0.9,0.6-1.6h-2.2v-2.2h2.3v-1h-2.6V320.5L146.3,320.5z M149,323.7c0-0.3,0-0.6,0-0.9v-0.3h-1.8v1.4L149,323.7
		L149,323.7z M149.4,322.7c0,0.3,0,0.7,0,1h1.9v-1.4h-1.8L149.4,322.7L149.4,322.7z"/>
	<path id="XMLID_1140_" class="st0" d="M157.8,327.3h-0.4v-2.7h-2.8c-0.1,1-0.4,2-0.9,2.8c-0.1-0.1-0.3-0.2-0.4-0.3
		c0.4-0.6,0.7-1.2,0.9-1.7s0.2-1.4,0.2-2.6v-3h6.6v6.5c0,0.7-0.3,1-1,1c-0.2,0-0.3,0-0.4,0s-0.2,0-0.3,0s-0.2,0-0.3,0
		c0-0.2-0.1-0.3-0.1-0.5c0.3,0,0.6,0,1,0s0.7-0.2,0.7-0.6v-1.6h-2.7L157.8,327.3L157.8,327.3z M154.7,322.9c0,0.4,0,0.9,0,1.4h2.6
		v-1.8h-2.6V322.9z M154.7,320.3v1.8h2.6v-1.8H154.7z M160.5,320.3h-2.7v1.8h2.7V320.3z M157.8,322.5v1.8h2.7v-1.8H157.8z"/>
	<path id="XMLID_1135_" class="st0" d="M79.1,340.3c-0.4-0.3-0.9-0.8-1.3-1.1l0.3-0.3c0.4,0.3,0.9,0.7,1.4,1L79.1,340.3z M78,344.5
		c0.3-0.9,0.7-2,1-3.1c0.2,0.1,0.3,0.2,0.5,0.2c-0.3,0.8-0.6,1.8-1,3.1L78,344.5z M79.4,338.2c-0.5-0.4-0.9-0.9-1.3-1.1l0.3-0.3
		c0.4,0.3,0.9,0.7,1.3,1.1L79.4,338.2z M79.9,340.5h2.8v-1.9h-2.3v-0.4h2.3v-1.6h0.4v1.5h2.3v0.4h-2.3v1.9h2.8v0.4h-3.4L83,341
		c-0.6,0.9-1.2,1.7-2,2.7c0.1,0,0.3,0,0.6,0c1.5-0.1,2.4-0.1,3.1-0.1c-0.3-0.4-0.7-0.9-1.1-1.5l0.3-0.3c0.4,0.5,1,1.4,1.9,2.4
		l-0.4,0.3c-0.2-0.2-0.3-0.4-0.4-0.6c-1.2,0-2.4,0.1-3.6,0.2c-0.3,0-0.6,0.1-0.9,0.1l-0.3-0.5c0.2-0.1,0.4-0.3,0.6-0.5
		c0.6-0.7,1.2-1.5,1.6-2.3h-2.5V340.5L79.9,340.5z"/>
	<path id="XMLID_1132_" class="st0" d="M87.4,344.7c-0.1-0.1-0.2-0.3-0.3-0.3c0.9-0.9,1.5-2.1,1.6-3.5h0.5c-0.1,0.5-0.2,1-0.3,1.5
		c0.6,1,1.4,1.5,2.2,1.6v-4h-3.9v-0.4H95v0.4h-3.4v1.5h2.9v0.4h-2.9v2c0.5,0,1.1,0,1.8,0c0.7,0,1.3,0,1.7,0
		c-0.1,0.2-0.1,0.3-0.2,0.5c-1.4,0-2.6,0-3.6-0.1c-1.1,0-2.1-0.6-2.7-1.6C88.5,343.4,88,344.1,87.4,344.7z M90.8,336.7l0.5-0.1
		c0.1,0.4,0.2,0.8,0.3,1h3.3v1.5h-0.4v-1H88v0.9h-0.5v-1.4H91C91,337.2,90.9,336.9,90.8,336.7z"/>
	<path id="XMLID_1127_" class="st0" d="M96.7,339.3c-0.1-0.1-0.2-0.3-0.3-0.3c1-0.6,1.8-1.4,2.6-2.3l0.4,0.3
		c-0.3,0.3-0.6,0.8-0.9,1.1v2.2h-0.4v-1.7C97.6,338.7,97.2,339,96.7,339.3z M96.4,344.2c1.6-0.3,2.8-0.5,3.2-0.9
		c0.5-0.3,0.8-0.9,0.8-1.9h0.4c0,0.6-0.1,1-0.2,1.4c0.3,0.2,0.9,0.3,1.8,0.7c0.6,0.3,1.3,0.4,1.9,0.7l-0.3,0.4
		c-1.5-0.6-2.8-1-3.7-1.4c-0.3,0.7-1.5,1.2-3.8,1.5C96.5,344.6,96.5,344.4,96.4,344.2z M97.7,340.6h5.8v2.7H103v-2.2h-4.8v2.2h-0.4
		L97.7,340.6L97.7,340.6z M99.2,339c0-0.1-0.1-0.3-0.3-0.4c0.6-0.2,1.2-0.3,1.8-0.4v-1.6h0.4v1.5c0.9-0.3,1.7-0.6,2.6-0.9l0.3,0.3
		c-1,0.4-2,0.8-2.8,1v0.3c0,0.3,0.1,0.5,0.2,0.6c0.1,0.1,0.3,0.2,0.5,0.2h1.2c0.4,0,0.7-0.2,0.8-0.6c0.1-0.2,0.1-0.4,0.1-0.8
		c0.1,0.1,0.3,0.1,0.4,0.1c0,0.3-0.1,0.6-0.1,0.9c-0.1,0.5-0.5,0.8-1.2,0.8h-1.3c-0.7,0-1-0.3-1-1v-0.2
		C100.3,338.8,99.8,339,99.2,339z"/>
	<path id="XMLID_1126_" class="st0" d="M113.4,337.5c-0.8,0.1-2,0.1-3.5,0.2v1.7h3v3.4c0,0.7-0.3,1-1,1c-0.1,0-0.3,0-0.4,0
		c-0.2,0-0.3,0-0.5,0c0-0.2-0.1-0.3-0.1-0.5c0.1,0,0.2,0,0.3,0c0.1,0,0.1,0,0.2,0s0.2,0,0.3,0c0.5,0,0.8-0.2,0.8-0.6v-2.8h-2.6v4.9
		h-0.4v-4.9H107v4h-0.4v-4.4h3v-1.6c-1.5,0.1-2.7,0.1-3.4,0.1c0-0.2-0.1-0.3-0.1-0.4c2.8,0,5.2-0.1,7.3-0.3V337.5z"/>
	<path id="XMLID_1122_" class="st0" d="M116.6,339.4v3.5c0.5-0.4,0.9-0.8,1.5-1.3c0,0.2,0.1,0.3,0.1,0.5c-0.4,0.3-0.9,0.8-1.6,1.4
		c-0.1,0.1-0.3,0.3-0.3,0.3l-0.3-0.3c0.1-0.1,0.2-0.2,0.2-0.3s0.1-0.3,0.1-0.3v-3h-1.1v-0.4L116.6,339.4L116.6,339.4z M117.1,338.4
		c-0.4-0.5-0.9-0.9-1.3-1.4l0.3-0.3c0.4,0.4,0.9,0.9,1.4,1.4L117.1,338.4z M120,336.7h0.5c0,0.5,0,1.1,0,1.6
		c0.3,2.9,1.2,4.8,2.7,5.8c-0.2,0.2-0.3,0.3-0.3,0.4c-1.4-1-2.2-2.7-2.4-4.8c-0.2,2.1-1,3.8-2.6,5c-0.1-0.2-0.3-0.3-0.3-0.4
		c1.7-1.3,2.6-3.1,2.7-5.6C120,338.2,120,337.5,120,336.7z"/>
	<path id="XMLID_1117_" class="st0" d="M127.4,344.3c-0.5-0.6-0.9-1.1-1.4-1.6c-0.2,0.7-0.7,1.4-1.5,2.1c-0.1-0.1-0.2-0.2-0.3-0.3
		l-0.1-0.1c0.7-0.5,1-1,1.3-1.5s0.3-1.3,0.3-2.3v-2.1h0.4v2.1c0,0.7-0.1,1.3-0.2,1.7c0.4,0.4,0.9,1,1.6,1.8L127.4,344.3z
		 M124.7,337.1h2.7v5H127v-4.6h-1.8v4.6h-0.4L124.7,337.1L124.7,337.1z M128,339.6c-0.1-0.1-0.3-0.2-0.4-0.3
		c0.5-0.9,0.9-1.8,1.3-2.8l0.4,0.1c-0.2,0.5-0.3,0.9-0.4,1.2h3.3c0,1.9,0,3.6-0.1,5.3c0,0.9-0.4,1.3-1.4,1.3c-0.4,0-0.9,0-1.4,0
		c0-0.2-0.1-0.3-0.1-0.5c0.5,0,0.9,0,1.4,0c0.7,0,1-0.3,1-0.9c0.1-1.5,0.1-3.1,0.1-4.8h-2.9C128.5,338.6,128.3,339,128,339.6z
		 M128.4,342.1c0.6,0,1.2-0.1,1.8-0.1c-0.1-0.3-0.3-0.6-0.5-1.1c-0.1-0.1-0.1-0.2-0.2-0.3l0.3-0.2c0.3,0.7,0.7,1.4,1.1,2.2l-0.4,0.2
		c0-0.1-0.1-0.1-0.1-0.2c-0.1-0.1-0.1-0.2-0.1-0.3c-0.9,0.1-1.5,0.1-1.9,0.2c-0.2,0-0.4,0.1-0.5,0.1l-0.3-0.4
		c0.2-0.1,0.3-0.3,0.3-0.5c0.3-0.8,0.7-1.6,1-2.6l0.4,0.1C129.3,340.3,128.8,341.3,128.4,342.1z"/>
	<path id="XMLID_1114_" class="st0" d="M136.8,343.8c-0.9,0-1.6-0.3-2.2-0.9c-0.6-0.6-0.9-1.4-0.9-2.4s0.3-1.9,0.9-2.5
		c0.6-0.6,1.3-0.9,2.3-0.9c0.9,0,1.5,0.3,2.2,0.9c0.5,0.6,0.8,1.4,0.8,2.3c0,1.1-0.3,1.9-0.9,2.6c-0.2,0.2-0.3,0.3-0.6,0.5l1.5,1.2
		h-0.8l-1.2-0.9C137.7,343.7,137.3,343.8,136.8,343.8z M136.9,337.4c-0.8,0-1.4,0.3-1.9,0.9c-0.5,0.5-0.8,1.3-0.8,2.2
		c0,0.9,0.3,1.6,0.7,2.2c0.4,0.5,1.1,0.8,1.9,0.8c0.8,0,1.5-0.3,1.9-0.8s0.7-1.3,0.7-2.2s-0.3-1.6-0.7-2.2
		C138.3,337.7,137.7,337.4,136.9,337.4z"/>
	<path id="XMLID_1113_" class="st0" d="M142.1,343.7c-0.1,0-0.2,0-0.3-0.1c-0.1-0.1-0.1-0.2-0.1-0.3s0-0.2,0.1-0.3
		c0.1-0.1,0.2-0.1,0.3-0.1s0.2,0,0.3,0.1c0.1,0.1,0.1,0.2,0.1,0.3s0,0.2-0.1,0.3S142.2,343.7,142.1,343.7z"/>
	<path id="XMLID_1109_" class="st0" d="M144.2,341.1c0-0.2-0.1-0.3-0.2-0.5c0.9-1.1,1.5-2.4,2.1-4l0.4,0.2c-0.3,0.7-0.5,1.3-0.8,1.8
		v6.1h-0.5v-5.3C144.8,340.1,144.5,340.6,144.2,341.1z M146.4,339.5l2-0.2c-0.1-0.8-0.1-1.6-0.1-2.7h0.5c0,1,0,1.9,0.1,2.7l3.1-0.3
		l0.1,0.4l-3.2,0.3c0.1,1.4,0.3,2.5,0.8,3.4c0.3,0.8,0.8,1.1,1.2,1.1c0.3,0,0.5-0.2,0.6-0.6c0.1-0.3,0.2-0.7,0.3-1.1
		c0.2,0.1,0.3,0.1,0.4,0.2c-0.1,0.3-0.2,0.7-0.3,1c-0.2,0.6-0.5,0.9-1,0.9c-0.7,0-1.2-0.4-1.6-1.4c-0.4-0.9-0.7-2-0.9-3.5l-2,0.2
		L146.4,339.5z M149.7,337.3l0.3-0.3c0.4,0.3,0.9,0.8,1.5,1.2l-0.3,0.3C150.7,338.2,150.2,337.8,149.7,337.3z"/>
	<path id="XMLID_1108_" class="st0" d="M161,337.5c-0.8,0.1-2,0.1-3.5,0.2v1.7h3v3.4c0,0.7-0.3,1-1,1c-0.1,0-0.3,0-0.4,0
		s-0.3,0-0.5,0c0-0.2-0.1-0.3-0.1-0.5c0.1,0,0.2,0,0.3,0s0.1,0,0.2,0c0.1,0,0.2,0,0.3,0c0.5,0,0.8-0.2,0.8-0.6v-2.8h-2.6v4.9h-0.4
		v-4.9h-2.5v4h-0.4v-4.4h3v-1.6c-1.5,0.1-2.7,0.1-3.4,0.1c0-0.2-0.1-0.3-0.1-0.4c2.8,0,5.2-0.1,7.3-0.3L161,337.5z"/>
</g>
<g id="XMLID_1053_">
	<path id="XMLID_1092_" class="st0" d="M95.5,431.2c-0.9,0-1.6-0.3-2.2-0.9s-0.9-1.4-0.9-2.4s0.3-1.9,0.9-2.5s1.3-0.9,2.3-0.9
		c0.9,0,1.5,0.3,2.2,0.9c0.7,0.6,0.8,1.4,0.8,2.3c0,1.1-0.3,1.9-0.9,2.6c-0.2,0.2-0.3,0.3-0.6,0.5l1.5,1.2h-0.8l-1.2-0.9
		C96.4,431.1,95.9,431.2,95.5,431.2z M95.5,424.8c-0.8,0-1.4,0.3-1.9,0.9c-0.5,0.6-0.8,1.3-0.8,2.2s0.3,1.6,0.7,2.2
		c0.4,0.5,1.1,0.8,1.9,0.8s1.5-0.3,1.9-0.8s0.7-1.3,0.7-2.2s-0.3-1.6-0.7-2.2C96.9,425.1,96.4,424.8,95.5,424.8z"/>
	<path id="XMLID_1091_" class="st0" d="M100.7,431.1c-0.1,0-0.2,0-0.3-0.1s-0.1-0.2-0.1-0.3s0-0.2,0.1-0.3s0.2-0.1,0.3-0.1
		s0.2,0,0.3,0.1c0.1,0.1,0.1,0.2,0.1,0.3s0,0.2-0.1,0.3S100.9,431.1,100.7,431.1z"/>
	<path id="XMLID_1088_" class="st0" d="M107.5,431l-0.8-2.1h-2.8l-0.8,2.1h-0.3l2.5-6.5h0.4l2.4,6.5H107.5z M105.5,425.6
		c0-0.1-0.1-0.2-0.1-0.3s-0.1-0.2-0.1-0.3l0,0c-0.1,0.2-0.1,0.3-0.2,0.5l-1.1,3h2.5L105.5,425.6z"/>
	<path id="XMLID_1085_" class="st0" d="M113.2,431l-0.9-1.9c-0.2-0.4-0.3-0.7-0.5-0.8s-0.4-0.2-0.7-0.2h-0.8v2.9h-0.4v-6.5h1.8
		c0.6,0,1,0.2,1.4,0.4c0.3,0.3,0.5,0.7,0.5,1.2c0,0.4-0.2,0.9-0.4,1.2c-0.3,0.3-0.7,0.5-1.1,0.6l0,0c0.3,0.1,0.5,0.4,0.8,0.9
		l0.9,2.1L113.2,431L113.2,431z M110.2,425v2.8h1.1c0.5,0,0.9-0.2,1.2-0.4c0.3-0.3,0.4-0.6,0.4-1s-0.2-0.8-0.4-0.9
		c-0.3-0.2-0.6-0.3-1.1-0.3h-1.2V425z"/>
	<path id="XMLID_1084_" class="st0" d="M117.5,425v6.1H117V425h-1.9v-0.4h4.2v0.4H117.5z"/>
	<path id="XMLID_1083_" class="st0" d="M125.3,431v-3.1h-3.7v3.1h-0.4v-6.5h0.4v3h3.7v-3h0.4v6.5H125.3z"/>
	<path id="XMLID_1082_" class="st0" d="M132.5,428.5c0,1.8-0.8,2.8-2.3,2.8s-2.2-0.9-2.2-2.6v-4h0.4v4c0,1.5,0.6,2.2,1.8,2.2
		s1.8-0.8,1.8-2.2v-4h0.4L132.5,428.5L132.5,428.5z"/>
	<path id="XMLID_1079_" class="st0" d="M138.1,431l-0.9-1.9c-0.2-0.4-0.3-0.7-0.5-0.8s-0.4-0.2-0.7-0.2h-0.8v2.9h-0.4v-6.5h1.8
		c0.6,0,1,0.2,1.4,0.4c0.4,0.2,0.5,0.7,0.5,1.2c0,0.4-0.2,0.9-0.4,1.2c-0.3,0.3-0.7,0.5-1.1,0.6l0,0c0.3,0.1,0.5,0.4,0.8,0.9
		l0.9,2.1L138.1,431L138.1,431z M135.3,425v2.8h1.1c0.5,0,0.9-0.2,1.2-0.4c0.3-0.3,0.4-0.6,0.4-1s-0.2-0.8-0.4-0.9
		c-0.3-0.2-0.6-0.3-1.1-0.3h-1.2V425z"/>
	<path id="XMLID_1078_" class="st0" d="M143.9,431v-6.5h0.4v6.1h2.6v0.4H143.9z"/>
	<path id="XMLID_1077_" class="st0" d="M150.6,425v6.1h-0.4V425h-1.9v-0.4h4.2v0.4H150.6z"/>
	<path id="XMLID_1074_" class="st0" d="M154.3,431v-6.5h1.6c1.1,0,1.9,0.3,2.5,0.8s0.9,1.3,0.9,2.3s-0.3,1.8-0.9,2.4
		c-0.6,0.6-1.5,0.9-2.5,0.9L154.3,431L154.3,431z M154.7,425v5.7h1c0.9,0,1.7-0.3,2.2-0.8s0.8-1.2,0.8-2.2c0-1.8-0.9-2.8-2.9-2.8
		L154.7,425L154.7,425z"/>
	<path id="XMLID_1070_" class="st0" d="M125,444v3.5c0.5-0.4,0.9-0.8,1.5-1.3c0,0.2,0.1,0.3,0.1,0.5c-0.4,0.3-0.9,0.8-1.6,1.4
		c-0.1,0.1-0.3,0.3-0.3,0.3l-0.3-0.3c0.1-0.1,0.2-0.2,0.2-0.3s0.1-0.3,0.1-0.3v-3h-1.1v-0.4L125,444L125,444z M125.6,443.1
		c-0.4-0.5-0.9-0.9-1.3-1.4l0.3-0.3c0.4,0.4,0.9,0.9,1.4,1.4L125.6,443.1z M128.4,441.3h0.5c0,0.5,0,1.1,0,1.6
		c0.3,2.9,1.2,4.8,2.7,5.8c-0.2,0.2-0.3,0.3-0.3,0.4c-1.4-1-2.2-2.7-2.4-4.8c-0.2,2.1-1,3.8-2.6,5c-0.1-0.2-0.3-0.3-0.3-0.4
		c1.7-1.3,2.6-3.1,2.7-5.6C128.4,442.8,128.4,442.2,128.4,441.3z"/>
	<path id="XMLID_1065_" class="st0" d="M135.9,449c-0.5-0.6-0.9-1.1-1.4-1.6c-0.2,0.7-0.7,1.4-1.5,2.1c-0.1-0.1-0.2-0.2-0.3-0.3
		l-0.1-0.1c0.7-0.5,1-1,1.3-1.5s0.3-1.3,0.3-2.3v-2.1h0.4v2.1c0,0.7-0.1,1.3-0.2,1.7c0.4,0.4,0.9,1,1.6,1.8L135.9,449z M133.2,441.7
		h2.7v5h-0.4v-4.6h-1.8v4.6h-0.4v-5H133.2z M136.5,444.3c-0.1-0.1-0.3-0.2-0.4-0.3c0.5-0.9,0.9-1.8,1.3-2.8l0.4,0.1
		c-0.2,0.5-0.3,0.9-0.4,1.2h3.3c0,1.9,0,3.6-0.1,5.3c0,0.9-0.4,1.3-1.4,1.3c-0.4,0-0.9,0-1.4,0c0-0.2-0.1-0.3-0.1-0.5
		c0.5,0,0.9,0,1.4,0c0.7,0,1-0.3,1-0.9c0.1-1.5,0.1-3.1,0.1-4.8h-2.9C137,443.3,136.8,443.7,136.5,444.3z M136.9,446.7
		c0.6,0,1.2-0.1,1.8-0.1c-0.1-0.3-0.3-0.6-0.5-1.1c-0.1-0.1-0.1-0.2-0.2-0.3l0.3-0.2c0.3,0.7,0.7,1.4,1.1,2.2l-0.4,0.2
		c0-0.1-0.1-0.1-0.1-0.2c-0.1-0.1-0.1-0.2-0.1-0.3c-0.9,0.1-1.5,0.1-1.9,0.2c-0.2,0-0.4,0.1-0.5,0.1l-0.3-0.4
		c0.2-0.1,0.3-0.3,0.3-0.5c0.3-0.8,0.7-1.6,1-2.6l0.4,0.1C137.7,445,137.3,445.9,136.9,446.7z"/>
	<path id="XMLID_1059_" class="st0" d="M142.1,445.5h1.7v-2.9h-1.5v-0.4h1.5v-0.9h0.4v0.9h3.8v-0.9h0.4v0.9h1.5v0.4h-1.5v2.9h1.6
		v0.4h-2.6c0.6,0.6,1.5,1.2,2.7,1.6c-0.1,0.1-0.1,0.2-0.2,0.3c0,0.1-0.1,0.1-0.1,0.1c-1.3-0.6-2.3-1.2-2.8-2h-1.9
		c-0.7,0.8-1.5,1.5-2.8,2.2c-0.1-0.1-0.2-0.3-0.3-0.3c1.1-0.5,1.9-1,2.6-1.7h-2.5L142.1,445.5L142.1,445.5z M145.9,446.3h0.4v0.8h2
		v0.4h-2v1h3.3v0.4h-7.1v-0.4h3.3v-1h-2v-0.4h2L145.9,446.3L145.9,446.3z M144.2,442.5v0.7h3.8v-0.7H144.2z M144.2,443.6v0.7h3.8
		v-0.7H144.2z M144.2,444.7v0.7h3.8v-0.7H144.2z"/>
	<path id="XMLID_1054_" class="st0" d="M159.2,444.3c-1.6-0.6-2.8-1.4-3.8-2.5c-0.9,1-2.2,1.9-3.8,2.6c-0.1-0.1-0.2-0.3-0.3-0.4
		c1.9-0.8,3.2-1.7,4-2.8l0.5,0.1l-0.1,0.1c0,0.1-0.1,0.1-0.1,0.1c0.9,1,2.2,1.9,3.7,2.3C159.3,444,159.2,444.1,159.2,444.3z
		 M152.8,444h5.2v0.4h-2.3v1.4h3v0.4h-3v2.3h3.6v0.4h-7.6v-0.4h3.5v-2.3h-3v-0.4h3v-1.4h-2.4V444z M152.6,446.9l0.3-0.3
		c0.4,0.4,0.8,0.8,1.1,1.2l-0.3,0.3C153.4,447.7,153,447.4,152.6,446.9z M157,448.1l-0.3-0.3c0.4-0.3,0.8-0.8,1.2-1.2l0.3,0.3
		C157.8,447.3,157.4,447.7,157,448.1z"/>
</g>
<g id="XMLID_956_">
	<path id="XMLID_1041_" class="st0" d="M76.8,525.5h1.7v-2.9H77v-0.4h1.5v-0.9H79v0.9h3.8v-0.9h0.4v0.9h1.5v0.4h-1.5v2.9h1.6v0.4
		h-2.6c0.6,0.6,1.5,1.2,2.7,1.6c-0.1,0.1-0.1,0.2-0.2,0.3c0,0.1-0.1,0.1-0.1,0.1c-1.3-0.6-2.3-1.2-2.8-2h-1.9
		c-0.7,0.8-1.5,1.5-2.8,2.2c-0.1-0.1-0.2-0.3-0.3-0.3c1.1-0.5,1.9-1,2.6-1.7h-2.5L76.8,525.5L76.8,525.5z M80.6,526.3H81v0.8h2v0.4
		h-2v1h3.3v0.4h-7.1v-0.4h3.3v-1h-2v-0.4h2L80.6,526.3L80.6,526.3z M79,522.6v0.7h3.8v-0.7H79z M79,523.7v0.7h3.8v-0.7H79z
		 M79,524.8v0.7h3.8v-0.7H79z"/>
	<path id="XMLID_1036_" class="st0" d="M94,524.4c-1.6-0.6-2.8-1.4-3.8-2.5c-0.9,1-2.2,1.9-3.8,2.6c-0.1-0.1-0.2-0.3-0.3-0.4
		c1.9-0.8,3.2-1.7,4-2.8l0.5,0.1l-0.1,0.1c0,0.1-0.1,0.1-0.1,0.1c0.9,1,2.2,1.9,3.7,2.3C94,524.1,94,524.2,94,524.4z M87.5,524h5.2
		v0.4h-2.3v1.4h3v0.4h-3v2.3H94v0.4h-7.6v-0.4h3.5v-2.3h-3v-0.4h3v-1.4h-2.4V524L87.5,524z M87.3,527l0.3-0.3
		c0.4,0.4,0.8,0.8,1.1,1.2l-0.3,0.3C88.1,527.8,87.8,527.5,87.3,527z M91.7,528.2l-0.3-0.3c0.4-0.3,0.8-0.8,1.2-1.2l0.3,0.3
		C92.6,527.4,92.2,527.8,91.7,528.2z"/>
	<path id="XMLID_1031_" class="st0" d="M95.4,526.3l-0.1-0.5c0.1,0,0.2-0.1,0.3-0.1c0.3-0.1,0.7-0.2,0.9-0.3v-2h-1.1V523h1.1v-1.6
		H97v1.6h1v0.4h-1v1.9c0.3-0.1,0.6-0.2,0.9-0.3c0,0.2,0,0.3,0,0.4h-0.1c-0.3,0.1-0.7,0.2-0.9,0.3v2.6c0,0.6-0.3,0.9-0.9,0.9
		c-0.3,0-0.4,0-0.6,0v-0.1c0-0.2,0-0.3-0.1-0.4c0.3,0,0.4,0,0.6,0c0.3,0,0.5-0.2,0.5-0.5v-2.4c-0.1,0-0.2,0.1-0.3,0.1
		C96.1,526.1,95.8,526.2,95.4,526.3z M98.5,525.6v-0.4h4.1v0.4c-0.4,0.9-0.9,1.6-1.6,2.2c0.6,0.4,1.5,0.8,2.5,1
		c-0.1,0.1-0.2,0.3-0.3,0.4c-1.1-0.3-2-0.7-2.7-1.2c-0.7,0.5-1.5,0.9-2.7,1.3c-0.1-0.2-0.2-0.3-0.3-0.4c1-0.3,1.9-0.7,2.6-1.1
		c-0.6-0.5-1-1.3-1.4-2.2L98.5,525.6L98.5,525.6z M102.7,523.9h0.8c0,0.2-0.1,0.3-0.1,0.4h-0.8c-0.6,0-0.9-0.3-0.9-0.9v-1.3h-2.1
		v0.3c0.1,0.9-0.3,1.7-1.1,2.3c-0.1-0.2-0.3-0.3-0.3-0.3c0.4-0.3,0.7-0.6,0.9-0.9c0.2-0.3,0.3-0.6,0.2-1.1v-0.8h2.9v1.6
		c0,0.2,0,0.3,0.1,0.4C102.4,523.9,102.5,523.9,102.7,523.9z M102.1,525.6h-2.8c0.3,0.9,0.7,1.5,1.3,2
		C101.3,527,101.8,526.3,102.1,525.6z"/>
	<path id="XMLID_1025_" class="st0" d="M104.7,524.7c0.7-0.5,1.4-0.9,2.1-1.5c0,0.1,0.1,0.2,0.3,0.4c-0.6,0.5-1.3,0.9-2,1.5
		L104.7,524.7z M108.6,526.3h0.4c0,0.3,0,0.6-0.1,0.9v0.1c0,0.1,0,0.2-0.1,0.2c1.1,0.4,2.3,0.9,3.6,1.4l-0.3,0.4
		c-1.3-0.6-2.5-1-3.5-1.5c-0.3,0.6-1.5,1.1-3.5,1.5c-0.1-0.2-0.2-0.3-0.3-0.5c2.2-0.3,3.4-0.9,3.6-1.8
		C108.6,527,108.6,526.6,108.6,526.3z M106.4,522.7c-0.4-0.3-0.9-0.7-1.3-1l0.3-0.3c0.4,0.3,0.9,0.6,1.4,0.9L106.4,522.7z
		 M105.9,525.4h5.6v2.4h-0.4v-2.1h-4.7v2.1H106L105.9,525.4L105.9,525.4z M107.3,525.1c-0.1-0.2-0.2-0.3-0.3-0.4
		c1.7-0.3,2.6-1.1,2.8-2.2h-1.4c-0.3,0.3-0.5,0.8-0.9,1.1c-0.1-0.1-0.3-0.3-0.3-0.3c0.6-0.6,1-1.3,1.4-2.1l0.4,0.1
		c-0.1,0.3-0.2,0.4-0.3,0.7h3.8v0.4l-0.5,1c-0.1-0.1-0.3-0.1-0.4-0.2l0.5-0.9h-1.8c0,0.1,0,0.2-0.1,0.3c0.4,1.1,1.3,1.8,2.6,2.1
		c-0.1,0.2-0.2,0.3-0.3,0.4c-1.3-0.3-2.2-1-2.5-1.9C109.7,524,108.9,524.6,107.3,525.1z"/>
	<path id="XMLID_1020_" class="st0" d="M114.3,529.4c-0.1-0.2-0.2-0.3-0.3-0.4c2.2-0.4,3.5-1.1,4-2h-4v-0.4h4.1
		c0.3-0.6,0.3-1.6,0.3-3h0.5c0,1.3-0.1,2.3-0.3,3h3.3v0.4h-3.4c-0.1,0.1-0.1,0.3-0.2,0.3c1.4,0.6,2.6,1.1,3.5,1.5l-0.3,0.4
		c-1.2-0.6-2.3-1.1-3.5-1.6C117.5,528.4,116.2,528.9,114.3,529.4z M117.6,521.4l0.4-0.2c0.2,0.3,0.3,0.6,0.5,1l-0.3,0.2h3.6v1.4
		h-0.4v-0.9h-6.6v0.9h-0.4v-1.4h3.8C117.9,522.1,117.7,521.8,117.6,521.4z M116.6,526c-0.5-0.3-1-0.6-1.6-0.9l0.3-0.3
		c0.6,0.3,1.1,0.5,1.6,0.9L116.6,526z M117.4,524.8c-0.5-0.3-1-0.6-1.5-0.9l0.3-0.3c0.6,0.3,1.1,0.6,1.6,0.9L117.4,524.8z"/>
	<path id="XMLID_1017_" class="st0" d="M124.9,521.4h0.4v2h0.9v0.4h-0.9v1.9c0.1,0,0.2-0.1,0.3-0.1c0.3-0.1,0.4-0.2,0.5-0.2
		c0,0.1,0,0.3,0.1,0.4c-0.1,0-0.3,0.1-0.4,0.2c-0.3,0.1-0.4,0.2-0.5,0.2v3.3h-0.4v-3.1c-0.2,0.1-0.4,0.2-0.9,0.3
		c-0.3,0.1-0.5,0.2-0.7,0.3l-0.1-0.4c0.6-0.2,1.1-0.3,1.6-0.5v-2.2h-0.9c-0.1,0.4-0.3,0.9-0.3,1.3c-0.1-0.1-0.3-0.2-0.3-0.2
		c0.3-0.8,0.5-1.6,0.6-2.7l0.4,0.1c0,0.3-0.1,0.8-0.2,1.1h0.9L124.9,521.4L124.9,521.4z M126,524.5c0.6-0.9,1.1-2,1.5-3.2l0.4,0.1
		c-0.2,0.4-0.3,0.8-0.5,1.3h3.5c-0.1,2.6-0.1,4.3-0.2,5.1c0,0.9-0.4,1.4-1.4,1.4c-0.3,0-0.7,0-1.1,0c0-0.2-0.1-0.3-0.1-0.5
		c0.3,0,0.8,0,1.1,0c0.6,0,0.9-0.3,0.9-1c0.1-1.4,0.1-2.9,0.2-4.6h-0.8c-0.2,2.8-1.1,4.8-2.8,6.1c-0.1-0.1-0.3-0.3-0.3-0.3
		c1.7-1.2,2.7-3.1,2.8-5.8h-0.9c-0.3,1.9-1,3.4-2.3,4.6c-0.1-0.1-0.3-0.3-0.3-0.3c1.3-1.1,2-2.5,2.2-4.2h-0.8
		c-0.3,0.6-0.6,1.1-0.9,1.6C126.2,524.6,126.2,524.5,126,524.5z"/>
	<path id="XMLID_1011_" class="st0" d="M132.6,524.7c0.7-0.5,1.4-0.9,2.1-1.5c0,0.1,0.1,0.2,0.3,0.4c-0.6,0.5-1.3,0.9-2,1.5
		L132.6,524.7z M136.5,526.3h0.4c0,0.3,0,0.6-0.1,0.9v0.1c0,0.1,0,0.2-0.1,0.2c1.1,0.4,2.3,0.9,3.6,1.4l-0.3,0.4
		c-1.3-0.6-2.5-1-3.5-1.5c-0.3,0.6-1.5,1.1-3.5,1.5c-0.1-0.2-0.2-0.3-0.3-0.5c2.2-0.3,3.4-0.9,3.6-1.8
		C136.5,527,136.5,526.6,136.5,526.3z M134.3,522.7c-0.4-0.3-0.9-0.7-1.3-1l0.3-0.3c0.4,0.3,0.9,0.6,1.4,0.9L134.3,522.7z
		 M133.8,525.4h5.6v2.4H139v-2.1h-4.7v2.1h-0.4v-2.4H133.8z M135.2,525.1c-0.1-0.2-0.2-0.3-0.3-0.4c1.7-0.3,2.6-1.1,2.8-2.2h-1.4
		c-0.3,0.3-0.5,0.8-0.9,1.1c-0.1-0.1-0.3-0.3-0.3-0.3c0.6-0.6,1-1.3,1.4-2.1l0.4,0.1c-0.1,0.3-0.2,0.4-0.3,0.7h3.8v0.4l-0.5,1
		c-0.1-0.1-0.3-0.1-0.4-0.2l0.5-0.9h-1.8c0,0.1,0,0.2-0.1,0.3c0.4,1.1,1.3,1.8,2.6,2.1c-0.1,0.2-0.2,0.3-0.3,0.4
		c-1.3-0.3-2.2-1-2.5-1.9C137.6,524,136.8,524.6,135.2,525.1z"/>
	<path id="XMLID_1007_" class="st0" d="M142.7,524.6h4c0.3-0.5,0.7-1,1-1.6l0.4,0.3c-0.3,0.4-0.6,0.9-0.9,1.4h2.4v0.4h-6.5v0.7
		c0.1,1.5-0.3,2.7-1,3.6c-0.2-0.2-0.3-0.3-0.3-0.3c0.3-0.4,0.6-0.9,0.7-1.4c0.2-0.5,0.2-1.1,0.2-1.9L142.7,524.6L142.7,524.6z
		 M145.7,521.4l0.4-0.1c0.2,0.3,0.3,0.7,0.3,0.9h3.4v0.4H142v-0.4h4C146,522,145.9,521.8,145.7,521.4L145.7,521.4z M143.9,523.3
		l0.3-0.3c0.3,0.3,0.6,0.7,0.9,1.3l-0.4,0.3C144.5,524.1,144.2,523.7,143.9,523.3z"/>
	<path id="XMLID_1006_" class="st0" d="M152.6,529.4h-0.3l0.7-2.2h0.4L152.6,529.4z"/>
	<path id="XMLID_1001_" class="st0" d="M77.9,538.9h6v7.7h-0.4v-0.7h-5.1v0.7H78L77.9,538.9L77.9,538.9z M78.3,539.4v1.7h5.1v-1.7
		H78.3z M78.3,541.5v1.7h5.1v-1.7H78.3z M78.3,543.7v1.8h5.1v-1.8H78.3z"/>
	<path id="XMLID_995_" class="st0" d="M86.3,544.3c-0.1-0.2-0.2-0.3-0.3-0.5c0.6-0.9,1-1.9,1.4-3h-1.2v-0.4h1.2v-1.7h0.4v1.7H89v0.4
		h-1.1v1.4l0.3-0.2c0.3,0.3,0.7,0.7,1,1l-0.3,0.3c-0.3-0.3-0.6-0.7-0.9-1v4.4h-0.4v-4.9C87.2,542.6,86.7,543.5,86.3,544.3z
		 M89.9,543l0.4,0.2c-0.3,0.8-0.8,1.6-1.3,2.6c-0.1-0.1-0.3-0.2-0.4-0.3C89.1,544.6,89.6,543.8,89.9,543z M89.1,541.6h5.1v0.4h-2.3
		v3.6c0,0.6-0.3,0.9-0.9,0.9c-0.2,0-0.3,0-0.4,0s-0.2,0-0.2,0c-0.1,0-0.2,0-0.3,0c0-0.1-0.1-0.3-0.1-0.5c0.3,0,0.6,0,0.9,0
		s0.4,0,0.4-0.2c0.1-0.1,0.2-0.3,0.2-0.4v-3.5h-2.3L89.1,541.6L89.1,541.6z M89.5,539.2h4.2v0.4h-4.2V539.2z M92.7,543.1l0.4-0.2
		c0.3,0.7,0.8,1.5,1.2,2.5l-0.4,0.3C93.4,544.9,93.1,544,92.7,543.1z"/>
	<path id="XMLID_990_" class="st0" d="M97,543.5l0.4,0.1c-0.1,0.3-0.1,0.5-0.2,0.7c0.4,0.9,1.1,1.4,2.1,1.5v-2.7h-3.9v-0.4h7.9v0.4
		h-3.6v1.1h3v0.4h-3v1.2c0,0,0,0,0.1,0h0.1c0.4,0,0.9,0,1.5,0c0.4,0,1.2,0,2.1,0c-0.1,0.1-0.1,0.3-0.2,0.4c-1.5,0-2.6,0-3.4,0
		c-1.4,0-2.2-0.5-2.8-1.5c-0.3,0.7-0.7,1.3-1.5,1.9c-0.1-0.1-0.2-0.3-0.3-0.3C96.3,545.6,96.8,544.7,97,543.5z M96.7,538.9h5.5v2.9
		h-5.5V538.9z M97.1,539.3v0.9h4.6v-0.9H97.1z M97.1,540.6v0.9h4.6v-0.9H97.1z"/>
	<path id="XMLID_989_" class="st0" d="M105.3,540h3.2v-1.5h0.5v1.5h3.2v0.4H109v1.7h3.8v0.4H109v3h2.5v-2.1h0.5v3.1h-0.5V546h-5.9
		v-2.5h0.5v2.1h2.5v-3h-3.8v-0.4h3.8v-1.7h-3.2L105.3,540L105.3,540z"/>
	<path id="XMLID_984_" class="st0" d="M115.7,540.2h0.4v1.7c0,0.8,0,1.4-0.1,1.8c0.3,0.3,0.9,0.8,1.6,1.5l-0.3,0.3
		c-0.5-0.5-0.9-1-1.4-1.5c-0.2,0.9-0.7,1.6-1.5,2.3c-0.1-0.1-0.3-0.3-0.3-0.3c0.7-0.6,1.1-1.1,1.4-1.6s0.3-1.4,0.3-2.6L115.7,540.2
		L115.7,540.2z M114.4,538.9h3v5.1H117v-4.6h-2.2v4.7h-0.4V538.9L114.4,538.9z M121.8,546.6c-0.9-0.6-1.5-1.1-2-1.7
		c-0.4,0.5-1.2,1.1-2.2,1.8c-0.1-0.2-0.3-0.3-0.3-0.3c1-0.6,1.7-1.2,2.2-1.8c-0.5-0.8-0.9-1.8-1-3.2c-0.3,0.4-0.4,0.8-0.6,1.1
		c-0.1-0.1-0.3-0.3-0.3-0.3c0.7-0.9,1.2-2.2,1.6-3.6l0.4,0.1c-0.2,0.6-0.3,1.1-0.5,1.5h3.1v0.4h-0.8c-0.2,1.8-0.6,3.1-1.3,4
		c0.4,0.6,1.1,1.1,2.1,1.6C122,546.3,121.9,546.4,121.8,546.6z M119.8,544.1c0.5-0.8,0.9-2,1-3.5h-2.1v0.1
		C119,542.2,119.3,543.3,119.8,544.1z"/>
	<path id="XMLID_978_" class="st0" d="M123.3,542.7h1.7v-2.9h-1.5v-0.4h1.5v-0.9h0.4v0.9h3.8v-0.9h0.4v0.9h1.5v0.4h-1.5v2.9h1.6v0.4
		h-2.6c0.6,0.6,1.5,1.2,2.7,1.6c-0.1,0.1-0.1,0.2-0.2,0.3c0,0.1-0.1,0.1-0.1,0.1c-1.3-0.6-2.3-1.2-2.8-2h-1.9
		c-0.7,0.8-1.5,1.5-2.8,2.2c-0.1-0.1-0.2-0.3-0.3-0.3c1.1-0.5,1.9-1,2.6-1.7h-2.5V542.7L123.3,542.7z M127.1,543.6h0.4v0.8h2v0.4h-2
		v1h3.3v0.4h-7.1v-0.4h3.3v-1h-2v-0.4h2L127.1,543.6L127.1,543.6z M125.5,539.8v0.7h3.8v-0.7H125.5z M125.5,540.9v0.7h3.8v-0.7
		H125.5z M125.5,542v0.7h3.8V542H125.5z"/>
	<path id="XMLID_970_" class="st0" d="M132.7,546.1c0.4-1.1,0.9-2.2,1.1-3.3c0.2,0.1,0.3,0.1,0.5,0.2c-0.4,1.2-0.8,2.3-1.1,3.4
		L132.7,546.1z M133.8,541.1c-0.3-0.6-0.6-1.2-1-1.8l0.3-0.2c0.4,0.7,0.8,1.3,1,1.8L133.8,541.1z M134.5,542.2
		c-0.1-0.1-0.3-0.3-0.3-0.3c0.9-0.9,1.5-2.1,2.1-3.4l0.4,0.2c-0.3,0.5-0.4,0.9-0.7,1.4h4.6v0.4h-2.2v1.5h2.1v0.4h-2.1v1.5h2.1v0.4
		h-2.1v1.5h2.2v0.4h-4.9v0.7h-0.4v-5.5C135.1,541.5,134.9,541.8,134.5,542.2z M135.8,540.5v1.5h2.2v-1.5H135.8z M135.8,542.3v1.5
		h2.2v-1.5H135.8z M135.8,544.2v1.5h2.2v-1.5H135.8z M137.6,538.7l0.3-0.3c0.3,0.4,0.5,0.9,0.8,1.2l-0.4,0.3
		C138.1,539.7,137.9,539.3,137.6,538.7z"/>
	<path id="XMLID_966_" class="st0" d="M144,538.6h0.4v8.1H144V544c-0.4,0.3-0.9,0.5-1.2,0.7c-0.2,0.1-0.3,0.2-0.3,0.3l-0.3-0.4
		c0.1-0.1,0.2-0.3,0.2-0.3c0-0.1,0.1-0.3,0.1-0.4v-4.1h0.4v4.4c0.2-0.1,0.6-0.3,1.3-0.7L144,538.6L144,538.6z M145,542.4
		c-0.1-0.1-0.2-0.3-0.3-0.3c0.9-1.1,1.5-2.3,2-3.6l0.4,0.1c-0.2,0.5-0.4,1-0.7,1.5h3.5v0.4H149c-0.3,1.8-0.7,3.1-1.4,4
		c0.5,0.6,1.3,1.1,2.4,1.5c-0.1,0.2-0.3,0.3-0.3,0.4c-1.1-0.5-1.9-1-2.4-1.6c-0.4,0.5-1.2,1.1-2.2,1.7c-0.1-0.2-0.2-0.3-0.3-0.4
		c0.9-0.6,1.7-1.1,2.2-1.6c-0.6-0.7-0.9-1.7-1.2-3.2C145.4,541.8,145.3,542.1,145,542.4z M147.3,544.2c0.6-0.8,1-2,1.3-3.6h-2.3v0.1
		c0,0.1,0,0.1-0.1,0.1C146.3,542.4,146.7,543.5,147.3,544.2z"/>
	<path id="XMLID_957_" class="st0" d="M152.4,543h5.7v2.8h1.1v0.4h-8.1v-0.4h1.2L152.4,543L152.4,543z M154.1,541.2l0.3,0.3
		c-0.9,0.6-1.8,1.1-2.8,1.5c-0.1-0.2-0.2-0.3-0.3-0.4C152.2,542.3,153.1,541.8,154.1,541.2z M151.4,540.4h4.6c0.5-0.7,1-1.3,1.4-1.9
		l0.4,0.3c-0.4,0.6-0.9,1.1-1.3,1.6h2.6v0.4h-7.7V540.4z M152.7,538.7l0.3-0.3c0.4,0.5,0.9,0.9,1.3,1.5l-0.4,0.3
		C153.5,539.7,153.1,539.3,152.7,538.7z M152.9,543.4v2.4h1.3v-2.4H152.9z M154.6,543.4v2.4h1.4v-2.4H154.6z M156.1,541.5l0.3-0.3
		c0.9,0.4,1.8,0.9,2.8,1.5l-0.3,0.4C158,542.4,157.2,542,156.1,541.5z M157.7,543.4h-1.4v2.4h1.4V543.4z"/>
</g>
<g id="XMLID_892_">
	<path id="XMLID_950_" class="st0" d="M397.1,525.3c0.7-0.5,1.4-0.9,2.1-1.5c0,0.1,0.1,0.2,0.3,0.4c-0.6,0.5-1.3,0.9-2,1.5
		L397.1,525.3z M401,527h0.4c0,0.3,0,0.6-0.1,0.9v0.1c0,0.1,0,0.2-0.1,0.2c1.1,0.4,2.3,0.9,3.6,1.4l-0.3,0.4c-1.3-0.6-2.5-1-3.5-1.5
		c-0.3,0.6-1.5,1.1-3.5,1.5c-0.1-0.2-0.2-0.3-0.3-0.5c2.2-0.3,3.4-0.9,3.6-1.8C401,527.6,401,527.2,401,527z M398.7,523.4
		c-0.4-0.3-0.9-0.7-1.3-1l0.3-0.3c0.4,0.3,0.9,0.6,1.4,0.9L398.7,523.4z M398.3,526h5.6v2.4h-0.4v-2.1h-4.7v2.1h-0.4V526H398.3z
		 M399.7,525.7c-0.1-0.2-0.2-0.3-0.3-0.4c1.7-0.3,2.6-1.1,2.8-2.2h-1.4c-0.3,0.3-0.5,0.8-0.9,1.1c-0.1-0.1-0.3-0.3-0.3-0.3
		c0.6-0.6,1-1.3,1.4-2.1l0.4,0.1c-0.1,0.3-0.2,0.4-0.3,0.7h3.8v0.4l-0.5,1c-0.1-0.1-0.3-0.1-0.4-0.2l0.5-0.9h-1.8
		c0,0.1,0,0.2-0.1,0.3c0.4,1.1,1.3,1.8,2.6,2.1c-0.1,0.2-0.2,0.3-0.3,0.4c-1.3-0.3-2.2-1-2.5-1.9
		C402.1,524.6,401.2,525.3,399.7,525.7z"/>
	<path id="XMLID_946_" class="st0" d="M407.2,525.3h4c0.3-0.5,0.7-1,1-1.6l0.4,0.3c-0.3,0.4-0.6,0.9-0.9,1.4h2.4v0.4h-6.5v0.7
		c0.1,1.5-0.3,2.7-1,3.6c-0.2-0.2-0.3-0.3-0.3-0.3c0.3-0.4,0.6-0.9,0.7-1.4c0.2-0.5,0.2-1.1,0.2-1.9L407.2,525.3L407.2,525.3z
		 M410.2,522.1l0.4-0.1c0.2,0.3,0.3,0.7,0.3,0.9h3.4v0.4h-7.9v-0.4h4C410.4,522.7,410.3,522.4,410.2,522.1L410.2,522.1z
		 M408.4,523.9l0.3-0.3c0.3,0.3,0.6,0.7,0.9,1.3l-0.4,0.3C409,524.7,408.7,524.3,408.4,523.9z"/>
	<path id="XMLID_942_" class="st0" d="M419.3,521.9h0.5c0,0.9-0.1,1.6-0.1,2.2h3.6c0,1.3-0.1,2.7-0.2,4c0,1.1-0.5,1.7-1.5,1.7
		c-0.5,0-0.9,0-1.5,0c0-0.2-0.1-0.3-0.2-0.5c0.3,0,0.9,0,1.5,0c0.4,0,0.7-0.1,0.9-0.3c0.2-0.2,0.3-0.4,0.3-0.9
		c0.1-1,0.1-2.2,0.2-3.5h-3.2c-0.2,2.3-1.3,4.1-3.4,5.4c-0.1-0.1-0.3-0.3-0.3-0.4c2.1-1.3,3.2-2.9,3.3-5.1H416v-0.3h3.2
		C419.2,523.5,419.3,522.8,419.3,521.9z M416.6,522.4l0.3-0.3c0.3,0.3,0.8,0.7,1.3,1.2l-0.3,0.3
		C417.5,523.2,417.1,522.8,416.6,522.4z M420,526.2l0.3-0.3c0.5,0.5,0.9,0.9,1.4,1.4l-0.4,0.3C420.9,527.2,420.5,526.7,420,526.2z"
		/>
	<path id="XMLID_936_" class="st0" d="M425,526.1h1.7v-2.9h-1.5v-0.4h1.5v-0.9h0.4v0.9h3.8v-0.9h0.4v0.9h1.5v0.4h-1.5v2.9h1.6v0.4
		h-2.6c0.6,0.6,1.5,1.2,2.7,1.6c-0.1,0.1-0.1,0.2-0.2,0.3c0,0.1-0.1,0.1-0.1,0.1c-1.3-0.6-2.3-1.2-2.8-2H428
		c-0.7,0.8-1.5,1.5-2.8,2.2c-0.1-0.1-0.2-0.3-0.3-0.3c1.1-0.5,1.9-1,2.6-1.7H425L425,526.1L425,526.1z M428.8,527h0.4v0.8h2v0.4h-2
		v1h3.3v0.4h-7.1v-0.4h3.3v-1h-1.9v-0.4h2L428.8,527L428.8,527z M427.1,523.2v0.7h3.8v-0.7H427.1z M427.1,524.3v0.7h3.8v-0.7H427.1z
		 M427.1,525.4v0.7h3.8v-0.7H427.1z"/>
	<path id="XMLID_931_" class="st0" d="M442.1,525c-1.6-0.6-2.8-1.4-3.8-2.5c-0.9,1-2.2,1.9-3.8,2.6c-0.1-0.1-0.2-0.3-0.3-0.4
		c1.9-0.8,3.2-1.7,4-2.8l0.5,0.1l-0.1,0.1c0,0.1-0.1,0.1-0.1,0.1c0.9,1,2.2,1.9,3.7,2.3C442.2,524.7,442.1,524.8,442.1,525z
		 M435.7,524.6h5.2v0.4h-2.3v1.4h3v0.4h-3v2.3h3.6v0.4h-7.6v-0.4h3.5v-2.2h-3v-0.4h3v-1.4h-2.4L435.7,524.6L435.7,524.6z
		 M435.5,527.6l0.3-0.3c0.4,0.4,0.8,0.8,1.1,1.2l-0.3,0.3C436.3,528.4,435.9,528.1,435.5,527.6z M439.9,528.8l-0.3-0.3
		c0.4-0.3,0.8-0.8,1.2-1.2l0.3,0.3C440.6,528,440.3,528.4,439.9,528.8z"/>
	<path id="XMLID_927_" class="st0" d="M449.4,522h0.4v1.1h1.7v0.4h-1.7v0.9h-0.4v-0.9h-1.6v0.9h-0.4v-0.9h-1.6v0.9h-0.4v-0.9h-1.7
		v-0.4h1.7V522h0.4v1.1h1.6V522h0.4v1.1h1.6V522L449.4,522z M443.8,524.8h7.5v1.4h-0.4v-0.9h-6.6v0.9h-0.4v-1.4H443.8z M445.2,529.3
		h-0.4v-2.8h2.6v-0.8h0.4v0.8h2.7v1.9c0,0.6-0.3,0.9-0.9,0.9c-0.3,0-0.6,0-0.9,0c0-0.2,0-0.3-0.1-0.4c0.3,0,0.6,0,0.9,0
		s0.6-0.2,0.5-0.5v-1.5h-2.2v3.2h-0.4v-3.2h-2.2V529.3z"/>
	<path id="XMLID_923_" class="st0" d="M453.1,529.5c-0.1-0.2-0.3-0.3-0.3-0.4c1.5-0.7,2.7-1.5,3.6-2.7h-3.5v-0.5h3.8v-2.4h-3.3v-0.4
		h3.3v-1.2h0.4v1.2h3.3v0.4h-3.3v2.4h3.8v0.4h-3.5c0.9,1.1,2.2,2,3.6,2.5c-0.1,0.1-0.2,0.3-0.3,0.4c-1.5-0.7-2.8-1.6-3.5-2.7v3.4
		h-0.4v-3.4C455.8,527.7,454.6,528.7,453.1,529.5z M454.2,524.2l0.3-0.3c0.3,0.4,0.7,0.8,1,1.2l-0.4,0.3
		C454.9,525.1,454.5,524.6,454.2,524.2z M458.6,525.6l-0.3-0.3c0.4-0.3,0.8-0.8,1.1-1.3l0.3,0.3C459.3,524.6,459,525.1,458.6,525.6z
		"/>
	<path id="XMLID_918_" class="st0" d="M462.3,525.4h1.1v-2.3h-1.2v-0.4h2.9v0.4h-1.2v2.3h1.1v0.4h-1.1v2.3c0.5-0.1,0.9-0.2,1.3-0.2
		c0,0.2,0,0.3,0,0.4c-1.2,0.2-2.2,0.3-2.9,0.5l-0.2-0.5c0.1,0,0.3,0,0.7-0.1c0.3,0,0.5-0.1,0.7-0.1v-2.2h-1.1L462.3,525.4
		L462.3,525.4z M467.3,523.5h0.4c0,0.7,0,1.1,0,1.5c-0.1,1.4-0.3,2.4-0.7,3c-0.3,0.7-1.1,1.3-2.3,2c-0.2-0.2-0.3-0.3-0.3-0.3
		c2-0.9,2.9-2.3,2.9-4.2c0-0.1,0-0.2,0-0.3C467.3,524.6,467.3,524,467.3,523.5z M465.4,522.3h4.1v4.9h-0.4v-4.5h-3.3v4.5h-0.4
		L465.4,522.3L465.4,522.3z M467.5,526.7h0.4v2c0,0.3,0,0.4,0.2,0.5c0.1,0.1,0.3,0.2,0.5,0.2h0.4c0.4,0,0.7-0.2,0.7-0.5
		s0.1-0.6,0.1-1c0.2,0.1,0.3,0.1,0.4,0.2c0,0.3-0.1,0.7-0.1,0.9c-0.1,0.6-0.4,0.9-1.2,0.9h-0.5c-0.6,0-0.9-0.3-0.9-1V526.7z"/>
	<path id="XMLID_913_" class="st0" d="M479.3,525c-1.6-0.6-2.8-1.4-3.8-2.5c-0.9,1-2.2,1.9-3.8,2.6c-0.1-0.1-0.2-0.3-0.3-0.4
		c1.9-0.8,3.2-1.7,4-2.8l0.5,0.1l-0.1,0.1c0,0.1-0.1,0.1-0.1,0.1c0.9,1,2.2,1.9,3.7,2.3C479.4,524.7,479.3,524.8,479.3,525z
		 M472.8,524.6h5.2v0.4h-2.3v1.4h3v0.4h-3v2.3h3.6v0.4h-7.6v-0.4h3.5v-2.2h-3v-0.4h3v-1.4h-2.4L472.8,524.6L472.8,524.6z
		 M472.7,527.6l0.3-0.3c0.4,0.4,0.8,0.8,1.1,1.2l-0.3,0.3C473.4,528.4,473.1,528.1,472.7,527.6z M477.1,528.8l-0.3-0.3
		c0.4-0.3,0.8-0.8,1.2-1.2l0.3,0.3C477.8,528,477.5,528.4,477.1,528.8z"/>
	<path id="XMLID_905_" class="st0" d="M482,525.7c-0.3-0.3-0.8-0.7-1.3-1l0.3-0.3c0.5,0.3,0.9,0.7,1.3,1L482,525.7z M480.9,529.7
		c0.3-0.9,0.6-1.9,0.9-3.1c0.1,0.1,0.3,0.2,0.4,0.2c-0.3,1.2-0.7,2.2-0.9,3L480.9,529.7z M482.2,523.5c-0.3-0.3-0.8-0.7-1.3-1.1
		l0.3-0.3c0.4,0.3,0.9,0.7,1.3,1L482.2,523.5z M483.7,526.3h0.4c0,1.1-0.1,1.9-0.3,2.4c-0.2,0.5-0.6,0.9-1.1,1.4
		c-0.1-0.1-0.2-0.3-0.3-0.3c0.5-0.3,0.9-0.8,1.1-1.2C483.6,528,483.7,527.3,483.7,526.3z M488.1,526.1c0-0.1-0.1-0.1-0.2-0.2
		c-0.1-0.2-0.3-0.3-0.3-0.3c-0.9,0-2,0.1-3.3,0.1c-0.2,0-0.3,0-0.4,0c-0.3,0-0.5,0-0.7,0.1l-0.3-0.4c0.2-0.1,0.3-0.2,0.5-0.3
		c0.4-0.3,0.9-0.9,1.5-1.5h-2.2v-0.4h2.8c-0.2-0.3-0.3-0.7-0.5-0.9l0.4-0.2c0.2,0.3,0.3,0.6,0.5,0.9l-0.3,0.2h2.8v0.4H485l0.3,0.2
		c-0.6,0.6-1.1,1.2-1.7,1.7c1,0,2.2-0.1,3.4-0.1c-0.3-0.3-0.5-0.6-0.9-0.9l0.3-0.3C486.9,524.7,487.5,525.3,488.1,526.1L488.1,526.1
		z M485.3,526.3h0.4v3.6h-0.4V526.3z M486.9,526.3h0.4v2.8c0,0.3,0.1,0.4,0.4,0.4h0.3c0.3,0,0.3-0.2,0.4-0.4c0.1-0.3,0.1-0.6,0.1-1
		c0.1,0.1,0.3,0.1,0.4,0.2c0,0.4-0.1,0.8-0.1,1c-0.1,0.4-0.3,0.7-0.8,0.7h-0.3c-0.5,0-0.8-0.3-0.8-0.8V526.3L486.9,526.3z"/>
	<path id="XMLID_901_" class="st0" d="M490.2,524.5h1.5V523c-0.6,0.1-1.1,0.1-1.4,0.1c0-0.2-0.1-0.3-0.1-0.4
		c1.1-0.1,2.2-0.2,3.3-0.3l0.1,0.4c-0.1,0-0.2,0-0.3,0c-0.4,0-0.8,0.1-1,0.1v1.5h1.5v0.4h-1.5v1.2l0.3-0.2c0.3,0.3,0.7,0.6,1.2,1.1
		l0.1,0.1l-0.3,0.3c-0.4-0.5-0.9-0.9-1.2-1.2v3.8H492v-4.3c-0.3,0.9-0.9,1.9-1.5,2.7c-0.1-0.2-0.2-0.3-0.3-0.5
		c0.7-0.9,1.3-1.8,1.7-3h-1.5L490.2,524.5L490.2,524.5z M494.3,522.9h3.5v6.9h-0.4V529h-2.6v0.9h-0.4L494.3,522.9L494.3,522.9z
		 M494.7,523.4v5.2h2.6v-5.2H494.7z"/>
	<path id="XMLID_897_" class="st0" d="M499.6,525.7c-0.1-0.2-0.3-0.3-0.3-0.4c1.3-0.9,2.2-1.9,3-3.3l0.4,0.3
		C501.9,523.7,500.8,524.8,499.6,525.7z M500.4,525.6h5.4c0,1-0.1,1.9-0.1,2.7c0,0.9-0.5,1.5-1.5,1.5c-0.2,0-0.3,0-0.6,0
		c-0.1,0-0.2,0-0.3,0s-0.3,0-0.3,0c0-0.2,0-0.3-0.1-0.5c0.4,0,0.9,0,1.3,0c0.7,0,1-0.3,1-1c0.1-0.8,0.1-1.5,0.1-2.2h-2.8
		c0,1.9-0.9,3.2-2.6,4c-0.1-0.2-0.2-0.3-0.3-0.4c1.6-0.7,2.4-1.9,2.4-3.6h-1.6V525.6L500.4,525.6z M504,522.1l0.4-0.2
		c0.6,1.5,1.5,2.6,2.9,3.4c-0.2,0.2-0.3,0.3-0.3,0.4C505.6,524.8,504.7,523.6,504,522.1z"/>
	<path id="XMLID_893_" class="st0" d="M509.6,527c0.8-0.1,1.4-0.2,2-0.2c0,0.1,0,0.3,0,0.4c-1.2,0.1-2.1,0.3-2.5,0.3l-0.2-0.4
		c0.2-0.1,0.3-0.3,0.6-0.6c0.3-0.3,0.5-0.7,0.9-1.2c-0.7,0-1.2,0-1.5,0.1l-0.2-0.4c0.2-0.1,0.3-0.3,0.5-0.6c0.5-0.8,0.9-1.5,1.3-2.3
		l0.5,0.2c-0.6,1-1.1,1.9-1.7,2.8c0.1,0,0.2,0,0.3,0c0.5,0,0.9,0,1,0c0.3-0.3,0.4-0.7,0.7-1.2l0.5,0.2
		C511,525.1,510.2,526.2,509.6,527z M508.7,529.3l-0.1-0.4c0.9-0.2,1.9-0.3,3-0.5c0,0.1,0,0.2,0,0.3s0,0.2,0,0.3
		C510.6,528.9,509.6,529.1,508.7,529.3z M511.8,522.8h4.6v0.4h-2.1v5.9h2.4v0.4h-5.3v-0.4h2.5v-5.9h-2.1L511.8,522.8L511.8,522.8z"
		/>
</g>
<g id="XMLID_825_">
	<path id="XMLID_882_" class="st0" d="M397.9,428.9h1.7V426h-1.5v-0.4h1.5v-0.9h0.4v0.9h3.8v-0.9h0.4v0.9h1.5v0.4h-1.5v2.9h1.6v0.4
		h-2.6c0.6,0.6,1.5,1.2,2.7,1.6c-0.1,0.1-0.1,0.2-0.2,0.3c0,0.1-0.1,0.1-0.1,0.1c-1.3-0.6-2.3-1.2-2.8-2H401
		c-0.7,0.8-1.5,1.5-2.8,2.2c-0.1-0.1-0.2-0.3-0.3-0.3c1.1-0.5,1.9-1,2.6-1.7H398L397.9,428.9L397.9,428.9z M401.6,429.7h0.4v0.8h2
		v0.4h-2v1h3.3v0.4h-7.1v-0.4h3.3v-1h-2v-0.4h2L401.6,429.7L401.6,429.7z M400,425.9v0.7h3.8v-0.7H400z M400,427v0.7h3.8V427H400z
		 M400,428.1v0.7h3.8v-0.7H400z"/>
	<path id="XMLID_877_" class="st0" d="M415,427.7c-1.6-0.6-2.8-1.4-3.8-2.5c-0.9,1-2.2,1.9-3.8,2.6c-0.1-0.1-0.2-0.3-0.3-0.4
		c1.9-0.8,3.2-1.7,4-2.8l0.5,0.1l-0.1,0.1c0,0.1-0.1,0.1-0.1,0.1c0.9,1,2.2,1.9,3.7,2.3C415.1,427.5,415,427.5,415,427.7z
		 M408.5,427.4h5.2v0.4h-2.3v1.4h3v0.4h-3v2.3h3.6v0.4h-7.6v-0.4h3.5v-2.3h-3v-0.4h3v-1.4h-2.4L408.5,427.4L408.5,427.4z
		 M408.4,430.3l0.3-0.3c0.4,0.4,0.8,0.8,1.1,1.2l-0.3,0.3C409.1,431.2,408.8,430.8,408.4,430.3z M412.8,431.5l-0.3-0.3
		c0.4-0.3,0.8-0.8,1.2-1.2l0.3,0.3C413.5,430.7,413.2,431.2,412.8,431.5z"/>
	<path id="XMLID_874_" class="st0" d="M420.3,424.6h0.4v1.2h3.7v0.4h-3.7v1.5h2.3v0.4c-0.5,1.2-1.3,2.2-2.2,2.9
		c0.7,0.5,1.9,0.9,3.5,1.2l0,0c-0.1,0.2-0.2,0.3-0.3,0.4c-1.8-0.3-3-0.8-3.7-1.3c-0.9,0.6-2.1,1-3.7,1.5c-0.1-0.1-0.2-0.3-0.3-0.4
		c1.5-0.3,2.8-0.8,3.6-1.3c-0.9-0.7-1.5-1.6-2-2.9h-0.8v-0.4h3v-1.5h-3.8v-0.5h3.8L420.3,424.6L420.3,424.6z M422.7,428.1h-4
		c0.4,1.2,1.1,2.1,1.9,2.7C421.5,430.1,422.1,429.3,422.7,428.1z"/>
	<path id="XMLID_870_" class="st0" d="M425.9,429.2c-0.1-0.2-0.1-0.4-0.2-0.5c0.9-1.1,1.5-2.4,2-4l0.5,0.2c-0.3,0.6-0.5,1.3-0.9,1.9
		v6H427v-5.2C426.6,428.2,426.3,428.7,425.9,429.2z M428.2,426.7h3.9v-2h0.5v2h1.2v0.4h-1.2v4.3c0,0.8-0.3,1.2-1.1,1.2
		c-0.3,0-0.8,0-1.2,0c0-0.2-0.1-0.3-0.1-0.5c0.4,0,0.9,0,1.1,0c0.6,0,0.9-0.3,0.8-0.7v-4.3h-3.9L428.2,426.7L428.2,426.7z
		 M428.5,428.4l0.3-0.3c0.5,0.6,1.1,1.3,1.7,2.1l-0.4,0.3C429.5,429.6,428.9,428.9,428.5,428.4z"/>
	<path id="XMLID_863_" class="st0" d="M435.6,425h2.3v6.7c0,0.6-0.3,0.9-0.9,0.9c-0.1,0-0.2,0-0.3,0c0,0-0.1,0-0.2,0
		c0,0-0.1,0-0.2,0c0-0.2,0-0.3-0.1-0.4c0.2,0,0.3,0,0.6,0c0.2,0,0.3,0,0.4-0.1s0.1-0.2,0.1-0.3v-2H436c0,0.1,0,0.2,0,0.3
		c0,1.1-0.3,2.1-0.7,2.7c-0.1-0.1-0.3-0.2-0.4-0.3c0.3-0.4,0.4-0.9,0.5-1.2c0.1-0.3,0.2-0.9,0.2-1.6V425z M436,425.5v1.7h1.5v-1.7
		H436z M436,427.6v1.8h1.5v-1.8H436z M438.6,429v-0.4h3.8v0.4c-0.4,0.9-0.9,1.7-1.5,2.2c0.5,0.3,1.2,0.7,2.2,1
		c-0.1,0.2-0.2,0.3-0.3,0.4c-1-0.3-1.7-0.8-2.2-1.1c-0.5,0.4-1.3,0.9-2.3,1.3c-0.1-0.1-0.2-0.3-0.3-0.4c1-0.4,1.7-0.8,2.2-1.2
		c-0.5-0.5-0.9-1.2-1.3-2.2H438.6z M442.5,427.5c0.2,0,0.3,0,0.3,0c0.1,0,0.2,0,0.3,0c0,0.2-0.1,0.3-0.1,0.4c-0.1,0-0.2,0-0.3,0
		s-0.1,0-0.2,0s-0.2,0-0.3,0c-0.6,0-0.9-0.3-0.9-0.9v-1.5h-1.8v0.3c0,0.7-0.1,1.2-0.3,1.5c-0.2,0.3-0.5,0.7-1,0.9
		c-0.1-0.1-0.2-0.2-0.3-0.3c0.5-0.3,0.8-0.5,0.9-0.9c0.2-0.3,0.3-0.7,0.2-1.3V425h2.7v1.8c0,0.3,0,0.3,0.1,0.4
		C442.2,427.5,442.4,427.5,442.5,427.5z M441.9,429h-2.5c0.3,0.9,0.7,1.5,1.2,1.9C441.1,430.5,441.5,429.8,441.9,429z"/>
	<path id="XMLID_854_" class="st0" d="M445,430.3l0.4,0.2c-0.3,0.7-0.5,1.3-0.7,1.7l-0.4-0.2C444.5,431.5,444.8,430.9,445,430.3z
		 M445.4,425.5h2.1c0.1-0.3,0.2-0.6,0.3-0.9l0.4,0.1v0.1c-0.1,0.3-0.2,0.5-0.3,0.7h3.4v4.1h-5.9V425.5L445.4,425.5z M445.8,425.9
		v0.9h4.9v-0.9H445.8z M445.8,427.1v0.9h4.9v-0.9H445.8z M445.8,428.4v0.9h4.9v-0.9H445.8z M446.2,430.3h0.4v1.2
		c0,0.3,0.1,0.4,0.2,0.5s0.3,0.2,0.6,0.2h1.8c0.5,0,0.8-0.2,0.9-0.5c0.1-0.2,0.1-0.5,0.2-0.9c0.2,0.1,0.3,0.2,0.4,0.2
		c-0.1,0.3-0.1,0.6-0.2,0.8c-0.1,0.6-0.5,0.9-1.2,0.9h-2c-0.8,0-1.1-0.3-1.1-1.1L446.2,430.3L446.2,430.3z M447.8,430.2l0.3-0.3
		c0.3,0.3,0.7,0.7,1,1l-0.3,0.3C448.4,430.8,448.1,430.5,447.8,430.2z M451.1,430.5l0.3-0.3c0.3,0.4,0.7,0.8,1.1,1.3l-0.3,0.3
		C451.8,431.3,451.4,430.9,451.1,430.5z"/>
	<path id="XMLID_847_" class="st0" d="M453.7,432.1l-0.1-0.4c1.2-0.2,2.2-0.3,2.8-0.5c0,0.1,0,0.2,0,0.3s0,0.1,0,0.3
		C455.5,431.8,454.5,431.9,453.7,432.1z M454.4,429.7c0.3,0,0.8-0.1,1.4-0.1c0.2,0,0.3,0,0.4,0c0,0.1,0,0.2-0.1,0.3l0,0
		c-1.1,0.1-1.8,0.2-2.3,0.2l-0.2-0.4c0.2-0.1,0.4-0.3,0.7-0.8c0.3-0.3,0.5-0.7,0.8-1.1c-0.7,0-1.2,0-1.5,0.1l-0.2-0.4
		c0.2-0.2,0.3-0.3,0.5-0.6c0.5-0.8,0.9-1.5,1.3-2.2l0.4,0.2c-0.5,0.9-1,1.7-1.7,2.7c0.1,0,0.3,0,0.4,0c0.4,0,0.7,0,0.9,0
		c0.1-0.2,0.3-0.5,0.5-0.9l0.4,0.2C455.7,428,455,428.9,454.4,429.7z M459,424.5l0.5,0.1l0,0c-0.1,0.1-0.1,0.2-0.1,0.3
		c0.6,1.1,1.5,1.9,2.5,2.5l0,0c-0.1,0.1-0.3,0.3-0.3,0.3c-1-0.7-1.8-1.5-2.3-2.5c-0.6,1-1.4,1.9-2.4,2.6c-0.1-0.1-0.2-0.3-0.3-0.3
		C457.5,426.8,458.4,425.8,459,424.5z M457,429.3h4v3.4h-0.4v-0.5h-3.1v0.5H457V429.3z M457.3,427.7h3.4v0.4h-3.4V427.7z
		 M457.4,429.7v2.2h3.1v-2.2H457.4z"/>
	<path id="XMLID_844_" class="st0" d="M466.1,431.8c-0.9,0-1.6-0.3-2.2-0.9c-0.6-0.6-0.9-1.4-0.9-2.4s0.3-1.9,0.9-2.5
		s1.3-0.9,2.3-0.9c0.9,0,1.5,0.3,2.2,0.9c0.6,0.6,0.8,1.4,0.8,2.3c0,1.1-0.3,1.9-0.9,2.6c-0.2,0.2-0.3,0.3-0.6,0.5l1.5,1.2h-0.8
		l-1.2-0.9C467.1,431.8,466.6,431.8,466.1,431.8z M466.2,425.5c-0.8,0-1.4,0.3-1.9,0.9s-0.8,1.3-0.8,2.2s0.3,1.6,0.7,2.2
		c0.4,0.5,1.1,0.8,1.9,0.8s1.5-0.3,1.9-0.8s0.7-1.3,0.7-2.2s-0.3-1.6-0.7-2.2C467.6,425.8,467,425.5,466.2,425.5z"/>
	<path id="XMLID_843_" class="st0" d="M471.4,431.8c-0.1,0-0.2,0-0.3-0.1c-0.1-0.1-0.1-0.2-0.1-0.3s0-0.2,0.1-0.3s0.2-0.1,0.3-0.1
		s0.2,0,0.3,0.1c0.1,0.1,0.1,0.2,0.1,0.3s0,0.2-0.1,0.3C471.6,431.8,471.5,431.8,471.4,431.8z"/>
	<path id="XMLID_840_" class="st0" d="M481.5,431.7l-0.8-2.1h-2.8l-0.8,2.1h-0.4l2.5-6.5h0.4l2.4,6.5H481.5z M479.4,426.2
		c0-0.1-0.1-0.2-0.1-0.3s-0.1-0.2-0.1-0.3l0,0c-0.1,0.2-0.1,0.3-0.2,0.5l-1.1,3h2.5L479.4,426.2z"/>
	<path id="XMLID_837_" class="st0" d="M487.1,431.7l-0.9-1.9c-0.2-0.4-0.3-0.7-0.5-0.8s-0.4-0.2-0.7-0.2h-0.8v2.9h-0.4v-6.5h1.8
		c0.6,0,1,0.2,1.4,0.4c0.3,0.3,0.5,0.7,0.5,1.2c0,0.4-0.2,0.9-0.4,1.2c-0.2,0.3-0.7,0.5-1.1,0.6l0,0c0.3,0.1,0.5,0.4,0.8,0.9
		l0.9,2.1L487.1,431.7L487.1,431.7z M484.2,425.6v2.8h1.1c0.5,0,0.9-0.2,1.2-0.4c0.3-0.3,0.4-0.6,0.4-1s-0.2-0.8-0.4-0.9
		c-0.3-0.2-0.6-0.3-1.1-0.3h-1.2V425.6z"/>
	<path id="XMLID_836_" class="st0" d="M491.4,425.6v6.1H491v-6.1h-2v-0.4h4.2v0.4H491.4z"/>
	<path id="XMLID_835_" class="st0" d="M499.2,431.7v-3.1h-3.7v3.1h-0.4v-6.5h0.4v3h3.7v-3h0.4v6.5H499.2z"/>
	<path id="XMLID_834_" class="st0" d="M506.4,429.1c0,1.8-0.8,2.8-2.3,2.8s-2.2-0.9-2.2-2.6v-4h0.4v4c0,1.5,0.6,2.2,1.8,2.2
		c1.2,0,1.8-0.8,1.8-2.2v-4h0.4L506.4,429.1L506.4,429.1z"/>
	<path id="XMLID_831_" class="st0" d="M512,431.7l-0.9-1.9c-0.2-0.4-0.3-0.7-0.5-0.8s-0.4-0.2-0.7-0.2h-0.8v2.9h-0.4v-6.5h1.8
		c0.6,0,1,0.2,1.4,0.4c0.4,0.2,0.5,0.7,0.5,1.2c0,0.4-0.2,0.9-0.4,1.2c-0.3,0.3-0.7,0.5-1.1,0.6l0,0c0.3,0.1,0.5,0.4,0.8,0.9
		l0.9,2.1L512,431.7L512,431.7z M509.2,425.6v2.8h1.1c0.5,0,0.9-0.2,1.2-0.4c0.3-0.2,0.4-0.6,0.4-1s-0.2-0.8-0.4-0.9
		c-0.3-0.2-0.6-0.3-1.1-0.3h-1.2V425.6z"/>
	<path id="XMLID_830_" class="st0" d="M517.8,431.7v-6.5h0.4v6.1h2.6v0.4H517.8z"/>
	<path id="XMLID_829_" class="st0" d="M524.5,425.6v6.1h-0.4v-6.1h-1.9v-0.4h4.2v0.4H524.5z"/>
	<path id="XMLID_826_" class="st0" d="M528.2,431.7v-6.5h1.6c1.1,0,1.9,0.3,2.5,0.8s0.9,1.3,0.9,2.3s-0.3,1.8-0.9,2.4
		c-0.6,0.6-1.5,0.9-2.5,0.9L528.2,431.7L528.2,431.7z M528.6,425.6v5.7h1c0.9,0,1.7-0.3,2.2-0.8s0.8-1.2,0.8-2.2
		c0-1.8-0.9-2.8-2.9-2.8L528.6,425.6L528.6,425.6z"/>
</g>
<g id="XMLID_643_">
	<path id="XMLID_816_" class="st0" d="M400.6,326c-0.9,0-1.6-0.3-2.2-0.9s-0.9-1.4-0.9-2.4s0.3-1.9,0.9-2.5s1.3-0.9,2.3-0.9
		c0.9,0,1.5,0.3,2.2,0.9c0.6,0.6,0.8,1.4,0.8,2.3c0,1.1-0.3,1.9-0.9,2.6c-0.2,0.2-0.3,0.3-0.6,0.5l1.5,1.2h-0.8l-1.2-0.9
		C401.6,325.9,401.1,326,400.6,326z M400.7,319.7c-0.8,0-1.4,0.3-1.9,0.9c-0.5,0.6-0.8,1.3-0.8,2.2s0.3,1.6,0.7,2.2
		c0.4,0.6,1.1,0.8,1.9,0.8s1.5-0.3,1.9-0.8s0.7-1.3,0.7-2.2s-0.3-1.6-0.7-2.2C402.1,319.9,401.5,319.7,400.7,319.7z"/>
	<path id="XMLID_815_" class="st0" d="M405.9,325.9c-0.1,0-0.2,0-0.3-0.1c-0.1-0.1-0.1-0.2-0.1-0.3s0-0.2,0.1-0.3s0.2-0.1,0.3-0.1
		c0.1,0,0.2,0,0.3,0.1c0.1,0.1,0.1,0.2,0.1,0.3s0,0.2-0.1,0.3C406,325.9,406,325.9,405.9,325.9z"/>
	<path id="XMLID_812_" class="st0" d="M415.9,325.8l-0.8-2.1h-2.8l-0.8,2.1H411l2.5-6.5h0.4l2.4,6.5H415.9z M413.9,320.4
		c0-0.1-0.1-0.2-0.1-0.3s-0.1-0.2-0.1-0.3l0,0c-0.1,0.2-0.1,0.3-0.2,0.5l-1.1,3h2.5L413.9,320.4z"/>
	<path id="XMLID_809_" class="st0" d="M421.5,325.8l-0.9-1.9c-0.2-0.4-0.3-0.7-0.5-0.8s-0.4-0.2-0.7-0.2h-0.8v3h-0.4v-6.5h1.8
		c0.6,0,1,0.2,1.4,0.4c0.3,0.3,0.5,0.7,0.5,1.2c0,0.4-0.2,0.9-0.4,1.2c-0.3,0.3-0.7,0.5-1.1,0.6l0,0c0.3,0.1,0.5,0.4,0.8,0.9
		l0.9,2.1C422.1,325.8,421.5,325.8,421.5,325.8z M418.7,319.8v2.8h1.1c0.5,0,0.9-0.2,1.2-0.4s0.4-0.6,0.4-1s-0.2-0.8-0.4-0.9
		s-0.6-0.3-1.1-0.3h-1.2V319.8z"/>
	<path id="XMLID_808_" class="st0" d="M425.8,319.8v6.1h-0.4v-6.1h-1.9v-0.4h4.2v0.4H425.8z"/>
	<path id="XMLID_807_" class="st0" d="M433.7,325.8v-3.1H430v3.1h-0.4v-6.5h0.4v3h3.7v-3h0.4v6.5H433.7z"/>
	<path id="XMLID_806_" class="st0" d="M440.9,323.3c0,1.8-0.8,2.8-2.3,2.8s-2.2-0.9-2.2-2.6v-4h0.4v4c0,1.5,0.6,2.2,1.8,2.2
		c1.2,0,1.8-0.8,1.8-2.2v-4h0.4L440.9,323.3L440.9,323.3z"/>
	<path id="XMLID_803_" class="st0" d="M446.5,325.8l-0.9-1.9c-0.2-0.4-0.3-0.7-0.5-0.8s-0.4-0.2-0.7-0.2h-0.8v3h-0.4v-6.5h1.8
		c0.6,0,1,0.2,1.4,0.4c0.3,0.3,0.5,0.7,0.5,1.2c0,0.4-0.2,0.9-0.4,1.2c-0.3,0.3-0.7,0.5-1.1,0.6l0,0c0.3,0.1,0.5,0.4,0.8,0.9
		l0.9,2.1C447.1,325.8,446.5,325.8,446.5,325.8z M443.7,319.8v2.8h1.1c0.5,0,0.9-0.2,1.2-0.4c0.3-0.3,0.4-0.6,0.4-1
		s-0.2-0.8-0.4-0.9c-0.3-0.2-0.6-0.3-1.1-0.3h-1.2V319.8z"/>
	<path id="XMLID_802_" class="st0" d="M452.3,325.8v-6.5h0.4v6.1h2.6v0.4H452.3z"/>
	<path id="XMLID_801_" class="st0" d="M459,319.8v6.1h-0.4v-6.1h-1.9v-0.4h4.2v0.4H459z"/>
	<path id="XMLID_798_" class="st0" d="M462.7,325.8v-6.5h1.6c1.1,0,1.9,0.3,2.5,0.8s0.9,1.3,0.9,2.3s-0.3,1.8-0.9,2.4
		s-1.5,0.9-2.5,0.9L462.7,325.8L462.7,325.8z M463.1,319.8v5.7h1c0.9,0,1.7-0.3,2.2-0.8s0.8-1.2,0.8-2.2c0-1.8-0.9-2.8-2.9-2.8h-1.1
		V319.8z"/>
	<path id="XMLID_793_" class="st0" d="M469.2,323.3c-0.1-0.2-0.2-0.3-0.3-0.5c0.8-1.2,1.4-2.5,1.8-4l0.4,0.1
		c-0.2,0.7-0.4,1.4-0.8,2.1v5.9H470v-5C469.8,322.3,469.6,322.8,469.2,323.3z M471.4,320h2.6v-1.1h0.4v1.1h2.8v0.4h-2.8v1h2.2v2.5
		h-0.4v-0.3h-1.9c-0.1,0.9-0.3,1.5-0.6,2c0.6,0.4,1.7,0.8,3.4,0.9c-0.1,0.2-0.2,0.3-0.3,0.4c-1.6-0.2-2.8-0.5-3.4-1
		c-0.4,0.3-1.1,0.7-2.2,1.1c-0.1-0.2-0.2-0.3-0.3-0.4c1-0.3,1.7-0.7,2.1-1c-0.3-0.3-0.7-0.8-1.1-1.3l0.3-0.3c0.3,0.5,0.7,0.9,1,1.2
		c0.3-0.3,0.5-0.9,0.6-1.6h-2.2v-2.2h2.3v-1h-2.6L471.4,320L471.4,320z M474,323.2c0-0.3,0-0.6,0-0.9v-0.4h-1.8v1.4L474,323.2
		L474,323.2z M474.4,322.1c0,0.3,0,0.7,0,1h1.9v-1.4h-1.8L474.4,322.1L474.4,322.1z"/>
	<path id="XMLID_787_" class="st0" d="M482.8,326.8h-0.4v-2.7h-2.7c-0.1,1-0.4,2-0.9,2.8c-0.1-0.1-0.3-0.2-0.4-0.3
		c0.4-0.6,0.7-1.2,0.9-1.7c0.2-0.5,0.2-1.4,0.2-2.6v-3h6.6v6.5c0,0.7-0.3,1-1,1c-0.2,0-0.3,0-0.4,0s-0.2,0-0.3,0c-0.1,0-0.2,0-0.3,0
		c0-0.2-0.1-0.3-0.1-0.5c0.3,0,0.6,0,1,0s0.7-0.2,0.7-0.6v-1.6H483L482.8,326.8L482.8,326.8z M479.7,322.3c0,0.4,0,0.9,0,1.4h2.6
		v-1.8h-2.6V322.3z M479.7,319.7v1.8h2.6v-1.8H479.7z M485.5,319.7h-2.7v1.8h2.7V319.7z M482.8,322v1.8h2.7V322H482.8z"/>
	<path id="XMLID_783_" class="st0" d="M489.7,318.9h0.4v8.1h-0.4v-2.7c-0.4,0.3-0.9,0.5-1.2,0.7c-0.2,0.1-0.3,0.2-0.3,0.3l-0.3-0.4
		c0.1-0.1,0.2-0.3,0.2-0.3c0-0.1,0.1-0.3,0.1-0.4v-4.1h0.4v4.4c0.2-0.1,0.6-0.3,1.3-0.7L489.7,318.9L489.7,318.9z M490.8,322.8
		c-0.1-0.1-0.2-0.3-0.3-0.3c0.9-1.1,1.5-2.3,2-3.6l0.4,0.1c-0.2,0.5-0.4,1-0.7,1.5h3.5v0.4h-0.9c-0.3,1.8-0.7,3.1-1.4,4
		c0.5,0.6,1.3,1.1,2.4,1.5c-0.1,0.2-0.3,0.3-0.3,0.4c-1.1-0.5-1.9-1-2.4-1.6c-0.4,0.5-1.2,1.1-2.2,1.7c-0.1-0.2-0.2-0.3-0.3-0.4
		c0.9-0.6,1.7-1.1,2.2-1.6c-0.6-0.7-0.9-1.7-1.2-3.2C491.3,322.1,491,322.4,490.8,322.8z M493,324.6c0.6-0.8,1-2,1.3-3.6H492v0.1
		c0,0.1,0,0.1-0.1,0.1C492,322.7,492.4,323.8,493,324.6z"/>
	<path id="XMLID_778_" class="st0" d="M499.1,322.6h0.4v1h2v0.4h-2v1.7c0.5-0.1,1.3-0.2,2.2-0.3c0,0.2,0,0.3,0,0.4
		c-1.2,0.2-2.8,0.3-4.6,0.6L497,326c0.7-0.1,1.4-0.2,2.2-0.3v-1.8h-2v-0.4h2v-0.9H499.1z M501.2,322.7c0-0.1-0.1-0.2-0.2-0.3
		s-0.1-0.2-0.2-0.3c-0.9,0-1.7,0.1-2.6,0.2c-0.3,0-0.6,0.1-0.9,0.1L497,322c0.2-0.2,0.3-0.3,0.4-0.3c0.5-0.6,0.9-1.2,1.1-1.7H497
		v-0.4h4.6v0.3h-2.4c-0.4,0.8-0.9,1.5-1.4,2.1c0.7,0,1.6-0.1,2.8-0.2c-0.2-0.3-0.4-0.7-0.7-1l0.3-0.2c0.3,0.4,0.7,1,1.2,1.8
		c0,0.1,0.1,0.1,0.1,0.1L501.2,322.7z M502.4,319.7h0.4v5.2h-0.4V319.7z M504.2,318.9h0.4v6.9c0,0.6-0.3,0.9-0.9,0.9
		c-0.2,0-0.6,0-1.1,0c0-0.3-0.1-0.4-0.1-0.5c0.2,0,0.5,0,1.1,0c0.3,0,0.5-0.2,0.5-0.6L504.2,318.9L504.2,318.9z"/>
	<path id="XMLID_772_" class="st0" d="M506.6,320.3h0.9c0.2-0.5,0.3-0.9,0.4-1.4l0.4,0.1c0,0.1-0.1,0.3-0.2,0.5
		c-0.1,0.3-0.2,0.6-0.3,0.8h1.7v6.5h-0.4v-0.7H507v0.8h-0.4V320.3z M507,320.7v2.2h2.2v-2.2H507z M507,323.4v2.3h2.2v-2.3H507z
		 M510.4,322.1c-0.1-0.1-0.3-0.2-0.4-0.3c0.5-0.9,0.9-1.8,1.3-2.9l0.4,0.1c-0.2,0.4-0.3,0.9-0.4,1.2h2.8c0,2-0.1,3.7-0.2,5.2
		c0,0.9-0.5,1.4-1.5,1.4c-0.2,0-0.3,0-0.6,0c-0.1,0-0.2,0-0.3,0c-0.1,0-0.3,0-0.4,0c0-0.2-0.1-0.3-0.1-0.5c0.4,0,0.9,0,1.4,0
		c0.7,0,1-0.3,1-1c0.1-0.9,0.1-2.4,0.2-4.6H511C510.8,321.2,510.6,321.6,510.4,322.1z M510.7,322.4l0.3-0.3c0.4,0.5,0.9,1,1.4,1.8
		l-0.3,0.3C511.6,323.6,511.2,323,510.7,322.4z"/>
	<path id="XMLID_768_" class="st0" d="M515.8,322.6c-0.1-0.2-0.3-0.3-0.3-0.4c1.3-0.9,2.2-1.9,3-3.3l0.4,0.3
		C518,320.6,517.1,321.7,515.8,322.6z M516.6,322.6h5.4c0,1-0.1,1.9-0.1,2.7c0,0.9-0.5,1.5-1.5,1.5c-0.2,0-0.3,0-0.6,0
		c-0.1,0-0.2,0-0.3,0s-0.3,0-0.3,0c0-0.2,0-0.3-0.1-0.5c0.4,0,0.9,0,1.3,0c0.7,0,1-0.3,1-1c0.1-0.8,0.1-1.5,0.1-2.2h-2.8
		c0,1.9-0.9,3.2-2.6,4c-0.1-0.2-0.2-0.3-0.3-0.4c1.6-0.7,2.4-1.9,2.4-3.6h-1.6L516.6,322.6L516.6,322.6z M520.3,319l0.4-0.2
		c0.6,1.5,1.5,2.6,2.9,3.4c-0.2,0.2-0.3,0.3-0.3,0.4C521.8,321.7,520.9,320.5,520.3,319z"/>
	<path id="XMLID_764_" class="st0" d="M525.8,323.9c0.8-0.1,1.4-0.2,2-0.2c0,0.1,0,0.3,0,0.4c-1.2,0.1-2.1,0.3-2.5,0.3l-0.2-0.4
		c0.2-0.1,0.3-0.3,0.6-0.6c0.3-0.3,0.5-0.7,0.9-1.2c-0.7,0-1.2,0-1.5,0.1l-0.2-0.4c0.2-0.1,0.3-0.3,0.5-0.6c0.5-0.8,0.9-1.5,1.3-2.3
		l0.5,0.2c-0.6,1-1.1,1.9-1.7,2.8c0.1,0,0.2,0,0.3,0c0.5,0,0.9,0,1,0c0.3-0.3,0.4-0.7,0.7-1.2l0.5,0.1
		C527.2,322.1,526.4,323.1,525.8,323.9z M524.9,326.2l-0.1-0.4c0.9-0.2,1.9-0.3,3-0.5c0,0.1,0,0.2,0,0.3s0,0.2,0,0.3
		C526.7,325.8,525.8,326,524.9,326.2z M528.1,319.7h4.6v0.4h-2.1v5.8h2.4v0.4h-5.3v-0.4h2.5V320h-2.1L528.1,319.7L528.1,319.7z"/>
	<path id="XMLID_759_" class="st0" d="M400.5,343.8c-0.5-0.6-0.9-1.1-1.4-1.6c-0.2,0.7-0.7,1.4-1.5,2.1c-0.1-0.1-0.2-0.2-0.3-0.3
		l-0.1-0.1c0.7-0.5,1-1,1.3-1.5s0.3-1.3,0.3-2.3v-2.2h0.4v2.1c0,0.7-0.1,1.3-0.2,1.7c0.4,0.4,0.9,1,1.6,1.8L400.5,343.8z
		 M397.9,336.5h2.7v5h-0.4v-4.6h-1.8v4.6H398v-5H397.9z M401.1,339.1c-0.1-0.1-0.3-0.2-0.4-0.3c0.5-0.9,0.9-1.8,1.3-2.8l0.4,0.1
		c-0.2,0.5-0.3,0.9-0.4,1.2h3.3c0,1.9,0,3.6-0.1,5.3c0,0.9-0.4,1.3-1.4,1.3c-0.4,0-0.9,0-1.4,0c0-0.2-0.1-0.3-0.1-0.5
		c0.5,0,0.9,0,1.4,0c0.7,0,1-0.3,1-0.9c0.1-1.5,0.1-3.1,0.1-4.8h-2.9C401.6,338.1,401.4,338.5,401.1,339.1z M401.6,341.6
		c0.6,0,1.2-0.1,1.8-0.1c-0.1-0.3-0.3-0.6-0.5-1.1c-0.1-0.1-0.1-0.2-0.2-0.3l0.3-0.2c0.3,0.7,0.7,1.4,1.1,2.2l-0.4,0.2
		c0-0.1-0.1-0.1-0.1-0.2c-0.1-0.1-0.1-0.2-0.1-0.3c-0.9,0.1-1.5,0.1-1.9,0.2c-0.2,0-0.4,0.1-0.5,0.1l-0.3-0.4
		c0.2-0.1,0.3-0.3,0.3-0.5c0.3-0.8,0.7-1.6,1-2.6l0.4,0.1C402.3,339.8,401.9,340.7,401.6,341.6z"/>
	<path id="XMLID_754_" class="st0" d="M407.3,344.2c-0.1-0.2-0.2-0.3-0.3-0.4c2.3-0.6,3.6-1.4,4-2.3h-4.2v-0.4h4.3
		c0.2-0.7,0.3-1.8,0.3-3.4h0.5c0,1.5-0.1,2.7-0.3,3.4h3.2v0.4h-3.3c0,0.1-0.1,0.3-0.2,0.3c1.5,0.8,2.6,1.4,3.4,1.8l-0.3,0.4
		c-1.2-0.7-2.2-1.3-3.3-1.8C410.5,342.9,409.3,343.6,407.3,344.2z M407.1,337v-0.4h7.3v0.4l-0.9,1.7c-0.2-0.1-0.3-0.2-0.4-0.2
		l0.8-1.5H407.1z M407.5,339.2l0.3-0.3c0.6,0.3,1.2,0.8,1.9,1.2l-0.3,0.3C408.7,340,408.1,339.6,407.5,339.2z M408.4,337.9l0.3-0.3
		c0.6,0.3,1.2,0.8,1.7,1.1l-0.3,0.3C409.6,338.7,409,338.2,408.4,337.9z"/>
	<path id="XMLID_751_" class="st0" d="M419.2,343.2c-0.9,0-1.6-0.3-2.2-0.9s-0.9-1.4-0.9-2.4s0.3-1.9,0.9-2.5
		c0.6-0.6,1.3-0.9,2.3-0.9c0.9,0,1.5,0.3,2.2,0.9c0.6,0.6,0.8,1.4,0.8,2.3c0,1.1-0.3,1.9-0.9,2.6c-0.2,0.2-0.3,0.3-0.6,0.5l1.5,1.2
		h-0.8l-1.2-0.9C420.2,343.2,419.7,343.2,419.2,343.2z M419.3,336.9c-0.8,0-1.4,0.3-1.9,0.9s-0.8,1.3-0.8,2.2c0,0.9,0.3,1.6,0.7,2.2
		c0.4,0.5,1.1,0.8,1.9,0.8s1.5-0.3,1.9-0.8s0.7-1.3,0.7-2.2s-0.3-1.6-0.7-2.2C420.7,337.1,420.1,336.9,419.3,336.9z"/>
	<path id="XMLID_750_" class="st0" d="M424.5,343.2c-0.1,0-0.2,0-0.3-0.1c-0.1-0.1-0.1-0.2-0.1-0.3s0-0.2,0.1-0.3
		c0.1-0.1,0.2-0.1,0.3-0.1c0.1,0,0.2,0,0.3,0.1c0.1,0.1,0.1,0.2,0.1,0.3s0,0.2-0.1,0.3C424.6,343.2,424.5,343.2,424.5,343.2z"/>
	<path id="XMLID_746_" class="st0" d="M426.5,340.6c0-0.2-0.1-0.3-0.2-0.5c0.9-1.1,1.5-2.4,2.1-4l0.4,0.2c-0.3,0.7-0.5,1.3-0.8,1.8
		v6.1h-0.4v-5.3C427.3,339.5,427,340.1,426.5,340.6z M428.8,338.9l2-0.2c-0.1-0.8-0.1-1.6-0.1-2.7h0.5c0,1,0,1.9,0.1,2.7l3.1-0.3
		l0.1,0.4l-3.2,0.3c0.1,1.4,0.3,2.5,0.8,3.4c0.3,0.8,0.8,1.1,1.2,1.1c0.3,0,0.5-0.2,0.6-0.6c0.1-0.3,0.2-0.7,0.3-1.1
		c0.2,0.1,0.3,0.1,0.4,0.2c-0.1,0.3-0.2,0.7-0.3,1c-0.2,0.6-0.5,0.9-1,0.9c-0.7,0-1.2-0.4-1.6-1.4c-0.4-0.9-0.7-2-0.9-3.5l-1.9,0.3
		L428.8,338.9z M432,336.8l0.3-0.3c0.4,0.3,0.9,0.8,1.5,1.2l-0.3,0.3C433.1,337.6,432.6,337.2,432,336.8z"/>
	<path id="XMLID_745_" class="st0" d="M443.5,337c-0.8,0.1-2,0.1-3.5,0.2v1.7h3v3.4c0,0.7-0.3,1-1,1c-0.1,0-0.3,0-0.4,0
		s-0.3,0-0.5,0c0-0.2-0.1-0.3-0.1-0.5c0.1,0,0.2,0,0.3,0c0.1,0,0.1,0,0.2,0s0.2,0,0.3,0c0.5,0,0.8-0.2,0.8-0.6v-2.8H440v4.9h-0.4
		v-4.9H437v4h-0.4v-4.5h3v-1.6c-1.5,0.1-2.7,0.1-3.4,0.1c0-0.2-0.1-0.3-0.1-0.4c2.8,0,5.2-0.1,7.3-0.3L443.5,337z"/>
	<path id="XMLID_744_" class="st0" d="M445.4,344.3H445l0.7-2.2h0.4L445.4,344.3z"/>
	<path id="XMLID_740_" class="st0" d="M451.6,336.5h7v7.6h-0.4v-0.5H452v0.5h-0.4V336.5z M452,337v6.2h6.1V337H452z M454.9,337.5
		h0.4v1.4h2.1v0.4h-2.2c0,0.3-0.1,0.5-0.1,0.8c0.7,0.6,1.5,1.3,2.4,2l-0.3,0.3c-0.7-0.6-1.4-1.3-2.2-2c-0.3,0.9-1,1.5-2.3,2.2
		c-0.1-0.2-0.2-0.3-0.3-0.4c1.5-0.6,2.3-1.5,2.4-2.9h-2.1v-0.4h2.1L454.9,337.5L454.9,337.5z"/>
	<path id="XMLID_737_" class="st0" d="M461.1,337.6h0.4v5.3c0.5-0.1,0.9-0.2,1.3-0.3v-6.5h0.4v2.5h1.5v0.4h-1.5v3.5
		c0.3-0.1,0.5-0.1,0.9-0.2c0.2,0,0.3-0.1,0.4-0.1c0,0.2,0,0.3,0,0.5c-1.6,0.3-3,0.6-4.3,0.9l-0.1-0.5c0.2-0.1,0.4-0.1,0.7-0.2
		L461.1,337.6L461.1,337.6z M465.3,336h0.4v3.1c0.8-0.5,1.5-1,2.2-1.6l0.3,0.3c-0.8,0.6-1.6,1.2-2.5,1.8v3c0,0.3,0.1,0.4,0.2,0.5
		c0.1,0.1,0.3,0.2,0.5,0.2h0.6c0.4,0,0.7-0.2,0.8-0.6c0.1-0.4,0.1-0.8,0.2-1.3c0.2,0.1,0.3,0.1,0.5,0.2c-0.1,0.5-0.1,0.9-0.2,1.3
		c-0.1,0.6-0.5,0.9-1.1,0.9h-0.8c-0.7,0-1.1-0.3-1-1L465.3,336L465.3,336z"/>
	<path id="XMLID_736_" class="st0" d="M469.7,339.5h3.8v-1.6h-3.3v-0.4h3.3V336h0.4v1.5h3.3v0.4h-3.3v1.6h3.7v0.4h-3.4
		c0.9,1.3,2,2.2,3.4,3c-0.1,0.2-0.3,0.3-0.3,0.4c-1.5-0.9-2.8-2-3.4-3.4v4.1h-0.4v-4.1c-0.9,1.5-2.1,2.7-3.5,3.5
		c-0.1-0.1-0.2-0.3-0.3-0.4c1.5-0.9,2.6-1.9,3.4-3.2h-3.4L469.7,339.5L469.7,339.5z"/>
	<path id="XMLID_732_" class="st0" d="M479,343.8c1-0.3,1.6-0.7,2-1c0.3-0.3,0.5-0.9,0.5-1.7h-2.3v-0.4h7.7v0.4h-2.8v1.8
		c0,0.3,0.1,0.4,0.2,0.5s0.3,0.2,0.6,0.2h0.9c0.5,0,0.8-0.2,0.8-0.5c0.1-0.3,0.1-0.6,0.2-0.9c0.2,0.1,0.3,0.1,0.4,0.2
		c-0.1,0.3-0.1,0.7-0.2,0.9c-0.1,0.6-0.5,0.9-1.2,0.8h-0.9c-0.8,0-1.2-0.3-1.1-1v-1.9h-1.7c0,0.1,0,0.2,0,0.3c0,1.4-0.9,2.4-2.7,2.9
		C479.2,344,479.1,343.9,479,343.8z M482.6,336.2l0.4-0.2c0.2,0.3,0.3,0.7,0.4,1l-0.3,0.1h3.5v1.4h-0.4v-0.9h-6.3v0.9h-0.4v-1.4h3.6
		C482.8,336.9,482.7,336.5,482.6,336.2z M480.2,338.9h5.8v0.4h-5.8V338.9z"/>
	<path id="XMLID_729_" class="st0" d="M492.8,336h0.4c0,0.6,0,1.2,0.1,1.7h2.9v0.4h-2.9c0.1,1.5,0.3,2.6,0.5,3.4
		c0.5-0.7,0.9-1.5,1.4-2.5l0.4,0.2c-0.5,1.2-1.1,2.2-1.6,2.8c0.3,1,0.7,1.5,1.1,1.5c0.3,0,0.4-0.2,0.5-0.5c0.1-0.3,0.2-0.7,0.2-1.1
		c0.2,0.1,0.3,0.1,0.4,0.2c-0.1,0.5-0.2,0.9-0.3,1.1c-0.2,0.5-0.5,0.9-0.9,0.8c-0.6,0-1.1-0.5-1.5-1.5c-0.4,0.5-0.9,0.9-1.6,1.5
		c-0.1-0.1-0.2-0.3-0.3-0.3c0.7-0.5,1.3-1,1.8-1.6c-0.3-0.9-0.5-2.2-0.6-3.9h-3.4v1.5h2.4c0,0.6,0,1.4-0.1,2.3
		c0,0.8-0.4,1.2-1.1,1.2c-0.2,0-0.4,0-0.8,0c0-0.2-0.1-0.3-0.1-0.5c0.1,0,0.2,0,0.3,0c0.1,0,0.1,0,0.2,0s0.2,0,0.3,0
		c0.5,0,0.7-0.2,0.7-0.7c0.1-0.7,0.1-1.3,0.1-1.9h-2c0,1-0.1,1.9-0.2,2.4s-0.3,1.1-0.8,1.7c-0.1-0.1-0.3-0.2-0.3-0.3
		c0.4-0.6,0.7-1.2,0.8-1.7c0.1-0.5,0.2-1.4,0.2-2.6v-1.8h3.8C492.9,337.2,492.8,336.6,492.8,336z M494,336.6l0.3-0.3
		c0.4,0.3,0.9,0.5,1.3,0.9l-0.3,0.3C494.9,337.1,494.5,336.9,494,336.6z"/>
	<path id="XMLID_725_" class="st0" d="M497.6,340.6c0-0.2-0.1-0.3-0.2-0.5c0.9-1.1,1.5-2.4,2.1-4l0.4,0.2c-0.3,0.7-0.5,1.3-0.8,1.8
		v6.1h-0.4v-5.3C498.3,339.5,498,340.1,497.6,340.6z M499.9,338.9l2-0.2c-0.1-0.8-0.1-1.6-0.1-2.7h0.5c0,1,0,1.9,0.1,2.7l3.1-0.3
		l0.1,0.4l-3.2,0.3c0.1,1.4,0.3,2.5,0.8,3.4c0.3,0.8,0.8,1.1,1.2,1.1c0.3,0,0.5-0.2,0.6-0.6c0.1-0.3,0.2-0.7,0.3-1.1
		c0.2,0.1,0.3,0.1,0.4,0.2c-0.1,0.3-0.2,0.7-0.3,1c-0.2,0.6-0.5,0.9-1,0.9c-0.7,0-1.2-0.4-1.6-1.4c-0.4-0.9-0.7-2-0.9-3.5l-2,0.2
		V338.9z M503.2,336.8l0.3-0.3c0.4,0.3,0.9,0.8,1.5,1.2l-0.3,0.3C504.2,337.6,503.7,337.2,503.2,336.8z"/>
	<path id="XMLID_724_" class="st0" d="M514.5,337c-0.8,0.1-2,0.1-3.5,0.2v1.7h3v3.4c0,0.7-0.3,1-1,1c-0.1,0-0.3,0-0.4,0
		c-0.2,0-0.3,0-0.5,0c0-0.2-0.1-0.3-0.1-0.5c0.1,0,0.2,0,0.3,0c0.1,0,0.1,0,0.2,0s0.2,0,0.3,0c0.5,0,0.8-0.2,0.8-0.6v-2.8H511v4.9
		h-0.3v-4.9h-2.6v4h-0.4v-4.5h3v-1.6c-1.5,0.1-2.7,0.1-3.4,0.1c0-0.2-0.1-0.3-0.1-0.4c2.8,0,5.2-0.1,7.3-0.3V337z"/>
	<path id="XMLID_718_" class="st0" d="M516.4,337.5h0.9c0.2-0.5,0.3-0.9,0.4-1.4l0.4,0.1c0,0.1-0.1,0.3-0.2,0.5
		c-0.1,0.3-0.2,0.6-0.3,0.8h1.7v6.5H519v-0.7h-2.2v0.8h-0.4L516.4,337.5L516.4,337.5z M516.9,337.9v2.2h2.2v-2.2H516.9z
		 M516.9,340.6v2.3h2.2v-2.3H516.9z M520.2,339.3c-0.1-0.1-0.3-0.2-0.4-0.3c0.5-0.9,0.9-1.8,1.3-2.9l0.4,0.1
		c-0.2,0.4-0.3,0.9-0.4,1.2h2.8c0,2-0.1,3.7-0.2,5.2c0,0.9-0.5,1.4-1.5,1.4c-0.2,0-0.3,0-0.6,0c-0.1,0-0.2,0-0.3,0s-0.3,0-0.4,0
		c0-0.2-0.1-0.3-0.1-0.5c0.4,0,0.9,0,1.4,0c0.7,0,1-0.3,1-1c0.1-0.9,0.1-2.4,0.2-4.6H521C520.7,338.4,520.5,338.9,520.2,339.3z
		 M520.6,339.6l0.3-0.3c0.4,0.5,0.9,1,1.4,1.8l-0.3,0.3C521.5,340.8,521,340.2,520.6,339.6z"/>
	<path id="XMLID_710_" class="st0" d="M525.5,340.9h1.4c0.1-0.2,0.2-0.3,0.3-0.6l0,0l0.4,0.2c-0.1,0.2-0.2,0.3-0.3,0.5h2.1
		c-0.1,0.8-0.4,1.4-0.9,1.9c0.3,0.2,0.7,0.3,0.9,0.4l-0.3,0.3c-0.3-0.2-0.7-0.3-1-0.5c-0.6,0.4-1.5,0.8-2.5,1.1
		c-0.1-0.1-0.1-0.3-0.3-0.4c0.9-0.3,1.7-0.5,2.2-0.9c-0.4-0.2-0.9-0.4-1.6-0.8c0.3-0.3,0.4-0.6,0.6-0.9h-1.1L525.5,340.9
		L525.5,340.9z M527.5,336.1h0.4v1.9h1.7v0.3h-1.7v0.7l0.2-0.3c0.4,0.3,0.9,0.5,1.3,0.9l-0.3,0.3c-0.2-0.2-0.6-0.4-1.3-0.9v0.9h-0.4
		v-1.3c-0.4,0.6-1,1-1.8,1.5c-0.1-0.1-0.2-0.3-0.3-0.3c0.8-0.3,1.5-0.9,2-1.5h-1.9V338h2L527.5,336.1L527.5,336.1z M525.8,336.7
		l0.3-0.3c0.4,0.4,0.8,0.8,0.9,0.9l-0.3,0.3C526.6,337.6,526.3,337.2,525.8,336.7z M526.6,341.9c0.5,0.3,1,0.4,1.5,0.6
		c0.4-0.3,0.7-0.8,0.9-1.3h-1.8C527,341.4,526.8,341.7,526.6,341.9z M529.7,336.7c-0.3,0.4-0.7,0.8-1,1l-0.3-0.3
		c0.3-0.3,0.6-0.6,0.9-0.9L529.7,336.7z M529.2,343.8c0.9-0.7,1.5-1.3,1.9-1.8c-0.4-0.8-0.8-1.7-0.9-3c0,0-0.1,0.1-0.1,0.2
		c-0.2,0.3-0.3,0.4-0.3,0.6c-0.1-0.1-0.3-0.2-0.3-0.3c0.6-0.9,1.1-2.2,1.5-3.4l0.4,0.1c-0.2,0.5-0.3,1-0.5,1.5h2.5v0.4h-0.7
		c-0.2,1.8-0.5,3.1-1,4c0.3,0.6,0.9,1.1,1.8,1.7c-0.2,0.2-0.3,0.3-0.3,0.3c-0.8-0.6-1.4-1.2-1.7-1.7c-0.4,0.6-1,1.2-1.8,1.8
		C529.5,344.1,529.4,343.9,529.2,343.8z M530.6,338.3c0.2,1.4,0.4,2.5,0.9,3.2c0.4-0.8,0.8-2,0.9-3.6h-1.5
		C530.7,338.1,530.7,338.2,530.6,338.3z"/>
	<path id="XMLID_700_" class="st0" d="M535.7,339.9h6.1v2.2H539v0.6h3.2v0.3H539v0.6h3.9v0.3h-8.1v-0.3h3.9V343h-3.2v-0.3h3.2V342
		h-2.8L535.7,339.9L535.7,339.9z M534.7,339h8v0.3h-8V339z M535.6,336.4h6.2v2h-6.2V336.4z M536,336.8v0.5h5.3v-0.5H536z M536,337.6
		v0.5h5.3v-0.5H536z M536.1,340.1v0.6h2.4v-0.6H536.1z M536.1,341.1v0.6h2.4v-0.6H536.1z M541.4,340.1H539v0.6h2.4V340.1z
		 M539,341.1v0.6h2.4v-0.6H539z"/>
	<path id="XMLID_693_" class="st0" d="M399.8,358.6c0,0.7-0.3,1-0.7,1c-0.3,0-0.4,0.1-0.5,0c0-0.2-0.1-0.3-0.2-0.4
		c0.2,0,0.3,0,0.5,0c0.3,0,0.5-0.3,0.5-0.7c0-0.7-0.3-1.3-0.7-1.9l0.7-2.4h-1.3v7.1h-0.4v-7.6h2.1v0.4l-0.7,2.2
		C399.7,357.1,399.8,357.8,399.8,358.6z M402.9,360.7c0.4,0,0.9,0,1.2,0s0.9,0,1.4,0c-0.1,0.2-0.2,0.3-0.2,0.4c-0.9,0-1.8,0-2.5,0
		c-1,0-1.7-0.3-2.2-0.9c-0.3,0.3-0.6,0.7-1,1.1l-0.3-0.3c0.3-0.3,0.7-0.7,1.2-1.2v-3.2h-0.7v-0.4h1.1v3.6
		C401.3,360.5,402,360.7,402.9,360.7z M400.8,355.2c-0.2-0.5-0.3-1.1-0.6-1.7l0.3-0.2c0.3,0.7,0.5,1.3,0.6,1.7L400.8,355.2z
		 M402.5,360.1h-0.4v-3.7c-0.3,0.3-0.5,0.7-0.8,0.9c-0.1-0.1-0.2-0.3-0.3-0.3c0.6-0.6,1.1-1.4,1.5-2.3h-1v-0.3h1.2
		c0.1-0.3,0.3-0.6,0.3-0.9l0.4,0.1c-0.2,0.3-0.3,0.7-0.3,0.9h2.2v0.3h-2.2c-0.2,0.3-0.3,0.7-0.5,0.9h2.2v3.6c0,0.6-0.3,0.9-0.9,0.9
		c-0.3,0-0.4,0-0.6,0c0-0.2-0.1-0.3-0.1-0.4c0.1,0,0.1,0,0.3,0c0.1,0,0.1,0,0.2,0s0.2,0,0.3,0c0.2,0,0.3,0,0.3-0.1
		c0.1-0.1,0.1-0.2,0.1-0.4v-0.7h-1.9L402.5,360.1L402.5,360.1z M402.5,355.9v0.9h1.9v-0.9H402.5z M402.5,357.2v0.9h1.9v-0.9H402.5z"
		/>
	<path id="XMLID_688_" class="st0" d="M407.5,355.3h2.4c0.1-0.3,0.2-0.4,0.3-0.7h-3.1v-0.3h2.5c-0.3-0.3-0.5-0.5-0.8-0.7l0.3-0.3
		c0.3,0.3,0.6,0.5,0.9,0.8l-0.3,0.3h1.8c0.3-0.3,0.6-0.6,0.9-0.9l0.4,0.3c-0.1,0.1-0.3,0.3-0.5,0.5c-0.1,0.1-0.2,0.2-0.2,0.2h2.4
		v0.3h-4c-0.1,0.2-0.1,0.4-0.3,0.7h3.5v0.3H410c-0.1,0.3-0.2,0.4-0.3,0.7h4.7v0.3h-5c-0.2,0.3-0.3,0.4-0.5,0.7h4.6v4h-0.3v-0.6H409
		v0.5h-0.4v-3.1c-0.4,0.4-0.9,0.9-1.5,1.4c-0.1-0.1-0.2-0.3-0.3-0.3c1.1-0.9,2-1.6,2.5-2.5H407v-0.3h2.6c0.2-0.3,0.3-0.5,0.3-0.7
		h-2.2L407.5,355.3L407.5,355.3z M409,357.8v0.7h4.4v-0.7H409z M409,358.8v0.7h4.4v-0.7H409z M409,359.9v0.7h4.4v-0.7H409z"/>
	<path id="XMLID_682_" class="st0" d="M416.3,354.1h2.7v6.7h-0.4v-0.7h-1.8v0.9h-0.4v-6.9H416.3z M416.7,354.4v2.3h1.8v-2.3H416.7z
		 M416.7,357.3v2.3h1.8v-2.3H416.7z M422.5,353.2h0.4v1.9h1.2v0.4h-1.2v4.6c0,0.7-0.3,1.1-1.1,1.1c-0.4,0-0.8,0-1.2,0
		c0-0.2-0.1-0.3-0.1-0.5c0.3,0,0.8,0,1.2,0c0.3,0,0.5-0.1,0.6-0.2c0.1-0.1,0.2-0.3,0.2-0.6v-4.5h-3V355h3V353.2L422.5,353.2z
		 M420.8,358.7c-0.3-0.7-0.7-1.3-0.9-1.8l0.3-0.2c0.3,0.6,0.7,1.2,0.9,1.8L420.8,358.7z"/>
	<path id="XMLID_675_" class="st0" d="M425.7,354.9h0.4v6.5h-0.4V354.9z M426.2,353.6l0.3-0.3c0.3,0.3,0.7,0.7,1.1,1.1l-0.4,0.3
		C426.9,354.3,426.4,353.9,426.2,353.6z M427.6,355.5h3.4v4.1h-3.4V355.5z M428.1,355.9v1.5h2.5v-1.5H428.1z M428.1,357.8v1.5h2.5
		v-1.5H428.1z M428.3,354.2v-0.4h4.6v6.3c0,0.8-0.3,1.2-1.1,1.2c-0.2,0-0.3,0-0.5,0c-0.1,0-0.2,0-0.3,0c-0.1,0-0.3,0-0.3,0
		c0-0.2-0.1-0.3-0.1-0.5c0.3,0,0.8,0,1.1,0c0.5,0,0.8-0.3,0.8-0.8v-5.9L428.3,354.2L428.3,354.2z"/>
	<path id="XMLID_669_" class="st0" d="M434.9,354.7h0.9c0.2-0.5,0.3-0.9,0.4-1.4l0.4,0.1c0,0.1-0.1,0.3-0.2,0.5
		c-0.1,0.3-0.2,0.6-0.3,0.8h1.7v6.5h-0.4v-0.7h-2.2v0.8h-0.4v-6.6H434.9z M435.4,355.1v2.2h2.2v-2.2H435.4z M435.4,357.8v2.3h2.2
		v-2.3H435.4z M438.7,356.5c-0.1-0.1-0.3-0.2-0.4-0.3c0.5-0.9,0.9-1.8,1.3-2.9l0.4,0.1c-0.2,0.4-0.3,0.9-0.4,1.2h2.8
		c0,2-0.1,3.7-0.2,5.2c0,0.9-0.5,1.4-1.5,1.4c-0.2,0-0.3,0-0.6,0c-0.1,0-0.2,0-0.3,0c-0.1,0-0.3,0-0.4,0c0-0.2-0.1-0.3-0.1-0.5
		c0.4,0,0.9,0,1.4,0c0.7,0,1-0.3,1-1c0.1-0.9,0.1-2.4,0.2-4.6h-2.5C439.2,355.6,438.9,356.1,438.7,356.5z M439.1,356.8l0.3-0.3
		c0.4,0.5,0.9,1,1.4,1.8l-0.3,0.3C440,358,439.4,357.4,439.1,356.8z"/>
	<path id="XMLID_662_" class="st0" d="M443.9,358.3l-0.1-0.4c0.3-0.1,0.8-0.2,1.1-0.3v-2.1h-1v-0.4h1v-1.8h0.4v1.8h0.9v0.4h-0.9v2
		l0.3-0.1l0,0l0,0l-0.2,0.1c0.3-0.1,0.6-0.2,0.9-0.3c0,0.2,0,0.3,0,0.4c-0.3,0.1-0.6,0.2-0.9,0.3v2.7c0,0.5-0.3,0.8-0.8,0.8
		c-0.2,0-0.4,0-0.7,0c0-0.2-0.1-0.3-0.1-0.5c0.3,0,0.4,0,0.7,0s0.4-0.1,0.4-0.3v-2.4h-0.1C444.6,358.1,444.3,358.2,443.9,358.3z
		 M446.3,356.8c-0.1-0.1-0.3-0.3-0.3-0.3c0.8-0.8,1.4-1.9,1.9-3.1l0.4,0.2c-0.3,0.6-0.5,1.1-0.7,1.4h4.2v0.4h-2.1v1.5h2v0.4h-2v1.5
		h2v0.4h-2v1.5h2.2v0.4h-4.6v0.7h-0.4v-5.4C446.8,356.3,446.5,356.6,446.3,356.8z M447.4,355.2L447.4,355.2v1.5h2v-1.5H447.4z
		 M447.4,357v1.5h2V357H447.4z M447.4,358.9v1.5h2v-1.5H447.4z M449.1,353.6l0.3-0.3c0.3,0.4,0.5,0.9,0.8,1.2l-0.4,0.3
		C449.6,354.4,449.3,354,449.1,353.6z"/>
	<path id="XMLID_658_" class="st0" d="M453.2,355.9h1.3v-1.5c-0.3,0-0.7,0.1-1.2,0.1c0-0.2-0.1-0.3-0.1-0.4c1,0,2-0.1,2.8-0.3
		l0.1,0.4c-0.3,0-0.7,0.1-1.2,0.1v1.5h1.2v0.4h-1.2v1.1l0.2-0.3c0.4,0.3,0.8,0.6,1.1,0.9l-0.3,0.3c-0.3-0.3-0.6-0.6-1-0.9v3.9h-0.4
		v-4.3c-0.3,0.9-0.7,1.8-1.2,2.6c-0.1-0.2-0.2-0.3-0.3-0.4c0.6-0.9,1-1.8,1.4-2.9H453v-0.3H453.2z M456.2,359.7
		c-0.1-0.1-0.2-0.3-0.3-0.3c1-0.7,1.9-1.5,2.5-2.4l0.4,0.2c-0.1,0.2-0.2,0.3-0.3,0.4h2.5v0.4c-0.9,1.7-2.5,2.9-5,3.4
		c0,0,0-0.1-0.1-0.1c-0.1-0.1-0.1-0.3-0.2-0.3c2.3-0.5,3.9-1.5,4.7-3.1H458c-0.2,0.3-0.3,0.4-0.5,0.5c0.3,0.3,0.8,0.6,1,0.9
		l-0.3,0.3c-0.3-0.3-0.7-0.6-1-0.9C457.1,359.1,456.7,359.3,456.2,359.7z M456.5,355.7c-0.1-0.1-0.2-0.3-0.3-0.3
		c0.9-0.6,1.5-1.4,2.1-2.2l0.4,0.2c-0.2,0.2-0.3,0.4-0.4,0.6h2.8v0.4c-0.9,1.4-2.3,2.4-4.6,3.1c-0.1-0.2-0.2-0.3-0.3-0.4
		c2.1-0.6,3.4-1.5,4.3-2.8H458c-0.1,0.1-0.3,0.3-0.3,0.3c0.3,0.3,0.7,0.5,1,0.9l-0.3,0.3c-0.3-0.3-0.7-0.6-1-0.9
		C457.1,355.3,456.8,355.6,456.5,355.7z"/>
	<path id="XMLID_657_" class="st0" d="M462.6,353.7h7.9v0.4h-3.9l-0.3,1.5h3.8v4.6c0,0.6-0.3,0.9-0.8,0.9c-0.3,0-0.6,0-0.9,0
		c0-0.2-0.1-0.3-0.1-0.5c0.3,0,0.5,0,0.8,0c0.4,0,0.6-0.2,0.6-0.5V356H468v4.6h-0.4V356h-1.7v4.6h-0.4V356h-1.7v5.2h-0.4v-5.6h2.8
		l0.3-1.5H463v-0.3h-0.4V353.7z"/>
	<path id="XMLID_649_" class="st0" d="M472.2,360.5l-0.5-0.2c0.3-0.7,0.7-1.8,1-3.1c0.1,0.1,0.3,0.1,0.4,0.2
		C473,358.1,472.7,359.2,472.2,360.5z M472,354.2l0.3-0.2c0.3,0.6,0.8,1.2,1,1.7l-0.4,0.3C472.6,355.2,472.2,354.6,472,354.2z
		 M477.4,353.3h0.4c0,0.5,0,1,0,1.5h2v0.4h-2c0,0.1,0,0.2,0,0.3c0,0.2,0,0.3,0,0.4c0.1,1.3,0.2,2.3,0.3,2.8c0.3-0.7,0.7-1.5,1-2.6
		l0.4,0.2c-0.4,1.2-0.9,2.2-1.3,3c0.1,0.3,0.2,0.5,0.3,0.8c0.2,0.5,0.3,0.8,0.6,0.8c0.2,0,0.3-0.1,0.3-0.3c0.1-0.3,0.1-0.8,0.2-1.3
		c0.2,0.1,0.3,0.1,0.4,0.2c0,0.4-0.1,0.9-0.2,1.2c-0.1,0.5-0.3,0.8-0.7,0.8s-0.7-0.3-0.9-0.9c-0.1-0.2-0.1-0.3-0.2-0.5
		c-0.3,0.5-0.8,1-1.4,1.5c0,0,0,0-0.1-0.1c-0.2-0.2-0.3-0.3-0.3-0.3c0.7-0.6,1.2-1.2,1.5-1.8c-0.2-0.7-0.3-1.8-0.3-3.4
		c0-0.2,0-0.4,0-0.7h-3v1.5c0,1.2-0.1,2.2-0.3,2.8c-0.2,0.6-0.5,1.3-0.9,1.9c-0.1-0.1-0.2-0.2-0.3-0.3c0.4-0.6,0.8-1.2,0.9-1.8
		c0.2-0.6,0.3-1.4,0.3-2.6v-2h3.4c0-0.2,0-0.3,0-0.5c0-0.1,0-0.3,0-0.3C477.4,353.7,477.4,353.6,477.4,353.3z M474.8,356h2.2v0.3
		h-2.2V356z M475,357.3h1.9v2.5H475V357.3z M475.3,357.6v1.7h1.1v-1.7H475.3z M478.3,353.8l0.3-0.3c0.3,0.2,0.6,0.4,0.9,0.8
		l-0.3,0.3C479,354.4,478.7,354.2,478.3,353.8z"/>
	<path id="XMLID_644_" class="st0" d="M487.6,357.2l0.4,0.3c-1.5,2-3.7,3.3-6.7,3.9c-0.1-0.2-0.2-0.3-0.3-0.5
		C484,360.3,486.2,359.1,487.6,357.2z M483.1,354.5l0.4,0.2c-0.6,1.3-1.2,2.4-1.9,3.5c-0.2-0.1-0.3-0.2-0.4-0.3
		C482,356.9,482.6,355.7,483.1,354.5z M484.9,353.3h0.5v5h-0.5V353.3z M486.5,354.6l0.3-0.3c0.7,0.8,1.5,1.6,2.3,2.6l-0.4,0.3
		C488.1,356.3,487.3,355.5,486.5,354.6z"/>
</g>
</svg>
