<?xml version="1.0" encoding="utf-8"?>
<!-- Generator: Adobe Illustrator 19.0.0, SVG Export Plug-In . SVG Version: 6.00 Build 0)  -->
<svg version="1.1" id="图层_1" xmlns="http://www.w3.org/2000/svg" xmlns:xlink="http://www.w3.org/1999/xlink" x="0px" y="0px"
	 viewBox="0 0 305 232" style="enable-background:new 0 0 305 232;" xml:space="preserve">
<style type="text/css">
	.st0{opacity:0.2;fill:#939393;enable-background:new    ;}
	.st1{fill:#79A680;}
	.st2{fill:#5B7F5F;}
	.st3{fill:#6E9674;}
	.st4{fill:#506D54;}
	.st5{fill:#75A07C;}
	.st6{fill:#557759;}
	.st7{fill:#698F6F;}
	.st8{fill:#49644D;}
	.st9{fill:#9CC5A2;}
	.st10{fill:#719375;}
	.st11{fill:#8CB191;}
	.st12{fill:#617B65;}
	.st13{fill:#8BBD93;}
	.st14{fill:#658D6A;}
	.st15{fill:#67936C;}
	.st16{fill:#56765B;}
	.st17{fill:#90B695;}
	.st18{fill:#A6D3A3;}
	.st19{fill:#779B7B;}
	.st20{fill:#68846D;}
	.st21{opacity:0.5;fill:#8E8A76;enable-background:new    ;}
	.st22{enable-background:new    ;}
	.st23{fill:#D39220;}
	.st24{fill:#BC820D;}
	.st25{clip-path:url(#SVGID_2_);enable-background:new    ;}
	.st26{clip-path:url(#SVGID_4_);fill:#D39220;}
	.st27{clip-path:url(#SVGID_6_);fill:#BC820D;}
	.st28{fill:#FAC13C;}
	.st29{fill:#E6B543;}
</style>
<g id="XMLID_1_">
	<g id="XMLID_702_">
		<polygon id="XMLID_804_" class="st0" points="0,150.4 92.9,96.4 112.9,108 151.7,85.4 185.1,104.7 193.8,99.7 286.7,153.7 
			286.7,160.2 238.9,187.9 231.5,183.6 228.7,185.2 249.8,197.5 249.9,204.1 202,231.7 188.7,224 175,232 115.9,197.7 110.8,200.7 
			65.4,174.5 47.9,184.6 0,157 		"/>
		<g id="XMLID_703_">
			<g id="XMLID_791_">
				<path id="XMLID_801_" class="st1" d="M213,185.7l-73.1-42.5L110.8,160l73.1,42.5L213,185.7z M149.1,180.3
					c-4.7-2.7-2.7-8.2,4.4-12.3c1.8-1,3.7-1.9,5.6-2.5c1.9-0.6,3.7-1,5.6-1.2c2-0.3,3.9-0.3,5.6-0.1l0,0h0.1
					c1.7,0.2,3.1,0.6,4.3,1.3c0.6,0.3,1.1,0.7,1.4,1.1c0.1,0.1,0.2,0.3,0.2,0.4c0.1,0.1,0.2,0.3,0.3,0.5c0.3,0.5,0.5,1.1,0.5,1.7
					c0,0.1,0,0.2,0,0.3v0.1c0,0.5-0.1,1.1-0.3,1.6c-0.8,2.2-3.1,4.6-6.6,6.6s-7.7,3.4-11.5,3.8C154.9,182,151.4,181.6,149.1,180.3z"
					/>
				<path id="XMLID_798_" class="st2" d="M221.1,184.8l-79.5-46.2L102.7,161l79.5,46.2L221.1,184.8z M213,185.7l-29.1,16.8
					L110.8,160l29.1-16.8L213,185.7z"/>
				<path id="XMLID_797_" class="st2" d="M153.5,168c1.8-1,3.7-1.9,5.6-2.5c0.1,0,0.2,0,0.3-0.1c0.3-0.1,0.6-0.1,0.8-0.2
					c0.7-0.2,1.5-0.3,2.2-0.5c0.6-0.1,1.2-0.3,1.8-0.4c0.2,0,0.3-0.1,0.5-0.1c0.1,0,0.1,0,0.2,0c0.3,0,0.6,0,0.9,0
					c0.5,0,0.9,0,1.4,0c0.4,0,0.9,0,1.3,0c0.4,0,0.9,0,1.3,0c0.1,0,0.3,0,0.4,0h0.1c1.7,0.2,3.1,0.6,4.3,1.3
					c0.6,0.3,1.1,0.7,1.4,1.1c0.1,0.1,0.2,0.3,0.2,0.4c0.1,0.1,0.2,0.3,0.3,0.5c0.3,0.5,0.5,1.1,0.5,1.7c0,0.1,0,0.2,0,0.3v0.1
					c0,0.5-0.1,1.1-0.3,1.6c-0.8,2.2-3.1,4.6-6.6,6.6s-7.7,3.4-11.5,3.8c-3.8,0.5-7.4,0.1-9.7-1.3
					C144.4,177.6,146.4,172.1,153.5,168z"/>
				<polygon id="XMLID_796_" class="st3" points="184.4,213.7 184.4,220.3 91.5,166.3 91.5,159.7 				"/>
				<path id="XMLID_793_" class="st1" d="M184.4,213.7l47.9-27.7l-92.9-54l-47.9,27.7L184.4,213.7z M221.1,184.8l-38.8,22.4
					L102.7,161l38.8-22.4L221.1,184.8z"/>
				<polygon id="XMLID_792_" class="st4" points="232.3,186 232.3,192.6 184.4,220.3 184.4,213.7 				"/>
			</g>
			<g id="XMLID_778_">
				<path id="XMLID_788_" class="st5" d="M240,185.5L166.9,143l-29.1,16.8l73.1,42.5L240,185.5z M176.1,180
					c-4.7-2.7-2.7-8.2,4.4-12.3c1.8-1,3.7-1.9,5.6-2.5c1.9-0.6,3.7-1,5.6-1.2c2-0.3,3.9-0.3,5.6-0.1l0,0h0.1
					c1.7,0.2,3.1,0.6,4.3,1.3c0.6,0.3,1.1,0.7,1.4,1.1c0.1,0.1,0.2,0.3,0.2,0.4c0.1,0.1,0.2,0.3,0.3,0.5c0.3,0.5,0.5,1.1,0.5,1.7
					c0,0.1,0,0.2,0,0.3v0.1c0,0.5-0.1,1.1-0.3,1.6c-0.8,2.2-3.1,4.6-6.6,6.6s-7.7,3.4-11.5,3.8C181.9,181.7,178.4,181.3,176.1,180z"
					/>
				<path id="XMLID_785_" class="st6" d="M248.1,184.5l-79.5-46.2l-38.8,22.4l79.5,46.2L248.1,184.5z M240,185.5l-29.1,16.8
					l-73.1-42.5l29.1-16.8L240,185.5z"/>
				<path id="XMLID_784_" class="st6" d="M180.5,167.7c1.8-1,3.7-1.9,5.6-2.5c0.1,0,0.2,0,0.3-0.1c0.3-0.1,0.6-0.1,0.8-0.2
					c0.7-0.2,1.5-0.3,2.2-0.5c0.6-0.1,1.2-0.3,1.8-0.4c0.2,0,0.3-0.1,0.5-0.1c0.1,0,0.1,0,0.2,0c0.3,0,0.6,0,0.9,0
					c0.5,0,0.9,0,1.4,0c0.4,0,0.9,0,1.3,0c0.4,0,0.9,0,1.3,0c0.1,0,0.3,0,0.4,0h0.1c1.7,0.2,3.1,0.6,4.3,1.3
					c0.6,0.3,1.1,0.7,1.4,1.1c0.1,0.1,0.2,0.3,0.2,0.4c0.1,0.1,0.2,0.3,0.3,0.5c0.3,0.5,0.5,1.1,0.5,1.7c0,0.1,0,0.2,0,0.3v0.1
					c0,0.5-0.1,1.1-0.3,1.6c-0.8,2.2-3.1,4.6-6.6,6.6s-7.7,3.4-11.5,3.8c-3.8,0.5-7.4,0.1-9.7-1.3
					C171.4,177.3,173.4,171.8,180.5,167.7z"/>
				<polygon id="XMLID_783_" class="st7" points="211.4,213.4 211.4,220 118.5,166 118.5,159.4 				"/>
				<path id="XMLID_780_" class="st5" d="M211.4,213.4l47.9-27.7l-92.9-54l-47.9,27.7L211.4,213.4z M248.1,184.5l-38.8,22.4
					l-79.5-46.2l38.8-22.4L248.1,184.5z"/>
				<polygon id="XMLID_779_" class="st8" points="259.3,185.8 259.3,192.3 211.4,220 211.4,213.4 				"/>
			</g>
			<g id="XMLID_771_">
				<path id="XMLID_775_" class="st6" d="M118.3,148.8l79.5-46.2L159,80.2l-79.5,46.2L118.3,148.8z M160.6,84.9l29.1,16.8
					l-73.1,42.5l-29.1-16.8L160.6,84.9z"/>
				<path id="XMLID_772_" class="st5" d="M209,101.4l-47.9-27.7l-92.9,54l47.9,27.7L209,101.4z M159,80.2l38.8,22.4l-79.5,46.2
					l-38.8-22.4L159,80.2z"/>
			</g>
			<g id="XMLID_758_">
				<path id="XMLID_768_" class="st9" d="M276.8,141.6l-73.1-42.5l-29.1,16.8l73.1,42.5L276.8,141.6z M213,136.1
					c-4.7-2.7-2.7-8.2,4.4-12.3c1.8-1,3.7-1.9,5.6-2.5c1.9-0.6,3.7-1,5.6-1.2c2-0.3,3.9-0.3,5.6-0.1l0,0h0.1
					c1.7,0.2,3.1,0.6,4.3,1.3c0.6,0.3,1.1,0.7,1.4,1.1c0.1,0.1,0.2,0.3,0.2,0.4c0.1,0.1,0.2,0.3,0.3,0.5c0.3,0.5,0.5,1.1,0.5,1.7
					c0,0.1,0,0.2,0,0.3v0.1c0,0.5-0.1,1.1-0.3,1.6c-0.8,2.2-3.1,4.6-6.6,6.6s-7.7,3.4-11.5,3.8C218.8,137.9,215.3,137.5,213,136.1z"
					/>
				<path id="XMLID_765_" class="st10" d="M284.9,140.7l-79.5-46.2l-38.8,22.4l79.5,46.2L284.9,140.7z M276.8,141.6l-29.1,16.8
					l-73.1-42.5l29.1-16.8L276.8,141.6z"/>
				<path id="XMLID_764_" class="st10" d="M217.4,123.9c1.8-1,3.7-1.9,5.6-2.5c0.1,0,0.2,0,0.3-0.1c0.3-0.1,0.6-0.1,0.8-0.2
					c0.7-0.2,1.5-0.3,2.2-0.5c0.6-0.1,1.2-0.3,1.8-0.4c0.2,0,0.3-0.1,0.5-0.1c0.1,0,0.1,0,0.2,0c0.3,0,0.6,0,0.9,0
					c0.5,0,0.9,0,1.4,0c0.4,0,0.9,0,1.3,0c0.4,0,0.9,0,1.3,0c0.1,0,0.3,0,0.4,0h0.1c1.7,0.2,3.1,0.6,4.3,1.3
					c0.6,0.3,1.1,0.7,1.4,1.1c0.1,0.1,0.2,0.3,0.2,0.4c0.1,0.1,0.2,0.3,0.3,0.5c0.3,0.5,0.5,1.1,0.5,1.7c0,0.1,0,0.2,0,0.3v0.1
					c0,0.5-0.1,1.1-0.3,1.6c-0.8,2.2-3.1,4.6-6.6,6.6s-7.7,3.4-11.5,3.8c-3.8,0.5-7.4,0.1-9.7-1.3
					C208.3,133.4,210.3,128,217.4,123.9z"/>
				<polygon id="XMLID_763_" class="st11" points="248.3,169.6 248.3,176.2 155.4,122.2 155.4,115.6 				"/>
				<path id="XMLID_760_" class="st9" d="M248.3,169.6l47.9-27.7l-92.9-54l-47.9,27.7L248.3,169.6z M284.9,140.7l-38.8,22.4
					l-79.5-46.2l38.8-22.4L284.9,140.7z"/>
				<polygon id="XMLID_759_" class="st12" points="296.2,141.9 296.2,148.5 248.3,176.2 248.3,169.6 				"/>
			</g>
			<g id="XMLID_745_">
				<path id="XMLID_755_" class="st9" d="M57.9,155.1l73.1-42.5l-29.1-16.8l-73.1,42.5L57.9,155.1z M83,134.2
					c-3.8-0.5-8-1.8-11.5-3.8s-5.8-4.4-6.6-6.6c-0.2-0.6-0.3-1.1-0.3-1.6v-0.1c0-0.1,0-0.2,0-0.3c0-0.6,0.2-1.1,0.5-1.7
					c0.1-0.2,0.2-0.3,0.3-0.5c0.1-0.1,0.1-0.3,0.2-0.4c0.4-0.4,0.9-0.8,1.4-1.1c1.2-0.7,2.6-1.1,4.3-1.3h0.1l0,0
					c1.7-0.2,3.6-0.2,5.6,0.1c1.8,0.2,3.7,0.6,5.6,1.2c2,0.6,3.9,1.5,5.6,2.5c7.1,4.1,9.1,9.6,4.4,12.3
					C90.3,134.2,86.8,134.6,83,134.2z"/>
				<path id="XMLID_752_" class="st10" d="M59.5,159.8l79.5-46.2l-38.8-22.4l-79.5,46.2L59.5,159.8z M101.9,95.9l29.1,16.8
					l-73.1,42.5l-29.1-16.8L101.9,95.9z"/>
				<path id="XMLID_751_" class="st10" d="M88.2,120.6c-1.8-1-3.7-1.9-5.6-2.5c-0.1,0-0.2,0-0.3-0.1c-0.3-0.1-0.6-0.1-0.8-0.2
					c-0.7-0.2-1.5-0.3-2.2-0.5c-0.6-0.1-1.2-0.3-1.8-0.4c-0.2,0-0.3-0.1-0.5-0.1c-0.1,0-0.1,0-0.2,0c-0.3,0-0.6,0-0.9,0
					c-0.5,0-0.9,0-1.4,0c-0.4,0-0.9,0-1.3,0s-0.9,0-1.3,0c-0.1,0-0.3,0-0.4,0h-0.1c-1.7,0.2-3.1,0.6-4.3,1.3
					c-0.6,0.3-1.1,0.7-1.4,1.1c-0.1,0.1-0.2,0.3-0.2,0.4c-0.1,0.1-0.2,0.3-0.3,0.5c-0.3,0.5-0.5,1.1-0.5,1.7c0,0.1,0,0.2,0,0.3v0.1
					c0,0.5,0.1,1.1,0.3,1.6c0.8,2.2,3.1,4.6,6.6,6.6s7.7,3.4,11.5,3.8c3.8,0.5,7.4,0.1,9.7-1.3C97.3,130.2,95.3,124.7,88.2,120.6z"
					/>
				<polygon id="XMLID_750_" class="st11" points="57.4,166.3 57.3,172.9 150.3,118.9 150.3,112.3 				"/>
				<path id="XMLID_747_" class="st9" d="M150.3,112.3l-47.9-27.7l-92.9,54l47.9,27.7L150.3,112.3z M100.2,91.2l38.8,22.4
					l-79.5,46.2l-38.8-22.4L100.2,91.2z"/>
				<polygon id="XMLID_746_" class="st12" points="9.5,138.7 9.4,145.2 57.3,172.9 57.4,166.3 				"/>
			</g>
			<g id="XMLID_732_">
				<path id="XMLID_742_" class="st9" d="M120.7,171.2l73.1-42.5l-29.1-16.8l-73.1,42.5L120.7,171.2z M145.9,150.2
					c-3.8-0.5-8-1.8-11.5-3.8s-5.8-4.4-6.6-6.6c-0.2-0.6-0.3-1.1-0.3-1.6v-0.1c0-0.1,0-0.2,0-0.3c0-0.6,0.2-1.1,0.5-1.7
					c0.1-0.2,0.2-0.3,0.3-0.5c0.1-0.1,0.1-0.3,0.2-0.4c0.4-0.4,0.9-0.8,1.4-1.1c1.2-0.7,2.6-1.1,4.3-1.3h0.1l0,0
					c1.7-0.2,3.6-0.2,5.6,0.1c1.8,0.2,3.7,0.6,5.6,1.2c2,0.6,3.9,1.5,5.6,2.5c7.1,4.1,9.1,9.6,4.4,12.3
					C153.2,150.3,149.7,150.7,145.9,150.2z"/>
				<path id="XMLID_739_" class="st10" d="M122.4,175.9l79.5-46.2l-38.8-22.4l-79.5,46.2L122.4,175.9z M164.8,111.9l29.1,16.8
					l-73.1,42.5l-29.1-16.8L164.8,111.9z"/>
				<path id="XMLID_738_" class="st10" d="M151.1,136.7c-1.8-1-3.7-1.9-5.6-2.5c-0.1,0-0.2,0-0.3-0.1c-0.3-0.1-0.6-0.1-0.8-0.2
					c-0.7-0.2-1.5-0.3-2.2-0.5c-0.6-0.1-1.2-0.3-1.8-0.4c-0.2,0-0.3-0.1-0.5-0.1c-0.1,0-0.1,0-0.2,0c-0.3,0-0.6,0-0.9,0
					c-0.5,0-0.9,0-1.4,0c-0.4,0-0.9,0-1.3,0c-0.4,0-0.9,0-1.3,0c-0.1,0-0.3,0-0.4,0h-0.1c-1.7,0.2-3.1,0.6-4.3,1.3
					c-0.6,0.3-1.1,0.7-1.4,1.1c-0.1,0.1-0.2,0.3-0.2,0.4c-0.1,0.1-0.2,0.3-0.3,0.5c-0.3,0.5-0.5,1.1-0.5,1.7c0,0.1,0,0.2,0,0.3v0.1
					c0,0.5,0.1,1.1,0.3,1.6c0.8,2.2,3.1,4.6,6.6,6.6s7.7,3.4,11.5,3.8c3.8,0.5,7.4,0.1,9.7-1.3C160.2,146.2,158.2,140.8,151.1,136.7
					z"/>
				<polygon id="XMLID_737_" class="st11" points="120.2,182.4 120.2,188.9 213.1,135 213.2,128.4 				"/>
				<path id="XMLID_734_" class="st9" d="M213.2,128.4l-47.9-27.7l-92.9,54l47.9,27.7L213.2,128.4z M163.1,107.2l38.8,22.4
					l-79.5,46.2l-38.8-22.4L163.1,107.2z"/>
				<polygon id="XMLID_733_" class="st12" points="72.3,154.7 72.3,161.3 120.2,188.9 120.2,182.4 				"/>
			</g>
			<g id="XMLID_718_">
				<path id="XMLID_729_" class="st13" d="M230.3,160l-73.1-42.5l-29.1,16.8l73.1,42.5L230.3,160z M166.5,154.5
					c-4.7-2.7-2.7-8.2,4.4-12.3c1.8-1,3.7-1.9,5.6-2.5c1.9-0.6,3.7-1,5.6-1.2c2-0.3,3.9-0.3,5.6-0.1l0,0h0.1
					c1.7,0.2,3.1,0.6,4.3,1.3c0.6,0.3,1.1,0.7,1.4,1.1c0.1,0.1,0.2,0.3,0.2,0.4c0.1,0.1,0.2,0.3,0.3,0.5c0.3,0.5,0.5,1.1,0.5,1.7
					c0,0.1,0,0.2,0,0.3v0.1c0,0.5-0.1,1.1-0.3,1.6c-0.8,2.2-3.1,4.6-6.6,6.6s-7.7,3.4-11.5,3.8C172.3,156.3,168.8,155.9,166.5,154.5
					z"/>
				<path id="XMLID_726_" class="st14" d="M238.4,159l-79.5-46.2l-38.8,22.4l79.5,46.2L238.4,159z M230.3,160l-29.1,16.8l-73.1-42.5
					l29.1-16.8L230.3,160z"/>
				<path id="XMLID_725_" class="st14" d="M170.9,142.2c1.8-1,3.7-1.9,5.6-2.5c0.1,0,0.2,0,0.3-0.1c0.3-0.1,0.6-0.1,0.8-0.2
					c0.7-0.2,1.5-0.3,2.2-0.5c0.6-0.1,1.2-0.3,1.8-0.4c0.2,0,0.3-0.1,0.5-0.1c0.1,0,0.1,0,0.2,0c0.3,0,0.6,0,0.9,0
					c0.5,0,0.9,0,1.4,0c0.4,0,0.9,0,1.3,0c0.4,0,0.9,0,1.3,0c0.1,0,0.3,0,0.4,0h0.1c1.7,0.2,3.1,0.6,4.3,1.3
					c0.6,0.3,1.1,0.7,1.4,1.1c0.1,0.1,0.2,0.3,0.2,0.4c0.1,0.1,0.2,0.3,0.3,0.5c0.3,0.5,0.5,1.1,0.5,1.7c0,0.1,0,0.2,0,0.3
					c0,0,0,0,0,0.1c0,0.5-0.1,1.1-0.3,1.6c-0.8,2.2-3.1,4.6-6.6,6.6s-7.7,3.4-11.5,3.8c-3.8,0.5-7.4,0.1-9.7-1.3
					C161.8,151.8,163.8,146.3,170.9,142.2z"/>
				<polygon id="XMLID_724_" class="st15" points="201.8,187.9 201.8,194.5 108.9,140.5 108.9,134 				"/>
				<path id="XMLID_720_" class="st13" d="M108.9,134l12.5,7.3l31,18.1l49.3,28.7l47.9-27.6L199.3,131l-30-17.4l-12.5-7.3L108.9,134
					z M120.1,135.2l38.8-22.4l5.8,3.4l31.1,18.1l42.7,24.8l-38.8,22.4L157,156.7l-31.1-18L120.1,135.2z"/>
				<polygon id="XMLID_719_" class="st16" points="249.7,160.3 249.7,166.9 201.8,194.5 201.8,187.9 				"/>
			</g>
			<g id="XMLID_704_">
				<polygon id="XMLID_716_" class="st17" points="206.5,165.9 206.5,172.5 113.6,118.5 113.6,111.9 				"/>
				<path id="XMLID_713_" class="st18" d="M235.1,137.9L162,95.5l-29.1,16.8l73.1,42.5L235.1,137.9z M171.2,132.5
					c-4.7-2.7-2.7-8.2,4.4-12.3c1.8-1,3.7-1.9,5.6-2.5c1.9-0.6,3.7-1,5.6-1.2c2-0.3,3.9-0.3,5.6-0.1l0,0h0.1
					c1.7,0.2,3.1,0.6,4.3,1.3c0.6,0.3,1.1,0.7,1.4,1.1c0.1,0.1,0.2,0.3,0.2,0.4c0.1,0.1,0.2,0.3,0.3,0.5c0.3,0.5,0.5,1.1,0.5,1.7
					c0,0.1,0,0.2,0,0.3v0.1c0,0.5-0.1,1.1-0.3,1.6c-0.8,2.2-3.1,4.6-6.6,6.6s-7.7,3.4-11.5,3.8C177.1,134.2,173.6,133.8,171.2,132.5
					z"/>
				<path id="XMLID_710_" class="st19" d="M243.2,137l-79.5-46.2l-38.8,22.4l79.5,46.2L243.2,137z M235.1,137.9L206,154.7
					l-73.1-42.5L162,95.5L235.1,137.9z"/>
				<path id="XMLID_709_" class="st19" d="M175.7,120.2c1.8-1,3.7-1.9,5.6-2.5c0.1,0,0.2,0,0.3-0.1c0.3-0.1,0.6-0.1,0.8-0.2
					c0.7-0.2,1.5-0.3,2.2-0.5c0.6-0.1,1.2-0.3,1.8-0.4c0.2,0,0.3-0.1,0.5-0.1c0.1,0,0.1,0,0.2,0c0.3,0,0.6,0,0.9,0
					c0.5,0,0.9,0,1.4,0c0.4,0,0.9,0,1.3,0c0.4,0,0.9,0,1.3,0c0.1,0,0.3,0,0.4,0h0.1c1.7,0.2,3.1,0.6,4.3,1.3
					c0.6,0.3,1.1,0.7,1.4,1.1c0.1,0.1,0.2,0.3,0.2,0.4c0.1,0.1,0.2,0.3,0.3,0.5c0.3,0.5,0.5,1.1,0.5,1.7c0,0.1,0,0.2,0,0.3v0.1
					c0,0.5-0.1,1.1-0.3,1.6c-0.8,2.2-3.1,4.6-6.6,6.6s-7.7,3.4-11.5,3.8c-3.8,0.5-7.4,0.1-9.7-1.3
					C166.6,129.8,168.6,124.3,175.7,120.2z"/>
				<path id="XMLID_706_" class="st18" d="M206.5,165.9l47.9-27.7l-92.9-54l-47.9,27.7L206.5,165.9z M243.2,137l-38.8,22.4
					l-79.5-46.2l38.8-22.4L243.2,137z"/>
				<polygon id="XMLID_705_" class="st20" points="254.4,138.3 254.4,144.8 206.5,172.5 206.5,165.9 				"/>
			</g>
		</g>
	</g>
	<path id="XMLID_6_" class="st21" d="M304.9,127.9c0-0.1,0.1-0.1,0.1-0.2C305,127.8,304.9,127.9,304.9,127.9z"/>
	<path id="XMLID_4_" class="st21" d="M164.8,95.5c-26.1,0-40.2,10.1-49.2,15.6c-0.9,0.6-1.5,1.6-1.5,2.6c0,1.7-0.1,4.2,0.1,4.7
		c-0.6,1.9,6.4,6.8,6.4,8.8c0,0.1,0,0.2-0.1,0.3c-0.1,0.2-0.3,0.3-0.4,0.5c-1.3,1.1-4.8,1.7-3.5,7.1c0.1,0.3,0.2,0.6,0.4,0.8
		c1.6,2.6,2.8,4.2,5.3,5.8c0.2,0.1,0.5,0.3,0.8,0.5c2.9,2.1,6.8,3.2,11.2,3.2c4.6,0,8.7-1.5,11.6-3.8c0.4-0.4,1-0.5,1.6-0.6l0,0
		c0.9-0.1,1.6-0.9,2.1-1.6l1.5,0.8l2.1-5c0.3-0.2,0.5-0.4,0.7-0.7c3.5,0.9,7.3,1.9,11,1.9c27.6,0,50-9.2,50-20.6
		S192.4,95.5,164.8,95.5z"/>
	<g id="XMLID_5127_">
		<g id="XMLID_5147_" class="st22">
			<g id="XMLID_5331_">
				<polygon id="XMLID_5332_" class="st23" points="199.6,91.6 170.7,85.3 184.9,81.5 213.8,87.8 				"/>
			</g>
			<g id="XMLID_5313_">
				<polygon id="XMLID_5316_" class="st23" points="194.3,121.1 165.4,114.8 165.2,94.7 194.1,101 				"/>
			</g>
			<g id="XMLID_5294_">
				<g>
					<path id="XMLID_5304_" class="st24" d="M201.2,85.5l-28.8-6.3c-1.9-2.1-3.8-4.3-5.7-6.4l28.8,6.3
						C197.4,81.2,199.4,83.4,201.2,85.5z"/>
				</g>
				<g>
					<g>
						<defs>
							<path id="SVGID_1_" d="M201.2,85.5l-28.8-6.3c-1.9-2.1-3.8-4.3-5.7-6.4l28.8,6.3C197.4,81.2,199.4,83.4,201.2,85.5z"/>
						</defs>
						<clipPath id="SVGID_2_">
							<use xlink:href="#SVGID_1_"  style="overflow:visible;"/>
						</clipPath>
						<g id="XMLID_5308_" class="st25">
							<path id="XMLID_5312_" class="st24" d="M201.2,85.5l-28.8-6.3c-1.9-2.1-3.8-4.3-5.7-6.4l28.8,6.3
								C197.4,81.2,199.4,83.4,201.2,85.5"/>
						</g>
					</g>
				</g>
			</g>
			<g id="XMLID_5289_">
				<polygon id="XMLID_5290_" class="st24" points="194.1,101 165.2,94.7 155.6,83.7 184.4,90 				"/>
			</g>
			<g id="XMLID_5267_">
				<g>
					<path id="XMLID_5271_" class="st23" d="M166.8,104.4L138,98.1c2.3,0.5,4.8,0.5,7.3-0.2c3.4-0.9,6.9-2.9,10.4-6.3l28.8,6.3
						c-3.5,3.3-7,5.3-10.4,6.2C171.6,104.8,169.2,104.9,166.8,104.4z"/>
				</g>
				<g>
					<g>
						<defs>
							<path id="SVGID_3_" d="M166.8,104.4L138,98.1c2.3,0.5,4.8,0.5,7.3-0.2c3.4-0.9,6.9-2.9,10.4-6.3l28.8,6.3
								c-3.5,3.3-7,5.3-10.4,6.2C171.6,104.8,169.2,104.9,166.8,104.4z"/>
						</defs>
						<clipPath id="SVGID_4_">
							<use xlink:href="#SVGID_3_"  style="overflow:visible;"/>
						</clipPath>
						<path id="XMLID_5278_" class="st26" d="M155.7,91.6c-2.2,2.1-4.3,3.6-6.5,4.7c-1.2,0.6-2.4,1.1-3.6,1.5c-0.1,0-0.2,0-0.2,0.1
							c-0.9,0.2-1.8,0.4-2.7,0.5s-1.8,0.1-2.6,0c-0.7-0.1-1.4-0.2-2.1-0.3l28.8,6.3c0.7,0.1,1.4,0.2,2.1,0.3c0.9,0.1,1.7,0.1,2.6,0
							c0.9-0.1,1.8-0.2,2.7-0.5c0.1,0,0.2,0,0.2-0.1c1.2-0.3,2.4-0.8,3.6-1.5c2.1-1.1,4.3-2.7,6.5-4.7L155.7,91.6z"/>
					</g>
				</g>
			</g>
			<g id="XMLID_5233_">
				<g>
					<path id="XMLID_5247_" class="st24" d="M152.6,30.2l28.8,6.3c8.9,1.9,16.2,11.4,16.3,27.6c0.1,5.2-0.6,10-2.1,15.1l-28.8-6.3
						c1.5-5.1,2.2-9.9,2.1-15.1C168.7,41.5,161.5,32.1,152.6,30.2z"/>
				</g>
				<g>
					<g>
						<defs>
							<path id="SVGID_5_" d="M152.6,30.2l28.8,6.3c8.9,1.9,16.2,11.4,16.3,27.6c0.1,5.2-0.6,10-2.1,15.1l-28.8-6.3
								c1.5-5.1,2.2-9.9,2.1-15.1C168.7,41.5,161.5,32.1,152.6,30.2z"/>
						</defs>
						<clipPath id="SVGID_6_">
							<use xlink:href="#SVGID_5_"  style="overflow:visible;"/>
						</clipPath>
						<path id="XMLID_5253_" class="st27" d="M197.7,64c0-1.8-0.1-3.5-0.3-5.1c-1.5-13-8.1-20.7-16-22.4l-28.8-6.3
							c7.9,1.7,14.5,9.4,16,22.4c0.2,1.6,0.3,3.3,0.3,5.1c0,0.2,0,0.3,0,0.5c0,1.5-0.1,3-0.2,4.5c-0.1,1.3-0.3,2.5-0.5,3.7
							s-0.5,2.5-0.8,3.7c-0.2,0.9-0.5,1.8-0.7,2.7l28.8,6.3c0.3-0.9,0.5-1.8,0.7-2.7c0.3-1.2,0.6-2.5,0.8-3.7s0.4-2.5,0.5-3.7
							c0.1-1.5,0.2-2.9,0.2-4.5C197.7,64.3,197.7,64.1,197.7,64z"/>
					</g>
				</g>
			</g>
			<g id="XMLID_5221_">
				<polygon id="XMLID_5228_" class="st23" points="170,65.8 141.1,59.5 160.9,54.2 189.7,60.5 				"/>
			</g>
			<g id="XMLID_5210_">
				<polygon id="XMLID_5216_" class="st24" points="170.2,93.8 141.4,87.5 141.1,59.5 170,65.8 				"/>
			</g>
			<g id="XMLID_5190_">
				<polygon id="XMLID_5201_" class="st28" points="189.7,60.5 189.9,80.6 199.6,91.6 213.8,87.8 214,115.8 194.3,121.1 194.1,101 
					184.4,90 170.2,93.8 170,65.8 				"/>
			</g>
			<g id="XMLID_5170_">
				<path id="XMLID_5186_" class="st28" d="M173.4,14.2c3.8-1,7.6-1.3,11.3-0.7c16.8,2.6,28.5,21.4,28.7,46.2
					c0.1,7.9-0.9,15.4-3.1,23.3c-3.1,0.8-6.1,1.6-9.1,2.4c-1.9-2.1-3.8-4.3-5.7-6.4c1.5-5.1,2.2-9.9,2.1-15.1
					c-0.2-20.9-12.2-30.5-24.3-27.3c-7.4,2-14.9,8.9-19.6,21.1c-10.3,26.7,3.2,51,20.4,46.4c3.4-0.9,6.9-2.9,10.4-6.3
					c1.9,2.1,3.8,4.3,5.7,6.4c0,4.4,0.1,8.8,0.1,13.1c-5.1,4.5-10.4,7.5-15.7,8.9c-11.4,3-22.6-1-30.4-11.8
					c-11.5-15.9-12.9-42.8-3.6-66.1C147.9,30.4,160.3,17.7,173.4,14.2z"/>
			</g>
			<path id="XMLID_5154_" class="st29" d="M176.9,13.7c0.7-0.1,1.3-0.2,2-0.3c0.1,0,0.3,0,0.4,0c0.6-0.1,1.2-0.1,1.8-0.1
				c0.1,0,0.2,0,0.2,0c0.7,0,1.3,0,2,0.1c0.2,0,0.3,0,0.5,0c0.6,0.1,1.3,0.1,1.9,0.2c0.5,0.1,1,0.2,1.6,0.3l-28.8-6.3
				c-0.5-0.1-1-0.2-1.6-0.3c-0.6-0.1-1.3-0.2-1.9-0.2c-0.1,0-0.2,0-0.2,0c-0.1,0-0.1,0-0.2,0c-0.7,0-1.3-0.1-2-0.1
				c-0.1,0-0.2,0-0.2,0c-0.6,0-1.2,0-1.8,0.1c-0.1,0-0.2,0-0.2,0h-0.1c-0.7,0.1-1.3,0.2-2,0.3c-0.1,0-0.3,0.1-0.4,0.1
				c-0.7,0.1-1.4,0.3-2.1,0.5c-0.1,0-0.3,0.1-0.4,0.1c-0.6,0.2-1.2,0.4-1.9,0.6c-0.2,0.1-0.3,0.1-0.5,0.2c-0.6,0.2-1.2,0.5-1.9,0.8
				c-0.1,0.1-0.2,0.1-0.4,0.2c-0.6,0.3-1.2,0.5-1.7,0.8c-0.1,0.1-0.2,0.1-0.4,0.2c-0.2,0.1-0.3,0.2-0.5,0.3c-0.7,0.4-1.3,0.7-2,1.1
				l-0.1,0.1c-0.7,0.4-1.4,0.9-2,1.4c-0.2,0.1-0.3,0.2-0.5,0.3c-0.7,0.5-1.3,1-2,1.5c-0.1,0.1-0.1,0.1-0.2,0.2
				c-0.6,0.5-1.2,1-1.8,1.6c-0.1,0.1-0.3,0.2-0.4,0.4c-0.6,0.6-1.3,1.2-1.9,1.8c-0.1,0.1-0.2,0.3-0.4,0.4c-0.6,0.6-1.1,1.2-1.6,1.8
				c-0.1,0.1-0.2,0.2-0.3,0.3c-0.6,0.7-1.2,1.4-1.8,2.1c-0.1,0.2-0.3,0.3-0.4,0.5c-0.6,0.7-1.1,1.5-1.7,2.3c0,0,0,0,0,0.1
				c-0.6,0.8-1.1,1.6-1.6,2.5c-0.1,0.2-0.2,0.4-0.4,0.6c-0.5,0.8-1,1.6-1.4,2.4c0,0,0,0.1-0.1,0.1c-0.7,1.1-1.3,2.3-1.9,3.5
				c-0.2,0.3-0.3,0.7-0.5,1c-0.4,0.9-0.9,1.8-1.3,2.8c-0.1,0.2-0.2,0.4-0.3,0.6c-0.3,0.6-0.5,1.2-0.8,1.8c-0.5,1.3-1,2.7-1.5,4
				c-0.1,0.2-0.2,0.4-0.2,0.7c-0.1,0.2-0.1,0.3-0.2,0.5c-0.4,1.2-0.7,2.3-1.1,3.5c-0.1,0.3-0.1,0.5-0.2,0.8
				c-0.2,0.7-0.4,1.4-0.6,2.2c-0.1,0.4-0.2,0.8-0.3,1.2c-0.1,0.4-0.2,0.7-0.2,1.1c-0.3,1.3-0.5,2.5-0.7,3.8c0,0.1,0,0.2,0,0.2
				s0,0,0,0.1c-0.2,1.3-0.4,2.7-0.6,4c0,0.4-0.1,0.8-0.1,1.1c-0.1,0.5-0.1,1-0.2,1.5c0,0.5-0.1,1-0.1,1.5s-0.1,0.9-0.1,1.4
				c-0.1,1.1-0.1,2.2-0.1,3.3c0,0.3,0,0.6,0,0.8c0,0.1,0,0.1,0,0.2c0,0.8,0,1.7,0.1,2.5c0,0.6,0,1.1,0,1.7c0.1,1,0.2,2,0.2,3
				c0,0.4,0.1,0.8,0.1,1.3l0,0c0.1,1.3,0.3,2.6,0.6,3.9c0.1,0.4,0.2,0.8,0.2,1.2c0.2,0.9,0.3,1.8,0.5,2.7c0.1,0.5,0.2,0.9,0.4,1.4
				c0.2,0.8,0.4,1.5,0.6,2.3c0.1,0.5,0.3,1,0.5,1.4c0.2,0.7,0.5,1.4,0.8,2.1c0.2,0.5,0.4,0.9,0.5,1.4c0.3,0.7,0.6,1.4,0.9,2.1
				c0.2,0.4,0.4,0.9,0.6,1.3c0.4,0.7,0.8,1.4,1.1,2.1c0.2,0.3,0.4,0.7,0.6,1c0.6,1,1.2,2,1.9,2.9c0.6,0.8,1.2,1.6,1.9,2.4
				c1.9,2.3,4,4.2,6.2,5.7c1.5,1,3,1.9,4.6,2.6c1.6,0.7,3.2,1.2,4.9,1.6l28.8,6.3c-6.6-1.4-12.7-5.5-17.6-12.2
				c-0.7-0.9-1.3-1.9-1.9-2.9c-0.2-0.3-0.4-0.7-0.6-1c-0.4-0.7-0.8-1.4-1.1-2.1c-0.2-0.4-0.4-0.8-0.6-1.3c-0.3-0.7-0.6-1.4-0.9-2.1
				c-0.2-0.5-0.4-0.9-0.5-1.4c-0.3-0.7-0.5-1.4-0.8-2.2c-0.2-0.5-0.3-1-0.5-1.4c-0.2-0.8-0.4-1.5-0.6-2.3c-0.1-0.5-0.2-0.9-0.4-1.4
				c-0.2-0.9-0.4-1.8-0.6-2.7c-0.1-0.4-0.2-0.8-0.2-1.2c-0.2-1.3-0.4-2.6-0.6-4c0-0.4-0.1-0.8-0.1-1.2c-0.1-1-0.2-2-0.3-3
				c0-0.5,0-1.1,0-1.7c0-0.9-0.1-1.8-0.1-2.7c0-0.3,0-0.5,0-0.8c0-1.1,0-2.2,0.1-3.3c0-0.5,0.1-0.9,0.1-1.4c0.1-1,0.1-2,0.2-3
				c0-0.4,0.1-0.8,0.1-1.1c0.2-1.3,0.3-2.7,0.6-4.1c0-0.1,0-0.2,0-0.2c0.2-1.3,0.5-2.5,0.7-3.8c0.1-0.4,0.2-0.7,0.2-1.1
				c0.3-1.1,0.5-2.2,0.8-3.3c0.1-0.3,0.1-0.5,0.2-0.8c0.4-1.3,0.8-2.7,1.2-4c0.1-0.2,0.2-0.4,0.2-0.7c0.5-1.3,0.9-2.7,1.5-4l0,0l0,0
				c0.3-0.8,0.7-1.6,1-2.4c0.4-0.9,0.8-1.9,1.3-2.8c0.2-0.3,0.3-0.7,0.5-1c0.6-1.2,1.2-2.4,1.9-3.5c0.5-0.9,1-1.7,1.5-2.5
				c0.1-0.2,0.2-0.4,0.4-0.6c0.5-0.8,1.1-1.7,1.6-2.5c0,0,0,0,0-0.1c0.5-0.8,1.1-1.5,1.7-2.3c0.1-0.2,0.3-0.3,0.4-0.5
				c0.6-0.7,1.2-1.4,1.8-2.1c0.1-0.1,0.2-0.2,0.3-0.3c0.5-0.6,1.1-1.2,1.6-1.8c0.1-0.1,0.2-0.3,0.4-0.4c0.6-0.6,1.2-1.2,1.9-1.8
				c0.1-0.1,0.3-0.2,0.4-0.4c0.6-0.5,1.2-1.1,1.8-1.6c0.1-0.1,0.1-0.1,0.2-0.2c0.7-0.5,1.3-1,2-1.5c0.2-0.1,0.3-0.2,0.5-0.3
				c0.7-0.5,1.4-0.9,2-1.4l0.1-0.1c0.7-0.4,1.3-0.8,2-1.2c0.2-0.1,0.3-0.2,0.5-0.2c0.7-0.4,1.4-0.7,2.1-1c0.1-0.1,0.2-0.1,0.4-0.2
				c0.6-0.3,1.2-0.5,1.9-0.8c0.2-0.1,0.3-0.1,0.5-0.2c0.8-0.3,1.5-0.5,2.3-0.7l0,0c0.7-0.2,1.4-0.3,2.1-0.5
				C176.6,13.7,176.7,13.7,176.9,13.7z"/>
		</g>
	</g>
</g>
</svg>
