<?xml version="1.0" encoding="utf-8"?>
<!-- Generator: Adobe Illustrator 19.0.0, SVG Export Plug-In . SVG Version: 6.00 Build 0)  -->
<svg version="1.1" id="图层_1" xmlns="http://www.w3.org/2000/svg" xmlns:xlink="http://www.w3.org/1999/xlink" x="0px" y="0px"
	 viewBox="0 0 280 160" style="enable-background:new 0 0 280 160;" xml:space="preserve">
<style type="text/css">
	.st0{fill:#C3C3C0;}
	.st1{fill:#EDEDEE;}
	.st2{enable-background:new    ;}
	.st3{fill:#D39220;}
	.st4{clip-path:url(#XMLID_13_);enable-background:new    ;}
	.st5{fill:#BC820D;}
	.st6{clip-path:url(#XMLID_14_);fill:#D39220;}
	.st7{clip-path:url(#XMLID_15_);fill:#BC820D;}
	.st8{fill:#FAC13C;}
	.st9{fill:#E6B543;}
	.st10{fill-rule:evenodd;clip-rule:evenodd;fill:#BF4A3D;}
	.st11{fill-rule:evenodd;clip-rule:evenodd;fill:#943B3B;}
	.st12{fill-rule:evenodd;clip-rule:evenodd;fill:#F25E4B;}
	.st13{fill-rule:evenodd;clip-rule:evenodd;fill:#70913F;}
	.st14{fill-rule:evenodd;clip-rule:evenodd;fill:#89B04D;}
	.st15{fill-rule:evenodd;clip-rule:evenodd;fill:#9BC957;}
</style>
<g>
	<g>
		<g id="XMLID_11_">
			<path id="XMLID_25_" class="st0" d="M201,102.3l-59-34.1c-1.3-0.7-2.8-0.7-4.1,0l-59,34.1H63v11.7h0c0,1.3,0.7,2.7,2,3.4
				l72.9,42.1c1.3,0.7,2.8,0.7,4.1,0l72.9-42.1c1.3-0.8,2-2.1,2-3.4h0v-11.7H201z"/>
			<path id="XMLID_23_" class="st1" d="M138,147.9L65,105.8c-2.7-1.6-2.7-5.5,0-7L138,56.7c1.3-0.7,2.8-0.7,4.1,0L215,98.8
				c2.7,1.6,2.7,5.5,0,7L142,147.9C140.8,148.6,139.2,148.6,138,147.9z"/>
		</g>
	</g>
	<g id="XMLID_12555_">
		<g id="XMLID_12556_" class="st2">
			<g id="XMLID_12580_">
				<polygon id="XMLID_12581_" class="st3" points="168.6,91.9 147.8,87.4 158,84.6 178.8,89.1 				"/>
			</g>
			<g id="XMLID_12578_">
				<polygon id="XMLID_12579_" class="st3" points="164.8,113.1 144,108.6 143.9,94.1 164.6,98.6 				"/>
			</g>
			<g id="XMLID_12574_">
				<defs>
					<path id="XMLID_12575_" d="M169.8,87.5L149,83c-1.3-1.5-2.7-3.1-4.1-4.6l20.7,4.5C167,84.4,168.4,86,169.8,87.5z"/>
				</defs>
				<use xlink:href="#XMLID_12575_"  style="overflow:visible;fill:#BC820D;"/>
				<clipPath id="XMLID_13_">
					<use xlink:href="#XMLID_12575_"  style="overflow:visible;"/>
				</clipPath>
				<g id="XMLID_12576_" class="st4">
					<path id="XMLID_12577_" class="st5" d="M169.8,87.5L149,83c-1.3-1.5-2.7-3.1-4.1-4.6l20.7,4.5C167,84.4,168.4,86,169.8,87.5"/>
				</g>
			</g>
			<g id="XMLID_12572_">
				<polygon id="XMLID_12573_" class="st5" points="164.6,98.6 143.9,94.1 136.9,86.2 157.7,90.7 				"/>
			</g>
			<g id="XMLID_12569_">
				<defs>
					<path id="XMLID_12570_" d="M145,101.1l-20.7-4.5c1.7,0.4,3.4,0.3,5.3-0.2c2.4-0.6,4.9-2.1,7.5-4.5l20.7,4.5
						c-2.5,2.4-5,3.8-7.5,4.5C148.5,101.4,146.7,101.4,145,101.1z"/>
				</defs>
				<use xlink:href="#XMLID_12570_"  style="overflow:visible;fill:#D39220;"/>
				<clipPath id="XMLID_14_">
					<use xlink:href="#XMLID_12570_"  style="overflow:visible;"/>
				</clipPath>
				<path id="XMLID_12571_" class="st6" d="M137,91.9c-1.6,1.5-3.1,2.6-4.7,3.4c-0.9,0.5-1.8,0.8-2.6,1c-0.1,0-0.1,0-0.2,0
					c-0.6,0.2-1.3,0.3-1.9,0.4c-0.6,0.1-1.3,0.1-1.9,0c-0.5,0-1-0.1-1.5-0.2l20.7,4.5c0.5,0.1,1,0.2,1.5,0.2c0.6,0,1.2,0,1.9,0
					c0.6-0.1,1.3-0.2,1.9-0.4c0.1,0,0.1,0,0.2,0c0.9-0.2,1.7-0.6,2.6-1c1.5-0.8,3.1-1.9,4.7-3.4L137,91.9z"/>
			</g>
			<g id="XMLID_12566_">
				<defs>
					<path id="XMLID_12567_" d="M134.8,47.7l20.7,4.5c6.4,1.4,11.6,8.2,11.7,19.8c0,3.8-0.5,7.2-1.5,10.9L145,78.4
						c1.1-3.7,1.6-7.1,1.5-10.9C146.4,55.9,141.2,49.1,134.8,47.7z"/>
				</defs>
				<use xlink:href="#XMLID_12567_"  style="overflow:visible;fill:#BC820D;"/>
				<clipPath id="XMLID_15_">
					<use xlink:href="#XMLID_12567_"  style="overflow:visible;"/>
				</clipPath>
				<path id="XMLID_12568_" class="st7" d="M167.2,72c0-1.3-0.1-2.5-0.2-3.7c-1.1-9.4-5.8-14.9-11.5-16.1l-20.7-4.5
					c5.7,1.2,10.4,6.7,11.5,16.1c0.1,1.2,0.2,2.4,0.2,3.7c0,0.1,0,0.2,0,0.3c0,1.1,0,2.2-0.1,3.2c-0.1,0.9-0.2,1.8-0.3,2.7
					c-0.1,0.9-0.3,1.8-0.5,2.7c-0.2,0.6-0.3,1.3-0.5,2l20.7,4.5c0.2-0.7,0.4-1.3,0.5-2c0.2-0.9,0.4-1.8,0.5-2.7
					c0.1-0.9,0.3-1.8,0.3-2.7c0.1-1.1,0.1-2.1,0.1-3.2C167.2,72.2,167.2,72.1,167.2,72z"/>
			</g>
			<g id="XMLID_12564_">
				<polygon id="XMLID_12565_" class="st3" points="147.3,73.3 126.5,68.8 140.7,65 161.5,69.5 				"/>
			</g>
			<g id="XMLID_12562_">
				<polygon id="XMLID_12563_" class="st5" points="147.5,93.5 126.7,89 126.5,68.8 147.3,73.3 				"/>
			</g>
			<g id="XMLID_12560_">
				<polygon id="XMLID_12561_" class="st8" points="161.5,69.5 161.6,84 168.6,91.9 178.8,89.1 179,109.3 164.8,113.1 164.6,98.6 
					157.7,90.7 147.5,93.5 147.3,73.3 				"/>
			</g>
			<g id="XMLID_12558_">
				<path id="XMLID_12559_" class="st8" d="M149.7,36.3c2.7-0.7,5.4-0.9,8.1-0.5c12.1,1.8,20.5,15.4,20.7,33.2
					c0.1,5.7-0.7,11.1-2.2,16.7c-2.2,0.6-4.4,1.2-6.6,1.8c-1.3-1.5-2.7-3.1-4.1-4.6c1.1-3.7,1.6-7.1,1.5-10.9
					c-0.1-15-8.8-22-17.5-19.6c-5.3,1.4-10.7,6.4-14.1,15.1c-7.4,19.2,2.3,36.7,14.6,33.4c2.4-0.6,4.9-2.1,7.5-4.5
					c1.3,1.5,2.7,3.1,4.1,4.6c0,3.2,0.1,6.3,0.1,9.4c-3.6,3.3-7.5,5.4-11.3,6.4c-8.2,2.2-16.2-0.7-21.8-8.5
					c-8.3-11.4-9.3-30.8-2.6-47.5C131.4,47.9,140.4,38.8,149.7,36.3z"/>
			</g>
			<path id="XMLID_12557_" class="st9" d="M151.5,35.9c0.5-0.1,1-0.2,1.5-0.2c0.1,0,0.2,0,0.3,0c0.4,0,0.9-0.1,1.3-0.1
				c0.1,0,0.1,0,0.2,0c0.5,0,1,0,1.4,0c0.1,0,0.2,0,0.3,0c0.5,0,0.9,0.1,1.4,0.2c0.4,0.1,0.7,0.1,1.1,0.2l-20.7-4.5
				c-0.4-0.1-0.7-0.1-1.1-0.2c-0.5-0.1-0.9-0.1-1.4-0.2c-0.1,0-0.1,0-0.2,0c-0.1,0-0.1,0-0.2,0c-0.5,0-1,0-1.4,0c-0.1,0-0.1,0-0.2,0
				c-0.4,0-0.9,0-1.3,0.1c-0.1,0-0.1,0-0.2,0c0,0-0.1,0-0.1,0c-0.5,0.1-1,0.1-1.5,0.2c-0.1,0-0.2,0-0.3,0.1c-0.5,0.1-1,0.2-1.5,0.3
				c-0.1,0-0.2,0.1-0.3,0.1c-0.4,0.1-0.9,0.3-1.3,0.4c-0.1,0-0.2,0.1-0.3,0.1c-0.5,0.2-0.9,0.3-1.3,0.5c-0.1,0-0.2,0.1-0.3,0.1
				c-0.4,0.2-0.8,0.4-1.2,0.6c-0.1,0-0.2,0.1-0.3,0.1c-0.1,0.1-0.2,0.1-0.3,0.2c-0.5,0.3-0.9,0.5-1.4,0.8c0,0-0.1,0-0.1,0.1
				c-0.5,0.3-1,0.6-1.5,1c-0.1,0.1-0.2,0.2-0.3,0.2c-0.5,0.4-1,0.7-1.4,1.1c-0.1,0-0.1,0.1-0.2,0.1c-0.4,0.4-0.9,0.7-1.3,1.1
				c-0.1,0.1-0.2,0.2-0.3,0.3c-0.5,0.4-0.9,0.9-1.3,1.3c-0.1,0.1-0.2,0.2-0.3,0.3c-0.4,0.4-0.8,0.9-1.2,1.3
				c-0.1,0.1-0.1,0.2-0.2,0.2c-0.4,0.5-0.8,1-1.3,1.5c-0.1,0.1-0.2,0.2-0.3,0.4c-0.4,0.5-0.8,1.1-1.2,1.6c0,0,0,0,0,0
				c-0.4,0.6-0.8,1.2-1.2,1.8c-0.1,0.1-0.2,0.3-0.3,0.4c-0.4,0.6-0.7,1.1-1,1.7c0,0,0,0.1,0,0.1c-0.5,0.8-0.9,1.7-1.4,2.5
				c-0.1,0.2-0.2,0.5-0.3,0.7c-0.3,0.7-0.6,1.3-0.9,2c-0.1,0.1-0.1,0.3-0.2,0.4c-0.2,0.4-0.4,0.9-0.5,1.3c-0.4,1-0.7,1.9-1.1,2.9
				c-0.1,0.2-0.1,0.3-0.2,0.5c0,0.1-0.1,0.2-0.1,0.4c-0.3,0.8-0.5,1.7-0.8,2.5c-0.1,0.2-0.1,0.4-0.2,0.6c-0.1,0.5-0.3,1-0.4,1.5
				c-0.1,0.3-0.1,0.6-0.2,0.8c-0.1,0.3-0.1,0.5-0.2,0.8c-0.2,0.9-0.4,1.8-0.5,2.7c0,0.1,0,0.1,0,0.2c0,0,0,0,0,0
				c-0.2,1-0.3,1.9-0.4,2.9c0,0.3-0.1,0.5-0.1,0.8c0,0.3-0.1,0.7-0.1,1c0,0.4,0,0.7-0.1,1.1c0,0.3,0,0.7-0.1,1
				c0,0.8-0.1,1.6-0.1,2.3c0,0.2,0,0.4,0,0.6c0,0,0,0.1,0,0.1c0,0.6,0,1.2,0.1,1.8c0,0.4,0,0.8,0,1.2c0,0.7,0.1,1.4,0.2,2.2
				c0,0.3,0,0.6,0.1,0.9c0,0,0,0,0,0c0.1,1,0.2,1.9,0.4,2.8c0,0.3,0.1,0.6,0.2,0.9c0.1,0.6,0.2,1.3,0.4,1.9c0.1,0.3,0.2,0.7,0.3,1
				c0.1,0.6,0.3,1.1,0.5,1.7c0.1,0.4,0.2,0.7,0.3,1c0.2,0.5,0.4,1,0.5,1.5c0.1,0.3,0.3,0.7,0.4,1c0.2,0.5,0.4,1,0.7,1.5
				c0.1,0.3,0.3,0.6,0.4,0.9c0.3,0.5,0.5,1,0.8,1.5c0.1,0.2,0.3,0.5,0.4,0.7c0.4,0.7,0.9,1.4,1.4,2.1c0.4,0.6,0.9,1.2,1.3,1.7
				c1.4,1.6,2.9,3,4.5,4.1c1.1,0.7,2.2,1.3,3.3,1.8c1.1,0.5,2.3,0.9,3.5,1.1l20.7,4.5c-4.8-1-9.2-4-12.6-8.8
				c-0.5-0.7-0.9-1.4-1.4-2.1c-0.1-0.2-0.3-0.5-0.4-0.7c-0.3-0.5-0.6-1-0.8-1.5c-0.1-0.3-0.3-0.6-0.4-0.9c-0.2-0.5-0.4-1-0.7-1.5
				c-0.1-0.3-0.3-0.7-0.4-1c-0.2-0.5-0.4-1-0.5-1.5c-0.1-0.3-0.2-0.7-0.3-1c-0.2-0.5-0.3-1.1-0.5-1.7c-0.1-0.3-0.2-0.7-0.3-1
				c-0.1-0.6-0.3-1.3-0.4-1.9c-0.1-0.3-0.1-0.6-0.2-0.9c-0.2-0.9-0.3-1.9-0.4-2.8c0-0.3,0-0.6-0.1-0.9c-0.1-0.7-0.1-1.4-0.2-2.2
				c0-0.4,0-0.8,0-1.2c0-0.6,0-1.3,0-1.9c0-0.2,0-0.4,0-0.6c0-0.8,0-1.6,0.1-2.4c0-0.3,0-0.7,0.1-1c0-0.7,0.1-1.4,0.2-2.1
				c0-0.3,0.1-0.5,0.1-0.8c0.1-1,0.2-1.9,0.4-2.9c0-0.1,0-0.1,0-0.2c0.2-0.9,0.3-1.8,0.5-2.7c0.1-0.3,0.1-0.5,0.2-0.8
				c0.2-0.8,0.4-1.6,0.6-2.4c0.1-0.2,0.1-0.4,0.2-0.6c0.3-1,0.6-1.9,0.9-2.9c0.1-0.2,0.1-0.3,0.2-0.5c0.3-1,0.7-1.9,1.1-2.9
				c0,0,0,0,0,0c0,0,0,0,0,0c0.2-0.6,0.5-1.2,0.7-1.7c0.3-0.7,0.6-1.3,0.9-2c0.1-0.2,0.2-0.5,0.3-0.7c0.4-0.9,0.9-1.7,1.4-2.5
				c0.4-0.6,0.7-1.2,1.1-1.8c0.1-0.1,0.2-0.3,0.3-0.4c0.4-0.6,0.8-1.2,1.2-1.8c0,0,0,0,0,0c0.4-0.6,0.8-1.1,1.2-1.6
				c0.1-0.1,0.2-0.2,0.3-0.4c0.4-0.5,0.8-1,1.3-1.5c0.1-0.1,0.1-0.2,0.2-0.2c0.4-0.4,0.8-0.9,1.2-1.3c0.1-0.1,0.2-0.2,0.3-0.3
				c0.4-0.5,0.9-0.9,1.3-1.3c0.1-0.1,0.2-0.2,0.3-0.3c0.4-0.4,0.9-0.8,1.3-1.1c0.1,0,0.1-0.1,0.2-0.1c0.5-0.4,1-0.8,1.4-1.1
				c0.1-0.1,0.2-0.2,0.3-0.2c0.5-0.3,1-0.7,1.5-1c0,0,0.1,0,0.1-0.1c0.5-0.3,0.9-0.6,1.4-0.8c0.1-0.1,0.2-0.1,0.3-0.2
				c0.5-0.3,1-0.5,1.5-0.7c0.1,0,0.2-0.1,0.3-0.1c0.4-0.2,0.9-0.4,1.3-0.5c0.1,0,0.2-0.1,0.3-0.1c0.5-0.2,1.1-0.4,1.6-0.5l0,0
				c0.5-0.1,1-0.2,1.5-0.3C151.3,35.9,151.4,35.9,151.5,35.9z"/>
		</g>
	</g>
	<g>
		<polygon id="XMLID_10_" class="st10" points="88.6,89.7 80,84.8 75.8,87.3 75.7,87.3 75.6,87.3 75.5,87.3 75.5,87.3 84,92.2 
			84,92.3 84.1,92.3 84.2,92.2 84.3,92.2 		"/>
		<polygon id="XMLID_9_" class="st11" points="67.7,91.4 67.7,91.5 67.7,91.6 67.7,91.7 67.6,91.8 67.5,92 67.4,92.1 67.4,92.1 
			67.3,92.2 75.8,97.1 75.9,97.1 76,97 76,96.9 76.1,96.8 76.2,96.6 76.2,96.5 76.2,96.4 76.3,96.3 76.3,83.2 76.3,82.9 76.3,82.7 
			76.3,82.4 76.4,82.2 76.5,82 76.6,81.7 76.7,81.5 76.8,81.2 68.3,76.3 68.2,76.6 68.1,76.8 68,77 67.9,77.3 67.8,77.5 67.8,77.8 
			67.8,78 67.7,78.2 		"/>
		<polygon id="XMLID_8_" class="st10" points="75.8,97.1 67.3,92.2 63,94.7 71.5,99.6 		"/>
		<polygon id="XMLID_7_" class="st10" points="83.3,77.5 74.7,72.6 74.6,72.6 74.5,72.5 74.3,72.5 74.1,72.5 73.9,72.5 73.8,72.6 
			73.6,72.6 73.4,72.8 69.7,74.9 69.5,75 69.3,75.2 69.1,75.3 68.9,75.5 68.8,75.7 68.6,75.9 68.4,76.1 68.3,76.3 68.3,76.3 
			76.8,81.2 76.8,81.2 77,81 77.1,80.8 77.3,80.6 77.4,80.4 77.6,80.2 77.8,80.1 78,79.9 78.2,79.8 81.9,77.7 82.1,77.6 82.3,77.5 
			82.5,77.4 82.6,77.4 82.8,77.4 83,77.4 83.1,77.5 		"/>
		<polygon id="XMLID_6_" class="st11" points="71.5,99.6 63,94.7 71.5,104.4 80,109.3 		"/>
		<path id="XMLID_5_" class="st12" d="M76.3,83.2v13.1c0,0.3-0.2,0.7-0.5,0.8l-4.3,2.5l8.5,9.7l8.5-19.5l-4.2,2.5
			c-0.3,0.2-0.5,0-0.5-0.3V78.8c0-0.6-0.2-1-0.6-1.3c-0.4-0.2-0.8-0.2-1.4,0.1l-3.7,2.1c-0.5,0.3-1,0.8-1.4,1.4l0,0
			C76.5,81.9,76.3,82.5,76.3,83.2z"/>
	</g>
	<g>
		<polygon id="XMLID_4_" class="st13" points="204.7,49.3 196.2,44.4 196.2,57.5 196.2,57.8 196.2,58 196.3,58.2 196.3,58.3 
			196.4,58.5 196.5,58.6 196.6,58.7 205.1,63.6 205,63.5 204.9,63.4 204.9,63.2 204.8,63.1 204.7,62.9 204.7,62.7 204.7,62.5 		"/>
		<polygon id="XMLID_3_" class="st13" points="204.6,49 196,44.1 196.1,44.1 196.2,44.2 196.2,44.3 196.2,44.4 204.7,49.3 
			204.7,49.2 204.7,49.1 204.6,49.1 		"/>
		<polygon id="XMLID_2_" class="st14" points="208.5,32 200,27.1 191.4,46.6 200,51.5 		"/>
		<path id="XMLID_1_" class="st15" d="M204.7,49.3v13.1c0,0.6,0.2,1,0.6,1.2c0.4,0.2,0.8,0.2,1.4-0.1l3.7-2.1c0.5-0.3,1-0.8,1.4-1.4
			v0c0.4-0.6,0.6-1.3,0.6-1.9V45c0-0.3,0.2-0.7,0.5-0.8l4.2-2.4l-8.5-9.7L200,51.5l4.3-2.5C204.5,48.9,204.7,49,204.7,49.3z"/>
	</g>
</g>
</svg>
