<?xml version="1.0" encoding="utf-8"?>
<!-- Generator: Adobe Illustrator 19.0.0, SVG Export Plug-In . SVG Version: 6.00 Build 0)  -->
<svg version="1.0" id="图层_1" xmlns="http://www.w3.org/2000/svg" xmlns:xlink="http://www.w3.org/1999/xlink" x="0px" y="0px"
	 viewBox="0 0 760 268" style="enable-background:new 0 0 760 268;" xml:space="preserve">
<style type="text/css">
	.st0{fill:#073B4C;}
	.st1{fill:#997817;}
	.st2{fill:#E0B153;}
	.st3{fill:#FFFFFF;}
	.st4{opacity:0.7;}
	.st5{fill:#808080;}
</style>
<g id="XMLID_1246_">
	<polygon id="XMLID_1247_" class="st0" points="252.9,44.9 256.6,41.1 256.6,72.4 257.1,72.4 257.1,41.1 260.9,44.9 261.2,44.5 
		256.9,40 252.5,44.5 	"/>
</g>
<g id="XMLID_1240_">
	<g id="XMLID_1241_">
		<path id="XMLID_1242_" class="st1" d="M189,84.1h135.8c1.5,0,2.7,1.1,2.7,2.5v49.3c0,1.4-1.2,2.5-2.7,2.5H189
			c-1.5,0-2.7-1.1-2.7-2.5V86.6C186.2,85.2,187.5,84.1,189,84.1z"/>
	</g>
</g>
<g id="XMLID_1234_">
	<g id="XMLID_1235_">
		<path id="XMLID_1236_" class="st1" d="M621.5,84.1h135.8c1.5,0,2.7,1.1,2.7,2.5v49.3c0,1.4-1.2,2.5-2.7,2.5H621.5
			c-1.5,0-2.7-1.1-2.7-2.5V86.6C618.7,85.2,620,84.1,621.5,84.1z"/>
	</g>
</g>
<g id="XMLID_1231_">
	<g id="XMLID_1232_">
		<path id="XMLID_1233_" class="st2" d="M187.4,0h139c1.5,0,2.8,1.1,2.8,2.5v24.9c0,1.4-1.3,2.5-2.8,2.5h-139
			c-1.5,0-2.8-1.1-2.8-2.5V2.5C184.6,1.1,185.8,0,187.4,0z"/>
	</g>
</g>
<g id="XMLID_1_">
	<g id="XMLID_1243_">
		<g id="XMLID_1244_">
			<path id="XMLID_1245_" class="st1" d="M2.7,213.7h135.8c1.5,0,2.7,1.1,2.7,2.5v49.3c0,1.4-1.2,2.5-2.7,2.5H2.7
				c-1.5,0-2.7-1.1-2.7-2.5v-49.3C0,214.8,1.2,213.7,2.7,213.7z"/>
		</g>
	</g>
	<g id="XMLID_1217_">
		<path id="XMLID_1228_" class="st3" d="M52.7,246.6l-1.4-3.6h-4.6l-1.4,3.6h-1.3l4.5-11.5h1.1l4.5,11.5H52.7z M50.8,241.7l-1.3-3.5
			c-0.2-0.4-0.3-1-0.5-1.6c-0.1,0.5-0.3,1-0.5,1.6l-1.3,3.5H50.8z"/>
		<path id="XMLID_1226_" class="st3" d="M62,243.5c0,1-0.4,1.8-1.1,2.4s-1.7,0.8-3,0.8c-1.4,0-2.4-0.2-3.1-0.5v-1.3
			c0.5,0.2,1,0.4,1.5,0.5s1.1,0.2,1.6,0.2c0.9,0,1.6-0.2,2-0.5s0.7-0.8,0.7-1.4c0-0.4-0.1-0.7-0.2-1s-0.4-0.5-0.8-0.7
			s-0.9-0.5-1.7-0.7c-1.1-0.4-1.8-0.8-2.3-1.4s-0.7-1.2-0.7-2c0-0.9,0.3-1.6,1-2.1s1.5-0.8,2.6-0.8c1.1,0,2.2,0.2,3.1,0.6l-0.4,1.2
			c-0.9-0.4-1.9-0.6-2.8-0.6c-0.7,0-1.3,0.2-1.6,0.5s-0.6,0.7-0.6,1.3c0,0.4,0.1,0.7,0.2,1s0.4,0.5,0.7,0.7s0.9,0.4,1.6,0.7
			c1.2,0.4,2,0.9,2.5,1.4S62,242.7,62,243.5z"/>
		<path id="XMLID_1224_" class="st3" d="M70.8,243.5c0,1-0.4,1.8-1.1,2.4s-1.7,0.8-3,0.8c-1.4,0-2.4-0.2-3.1-0.5v-1.3
			c0.5,0.2,1,0.4,1.5,0.5s1.1,0.2,1.6,0.2c0.9,0,1.6-0.2,2-0.5s0.7-0.8,0.7-1.4c0-0.4-0.1-0.7-0.2-1s-0.4-0.5-0.8-0.7
			s-0.9-0.5-1.7-0.7c-1.1-0.4-1.8-0.8-2.3-1.4s-0.7-1.2-0.7-2c0-0.9,0.3-1.6,1-2.1s1.5-0.8,2.6-0.8c1.1,0,2.2,0.2,3.1,0.6l-0.4,1.2
			c-0.9-0.4-1.9-0.6-2.8-0.6c-0.7,0-1.3,0.2-1.6,0.5s-0.6,0.7-0.6,1.3c0,0.4,0.1,0.7,0.2,1s0.4,0.5,0.7,0.7s0.9,0.4,1.6,0.7
			c1.2,0.4,2,0.9,2.5,1.4S70.8,242.7,70.8,243.5z"/>
		<path id="XMLID_1222_" class="st3" d="M79.5,246.6h-6.4v-11.4h6.4v1.2h-5v3.7h4.7v1.2h-4.7v4.2h5V246.6z"/>
		<path id="XMLID_1220_" class="st3" d="M85.6,246.6h-1.3v-10.2h-3.6v-1.2h8.6v1.2h-3.6V246.6z"/>
		<path id="XMLID_1218_" class="st3" d="M97.4,243.5c0,1-0.4,1.8-1.1,2.4s-1.7,0.8-3,0.8c-1.4,0-2.4-0.2-3.1-0.5v-1.3
			c0.5,0.2,1,0.4,1.5,0.5s1.1,0.2,1.6,0.2c0.9,0,1.6-0.2,2-0.5s0.7-0.8,0.7-1.4c0-0.4-0.1-0.7-0.2-1s-0.4-0.5-0.8-0.7
			s-0.9-0.5-1.7-0.7c-1.1-0.4-1.8-0.8-2.3-1.4s-0.7-1.2-0.7-2c0-0.9,0.3-1.6,1-2.1s1.5-0.8,2.6-0.8c1.1,0,2.2,0.2,3.1,0.6l-0.4,1.2
			c-0.9-0.4-1.9-0.6-2.8-0.6c-0.7,0-1.3,0.2-1.6,0.5s-0.6,0.7-0.6,1.3c0,0.4,0.1,0.7,0.2,1s0.4,0.5,0.7,0.7s0.9,0.4,1.6,0.7
			c1.2,0.4,2,0.9,2.5,1.4S97.4,242.7,97.4,243.5z"/>
	</g>
</g>
<g id="XMLID_1108_" class="st4">
	<path id="XMLID_1214_" class="st5" d="M6.6,83.7l-1.1-2.7H2.1l-1.1,2.7h-1l3.4-8.6h0.8l3.4,8.6H6.6z M5.2,80l-1-2.7
		C4.1,77,4,76.6,3.8,76.1c-0.1,0.4-0.2,0.8-0.4,1.2l-1,2.7H5.2z"/>
	<path id="XMLID_1212_" class="st5" d="M12.8,81.9c0,0.6-0.2,1.1-0.7,1.4s-1.1,0.5-1.9,0.5c-0.9,0-1.5-0.1-2-0.4v-0.9
		c0.3,0.2,0.6,0.3,1,0.4s0.7,0.1,1,0.1c0.5,0,0.9-0.1,1.2-0.2s0.4-0.4,0.4-0.7c0-0.3-0.1-0.5-0.3-0.6s-0.6-0.4-1.3-0.6
		c-0.6-0.2-1-0.4-1.3-0.6s-0.4-0.4-0.6-0.6s-0.2-0.5-0.2-0.8c0-0.5,0.2-0.9,0.6-1.2s1-0.5,1.8-0.5c0.7,0,1.4,0.1,2,0.4l-0.3,0.8
		c-0.6-0.3-1.2-0.4-1.8-0.4c-0.5,0-0.8,0.1-1,0.2s-0.4,0.3-0.4,0.6c0,0.2,0,0.3,0.1,0.4s0.2,0.2,0.4,0.3s0.6,0.3,1.1,0.5
		c0.8,0.3,1.3,0.6,1.5,0.8S12.8,81.5,12.8,81.9z"/>
	<path id="XMLID_1210_" class="st5" d="M18.5,81.9c0,0.6-0.2,1.1-0.7,1.4s-1.1,0.5-1.9,0.5c-0.9,0-1.5-0.1-2-0.4v-0.9
		c0.3,0.2,0.6,0.3,1,0.4s0.7,0.1,1,0.1c0.5,0,0.9-0.1,1.2-0.2s0.4-0.4,0.4-0.7c0-0.3-0.1-0.5-0.3-0.6S16.6,81,16,80.7
		c-0.6-0.2-1-0.4-1.3-0.6s-0.4-0.4-0.6-0.6S14,79.1,14,78.8c0-0.5,0.2-0.9,0.6-1.2s1-0.5,1.8-0.5c0.7,0,1.4,0.1,2,0.4l-0.3,0.8
		c-0.6-0.3-1.2-0.4-1.8-0.4c-0.5,0-0.8,0.1-1,0.2s-0.4,0.3-0.4,0.6c0,0.2,0,0.3,0.1,0.4s0.2,0.2,0.4,0.3s0.6,0.3,1.1,0.5
		c0.8,0.3,1.3,0.6,1.5,0.8S18.5,81.5,18.5,81.9z"/>
	<path id="XMLID_1207_" class="st5" d="M22.8,83.8c-0.9,0-1.7-0.3-2.2-0.9s-0.8-1.4-0.8-2.4c0-1,0.3-1.9,0.8-2.5s1.2-0.9,2.1-0.9
		c0.8,0,1.4,0.3,1.9,0.8s0.7,1.2,0.7,2.1v0.6h-4.4c0,0.8,0.2,1.3,0.6,1.7s0.9,0.6,1.5,0.6c0.7,0,1.4-0.1,2.1-0.4v0.9
		c-0.3,0.1-0.7,0.3-1,0.3S23.3,83.8,22.8,83.8z M22.6,77.9c-0.5,0-0.9,0.2-1.2,0.5s-0.5,0.8-0.5,1.4h3.4c0-0.6-0.1-1.1-0.4-1.4
		S23.1,77.9,22.6,77.9z"/>
	<path id="XMLID_1205_" class="st5" d="M28.9,83c0.2,0,0.3,0,0.5,0s0.3-0.1,0.4-0.1v0.7c-0.1,0.1-0.3,0.1-0.5,0.1s-0.4,0-0.6,0
		c-1.2,0-1.9-0.7-1.9-2V78H26v-0.5l0.9-0.4l0.4-1.4h0.6v1.5h1.9V78h-1.9v3.8c0,0.4,0.1,0.7,0.3,0.9S28.6,83,28.9,83z"/>
	<path id="XMLID_1203_" class="st5" d="M35.2,81.9c0,0.6-0.2,1.1-0.7,1.4s-1.1,0.5-1.9,0.5c-0.9,0-1.5-0.1-2-0.4v-0.9
		c0.3,0.2,0.6,0.3,1,0.4s0.7,0.1,1,0.1c0.5,0,0.9-0.1,1.2-0.2s0.4-0.4,0.4-0.7c0-0.3-0.1-0.5-0.3-0.6s-0.6-0.4-1.3-0.6
		c-0.6-0.2-1-0.4-1.3-0.6s-0.4-0.4-0.6-0.6s-0.2-0.5-0.2-0.8c0-0.5,0.2-0.9,0.6-1.2s1-0.5,1.8-0.5c0.7,0,1.4,0.1,2,0.4l-0.3,0.8
		c-0.6-0.3-1.2-0.4-1.8-0.4c-0.5,0-0.8,0.1-1,0.2s-0.4,0.3-0.4,0.6c0,0.2,0,0.3,0.1,0.4s0.2,0.2,0.4,0.3s0.6,0.3,1.1,0.5
		c0.8,0.3,1.3,0.6,1.5,0.8S35.2,81.5,35.2,81.9z"/>
	<path id="XMLID_1199_" class="st5" d="M45.2,77.2v0.6L44,78c0.1,0.1,0.2,0.3,0.3,0.5s0.1,0.5,0.1,0.7c0,0.6-0.2,1.1-0.6,1.5
		s-1,0.6-1.8,0.6c-0.2,0-0.4,0-0.5,0c-0.4,0.2-0.6,0.5-0.6,0.8c0,0.2,0.1,0.3,0.2,0.4s0.4,0.1,0.7,0.1H43c0.7,0,1.2,0.1,1.6,0.4
		s0.6,0.7,0.6,1.3c0,0.7-0.3,1.3-0.9,1.6s-1.4,0.6-2.5,0.6c-0.8,0-1.5-0.2-1.9-0.5s-0.7-0.8-0.7-1.3c0-0.4,0.1-0.7,0.4-1
		s0.6-0.5,1.1-0.6c-0.2-0.1-0.3-0.2-0.4-0.3S40,82.5,40,82.3c0-0.2,0.1-0.4,0.2-0.6s0.3-0.3,0.6-0.5c-0.3-0.1-0.6-0.4-0.8-0.7
		s-0.3-0.7-0.3-1.1c0-0.7,0.2-1.2,0.6-1.6s1-0.6,1.8-0.6c0.3,0,0.6,0,0.9,0.1H45.2z M40.1,84.7c0,0.3,0.1,0.6,0.4,0.8
		s0.7,0.3,1.3,0.3c0.8,0,1.4-0.1,1.8-0.4s0.6-0.6,0.6-1c0-0.3-0.1-0.6-0.3-0.7s-0.6-0.2-1.2-0.2h-1.2c-0.4,0-0.8,0.1-1,0.3
		S40.1,84.3,40.1,84.7z M40.6,79.3c0,0.4,0.1,0.8,0.4,1s0.6,0.3,1.1,0.3c0.9,0,1.4-0.5,1.4-1.4c0-1-0.5-1.4-1.4-1.4
		c-0.5,0-0.8,0.1-1.1,0.4S40.6,78.8,40.6,79.3z"/>
	<path id="XMLID_1196_" class="st5" d="M49.2,83.8c-0.9,0-1.7-0.3-2.2-0.9s-0.8-1.4-0.8-2.4c0-1,0.3-1.9,0.8-2.5s1.2-0.9,2.1-0.9
		c0.8,0,1.4,0.3,1.9,0.8s0.7,1.2,0.7,2.1v0.6h-4.4c0,0.8,0.2,1.3,0.6,1.7s0.9,0.6,1.5,0.6c0.7,0,1.4-0.1,2.1-0.4v0.9
		c-0.3,0.1-0.7,0.3-1,0.3S49.7,83.8,49.2,83.8z M49,77.9c-0.5,0-0.9,0.2-1.2,0.5s-0.5,0.8-0.5,1.4h3.4c0-0.6-0.1-1.1-0.4-1.4
		S49.5,77.9,49,77.9z"/>
	<path id="XMLID_1194_" class="st5" d="M57.6,83.7v-4.2c0-0.5-0.1-0.9-0.4-1.2s-0.6-0.4-1.1-0.4c-0.7,0-1.2,0.2-1.5,0.5
		s-0.5,1-0.5,1.8v3.4h-1v-6.4H54l0.2,0.9h0c0.2-0.3,0.5-0.6,0.8-0.7s0.8-0.3,1.2-0.3c0.8,0,1.4,0.2,1.7,0.6s0.6,1,0.6,1.8v4.2H57.6z
		"/>
	<path id="XMLID_1191_" class="st5" d="M63.3,83.8c-0.9,0-1.7-0.3-2.2-0.9s-0.8-1.4-0.8-2.4c0-1,0.3-1.9,0.8-2.5s1.2-0.9,2.1-0.9
		c0.8,0,1.4,0.3,1.9,0.8s0.7,1.2,0.7,2.1v0.6h-4.4c0,0.8,0.2,1.3,0.6,1.7s0.9,0.6,1.5,0.6c0.7,0,1.4-0.1,2.1-0.4v0.9
		c-0.3,0.1-0.7,0.3-1,0.3S63.8,83.8,63.3,83.8z M63.1,77.9c-0.5,0-0.9,0.2-1.2,0.5s-0.5,0.8-0.5,1.4h3.4c0-0.6-0.1-1.1-0.4-1.4
		S63.6,77.9,63.1,77.9z"/>
	<path id="XMLID_1189_" class="st5" d="M70.3,77.1c0.3,0,0.5,0,0.8,0.1l-0.1,0.9C70.6,78,70.4,78,70.2,78c-0.5,0-1,0.2-1.3,0.6
		s-0.6,0.9-0.6,1.6v3.4h-1v-6.4h0.8l0.1,1.2h0c0.2-0.4,0.5-0.7,0.9-1S69.9,77.1,70.3,77.1z"/>
	<path id="XMLID_1186_" class="st5" d="M76.2,83.7L76,82.7h0c-0.3,0.4-0.6,0.7-1,0.8s-0.7,0.2-1.2,0.2c-0.6,0-1.1-0.2-1.5-0.5
		s-0.5-0.8-0.5-1.4c0-1.3,1-2,3.1-2l1.1,0v-0.4c0-0.5-0.1-0.9-0.3-1.1s-0.6-0.4-1-0.4c-0.5,0-1.1,0.2-1.8,0.5l-0.3-0.7
		c0.3-0.2,0.7-0.3,1-0.4s0.8-0.1,1.1-0.1c0.8,0,1.3,0.2,1.7,0.5s0.6,0.9,0.6,1.6v4.4H76.2z M74,83c0.6,0,1.1-0.2,1.4-0.5
		s0.5-0.8,0.5-1.4v-0.6l-1,0c-0.8,0-1.3,0.1-1.7,0.4s-0.5,0.5-0.5,1c0,0.4,0.1,0.6,0.3,0.8S73.6,83,74,83z"/>
	<path id="XMLID_1184_" class="st5" d="M81,83c0.2,0,0.3,0,0.5,0s0.3-0.1,0.4-0.1v0.7c-0.1,0.1-0.3,0.1-0.5,0.1s-0.4,0-0.6,0
		c-1.2,0-1.9-0.7-1.9-2V78h-0.9v-0.5l0.9-0.4l0.4-1.4H80v1.5h1.9V78H80v3.8c0,0.4,0.1,0.7,0.3,0.9S80.7,83,81,83z"/>
	<path id="XMLID_1181_" class="st5" d="M85.9,83.8c-0.9,0-1.7-0.3-2.2-0.9s-0.8-1.4-0.8-2.4c0-1,0.3-1.9,0.8-2.5s1.2-0.9,2.1-0.9
		c0.8,0,1.4,0.3,1.9,0.8s0.7,1.2,0.7,2.1v0.6h-4.4c0,0.8,0.2,1.3,0.6,1.7s0.9,0.6,1.5,0.6c0.7,0,1.4-0.1,2.1-0.4v0.9
		c-0.3,0.1-0.7,0.3-1,0.3S86.3,83.8,85.9,83.8z M85.6,77.9c-0.5,0-0.9,0.2-1.2,0.5s-0.5,0.8-0.5,1.4h3.4c0-0.6-0.1-1.1-0.4-1.4
		S86.1,77.9,85.6,77.9z"/>
	<path id="XMLID_1179_" class="st5" d="M95.6,83.8c-0.9,0-1.6-0.3-2.2-0.9s-0.8-1.4-0.8-2.4c0-1.1,0.3-1.9,0.8-2.5s1.3-0.9,2.2-0.9
		c0.3,0,0.6,0,0.9,0.1s0.6,0.1,0.7,0.2L97,78.3c-0.2-0.1-0.4-0.2-0.7-0.2S95.8,78,95.6,78c-1.3,0-2,0.8-2,2.5c0,0.8,0.2,1.4,0.5,1.8
		s0.8,0.6,1.4,0.6c0.5,0,1.1-0.1,1.6-0.3v0.9C96.8,83.7,96.2,83.8,95.6,83.8z"/>
	<path id="XMLID_1176_" class="st5" d="M102.7,83.7l-0.2-0.9h0c-0.3,0.4-0.6,0.7-1,0.8s-0.7,0.2-1.2,0.2c-0.6,0-1.1-0.2-1.5-0.5
		s-0.5-0.8-0.5-1.4c0-1.3,1-2,3.1-2l1.1,0v-0.4c0-0.5-0.1-0.9-0.3-1.1s-0.6-0.4-1-0.4c-0.5,0-1.1,0.2-1.8,0.5L99,77.7
		c0.3-0.2,0.7-0.3,1-0.4s0.8-0.1,1.1-0.1c0.8,0,1.3,0.2,1.7,0.5s0.6,0.9,0.6,1.6v4.4H102.7z M100.5,83c0.6,0,1.1-0.2,1.4-0.5
		s0.5-0.8,0.5-1.4v-0.6l-1,0c-0.8,0-1.3,0.1-1.7,0.4s-0.5,0.5-0.5,1c0,0.4,0.1,0.6,0.3,0.8S100.1,83,100.5,83z"/>
	<path id="XMLID_1174_" class="st5" d="M109.5,81.9c0,0.6-0.2,1.1-0.7,1.4s-1.1,0.5-1.9,0.5c-0.9,0-1.5-0.1-2-0.4v-0.9
		c0.3,0.2,0.6,0.3,1,0.4s0.7,0.1,1,0.1c0.5,0,0.9-0.1,1.2-0.2s0.4-0.4,0.4-0.7c0-0.3-0.1-0.5-0.3-0.6s-0.6-0.4-1.3-0.6
		c-0.6-0.2-1-0.4-1.3-0.6s-0.4-0.4-0.6-0.6s-0.2-0.5-0.2-0.8c0-0.5,0.2-0.9,0.6-1.2s1-0.5,1.8-0.5c0.7,0,1.4,0.1,2,0.4l-0.3,0.8
		c-0.6-0.3-1.2-0.4-1.8-0.4c-0.5,0-0.8,0.1-1,0.2s-0.4,0.3-0.4,0.6c0,0.2,0,0.3,0.1,0.4s0.2,0.2,0.4,0.3s0.6,0.3,1.1,0.5
		c0.8,0.3,1.3,0.6,1.5,0.8S109.5,81.5,109.5,81.9z"/>
	<path id="XMLID_1172_" class="st5" d="M115.5,83.7v-4.2c0-0.5-0.1-0.9-0.4-1.2s-0.6-0.4-1.1-0.4c-0.7,0-1.2,0.2-1.5,0.6
		s-0.5,1-0.5,1.8v3.4h-1v-9.1h1v2.8c0,0.3,0,0.6,0,0.8h0.1c0.2-0.3,0.5-0.6,0.8-0.7s0.8-0.3,1.2-0.3c0.8,0,1.4,0.2,1.8,0.6
		s0.6,1,0.6,1.8v4.2H115.5z"/>
	<path id="XMLID_1169_" class="st5" d="M124.5,78h-1.6v5.7h-1V78h-1.1v-0.4l1.1-0.4v-0.4c0-1.6,0.7-2.4,2.1-2.4
		c0.3,0,0.7,0.1,1.2,0.2l-0.3,0.8c-0.4-0.1-0.7-0.2-1-0.2c-0.4,0-0.6,0.1-0.8,0.4s-0.3,0.6-0.3,1.2v0.4h1.6V78z M126.6,83.7h-1v-9.1
		h1V83.7z"/>
	<path id="XMLID_1166_" class="st5" d="M134.2,80.4c0,1-0.3,1.9-0.8,2.5s-1.3,0.9-2.2,0.9c-0.6,0-1.1-0.1-1.5-0.4s-0.8-0.7-1-1.2
		s-0.4-1.1-0.4-1.8c0-1,0.3-1.9,0.8-2.4s1.3-0.9,2.2-0.9c0.9,0,1.6,0.3,2.1,0.9S134.2,79.4,134.2,80.4z M129.3,80.4
		c0,0.8,0.2,1.4,0.5,1.9s0.8,0.6,1.4,0.6s1.1-0.2,1.5-0.6s0.5-1.1,0.5-1.9c0-0.8-0.2-1.4-0.5-1.9s-0.8-0.6-1.5-0.6
		c-0.6,0-1.1,0.2-1.4,0.6S129.3,79.6,129.3,80.4z"/>
	<path id="XMLID_1164_" class="st5" d="M141.2,83.7l-1.2-3.8c-0.1-0.2-0.2-0.8-0.4-1.6h0c-0.2,0.7-0.3,1.2-0.4,1.6l-1.2,3.8h-1.1
		l-1.8-6.4h1c0.4,1.6,0.7,2.8,0.9,3.7s0.3,1.4,0.4,1.7h0c0-0.2,0.1-0.5,0.2-0.9s0.2-0.6,0.2-0.8l1.2-3.7h1.1l1.1,3.7
		c0.2,0.7,0.4,1.2,0.4,1.7h0c0-0.1,0.1-0.4,0.1-0.7s0.5-1.9,1.2-4.7h1l-1.8,6.4H141.2z"/>
	<path id="XMLID_1161_" class="st5" d="M4.4,101.7l-0.2-0.9h0c-0.3,0.4-0.6,0.7-1,0.8s-0.7,0.2-1.2,0.2c-0.6,0-1.1-0.2-1.5-0.5
		S0,100.5,0,99.9c0-1.3,1-2,3.1-2l1.1,0v-0.4c0-0.5-0.1-0.9-0.3-1.1c-0.2-0.2-0.6-0.4-1-0.4c-0.5,0-1.1,0.2-1.8,0.5l-0.3-0.7
		c0.3-0.2,0.7-0.3,1-0.4s0.8-0.1,1.1-0.1c0.8,0,1.3,0.2,1.7,0.5s0.6,0.9,0.6,1.6v4.4H4.4z M2.2,101c0.6,0,1.1-0.2,1.4-0.5
		s0.5-0.8,0.5-1.4v-0.6l-1,0c-0.8,0-1.3,0.1-1.7,0.4S1,99.4,1,99.9c0,0.4,0.1,0.6,0.3,0.8S1.8,101,2.2,101z"/>
	<path id="XMLID_1159_" class="st5" d="M11.5,101.7v-4.2c0-0.5-0.1-0.9-0.4-1.2s-0.6-0.4-1.1-0.4c-0.7,0-1.2,0.2-1.5,0.5
		s-0.5,1-0.5,1.8v3.4h-1v-6.4h0.8l0.2,0.9h0c0.2-0.3,0.5-0.6,0.8-0.7s0.8-0.3,1.2-0.3c0.8,0,1.4,0.2,1.7,0.6s0.6,1,0.6,1.8v4.2H11.5
		z"/>
	<path id="XMLID_1156_" class="st5" d="M18.9,100.8L18.9,100.8c-0.5,0.7-1.2,1-2.1,1c-0.8,0-1.5-0.3-2-0.9s-0.7-1.4-0.7-2.4
		s0.2-1.9,0.7-2.5s1.1-0.9,2-0.9c0.9,0,1.5,0.3,2,0.9h0.1l0-0.5l0-0.5v-2.6h1v9.1H19L18.9,100.8z M16.9,101c0.7,0,1.1-0.2,1.4-0.5
		s0.4-0.9,0.4-1.7v-0.2c0-0.9-0.2-1.6-0.5-1.9s-0.8-0.6-1.5-0.6c-0.6,0-1,0.2-1.3,0.7s-0.5,1.1-0.5,1.9c0,0.8,0.2,1.4,0.5,1.9
		S16.4,101,16.9,101z"/>
	<path id="XMLID_1153_" class="st5" d="M29.4,100.8L29.4,100.8c-0.5,0.7-1.2,1-2.1,1c-0.8,0-1.5-0.3-2-0.9s-0.7-1.4-0.7-2.4
		s0.2-1.9,0.7-2.5s1.1-0.9,2-0.9c0.9,0,1.5,0.3,2,0.9h0.1l0-0.5l0-0.5v-2.6h1v9.1h-0.8L29.4,100.8z M27.4,101c0.7,0,1.1-0.2,1.4-0.5
		s0.4-0.9,0.4-1.7v-0.2c0-0.9-0.2-1.6-0.5-1.9s-0.8-0.6-1.5-0.6c-0.6,0-1,0.2-1.3,0.7s-0.5,1.1-0.5,1.9c0,0.8,0.2,1.4,0.5,1.9
		S26.8,101,27.4,101z"/>
	<path id="XMLID_1150_" class="st5" d="M32.3,93.5c0-0.2,0.1-0.4,0.2-0.5s0.2-0.2,0.4-0.2c0.2,0,0.3,0.1,0.4,0.2s0.2,0.3,0.2,0.5
		s-0.1,0.4-0.2,0.5s-0.2,0.2-0.4,0.2c-0.2,0-0.3-0.1-0.4-0.2S32.3,93.7,32.3,93.5z M33.3,101.7h-1v-6.4h1V101.7z"/>
	<path id="XMLID_1148_" class="st5" d="M36.8,101.7l-2.4-6.4h1l1.4,3.8c0.3,0.9,0.5,1.5,0.6,1.7h0c0-0.2,0.2-0.6,0.4-1.3
		s0.7-2.1,1.5-4.3h1l-2.4,6.4H36.8z"/>
	<path id="XMLID_1145_" class="st5" d="M41.3,93.5c0-0.2,0.1-0.4,0.2-0.5s0.2-0.2,0.4-0.2c0.2,0,0.3,0.1,0.4,0.2s0.2,0.3,0.2,0.5
		s-0.1,0.4-0.2,0.5s-0.2,0.2-0.4,0.2c-0.2,0-0.3-0.1-0.4-0.2S41.3,93.7,41.3,93.5z M42.4,101.7h-1v-6.4h1V101.7z"/>
	<path id="XMLID_1142_" class="st5" d="M48.8,100.8L48.8,100.8c-0.5,0.7-1.2,1-2.1,1c-0.8,0-1.5-0.3-2-0.9s-0.7-1.4-0.7-2.4
		s0.2-1.9,0.7-2.5s1.1-0.9,2-0.9c0.9,0,1.5,0.3,2,0.9h0.1l0-0.5l0-0.5v-2.6h1v9.1h-0.8L48.8,100.8z M46.9,101c0.7,0,1.1-0.2,1.4-0.5
		s0.4-0.9,0.4-1.7v-0.2c0-0.9-0.2-1.6-0.5-1.9s-0.8-0.6-1.5-0.6c-0.6,0-1,0.2-1.3,0.7s-0.5,1.1-0.5,1.9c0,0.8,0.2,1.4,0.5,1.9
		S46.3,101,46.9,101z"/>
	<path id="XMLID_1139_" class="st5" d="M54.5,101.8c-0.9,0-1.7-0.3-2.2-0.9s-0.8-1.4-0.8-2.4c0-1,0.3-1.9,0.8-2.5s1.2-0.9,2.1-0.9
		c0.8,0,1.4,0.3,1.9,0.8s0.7,1.2,0.7,2.1v0.6h-4.4c0,0.8,0.2,1.3,0.6,1.7s0.9,0.6,1.5,0.6c0.7,0,1.4-0.1,2.1-0.4v0.9
		c-0.3,0.1-0.7,0.3-1,0.3S54.9,101.8,54.5,101.8z M54.2,95.9c-0.5,0-0.9,0.2-1.2,0.5s-0.5,0.8-0.5,1.4h3.4c0-0.6-0.1-1.1-0.4-1.4
		S54.7,95.9,54.2,95.9z"/>
	<path id="XMLID_1137_" class="st5" d="M62.9,101.7v-4.2c0-0.5-0.1-0.9-0.4-1.2s-0.6-0.4-1.1-0.4c-0.7,0-1.2,0.2-1.5,0.5
		s-0.5,1-0.5,1.8v3.4h-1v-6.4h0.8l0.2,0.9h0c0.2-0.3,0.5-0.6,0.8-0.7s0.8-0.3,1.2-0.3c0.8,0,1.4,0.2,1.7,0.6s0.6,1,0.6,1.8v4.2H62.9
		z"/>
	<path id="XMLID_1134_" class="st5" d="M70.2,100.8L70.2,100.8c-0.5,0.7-1.2,1-2.1,1c-0.8,0-1.5-0.3-2-0.9s-0.7-1.4-0.7-2.4
		s0.2-1.9,0.7-2.5s1.1-0.9,2-0.9c0.9,0,1.5,0.3,2,0.9h0.1l0-0.5l0-0.5v-2.6h1v9.1h-0.8L70.2,100.8z M68.3,101c0.7,0,1.1-0.2,1.4-0.5
		s0.4-0.9,0.4-1.7v-0.2c0-0.9-0.2-1.6-0.5-1.9s-0.8-0.6-1.5-0.6c-0.6,0-1,0.2-1.3,0.7s-0.5,1.1-0.5,1.9c0,0.8,0.2,1.4,0.5,1.9
		S67.7,101,68.3,101z"/>
	<path id="XMLID_1132_" class="st5" d="M77.4,99.9c0,0.6-0.2,1.1-0.7,1.4s-1.1,0.5-1.9,0.5c-0.9,0-1.5-0.1-2-0.4v-0.9
		c0.3,0.2,0.6,0.3,1,0.4s0.7,0.1,1,0.1c0.5,0,0.9-0.1,1.2-0.2s0.4-0.4,0.4-0.7c0-0.3-0.1-0.5-0.3-0.6s-0.6-0.4-1.3-0.6
		c-0.6-0.2-1-0.4-1.3-0.6s-0.4-0.4-0.6-0.6s-0.2-0.5-0.2-0.8c0-0.5,0.2-0.9,0.6-1.2s1-0.5,1.8-0.5c0.7,0,1.4,0.1,2,0.4l-0.3,0.8
		c-0.6-0.3-1.2-0.4-1.8-0.4c-0.5,0-0.8,0.1-1,0.2s-0.4,0.3-0.4,0.6c0,0.2,0,0.3,0.1,0.4s0.2,0.2,0.4,0.3s0.6,0.3,1.1,0.5
		c0.8,0.3,1.3,0.6,1.5,0.8S77.4,99.5,77.4,99.9z"/>
	<path id="XMLID_1130_" class="st5" d="M85,96h-1.6v5.7h-1V96h-1.1v-0.4l1.1-0.4v-0.4c0-1.6,0.7-2.4,2.1-2.4c0.3,0,0.7,0.1,1.2,0.2
		l-0.3,0.8c-0.4-0.1-0.7-0.2-1-0.2c-0.4,0-0.6,0.1-0.8,0.4s-0.3,0.6-0.3,1.2v0.4H85V96z"/>
	<path id="XMLID_1127_" class="st5" d="M91.7,98.4c0,1-0.3,1.9-0.8,2.5s-1.3,0.9-2.2,0.9c-0.6,0-1.1-0.1-1.5-0.4s-0.8-0.7-1-1.2
		s-0.4-1.1-0.4-1.8c0-1,0.3-1.9,0.8-2.4s1.3-0.9,2.2-0.9c0.9,0,1.6,0.3,2.1,0.9S91.7,97.4,91.7,98.4z M86.8,98.4
		c0,0.8,0.2,1.4,0.5,1.9s0.8,0.6,1.4,0.6s1.1-0.2,1.5-0.6s0.5-1.1,0.5-1.9c0-0.8-0.2-1.4-0.5-1.9s-0.8-0.6-1.5-0.6
		c-0.6,0-1.1,0.2-1.4,0.6S86.8,97.6,86.8,98.4z"/>
	<path id="XMLID_1125_" class="st5" d="M96.3,95.1c0.3,0,0.5,0,0.8,0.1l-0.1,0.9C96.7,96,96.4,96,96.2,96c-0.5,0-1,0.2-1.3,0.6
		s-0.6,0.9-0.6,1.6v3.4h-1v-6.4h0.8l0.1,1.2h0c0.2-0.4,0.5-0.7,0.9-1S95.9,95.1,96.3,95.1z"/>
	<path id="XMLID_1123_" class="st5" d="M103.5,101c0.2,0,0.3,0,0.5,0s0.3-0.1,0.4-0.1v0.7c-0.1,0.1-0.3,0.1-0.5,0.1s-0.4,0-0.6,0
		c-1.2,0-1.9-0.7-1.9-2V96h-0.9v-0.5l0.9-0.4l0.4-1.4h0.6v1.5h1.9V96h-1.9v3.8c0,0.4,0.1,0.7,0.3,0.9S103.2,101,103.5,101z"/>
	<path id="XMLID_1121_" class="st5" d="M110,101.7v-4.2c0-0.5-0.1-0.9-0.4-1.2s-0.6-0.4-1.1-0.4c-0.7,0-1.2,0.2-1.5,0.6
		s-0.5,1-0.5,1.8v3.4h-1v-9.1h1v2.8c0,0.3,0,0.6,0,0.8h0.1c0.2-0.3,0.5-0.6,0.8-0.7s0.8-0.3,1.2-0.3c0.8,0,1.4,0.2,1.8,0.6
		s0.6,1,0.6,1.8v4.2H110z"/>
	<path id="XMLID_1118_" class="st5" d="M115.7,101.8c-0.9,0-1.7-0.3-2.2-0.9s-0.8-1.4-0.8-2.4c0-1,0.3-1.9,0.8-2.5s1.2-0.9,2.1-0.9
		c0.8,0,1.4,0.3,1.9,0.8s0.7,1.2,0.7,2.1v0.6h-4.4c0,0.8,0.2,1.3,0.6,1.7s0.9,0.6,1.5,0.6c0.7,0,1.4-0.1,2.1-0.4v0.9
		c-0.3,0.1-0.7,0.3-1,0.3S116.2,101.8,115.7,101.8z M115.5,95.9c-0.5,0-0.9,0.2-1.2,0.5s-0.5,0.8-0.5,1.4h3.4c0-0.6-0.1-1.1-0.4-1.4
		S116,95.9,115.5,95.9z"/>
	<path id="XMLID_1116_" class="st5" d="M125.7,96h-1.6v5.7h-1V96H122v-0.4l1.1-0.4v-0.4c0-1.6,0.7-2.4,2.1-2.4
		c0.3,0,0.7,0.1,1.2,0.2l-0.3,0.8c-0.4-0.1-0.7-0.2-1-0.2c-0.4,0-0.6,0.1-0.8,0.4s-0.3,0.6-0.3,1.2v0.4h1.6V96z"/>
	<path id="XMLID_1114_" class="st5" d="M127.8,95.2v4.2c0,0.5,0.1,0.9,0.4,1.2s0.6,0.4,1.1,0.4c0.7,0,1.2-0.2,1.5-0.6s0.5-1,0.5-1.8
		v-3.4h1v6.4h-0.8l-0.1-0.9h-0.1c-0.2,0.3-0.5,0.6-0.8,0.7s-0.8,0.3-1.2,0.3c-0.8,0-1.4-0.2-1.8-0.6s-0.6-1-0.6-1.8v-4.2H127.8z"/>
	<path id="XMLID_1112_" class="st5" d="M138.7,101.7v-4.2c0-0.5-0.1-0.9-0.4-1.2s-0.6-0.4-1.1-0.4c-0.7,0-1.2,0.2-1.5,0.5
		s-0.5,1-0.5,1.8v3.4h-1v-6.4h0.8l0.2,0.9h0c0.2-0.3,0.5-0.6,0.8-0.7s0.8-0.3,1.2-0.3c0.8,0,1.4,0.2,1.7,0.6s0.6,1,0.6,1.8v4.2
		H138.7z"/>
	<path id="XMLID_1109_" class="st5" d="M146,100.8L146,100.8c-0.5,0.7-1.2,1-2.1,1c-0.8,0-1.5-0.3-2-0.9s-0.7-1.4-0.7-2.4
		s0.2-1.9,0.7-2.5s1.1-0.9,2-0.9c0.9,0,1.5,0.3,2,0.9h0.1l0-0.5l0-0.5v-2.6h1v9.1h-0.8L146,100.8z M144.1,101c0.7,0,1.1-0.2,1.4-0.5
		s0.4-0.9,0.4-1.7v-0.2c0-0.9-0.2-1.6-0.5-1.9s-0.8-0.6-1.5-0.6c-0.6,0-1,0.2-1.3,0.7s-0.5,1.1-0.5,1.9c0,0.8,0.2,1.4,0.5,1.9
		S143.5,101,144.1,101z"/>
</g>
<g id="XMLID_1008_" class="st4">
	<path id="XMLID_1106_" class="st5" d="M360.2,102.1h-1v-8.6h4.8v0.9h-3.8v3.1h3.6v0.9h-3.6V102.1z"/>
	<path id="XMLID_1104_" class="st5" d="M366.1,95.7v4.2c0,0.5,0.1,0.9,0.4,1.2s0.6,0.4,1.1,0.4c0.7,0,1.2-0.2,1.5-0.6s0.5-1,0.5-1.8
		v-3.4h1v6.4h-0.8l-0.1-0.9h-0.1c-0.2,0.3-0.5,0.6-0.8,0.7s-0.8,0.3-1.2,0.3c-0.8,0-1.4-0.2-1.8-0.6s-0.6-1-0.6-1.8v-4.2H366.1z"/>
	<path id="XMLID_1102_" class="st5" d="M377,102.1V98c0-0.5-0.1-0.9-0.4-1.2s-0.6-0.4-1.1-0.4c-0.7,0-1.2,0.2-1.5,0.5
		s-0.5,1-0.5,1.8v3.4h-1v-6.4h0.8l0.2,0.9h0c0.2-0.3,0.5-0.6,0.8-0.7s0.8-0.3,1.2-0.3c0.8,0,1.4,0.2,1.7,0.6s0.6,1,0.6,1.8v4.2H377z
		"/>
	<path id="XMLID_1099_" class="st5" d="M384.3,101.3L384.3,101.3c-0.5,0.7-1.2,1-2.1,1c-0.8,0-1.5-0.3-2-0.9s-0.7-1.4-0.7-2.4
		s0.2-1.9,0.7-2.5s1.1-0.9,2-0.9c0.9,0,1.5,0.3,2,0.9h0.1l0-0.5l0-0.5V93h1v9.1h-0.8L384.3,101.3z M382.4,101.4
		c0.7,0,1.1-0.2,1.4-0.5s0.4-0.9,0.4-1.7v-0.2c0-0.9-0.2-1.6-0.5-1.9s-0.8-0.6-1.5-0.6c-0.6,0-1,0.2-1.3,0.7s-0.5,1.1-0.5,1.9
		c0,0.8,0.2,1.4,0.5,1.9S381.8,101.4,382.4,101.4z"/>
	<path id="XMLID_1096_" class="st5" d="M393.4,102.2c-0.4,0-0.8-0.1-1.1-0.2s-0.6-0.4-0.9-0.7h-0.1c0,0.4,0.1,0.7,0.1,1.1v2.6h-1
		v-9.3h0.8l0.1,0.9h0c0.3-0.4,0.5-0.6,0.9-0.8s0.7-0.2,1.1-0.2c0.9,0,1.5,0.3,2,0.9s0.7,1.4,0.7,2.4c0,1.1-0.2,1.9-0.7,2.5
		S394.3,102.2,393.4,102.2z M393.3,96.4c-0.7,0-1.1,0.2-1.4,0.5s-0.4,0.9-0.5,1.7v0.2c0,0.9,0.2,1.5,0.5,1.9s0.8,0.6,1.4,0.6
		c0.6,0,1-0.2,1.3-0.7s0.5-1.1,0.5-1.9c0-0.8-0.2-1.4-0.5-1.8S393.9,96.4,393.3,96.4z"/>
	<path id="XMLID_1093_" class="st5" d="M401.7,102.1l-0.2-0.9h0c-0.3,0.4-0.6,0.7-1,0.8s-0.7,0.2-1.2,0.2c-0.6,0-1.1-0.2-1.5-0.5
		s-0.5-0.8-0.5-1.4c0-1.3,1-2,3.1-2l1.1,0v-0.4c0-0.5-0.1-0.9-0.3-1.1s-0.6-0.4-1-0.4c-0.5,0-1.1,0.2-1.8,0.5l-0.3-0.7
		c0.3-0.2,0.7-0.3,1-0.4s0.8-0.1,1.1-0.1c0.8,0,1.3,0.2,1.7,0.5s0.6,0.9,0.6,1.6v4.4H401.7z M399.5,101.4c0.6,0,1.1-0.2,1.4-0.5
		s0.5-0.8,0.5-1.4V99l-1,0c-0.8,0-1.3,0.1-1.7,0.4s-0.5,0.5-0.5,1c0,0.4,0.1,0.6,0.3,0.8S399.2,101.4,399.5,101.4z"/>
	<path id="XMLID_1091_" class="st5" d="M403.4,95.7h1l1.4,3.7c0.3,0.8,0.5,1.4,0.6,1.8h0c0.1-0.2,0.2-0.5,0.3-1s0.7-2,1.6-4.5h1
		l-2.8,7.3c-0.3,0.7-0.6,1.2-1,1.5s-0.8,0.5-1.3,0.5c-0.3,0-0.6,0-0.9-0.1v-0.8c0.2,0,0.5,0.1,0.7,0.1c0.7,0,1.1-0.4,1.4-1.1
		l0.4-0.9L403.4,95.7z"/>
	<path id="XMLID_1089_" class="st5" d="M414.7,100.4c0,0.6-0.2,1.1-0.7,1.4s-1.1,0.5-1.9,0.5c-0.9,0-1.5-0.1-2-0.4v-0.9
		c0.3,0.2,0.6,0.3,1,0.4s0.7,0.1,1,0.1c0.5,0,0.9-0.1,1.2-0.2s0.4-0.4,0.4-0.7c0-0.3-0.1-0.5-0.3-0.6s-0.6-0.4-1.3-0.6
		c-0.6-0.2-1-0.4-1.3-0.6s-0.4-0.4-0.6-0.6s-0.2-0.5-0.2-0.8c0-0.5,0.2-0.9,0.6-1.2s1-0.5,1.8-0.5c0.7,0,1.4,0.1,2,0.4l-0.3,0.8
		c-0.6-0.3-1.2-0.4-1.8-0.4c-0.5,0-0.8,0.1-1,0.2S411,97,411,97.2c0,0.2,0,0.3,0.1,0.4s0.2,0.2,0.4,0.3s0.6,0.3,1.1,0.5
		c0.8,0.3,1.3,0.6,1.5,0.8S414.7,100,414.7,100.4z"/>
	<path id="XMLID_1086_" class="st5" d="M423.7,101.3L423.7,101.3c-0.5,0.7-1.2,1-2.1,1c-0.8,0-1.5-0.3-2-0.9s-0.7-1.4-0.7-2.4
		s0.2-1.9,0.7-2.5s1.1-0.9,2-0.9c0.9,0,1.5,0.3,2,0.9h0.1l0-0.5l0-0.5V93h1v9.1h-0.8L423.7,101.3z M421.8,101.4
		c0.7,0,1.1-0.2,1.4-0.5s0.4-0.9,0.4-1.7v-0.2c0-0.9-0.2-1.6-0.5-1.9s-0.8-0.6-1.5-0.6c-0.6,0-1,0.2-1.3,0.7s-0.5,1.1-0.5,1.9
		c0,0.8,0.2,1.4,0.5,1.9S421.2,101.4,421.8,101.4z"/>
	<path id="XMLID_1083_" class="st5" d="M426.6,94c0-0.2,0.1-0.4,0.2-0.5s0.2-0.2,0.4-0.2c0.2,0,0.3,0.1,0.4,0.2s0.2,0.3,0.2,0.5
		s-0.1,0.4-0.2,0.5s-0.2,0.2-0.4,0.2c-0.2,0-0.3-0.1-0.4-0.2S426.6,94.2,426.6,94z M427.7,102.1h-1v-6.4h1V102.1z"/>
	<path id="XMLID_1081_" class="st5" d="M431.1,102.1l-2.4-6.4h1l1.4,3.8c0.3,0.9,0.5,1.5,0.6,1.7h0c0-0.2,0.2-0.6,0.4-1.3
		s0.7-2.1,1.5-4.3h1l-2.4,6.4H431.1z"/>
	<path id="XMLID_1078_" class="st5" d="M435.7,94c0-0.2,0.1-0.4,0.2-0.5s0.2-0.2,0.4-0.2c0.2,0,0.3,0.1,0.4,0.2s0.2,0.3,0.2,0.5
		s-0.1,0.4-0.2,0.5s-0.2,0.2-0.4,0.2c-0.2,0-0.3-0.1-0.4-0.2S435.7,94.2,435.7,94z M436.7,102.1h-1v-6.4h1V102.1z"/>
	<path id="XMLID_1075_" class="st5" d="M443.2,101.3L443.2,101.3c-0.5,0.7-1.2,1-2.1,1c-0.8,0-1.5-0.3-2-0.9s-0.7-1.4-0.7-2.4
		s0.2-1.9,0.7-2.5s1.1-0.9,2-0.9c0.9,0,1.5,0.3,2,0.9h0.1l0-0.5l0-0.5V93h1v9.1h-0.8L443.2,101.3z M441.2,101.4
		c0.7,0,1.1-0.2,1.4-0.5s0.4-0.9,0.4-1.7v-0.2c0-0.9-0.2-1.6-0.5-1.9s-0.8-0.6-1.5-0.6c-0.6,0-1,0.2-1.3,0.7s-0.5,1.1-0.5,1.9
		c0,0.8,0.2,1.4,0.5,1.9S440.6,101.4,441.2,101.4z"/>
	<path id="XMLID_1072_" class="st5" d="M448.9,102.2c-0.9,0-1.7-0.3-2.2-0.9s-0.8-1.4-0.8-2.4c0-1,0.3-1.9,0.8-2.5s1.2-0.9,2.1-0.9
		c0.8,0,1.4,0.3,1.9,0.8s0.7,1.2,0.7,2.1v0.6h-4.4c0,0.8,0.2,1.3,0.6,1.7s0.9,0.6,1.5,0.6c0.7,0,1.4-0.1,2.1-0.4v0.9
		c-0.3,0.1-0.7,0.3-1,0.3S449.3,102.2,448.9,102.2z M448.6,96.4c-0.5,0-0.9,0.2-1.2,0.5s-0.5,0.8-0.5,1.4h3.4c0-0.6-0.1-1.1-0.4-1.4
		S449.1,96.4,448.6,96.4z"/>
	<path id="XMLID_1070_" class="st5" d="M457.3,102.1V98c0-0.5-0.1-0.9-0.4-1.2s-0.6-0.4-1.1-0.4c-0.7,0-1.2,0.2-1.5,0.5
		s-0.5,1-0.5,1.8v3.4h-1v-6.4h0.8l0.2,0.9h0c0.2-0.3,0.5-0.6,0.8-0.7s0.8-0.3,1.2-0.3c0.8,0,1.4,0.2,1.7,0.6s0.6,1,0.6,1.8v4.2
		H457.3z"/>
	<path id="XMLID_1067_" class="st5" d="M464.6,101.3L464.6,101.3c-0.5,0.7-1.2,1-2.1,1c-0.8,0-1.5-0.3-2-0.9s-0.7-1.4-0.7-2.4
		s0.2-1.9,0.7-2.5s1.1-0.9,2-0.9c0.9,0,1.5,0.3,2,0.9h0.1l0-0.5l0-0.5V93h1v9.1h-0.8L464.6,101.3z M462.7,101.4
		c0.7,0,1.1-0.2,1.4-0.5s0.4-0.9,0.4-1.7v-0.2c0-0.9-0.2-1.6-0.5-1.9s-0.8-0.6-1.5-0.6c-0.6,0-1,0.2-1.3,0.7s-0.5,1.1-0.5,1.9
		c0,0.8,0.2,1.4,0.5,1.9S462.1,101.4,462.7,101.4z"/>
	<path id="XMLID_1065_" class="st5" d="M471.7,100.4c0,0.6-0.2,1.1-0.7,1.4s-1.1,0.5-1.9,0.5c-0.9,0-1.5-0.1-2-0.4v-0.9
		c0.3,0.2,0.6,0.3,1,0.4s0.7,0.1,1,0.1c0.5,0,0.9-0.1,1.2-0.2s0.4-0.4,0.4-0.7c0-0.3-0.1-0.5-0.3-0.6s-0.6-0.4-1.3-0.6
		c-0.6-0.2-1-0.4-1.3-0.6s-0.4-0.4-0.6-0.6s-0.2-0.5-0.2-0.8c0-0.5,0.2-0.9,0.6-1.2s1-0.5,1.8-0.5c0.7,0,1.4,0.1,2,0.4l-0.3,0.8
		c-0.6-0.3-1.2-0.4-1.8-0.4c-0.5,0-0.8,0.1-1,0.2s-0.4,0.3-0.4,0.6c0,0.2,0,0.3,0.1,0.4s0.2,0.2,0.4,0.3s0.6,0.3,1.1,0.5
		c0.8,0.3,1.3,0.6,1.5,0.8S471.7,100,471.7,100.4z"/>
	<path id="XMLID_1063_" class="st5" d="M478.5,101.4c0.2,0,0.3,0,0.5,0s0.3-0.1,0.4-0.1v0.7c-0.1,0.1-0.3,0.1-0.5,0.1s-0.4,0-0.6,0
		c-1.2,0-1.9-0.7-1.9-2v-3.8h-0.9V96l0.9-0.4l0.4-1.4h0.6v1.5h1.9v0.8h-1.9v3.8c0,0.4,0.1,0.7,0.3,0.9S478.2,101.4,478.5,101.4z"/>
	<path id="XMLID_1060_" class="st5" d="M486.2,98.9c0,1-0.3,1.9-0.8,2.5s-1.3,0.9-2.2,0.9c-0.6,0-1.1-0.1-1.5-0.4s-0.8-0.7-1-1.2
		s-0.4-1.1-0.4-1.8c0-1,0.3-1.9,0.8-2.4s1.3-0.9,2.2-0.9c0.9,0,1.6,0.3,2.1,0.9S486.2,97.9,486.2,98.9z M481.3,98.9
		c0,0.8,0.2,1.4,0.5,1.9s0.8,0.6,1.4,0.6s1.1-0.2,1.5-0.6s0.5-1.1,0.5-1.9c0-0.8-0.2-1.4-0.5-1.9s-0.8-0.6-1.5-0.6
		c-0.6,0-1.1,0.2-1.4,0.6S481.3,98.1,481.3,98.9z"/>
	<path id="XMLID_1057_" class="st5" d="M360.4,115.8c0,1.1-0.2,2-0.7,2.7s-1.1,1.2-1.9,1.5l2,2.1h-1.4l-1.7-1.9l-0.3,0
		c-1.3,0-2.2-0.4-2.9-1.2s-1-1.9-1-3.3c0-1.4,0.3-2.5,1-3.2s1.7-1.2,2.9-1.2c1.2,0,2.2,0.4,2.9,1.2S360.4,114.5,360.4,115.8z
		 M353.5,115.8c0,1.2,0.2,2,0.7,2.6s1.2,0.9,2.2,0.9c0.9,0,1.7-0.3,2.2-0.9s0.7-1.5,0.7-2.6c0-1.2-0.2-2-0.7-2.6s-1.2-0.9-2.1-0.9
		c-0.9,0-1.7,0.3-2.2,0.9S353.5,114.7,353.5,115.8z"/>
	<path id="XMLID_1055_" class="st5" d="M362,119.5c0-0.3,0.1-0.5,0.2-0.6s0.3-0.2,0.5-0.2c0.2,0,0.4,0.1,0.5,0.2s0.2,0.3,0.2,0.6
		c0,0.3-0.1,0.4-0.2,0.6s-0.3,0.2-0.5,0.2c-0.2,0-0.4-0.1-0.5-0.2S362,119.8,362,119.5z"/>
	<path id="XMLID_1052_" class="st5" d="M374,120.1l-1.1-2.7h-3.4l-1.1,2.7h-1l3.4-8.6h0.8l3.4,8.6H374z M372.6,116.5l-1-2.7
		c-0.1-0.3-0.3-0.7-0.4-1.2c-0.1,0.4-0.2,0.8-0.4,1.2l-1,2.7H372.6z"/>
	<path id="XMLID_1049_" class="st5" d="M377.2,116.6v3.6h-1v-8.6h2.3c1.1,0,1.8,0.2,2.3,0.6s0.8,1,0.8,1.8c0,1.1-0.6,1.9-1.7,2.3
		l2.3,3.8H381l-2.1-3.6H377.2z M377.2,115.7h1.4c0.7,0,1.2-0.1,1.5-0.4s0.5-0.7,0.5-1.3c0-0.6-0.2-1-0.5-1.2s-0.9-0.4-1.6-0.4h-1.3
		V115.7z"/>
	<path id="XMLID_1045_" class="st5" d="M386.2,120.1h-1v-7.7h-2.7v-0.9h6.4v0.9h-2.7V120.1z"/>
	<path id="XMLID_1043_" class="st5" d="M396.7,120.1h-1v-4h-4.5v4h-1v-8.6h1v3.6h4.5v-3.6h1V120.1z"/>
	<path id="XMLID_1041_" class="st5" d="M405.6,111.6v5.5c0,1-0.3,1.7-0.9,2.3s-1.4,0.8-2.4,0.8s-1.8-0.3-2.4-0.8s-0.8-1.3-0.8-2.3
		v-5.5h1v5.6c0,0.7,0.2,1.3,0.6,1.6s1,0.6,1.7,0.6c0.7,0,1.3-0.2,1.7-0.6s0.6-0.9,0.6-1.7v-5.6H405.6z"/>
	<path id="XMLID_1037_" class="st5" d="M408.8,116.6v3.6h-1v-8.6h2.3c1.1,0,1.8,0.2,2.3,0.6s0.8,1,0.8,1.8c0,1.1-0.6,1.9-1.7,2.3
		l2.3,3.8h-1.2l-2.1-3.6H408.8z M408.8,115.7h1.4c0.7,0,1.2-0.1,1.5-0.4s0.5-0.7,0.5-1.3c0-0.6-0.2-1-0.5-1.2s-0.9-0.4-1.6-0.4h-1.3
		V115.7z"/>
	<path id="XMLID_1035_" class="st5" d="M418.4,120.1v-8.6h1v7.7h3.8v0.9H418.4z"/>
	<path id="XMLID_1033_" class="st5" d="M427.2,120.1h-1v-7.7h-2.7v-0.9h6.4v0.9h-2.7V120.1z"/>
	<path id="XMLID_1030_" class="st5" d="M438.1,115.8c0,1.4-0.4,2.5-1.2,3.2s-1.9,1.1-3.3,1.1h-2.4v-8.6h2.6c1.3,0,2.4,0.4,3.1,1.1
		S438.1,114.4,438.1,115.8z M437,115.8c0-1.1-0.3-2-0.8-2.5s-1.4-0.8-2.5-0.8h-1.4v6.8h1.2c1.2,0,2.1-0.3,2.7-0.9
		S437,116.9,437,115.8z"/>
	<path id="XMLID_1027_" class="st5" d="M445.2,120.2c-0.8,0-1.5-0.3-1.9-0.9s-0.7-1.4-0.7-2.4c0-1.1,0.2-1.9,0.7-2.5s1.1-0.9,2-0.9
		c0.9,0,1.6,0.3,2,1h0.1l0.1-0.9h0.8v9.3h-1v-2.7c0-0.4,0-0.7,0.1-1h-0.1C446.8,119.9,446.1,120.2,445.2,120.2z M445.4,119.4
		c0.6,0,1.1-0.2,1.4-0.5s0.5-0.9,0.5-1.8v-0.2c0-0.9-0.2-1.5-0.5-1.9s-0.8-0.6-1.4-0.6c-0.6,0-1,0.2-1.3,0.7s-0.5,1.1-0.5,1.9
		s0.1,1.4,0.4,1.8S444.8,119.4,445.4,119.4z"/>
	<path id="XMLID_1025_" class="st5" d="M451.2,113.7v4.2c0,0.5,0.1,0.9,0.4,1.2s0.6,0.4,1.1,0.4c0.7,0,1.2-0.2,1.5-0.6
		s0.5-1,0.5-1.8v-3.4h1v6.4h-0.8l-0.1-0.9h-0.1c-0.2,0.3-0.5,0.6-0.8,0.7s-0.8,0.3-1.2,0.3c-0.8,0-1.4-0.2-1.8-0.6s-0.6-1-0.6-1.8
		v-4.2H451.2z"/>
	<path id="XMLID_1022_" class="st5" d="M461.6,120.1l-0.2-0.9h0c-0.3,0.4-0.6,0.7-1,0.8s-0.7,0.2-1.2,0.2c-0.6,0-1.1-0.2-1.5-0.5
		s-0.5-0.8-0.5-1.4c0-1.3,1-2,3.1-2l1.1,0v-0.4c0-0.5-0.1-0.9-0.3-1.1s-0.6-0.4-1-0.4c-0.5,0-1.1,0.2-1.8,0.5l-0.3-0.7
		c0.3-0.2,0.7-0.3,1-0.4s0.8-0.1,1.1-0.1c0.8,0,1.3,0.2,1.7,0.5s0.6,0.9,0.6,1.6v4.4H461.6z M459.4,119.4c0.6,0,1.1-0.2,1.4-0.5
		s0.5-0.8,0.5-1.4V117l-1,0c-0.8,0-1.3,0.1-1.7,0.4s-0.5,0.5-0.5,1c0,0.4,0.1,0.6,0.3,0.8S459,119.4,459.4,119.4z"/>
	<path id="XMLID_1020_" class="st5" d="M467.3,113.6c0.3,0,0.5,0,0.8,0.1l-0.1,0.9c-0.3-0.1-0.5-0.1-0.7-0.1c-0.5,0-1,0.2-1.3,0.6
		s-0.6,0.9-0.6,1.6v3.4h-1v-6.4h0.8l0.1,1.2h0c0.2-0.4,0.5-0.7,0.9-1S466.9,113.6,467.3,113.6z"/>
	<path id="XMLID_1018_" class="st5" d="M471.3,119.4c0.2,0,0.3,0,0.5,0s0.3-0.1,0.4-0.1v0.7c-0.1,0.1-0.3,0.1-0.5,0.1s-0.4,0-0.6,0
		c-1.2,0-1.9-0.7-1.9-2v-3.8h-0.9V114l0.9-0.4l0.4-1.4h0.6v1.5h1.9v0.8h-1.9v3.8c0,0.4,0.1,0.7,0.3,0.9S471,119.4,471.3,119.4z"/>
	<path id="XMLID_1015_" class="st5" d="M476.2,120.2c-0.9,0-1.7-0.3-2.2-0.9s-0.8-1.4-0.8-2.4c0-1,0.3-1.9,0.8-2.5s1.2-0.9,2.1-0.9
		c0.8,0,1.4,0.3,1.9,0.8s0.7,1.2,0.7,2.1v0.6h-4.4c0,0.8,0.2,1.3,0.6,1.7s0.9,0.6,1.5,0.6c0.7,0,1.4-0.1,2.1-0.4v0.9
		c-0.3,0.1-0.7,0.3-1,0.3S476.6,120.2,476.2,120.2z M475.9,114.4c-0.5,0-0.9,0.2-1.2,0.5s-0.5,0.8-0.5,1.4h3.4
		c0-0.6-0.1-1.1-0.4-1.4S476.4,114.4,475.9,114.4z"/>
	<path id="XMLID_1013_" class="st5" d="M483.1,113.6c0.3,0,0.5,0,0.8,0.1l-0.1,0.9c-0.3-0.1-0.5-0.1-0.7-0.1c-0.5,0-1,0.2-1.3,0.6
		s-0.6,0.9-0.6,1.6v3.4h-1v-6.4h0.8l0.1,1.2h0c0.2-0.4,0.5-0.7,0.9-1S482.7,113.6,483.1,113.6z"/>
	<path id="XMLID_1011_" class="st5" d="M486.1,120.1h-1V111h1V120.1z"/>
	<path id="XMLID_1009_" class="st5" d="M487.1,113.7h1l1.4,3.7c0.3,0.8,0.5,1.4,0.6,1.8h0c0.1-0.2,0.2-0.5,0.3-1s0.7-2,1.6-4.5h1
		l-2.8,7.3c-0.3,0.7-0.6,1.2-1,1.5s-0.8,0.5-1.3,0.5c-0.3,0-0.6,0-0.9-0.1v-0.8c0.2,0,0.5,0.1,0.7,0.1c0.7,0,1.1-0.4,1.4-1.1
		l0.4-0.9L487.1,113.7z"/>
</g>
<g id="XMLID_965_" class="st4">
	<path id="XMLID_1006_" class="st5" d="M269.3,59.4h-0.9v-6.1c0-0.5,0-1,0-1.4c-0.1,0.1-0.2,0.2-0.3,0.3s-0.6,0.5-1.4,1.1l-0.5-0.7
		l2.3-1.8h0.8V59.4z"/>
	<path id="XMLID_1000_" class="st5" d="M276,53.4c0,0.9-0.1,1.6-0.4,2s-0.7,0.7-1.3,0.7c-0.5,0-1-0.2-1.3-0.7s-0.5-1.1-0.5-2
		c0-0.9,0.1-1.6,0.4-2s0.7-0.7,1.3-0.7c0.6,0,1,0.2,1.3,0.7S276,52.5,276,53.4z M273.4,53.4c0,0.7,0.1,1.2,0.2,1.5s0.4,0.5,0.7,0.5
		c0.6,0,1-0.7,1-2c0-1.3-0.3-2-1-2c-0.3,0-0.6,0.2-0.7,0.5S273.4,52.7,273.4,53.4z M279.7,50.8l-4.8,8.6h-0.9l4.8-8.6H279.7z
		 M281.2,56.8c0,0.9-0.1,1.6-0.4,2s-0.7,0.7-1.3,0.7c-0.6,0-1-0.2-1.3-0.7s-0.4-1.1-0.4-2c0-0.9,0.1-1.6,0.4-2s0.7-0.7,1.3-0.7
		c0.6,0,1,0.2,1.3,0.7S281.2,55.9,281.2,56.8z M278.5,56.8c0,0.7,0.1,1.2,0.2,1.5s0.4,0.5,0.7,0.5s0.6-0.2,0.7-0.5s0.2-0.8,0.2-1.5
		c0-0.7-0.1-1.2-0.2-1.5s-0.4-0.5-0.7-0.5s-0.6,0.2-0.7,0.5S278.5,56.1,278.5,56.8z"/>
	<path id="XMLID_998_" class="st5" d="M294.2,59.4v-4.2c0-0.5-0.1-0.9-0.3-1.2s-0.6-0.4-1-0.4c-0.6,0-1.1,0.2-1.3,0.5
		s-0.4,0.9-0.4,1.6v3.6h-1v-4.2c0-0.5-0.1-0.9-0.3-1.2s-0.6-0.4-1-0.4c-0.6,0-1.1,0.2-1.3,0.5s-0.4,1-0.4,1.8v3.4h-1v-6.4h0.8
		l0.2,0.9h0c0.2-0.3,0.4-0.6,0.8-0.7s0.7-0.3,1.1-0.3c1,0,1.7,0.4,2,1.1h0c0.2-0.3,0.5-0.6,0.8-0.8s0.8-0.3,1.2-0.3
		c0.7,0,1.3,0.2,1.6,0.6s0.5,1,0.5,1.8v4.2H294.2z"/>
	<path id="XMLID_995_" class="st5" d="M301.1,59.4l-0.2-0.9h0c-0.3,0.4-0.6,0.7-1,0.8s-0.7,0.2-1.2,0.2c-0.6,0-1.1-0.2-1.5-0.5
		s-0.5-0.8-0.5-1.4c0-1.3,1-2,3.1-2l1.1,0v-0.4c0-0.5-0.1-0.9-0.3-1.1s-0.6-0.4-1-0.4c-0.5,0-1.1,0.2-1.8,0.5l-0.3-0.7
		c0.3-0.2,0.7-0.3,1-0.4s0.8-0.1,1.1-0.1c0.8,0,1.3,0.2,1.7,0.5s0.6,0.9,0.6,1.6v4.4H301.1z M298.9,58.7c0.6,0,1.1-0.2,1.4-0.5
		s0.5-0.8,0.5-1.4v-0.6l-1,0c-0.8,0-1.3,0.1-1.7,0.4s-0.5,0.5-0.5,1c0,0.4,0.1,0.6,0.3,0.8S298.5,58.7,298.9,58.7z"/>
	<path id="XMLID_993_" class="st5" d="M308.2,59.4v-4.2c0-0.5-0.1-0.9-0.4-1.2s-0.6-0.4-1.1-0.4c-0.7,0-1.2,0.2-1.5,0.5
		s-0.5,1-0.5,1.8v3.4h-1v-6.4h0.8l0.2,0.9h0c0.2-0.3,0.5-0.6,0.8-0.7s0.8-0.3,1.2-0.3c0.8,0,1.4,0.2,1.7,0.6s0.6,1,0.6,1.8v4.2
		H308.2z"/>
	<path id="XMLID_990_" class="st5" d="M315.1,59.4l-0.2-0.9h0c-0.3,0.4-0.6,0.7-1,0.8s-0.7,0.2-1.2,0.2c-0.6,0-1.1-0.2-1.5-0.5
		s-0.5-0.8-0.5-1.4c0-1.3,1-2,3.1-2l1.1,0v-0.4c0-0.5-0.1-0.9-0.3-1.1s-0.6-0.4-1-0.4c-0.5,0-1.1,0.2-1.8,0.5l-0.3-0.7
		c0.3-0.2,0.7-0.3,1-0.4s0.8-0.1,1.1-0.1c0.8,0,1.3,0.2,1.7,0.5s0.6,0.9,0.6,1.6v4.4H315.1z M312.9,58.7c0.6,0,1.1-0.2,1.4-0.5
		s0.5-0.8,0.5-1.4v-0.6l-1,0c-0.8,0-1.3,0.1-1.7,0.4s-0.5,0.5-0.5,1c0,0.4,0.1,0.6,0.3,0.8S312.5,58.7,312.9,58.7z"/>
	<path id="XMLID_986_" class="st5" d="M323.1,52.9v0.6l-1.2,0.1c0.1,0.1,0.2,0.3,0.3,0.5s0.1,0.5,0.1,0.7c0,0.6-0.2,1.1-0.6,1.5
		s-1,0.6-1.8,0.6c-0.2,0-0.4,0-0.5,0c-0.4,0.2-0.6,0.5-0.6,0.8c0,0.2,0.1,0.3,0.2,0.4s0.4,0.1,0.7,0.1h1.1c0.7,0,1.2,0.1,1.6,0.4
		s0.6,0.7,0.6,1.3c0,0.7-0.3,1.3-0.9,1.6s-1.4,0.6-2.5,0.6c-0.8,0-1.5-0.2-1.9-0.5S317,61,317,60.5c0-0.4,0.1-0.7,0.4-1
		s0.6-0.5,1.1-0.6c-0.2-0.1-0.3-0.2-0.4-0.3s-0.2-0.3-0.2-0.5c0-0.2,0.1-0.4,0.2-0.6s0.3-0.3,0.6-0.5c-0.3-0.1-0.6-0.4-0.8-0.7
		s-0.3-0.7-0.3-1.1c0-0.7,0.2-1.2,0.6-1.6s1-0.6,1.8-0.6c0.3,0,0.6,0,0.9,0.1H323.1z M318,60.4c0,0.3,0.1,0.6,0.4,0.8
		s0.7,0.3,1.3,0.3c0.8,0,1.4-0.1,1.8-0.4s0.6-0.6,0.6-1c0-0.3-0.1-0.6-0.3-0.7s-0.6-0.2-1.2-0.2h-1.2c-0.4,0-0.8,0.1-1,0.3
		S318,60.1,318,60.4z M318.5,55c0,0.4,0.1,0.8,0.4,1s0.6,0.3,1.1,0.3c0.9,0,1.4-0.5,1.4-1.4c0-1-0.5-1.4-1.4-1.4
		c-0.5,0-0.8,0.1-1.1,0.4S318.5,54.5,318.5,55z"/>
	<path id="XMLID_983_" class="st5" d="M327.1,59.5c-0.9,0-1.7-0.3-2.2-0.9s-0.8-1.4-0.8-2.4c0-1,0.3-1.9,0.8-2.5s1.2-0.9,2.1-0.9
		c0.8,0,1.4,0.3,1.9,0.8s0.7,1.2,0.7,2.1v0.6h-4.4c0,0.8,0.2,1.3,0.6,1.7s0.9,0.6,1.5,0.6c0.7,0,1.4-0.1,2.1-0.4v0.9
		c-0.3,0.1-0.7,0.3-1,0.3S327.6,59.5,327.1,59.5z M326.9,53.6c-0.5,0-0.9,0.2-1.2,0.5s-0.5,0.8-0.5,1.4h3.4c0-0.6-0.1-1.1-0.4-1.4
		S327.4,53.6,326.9,53.6z"/>
	<path id="XMLID_981_" class="st5" d="M339.3,59.4v-4.2c0-0.5-0.1-0.9-0.3-1.2s-0.6-0.4-1-0.4c-0.6,0-1.1,0.2-1.3,0.5
		s-0.4,0.9-0.4,1.6v3.6h-1v-4.2c0-0.5-0.1-0.9-0.3-1.2s-0.6-0.4-1-0.4c-0.6,0-1.1,0.2-1.3,0.5s-0.4,1-0.4,1.8v3.4h-1v-6.4h0.8
		l0.2,0.9h0c0.2-0.3,0.4-0.6,0.8-0.7s0.7-0.3,1.1-0.3c1,0,1.7,0.4,2,1.1h0c0.2-0.3,0.5-0.6,0.8-0.8s0.8-0.3,1.2-0.3
		c0.7,0,1.3,0.2,1.6,0.6s0.5,1,0.5,1.8v4.2H339.3z"/>
	<path id="XMLID_978_" class="st5" d="M345,59.5c-0.9,0-1.7-0.3-2.2-0.9s-0.8-1.4-0.8-2.4c0-1,0.3-1.9,0.8-2.5s1.2-0.9,2.1-0.9
		c0.8,0,1.4,0.3,1.9,0.8s0.7,1.2,0.7,2.1v0.6H343c0,0.8,0.2,1.3,0.6,1.7s0.9,0.6,1.5,0.6c0.7,0,1.4-0.1,2.1-0.4v0.9
		c-0.3,0.1-0.7,0.3-1,0.3S345.5,59.5,345,59.5z M344.8,53.6c-0.5,0-0.9,0.2-1.2,0.5s-0.5,0.8-0.5,1.4h3.4c0-0.6-0.1-1.1-0.4-1.4
		S345.3,53.6,344.8,53.6z"/>
	<path id="XMLID_976_" class="st5" d="M353.4,59.4v-4.2c0-0.5-0.1-0.9-0.4-1.2s-0.6-0.4-1.1-0.4c-0.7,0-1.2,0.2-1.5,0.5
		s-0.5,1-0.5,1.8v3.4h-1v-6.4h0.8l0.2,0.9h0c0.2-0.3,0.5-0.6,0.8-0.7s0.8-0.3,1.2-0.3c0.8,0,1.4,0.2,1.7,0.6s0.6,1,0.6,1.8v4.2
		H353.4z"/>
	<path id="XMLID_974_" class="st5" d="M358.5,58.7c0.2,0,0.3,0,0.5,0s0.3-0.1,0.4-0.1v0.7c-0.1,0.1-0.3,0.1-0.5,0.1s-0.4,0-0.6,0
		c-1.2,0-1.9-0.7-1.9-2v-3.8h-0.9v-0.5l0.9-0.4l0.4-1.4h0.6v1.5h1.9v0.8h-1.9v3.8c0,0.4,0.1,0.7,0.3,0.9S358.2,58.7,358.5,58.7z"/>
	<path id="XMLID_972_" class="st5" d="M366.7,53.7H365v5.7h-1v-5.7h-1.1v-0.4l1.1-0.4v-0.4c0-1.6,0.7-2.4,2.1-2.4
		c0.3,0,0.7,0.1,1.2,0.2l-0.3,0.8c-0.4-0.1-0.7-0.2-1-0.2c-0.4,0-0.6,0.1-0.8,0.4S365,52,365,52.5v0.4h1.6V53.7z"/>
	<path id="XMLID_969_" class="st5" d="M370.5,59.5c-0.9,0-1.7-0.3-2.2-0.9s-0.8-1.4-0.8-2.4c0-1,0.3-1.9,0.8-2.5s1.2-0.9,2.1-0.9
		c0.8,0,1.4,0.3,1.9,0.8s0.7,1.2,0.7,2.1v0.6h-4.4c0,0.8,0.2,1.3,0.6,1.7s0.9,0.6,1.5,0.6c0.7,0,1.4-0.1,2.1-0.4v0.9
		c-0.3,0.1-0.7,0.3-1,0.3S371,59.5,370.5,59.5z M370.3,53.6c-0.5,0-0.9,0.2-1.2,0.5s-0.5,0.8-0.5,1.4h3.4c0-0.6-0.1-1.1-0.4-1.4
		S370.8,53.6,370.3,53.6z"/>
	<path id="XMLID_966_" class="st5" d="M377.3,59.5c-0.9,0-1.7-0.3-2.2-0.9s-0.8-1.4-0.8-2.4c0-1,0.3-1.9,0.8-2.5s1.2-0.9,2.1-0.9
		c0.8,0,1.4,0.3,1.9,0.8s0.7,1.2,0.7,2.1v0.6h-4.4c0,0.8,0.2,1.3,0.6,1.7s0.9,0.6,1.5,0.6c0.7,0,1.4-0.1,2.1-0.4v0.9
		c-0.3,0.1-0.7,0.3-1,0.3S377.7,59.5,377.3,59.5z M377,53.6c-0.5,0-0.9,0.2-1.2,0.5s-0.5,0.8-0.5,1.4h3.4c0-0.6-0.1-1.1-0.4-1.4
		S377.5,53.6,377,53.6z"/>
</g>
<g id="XMLID_755_" class="st4">
	<path id="XMLID_962_" class="st5" d="M545.7,18.1c0,1.1-0.2,2-0.7,2.7s-1.1,1.2-1.9,1.5l2,2.1h-1.4l-1.7-1.9l-0.3,0
		c-1.3,0-2.2-0.4-2.9-1.2s-1-1.9-1-3.3c0-1.4,0.3-2.5,1-3.2s1.7-1.2,2.9-1.2c1.2,0,2.2,0.4,2.9,1.2S545.7,16.7,545.7,18.1z
		 M538.9,18.1c0,1.2,0.2,2,0.7,2.6s1.2,0.9,2.2,0.9c0.9,0,1.7-0.3,2.2-0.9s0.7-1.5,0.7-2.6c0-1.2-0.2-2-0.7-2.6s-1.2-0.9-2.1-0.9
		c-0.9,0-1.7,0.3-2.2,0.9S538.9,17,538.9,18.1z"/>
	<path id="XMLID_960_" class="st5" d="M547.4,21.8c0-0.3,0.1-0.5,0.2-0.6s0.3-0.2,0.5-0.2c0.2,0,0.4,0.1,0.5,0.2s0.2,0.3,0.2,0.6
		c0,0.3-0.1,0.4-0.2,0.6s-0.3,0.2-0.5,0.2c-0.2,0-0.4-0.1-0.5-0.2S547.4,22.1,547.4,21.8z"/>
	<path id="XMLID_957_" class="st5" d="M559.4,22.4l-1.1-2.7h-3.4l-1.1,2.7h-1l3.4-8.6h0.8l3.4,8.6H559.4z M558,18.8l-1-2.7
		c-0.1-0.3-0.3-0.7-0.4-1.2c-0.1,0.4-0.2,0.8-0.4,1.2l-1,2.7H558z"/>
	<path id="XMLID_954_" class="st5" d="M562.6,18.8v3.6h-1v-8.6h2.3c1.1,0,1.8,0.2,2.3,0.6s0.8,1,0.8,1.8c0,1.1-0.6,1.9-1.7,2.3
		l2.3,3.8h-1.2l-2.1-3.6H562.6z M562.6,18h1.4c0.7,0,1.2-0.1,1.5-0.4s0.5-0.7,0.5-1.3c0-0.6-0.2-1-0.5-1.2s-0.9-0.4-1.6-0.4h-1.3V18
		z"/>
	<path id="XMLID_952_" class="st5" d="M571.6,22.4h-1v-7.7h-2.7v-0.9h6.4v0.9h-2.7V22.4z"/>
	<path id="XMLID_950_" class="st5" d="M582.1,22.4h-1v-4h-4.5v4h-1v-8.6h1v3.6h4.5v-3.6h1V22.4z"/>
	<path id="XMLID_948_" class="st5" d="M590.9,13.8v5.5c0,1-0.3,1.7-0.9,2.3s-1.4,0.8-2.4,0.8s-1.8-0.3-2.4-0.8s-0.8-1.3-0.8-2.3
		v-5.5h1v5.6c0,0.7,0.2,1.3,0.6,1.6s1,0.6,1.7,0.6c0.7,0,1.3-0.2,1.7-0.6s0.6-0.9,0.6-1.7v-5.6H590.9z"/>
	<path id="XMLID_945_" class="st5" d="M594.2,18.8v3.6h-1v-8.6h2.3c1.1,0,1.8,0.2,2.3,0.6s0.8,1,0.8,1.8c0,1.1-0.6,1.9-1.7,2.3
		l2.3,3.8h-1.2l-2.1-3.6H594.2z M594.2,18h1.4c0.7,0,1.2-0.1,1.5-0.4s0.5-0.7,0.5-1.3c0-0.6-0.2-1-0.5-1.2s-0.9-0.4-1.6-0.4h-1.3V18
		z"/>
	<path id="XMLID_943_" class="st5" d="M603.7,22.4v-8.6h1v7.7h3.8v0.9H603.7z"/>
	<path id="XMLID_941_" class="st5" d="M612.6,22.4h-1v-7.7h-2.7v-0.9h6.4v0.9h-2.7V22.4z"/>
	<path id="XMLID_938_" class="st5" d="M623.4,18c0,1.4-0.4,2.5-1.2,3.2s-1.9,1.1-3.3,1.1h-2.4v-8.6h2.6c1.3,0,2.4,0.4,3.1,1.1
		S623.4,16.7,623.4,18z M622.4,18.1c0-1.1-0.3-2-0.8-2.5s-1.4-0.8-2.5-0.8h-1.4v6.8h1.2c1.2,0,2.1-0.3,2.7-0.9
		S622.4,19.2,622.4,18.1z"/>
	<path id="XMLID_936_" class="st5" d="M629.2,16v4.2c0,0.5,0.1,0.9,0.4,1.2s0.6,0.4,1.1,0.4c0.7,0,1.2-0.2,1.5-0.6s0.5-1,0.5-1.8V16
		h1v6.4h-0.8l-0.1-0.9h-0.1c-0.2,0.3-0.5,0.6-0.8,0.7s-0.8,0.3-1.2,0.3c-0.8,0-1.4-0.2-1.8-0.6s-0.6-1-0.6-1.8V16H629.2z"/>
	<path id="XMLID_934_" class="st5" d="M639.8,20.6c0,0.6-0.2,1.1-0.7,1.4s-1.1,0.5-1.9,0.5c-0.9,0-1.5-0.1-2-0.4v-0.9
		c0.3,0.2,0.6,0.3,1,0.4s0.7,0.1,1,0.1c0.5,0,0.9-0.1,1.2-0.2s0.4-0.4,0.4-0.7c0-0.3-0.1-0.5-0.3-0.6s-0.6-0.4-1.3-0.6
		c-0.6-0.2-1-0.4-1.3-0.6s-0.4-0.4-0.6-0.6s-0.2-0.5-0.2-0.8c0-0.5,0.2-0.9,0.6-1.2s1-0.5,1.8-0.5c0.7,0,1.4,0.1,2,0.4l-0.3,0.8
		c-0.6-0.3-1.2-0.4-1.8-0.4c-0.5,0-0.8,0.1-1,0.2s-0.4,0.3-0.4,0.6c0,0.2,0,0.3,0.1,0.4s0.2,0.2,0.4,0.3s0.6,0.3,1.1,0.5
		c0.8,0.3,1.3,0.6,1.5,0.8S639.8,20.2,639.8,20.6z"/>
	<path id="XMLID_931_" class="st5" d="M644.1,22.5c-0.9,0-1.7-0.3-2.2-0.9s-0.8-1.4-0.8-2.4c0-1,0.3-1.9,0.8-2.5s1.2-0.9,2.1-0.9
		c0.8,0,1.4,0.3,1.9,0.8s0.7,1.2,0.7,2.1v0.6h-4.4c0,0.8,0.2,1.3,0.6,1.7s0.9,0.6,1.5,0.6c0.7,0,1.4-0.1,2.1-0.4v0.9
		c-0.3,0.1-0.7,0.3-1,0.3S644.6,22.5,644.1,22.5z M643.9,16.7c-0.5,0-0.9,0.2-1.2,0.5s-0.5,0.8-0.5,1.4h3.4c0-0.6-0.1-1.1-0.4-1.4
		S644.4,16.7,643.9,16.7z"/>
	<path id="XMLID_929_" class="st5" d="M652.3,20.6c0,0.6-0.2,1.1-0.7,1.4s-1.1,0.5-1.9,0.5c-0.9,0-1.5-0.1-2-0.4v-0.9
		c0.3,0.2,0.6,0.3,1,0.4s0.7,0.1,1,0.1c0.5,0,0.9-0.1,1.2-0.2s0.4-0.4,0.4-0.7c0-0.3-0.1-0.5-0.3-0.6s-0.6-0.4-1.3-0.6
		c-0.6-0.2-1-0.4-1.3-0.6s-0.4-0.4-0.6-0.6s-0.2-0.5-0.2-0.8c0-0.5,0.2-0.9,0.6-1.2s1-0.5,1.8-0.5c0.7,0,1.4,0.1,2,0.4l-0.3,0.8
		c-0.6-0.3-1.2-0.4-1.8-0.4c-0.5,0-0.8,0.1-1,0.2s-0.4,0.3-0.4,0.6c0,0.2,0,0.3,0.1,0.4s0.2,0.2,0.4,0.3s0.6,0.3,1.1,0.5
		c0.8,0.3,1.3,0.6,1.5,0.8S652.3,20.2,652.3,20.6z"/>
	<path id="XMLID_927_" class="st5" d="M659.9,15.9c0.3,0,0.5,0,0.8,0.1l-0.1,0.9c-0.3-0.1-0.5-0.1-0.7-0.1c-0.5,0-1,0.2-1.3,0.6
		S658,18.3,658,19v3.4h-1V16h0.8l0.1,1.2h0c0.2-0.4,0.5-0.7,0.9-1S659.5,15.9,659.9,15.9z"/>
	<path id="XMLID_924_" class="st5" d="M664.6,22.5c-0.9,0-1.7-0.3-2.2-0.9s-0.8-1.4-0.8-2.4c0-1,0.3-1.9,0.8-2.5s1.2-0.9,2.1-0.9
		c0.8,0,1.4,0.3,1.9,0.8s0.7,1.2,0.7,2.1v0.6h-4.4c0,0.8,0.2,1.3,0.6,1.7s0.9,0.6,1.5,0.6c0.7,0,1.4-0.1,2.1-0.4v0.9
		c-0.3,0.1-0.7,0.3-1,0.3S665,22.5,664.6,22.5z M664.3,16.7c-0.5,0-0.9,0.2-1.2,0.5s-0.5,0.8-0.5,1.4h3.4c0-0.6-0.1-1.1-0.4-1.4
		S664.8,16.7,664.3,16.7z"/>
	<path id="XMLID_922_" class="st5" d="M671.2,22.5c-0.9,0-1.6-0.3-2.2-0.9s-0.8-1.4-0.8-2.4c0-1.1,0.3-1.9,0.8-2.5s1.3-0.9,2.2-0.9
		c0.3,0,0.6,0,0.9,0.1s0.6,0.1,0.7,0.2l-0.3,0.8c-0.2-0.1-0.4-0.2-0.7-0.2s-0.5-0.1-0.7-0.1c-1.3,0-2,0.8-2,2.5
		c0,0.8,0.2,1.4,0.5,1.8s0.8,0.6,1.4,0.6c0.5,0,1.1-0.1,1.6-0.3v0.9C672.4,22.4,671.8,22.5,671.2,22.5z"/>
	<path id="XMLID_919_" class="st5" d="M677,22.5c-0.9,0-1.7-0.3-2.2-0.9s-0.8-1.4-0.8-2.4c0-1,0.3-1.9,0.8-2.5s1.2-0.9,2.1-0.9
		c0.8,0,1.4,0.3,1.9,0.8s0.7,1.2,0.7,2.1v0.6H675c0,0.8,0.2,1.3,0.6,1.7s0.9,0.6,1.5,0.6c0.7,0,1.4-0.1,2.1-0.4v0.9
		c-0.3,0.1-0.7,0.3-1,0.3S677.5,22.5,677,22.5z M676.8,16.7c-0.5,0-0.9,0.2-1.2,0.5s-0.5,0.8-0.5,1.4h3.4c0-0.6-0.1-1.1-0.4-1.4
		S677.3,16.7,676.8,16.7z"/>
	<path id="XMLID_916_" class="st5" d="M681,14.2c0-0.2,0.1-0.4,0.2-0.5s0.2-0.2,0.4-0.2c0.2,0,0.3,0.1,0.4,0.2s0.2,0.3,0.2,0.5
		s-0.1,0.4-0.2,0.5s-0.2,0.2-0.4,0.2c-0.2,0-0.3-0.1-0.4-0.2S681,14.5,681,14.2z M682,22.4h-1V16h1V22.4z"/>
	<path id="XMLID_914_" class="st5" d="M685.5,22.4l-2.4-6.4h1l1.4,3.8c0.3,0.9,0.5,1.5,0.6,1.7h0c0-0.2,0.2-0.6,0.4-1.3
		s0.7-2.1,1.5-4.3h1l-2.4,6.4H685.5z"/>
	<path id="XMLID_911_" class="st5" d="M692.8,22.5c-0.9,0-1.7-0.3-2.2-0.9s-0.8-1.4-0.8-2.4c0-1,0.3-1.9,0.8-2.5s1.2-0.9,2.1-0.9
		c0.8,0,1.4,0.3,1.9,0.8s0.7,1.2,0.7,2.1v0.6h-4.4c0,0.8,0.2,1.3,0.6,1.7s0.9,0.6,1.5,0.6c0.7,0,1.4-0.1,2.1-0.4v0.9
		c-0.3,0.1-0.7,0.3-1,0.3S693.3,22.5,692.8,22.5z M692.6,16.7c-0.5,0-0.9,0.2-1.2,0.5s-0.5,0.8-0.5,1.4h3.4c0-0.6-0.1-1.1-0.4-1.4
		S693.1,16.7,692.6,16.7z"/>
	<path id="XMLID_908_" class="st5" d="M701.2,21.5L701.2,21.5c-0.5,0.7-1.2,1-2.1,1c-0.8,0-1.5-0.3-2-0.9s-0.7-1.4-0.7-2.4
		s0.2-1.9,0.7-2.5s1.1-0.9,2-0.9c0.9,0,1.5,0.3,2,0.9h0.1l0-0.5l0-0.5v-2.6h1v9.1h-0.8L701.2,21.5z M699.3,21.7
		c0.7,0,1.1-0.2,1.4-0.5s0.4-0.9,0.4-1.7v-0.2c0-0.9-0.2-1.6-0.5-1.9s-0.8-0.6-1.5-0.6c-0.6,0-1,0.2-1.3,0.7s-0.5,1.1-0.5,1.9
		c0,0.8,0.2,1.4,0.5,1.9S698.7,21.7,699.3,21.7z"/>
	<path id="XMLID_905_" class="st5" d="M711.7,21.5L711.7,21.5c-0.5,0.7-1.2,1-2.1,1c-0.8,0-1.5-0.3-2-0.9s-0.7-1.4-0.7-2.4
		s0.2-1.9,0.7-2.5s1.1-0.9,2-0.9c0.9,0,1.5,0.3,2,0.9h0.1l0-0.5l0-0.5v-2.6h1v9.1h-0.8L711.7,21.5z M709.7,21.7
		c0.7,0,1.1-0.2,1.4-0.5s0.4-0.9,0.4-1.7v-0.2c0-0.9-0.2-1.6-0.5-1.9s-0.8-0.6-1.5-0.6c-0.6,0-1,0.2-1.3,0.7s-0.5,1.1-0.5,1.9
		c0,0.8,0.2,1.4,0.5,1.9S709.2,21.7,709.7,21.7z"/>
	<path id="XMLID_902_" class="st5" d="M714.6,14.2c0-0.2,0.1-0.4,0.2-0.5s0.2-0.2,0.4-0.2c0.2,0,0.3,0.1,0.4,0.2s0.2,0.3,0.2,0.5
		s-0.1,0.4-0.2,0.5s-0.2,0.2-0.4,0.2c-0.2,0-0.3-0.1-0.4-0.2S714.6,14.5,714.6,14.2z M715.6,22.4h-1V16h1V22.4z"/>
	<path id="XMLID_900_" class="st5" d="M719.1,22.4l-2.4-6.4h1l1.4,3.8c0.3,0.9,0.5,1.5,0.6,1.7h0c0-0.2,0.2-0.6,0.4-1.3
		s0.7-2.1,1.5-4.3h1l-2.4,6.4H719.1z"/>
	<path id="XMLID_897_" class="st5" d="M723.6,14.2c0-0.2,0.1-0.4,0.2-0.5s0.2-0.2,0.4-0.2c0.2,0,0.3,0.1,0.4,0.2s0.2,0.3,0.2,0.5
		s-0.1,0.4-0.2,0.5s-0.2,0.2-0.4,0.2c-0.2,0-0.3-0.1-0.4-0.2S723.6,14.5,723.6,14.2z M724.7,22.4h-1V16h1V22.4z"/>
	<path id="XMLID_894_" class="st5" d="M731.1,21.5L731.1,21.5c-0.5,0.7-1.2,1-2.1,1c-0.8,0-1.5-0.3-2-0.9s-0.7-1.4-0.7-2.4
		s0.2-1.9,0.7-2.5s1.1-0.9,2-0.9c0.9,0,1.5,0.3,2,0.9h0.1l0-0.5l0-0.5v-2.6h1v9.1h-0.8L731.1,21.5z M729.2,21.7
		c0.7,0,1.1-0.2,1.4-0.5s0.4-0.9,0.4-1.7v-0.2c0-0.9-0.2-1.6-0.5-1.9s-0.8-0.6-1.5-0.6c-0.6,0-1,0.2-1.3,0.7s-0.5,1.1-0.5,1.9
		c0,0.8,0.2,1.4,0.5,1.9S728.6,21.7,729.2,21.7z"/>
	<path id="XMLID_891_" class="st5" d="M736.8,22.5c-0.9,0-1.7-0.3-2.2-0.9s-0.8-1.4-0.8-2.4c0-1,0.3-1.9,0.8-2.5s1.2-0.9,2.1-0.9
		c0.8,0,1.4,0.3,1.9,0.8s0.7,1.2,0.7,2.1v0.6h-4.4c0,0.8,0.2,1.3,0.6,1.7s0.9,0.6,1.5,0.6c0.7,0,1.4-0.1,2.1-0.4v0.9
		c-0.3,0.1-0.7,0.3-1,0.3S737.3,22.5,736.8,22.5z M736.6,16.7c-0.5,0-0.9,0.2-1.2,0.5s-0.5,0.8-0.5,1.4h3.4c0-0.6-0.1-1.1-0.4-1.4
		S737.1,16.7,736.6,16.7z"/>
	<path id="XMLID_889_" class="st5" d="M745.2,22.4v-4.2c0-0.5-0.1-0.9-0.4-1.2s-0.6-0.4-1.1-0.4c-0.7,0-1.2,0.2-1.5,0.5
		s-0.5,1-0.5,1.8v3.4h-1V16h0.8l0.2,0.9h0c0.2-0.3,0.5-0.6,0.8-0.7s0.8-0.3,1.2-0.3c0.8,0,1.4,0.2,1.7,0.6s0.6,1,0.6,1.8v4.2H745.2z
		"/>
	<path id="XMLID_886_" class="st5" d="M752.6,21.5L752.6,21.5c-0.5,0.7-1.2,1-2.1,1c-0.8,0-1.5-0.3-2-0.9s-0.7-1.4-0.7-2.4
		s0.2-1.9,0.7-2.5s1.1-0.9,2-0.9c0.9,0,1.5,0.3,2,0.9h0.1l0-0.5l0-0.5v-2.6h1v9.1h-0.8L752.6,21.5z M750.6,21.7
		c0.7,0,1.1-0.2,1.4-0.5s0.4-0.9,0.4-1.7v-0.2c0-0.9-0.2-1.6-0.5-1.9s-0.8-0.6-1.5-0.6c-0.6,0-1,0.2-1.3,0.7s-0.5,1.1-0.5,1.9
		c0,0.8,0.2,1.4,0.5,1.9S750,21.7,750.6,21.7z"/>
	<path id="XMLID_884_" class="st5" d="M759.7,20.6c0,0.6-0.2,1.1-0.7,1.4s-1.1,0.5-1.9,0.5c-0.9,0-1.5-0.1-2-0.4v-0.9
		c0.3,0.2,0.6,0.3,1,0.4s0.7,0.1,1,0.1c0.5,0,0.9-0.1,1.2-0.2s0.4-0.4,0.4-0.7c0-0.3-0.1-0.5-0.3-0.6s-0.6-0.4-1.3-0.6
		c-0.6-0.2-1-0.4-1.3-0.6s-0.4-0.4-0.6-0.6s-0.2-0.5-0.2-0.8c0-0.5,0.2-0.9,0.6-1.2s1-0.5,1.8-0.5c0.7,0,1.4,0.1,2,0.4l-0.3,0.8
		c-0.6-0.3-1.2-0.4-1.8-0.4c-0.5,0-0.8,0.1-1,0.2s-0.4,0.3-0.4,0.6c0,0.2,0,0.3,0.1,0.4s0.2,0.2,0.4,0.3s0.6,0.3,1.1,0.5
		c0.8,0.3,1.3,0.6,1.5,0.8S759.7,20.2,759.7,20.6z"/>
	<path id="XMLID_882_" class="st5" d="M560.8,39.7c0.2,0,0.3,0,0.5,0s0.3-0.1,0.4-0.1v0.7c-0.1,0.1-0.3,0.1-0.5,0.1s-0.4,0-0.6,0
		c-1.2,0-1.9-0.7-1.9-2v-3.8h-0.9v-0.5l0.9-0.4l0.4-1.4h0.6V34h1.9v0.8h-1.9v3.8c0,0.4,0.1,0.7,0.3,0.9S560.5,39.7,560.8,39.7z"/>
	<path id="XMLID_879_" class="st5" d="M568.5,37.2c0,1-0.3,1.9-0.8,2.5s-1.3,0.9-2.2,0.9c-0.6,0-1.1-0.1-1.5-0.4s-0.8-0.7-1-1.2
		s-0.4-1.1-0.4-1.8c0-1,0.3-1.9,0.8-2.4s1.3-0.9,2.2-0.9c0.9,0,1.6,0.3,2.1,0.9S568.5,36.2,568.5,37.2z M563.6,37.2
		c0,0.8,0.2,1.4,0.5,1.9s0.8,0.6,1.4,0.6s1.1-0.2,1.5-0.6s0.5-1.1,0.5-1.9c0-0.8-0.2-1.4-0.5-1.9s-0.8-0.6-1.5-0.6
		c-0.6,0-1.1,0.2-1.4,0.6S563.6,36.4,563.6,37.2z"/>
	<path id="XMLID_876_" class="st5" d="M576.3,33.9c0.8,0,1.5,0.3,2,0.9s0.7,1.4,0.7,2.4s-0.2,1.9-0.7,2.5s-1.1,0.9-2,0.9
		c-0.4,0-0.8-0.1-1.1-0.2s-0.6-0.4-0.9-0.7h-0.1l-0.2,0.8h-0.7v-9.1h1v2.2c0,0.5,0,0.9,0,1.3h0C574.8,34.2,575.4,33.9,576.3,33.9z
		 M576.2,34.7c-0.7,0-1.1,0.2-1.4,0.6s-0.4,1-0.4,1.9s0.2,1.5,0.5,1.9s0.8,0.6,1.4,0.6c0.6,0,1-0.2,1.3-0.7s0.4-1.1,0.4-1.9
		c0-0.8-0.1-1.5-0.4-1.9S576.8,34.7,576.2,34.7z"/>
	<path id="XMLID_874_" class="st5" d="M581.6,34v4.2c0,0.5,0.1,0.9,0.4,1.2s0.6,0.4,1.1,0.4c0.7,0,1.2-0.2,1.5-0.6s0.5-1,0.5-1.8V34
		h1v6.4h-0.8l-0.1-0.9H585c-0.2,0.3-0.5,0.6-0.8,0.7s-0.8,0.3-1.2,0.3c-0.8,0-1.4-0.2-1.8-0.6s-0.6-1-0.6-1.8V34H581.6z"/>
	<path id="XMLID_872_" class="st5" d="M587,34h1l1.4,3.7c0.3,0.8,0.5,1.4,0.6,1.8h0c0.1-0.2,0.2-0.5,0.3-1s0.7-2,1.6-4.5h1l-2.8,7.3
		c-0.3,0.7-0.6,1.2-1,1.5s-0.8,0.5-1.3,0.5c-0.3,0-0.6,0-0.9-0.1v-0.8c0.2,0,0.5,0.1,0.7,0.1c0.7,0,1.1-0.4,1.4-1.1l0.4-0.9L587,34z
		"/>
	<path id="XMLID_869_" class="st5" d="M604.8,36.1c0,1.1-0.2,2-0.7,2.7s-1.1,1.2-1.9,1.5l2,2.1h-1.4l-1.7-1.9l-0.3,0
		c-1.3,0-2.2-0.4-2.9-1.2s-1-1.9-1-3.3c0-1.4,0.3-2.5,1-3.2s1.7-1.2,2.9-1.2c1.2,0,2.2,0.4,2.9,1.2S604.8,34.7,604.8,36.1z
		 M598,36.1c0,1.2,0.2,2,0.7,2.6s1.2,0.9,2.2,0.9c0.9,0,1.7-0.3,2.2-0.9s0.7-1.5,0.7-2.6c0-1.2-0.2-2-0.7-2.6s-1.2-0.9-2.1-0.9
		c-0.9,0-1.7,0.3-2.2,0.9S598,35,598,36.1z"/>
	<path id="XMLID_867_" class="st5" d="M606.4,39.8c0-0.3,0.1-0.5,0.2-0.6s0.3-0.2,0.5-0.2c0.2,0,0.4,0.1,0.5,0.2s0.2,0.3,0.2,0.6
		c0,0.3-0.1,0.4-0.2,0.6s-0.3,0.2-0.5,0.2c-0.2,0-0.4-0.1-0.5-0.2S606.4,40.1,606.4,39.8z"/>
	<path id="XMLID_865_" class="st5" d="M615.7,40.4h-1v-7.7H612v-0.9h6.4v0.9h-2.7V40.4z"/>
	<path id="XMLID_862_" class="st5" d="M625.1,37.2c0,1-0.3,1.9-0.8,2.5s-1.3,0.9-2.2,0.9c-0.6,0-1.1-0.1-1.5-0.4s-0.8-0.7-1-1.2
		s-0.4-1.1-0.4-1.8c0-1,0.3-1.9,0.8-2.4s1.3-0.9,2.2-0.9c0.9,0,1.6,0.3,2.1,0.9S625.1,36.2,625.1,37.2z M620.2,37.2
		c0,0.8,0.2,1.4,0.5,1.9s0.8,0.6,1.4,0.6s1.1-0.2,1.5-0.6s0.5-1.1,0.5-1.9c0-0.8-0.2-1.4-0.5-1.9s-0.8-0.6-1.5-0.6
		c-0.6,0-1.1,0.2-1.4,0.6S620.2,36.4,620.2,37.2z"/>
	<path id="XMLID_860_" class="st5" d="M627.7,37.1c0.2-0.2,0.4-0.6,0.8-0.9l2.1-2.2h1.2l-2.6,2.7l2.8,3.7h-1.2l-2.3-3l-0.7,0.6v2.4
		h-1v-9.1h1v4.8C627.7,36.3,627.7,36.7,627.7,37.1L627.7,37.1z"/>
	<path id="XMLID_857_" class="st5" d="M635.8,40.5c-0.9,0-1.7-0.3-2.2-0.9s-0.8-1.4-0.8-2.4c0-1,0.3-1.9,0.8-2.5s1.2-0.9,2.1-0.9
		c0.8,0,1.4,0.3,1.9,0.8s0.7,1.2,0.7,2.1v0.6h-4.4c0,0.8,0.2,1.3,0.6,1.7s0.9,0.6,1.5,0.6c0.7,0,1.4-0.1,2.1-0.4v0.9
		c-0.3,0.1-0.7,0.3-1,0.3S636.2,40.5,635.8,40.5z M635.5,34.7c-0.5,0-0.9,0.2-1.2,0.5s-0.5,0.8-0.5,1.4h3.4c0-0.6-0.1-1.1-0.4-1.4
		S636,34.7,635.5,34.7z"/>
	<path id="XMLID_855_" class="st5" d="M644.2,40.4v-4.2c0-0.5-0.1-0.9-0.4-1.2s-0.6-0.4-1.1-0.4c-0.7,0-1.2,0.2-1.5,0.5
		s-0.5,1-0.5,1.8v3.4h-1V34h0.8l0.2,0.9h0c0.2-0.3,0.5-0.6,0.8-0.7s0.8-0.3,1.2-0.3c0.8,0,1.4,0.2,1.7,0.6s0.6,1,0.6,1.8v4.2H644.2z
		"/>
	<path id="XMLID_852_" class="st5" d="M655.8,37.2c0,1-0.3,1.9-0.8,2.5s-1.3,0.9-2.2,0.9c-0.6,0-1.1-0.1-1.5-0.4s-0.8-0.7-1-1.2
		s-0.4-1.1-0.4-1.8c0-1,0.3-1.9,0.8-2.4s1.3-0.9,2.2-0.9c0.9,0,1.6,0.3,2.1,0.9S655.8,36.2,655.8,37.2z M650.9,37.2
		c0,0.8,0.2,1.4,0.5,1.9s0.8,0.6,1.4,0.6s1.1-0.2,1.5-0.6s0.5-1.1,0.5-1.9c0-0.8-0.2-1.4-0.5-1.9s-0.8-0.6-1.5-0.6
		c-0.6,0-1.1,0.2-1.4,0.6S650.9,36.4,650.9,37.2z"/>
	<path id="XMLID_850_" class="st5" d="M661.9,40.4v-4.2c0-0.5-0.1-0.9-0.4-1.2s-0.6-0.4-1.1-0.4c-0.7,0-1.2,0.2-1.5,0.5
		s-0.5,1-0.5,1.8v3.4h-1V34h0.8l0.2,0.9h0c0.2-0.3,0.5-0.6,0.8-0.7s0.8-0.3,1.2-0.3c0.8,0,1.4,0.2,1.7,0.6s0.6,1,0.6,1.8v4.2H661.9z
		"/>
	<path id="XMLID_848_" class="st5" d="M670.1,39.7c0.2,0,0.3,0,0.5,0s0.3-0.1,0.4-0.1v0.7c-0.1,0.1-0.3,0.1-0.5,0.1s-0.4,0-0.6,0
		c-1.2,0-1.9-0.7-1.9-2v-3.8h-0.9v-0.5l0.9-0.4l0.4-1.4h0.6V34h1.9v0.8h-1.9v3.8c0,0.4,0.1,0.7,0.3,0.9S669.8,39.7,670.1,39.7z"/>
	<path id="XMLID_846_" class="st5" d="M676.6,40.4v-4.2c0-0.5-0.1-0.9-0.4-1.2s-0.6-0.4-1.1-0.4c-0.7,0-1.2,0.2-1.5,0.6
		s-0.5,1-0.5,1.8v3.4h-1v-9.1h1V34c0,0.3,0,0.6,0,0.8h0.1c0.2-0.3,0.5-0.6,0.8-0.7s0.8-0.3,1.2-0.3c0.8,0,1.4,0.2,1.8,0.6
		s0.6,1,0.6,1.8v4.2H676.6z"/>
	<path id="XMLID_843_" class="st5" d="M682.3,40.5c-0.9,0-1.7-0.3-2.2-0.9s-0.8-1.4-0.8-2.4c0-1,0.3-1.9,0.8-2.5s1.2-0.9,2.1-0.9
		c0.8,0,1.4,0.3,1.9,0.8s0.7,1.2,0.7,2.1v0.6h-4.4c0,0.8,0.2,1.3,0.6,1.7s0.9,0.6,1.5,0.6c0.7,0,1.4-0.1,2.1-0.4v0.9
		c-0.3,0.1-0.7,0.3-1,0.3S682.8,40.5,682.3,40.5z M682.1,34.7c-0.5,0-0.9,0.2-1.2,0.5s-0.5,0.8-0.5,1.4h3.4c0-0.6-0.1-1.1-0.4-1.4
		S682.6,34.7,682.1,34.7z"/>
	<path id="XMLID_840_" class="st5" d="M695,37.2c0,1-0.3,1.9-0.8,2.5s-1.3,0.9-2.2,0.9c-0.6,0-1.1-0.1-1.5-0.4s-0.8-0.7-1-1.2
		s-0.4-1.1-0.4-1.8c0-1,0.3-1.9,0.8-2.4s1.3-0.9,2.2-0.9c0.9,0,1.6,0.3,2.1,0.9S695,36.2,695,37.2z M690.1,37.2
		c0,0.8,0.2,1.4,0.5,1.9s0.8,0.6,1.4,0.6s1.1-0.2,1.5-0.6s0.5-1.1,0.5-1.9c0-0.8-0.2-1.4-0.5-1.9s-0.8-0.6-1.5-0.6
		c-0.6,0-1.1,0.2-1.4,0.6S690.1,36.4,690.1,37.2z"/>
	<path id="XMLID_837_" class="st5" d="M699.7,40.5c-0.4,0-0.8-0.1-1.1-0.2s-0.6-0.4-0.9-0.7h-0.1c0,0.4,0.1,0.7,0.1,1.1v2.6h-1V34
		h0.8l0.1,0.9h0c0.3-0.4,0.5-0.6,0.9-0.8s0.7-0.2,1.1-0.2c0.9,0,1.5,0.3,2,0.9s0.7,1.4,0.7,2.4c0,1.1-0.2,1.9-0.7,2.5
		S700.5,40.5,699.7,40.5z M699.6,34.7c-0.7,0-1.1,0.2-1.4,0.5s-0.4,0.9-0.5,1.7v0.2c0,0.9,0.2,1.5,0.5,1.9s0.8,0.6,1.4,0.6
		c0.6,0,1-0.2,1.3-0.7s0.5-1.1,0.5-1.9c0-0.8-0.2-1.4-0.5-1.8S700.1,34.7,699.6,34.7z"/>
	<path id="XMLID_834_" class="st5" d="M706.8,40.5c-0.9,0-1.7-0.3-2.2-0.9s-0.8-1.4-0.8-2.4c0-1,0.3-1.9,0.8-2.5s1.2-0.9,2.1-0.9
		c0.8,0,1.4,0.3,1.9,0.8s0.7,1.2,0.7,2.1v0.6h-4.4c0,0.8,0.2,1.3,0.6,1.7s0.9,0.6,1.5,0.6c0.7,0,1.4-0.1,2.1-0.4v0.9
		c-0.3,0.1-0.7,0.3-1,0.3S707.2,40.5,706.8,40.5z M706.5,34.7c-0.5,0-0.9,0.2-1.2,0.5s-0.5,0.8-0.5,1.4h3.4c0-0.6-0.1-1.1-0.4-1.4
		S707,34.7,706.5,34.7z"/>
	<path id="XMLID_832_" class="st5" d="M715.2,40.4v-4.2c0-0.5-0.1-0.9-0.4-1.2s-0.6-0.4-1.1-0.4c-0.7,0-1.2,0.2-1.5,0.5
		s-0.5,1-0.5,1.8v3.4h-1V34h0.8l0.2,0.9h0c0.2-0.3,0.5-0.6,0.8-0.7s0.8-0.3,1.2-0.3c0.8,0,1.4,0.2,1.7,0.6s0.6,1,0.6,1.8v4.2H715.2z
		"/>
	<path id="XMLID_830_" class="st5" d="M729.5,40.4v-4.2c0-0.5-0.1-0.9-0.3-1.2s-0.6-0.4-1-0.4c-0.6,0-1.1,0.2-1.3,0.5
		s-0.4,0.9-0.4,1.6v3.6h-1v-4.2c0-0.5-0.1-0.9-0.3-1.2s-0.6-0.4-1-0.4c-0.6,0-1.1,0.2-1.3,0.5s-0.4,1-0.4,1.8v3.4h-1V34h0.8l0.2,0.9
		h0c0.2-0.3,0.4-0.6,0.8-0.7s0.7-0.3,1.1-0.3c1,0,1.7,0.4,2,1.1h0c0.2-0.3,0.5-0.6,0.8-0.8s0.8-0.3,1.2-0.3c0.7,0,1.3,0.2,1.6,0.6
		s0.5,1,0.5,1.8v4.2H729.5z"/>
	<path id="XMLID_827_" class="st5" d="M736.4,40.4l-0.2-0.9h0c-0.3,0.4-0.6,0.7-1,0.8s-0.7,0.2-1.2,0.2c-0.6,0-1.1-0.2-1.5-0.5
		s-0.5-0.8-0.5-1.4c0-1.3,1-2,3.1-2l1.1,0v-0.4c0-0.5-0.1-0.9-0.3-1.1s-0.6-0.4-1-0.4c-0.5,0-1.1,0.2-1.8,0.5l-0.3-0.7
		c0.3-0.2,0.7-0.3,1-0.4s0.8-0.1,1.1-0.1c0.8,0,1.3,0.2,1.7,0.5s0.6,0.9,0.6,1.6v4.4H736.4z M734.2,39.7c0.6,0,1.1-0.2,1.4-0.5
		s0.5-0.8,0.5-1.4v-0.6l-1,0c-0.8,0-1.3,0.1-1.7,0.4s-0.5,0.5-0.5,1c0,0.4,0.1,0.6,0.3,0.8S733.8,39.7,734.2,39.7z"/>
	<path id="XMLID_825_" class="st5" d="M742,33.9c0.3,0,0.5,0,0.8,0.1l-0.1,0.9c-0.3-0.1-0.5-0.1-0.7-0.1c-0.5,0-1,0.2-1.3,0.6
		s-0.6,0.9-0.6,1.6v3.4h-1V34h0.8l0.1,1.2h0c0.2-0.4,0.5-0.7,0.9-1S741.6,33.9,742,33.9z"/>
	<path id="XMLID_823_" class="st5" d="M745,37.1c0.2-0.2,0.4-0.6,0.8-0.9l2.1-2.2h1.2l-2.6,2.7l2.8,3.7H748l-2.3-3L745,38v2.4h-1
		v-9.1h1v4.8C745,36.3,745,36.7,745,37.1L745,37.1z"/>
	<path id="XMLID_820_" class="st5" d="M753,40.5c-0.9,0-1.7-0.3-2.2-0.9s-0.8-1.4-0.8-2.4c0-1,0.3-1.9,0.8-2.5s1.2-0.9,2.1-0.9
		c0.8,0,1.4,0.3,1.9,0.8s0.7,1.2,0.7,2.1v0.6H751c0,0.8,0.2,1.3,0.6,1.7s0.9,0.6,1.5,0.6c0.7,0,1.4-0.1,2.1-0.4v0.9
		c-0.3,0.1-0.7,0.3-1,0.3S753.5,40.5,753,40.5z M752.8,34.7c-0.5,0-0.9,0.2-1.2,0.5S751,36,751,36.6h3.4c0-0.6-0.1-1.1-0.4-1.4
		S753.3,34.7,752.8,34.7z"/>
	<path id="XMLID_818_" class="st5" d="M759.1,39.7c0.2,0,0.3,0,0.5,0s0.3-0.1,0.4-0.1v0.7c-0.1,0.1-0.3,0.1-0.5,0.1s-0.4,0-0.6,0
		c-1.2,0-1.9-0.7-1.9-2v-3.8h-0.9v-0.5l0.9-0.4l0.4-1.4h0.6V34h1.9v0.8h-1.9v3.8c0,0.4,0.1,0.7,0.3,0.9S758.8,39.7,759.1,39.7z"/>
	<path id="XMLID_816_" class="st5" d="M606.2,55.1c0-1,0.2-2,0.5-2.9s0.7-1.7,1.3-2.4h0.9c-0.6,0.8-1,1.6-1.3,2.5s-0.4,1.8-0.4,2.8
		c0,0.9,0.1,1.9,0.4,2.7s0.7,1.7,1.2,2.4h-0.9c-0.6-0.7-1-1.4-1.3-2.3S606.2,56.1,606.2,55.1z"/>
	<path id="XMLID_813_" class="st5" d="M615.5,54.1c0,1.5-0.2,2.6-0.7,3.3s-1.2,1.1-2.1,1.1c-0.9,0-1.6-0.4-2.1-1.1s-0.7-1.8-0.7-3.3
		c0-1.5,0.2-2.6,0.7-3.3s1.2-1.1,2.1-1.1c0.9,0,1.6,0.4,2.1,1.1S615.5,52.7,615.5,54.1z M610.8,54.1c0,1.2,0.1,2.2,0.4,2.7
		s0.8,0.9,1.4,0.9c0.6,0,1.1-0.3,1.4-0.9s0.4-1.5,0.4-2.7s-0.1-2.1-0.4-2.7s-0.8-0.9-1.4-0.9c-0.6,0-1.1,0.3-1.4,0.8
		S610.8,52.9,610.8,54.1z"/>
	<path id="XMLID_811_" class="st5" d="M617,57.8c0-0.3,0.1-0.5,0.2-0.6s0.3-0.2,0.5-0.2c0.2,0,0.4,0.1,0.5,0.2s0.2,0.3,0.2,0.6
		c0,0.3-0.1,0.4-0.2,0.6s-0.3,0.2-0.5,0.2c-0.2,0-0.4-0.1-0.5-0.2S617,58.1,617,57.8z"/>
	<path id="XMLID_809_" class="st5" d="M623.5,58.4h-0.9v-6.1c0-0.5,0-1,0-1.4c-0.1,0.1-0.2,0.2-0.3,0.3s-0.6,0.5-1.4,1.1l-0.5-0.7
		l2.3-1.8h0.8V58.4z"/>
	<path id="XMLID_807_" class="st5" d="M629.4,53.2c0.9,0,1.6,0.2,2.1,0.7s0.8,1.1,0.8,1.8c0,0.9-0.3,1.6-0.8,2.1s-1.3,0.8-2.3,0.8
		c-1,0-1.7-0.2-2.2-0.5v-0.9c0.3,0.2,0.6,0.3,1,0.4s0.8,0.1,1.2,0.1c0.7,0,1.2-0.2,1.6-0.5s0.6-0.8,0.6-1.4c0-1.2-0.7-1.8-2.2-1.8
		c-0.4,0-0.9,0.1-1.5,0.2l-0.5-0.3l0.3-4h4.3v0.9h-3.4l-0.2,2.6C628.5,53.2,629,53.2,629.4,53.2z"/>
	<path id="XMLID_801_" class="st5" d="M637.1,52.4c0,0.9-0.1,1.6-0.4,2s-0.7,0.7-1.3,0.7c-0.5,0-1-0.2-1.3-0.7s-0.5-1.1-0.5-2
		c0-0.9,0.1-1.6,0.4-2s0.7-0.7,1.3-0.7c0.6,0,1,0.2,1.3,0.7S637.1,51.5,637.1,52.4z M634.5,52.4c0,0.7,0.1,1.2,0.2,1.5
		s0.4,0.5,0.7,0.5c0.6,0,1-0.7,1-2c0-1.3-0.3-2-1-2c-0.3,0-0.6,0.2-0.7,0.5S634.5,51.7,634.5,52.4z M640.8,49.8l-4.8,8.6h-0.9
		l4.8-8.6H640.8z M642.3,55.8c0,0.9-0.1,1.6-0.4,2s-0.7,0.7-1.3,0.7c-0.6,0-1-0.2-1.3-0.7s-0.4-1.1-0.4-2c0-0.9,0.1-1.6,0.4-2
		s0.7-0.7,1.3-0.7c0.6,0,1,0.2,1.3,0.7S642.3,55,642.3,55.8z M639.6,55.8c0,0.7,0.1,1.2,0.2,1.5s0.4,0.5,0.7,0.5s0.6-0.2,0.7-0.5
		s0.2-0.8,0.2-1.5c0-0.7-0.1-1.2-0.2-1.5s-0.4-0.5-0.7-0.5s-0.6,0.2-0.7,0.5S639.6,55.2,639.6,55.8z"/>
	<path id="XMLID_799_" class="st5" d="M649.1,57.7c0.2,0,0.3,0,0.5,0s0.3-0.1,0.4-0.1v0.7c-0.1,0.1-0.3,0.1-0.5,0.1s-0.4,0-0.6,0
		c-1.2,0-1.9-0.7-1.9-2v-3.8h-0.9v-0.5l0.9-0.4l0.4-1.4h0.6V52h1.9v0.8h-1.9v3.8c0,0.4,0.1,0.7,0.3,0.9S648.8,57.7,649.1,57.7z"/>
	<path id="XMLID_797_" class="st5" d="M654.2,51.9c0.3,0,0.5,0,0.8,0.1l-0.1,0.9c-0.3-0.1-0.5-0.1-0.7-0.1c-0.5,0-1,0.2-1.3,0.6
		s-0.6,0.9-0.6,1.6v3.4h-1V52h0.8l0.1,1.2h0c0.2-0.4,0.5-0.7,0.9-1S653.8,51.9,654.2,51.9z"/>
	<path id="XMLID_794_" class="st5" d="M660.1,58.4l-0.2-0.9h0c-0.3,0.4-0.6,0.7-1,0.8s-0.7,0.2-1.2,0.2c-0.6,0-1.1-0.2-1.5-0.5
		s-0.5-0.8-0.5-1.4c0-1.3,1-2,3.1-2l1.1,0v-0.4c0-0.5-0.1-0.9-0.3-1.1s-0.6-0.4-1-0.4c-0.5,0-1.1,0.2-1.8,0.5l-0.3-0.7
		c0.3-0.2,0.7-0.3,1-0.4s0.8-0.1,1.1-0.1c0.8,0,1.3,0.2,1.7,0.5s0.6,0.9,0.6,1.6v4.4H660.1z M657.9,57.7c0.6,0,1.1-0.2,1.4-0.5
		s0.5-0.8,0.5-1.4v-0.6l-1,0c-0.8,0-1.3,0.1-1.7,0.4s-0.5,0.5-0.5,1c0,0.4,0.1,0.6,0.3,0.8S657.6,57.7,657.9,57.7z"/>
	<path id="XMLID_791_" class="st5" d="M667.2,57.5L667.2,57.5c-0.5,0.7-1.2,1-2.1,1c-0.8,0-1.5-0.3-2-0.9s-0.7-1.4-0.7-2.4
		s0.2-1.9,0.7-2.5s1.1-0.9,2-0.9c0.9,0,1.5,0.3,2,0.9h0.1l0-0.5l0-0.5v-2.6h1v9.1h-0.8L667.2,57.5z M665.3,57.7
		c0.7,0,1.1-0.2,1.4-0.5s0.4-0.9,0.4-1.7v-0.2c0-0.9-0.2-1.6-0.5-1.9s-0.8-0.6-1.5-0.6c-0.6,0-1,0.2-1.3,0.7s-0.5,1.1-0.5,1.9
		c0,0.8,0.2,1.4,0.5,1.9S664.7,57.7,665.3,57.7z"/>
	<path id="XMLID_788_" class="st5" d="M670.1,50.2c0-0.2,0.1-0.4,0.2-0.5s0.2-0.2,0.4-0.2c0.2,0,0.3,0.1,0.4,0.2s0.2,0.3,0.2,0.5
		s-0.1,0.4-0.2,0.5s-0.2,0.2-0.4,0.2c-0.2,0-0.3-0.1-0.4-0.2S670.1,50.5,670.1,50.2z M671.2,58.4h-1V52h1V58.4z"/>
	<path id="XMLID_786_" class="st5" d="M677.7,58.4v-4.2c0-0.5-0.1-0.9-0.4-1.2s-0.6-0.4-1.1-0.4c-0.7,0-1.2,0.2-1.5,0.5
		s-0.5,1-0.5,1.8v3.4h-1V52h0.8l0.2,0.9h0c0.2-0.3,0.5-0.6,0.8-0.7s0.8-0.3,1.2-0.3c0.8,0,1.4,0.2,1.7,0.6s0.6,1,0.6,1.8v4.2H677.7z
		"/>
	<path id="XMLID_782_" class="st5" d="M685.9,52v0.6l-1.2,0.1c0.1,0.1,0.2,0.3,0.3,0.5s0.1,0.5,0.1,0.7c0,0.6-0.2,1.1-0.6,1.5
		s-1,0.6-1.8,0.6c-0.2,0-0.4,0-0.5,0c-0.4,0.2-0.6,0.5-0.6,0.8c0,0.2,0.1,0.3,0.2,0.4s0.4,0.1,0.7,0.1h1.1c0.7,0,1.2,0.1,1.6,0.4
		s0.6,0.7,0.6,1.3c0,0.7-0.3,1.3-0.9,1.6s-1.4,0.6-2.5,0.6c-0.8,0-1.5-0.2-1.9-0.5s-0.7-0.8-0.7-1.3c0-0.4,0.1-0.7,0.4-1
		s0.6-0.5,1.1-0.6c-0.2-0.1-0.3-0.2-0.4-0.3s-0.2-0.3-0.2-0.5c0-0.2,0.1-0.4,0.2-0.6s0.3-0.3,0.6-0.5c-0.3-0.1-0.6-0.4-0.8-0.7
		s-0.3-0.7-0.3-1.1c0-0.7,0.2-1.2,0.6-1.6s1-0.6,1.8-0.6c0.3,0,0.6,0,0.9,0.1H685.9z M680.8,59.5c0,0.3,0.1,0.6,0.4,0.8
		s0.7,0.3,1.3,0.3c0.8,0,1.4-0.1,1.8-0.4s0.6-0.6,0.6-1c0-0.3-0.1-0.6-0.3-0.7s-0.6-0.2-1.2-0.2h-1.2c-0.4,0-0.8,0.1-1,0.3
		S680.8,59.1,680.8,59.5z M681.3,54c0,0.4,0.1,0.8,0.4,1s0.6,0.3,1.1,0.3c0.9,0,1.4-0.5,1.4-1.4c0-1-0.5-1.4-1.4-1.4
		c-0.5,0-0.8,0.1-1.1,0.4S681.3,53.5,681.3,54z"/>
	<path id="XMLID_780_" class="st5" d="M692.9,58.5c-0.9,0-1.6-0.3-2.2-0.9s-0.8-1.4-0.8-2.4c0-1.1,0.3-1.9,0.8-2.5s1.3-0.9,2.2-0.9
		c0.3,0,0.6,0,0.9,0.1s0.6,0.1,0.7,0.2l-0.3,0.8c-0.2-0.1-0.4-0.2-0.7-0.2s-0.5-0.1-0.7-0.1c-1.3,0-2,0.8-2,2.5
		c0,0.8,0.2,1.4,0.5,1.8s0.8,0.6,1.4,0.6c0.5,0,1.1-0.1,1.6-0.3v0.9C694.1,58.4,693.5,58.5,692.9,58.5z"/>
	<path id="XMLID_777_" class="st5" d="M701.6,55.2c0,1-0.3,1.9-0.8,2.5s-1.3,0.9-2.2,0.9c-0.6,0-1.1-0.1-1.5-0.4s-0.8-0.7-1-1.2
		s-0.4-1.1-0.4-1.8c0-1,0.3-1.9,0.8-2.4s1.3-0.9,2.2-0.9c0.9,0,1.6,0.3,2.1,0.9S701.6,54.2,701.6,55.2z M696.7,55.2
		c0,0.8,0.2,1.4,0.5,1.9s0.8,0.6,1.4,0.6s1.1-0.2,1.5-0.6s0.5-1.1,0.5-1.9c0-0.8-0.2-1.4-0.5-1.9s-0.8-0.6-1.5-0.6
		c-0.6,0-1.1,0.2-1.4,0.6S696.7,54.4,696.7,55.2z"/>
	<path id="XMLID_775_" class="st5" d="M711.5,58.4v-4.2c0-0.5-0.1-0.9-0.3-1.2s-0.6-0.4-1-0.4c-0.6,0-1.1,0.2-1.3,0.5
		s-0.4,0.9-0.4,1.6v3.6h-1v-4.2c0-0.5-0.1-0.9-0.3-1.2s-0.6-0.4-1-0.4c-0.6,0-1.1,0.2-1.3,0.5s-0.4,1-0.4,1.8v3.4h-1V52h0.8l0.2,0.9
		h0c0.2-0.3,0.4-0.6,0.8-0.7s0.7-0.3,1.1-0.3c1,0,1.7,0.4,2,1.1h0c0.2-0.3,0.5-0.6,0.8-0.8s0.8-0.3,1.2-0.3c0.7,0,1.3,0.2,1.6,0.6
		s0.5,1,0.5,1.8v4.2H711.5z"/>
	<path id="XMLID_773_" class="st5" d="M722.6,58.4v-4.2c0-0.5-0.1-0.9-0.3-1.2s-0.6-0.4-1-0.4c-0.6,0-1.1,0.2-1.3,0.5
		s-0.4,0.9-0.4,1.6v3.6h-1v-4.2c0-0.5-0.1-0.9-0.3-1.2s-0.6-0.4-1-0.4c-0.6,0-1.1,0.2-1.3,0.5s-0.4,1-0.4,1.8v3.4h-1V52h0.8l0.2,0.9
		h0c0.2-0.3,0.4-0.6,0.8-0.7s0.7-0.3,1.1-0.3c1,0,1.7,0.4,2,1.1h0c0.2-0.3,0.5-0.6,0.8-0.8s0.8-0.3,1.2-0.3c0.7,0,1.3,0.2,1.6,0.6
		s0.5,1,0.5,1.8v4.2H722.6z"/>
	<path id="XMLID_770_" class="st5" d="M725.5,50.2c0-0.2,0.1-0.4,0.2-0.5s0.2-0.2,0.4-0.2c0.2,0,0.3,0.1,0.4,0.2s0.2,0.3,0.2,0.5
		s-0.1,0.4-0.2,0.5s-0.2,0.2-0.4,0.2c-0.2,0-0.3-0.1-0.4-0.2S725.5,50.5,725.5,50.2z M726.6,58.4h-1V52h1V58.4z"/>
	<path id="XMLID_768_" class="st5" d="M732.8,56.6c0,0.6-0.2,1.1-0.7,1.4s-1.1,0.5-1.9,0.5c-0.9,0-1.5-0.1-2-0.4v-0.9
		c0.3,0.2,0.6,0.3,1,0.4s0.7,0.1,1,0.1c0.5,0,0.9-0.1,1.2-0.2s0.4-0.4,0.4-0.7c0-0.3-0.1-0.5-0.3-0.6s-0.6-0.4-1.3-0.6
		c-0.6-0.2-1-0.4-1.3-0.6s-0.4-0.4-0.6-0.6s-0.2-0.5-0.2-0.8c0-0.5,0.2-0.9,0.6-1.2s1-0.5,1.8-0.5c0.7,0,1.4,0.1,2,0.4l-0.3,0.8
		c-0.6-0.3-1.2-0.4-1.8-0.4c-0.5,0-0.8,0.1-1,0.2s-0.4,0.3-0.4,0.6c0,0.2,0,0.3,0.1,0.4s0.2,0.2,0.4,0.3s0.6,0.3,1.1,0.5
		c0.8,0.3,1.3,0.6,1.5,0.8S732.8,56.2,732.8,56.6z"/>
	<path id="XMLID_766_" class="st5" d="M738.5,56.6c0,0.6-0.2,1.1-0.7,1.4s-1.1,0.5-1.9,0.5c-0.9,0-1.5-0.1-2-0.4v-0.9
		c0.3,0.2,0.6,0.3,1,0.4s0.7,0.1,1,0.1c0.5,0,0.9-0.1,1.2-0.2s0.4-0.4,0.4-0.7c0-0.3-0.1-0.5-0.3-0.6s-0.6-0.4-1.3-0.6
		c-0.6-0.2-1-0.4-1.3-0.6s-0.4-0.4-0.6-0.6s-0.2-0.5-0.2-0.8c0-0.5,0.2-0.9,0.6-1.2s1-0.5,1.8-0.5c0.7,0,1.4,0.1,2,0.4l-0.3,0.8
		c-0.6-0.3-1.2-0.4-1.8-0.4c-0.5,0-0.8,0.1-1,0.2s-0.4,0.3-0.4,0.6c0,0.2,0,0.3,0.1,0.4s0.2,0.2,0.4,0.3s0.6,0.3,1.1,0.5
		c0.8,0.3,1.3,0.6,1.5,0.8S738.5,56.2,738.5,56.6z"/>
	<path id="XMLID_763_" class="st5" d="M740,50.2c0-0.2,0.1-0.4,0.2-0.5s0.2-0.2,0.4-0.2c0.2,0,0.3,0.1,0.4,0.2s0.2,0.3,0.2,0.5
		s-0.1,0.4-0.2,0.5s-0.2,0.2-0.4,0.2c-0.2,0-0.3-0.1-0.4-0.2S740,50.5,740,50.2z M741.1,58.4h-1V52h1V58.4z"/>
	<path id="XMLID_760_" class="st5" d="M748.7,55.2c0,1-0.3,1.9-0.8,2.5s-1.3,0.9-2.2,0.9c-0.6,0-1.1-0.1-1.5-0.4s-0.8-0.7-1-1.2
		s-0.4-1.1-0.4-1.8c0-1,0.3-1.9,0.8-2.4s1.3-0.9,2.2-0.9c0.9,0,1.6,0.3,2.1,0.9S748.7,54.2,748.7,55.2z M743.8,55.2
		c0,0.8,0.2,1.4,0.5,1.9s0.8,0.6,1.4,0.6s1.1-0.2,1.5-0.6s0.5-1.1,0.5-1.9c0-0.8-0.2-1.4-0.5-1.9s-0.8-0.6-1.5-0.6
		c-0.6,0-1.1,0.2-1.4,0.6S743.8,54.4,743.8,55.2z"/>
	<path id="XMLID_758_" class="st5" d="M754.8,58.4v-4.2c0-0.5-0.1-0.9-0.4-1.2s-0.6-0.4-1.1-0.4c-0.7,0-1.2,0.2-1.5,0.5
		s-0.5,1-0.5,1.8v3.4h-1V52h0.8l0.2,0.9h0c0.2-0.3,0.5-0.6,0.8-0.7s0.8-0.3,1.2-0.3c0.8,0,1.4,0.2,1.7,0.6s0.6,1,0.6,1.8v4.2H754.8z
		"/>
	<path id="XMLID_756_" class="st5" d="M759.8,55.1c0,1-0.2,2-0.5,2.9s-0.7,1.7-1.3,2.3h-0.9c0.5-0.7,1-1.5,1.2-2.4s0.4-1.8,0.4-2.8
		c0-1-0.1-1.9-0.4-2.8s-0.7-1.7-1.3-2.5h0.9c0.6,0.7,1,1.5,1.3,2.4S759.8,54.1,759.8,55.1z"/>
</g>
<g id="XMLID_752_">
	<path id="XMLID_753_" class="st1" d="M128.3,146.3h-4v-25.4c0-2.1,0.1-4.1,0.2-6c-0.3,0.3-0.7,0.7-1.1,1.1c-0.4,0.4-2.4,2-5.8,4.8
		l-2.1-2.8l9.4-7.3h3.4V146.3z"/>
</g>
<g id="XMLID_749_">
	<path id="XMLID_750_" class="st1" d="M434.5,171.7h-23.5v-3.5l9.4-9.4c2.9-2.9,4.8-5,5.7-6.2c0.9-1.2,1.6-2.4,2.1-3.6
		s0.7-2.4,0.7-3.8c0-1.9-0.6-3.4-1.7-4.5c-1.2-1.1-2.8-1.7-4.8-1.7c-1.5,0-2.9,0.2-4.2,0.7c-1.3,0.5-2.8,1.4-4.4,2.7l-2.1-2.8
		c3.3-2.7,6.9-4.1,10.7-4.1c3.4,0,6,0.9,7.9,2.6c1.9,1.7,2.9,4,2.9,6.9c0,2.3-0.6,4.5-1.9,6.7c-1.3,2.2-3.6,5-7.1,8.4l-7.8,7.6v0.2
		h18.4V171.7z"/>
</g>
<g id="XMLID_746_">
	<path id="XMLID_747_" class="st1" d="M591,69c0,2.3-0.6,4.1-1.9,5.6c-1.3,1.4-3.1,2.4-5.4,2.9v0.2c2.9,0.4,5,1.3,6.4,2.7
		s2.1,3.4,2.1,5.8c0,3.4-1.2,6-3.5,7.8s-5.7,2.7-10.1,2.7c-1.9,0-3.6-0.1-5.2-0.4c-1.6-0.3-3.1-0.8-4.6-1.5V91
		c1.5,0.8,3.2,1.3,4.9,1.7c1.7,0.4,3.4,0.6,5,0.6c6.2,0,9.3-2.4,9.3-7.3c0-4.3-3.4-6.5-10.2-6.5h-3.5v-3.5h3.6c2.8,0,5-0.6,6.6-1.8
		c1.6-1.2,2.4-2.9,2.4-5.1c0-1.7-0.6-3.1-1.8-4.1c-1.2-1-2.8-1.5-4.9-1.5c-1.6,0-3,0.2-4.4,0.6c-1.4,0.4-3,1.2-4.7,2.3l-2.1-2.7
		c1.5-1.2,3.2-2.1,5.1-2.7c1.9-0.7,3.9-1,6-1c3.5,0,6.2,0.8,8.1,2.4S591,66.2,591,69z"/>
</g>
<g id="XMLID_2_">
	<g id="XMLID_1237_">
		<g id="XMLID_1238_">
			<path id="XMLID_1239_" class="st1" d="M395.2,213.7H531c1.5,0,2.7,1.1,2.7,2.5v49.3c0,1.4-1.2,2.5-2.7,2.5H395.2
				c-1.5,0-2.7-1.1-2.7-2.5v-49.3C392.5,214.8,393.7,213.7,395.2,213.7z"/>
		</g>
	</g>
	<g id="XMLID_718_">
		<path id="XMLID_743_" class="st3" d="M416.6,239.6c0,1.5-0.3,2.7-0.9,3.6s-1.4,1.6-2.5,2l2.7,2.8H414l-2.2-2.6l-0.4,0
			c-1.7,0-3-0.5-3.9-1.5s-1.4-2.5-1.4-4.4c0-1.9,0.5-3.3,1.4-4.3s2.2-1.5,3.9-1.5c1.6,0,2.9,0.5,3.8,1.6S416.6,237.7,416.6,239.6z
			 M407.5,239.6c0,1.5,0.3,2.7,1,3.5s1.6,1.2,2.9,1.2c1.3,0,2.2-0.4,2.9-1.2s1-2,1-3.5c0-1.5-0.3-2.7-1-3.5s-1.6-1.2-2.9-1.2
			c-1.3,0-2.2,0.4-2.9,1.2S407.5,238,407.5,239.6z"/>
		<path id="XMLID_741_" class="st3" d="M418.7,244.5c0-0.3,0.1-0.6,0.2-0.8s0.4-0.3,0.7-0.3c0.3,0,0.5,0.1,0.7,0.3s0.3,0.4,0.3,0.8
			c0,0.3-0.1,0.6-0.3,0.8s-0.4,0.3-0.7,0.3c-0.3,0-0.5-0.1-0.7-0.2S418.7,244.8,418.7,244.5z"/>
		<path id="XMLID_738_" class="st3" d="M434.7,245.3l-1.4-3.6h-4.6l-1.4,3.6H426l4.5-11.5h1.1l4.5,11.5H434.7z M432.9,240.5
			l-1.3-3.5c-0.2-0.4-0.3-1-0.5-1.6c-0.1,0.5-0.3,1-0.5,1.6l-1.3,3.5H432.9z"/>
		<path id="XMLID_735_" class="st3" d="M439,240.5v4.8h-1.3v-11.4h3.1c1.4,0,2.4,0.3,3.1,0.8s1,1.3,1,2.4c0,1.5-0.8,2.5-2.3,3.1
			l3.1,5.1h-1.6l-2.8-4.8H439z M439,239.4h1.8c0.9,0,1.6-0.2,2.1-0.6s0.7-0.9,0.7-1.7c0-0.8-0.2-1.3-0.7-1.6s-1.2-0.5-2.1-0.5H439
			V239.4z"/>
		<path id="XMLID_733_" class="st3" d="M451.1,245.3h-1.3V235h-3.6v-1.2h8.6v1.2h-3.6V245.3z"/>
		<path id="XMLID_731_" class="st3" d="M465.1,245.3h-1.3v-5.4h-6v5.4h-1.3v-11.4h1.3v4.9h6v-4.9h1.3V245.3z"/>
		<path id="XMLID_729_" class="st3" d="M476.8,233.9v7.4c0,1.3-0.4,2.3-1.2,3.1s-1.9,1.1-3.2,1.1s-2.4-0.4-3.2-1.1s-1.1-1.8-1.1-3.1
			v-7.4h1.3v7.5c0,1,0.3,1.7,0.8,2.2s1.3,0.8,2.3,0.8c1,0,1.7-0.3,2.2-0.8s0.8-1.2,0.8-2.2v-7.4H476.8z"/>
		<path id="XMLID_726_" class="st3" d="M481.2,240.5v4.8h-1.3v-11.4h3.1c1.4,0,2.4,0.3,3.1,0.8s1,1.3,1,2.4c0,1.5-0.8,2.5-2.3,3.1
			l3.1,5.1h-1.6l-2.8-4.8H481.2z M481.2,239.4h1.8c0.9,0,1.6-0.2,2.1-0.6s0.7-0.9,0.7-1.7c0-0.8-0.2-1.3-0.7-1.6s-1.2-0.5-2.1-0.5
			h-1.7V239.4z"/>
		<path id="XMLID_724_" class="st3" d="M493.9,245.3v-11.4h1.3v10.2h5v1.2H493.9z"/>
		<path id="XMLID_722_" class="st3" d="M505.7,245.3h-1.3V235h-3.6v-1.2h8.6v1.2h-3.6V245.3z"/>
		<path id="XMLID_719_" class="st3" d="M520.2,239.5c0,1.9-0.5,3.3-1.5,4.3s-2.5,1.5-4.4,1.5h-3.2v-11.4h3.5c1.8,0,3.2,0.5,4.1,1.5
			S520.2,237.7,520.2,239.5z M518.8,239.5c0-1.5-0.4-2.6-1.1-3.4s-1.9-1.1-3.3-1.1h-1.9v9.1h1.6c1.6,0,2.8-0.4,3.6-1.2
			S518.8,241,518.8,239.5z"/>
	</g>
</g>
<g id="XMLID_695_">
	<path id="XMLID_714_" class="st3" d="M652.7,104.5h3.2c1.5,0,2.6,0.2,3.3,0.7s1,1.2,1,2.1c0,0.7-0.2,1.2-0.6,1.7
		c-0.4,0.4-0.9,0.7-1.7,0.9v0.1c1.7,0.3,2.6,1.2,2.6,2.7c0,1-0.3,1.8-1,2.4c-0.7,0.6-1.7,0.9-2.9,0.9h-4V104.5z M654,109.4h2.2
		c0.9,0,1.6-0.1,2-0.4c0.4-0.3,0.6-0.8,0.6-1.5c0-0.6-0.2-1.1-0.7-1.4c-0.5-0.3-1.2-0.4-2.2-0.4h-2V109.4z M654,110.5v4.3h2.4
		c0.9,0,1.6-0.2,2.1-0.5c0.5-0.4,0.7-0.9,0.7-1.7c0-0.7-0.2-1.2-0.7-1.6c-0.5-0.3-1.2-0.5-2.2-0.5H654z"/>
	<path id="XMLID_712_" class="st3" d="M671.7,104.5v7.4c0,1.3-0.4,2.3-1.2,3.1c-0.8,0.7-1.9,1.1-3.2,1.1s-2.4-0.4-3.2-1.1
		s-1.1-1.8-1.1-3.1v-7.4h1.3v7.5c0,1,0.3,1.7,0.8,2.2c0.5,0.5,1.3,0.8,2.3,0.8c1,0,1.7-0.3,2.2-0.8c0.5-0.5,0.8-1.2,0.8-2.2v-7.4
		H671.7z"/>
	<path id="XMLID_710_" class="st3" d="M677.6,110.2l3-5.7h1.4l-3.8,7v4.4h-1.3v-4.4l-3.8-7.1h1.5L677.6,110.2z"/>
	<path id="XMLID_707_" class="st3" d="M682.7,112.2V111h3.8v1.2H682.7z"/>
	<path id="XMLID_703_" class="st3" d="M688.8,104.5h3.2c1.5,0,2.6,0.2,3.3,0.7s1,1.2,1,2.1c0,0.7-0.2,1.2-0.6,1.7
		c-0.4,0.4-0.9,0.7-1.7,0.9v0.1c1.7,0.3,2.6,1.2,2.6,2.7c0,1-0.3,1.8-1,2.4c-0.7,0.6-1.7,0.9-2.9,0.9h-4V104.5z M690.1,109.4h2.2
		c0.9,0,1.6-0.1,2-0.4c0.4-0.3,0.6-0.8,0.6-1.5c0-0.6-0.2-1.1-0.7-1.4c-0.5-0.3-1.2-0.4-2.2-0.4h-2V109.4z M690.1,110.5v4.3h2.4
		c0.9,0,1.6-0.2,2.1-0.5c0.5-0.4,0.7-0.9,0.7-1.7c0-0.7-0.2-1.2-0.7-1.6c-0.5-0.3-1.2-0.5-2.2-0.5H690.1z"/>
	<path id="XMLID_700_" class="st3" d="M706.3,115.9l-1.4-3.6h-4.6l-1.4,3.6h-1.3l4.5-11.5h1.1l4.5,11.5H706.3z M704.5,111.1
		l-1.3-3.5c-0.2-0.4-0.3-1-0.5-1.6c-0.1,0.5-0.3,1-0.5,1.6l-1.3,3.5H704.5z"/>
	<path id="XMLID_698_" class="st3" d="M714.2,105.5c-1.3,0-2.2,0.4-3,1.3s-1.1,2-1.1,3.4c0,1.5,0.4,2.6,1.1,3.5
		c0.7,0.8,1.7,1.2,3,1.2c0.8,0,1.7-0.1,2.7-0.4v1.2c-0.8,0.3-1.8,0.4-2.9,0.4c-1.7,0-3-0.5-3.9-1.5c-0.9-1-1.4-2.5-1.4-4.4
		c0-1.2,0.2-2.2,0.7-3.1c0.4-0.9,1.1-1.6,1.9-2c0.8-0.5,1.8-0.7,2.9-0.7c1.2,0,2.2,0.2,3.1,0.7l-0.6,1.1
		C715.9,105.7,715,105.5,714.2,105.5z"/>
	<path id="XMLID_696_" class="st3" d="M727.6,115.9h-1.6l-4.2-5.5l-1.2,1.1v4.5h-1.3v-11.4h1.3v5.7l5.2-5.7h1.6l-4.6,5L727.6,115.9z
		"/>
</g>
<g id="XMLID_42_">
	<path id="XMLID_692_" class="st3" d="M224.8,99.2c0,1.5-0.3,2.7-0.9,3.6s-1.4,1.6-2.5,2l2.7,2.8h-1.9l-2.2-2.6l-0.4,0
		c-1.7,0-3-0.5-3.9-1.5c-0.9-1-1.4-2.5-1.4-4.4c0-1.9,0.5-3.3,1.4-4.3s2.2-1.5,3.9-1.5c1.6,0,2.9,0.5,3.8,1.6
		C224.4,96,224.8,97.4,224.8,99.2z M215.7,99.2c0,1.5,0.3,2.7,1,3.5c0.7,0.8,1.6,1.2,2.9,1.2c1.3,0,2.2-0.4,2.9-1.2s1-2,1-3.5
		c0-1.5-0.3-2.7-1-3.5c-0.6-0.8-1.6-1.2-2.9-1.2c-1.3,0-2.2,0.4-2.9,1.2C216.1,96.6,215.7,97.7,215.7,99.2z"/>
	<path id="XMLID_690_" class="st3" d="M227,104.1c0-0.3,0.1-0.6,0.2-0.8s0.4-0.3,0.7-0.3c0.3,0,0.5,0.1,0.7,0.3s0.3,0.4,0.3,0.8
		c0,0.3-0.1,0.6-0.3,0.8c-0.2,0.2-0.4,0.3-0.7,0.3c-0.3,0-0.5-0.1-0.7-0.2S227,104.5,227,104.1z"/>
	<path id="XMLID_687_" class="st3" d="M243,105l-1.4-3.6H237l-1.4,3.6h-1.3l4.5-11.5h1.1l4.5,11.5H243z M241.2,100.1l-1.3-3.5
		c-0.2-0.4-0.3-1-0.5-1.6c-0.1,0.5-0.3,1-0.5,1.6l-1.3,3.5H241.2z"/>
	<path id="XMLID_684_" class="st3" d="M247.3,100.2v4.8h-1.3V93.5h3.1c1.4,0,2.4,0.3,3.1,0.8c0.7,0.5,1,1.3,1,2.4
		c0,1.5-0.8,2.5-2.3,3.1l3.1,5.1h-1.6l-2.8-4.8H247.3z M247.3,99.1h1.8c0.9,0,1.6-0.2,2.1-0.6c0.4-0.4,0.7-0.9,0.7-1.7
		c0-0.8-0.2-1.3-0.7-1.6c-0.4-0.3-1.2-0.5-2.1-0.5h-1.7V99.1z"/>
	<path id="XMLID_682_" class="st3" d="M259.3,105H258V94.7h-3.6v-1.2h8.6v1.2h-3.6V105z"/>
	<path id="XMLID_75_" class="st3" d="M273.3,105H272v-5.4h-6v5.4h-1.3V93.5h1.3v4.9h6v-4.9h1.3V105z"/>
	<path id="XMLID_72_" class="st3" d="M285.1,93.5v7.4c0,1.3-0.4,2.3-1.2,3.1c-0.8,0.7-1.9,1.1-3.2,1.1s-2.4-0.4-3.2-1.1
		s-1.1-1.8-1.1-3.1v-7.4h1.3v7.5c0,1,0.3,1.7,0.8,2.2c0.5,0.5,1.3,0.8,2.3,0.8c1,0,1.7-0.3,2.2-0.8c0.5-0.5,0.8-1.2,0.8-2.2v-7.4
		H285.1z"/>
	<path id="XMLID_69_" class="st3" d="M289.5,100.2v4.8h-1.3V93.5h3.1c1.4,0,2.4,0.3,3.1,0.8c0.7,0.5,1,1.3,1,2.4
		c0,1.5-0.8,2.5-2.3,3.1l3.1,5.1h-1.6l-2.8-4.8H289.5z M289.5,99.1h1.8c0.9,0,1.6-0.2,2.1-0.6c0.4-0.4,0.7-0.9,0.7-1.7
		c0-0.8-0.2-1.3-0.7-1.6c-0.4-0.3-1.2-0.5-2.1-0.5h-1.7V99.1z"/>
	<path id="XMLID_67_" class="st3" d="M216.6,129h-1.3v-11.4h6.4v1.2h-5v4.2h4.7v1.2h-4.7V129z"/>
	<path id="XMLID_64_" class="st3" d="M233.5,123.2c0,1.8-0.5,3.3-1.4,4.3s-2.2,1.6-3.9,1.6c-1.7,0-3-0.5-3.9-1.5s-1.4-2.5-1.4-4.4
		c0-1.9,0.5-3.3,1.4-4.3s2.2-1.5,3.9-1.5c1.6,0,2.9,0.5,3.8,1.6S233.5,121.4,233.5,123.2z M224.4,123.2c0,1.5,0.3,2.7,1,3.5
		s1.6,1.2,2.9,1.2c1.3,0,2.2-0.4,2.9-1.2s1-2,1-3.5c0-1.5-0.3-2.7-1-3.5s-1.6-1.2-2.9-1.2c-1.3,0-2.2,0.4-2.9,1.2
		S224.4,121.7,224.4,123.2z"/>
	<path id="XMLID_61_" class="st3" d="M244.7,117.5v7.4c0,1.3-0.4,2.3-1.2,3.1s-1.9,1.1-3.2,1.1s-2.4-0.4-3.2-1.1s-1.1-1.8-1.1-3.1
		v-7.4h1.3v7.5c0,1,0.3,1.7,0.8,2.2s1.3,0.8,2.3,0.8c1,0,1.7-0.3,2.2-0.8s0.8-1.2,0.8-2.2v-7.4H244.7z"/>
	<path id="XMLID_59_" class="st3" d="M256.6,129h-1.5l-6.2-9.6h-0.1c0.1,1.1,0.1,2.2,0.1,3.1v6.5h-1.2v-11.4h1.5l6.2,9.5h0.1
		c0-0.1,0-0.6-0.1-1.4s0-1.3,0-1.6v-6.6h1.2V129z"/>
	<path id="XMLID_55_" class="st3" d="M268.9,123.1c0,1.9-0.5,3.3-1.5,4.3s-2.5,1.5-4.4,1.5h-3.2v-11.4h3.5c1.8,0,3.2,0.5,4.1,1.5
		S268.9,121.4,268.9,123.1z M267.5,123.2c0-1.5-0.4-2.6-1.1-3.4s-1.9-1.1-3.3-1.1h-1.9v9.1h1.6c1.6,0,2.8-0.4,3.6-1.2
		S267.5,124.7,267.5,123.2z"/>
	<path id="XMLID_53_" class="st3" d="M275.6,129v-11.4h1.3v10.2h5v1.2H275.6z"/>
	<path id="XMLID_50_" class="st3" d="M283.9,129v-11.4h1.3v10.2h5v1.2H283.9z"/>
	<path id="XMLID_44_" class="st3" d="M299.4,120.9c0,1.2-0.4,2-1.2,2.7s-1.9,0.9-3.4,0.9h-1.3v4.5h-1.3v-11.4h3
		C298,117.5,299.4,118.7,299.4,120.9z M293.5,123.3h1.2c1.2,0,2-0.2,2.6-0.6s0.8-1,0.8-1.8c0-0.8-0.2-1.3-0.7-1.7s-1.3-0.6-2.3-0.6
		h-1.5V123.3z"/>
</g>
<g id="XMLID_1038_">
	<path id="XMLID_38_" class="st3" d="M194.6,19.2v-8.6h1v8.6H194.6z"/>
	<path id="XMLID_35_" class="st3" d="M204.6,19.2h-1.1l-4.7-7.2h0c0.1,0.8,0.1,1.6,0.1,2.3v4.9H198v-8.6h1.1l4.7,7.2h0
		c0-0.1,0-0.4-0.1-1s0-1,0-1.2v-4.9h0.9V19.2z"/>
	<path id="XMLID_33_" class="st3" d="M211.9,10.6h1.1l-3.1,8.6h-1l-3.1-8.6h1.1l2,5.5c0.2,0.6,0.4,1.3,0.5,1.9
		c0.1-0.6,0.3-1.3,0.6-1.9L211.9,10.6z"/>
	<path id="XMLID_79_" class="st3" d="M218.9,19.2h-4.8v-8.6h4.8v0.9h-3.8v2.8h3.6v0.9h-3.6v3.2h3.8V19.2z"/>
	<path id="XMLID_81_" class="st3" d="M225.6,16.9c0,0.8-0.3,1.3-0.8,1.8s-1.3,0.6-2.2,0.6c-1,0-1.8-0.1-2.3-0.4v-1
		c0.4,0.1,0.7,0.3,1.1,0.4s0.8,0.1,1.2,0.1c0.7,0,1.2-0.1,1.5-0.4s0.5-0.6,0.5-1.1c0-0.3-0.1-0.5-0.2-0.7s-0.3-0.4-0.6-0.5
		s-0.7-0.3-1.3-0.5c-0.8-0.3-1.4-0.6-1.7-1s-0.5-0.9-0.5-1.5c0-0.7,0.2-1.2,0.7-1.6s1.2-0.6,2-0.6c0.9,0,1.6,0.2,2.3,0.5l-0.3,0.9
		c-0.7-0.3-1.4-0.4-2.1-0.4c-0.5,0-0.9,0.1-1.2,0.3s-0.4,0.5-0.4,0.9c0,0.3,0.1,0.5,0.2,0.7s0.3,0.4,0.6,0.5s0.7,0.3,1.2,0.5
		c0.9,0.3,1.5,0.7,1.9,1S225.6,16.3,225.6,16.9z"/>
	<path id="XMLID_83_" class="st3" d="M230,19.2h-1v-7.7h-2.7v-0.9h6.4v0.9H230V19.2z"/>
	<path id="XMLID_87_" class="st3" d="M237.8,19.2l-2.9-7.6h0c0.1,0.6,0.1,1.3,0.1,2.1v5.4H234v-8.6h1.5l2.7,7.1h0l2.7-7.1h1.5v8.6
		h-1v-5.5c0-0.6,0-1.3,0.1-2.1h0l-2.9,7.6H237.8z"/>
	<path id="XMLID_90_" class="st3" d="M249.6,19.2h-4.8v-8.6h4.8v0.9h-3.8v2.8h3.6v0.9h-3.6v3.2h3.8V19.2z"/>
	<path id="XMLID_93_" class="st3" d="M258.2,19.2h-1.1l-4.7-7.2h0c0.1,0.8,0.1,1.6,0.1,2.3v4.9h-0.9v-8.6h1.1l4.7,7.2h0
		c0-0.1,0-0.4-0.1-1s0-1,0-1.2v-4.9h0.9V19.2z"/>
	<path id="XMLID_95_" class="st3" d="M263.2,19.2h-1v-7.7h-2.7v-0.9h6.4v0.9h-2.7V19.2z"/>
	<path id="XMLID_97_" class="st3" d="M275.7,19.2l-1.1-2.7h-3.4l-1.1,2.7h-1l3.4-8.6h0.8l3.4,8.6H275.7z M274.4,15.6l-1-2.7
		c-0.1-0.3-0.3-0.7-0.4-1.2c-0.1,0.4-0.2,0.8-0.4,1.2l-1,2.7H274.4z"/>
	<path id="XMLID_100_" class="st3" d="M284.8,14.8c0,1.4-0.4,2.5-1.2,3.2s-1.9,1.1-3.3,1.1h-2.4v-8.6h2.6c1.3,0,2.4,0.4,3.1,1.1
		S284.8,13.5,284.8,14.8z M283.7,14.9c0-1.1-0.3-2-0.8-2.5s-1.4-0.8-2.5-0.8h-1.4v6.8h1.2c1.2,0,2.1-0.3,2.7-0.9
		S283.7,16,283.7,14.9z"/>
	<path id="XMLID_103_" class="st3" d="M291.6,10.6h1.1l-3.1,8.6h-1l-3.1-8.6h1.1l2,5.5c0.2,0.6,0.4,1.3,0.5,1.9
		c0.1-0.6,0.3-1.3,0.6-1.9L291.6,10.6z"/>
	<path id="XMLID_105_" class="st3" d="M293.8,19.2v-8.6h1v8.6H293.8z"/>
	<path id="XMLID_107_" class="st3" d="M302,16.9c0,0.8-0.3,1.3-0.8,1.8s-1.3,0.6-2.2,0.6c-1,0-1.8-0.1-2.3-0.4v-1
		c0.4,0.1,0.7,0.3,1.1,0.4s0.8,0.1,1.2,0.1c0.7,0,1.2-0.1,1.5-0.4s0.5-0.6,0.5-1.1c0-0.3-0.1-0.5-0.2-0.7s-0.3-0.4-0.6-0.5
		s-0.7-0.3-1.3-0.5c-0.8-0.3-1.4-0.6-1.7-1s-0.5-0.9-0.5-1.5c0-0.7,0.2-1.2,0.7-1.6s1.2-0.6,2-0.6c0.9,0,1.6,0.2,2.3,0.5l-0.3,0.9
		c-0.7-0.3-1.4-0.4-2.1-0.4c-0.5,0-0.9,0.1-1.2,0.3s-0.4,0.5-0.4,0.9c0,0.3,0.1,0.5,0.2,0.7s0.3,0.4,0.6,0.5s0.7,0.3,1.2,0.5
		c0.9,0.3,1.5,0.7,1.9,1S302,16.3,302,16.9z"/>
	<path id="XMLID_109_" class="st3" d="M311.2,14.9c0,1.4-0.3,2.4-1,3.2s-1.7,1.2-2.9,1.2c-1.3,0-2.2-0.4-2.9-1.2s-1-1.9-1-3.3
		c0-1.4,0.3-2.5,1-3.2s1.7-1.2,2.9-1.2c1.2,0,2.2,0.4,2.9,1.2S311.2,13.5,311.2,14.9z M304.4,14.9c0,1.2,0.2,2,0.7,2.6
		s1.2,0.9,2.2,0.9c0.9,0,1.7-0.3,2.2-0.9s0.7-1.5,0.7-2.6c0-1.2-0.2-2-0.7-2.6s-1.2-0.9-2.1-0.9c-0.9,0-1.7,0.3-2.2,0.9
		S304.4,13.8,304.4,14.9z"/>
	<path id="XMLID_112_" class="st3" d="M314.1,15.6v3.6h-1v-8.6h2.3c1.1,0,1.8,0.2,2.3,0.6s0.8,1,0.8,1.8c0,1.1-0.6,1.9-1.7,2.3
		l2.3,3.8H318l-2.1-3.6H314.1z M314.1,14.8h1.4c0.7,0,1.2-0.1,1.5-0.4s0.5-0.7,0.5-1.3c0-0.6-0.2-1-0.5-1.2s-0.9-0.4-1.6-0.4h-1.3
		V14.8z"/>
</g>
<g id="XMLID_26_">
	<g id="XMLID_30_">
		
			<rect id="XMLID_32_" x="120.8" y="90.9" transform="matrix(0.6592 0.752 -0.752 0.6592 165.7527 -34.8299)" class="st1" width="1" height="149.1"/>
	</g>
	<g id="XMLID_27_">
		<g id="XMLID_29_">
			<polygon id="XMLID_1348_" class="st1" points="179.5,121 182.8,111.6 173,113.5 			"/>
		</g>
	</g>
</g>
<g id="XMLID_12_">
	<g id="XMLID_24_">
		
			<rect id="XMLID_25_" x="313.2" y="159.6" transform="matrix(0.7316 0.6818 -0.6818 0.7316 211.9788 -218.2928)" class="st1" width="140" height="1"/>
	</g>
	<g id="XMLID_13_">
		<g id="XMLID_14_">
			<polygon id="XMLID_1342_" class="st1" points="429.9,210.4 439.7,212.7 436.7,203.1 			"/>
		</g>
	</g>
</g>
<g id="XMLID_6_">
	<g id="XMLID_9_">
		
			<rect id="XMLID_11_" x="546" y="85" transform="matrix(0.6149 0.7886 -0.7886 0.6149 339.6986 -367.8716)" class="st1" width="1" height="157.7"/>
	</g>
	<g id="XMLID_7_">
		<g id="XMLID_8_">
			<polygon id="XMLID_1336_" class="st1" points="610.6,120.2 614.3,111 604.5,112.4 			"/>
		</g>
	</g>
</g>
</svg>
