<?xml version="1.0" encoding="utf-8"?>
<!-- Generator: Adobe Illustrator 19.0.0, SVG Export Plug-In . SVG Version: 6.00 Build 0)  -->
<svg version="1.1" id="图层_1" xmlns="http://www.w3.org/2000/svg" xmlns:xlink="http://www.w3.org/1999/xlink" x="0px" y="0px"
	 viewBox="0 0 200 236" style="enable-background:new 0 0 200 236;" xml:space="preserve">
<style type="text/css">
	.st0{enable-background:new    ;}
	.st1{fill:#565768;}
	.st2{fill:#434451;}
	.st3{fill:#494A5B;}
	.st4{fill:#5F6277;}
	.st5{fill:#DEE7FF;}
	.st6{fill:url(#XMLID_34_);}
	.st7{fill:url(#XMLID_35_);}
	.st8{fill:url(#XMLID_36_);}
	.st9{fill:url(#XMLID_37_);}
	.st10{fill:url(#XMLID_38_);}
	.st11{fill:url(#XMLID_39_);}
	.st12{fill:#CCDEFF;}
	.st13{fill:#2E2F44;}
	.st14{fill:#272E43;}
	.st15{fill:#4287C5;}
	.st16{fill:#25293C;}
	.st17{fill:#33567D;}
	.st18{fill:#242435;}
	.st19{fill:url(#XMLID_41_);}
	.st20{fill:url(#XMLID_43_);}
	.st21{fill:url(#XMLID_44_);}
	.st22{fill:url(#XMLID_45_);}
	.st23{fill:url(#XMLID_46_);}
	.st24{fill:#7E819E;}
	.st25{fill:#E28813;}
	.st26{fill:#FFFFFF;}
	.st27{fill:#FFDD7D;}
	.st28{fill:#FFB236;}
	.st29{fill:#F2972A;}
	.st30{fill:#D17A11;}
	.st31{clip-path:url(#XMLID_47_);enable-background:new    ;}
	.st32{clip-path:url(#XMLID_48_);enable-background:new    ;}
	.st33{clip-path:url(#XMLID_49_);enable-background:new    ;}
	.st34{clip-path:url(#XMLID_50_);enable-background:new    ;}
	.st35{clip-path:url(#XMLID_51_);enable-background:new    ;}
	.st36{clip-path:url(#XMLID_52_);enable-background:new    ;}
	.st37{opacity:0.4;}
	.st38{fill:url(#XMLID_53_);}
	.st39{fill:#808080;}
</style>
<g id="XMLID_33_">
	<g id="XMLID_2_">
		<g id="XMLID_809_">
			<g id="XMLID_870_">
				<g id="XMLID_871_" class="st0">
					<g id="XMLID_876_">
						<polygon id="XMLID_877_" class="st1" points="143.3,175.4 143.2,195.1 99.9,220.3 99.9,200.6 						"/>
					</g>
					<g id="XMLID_874_">
						<polygon id="XMLID_875_" class="st2" points="99.9,200.6 99.9,220.3 56.2,195.1 56.3,175.3 						"/>
					</g>
					<g id="XMLID_872_">
						<polygon id="XMLID_873_" class="st3" points="143.3,175.4 99.9,200.6 56.3,175.3 99.6,150.1 						"/>
					</g>
				</g>
			</g>
			<g id="XMLID_857_">
				<g id="XMLID_868_">
					<polygon id="XMLID_869_" class="st4" points="135.5,185.2 135.5,187.5 133.5,188.6 133.5,186.4 					"/>
				</g>
				<g id="XMLID_864_">
					<path id="XMLID_865_" class="st5" d="M131,184.8l10.2-5.9l0,15.2l-10.2,5.9L131,184.8z M139.7,193.2l0-11.7l-7.1,4.1l0,11.7
						L139.7,193.2"/>
				</g>
				<g id="XMLID_862_">
					<polygon id="XMLID_863_" class="st4" points="112.7,195.5 112.7,200.2 102.7,206 102.7,201.2 					"/>
				</g>
				<g id="XMLID_860_">
					<polygon id="XMLID_861_" class="st4" points="112.7,201.3 112.7,203.7 102.7,209.4 102.7,207.1 					"/>
				</g>
				<g id="XMLID_858_">
					<polygon id="XMLID_859_" class="st4" points="104.9,212.3 104.9,214.6 102.8,215.9 102.8,213.5 					"/>
				</g>
			</g>
			<g id="XMLID_844_">
				<g id="XMLID_855_">
					<polygon id="XMLID_856_" class="st4" points="64.4,185.2 64.4,187.5 66.4,188.6 66.4,186.4 					"/>
				</g>
				<g id="XMLID_851_">
					<path id="XMLID_852_" class="st5" d="M68.8,200l-10.2-5.9l0-15.2l10.2,5.9L68.8,200z M60.1,193.2l7.1,4.1l0-11.7l-7.1-4.1
						L60.1,193.2"/>
				</g>
				<g id="XMLID_849_">
					<polygon id="XMLID_850_" class="st4" points="87.2,195.5 87.2,200.2 97.1,206 97.1,201.2 					"/>
				</g>
				<g id="XMLID_847_">
					<polygon id="XMLID_848_" class="st4" points="87.2,201.3 87.2,203.7 97.1,209.4 97.1,207.1 					"/>
				</g>
				<g id="XMLID_845_">
					<polygon id="XMLID_846_" class="st4" points="95,212.3 95,214.6 97.1,215.9 97.1,213.5 					"/>
				</g>
			</g>
			<g id="XMLID_810_">
				<g id="XMLID_815_" class="st0">
					<g id="XMLID_842_">
						<polygon id="XMLID_843_" class="st4" points="122.2,174 120.9,174.7 119.3,173.8 120.6,173.1 						"/>
					</g>
					<g id="XMLID_840_">
						<polygon id="XMLID_841_" class="st4" points="87.7,174.6 85.1,176.1 77.8,171.8 80.4,170.3 						"/>
					</g>
					<g id="XMLID_838_">
						<polygon id="XMLID_839_" class="st4" points="130.1,175.1 126.1,177.4 122.2,175.2 126.1,172.9 						"/>
					</g>
					<g id="XMLID_836_">
						<polygon id="XMLID_837_" class="st4" points="117.4,178.3 115.6,179.4 114,178.4 115.8,177.4 						"/>
					</g>
					<g id="XMLID_834_">
						<polygon id="XMLID_835_" class="st4" points="96.7,188.2 95.9,188.7 94.4,187.9 95.2,187.4 						"/>
					</g>
					<g id="XMLID_830_">
						<path id="XMLID_831_" class="st5" d="M99.7,154.6l36,20.8l-35.7,20.8l-36-20.8L99.7,154.6z M99.9,194.3l32.6-19l-32.9-19
							l-32.6,19L99.9,194.3"/>
					</g>
					<g id="XMLID_828_">
						<polygon id="XMLID_829_" class="st4" points="104.5,168.1 102.8,169.1 101,168.1 102.7,167.1 						"/>
					</g>
					<g id="XMLID_826_">
						<polygon id="XMLID_827_" class="st4" points="106.7,163.1 99.5,167.2 92.6,163.2 99.8,159.1 						"/>
					</g>
					<g id="XMLID_824_">
						<polygon id="XMLID_825_" class="st4" points="93.7,166.6 91.7,167.7 89.4,166.4 91.4,165.2 						"/>
					</g>
					<g id="XMLID_822_">
						<polygon id="XMLID_823_" class="st4" points="93.6,174.4 92.1,175.3 90.3,174.3 91.8,173.4 						"/>
					</g>
					<g id="XMLID_820_">
						<polygon id="XMLID_821_" class="st4" points="81.7,175.9 79.9,177 77.9,175.8 79.6,174.7 						"/>
					</g>
					<g id="XMLID_818_">
						<polygon id="XMLID_819_" class="st4" points="98.4,177.2 96.9,178.1 93.8,176.2 95.2,175.4 						"/>
					</g>
					<g id="XMLID_816_">
						<polygon id="XMLID_817_" class="st4" points="104.4,189.7 101,191.7 98.5,190.2 101.9,188.3 						"/>
					</g>
				</g>
				<g id="XMLID_813_">
					<polygon id="XMLID_814_" class="st4" points="105.9,183.9 99.3,187.8 92.3,183.7 98.9,179.9 					"/>
				</g>
				<g id="XMLID_811_">
					<polygon id="XMLID_812_" class="st4" points="117,180.9 110.9,184.5 109.2,183.4 115.2,179.9 					"/>
				</g>
			</g>
		</g>
		<g id="XMLID_777_">
			<g id="XMLID_794_">
				<g id="XMLID_795_" class="st0">
					<g id="XMLID_807_">
						<linearGradient id="XMLID_34_" gradientUnits="userSpaceOnUse" x1="122.2357" y1="138.1326" x2="91.3873" y2="137.3154">
							<stop  offset="0" style="stop-color:#ACBEE8"/>
							<stop  offset="1" style="stop-color:#8FA2C6"/>
						</linearGradient>
						<path id="XMLID_808_" class="st6" d="M143.5,110.7l-0.2,53.3c0,1-0.6,1.9-1.9,2.7l0.2-53.3
							C142.9,112.6,143.5,111.7,143.5,110.7z"/>
					</g>
					<g id="XMLID_805_">
						<linearGradient id="XMLID_35_" gradientUnits="userSpaceOnUse" x1="122.1757" y1="140.3676" x2="91.3272" y2="139.5504">
							<stop  offset="0" style="stop-color:#ACBEE8"/>
							<stop  offset="1" style="stop-color:#8FA2C6"/>
						</linearGradient>
						<path id="XMLID_806_" class="st7" d="M56.3,163.9l0.2-53.3c0,1,0.6,2,1.9,2.7l-0.2,53.3C56.9,165.9,56.3,164.9,56.3,163.9z"/>
					</g>
					<g id="XMLID_803_">
						<linearGradient id="XMLID_36_" gradientUnits="userSpaceOnUse" x1="121.9031" y1="150.6771" x2="91.0544" y2="149.86">
							<stop  offset="0" style="stop-color:#ACBEE8"/>
							<stop  offset="1" style="stop-color:#8FA2C6"/>
						</linearGradient>
						<polygon id="XMLID_804_" class="st8" points="141.6,113.4 141.4,166.6 104.6,188.1 104.7,134.8 						"/>
					</g>
					<g id="XMLID_801_">
						<linearGradient id="XMLID_37_" gradientUnits="userSpaceOnUse" x1="121.8707" y1="151.9011" x2="91.022" y2="151.0839">
							<stop  offset="0" style="stop-color:#ACBEE8"/>
							<stop  offset="1" style="stop-color:#8FA2C6"/>
						</linearGradient>
						<polygon id="XMLID_802_" class="st9" points="95.5,134.8 95.3,188.1 58.2,166.6 58.4,113.4 						"/>
					</g>
					<g id="XMLID_798_">
						<linearGradient id="XMLID_38_" gradientUnits="userSpaceOnUse" x1="121.5876" y1="162.6027" x2="90.7384" y2="161.7855">
							<stop  offset="0" style="stop-color:#ACBEE8"/>
							<stop  offset="1" style="stop-color:#8FA2C6"/>
						</linearGradient>
						<path id="XMLID_800_" class="st10" d="M95.5,134.8l-0.2,53.3c1.2,0.7,2.8,1.1,4.4,1.1v-53.3C98.2,135.8,96.7,135.5,95.5,134.8
							z"/>
						<linearGradient id="XMLID_39_" gradientUnits="userSpaceOnUse" x1="121.5903" y1="162.4801" x2="90.7419" y2="161.663">
							<stop  offset="0" style="stop-color:#ACBEE8"/>
							<stop  offset="1" style="stop-color:#8FA2C6"/>
						</linearGradient>
						<path id="XMLID_799_" class="st11" d="M99.7,135.9v53.3c1.7,0,3.5-0.3,4.8-1.1l0.2-53.3C103.4,135.6,101.5,135.9,99.7,135.9z"
							/>
					</g>
					<g id="XMLID_796_">
						<path id="XMLID_797_" class="st5" d="M141.6,108c2.6,1.5,2.6,3.9,0,5.4l-36.9,21.4c-2.5,1.5-6.7,1.5-9.2,0l-37.1-21.4
							c-2.6-1.5-2.6-3.9,0-5.4l36.9-21.4c2.5-1.5,6.7-1.5,9.2,0L141.6,108z"/>
					</g>
				</g>
			</g>
			<g id="XMLID_779_">
				<g id="XMLID_792_">
					<polygon id="XMLID_793_" class="st12" points="125.9,110.7 100,125.7 73.9,110.7 99.8,95.6 					"/>
				</g>
				<g id="XMLID_790_">
					<polygon id="XMLID_791_" class="st13" points="138.1,110.7 135.6,112.2 132.9,110.7 135.5,109.2 					"/>
				</g>
				<g id="XMLID_788_">
					<polygon id="XMLID_789_" class="st13" points="102.4,90 99.8,91.5 97.2,90 99.8,88.5 					"/>
				</g>
				<g id="XMLID_786_">
					<polygon id="XMLID_787_" class="st13" points="102.6,131.3 100,132.8 97.4,131.3 100,129.8 					"/>
				</g>
				<g id="XMLID_784_">
					<polygon id="XMLID_785_" class="st13" points="66.9,110.7 64.3,112.2 61.7,110.7 64.3,109.2 					"/>
				</g>
				<g id="XMLID_780_">
					<path id="XMLID_781_" class="st13" d="M99.8,91.5l33.1,19.1L100,129.8l-33.1-19.1L99.8,91.5z M100,125.7l25.9-15.1L99.8,95.6
						l-25.9,15.1L100,125.7"/>
				</g>
			</g>
			<path id="XMLID_778_" class="st13" d="M141.9,158.7c-0.1,0.1-0.3,0.2-0.4,0.3l-36.9,21.4c-2.5,1.5-6.7,1.5-9.2,0l-37.1-21.4
				c-0.2-0.1-0.3-0.2-0.4-0.3c-1-0.7-1.5-1.5-1.5-2.4v4.8c0,1,0.6,1.9,1.9,2.7l37.1,21.4c2.6,1.5,6.7,1.5,9.2,0l36.9-21.4
				c1.3-0.7,1.9-1.7,1.9-2.7v0v-4.8C143.4,157.1,142.9,158,141.9,158.7z"/>
		</g>
		<g id="XMLID_624_">
			<g id="XMLID_775_">
				<polygon id="XMLID_776_" class="st14" points="119.8,137.3 119.8,140.2 117.3,141.6 117.3,138.8 				"/>
			</g>
			<g id="XMLID_773_">
				<polygon id="XMLID_774_" class="st15" points="122.9,139 122.9,141.9 120.4,143.3 120.4,140.5 				"/>
			</g>
			<g id="XMLID_771_">
				<polygon id="XMLID_772_" class="st16" points="122.8,135.6 122.9,138.4 120.4,139.9 120.4,137 				"/>
			</g>
			<g id="XMLID_769_">
				<polygon id="XMLID_770_" class="st14" points="125.9,133.8 125.9,136.7 123.4,138.1 123.4,135.3 				"/>
			</g>
			<g id="XMLID_767_">
				<polygon id="XMLID_768_" class="st14" points="128.9,132.1 128.9,134.9 126.5,136.4 126.4,133.5 				"/>
			</g>
			<g id="XMLID_765_">
				<polygon id="XMLID_766_" class="st15" points="132,137.3 132,140.1 129.5,141.5 129.5,138.7 				"/>
			</g>
			<g id="XMLID_763_">
				<polygon id="XMLID_764_" class="st15" points="132,133.8 132,136.6 129.5,138.1 129.5,135.2 				"/>
			</g>
			<g id="XMLID_761_">
				<polygon id="XMLID_762_" class="st16" points="132,130.3 132,133.2 129.5,134.6 129.5,131.7 				"/>
			</g>
			<g id="XMLID_759_">
				<polygon id="XMLID_760_" class="st16" points="135,135.5 135,138.4 132.6,139.8 132.5,136.9 				"/>
			</g>
			<g id="XMLID_754_" class="st0">
				<g id="XMLID_757_">
					<polygon id="XMLID_758_" class="st15" points="135,132 135,134.9 132.5,136.3 132.5,133.5 					"/>
				</g>
				<g id="XMLID_755_">
					<polygon id="XMLID_756_" class="st17" points="135,128.6 135,131.4 132.5,132.8 132.5,130 					"/>
				</g>
			</g>
			<g id="XMLID_752_">
				<polygon id="XMLID_753_" class="st14" points="119.8,144.3 119.8,147.1 117.3,148.6 117.3,145.7 				"/>
			</g>
			<g id="XMLID_750_">
				<polygon id="XMLID_751_" class="st15" points="119.8,140.8 119.8,143.7 117.3,145.1 117.3,142.2 				"/>
			</g>
			<g id="XMLID_748_">
				<polygon id="XMLID_749_" class="st17" points="122.9,149.5 122.9,152.3 120.4,153.7 120.4,150.9 				"/>
			</g>
			<g id="XMLID_746_">
				<polygon id="XMLID_747_" class="st16" points="122.9,146 122.9,148.8 120.4,150.3 120.4,147.4 				"/>
			</g>
			<g id="XMLID_744_">
				<polygon id="XMLID_745_" class="st15" points="122.9,142.5 122.9,145.4 120.4,146.8 120.4,144 				"/>
			</g>
			<g id="XMLID_742_">
				<polygon id="XMLID_743_" class="st17" points="119.8,147.7 119.8,150.6 117.4,152 117.3,149.2 				"/>
			</g>
			<g id="XMLID_740_">
				<polygon id="XMLID_741_" class="st15" points="125.9,144.2 125.9,147.1 123.4,148.5 123.4,145.7 				"/>
			</g>
			<g id="XMLID_738_">
				<polygon id="XMLID_739_" class="st16" points="129,146 129,148.8 126.5,150.2 126.5,147.4 				"/>
			</g>
			<g id="XMLID_736_">
				<polygon id="XMLID_737_" class="st14" points="129,142.5 129,145.3 126.5,146.8 126.5,143.9 				"/>
			</g>
			<g id="XMLID_734_">
				<polygon id="XMLID_735_" class="st15" points="132,140.7 132,143.6 129.5,145 129.5,142.2 				"/>
			</g>
			<g id="XMLID_732_">
				<polygon id="XMLID_733_" class="st17" points="125.9,154.7 126,157.5 123.5,158.9 123.5,156.1 				"/>
			</g>
			<g id="XMLID_730_">
				<polygon id="XMLID_731_" class="st16" points="125.9,151.2 125.9,154 123.5,155.5 123.5,152.6 				"/>
			</g>
			<g id="XMLID_728_">
				<polygon id="XMLID_729_" class="st15" points="125.9,147.7 125.9,150.6 123.4,152 123.4,149.1 				"/>
			</g>
			<g id="XMLID_726_">
				<polygon id="XMLID_727_" class="st14" points="132,151.1 132,154 129.5,155.4 129.5,152.6 				"/>
			</g>
			<g id="XMLID_724_">
				<polygon id="XMLID_725_" class="st15" points="132,147.7 132,150.5 129.5,152 129.5,149.1 				"/>
			</g>
			<g id="XMLID_722_">
				<polygon id="XMLID_723_" class="st17" points="132,144.2 132,147 129.5,148.5 129.5,145.6 				"/>
			</g>
			<g id="XMLID_720_">
				<polygon id="XMLID_721_" class="st17" points="135,142.4 135.1,145.3 132.6,146.7 132.6,143.9 				"/>
			</g>
			<g id="XMLID_718_">
				<polygon id="XMLID_719_" class="st17" points="129,152.9 129,155.7 126.5,157.2 126.5,154.3 				"/>
			</g>
			<g id="XMLID_716_">
				<polygon id="XMLID_717_" class="st15" points="129,149.4 129,152.3 126.5,153.7 126.5,150.9 				"/>
			</g>
			<g id="XMLID_714_">
				<polygon id="XMLID_715_" class="st14" points="135.1,145.9 135.1,148.8 132.6,150.2 132.6,147.3 				"/>
			</g>
			<g id="XMLID_712_">
				<polygon id="XMLID_713_" class="st15" points="119.9,158.2 119.9,161 117.4,162.4 117.4,159.6 				"/>
			</g>
			<g id="XMLID_710_">
				<polygon id="XMLID_711_" class="st16" points="135.1,149.4 135.1,152.2 132.6,153.7 132.6,150.8 				"/>
			</g>
			<g id="XMLID_641_" class="st0">
				<g id="XMLID_708_">
					<polygon id="XMLID_709_" class="st15" points="119.8,151.2 119.9,154.1 117.4,155.5 117.4,152.7 					"/>
				</g>
				<g id="XMLID_706_">
					<polygon id="XMLID_707_" class="st15" points="116.8,153 116.8,155.8 114.3,157.3 114.3,154.4 					"/>
				</g>
				<g id="XMLID_704_">
					<polygon id="XMLID_705_" class="st17" points="116.8,142.6 116.8,145.4 114.3,146.9 114.3,144 					"/>
				</g>
				<g id="XMLID_652_">
					<path id="XMLID_653_" class="st18" d="M135.8,124.5c1.3-0.7,2.3-0.1,2.3,1.3l0.1,25.7c0,1.4-1,3.2-2.3,3.9l-22.4,12.9
						c-1.3,0.7-2.3,0.1-2.3-1.3l-0.1-25.7c0-1.4,1-3.2,2.3-3.9L135.8,124.5z M119.8,150.6l0-2.9l-2.5,1.4l0,2.9L119.8,150.6
						 M119.9,157.5l0-2.9l-2.5,1.4l0,2.9L119.9,157.5 M135,141.8l0-2.9l-2.5,1.4l0,2.9L135,141.8 M119.8,143.7l0-2.9l-2.5,1.4l0,2.9
						L119.8,143.7 M122.9,148.8l0-2.9l-2.5,1.4l0,2.9L122.9,148.8 M116.8,152.4l0-2.9l-2.5,1.4l0,2.9L116.8,152.4 M132,143.6l0-2.9
						l-2.5,1.4l0,2.9L132,143.6 M135,134.9l0-2.9l-2.5,1.4l0,2.9L135,134.9 M135.1,148.8l0-2.9l-2.5,1.4l0,2.9L135.1,148.8
						 M116.8,159.3l0-2.9l-2.5,1.4l0,2.9L116.8,159.3 M116.8,145.4l0-2.9l-2.5,1.4l0,2.9L116.8,145.4 M132,150.5l0-2.9l-2.5,1.4
						l0,2.9L132,150.5 M122.9,155.8l0-2.9l-2.5,1.4l0,2.9L122.9,155.8 M132,136.6l0-2.9l-2.5,1.4l0,2.9L132,136.6 M122.9,141.9
						l0-2.9l-2.5,1.4l0,2.9L122.9,141.9 M119.9,154.1l0-2.9l-2.5,1.4l0,2.9L119.9,154.1 M129,145.3l0-2.9l-2.5,1.4l0,2.9L129,145.3
						 M119.8,140.2l0-2.9l-2.5,1.4l0,2.9L119.8,140.2 M135.1,145.3l0-2.9l-2.5,1.4l0,2.9L135.1,145.3 M132,147l0-2.9l-2.5,1.4l0,2.9
						L132,147 M116.8,155.8l0-2.9l-2.5,1.4l0,2.9L116.8,155.8 M122.9,152.3l0-2.9l-2.5,1.4l0,2.9L122.9,152.3 M119.8,147.1l0-2.9
						l-2.5,1.4l0,2.9L119.8,147.1 M129,152.3l0-2.9l-2.5,1.4l0,2.9L129,152.3 M128.9,138.4l0-2.9l-2.5,1.4l0,2.9L128.9,138.4
						 M135,131.4l0-2.9l-2.5,1.4l0,2.9L135,131.4 M116.8,141.9l0-2.9l-2.5,1.4l0,2.9L116.8,141.9 M132,133.2l0-2.9l-2.5,1.4l0,2.9
						L132,133.2 M122.9,138.4l0-2.9l-2.5,1.4l0,2.9L122.9,138.4 M119.9,161l0-2.9l-2.5,1.4l0,2.9L119.9,161 M125.9,147.1l0-2.9
						l-2.5,1.4l0,2.9L125.9,147.1 M135,138.4l0-2.9l-2.5,1.4l0,2.9L135,138.4 M116.8,148.9l0-2.9l-2.5,1.4l0,2.9L116.8,148.9
						 M122.9,145.4l0-2.9l-2.5,1.4l0,2.9L122.9,145.4 M132,140.1l0-2.9l-2.5,1.4l0,2.9L132,140.1 M135.1,152.2l0-2.9l-2.5,1.4l0,2.9
						L135.1,152.2 M132,154l0-2.9l-2.5,1.4l0,2.9L132,154 M125.9,154l0-2.9l-2.5,1.4l0,2.9L125.9,154 M116.8,162.8l0-2.9l-2.5,1.4
						l0,2.9L116.8,162.8 M122.9,159.3l0-2.9l-2.5,1.4l0,2.9L122.9,159.3 M125.9,140.2l0-2.9l-2.5,1.4l0,2.9L125.9,140.2 M129,148.8
						l0-2.9l-2.5,1.4l0,2.9L129,148.8 M128.9,134.9l0-2.9l-2.5,1.4l0,2.9L128.9,134.9 M129,141.9l0-2.9l-2.5,1.4l0,2.9L129,141.9
						 M125.9,150.6l0-2.9l-2.5,1.4l0,2.9L125.9,150.6 M129,155.7l0-2.9l-2.5,1.4l0,2.9L129,155.7 M125.9,136.7l0-2.9l-2.5,1.4l0,2.9
						L125.9,136.7 M125.9,143.6l0-2.9l-2.5,1.4l0,2.9L125.9,143.6 M126,157.5l0-2.9l-2.5,1.4l0,2.9L126,157.5"/>
				</g>
				<g id="XMLID_650_">
					<polygon id="XMLID_651_" class="st17" points="116.8,159.9 116.8,162.8 114.3,164.2 114.3,161.4 					"/>
				</g>
				<g id="XMLID_648_">
					<polygon id="XMLID_649_" class="st14" points="119.9,154.7 119.9,157.5 117.4,159 117.4,156.1 					"/>
				</g>
				<g id="XMLID_646_">
					<polygon id="XMLID_647_" class="st16" points="116.8,156.4 116.8,159.3 114.3,160.7 114.3,157.9 					"/>
				</g>
				<g id="XMLID_644_">
					<polygon id="XMLID_645_" class="st14" points="116.8,149.5 116.8,152.4 114.3,153.8 114.3,150.9 					"/>
				</g>
				<g id="XMLID_642_">
					<polygon id="XMLID_643_" class="st15" points="116.8,146 116.8,148.9 114.3,150.3 114.3,147.5 					"/>
				</g>
			</g>
			<g id="XMLID_639_">
				<polygon id="XMLID_640_" class="st16" points="116.8,139.1 116.8,141.9 114.3,143.4 114.3,140.5 				"/>
			</g>
			<g id="XMLID_637_">
				<polygon id="XMLID_638_" class="st15" points="125.9,137.3 125.9,140.2 123.4,141.6 123.4,138.7 				"/>
			</g>
			<g id="XMLID_635_">
				<polygon id="XMLID_636_" class="st15" points="128.9,139 129,141.9 126.5,143.3 126.5,140.4 				"/>
			</g>
			<g id="XMLID_633_">
				<polygon id="XMLID_634_" class="st14" points="128.9,135.5 128.9,138.4 126.5,139.8 126.5,137 				"/>
			</g>
			<g id="XMLID_631_">
				<polygon id="XMLID_632_" class="st17" points="125.9,140.8 125.9,143.6 123.4,145.1 123.4,142.2 				"/>
			</g>
			<g id="XMLID_629_">
				<polygon id="XMLID_630_" class="st14" points="135,139 135,141.8 132.6,143.3 132.6,140.4 				"/>
			</g>
			<g id="XMLID_627_">
				<polygon id="XMLID_628_" class="st15" points="122.9,156.4 122.9,159.3 120.4,160.7 120.4,157.8 				"/>
			</g>
			<g id="XMLID_625_">
				<polygon id="XMLID_626_" class="st16" points="122.9,152.9 122.9,155.8 120.4,157.2 120.4,154.4 				"/>
			</g>
		</g>
		<g id="XMLID_471_">
			<g id="XMLID_622_">
				<polygon id="XMLID_623_" class="st14" points="81.3,137.3 81.3,140.2 83.8,141.6 83.8,138.8 				"/>
			</g>
			<g id="XMLID_620_">
				<polygon id="XMLID_621_" class="st15" points="78.2,139 78.2,141.9 80.7,143.3 80.7,140.5 				"/>
			</g>
			<g id="XMLID_618_">
				<polygon id="XMLID_619_" class="st16" points="78.2,135.6 78.2,138.4 80.7,139.9 80.7,137 				"/>
			</g>
			<g id="XMLID_616_">
				<polygon id="XMLID_617_" class="st14" points="75.2,133.8 75.2,136.7 77.7,138.1 77.7,135.3 				"/>
			</g>
			<g id="XMLID_614_">
				<polygon id="XMLID_615_" class="st14" points="72.2,132.1 72.1,134.9 74.6,136.4 74.6,133.5 				"/>
			</g>
			<g id="XMLID_612_">
				<polygon id="XMLID_613_" class="st15" points="69.1,137.3 69.1,140.1 71.6,141.5 71.6,138.7 				"/>
			</g>
			<g id="XMLID_610_">
				<polygon id="XMLID_611_" class="st15" points="69.1,133.8 69.1,136.6 71.6,138.1 71.6,135.2 				"/>
			</g>
			<g id="XMLID_608_">
				<polygon id="XMLID_609_" class="st16" points="69.1,130.3 69.1,133.2 71.6,134.6 71.6,131.7 				"/>
			</g>
			<g id="XMLID_606_">
				<polygon id="XMLID_607_" class="st16" points="66,135.5 66,138.4 68.5,139.8 68.5,136.9 				"/>
			</g>
			<g id="XMLID_601_" class="st0">
				<g id="XMLID_604_">
					<polygon id="XMLID_605_" class="st15" points="66.1,132 66,134.9 68.5,136.3 68.5,133.5 					"/>
				</g>
				<g id="XMLID_602_">
					<polygon id="XMLID_603_" class="st17" points="66.1,128.6 66.1,131.4 68.5,132.8 68.6,130 					"/>
				</g>
			</g>
			<g id="XMLID_599_">
				<polygon id="XMLID_600_" class="st14" points="81.3,144.3 81.2,147.1 83.7,148.6 83.7,145.7 				"/>
			</g>
			<g id="XMLID_597_">
				<polygon id="XMLID_598_" class="st15" points="81.3,140.8 81.3,143.7 83.7,145.1 83.7,142.2 				"/>
			</g>
			<g id="XMLID_595_">
				<polygon id="XMLID_596_" class="st17" points="78.2,149.5 78.2,152.3 80.7,153.7 80.7,150.9 				"/>
			</g>
			<g id="XMLID_593_">
				<polygon id="XMLID_594_" class="st16" points="78.2,146 78.2,148.8 80.7,150.3 80.7,147.4 				"/>
			</g>
			<g id="XMLID_591_">
				<polygon id="XMLID_592_" class="st15" points="78.2,142.5 78.2,145.4 80.7,146.8 80.7,144 				"/>
			</g>
			<g id="XMLID_589_">
				<polygon id="XMLID_590_" class="st17" points="81.2,147.7 81.2,150.6 83.7,152 83.7,149.2 				"/>
			</g>
			<g id="XMLID_587_">
				<polygon id="XMLID_588_" class="st15" points="75.2,144.2 75.2,147.1 77.6,148.5 77.6,145.7 				"/>
			</g>
			<g id="XMLID_585_">
				<polygon id="XMLID_586_" class="st16" points="72.1,146 72.1,148.8 74.6,150.2 74.6,147.4 				"/>
			</g>
			<g id="XMLID_583_">
				<polygon id="XMLID_584_" class="st14" points="72.1,142.5 72.1,145.3 74.6,146.8 74.6,143.9 				"/>
			</g>
			<g id="XMLID_581_">
				<polygon id="XMLID_582_" class="st15" points="69.1,140.7 69.1,143.6 71.6,145 71.6,142.2 				"/>
			</g>
			<g id="XMLID_579_">
				<polygon id="XMLID_580_" class="st17" points="75.1,154.7 75.1,157.5 77.6,158.9 77.6,156.1 				"/>
			</g>
			<g id="XMLID_577_">
				<polygon id="XMLID_578_" class="st16" points="75.1,151.2 75.1,154 77.6,155.5 77.6,152.6 				"/>
			</g>
			<g id="XMLID_575_">
				<polygon id="XMLID_576_" class="st15" points="75.2,147.7 75.1,150.6 77.6,152 77.6,149.1 				"/>
			</g>
			<g id="XMLID_573_">
				<polygon id="XMLID_574_" class="st14" points="69.1,151.1 69,154 71.5,155.4 71.5,152.6 				"/>
			</g>
			<g id="XMLID_571_">
				<polygon id="XMLID_572_" class="st15" points="69.1,147.7 69.1,150.5 71.5,152 71.5,149.1 				"/>
			</g>
			<g id="XMLID_569_">
				<polygon id="XMLID_570_" class="st17" points="69.1,144.2 69.1,147 71.5,148.5 71.6,145.6 				"/>
			</g>
			<g id="XMLID_567_">
				<polygon id="XMLID_568_" class="st17" points="66,142.4 66,145.3 68.5,146.7 68.5,143.9 				"/>
			</g>
			<g id="XMLID_565_">
				<polygon id="XMLID_566_" class="st17" points="72.1,152.9 72.1,155.7 74.6,157.2 74.6,154.3 				"/>
			</g>
			<g id="XMLID_563_">
				<polygon id="XMLID_564_" class="st15" points="72.1,149.4 72.1,152.3 74.6,153.7 74.6,150.9 				"/>
			</g>
			<g id="XMLID_561_">
				<polygon id="XMLID_562_" class="st14" points="66,145.9 66,148.8 68.5,150.2 68.5,147.3 				"/>
			</g>
			<g id="XMLID_559_">
				<polygon id="XMLID_560_" class="st15" points="81.2,158.2 81.2,161 83.7,162.4 83.7,159.6 				"/>
			</g>
			<g id="XMLID_557_">
				<polygon id="XMLID_558_" class="st16" points="66,149.4 66,152.2 68.5,153.7 68.5,150.8 				"/>
			</g>
			<g id="XMLID_488_" class="st0">
				<g id="XMLID_555_">
					<polygon id="XMLID_556_" class="st15" points="81.2,151.2 81.2,154.1 83.7,155.5 83.7,152.7 					"/>
				</g>
				<g id="XMLID_553_">
					<polygon id="XMLID_554_" class="st15" points="84.3,153 84.3,155.8 86.8,157.3 86.8,154.4 					"/>
				</g>
				<g id="XMLID_551_">
					<polygon id="XMLID_552_" class="st17" points="84.3,142.6 84.3,145.4 86.8,146.9 86.8,144 					"/>
				</g>
				<g id="XMLID_499_">
					<path id="XMLID_500_" class="st18" d="M87.6,137.4c1.3,0.7,2.3,2.5,2.3,3.9L89.8,167c0,1.4-1,2-2.3,1.3l-22.4-12.9
						c-1.3-0.7-2.3-2.5-2.3-3.9l0.1-25.7c0-1.4,1-2,2.3-1.3L87.6,137.4z M81.2,150.6l2.5,1.4l0-2.9l-2.5-1.4L81.2,150.6 M81.2,157.5
						l2.5,1.4l0-2.9l-2.5-1.4L81.2,157.5 M66,141.8l2.5,1.4l0-2.9L66,139L66,141.8 M81.3,143.7l2.5,1.4l0-2.9l-2.5-1.4L81.3,143.7
						 M78.2,148.8l2.5,1.4l0-2.9l-2.5-1.4L78.2,148.8 M84.3,152.4l2.5,1.4l0-2.9l-2.5-1.4L84.3,152.4 M69.1,143.6l2.5,1.4l0-2.9
						l-2.5-1.4L69.1,143.6 M66,134.9l2.5,1.4l0-2.9l-2.5-1.4L66,134.9 M66,148.8l2.5,1.4l0-2.9l-2.5-1.4L66,148.8 M84.3,159.3
						l2.5,1.4l0-2.9l-2.5-1.4L84.3,159.3 M84.3,145.4l2.5,1.4l0-2.9l-2.5-1.4L84.3,145.4 M69.1,150.5l2.5,1.4l0-2.9l-2.5-1.4
						L69.1,150.5 M78.2,155.8l2.5,1.4l0-2.9l-2.5-1.4L78.2,155.8 M69.1,136.6l2.5,1.4l0-2.9l-2.5-1.4L69.1,136.6 M78.2,141.9
						l2.5,1.4l0-2.9l-2.5-1.4L78.2,141.9 M81.2,154.1l2.5,1.4l0-2.9l-2.5-1.4L81.2,154.1 M72.1,145.3l2.5,1.4l0-2.9l-2.5-1.4
						L72.1,145.3 M81.3,140.2l2.5,1.4l0-2.9l-2.5-1.4L81.3,140.2 M66,145.3l2.5,1.4l0-2.9l-2.5-1.4L66,145.3 M69.1,147l2.5,1.4
						l0-2.9l-2.5-1.4L69.1,147 M84.3,155.8l2.5,1.4l0-2.9l-2.5-1.4L84.3,155.8 M78.2,152.3l2.5,1.4l0-2.9l-2.5-1.4L78.2,152.3
						 M81.2,147.1l2.5,1.4l0-2.9l-2.5-1.4L81.2,147.1 M72.1,152.3l2.5,1.4l0-2.9l-2.5-1.4L72.1,152.3 M72.1,138.4l2.5,1.4l0-2.9
						l-2.5-1.4L72.1,138.4 M66.1,131.4l2.5,1.4l0-2.9l-2.5-1.4L66.1,131.4 M84.3,141.9l2.5,1.4l0-2.9l-2.5-1.4L84.3,141.9
						 M69.1,133.2l2.5,1.4l0-2.9l-2.5-1.4L69.1,133.2 M78.2,138.4l2.5,1.4l0-2.9l-2.5-1.4L78.2,138.4 M81.2,161l2.5,1.4l0-2.9
						l-2.5-1.4L81.2,161 M75.2,147.1l2.5,1.4l0-2.9l-2.5-1.4L75.2,147.1 M66,138.4l2.5,1.4l0-2.9l-2.5-1.4L66,138.4 M84.3,148.9
						l2.5,1.4l0-2.9l-2.5-1.4L84.3,148.9 M78.2,145.4l2.5,1.4l0-2.9l-2.5-1.4L78.2,145.4 M69.1,140.1l2.5,1.4l0-2.9l-2.5-1.4
						L69.1,140.1 M66,152.2l2.5,1.4l0-2.9l-2.5-1.4L66,152.2 M69,154l2.5,1.4l0-2.9l-2.5-1.4L69,154 M75.1,154l2.5,1.4l0-2.9
						l-2.5-1.4L75.1,154 M84.2,162.8l2.5,1.4l0-2.9l-2.5-1.4L84.2,162.8 M78.2,159.3l2.5,1.4l0-2.9l-2.5-1.4L78.2,159.3 M75.2,140.2
						l2.5,1.4l0-2.9l-2.5-1.4L75.2,140.2 M72.1,148.8l2.5,1.4l0-2.9l-2.5-1.4L72.1,148.8 M72.1,134.9l2.5,1.4l0-2.9l-2.5-1.4
						L72.1,134.9 M72.1,141.9l2.5,1.4l0-2.9l-2.5-1.4L72.1,141.9 M75.1,150.6l2.5,1.4l0-2.9l-2.5-1.4L75.1,150.6 M72.1,155.7
						l2.5,1.4l0-2.9l-2.5-1.4L72.1,155.7 M75.2,136.7l2.5,1.4l0-2.9l-2.5-1.4L75.2,136.7 M75.2,143.6l2.5,1.4l0-2.9l-2.5-1.4
						L75.2,143.6 M75.1,157.5l2.5,1.4l0-2.9l-2.5-1.4L75.1,157.5"/>
				</g>
				<g id="XMLID_497_">
					<polygon id="XMLID_498_" class="st17" points="84.3,159.9 84.2,162.8 86.7,164.2 86.7,161.4 					"/>
				</g>
				<g id="XMLID_495_">
					<polygon id="XMLID_496_" class="st14" points="81.2,154.7 81.2,157.5 83.7,159 83.7,156.1 					"/>
				</g>
				<g id="XMLID_493_">
					<polygon id="XMLID_494_" class="st16" points="84.3,156.4 84.3,159.3 86.7,160.7 86.8,157.9 					"/>
				</g>
				<g id="XMLID_491_">
					<polygon id="XMLID_492_" class="st14" points="84.3,149.5 84.3,152.4 86.8,153.8 86.8,150.9 					"/>
				</g>
				<g id="XMLID_489_">
					<polygon id="XMLID_490_" class="st15" points="84.3,146 84.3,148.9 86.8,150.3 86.8,147.5 					"/>
				</g>
			</g>
			<g id="XMLID_486_">
				<polygon id="XMLID_487_" class="st16" points="84.3,139.1 84.3,141.9 86.8,143.4 86.8,140.5 				"/>
			</g>
			<g id="XMLID_484_">
				<polygon id="XMLID_485_" class="st15" points="75.2,137.3 75.2,140.2 77.7,141.6 77.7,138.7 				"/>
			</g>
			<g id="XMLID_482_">
				<polygon id="XMLID_483_" class="st15" points="72.1,139 72.1,141.9 74.6,143.3 74.6,140.4 				"/>
			</g>
			<g id="XMLID_480_">
				<polygon id="XMLID_481_" class="st14" points="72.1,135.5 72.1,138.4 74.6,139.8 74.6,137 				"/>
			</g>
			<g id="XMLID_478_">
				<polygon id="XMLID_479_" class="st17" points="75.2,140.8 75.2,143.6 77.6,145.1 77.7,142.2 				"/>
			</g>
			<g id="XMLID_476_">
				<polygon id="XMLID_477_" class="st14" points="66,139 66,141.8 68.5,143.3 68.5,140.4 				"/>
			</g>
			<g id="XMLID_474_">
				<polygon id="XMLID_475_" class="st15" points="78.2,156.4 78.2,159.3 80.6,160.7 80.7,157.8 				"/>
			</g>
			<g id="XMLID_472_">
				<polygon id="XMLID_473_" class="st16" points="78.2,152.9 78.2,155.8 80.7,157.2 80.7,154.4 				"/>
			</g>
		</g>
		<g id="XMLID_3_">
			<g id="XMLID_427_">
				<g id="XMLID_442_">
					<g id="XMLID_458_" class="st0">
						<g id="XMLID_469_">
							<linearGradient id="XMLID_41_" gradientUnits="userSpaceOnUse" x1="133.669" y1="97.3885" x2="70.0248" y2="97.553">
								<stop  offset="0" style="stop-color:#ACBEE8"/>
								<stop  offset="1" style="stop-color:#8FA2C6"/>
							</linearGradient>
							<path id="XMLID_470_" class="st19" d="M134.8,91l0,10.7c0,0.8-0.5,1.5-1.5,2.1l0-10.7C134.3,92.5,134.8,91.7,134.8,91z"/>
						</g>
						<g id="XMLID_467_">
							<linearGradient id="XMLID_43_" gradientUnits="userSpaceOnUse" x1="133.6685" y1="97.1967" x2="70.0252" y2="97.3612">
								<stop  offset="0" style="stop-color:#ACBEE8"/>
								<stop  offset="1" style="stop-color:#8FA2C6"/>
							</linearGradient>
							<path id="XMLID_468_" class="st20" d="M64.8,101.6l0-10.7c0,0.8,0.5,1.6,1.6,2.2l0,10.7C65.3,103.2,64.7,102.4,64.8,101.6z"
								/>
						</g>
						<g id="XMLID_465_">
							<linearGradient id="XMLID_44_" gradientUnits="userSpaceOnUse" x1="133.694" y1="107.0401" x2="70.0507" y2="107.2046">
								<stop  offset="0" style="stop-color:#ACBEE8"/>
								<stop  offset="1" style="stop-color:#8FA2C6"/>
							</linearGradient>
							<polygon id="XMLID_466_" class="st21" points="133.3,93.1 133.3,103.8 103.6,121.1 103.6,110.3 							"/>
						</g>
						<g id="XMLID_463_">
							<linearGradient id="XMLID_45_" gradientUnits="userSpaceOnUse" x1="133.6938" y1="106.944" x2="70.0506" y2="107.1085">
								<stop  offset="0" style="stop-color:#ACBEE8"/>
								<stop  offset="1" style="stop-color:#8FA2C6"/>
							</linearGradient>
							<polygon id="XMLID_464_" class="st22" points="96.2,110.3 96.2,121.1 66.3,103.8 66.3,93.1 							"/>
						</g>
						<g id="XMLID_461_">
							<linearGradient id="XMLID_46_" gradientUnits="userSpaceOnUse" x1="133.7178" y1="116.0553" x2="70.0734" y2="116.2198">
								<stop  offset="0" style="stop-color:#ACBEE8"/>
								<stop  offset="1" style="stop-color:#8FA2C6"/>
							</linearGradient>
							<path id="XMLID_462_" class="st23" d="M103.6,110.3l0,10.7c-2,1.2-5.4,1.2-7.4,0l0-10.7C98.3,111.5,101.6,111.5,103.6,110.3z
								"/>
						</g>
						<g id="XMLID_459_">
							<path id="XMLID_460_" class="st5" d="M133.3,88.8c2.1,1.2,2.1,3.1,0,4.3l-29.7,17.2c-2,1.2-5.4,1.2-7.4,0L66.3,93.1
								c-2.1-1.2-2.1-3.1,0-4.3L96,71.5c2-1.2,5.4-1.2,7.4,0L133.3,88.8z"/>
						</g>
					</g>
					<g id="XMLID_443_">
						<g id="XMLID_456_">
							<polygon id="XMLID_457_" class="st12" points="120.8,90.9 100,103 79,90.9 99.8,78.8 							"/>
						</g>
						<g id="XMLID_454_">
							<polygon id="XMLID_455_" class="st13" points="130.7,90.9 128.6,92.1 126.5,90.9 128.6,89.7 							"/>
						</g>
						<g id="XMLID_452_">
							<polygon id="XMLID_453_" class="st13" points="101.9,74.3 99.8,75.5 97.7,74.3 99.8,73.1 							"/>
						</g>
						<g id="XMLID_450_">
							<polygon id="XMLID_451_" class="st13" points="102.1,107.5 100,108.8 97.9,107.5 100,106.3 							"/>
						</g>
						<g id="XMLID_448_">
							<polygon id="XMLID_449_" class="st13" points="73.3,90.9 71.2,92.1 69.1,90.9 71.2,89.7 							"/>
						</g>
						<g id="XMLID_444_">
							<path id="XMLID_445_" class="st13" d="M99.8,75.5l26.7,15.4L100,106.3L73.3,90.9L99.8,75.5z M100,103l20.9-12.1l-21-12.1
								L79,90.9L100,103"/>
						</g>
					</g>
				</g>
				<g id="XMLID_435_">
					<g id="XMLID_440_">
						<path id="XMLID_441_" class="st13" d="M126.9,101.6c0.4-0.2,0.7,0,0.7,0.4c0,0.5-0.3,1-0.7,1.2l-15.4,8.9
							c-0.4,0.2-0.7,0-0.7-0.4c0-0.5,0.3-1,0.7-1.2L126.9,101.6z"/>
					</g>
					<g id="XMLID_436_">
						<path id="XMLID_437_" class="st24" d="M126.9,100.1c1.1-0.6,2-0.1,2,1.1c0,1.3-0.9,2.8-2,3.4l-15.4,8.9c-1.1,0.6-2,0.1-2-1.1
							c0-1.3,0.9-2.8,2-3.4L126.9,100.1z M126.9,104.1c0.8-0.5,1.5-1.6,1.5-2.5c0-0.9-0.7-1.3-1.5-0.8l-15.4,8.9
							c-0.8,0.5-1.5,1.6-1.5,2.5c0,0.9,0.7,1.3,1.5,0.8L126.9,104.1"/>
					</g>
				</g>
				<g id="XMLID_428_">
					<g id="XMLID_433_">
						<path id="XMLID_434_" class="st13" d="M73.2,101.6c-0.4-0.2-0.7,0-0.7,0.4c0,0.5,0.3,1,0.7,1.2l15.4,8.9
							c0.4,0.2,0.7,0,0.7-0.4c0-0.5-0.3-1-0.7-1.2L73.2,101.6z"/>
					</g>
					<g id="XMLID_429_">
						<path id="XMLID_430_" class="st24" d="M88.6,109c1.1,0.6,2,2.2,2,3.4c0,1.3-0.9,1.8-2,1.1l-15.4-8.9c-1.1-0.6-2-2.2-2-3.4
							c0-1.3,0.9-1.8,2-1.1L88.6,109z M73.2,104.1l15.4,8.9c0.8,0.5,1.5,0.1,1.5-0.8c0-0.9-0.7-2.1-1.5-2.5l-15.4-8.9
							c-0.8-0.5-1.5-0.1-1.5,0.8C71.7,102.5,72.4,103.6,73.2,104.1"/>
					</g>
				</g>
			</g>
			<g id="XMLID_4_">
				<g id="XMLID_94_">
					<g id="XMLID_363_">
						<g id="XMLID_407_" class="st0">
							<g id="XMLID_425_">
								<path id="XMLID_426_" class="st25" d="M91.1,71.2c-2.4,1.4-3.6,3.3-3.6,5.1l0-4.1c0-1.8,1.2-3.7,3.6-5.1
									c4.9-2.8,12.8-2.8,17.8,0c2.5,1.4,3.7,3.3,3.7,5.1c0,1.4,0,2.7,0,4.1c0-1.9-1.2-3.7-3.7-5.1C103.9,68.3,96,68.3,91.1,71.2z"
									/>
							</g>
							<g id="XMLID_423_">
								<path id="XMLID_424_" class="st26" d="M112.5,76.3C112.5,76.3,112.5,76.3,112.5,76.3c0-1.4,0-2.8,0-4.1c0,0,0,0,0,0
									C112.6,73.5,112.6,75.1,112.5,76.3z"/>
							</g>
							<g id="XMLID_421_">
								<path id="XMLID_422_" class="st26" d="M112.6,72.2l0,4.1c0,1.8-1.2,3.7-3.6,5.1c-4.9,2.8-12.8,2.8-17.8,0
									c-2.5-1.4-3.7-3.3-3.7-5.2l0-4.1c0,1.9,1.2,3.7,3.7,5.2c4.9,2.8,12.9,2.8,17.8,0C111.3,75.9,112.6,74.1,112.6,72.2z"/>
							</g>
							<g id="XMLID_419_">
								<path id="XMLID_420_" class="st25" d="M115.7,72.2l0,4.1c0,2.3-1.5,4.6-4.6,6.4c-6.1,3.6-16.1,3.6-22.2,0
									c-3.1-1.8-4.6-4.1-4.6-6.5l0-4.1c0,2.3,1.5,4.7,4.6,6.5c6.2,3.6,16.1,3.6,22.2,0C114.2,76.9,115.7,74.6,115.7,72.2z"/>
							</g>
							<g id="XMLID_417_">
								<path id="XMLID_418_" class="st27" d="M108.9,68.4c4.9,2.8,4.9,7.4,0.1,10.3c-4.9,2.8-12.8,2.8-17.8,0
									c-4.9-2.8-4.9-7.4-0.1-10.3C96,65.6,103.9,65.6,108.9,68.4z"/>
							</g>
							<g id="XMLID_408_">
								<g id="XMLID_81_">
									<path id="XMLID_82_" class="st28" d="M111.1,65.8c6.2,3.6,6.2,9.3,0.1,12.9c-6.1,3.6-16.1,3.6-22.2,0
										c-6.2-3.6-6.2-9.3-0.1-12.9C95,62.2,104.9,62.2,111.1,65.8z M91.2,77.3c4.9,2.8,12.9,2.8,17.8,0c4.9-2.8,4.9-7.4-0.1-10.3
										c-4.9-2.8-12.9-2.8-17.8,0C86.2,69.9,86.2,74.5,91.2,77.3"/>
								</g>
							</g>
						</g>
						<g id="XMLID_364_">
							<g id="XMLID_365_" class="st0">
								<g id="XMLID_405_">
									<polygon id="XMLID_406_" class="st29" points="98.9,67.4 98.9,68.4 98.4,68.2 98.4,67.1 									"/>
								</g>
								<g id="XMLID_403_">
									<path id="XMLID_404_" class="st29" d="M99.4,67.8l0,1.1c0,0,0,0,0,0c0-0.1-0.2-0.3-0.5-0.4l0-1.1
										C99.2,67.6,99.4,67.7,99.4,67.8C99.4,67.8,99.4,67.8,99.4,67.8z"/>
								</g>
								<g id="XMLID_401_">
									<polygon id="XMLID_402_" class="st30" points="105.6,67.2 105.6,68.2 103.4,69.5 103.4,68.4 									"/>
								</g>
								<g id="XMLID_399_">
									<polygon id="XMLID_400_" class="st30" points="107.9,68.5 107.9,69.6 105.7,70.9 105.7,69.8 									"/>
								</g>
								<g id="XMLID_397_">
									<polygon id="XMLID_398_" class="st29" points="103.4,70 103.4,71.1 102.8,70.7 102.8,69.7 									"/>
								</g>
								<g id="XMLID_395_">
									<path id="XMLID_396_" class="st29" d="M104.2,70.8l0,1.1c0,0,0,0,0,0c0-0.2-0.3-0.5-0.8-0.8l0-1.1
										C103.9,70.3,104.2,70.6,104.2,70.8C104.2,70.8,104.2,70.8,104.2,70.8z"/>
								</g>
								<g id="XMLID_393_">
									<polygon id="XMLID_394_" class="st30" points="102.8,69.7 102.8,70.7 100.3,72.2 100.3,71.1 									"/>
								</g>
								<g id="XMLID_391_">
									<polygon id="XMLID_392_" class="st29" points="99.7,72.2 99.7,73.3 99.1,72.9 99.1,71.8 									"/>
								</g>
								<g id="XMLID_389_">
									<path id="XMLID_390_" class="st29" d="M100.6,73.2l0,1.1c0,0,0,0,0-0.1c0-0.3-0.3-0.6-0.9-0.9l0-1.1
										C100.3,72.5,100.6,72.8,100.6,73.2C100.6,73.1,100.6,73.1,100.6,73.2z"/>
								</g>
								<g id="XMLID_387_">
									<polygon id="XMLID_388_" class="st30" points="92.8,73.1 92.8,74.2 90.4,72.8 90.4,71.7 									"/>
								</g>
								<g id="XMLID_385_">
									<path id="XMLID_386_" class="st30" d="M107.8,72l0,1.1c0,0.4-0.3,0.8-0.9,1.1c-0.5,0.3-1.1,0.5-1.9,0.5
										c-0.7,0-1.5-0.1-2.3-0.4l0-1.1c0.8,0.3,1.6,0.4,2.3,0.4c0.7,0,1.3-0.2,1.9-0.5C107.6,72.7,107.8,72.4,107.8,72z"/>
								</g>
								<g id="XMLID_383_">
									<polygon id="XMLID_384_" class="st30" points="99.1,71.8 99.1,72.9 96.1,74.6 96.1,73.5 									"/>
								</g>
								<g id="XMLID_381_">
									<polygon id="XMLID_382_" class="st29" points="95.1,74.5 95.1,75.6 94,74.9 94.1,73.9 									"/>
								</g>
								<g id="XMLID_379_">
									<polygon id="XMLID_380_" class="st30" points="94.1,73.9 94,74.9 91.7,76.3 91.7,75.2 									"/>
								</g>
								<g id="XMLID_377_">
									<polygon id="XMLID_378_" class="st29" points="91.7,75.2 91.7,76.3 90.4,75.6 90.4,74.5 									"/>
								</g>
								<g id="XMLID_375_">
									<polygon id="XMLID_376_" class="st30" points="96.4,75.2 96.4,76.3 94.1,77.7 94.1,76.6 									"/>
								</g>
								<g id="XMLID_373_">
									<polygon id="XMLID_374_" class="st29" points="94.1,76.6 94.1,77.7 92.8,76.9 92.8,75.9 									"/>
								</g>
								<g id="XMLID_371_">
									<path id="XMLID_372_" class="st29" d="M103.8,74.8l0,1.1c0,0.4-0.3,0.8-0.9,1.2c-0.9,0.5-1.9,0.7-3,0.6
										c-1-0.1-2.1-0.6-3.5-1.3l0-1.1c1.4,0.8,2.6,1.2,3.5,1.3c1.1,0.1,2,0,3-0.6C103.5,75.6,103.8,75.2,103.8,74.8z"/>
								</g>
								<g id="XMLID_366_">
									<path id="XMLID_367_" class="st28" d="M103.8,74.8c0,0.5-0.3,0.9-0.9,1.2c-0.9,0.5-1.9,0.7-3,0.6c-1-0.1-2.1-0.6-3.5-1.3
										l-2.3,1.4l-1.3-0.7l2.3-1.4l-1.1-0.6l-2.3,1.4l-1.3-0.7l2.3-1.4l-2.4-1.4l1.3-0.8l0.5,0.3c0.3,0.2,0.6,0.3,0.7,0.3
										c0.2,0,0.4-0.1,0.8-0.3l0.1,0l5.1-3c0.4-0.2,0.5-0.4,0.5-0.5c0-0.1-0.2-0.3-0.5-0.4l-0.5-0.3l1.3-0.8l2.4,1.4l2.2-1.3
										l1.3,0.7l-2.2,1.3l1.1,0.6l2.2-1.3l1.3,0.7l-2.2,1.3c1.1,0.7,1.8,1.3,2,1.8c0.2,0.5,0,1-0.8,1.5c-0.5,0.3-1.1,0.5-1.9,0.5
										c-0.7,0-1.5-0.1-2.3-0.4C103.4,73.8,103.8,74.3,103.8,74.8z M98.4,74.4c0.5,0,1-0.1,1.5-0.5c0.5-0.3,0.7-0.6,0.7-0.9
										c0-0.3-0.3-0.6-0.9-0.9l-0.6-0.3l-3,1.7l0.6,0.4C97.3,74.2,97.9,74.4,98.4,74.4 M102.8,69.7l-2.5,1.4l0.5,0.3
										c0.5,0.3,1,0.5,1.4,0.5c0.4,0,0.9-0.1,1.3-0.4c0.4-0.3,0.6-0.5,0.6-0.7c0-0.2-0.3-0.5-0.8-0.8L102.8,69.7"/>
								</g>
							</g>
						</g>
					</g>
					<g id="XMLID_299_">
						<g id="XMLID_343_" class="st0">
							<g id="XMLID_361_">
								<path id="XMLID_362_" class="st25" d="M91.1,64.7c-2.4,1.4-3.6,3.3-3.6,5.1l0-4.1c0-1.8,1.2-3.7,3.6-5.1
									c4.9-2.8,12.8-2.8,17.8,0c2.5,1.4,3.7,3.3,3.7,5.1c0,1.4,0,2.7,0,4.1c0-1.9-1.2-3.7-3.7-5.1C103.9,61.8,96,61.8,91.1,64.7z"
									/>
							</g>
							<g id="XMLID_359_">
								<path id="XMLID_360_" class="st26" d="M112.5,69.8C112.5,69.8,112.5,69.8,112.5,69.8c0-1.4,0-2.8,0-4.1c0,0,0,0,0,0
									C112.6,67,112.6,68.6,112.5,69.8z"/>
							</g>
							<g id="XMLID_357_">
								<path id="XMLID_358_" class="st26" d="M112.6,65.7l0,4.1c0,1.8-1.2,3.7-3.6,5.1c-4.9,2.8-12.8,2.8-17.8,0
									c-2.5-1.4-3.7-3.3-3.7-5.2l0-4.1c0,1.9,1.2,3.7,3.7,5.2c4.9,2.8,12.9,2.8,17.8,0C111.3,69.4,112.6,67.6,112.6,65.7z"/>
							</g>
							<g id="XMLID_355_">
								<path id="XMLID_356_" class="st25" d="M115.7,65.8l0,4.1c0,2.3-1.5,4.6-4.6,6.4c-6.1,3.6-16.1,3.6-22.2,0
									c-3.1-1.8-4.6-4.1-4.6-6.5l0-4.1c0,2.3,1.5,4.7,4.6,6.5c6.2,3.6,16.1,3.6,22.2,0C114.2,70.4,115.7,68.1,115.7,65.8z"/>
							</g>
							<g id="XMLID_353_">
								<path id="XMLID_354_" class="st27" d="M108.9,62c4.9,2.8,4.9,7.4,0.1,10.3c-4.9,2.8-12.8,2.8-17.8,0
									c-4.9-2.8-4.9-7.4-0.1-10.3C96,59.1,103.9,59.1,108.9,62z"/>
							</g>
							<g id="XMLID_344_">
								<g id="XMLID_75_">
									<path id="XMLID_77_" class="st28" d="M111.1,59.3c6.2,3.6,6.2,9.3,0.1,12.9c-6.1,3.6-16.1,3.6-22.2,0
										c-6.2-3.6-6.2-9.3-0.1-12.9C95,55.7,104.9,55.7,111.1,59.3z M91.2,70.9c4.9,2.8,12.9,2.8,17.8,0c4.9-2.8,4.9-7.4-0.1-10.3
										c-4.9-2.8-12.9-2.8-17.8,0C86.2,63.4,86.2,68,91.2,70.9"/>
								</g>
							</g>
						</g>
						<g id="XMLID_300_">
							<g id="XMLID_301_" class="st0">
								<g id="XMLID_341_">
									<polygon id="XMLID_342_" class="st29" points="98.9,60.9 98.9,61.9 98.4,61.7 98.4,60.6 									"/>
								</g>
								<g id="XMLID_339_">
									<path id="XMLID_340_" class="st29" d="M99.4,61.3l0,1.1c0,0,0,0,0,0c0-0.1-0.2-0.3-0.5-0.4l0-1.1
										C99.2,61.1,99.4,61.2,99.4,61.3C99.4,61.3,99.4,61.3,99.4,61.3z"/>
								</g>
								<g id="XMLID_337_">
									<polygon id="XMLID_338_" class="st30" points="105.6,60.7 105.6,61.8 103.4,63 103.4,61.9 									"/>
								</g>
								<g id="XMLID_335_">
									<polygon id="XMLID_336_" class="st30" points="107.9,62 107.9,63.1 105.7,64.4 105.7,63.3 									"/>
								</g>
								<g id="XMLID_333_">
									<polygon id="XMLID_334_" class="st29" points="103.4,63.5 103.4,64.6 102.8,64.3 102.8,63.2 									"/>
								</g>
								<g id="XMLID_331_">
									<path id="XMLID_332_" class="st29" d="M104.2,64.3l0,1.1c0,0,0,0,0,0c0-0.2-0.3-0.5-0.8-0.8l0-1.1
										C103.9,63.8,104.2,64.1,104.2,64.3C104.2,64.3,104.2,64.3,104.2,64.3z"/>
								</g>
								<g id="XMLID_329_">
									<polygon id="XMLID_330_" class="st30" points="102.8,63.2 102.8,64.3 100.3,65.7 100.3,64.6 									"/>
								</g>
								<g id="XMLID_327_">
									<polygon id="XMLID_328_" class="st29" points="99.7,65.7 99.7,66.8 99.1,66.4 99.1,65.3 									"/>
								</g>
								<g id="XMLID_325_">
									<path id="XMLID_326_" class="st29" d="M100.6,66.7l0,1.1c0,0,0,0,0-0.1c0-0.3-0.3-0.6-0.9-0.9l0-1.1
										C100.3,66,100.6,66.3,100.6,66.7C100.6,66.6,100.6,66.6,100.6,66.7z"/>
								</g>
								<g id="XMLID_323_">
									<polygon id="XMLID_324_" class="st30" points="92.8,66.6 92.8,67.7 90.4,66.3 90.4,65.3 									"/>
								</g>
								<g id="XMLID_321_">
									<path id="XMLID_322_" class="st30" d="M107.8,65.5l0,1.1c0,0.4-0.3,0.8-0.9,1.1c-0.5,0.3-1.1,0.5-1.9,0.5
										c-0.7,0-1.5-0.1-2.3-0.4l0-1.1c0.8,0.3,1.6,0.4,2.3,0.4c0.7,0,1.3-0.2,1.9-0.5C107.6,66.2,107.8,65.9,107.8,65.5z"/>
								</g>
								<g id="XMLID_319_">
									<polygon id="XMLID_320_" class="st30" points="99.1,65.3 99.1,66.4 96.1,68.1 96.1,67.1 									"/>
								</g>
								<g id="XMLID_317_">
									<polygon id="XMLID_318_" class="st29" points="95.1,68 95.1,69.1 94,68.4 94.1,67.4 									"/>
								</g>
								<g id="XMLID_315_">
									<polygon id="XMLID_316_" class="st30" points="94.1,67.4 94,68.4 91.7,69.8 91.7,68.7 									"/>
								</g>
								<g id="XMLID_313_">
									<polygon id="XMLID_314_" class="st29" points="91.7,68.7 91.7,69.8 90.4,69.1 90.4,68 									"/>
								</g>
								<g id="XMLID_311_">
									<polygon id="XMLID_312_" class="st30" points="96.4,68.7 96.4,69.8 94.1,71.2 94.1,70.1 									"/>
								</g>
								<g id="XMLID_309_">
									<polygon id="XMLID_310_" class="st29" points="94.1,70.1 94.1,71.2 92.8,70.4 92.8,69.4 									"/>
								</g>
								<g id="XMLID_307_">
									<path id="XMLID_308_" class="st29" d="M103.8,68.3l0,1.1c0,0.4-0.3,0.8-0.9,1.2c-0.9,0.5-1.9,0.7-3,0.6
										c-1-0.1-2.1-0.6-3.5-1.3l0-1.1c1.4,0.8,2.6,1.2,3.5,1.3c1.1,0.1,2,0,3-0.6C103.5,69.2,103.8,68.8,103.8,68.3z"/>
								</g>
								<g id="XMLID_302_">
									<path id="XMLID_303_" class="st28" d="M103.8,68.3c0,0.5-0.3,0.9-0.9,1.2c-0.9,0.5-1.9,0.7-3,0.6c-1-0.1-2.1-0.6-3.5-1.3
										l-2.3,1.4l-1.3-0.7l2.3-1.4l-1.1-0.6l-2.3,1.4L90.4,68l2.3-1.4l-2.4-1.4l1.3-0.8l0.5,0.3c0.3,0.2,0.6,0.3,0.7,0.3
										c0.2,0,0.4-0.1,0.8-0.3l0.1,0l5.1-3c0.4-0.2,0.5-0.4,0.5-0.5c0-0.1-0.2-0.3-0.5-0.4l-0.5-0.3l1.3-0.8l2.4,1.4l2.2-1.3
										l1.3,0.7l-2.2,1.3l1.1,0.6l2.2-1.3l1.3,0.7l-2.2,1.3c1.1,0.7,1.8,1.3,2,1.8c0.2,0.5,0,1-0.8,1.5c-0.5,0.3-1.1,0.5-1.9,0.5
										c-0.7,0-1.5-0.1-2.3-0.4C103.4,67.3,103.8,67.8,103.8,68.3z M98.4,67.9c0.5,0,1-0.1,1.5-0.5c0.5-0.3,0.7-0.6,0.7-0.9
										c0-0.3-0.3-0.6-0.9-0.9l-0.6-0.3l-3,1.7l0.6,0.4C97.3,67.8,97.9,67.9,98.4,67.9 M102.8,63.2l-2.5,1.4l0.5,0.3
										c0.5,0.3,1,0.5,1.4,0.5c0.4,0,0.9-0.1,1.3-0.4c0.4-0.3,0.6-0.5,0.6-0.7c0-0.2-0.3-0.5-0.8-0.8L102.8,63.2"/>
								</g>
							</g>
						</g>
					</g>
					<g id="XMLID_206_">
						<g id="XMLID_250_" class="st0">
							<g id="XMLID_297_">
								<path id="XMLID_298_" class="st25" d="M91.1,58.2c-2.4,1.4-3.6,3.3-3.6,5.1l0-4.1c0-1.8,1.2-3.7,3.6-5.1
									c4.9-2.8,12.8-2.8,17.8,0c2.5,1.4,3.7,3.3,3.7,5.1c0,1.4,0,2.7,0,4.1c0-1.9-1.2-3.7-3.7-5.1C103.9,55.3,96,55.3,91.1,58.2z"
									/>
							</g>
							<g id="XMLID_295_">
								<path id="XMLID_296_" class="st26" d="M112.5,63.4C112.5,63.3,112.5,63.3,112.5,63.4c0-1.4,0-2.8,0-4.1c0,0,0,0,0,0
									C112.6,60.5,112.6,62.1,112.5,63.4z"/>
							</g>
							<g id="XMLID_293_">
								<path id="XMLID_294_" class="st26" d="M112.6,59.3l0,4.1c0,1.8-1.2,3.7-3.6,5.1c-4.9,2.8-12.8,2.8-17.8,0
									c-2.5-1.4-3.7-3.3-3.7-5.2l0-4.1c0,1.9,1.2,3.7,3.7,5.2c4.9,2.8,12.9,2.8,17.8,0C111.3,63,112.6,61.1,112.6,59.3z"/>
							</g>
							<g id="XMLID_262_">
								<path id="XMLID_292_" class="st25" d="M115.7,59.3l0,4.1c0,2.3-1.5,4.6-4.6,6.4c-6.1,3.6-16.1,3.6-22.2,0
									c-3.1-1.8-4.6-4.1-4.6-6.5l0-4.1c0,2.3,1.5,4.7,4.6,6.5c6.2,3.6,16.1,3.6,22.2,0C114.2,63.9,115.7,61.6,115.7,59.3z"/>
							</g>
							<g id="XMLID_260_">
								<path id="XMLID_261_" class="st27" d="M108.9,55.5c4.9,2.8,4.9,7.4,0.1,10.3c-4.9,2.8-12.8,2.8-17.8,0
									c-4.9-2.8-4.9-7.4-0.1-10.3C96,52.6,103.9,52.6,108.9,55.5z"/>
							</g>
							<g id="XMLID_251_">
								<g id="XMLID_70_">
									<path id="XMLID_71_" class="st28" d="M111.1,52.8c6.2,3.6,6.2,9.3,0.1,12.9c-6.1,3.6-16.1,3.6-22.2,0
										c-6.2-3.6-6.2-9.3-0.1-12.9C95,49.2,104.9,49.2,111.1,52.8z M91.2,64.4c4.9,2.8,12.9,2.8,17.8,0c4.9-2.8,4.9-7.4-0.1-10.3
										c-4.9-2.8-12.9-2.8-17.8,0C86.2,56.9,86.2,61.5,91.2,64.4"/>
								</g>
							</g>
						</g>
						<g id="XMLID_207_">
							<g id="XMLID_208_" class="st0">
								<g id="XMLID_248_">
									<polygon id="XMLID_249_" class="st29" points="98.9,54.4 98.9,55.5 98.4,55.2 98.4,54.1 									"/>
								</g>
								<g id="XMLID_246_">
									<path id="XMLID_247_" class="st29" d="M99.4,54.8l0,1.1c0,0,0,0,0,0c0-0.1-0.2-0.3-0.5-0.4l0-1.1
										C99.2,54.6,99.4,54.7,99.4,54.8C99.4,54.8,99.4,54.8,99.4,54.8z"/>
								</g>
								<g id="XMLID_244_">
									<polygon id="XMLID_245_" class="st30" points="105.6,54.2 105.6,55.3 103.4,56.5 103.4,55.5 									"/>
								</g>
								<g id="XMLID_242_">
									<polygon id="XMLID_243_" class="st30" points="107.9,55.5 107.9,56.6 105.7,57.9 105.7,56.8 									"/>
								</g>
								<g id="XMLID_240_">
									<polygon id="XMLID_241_" class="st29" points="103.4,57 103.4,58.1 102.8,57.8 102.8,56.7 									"/>
								</g>
								<g id="XMLID_238_">
									<path id="XMLID_239_" class="st29" d="M104.2,57.9l0,1.1c0,0,0,0,0,0c0-0.2-0.3-0.5-0.8-0.8l0-1.1
										C103.9,57.3,104.2,57.6,104.2,57.9C104.2,57.8,104.2,57.8,104.2,57.9z"/>
								</g>
								<g id="XMLID_236_">
									<polygon id="XMLID_237_" class="st30" points="102.8,56.7 102.8,57.8 100.3,59.2 100.3,58.1 									"/>
								</g>
								<g id="XMLID_234_">
									<polygon id="XMLID_235_" class="st29" points="99.7,59.2 99.7,60.3 99.1,59.9 99.1,58.8 									"/>
								</g>
								<g id="XMLID_232_">
									<path id="XMLID_233_" class="st29" d="M100.6,60.2l0,1.1c0,0,0,0,0-0.1c0-0.3-0.3-0.6-0.9-0.9l0-1.1
										C100.3,59.5,100.6,59.8,100.6,60.2C100.6,60.1,100.6,60.2,100.6,60.2z"/>
								</g>
								<g id="XMLID_230_">
									<polygon id="XMLID_231_" class="st30" points="92.8,60.2 92.8,61.2 90.4,59.8 90.4,58.8 									"/>
								</g>
								<g id="XMLID_228_">
									<path id="XMLID_229_" class="st30" d="M107.8,59l0,1.1c0,0.4-0.3,0.8-0.9,1.1c-0.5,0.3-1.1,0.5-1.9,0.5
										c-0.7,0-1.5-0.1-2.3-0.4l0-1.1c0.8,0.3,1.6,0.4,2.3,0.4c0.7,0,1.3-0.2,1.9-0.5C107.6,59.7,107.8,59.4,107.8,59z"/>
								</g>
								<g id="XMLID_226_">
									<polygon id="XMLID_227_" class="st30" points="99.1,58.8 99.1,59.9 96.1,61.6 96.1,60.6 									"/>
								</g>
								<g id="XMLID_224_">
									<polygon id="XMLID_225_" class="st29" points="95.1,61.5 95.1,62.6 94,62 94.1,60.9 									"/>
								</g>
								<g id="XMLID_222_">
									<polygon id="XMLID_223_" class="st30" points="94.1,60.9 94,62 91.7,63.3 91.7,62.2 									"/>
								</g>
								<g id="XMLID_220_">
									<polygon id="XMLID_221_" class="st29" points="91.7,62.2 91.7,63.3 90.4,62.6 90.4,61.5 									"/>
								</g>
								<g id="XMLID_218_">
									<polygon id="XMLID_219_" class="st30" points="96.4,62.2 96.4,63.3 94.1,64.7 94.1,63.6 									"/>
								</g>
								<g id="XMLID_216_">
									<polygon id="XMLID_217_" class="st29" points="94.1,63.6 94.1,64.7 92.8,63.9 92.8,62.9 									"/>
								</g>
								<g id="XMLID_214_">
									<path id="XMLID_215_" class="st29" d="M103.8,61.8l0,1.1c0,0.4-0.3,0.8-0.9,1.2c-0.9,0.5-1.9,0.7-3,0.6
										c-1-0.1-2.1-0.6-3.5-1.3l0-1.1c1.4,0.8,2.6,1.2,3.5,1.3c1.1,0.1,2,0,3-0.6C103.5,62.7,103.8,62.3,103.8,61.8z"/>
								</g>
								<g id="XMLID_209_">
									<path id="XMLID_210_" class="st28" d="M103.8,61.8c0,0.5-0.3,0.9-0.9,1.2c-0.9,0.5-1.9,0.7-3,0.6c-1-0.1-2.1-0.6-3.5-1.3
										l-2.3,1.4l-1.3-0.7l2.3-1.4l-1.1-0.6l-2.3,1.4l-1.3-0.7l2.3-1.4l-2.4-1.4l1.3-0.8l0.5,0.3c0.3,0.2,0.6,0.3,0.7,0.3
										c0.2,0,0.4-0.1,0.8-0.3l0.1,0l5.1-3c0.4-0.2,0.5-0.4,0.5-0.5c0-0.1-0.2-0.3-0.5-0.4l-0.5-0.3l1.3-0.8l2.4,1.4l2.2-1.3
										l1.3,0.7l-2.2,1.3l1.1,0.6l2.2-1.3l1.3,0.7l-2.2,1.3c1.1,0.7,1.8,1.3,2,1.8c0.2,0.5,0,1-0.8,1.5c-0.5,0.3-1.1,0.5-1.9,0.5
										c-0.7,0-1.5-0.1-2.3-0.4C103.4,60.8,103.8,61.3,103.8,61.8z M98.4,61.4c0.5,0,1-0.1,1.5-0.5c0.5-0.3,0.7-0.6,0.7-0.9
										c0-0.3-0.3-0.6-0.9-0.9l-0.6-0.3l-3,1.7l0.6,0.4C97.3,61.3,97.9,61.4,98.4,61.4 M102.8,56.7l-2.5,1.4l0.5,0.3
										c0.5,0.3,1,0.5,1.4,0.5c0.4,0,0.9-0.1,1.3-0.4c0.4-0.3,0.6-0.5,0.6-0.7c0-0.2-0.3-0.5-0.8-0.8L102.8,56.7"/>
								</g>
							</g>
						</g>
					</g>
					<g id="XMLID_95_">
						<g id="XMLID_164_" class="st0">
							<g id="XMLID_204_">
								<path id="XMLID_205_" class="st25" d="M91.1,51.7c-2.4,1.4-3.6,3.3-3.6,5.1l0-4.1c0-1.8,1.2-3.7,3.6-5.1
									c4.9-2.8,12.8-2.8,17.8,0c2.5,1.4,3.7,3.3,3.7,5.1c0,1.4,0,2.7,0,4.1c0-1.9-1.2-3.7-3.7-5.1C103.9,48.8,96,48.8,91.1,51.7z"
									/>
							</g>
							<g id="XMLID_202_">
								<path id="XMLID_203_" class="st26" d="M112.5,56.9C112.5,56.8,112.5,56.8,112.5,56.9c0-1.4,0-2.8,0-4.1c0,0,0,0,0,0
									C112.6,54,112.6,55.6,112.5,56.9z"/>
							</g>
							<g id="XMLID_178_">
								<path id="XMLID_179_" class="st26" d="M112.6,52.8l0,4.1c0,1.8-1.2,3.7-3.6,5.1c-4.9,2.8-12.8,2.8-17.8,0
									c-2.5-1.4-3.7-3.3-3.7-5.2l0-4.1c0,1.9,1.2,3.7,3.7,5.2c4.9,2.8,12.9,2.8,17.8,0C111.3,56.5,112.6,54.6,112.6,52.8z"/>
							</g>
							<g id="XMLID_176_">
								<path id="XMLID_177_" class="st25" d="M115.7,52.8l0,4.1c0,2.3-1.5,4.6-4.6,6.4c-6.1,3.6-16.1,3.6-22.2,0
									c-3.1-1.8-4.6-4.1-4.6-6.5l0-4.1c0,2.3,1.5,4.7,4.6,6.5c6.2,3.6,16.1,3.6,22.2,0C114.2,57.4,115.7,55.1,115.7,52.8z"/>
							</g>
							<g id="XMLID_174_">
								<path id="XMLID_175_" class="st27" d="M108.9,49c4.9,2.8,4.9,7.4,0.1,10.3c-4.9,2.8-12.8,2.8-17.8,0
									c-4.9-2.8-4.9-7.4-0.1-10.3C96,46.1,103.9,46.1,108.9,49z"/>
							</g>
							<g id="XMLID_165_">
								<g id="XMLID_69_">
									<path id="XMLID_74_" class="st28" d="M111.1,46.3c6.2,3.6,6.2,9.3,0.1,12.9c-6.1,3.6-16.1,3.6-22.2,0
										c-6.2-3.6-6.2-9.3-0.1-12.9C95,42.7,104.9,42.7,111.1,46.3z M91.2,57.9c4.9,2.8,12.9,2.8,17.8,0c4.9-2.8,4.9-7.4-0.1-10.3
										c-4.9-2.8-12.9-2.8-17.8,0C86.2,50.4,86.2,55,91.2,57.9"/>
								</g>
							</g>
						</g>
						<g id="XMLID_96_">
							<g id="XMLID_140_">
								<defs>
									<path id="XMLID_141_" d="M103.9,51.9l0,0.8c-0.1-1.4-1.6-2.4-3.3-2.6c-1.3-0.2-2.7,0.1-3.8,0.9c-0.9,0.7-1.3,1.4-1.2,2.2
										l0-0.8c0-0.7,0.3-1.5,1.2-2.2c1.1-0.8,2.6-1.1,3.8-0.9C102.3,49.6,103.8,50.6,103.9,51.9z"/>
								</defs>
								<use xlink:href="#XMLID_141_"  style="overflow:visible;fill:#D17A11;"/>
								<clipPath id="XMLID_47_">
									<use xlink:href="#XMLID_141_"  style="overflow:visible;"/>
								</clipPath>
								<g id="XMLID_142_" class="st31">
									<path id="XMLID_163_" class="st30" d="M103.9,51.9l0,0.8c-0.1-1.2-1.2-2.1-2.7-2.5l0-0.8C102.7,49.8,103.8,50.7,103.9,51.9
										"/>
									<path id="XMLID_154_" class="st30" d="M101.2,49.4l0,0.8c-0.2,0-0.4-0.1-0.6-0.1c0,0,0,0-0.1,0l0-0.8c0,0,0,0,0.1,0
										C100.8,49.4,101,49.4,101.2,49.4"/>
									<path id="XMLID_153_" class="st30" d="M100.5,49.3l0,0.8c-0.2,0-0.4,0-0.6,0l0-0.8C100.2,49.3,100.3,49.3,100.5,49.3"/>
									<path id="XMLID_152_" class="st30" d="M100,49.3l0,0.8c-0.2,0-0.3,0-0.5,0l0-0.8C99.6,49.3,99.8,49.3,100,49.3"/>
									<path id="XMLID_151_" class="st30" d="M99.5,49.3l0,0.8c-0.2,0-0.3,0-0.5,0.1l0-0.8C99.1,49.3,99.3,49.3,99.5,49.3"/>
									<path id="XMLID_150_" class="st30" d="M99,49.4l0,0.8c-0.2,0-0.3,0.1-0.5,0.1l0-0.8C98.6,49.4,98.8,49.4,99,49.4"/>
									<path id="XMLID_149_" class="st30" d="M98.5,49.5l0,0.8c-0.2,0-0.4,0.1-0.6,0.2l0-0.8C98.1,49.6,98.3,49.5,98.5,49.5"/>
									<path id="XMLID_148_" class="st30" d="M97.9,49.6l0,0.8c-0.3,0.1-0.6,0.2-0.8,0.4l0-0.8C97.3,49.9,97.6,49.7,97.9,49.6"/>
									<path id="XMLID_147_" class="st30" d="M97.1,50l0,0.8c-0.1,0.1-0.2,0.1-0.3,0.2c-0.2,0.2-0.4,0.3-0.6,0.5l0-0.8
										c0.2-0.2,0.4-0.4,0.6-0.5C96.9,50.2,97,50.1,97.1,50"/>
									<path id="XMLID_146_" class="st30" d="M96.2,50.8l0,0.8c-0.2,0.2-0.3,0.4-0.4,0.6l0-0.8C95.8,51.2,96,51,96.2,50.8"/>
									<path id="XMLID_145_" class="st30" d="M95.7,51.4l0,0.8c-0.1,0.1-0.1,0.3-0.2,0.4l0-0.8C95.6,51.7,95.7,51.5,95.7,51.4"/>
									<path id="XMLID_144_" class="st30" d="M95.6,51.8l0,0.8c0,0.1-0.1,0.2-0.1,0.4l0-0.8C95.5,52.1,95.5,51.9,95.6,51.8"/>
									<path id="XMLID_143_" class="st30" d="M95.5,52.2l0,0.8c0,0.1,0,0.2,0,0.3l0-0.8C95.5,52.4,95.5,52.3,95.5,52.2"/>
								</g>
							</g>
							<g id="XMLID_138_">
								<polygon id="XMLID_139_" class="st29" points="102.6,52.1 102.6,52.9 102.1,54.6 102,53.8 								"/>
							</g>
							<g id="XMLID_136_">
								<polygon id="XMLID_137_" class="st30" points="100.8,54.4 100.9,55.2 98.5,54.9 98.4,54.1 								"/>
							</g>
							<g id="XMLID_132_">
								<defs>
									<path id="XMLID_133_" d="M103.7,54.7l0,0.8c-0.2-0.3-0.5-0.5-0.7-0.8l0-0.8C103.2,54.2,103.5,54.5,103.7,54.7z"/>
								</defs>
								<use xlink:href="#XMLID_133_"  style="overflow:visible;fill:#D17A11;"/>
								<clipPath id="XMLID_48_">
									<use xlink:href="#XMLID_133_"  style="overflow:visible;"/>
								</clipPath>
								<g id="XMLID_134_" class="st32">
									<path id="XMLID_135_" class="st30" d="M103.7,54.7l0,0.8c-0.2-0.3-0.5-0.5-0.7-0.8l0-0.8C103.2,54.2,103.5,54.5,103.7,54.7
										"/>
								</g>
							</g>
							<g id="XMLID_124_">
								<defs>
									<path id="XMLID_125_" d="M106.6,51.8l0,0.8c0,0.4,0,0.9-0.2,1.3c-0.2,0.7-0.6,1.3-1.2,1.8l0-0.8c0.6-0.6,1-1.2,1.2-1.8
										C106.6,52.7,106.7,52.2,106.6,51.8z"/>
								</defs>
								<use xlink:href="#XMLID_125_"  style="overflow:visible;fill:#F2972A;"/>
								<clipPath id="XMLID_49_">
									<use xlink:href="#XMLID_125_"  style="overflow:visible;"/>
								</clipPath>
								<g id="XMLID_126_" class="st33">
									<path id="XMLID_131_" class="st29" d="M106.6,51.8l0,0.8c0,0.1,0,0.3,0,0.4l0-0.8C106.7,52.1,106.7,52,106.6,51.8"/>
									<path id="XMLID_130_" class="st29" d="M106.6,52.3l0,0.8c0,0.2-0.1,0.4-0.1,0.6l0-0.8C106.6,52.7,106.6,52.5,106.6,52.3"/>
									<path id="XMLID_129_" class="st29" d="M106.5,52.9l0,0.8c0,0.1,0,0.1-0.1,0.2c-0.1,0.2-0.1,0.4-0.2,0.5l0-0.8
										c0.1-0.2,0.2-0.4,0.2-0.5C106.5,53,106.5,53,106.5,52.9"/>
									<path id="XMLID_128_" class="st29" d="M106.3,53.6l0,0.8c-0.2,0.4-0.4,0.7-0.7,1l0-0.8C105.9,54.3,106.1,54,106.3,53.6"/>
									<path id="XMLID_127_" class="st29" d="M105.6,54.7l0,0.8c-0.1,0.1-0.2,0.2-0.3,0.3l0-0.8C105.4,54.9,105.5,54.8,105.6,54.7
										"/>
								</g>
							</g>
							<g id="XMLID_120_">
								<defs>
									<path id="XMLID_121_" d="M105.3,54.9l0,0.8c-0.5-0.1-1.1-0.1-1.6-0.2l0-0.8C104.2,54.8,104.8,54.9,105.3,54.9z"/>
								</defs>
								<use xlink:href="#XMLID_121_"  style="overflow:visible;fill:#D17A11;"/>
								<clipPath id="XMLID_50_">
									<use xlink:href="#XMLID_121_"  style="overflow:visible;"/>
								</clipPath>
								<g id="XMLID_122_" class="st34">
									<path id="XMLID_123_" class="st30" d="M105.3,54.9l0,0.8c-0.5-0.1-1.1-0.1-1.6-0.2l0-0.8C104.2,54.8,104.8,54.9,105.3,54.9
										"/>
								</g>
							</g>
							<g id="XMLID_118_">
								<polygon id="XMLID_119_" class="st30" points="102.1,55.7 102.2,56.6 100.9,55.2 100.8,54.4 								"/>
							</g>
							<g id="XMLID_114_">
								<defs>
									<path id="XMLID_115_" d="M101.4,55.9l0,0.8c-0.1,0.4-0.2,0.8-0.4,1.1l0-0.8C101.1,56.6,101.2,56.2,101.4,55.9z"/>
								</defs>
								<use xlink:href="#XMLID_115_"  style="overflow:visible;fill:#F2972A;"/>
								<clipPath id="XMLID_51_">
									<use xlink:href="#XMLID_115_"  style="overflow:visible;"/>
								</clipPath>
								<g id="XMLID_116_" class="st35">
									<path id="XMLID_117_" class="st29" d="M101.4,55.9l0,0.8c-0.1,0.4-0.2,0.8-0.4,1.1l0-0.8C101.1,56.6,101.2,56.2,101.4,55.9
										"/>
								</g>
							</g>
							<g id="XMLID_112_">
								<path id="XMLID_113_" class="st28" d="M101.2,47.4c0.6,0.1,1.3,0.2,1.9,0.4c2.7,1,4.1,3.1,3.4,5.2c-0.2,0.7-0.6,1.3-1.2,1.8
									c-0.5-0.1-1.1-0.1-1.6-0.2c-0.2-0.3-0.5-0.5-0.7-0.8c0.4-0.4,0.6-0.7,0.8-1.2c0.6-1.8-1.1-3.1-3.2-3.4
									c-1.3-0.2-2.7,0.1-3.8,0.9c-2.5,1.8-1,4.5,2,4.9c0.6,0.1,1.2,0.1,1.9-0.1c0.2,0.3,0.5,0.5,0.7,0.8c-0.1,0.4-0.2,0.8-0.4,1.1
									c-1,0.2-1.9,0.2-2.8,0.1c-2-0.3-3.7-1.1-4.6-2.4c-1.4-1.9-0.9-4.2,1.3-5.8C96.6,47.7,99,47.1,101.2,47.4z"/>
							</g>
							<g id="XMLID_103_">
								<defs>
									<path id="XMLID_104_" d="M92.8,53.5l0-0.8c0,0.7,0.3,1.4,0.8,2c1,1.3,2.7,2.1,4.6,2.4c0.9,0.1,1.9,0.1,2.8-0.1l0,0.8
										c-1,0.2-1.9,0.2-2.8,0.1c-2-0.3-3.7-1.1-4.6-2.4C93.1,54.9,92.8,54.2,92.8,53.5z"/>
								</defs>
								<use xlink:href="#XMLID_104_"  style="overflow:visible;fill:#D17A11;"/>
								<clipPath id="XMLID_52_">
									<use xlink:href="#XMLID_104_"  style="overflow:visible;"/>
								</clipPath>
								<g id="XMLID_105_" class="st36">
									<path id="XMLID_111_" class="st30" d="M101,57l0,0.8c0,0-0.1,0-0.1,0l0-0.8C100.9,57,101,57,101,57"/>
									<path id="XMLID_110_" class="st30" d="M100.9,57l0,0.8c-0.3,0-0.6,0.1-0.8,0.1l0-0.8C100.3,57.1,100.6,57,100.9,57"/>
									<path id="XMLID_109_" class="st30" d="M100,57.1l0,0.8c-0.3,0-0.6,0-0.9,0l0-0.8C99.5,57.1,99.7,57.1,100,57.1"/>
									<path id="XMLID_108_" class="st30" d="M99.2,57.1l0,0.8c-0.3,0-0.6,0-0.9-0.1l0-0.8C98.6,57.1,98.9,57.1,99.2,57.1"/>
									<path id="XMLID_107_" class="st30" d="M98.3,57l0,0.8c0,0-0.1,0-0.1,0c-0.3,0-0.7-0.1-1-0.2l0-0.8c0.3,0.1,0.6,0.1,1,0.2
										C98.2,57,98.2,57,98.3,57"/>
									<path id="XMLID_106_" class="st30" d="M97.2,56.9l0,0.8c-1.6-0.4-2.9-1.1-3.7-2.2c-0.5-0.6-0.7-1.3-0.8-2l0-0.8
										c0,0.7,0.3,1.4,0.8,2C94.3,55.7,95.7,56.5,97.2,56.9"/>
								</g>
							</g>
							<g id="XMLID_101_">
								<polygon id="XMLID_102_" class="st29" points="105.7,55.5 105.8,56.3 105,58.7 104.9,57.9 								"/>
							</g>
							<g id="XMLID_99_">
								<polygon id="XMLID_100_" class="st28" points="102.6,52.1 102,53.8 103.3,55.2 105.7,55.5 104.9,57.9 101.6,57.5 
									102.1,55.7 100.8,54.4 98.4,54.1 99.2,51.7 								"/>
							</g>
							<g id="XMLID_97_">
								<polygon id="XMLID_98_" class="st30" points="104.9,57.9 105,58.7 101.6,58.3 101.6,57.5 								"/>
							</g>
						</g>
					</g>
				</g>
				<g id="XMLID_93_" class="st37">
					<linearGradient id="XMLID_53_" gradientUnits="userSpaceOnUse" x1="100" y1="109.5048" x2="100" y2="-4.9328">
						<stop  offset="0" style="stop-color:#FFD815"/>
						<stop  offset="0.9951" style="stop-color:#FFEDCF;stop-opacity:0"/>
					</linearGradient>
					<polygon id="XMLID_42_" class="st38" points="79.3,90.9 100.1,103 120.7,90.9 148.3,0 51.7,0 					"/>
				</g>
			</g>
		</g>
	</g>
	<g id="XMLID_1_">
		<path id="XMLID_5_" class="st39" d="M59.2,230.3c0,0.8-0.3,1.4-0.8,1.8c-0.5,0.4-1.3,0.6-2.3,0.6h-0.9v3.1h-0.9V228h2
			C58.2,228,59.2,228.8,59.2,230.3z M55.1,232h0.8c0.8,0,1.4-0.1,1.8-0.4c0.4-0.3,0.5-0.7,0.5-1.3c0-0.5-0.2-0.9-0.5-1.2
			c-0.3-0.3-0.9-0.4-1.6-0.4h-1V232z"/>
		<path id="XMLID_8_" class="st39" d="M67.6,231.9c0,1.3-0.3,2.2-1,3S65.2,236,64,236c-1.2,0-2.1-0.4-2.7-1.1
			c-0.6-0.7-0.9-1.7-0.9-3c0-1.3,0.3-2.3,0.9-3s1.5-1.1,2.7-1.1c1.1,0,2,0.4,2.6,1.1C67.3,229.7,67.6,230.7,67.6,231.9z M61.4,231.9
			c0,1.1,0.2,1.9,0.7,2.4c0.5,0.6,1.1,0.8,2,0.8c0.9,0,1.5-0.3,2-0.8c0.4-0.5,0.7-1.4,0.7-2.4c0-1.1-0.2-1.9-0.7-2.4
			c-0.4-0.5-1.1-0.8-2-0.8c-0.9,0-1.5,0.3-2,0.8C61.6,230.1,61.4,230.9,61.4,231.9z"/>
		<path id="XMLID_12_" class="st39" d="M76.3,235.9h-0.9l-1.6-5.3c-0.1-0.2-0.2-0.5-0.3-0.9c-0.1-0.4-0.1-0.6-0.1-0.6
			c-0.1,0.5-0.2,1-0.4,1.6l-1.5,5.2h-0.9l-2.1-7.9h1l1.2,4.9c0.2,0.7,0.3,1.3,0.4,1.9c0.1-0.7,0.2-1.3,0.4-1.9l1.4-4.8h1l1.5,4.8
			c0.2,0.6,0.3,1.2,0.4,1.9c0.1-0.5,0.2-1.1,0.4-1.9l1.2-4.8h1L76.3,235.9z"/>
		<path id="XMLID_14_" class="st39" d="M85.9,235.9l-2.7-7h0c0.1,0.6,0.1,1.2,0.1,2v5h-0.8V228h1.4l2.5,6.5h0l2.5-6.5h1.4v7.9h-0.9
			v-5.1c0-0.6,0-1.2,0.1-1.9h0l-2.7,7H85.9z"/>
		<path id="XMLID_16_" class="st39" d="M96.8,235.9h-4.4V228h4.4v0.8h-3.5v2.5h3.3v0.8h-3.3v2.9h3.5V235.9z"/>
		<path id="XMLID_18_" class="st39" d="M101.9,228.7c-0.9,0-1.5,0.3-2,0.9c-0.5,0.6-0.8,1.4-0.8,2.4c0,1,0.2,1.8,0.7,2.4
			c0.5,0.6,1.2,0.8,2.1,0.8c0.5,0,1.2-0.1,1.9-0.3v0.8c-0.5,0.2-1.2,0.3-2,0.3c-1.2,0-2.1-0.4-2.7-1.1c-0.6-0.7-0.9-1.7-0.9-3
			c0-0.8,0.2-1.5,0.5-2.1c0.3-0.6,0.7-1.1,1.3-1.4c0.6-0.3,1.2-0.5,2-0.5c0.8,0,1.5,0.2,2.2,0.5l-0.4,0.8
			C103.1,228.9,102.5,228.7,101.9,228.7z"/>
		<path id="XMLID_20_" class="st39" d="M111.5,235.9h-0.9v-3.7h-4.1v3.7h-0.9V228h0.9v3.3h4.1V228h0.9V235.9z"/>
		<path id="XMLID_22_" class="st39" d="M118.6,235.9l-1-2.5h-3.2l-1,2.5h-0.9l3.1-7.9h0.8l3.1,7.9H118.6z M117.3,232.6l-0.9-2.4
			c-0.1-0.3-0.2-0.7-0.4-1.1c-0.1,0.3-0.2,0.7-0.3,1.1l-0.9,2.4H117.3z"/>
		<path id="XMLID_25_" class="st39" d="M126.7,235.9h-1l-4.3-6.6h0c0.1,0.8,0.1,1.5,0.1,2.1v4.5h-0.8V228h1l4.3,6.6h0
			c0-0.1,0-0.4,0-0.9c0-0.5,0-0.9,0-1.1V228h0.9V235.9z"/>
		<path id="XMLID_27_" class="st39" d="M128.9,235.9V228h0.9v7.9H128.9z"/>
		<path id="XMLID_29_" class="st39" d="M136.4,233.8c0,0.7-0.3,1.2-0.8,1.6c-0.5,0.4-1.2,0.6-2,0.6c-0.9,0-1.7-0.1-2.2-0.4v-0.9
			c0.3,0.1,0.7,0.2,1.1,0.3c0.4,0.1,0.8,0.1,1.1,0.1c0.6,0,1.1-0.1,1.4-0.3c0.3-0.2,0.5-0.6,0.5-1c0-0.3-0.1-0.5-0.2-0.7
			c-0.1-0.2-0.3-0.3-0.5-0.5c-0.3-0.1-0.6-0.3-1.2-0.5c-0.7-0.3-1.3-0.6-1.6-0.9c-0.3-0.4-0.5-0.8-0.5-1.4c0-0.6,0.2-1.1,0.7-1.4
			c0.5-0.4,1.1-0.5,1.8-0.5c0.8,0,1.5,0.1,2.2,0.4l-0.3,0.8c-0.6-0.3-1.3-0.4-1.9-0.4c-0.5,0-0.9,0.1-1.1,0.3
			c-0.3,0.2-0.4,0.5-0.4,0.9c0,0.3,0.1,0.5,0.2,0.7c0.1,0.2,0.3,0.3,0.5,0.5s0.6,0.3,1.1,0.5c0.8,0.3,1.4,0.6,1.7,0.9
			C136.3,232.8,136.4,233.3,136.4,233.8z"/>
		<path id="XMLID_31_" class="st39" d="M141.5,235.9l-2.7-7h0c0.1,0.6,0.1,1.2,0.1,2v5H138V228h1.4l2.5,6.5h0l2.5-6.5h1.4v7.9h-0.9
			v-5.1c0-0.6,0-1.2,0.1-1.9h0l-2.7,7H141.5z"/>
	</g>
</g>
</svg>
