<?xml version="1.0" encoding="utf-8"?>
<!-- Generator: Adobe Illustrator 19.0.0, SVG Export Plug-In . SVG Version: 6.00 Build 0)  -->
<svg version="1.1" id="图层_1" xmlns="http://www.w3.org/2000/svg" xmlns:xlink="http://www.w3.org/1999/xlink" x="0px" y="0px"
	 viewBox="0 0 430 323" style="enable-background:new 0 0 430 323;" xml:space="preserve">
<style type="text/css">
	.st0{opacity:0.4;}
	.st1{fill:#997817;}
	.st2{opacity:0.6;fill:#997817;}
	.st3{fill:#E5B751;}
	.st4{fill:#CCA14A;}
	.st5{fill:#FFD78F;}
	.st6{fill:#CCCCCC;}
	.st7{fill:#E6E6E6;}
	.st8{fill:#FFFFFF;}
	.st9{opacity:0.2;fill:url(#XMLID_263_);}
	.st10{opacity:0.2;fill:url(#XMLID_265_);}
	.st11{opacity:0.2;fill:url(#XMLID_267_);}
	.st12{opacity:0.2;fill:url(#XMLID_269_);}
	.st13{opacity:0.2;fill:url(#XMLID_271_);}
	.st14{opacity:0.2;fill:url(#XMLID_273_);}
	.st15{opacity:0.2;fill:url(#XMLID_275_);}
	.st16{opacity:0.2;fill:url(#XMLID_276_);}
	.st17{opacity:0.2;fill:url(#XMLID_277_);}
	.st18{opacity:0.2;fill:url(#XMLID_278_);}
	.st19{opacity:0.2;fill:url(#XMLID_279_);}
	.st20{opacity:0.2;fill:url(#XMLID_280_);}
	.st21{opacity:0.2;fill:url(#XMLID_281_);}
	.st22{opacity:0.2;fill:url(#XMLID_283_);}
	.st23{fill:#D39220;}
	.st24{clip-path:url(#XMLID_285_);enable-background:new    ;}
	.st25{fill:#BC820D;}
	.st26{clip-path:url(#XMLID_286_);enable-background:new    ;}
	.st27{clip-path:url(#XMLID_287_);enable-background:new    ;}
	.st28{fill:#FAC13C;}
	.st29{fill:#D6A036;}
	.st30{clip-path:url(#XMLID_288_);enable-background:new    ;}
	.st31{clip-path:url(#XMLID_290_);enable-background:new    ;}
	.st32{clip-path:url(#XMLID_292_);enable-background:new    ;}
	.st33{clip-path:url(#XMLID_294_);enable-background:new    ;}
	.st34{clip-path:url(#XMLID_296_);enable-background:new    ;}
	.st35{clip-path:url(#XMLID_298_);enable-background:new    ;}
	.st36{clip-path:url(#XMLID_299_);enable-background:new    ;}
	.st37{clip-path:url(#XMLID_300_);enable-background:new    ;}
	.st38{clip-path:url(#XMLID_301_);enable-background:new    ;}
	.st39{clip-path:url(#XMLID_302_);enable-background:new    ;}
	.st40{clip-path:url(#XMLID_303_);enable-background:new    ;}
	.st41{clip-path:url(#XMLID_304_);enable-background:new    ;}
	.st42{clip-path:url(#XMLID_305_);enable-background:new    ;}
	.st43{clip-path:url(#XMLID_306_);enable-background:new    ;}
	.st44{clip-path:url(#XMLID_307_);enable-background:new    ;}
	.st45{clip-path:url(#XMLID_308_);enable-background:new    ;}
	.st46{clip-path:url(#XMLID_309_);enable-background:new    ;}
	.st47{clip-path:url(#XMLID_310_);enable-background:new    ;}
</style>
<g>
	<g class="st0">
		<path class="st1" d="M0,273.4c0,1.1,0.5,2,1.5,2.5l28.6,16.5c1.3,0.7,2.7,1.1,4.1,1.1c1.4,0,2.8-0.4,4.1-1.1l22.4-12.9l45.7,26.4
			l-1.3,0.7c-0.7,0.4-1.1,1.1-1.1,1.9c0,0.8,0.4,1.5,1.1,1.9l20.3,11.7c0.9,0.5,2,0.8,3,0.8c1,0,2.1-0.3,3-0.8l20.3-11.7
			c0.7-0.4,1.1-1.1,1.1-1.9c0-0.8-0.4-1.5-1.1-1.9l-19.4-11.2c-2.4-1.4-5.4-1.4-7.8,0l-16.9,9.8l-45.7-26.4l5.1-2.9
			c0.9-0.5,1.5-1.5,1.5-2.5s-0.5-2-1.5-2.5l-15.6-9l17.8-10.3c1.8-1,3.9-1,5.7,0l13.6,7.8c2.2,1.3,5,1.2,7.1-0.2l6.5-4.2l8.9,5.1
			c1.4,0.8,3,1.2,4.6,1.2c1.6,0,3.2-0.4,4.6-1.2l16.1-9.3l24.8,14.3c1.5,0.9,3.2,1.3,4.8,1.3c1.7,0,3.3-0.4,4.8-1.3l11.3-6.5
			c2.7-1.6,6.1-1.5,8.7,0.1l7.4,4.6l-12.8,7.4c-1,0.6-1.5,1.5-1.5,2.7c0,1.1,0.6,2.1,1.5,2.7l30.6,17.7c1.3,0.8,2.9,1.2,4.4,1.2
			c1.5,0,3-0.4,4.4-1.2l30.6-17.7c1-0.6,1.5-1.5,1.5-2.7c0-1.1-0.6-2.1-1.5-2.7l-29.3-16.9c-3.5-2-7.9-2-11.5,0l-15.3,8.8l-7.9-4.9
			c-3-1.9-6.8-1.9-9.9-0.2l-11.3,6.5c-2.6,1.5-5.9,1.5-8.5,0l-24.2-14l14.8-8.6c1-0.6,1.6-1.6,1.6-2.8c0-1.2-0.6-2.2-1.6-2.8
			l-7.5-4.3l26.4-14.8l11.4,6.6c2.1,1.2,4.5,1.8,6.9,1.8c2.4,0,4.8-0.6,6.9-1.8l49.7-28.7c1.4-0.8,2.3-2.3,2.3-4
			c0-1.7-0.9-3.2-2.3-4l-13.3-7.7l30.6-18l7.5,4.3c1.6,0.9,3.3,1.3,5,1.3c1.7,0,3.5-0.4,5-1.3l16.2-9.4l48.5,28l-37.6,22.6
			l-14.6-8.4c-3.7-2.1-8.3-2.1-11.9,0L250.8,216c-1,0.6-1.6,1.6-1.6,2.8c0,1.1,0.6,2.2,1.6,2.8l32,18.5c1.4,0.8,3,1.2,4.5,1.2
			s3.1-0.4,4.5-1.2l32-18.5c1-0.6,1.6-1.6,1.6-2.8c0-1.2-0.6-2.2-1.6-2.8l-14.9-8.6l37.6-22.6l0,0l0.3-0.2l0,0l0,0l24.4-14.8l13.9,8
			c1.4,0.8,2.9,1.2,4.4,1.2c1.5,0,3-0.4,4.4-1.2l30.9-17.9c1-0.6,1.5-1.6,1.5-2.7c0-1.1-0.6-2.1-1.5-2.7l-29.5-17.1
			c-3.6-2.1-8-2.1-11.6,0l-29.5,17.1c-1,0.6-1.5,1.6-1.5,2.7c0,1.1,0.6,2.1,1.5,2.7l15.8,9.1l-23.5,14.3l-48.5-28l18.3-10.6
			c1.1-0.6,1.7-1.8,1.7-3c0-1.3-0.7-2.4-1.7-3l-34.1-19.7c-4.1-2.4-9.2-2.4-13.3,0l-23,13.3l-47-27.1l25.6-14.8
			c1-0.6,1.5-1.6,1.5-2.7c0-1.1-0.6-2.1-1.5-2.7l-29.5-17c-3.6-2.1-8-2.1-11.5,0l-29.5,17c-1,0.6-1.5,1.6-1.5,2.7
			c0,1.1,0.6,2.1,1.5,2.7l30.9,17.8c1.4,0.8,2.9,1.2,4.4,1.2c1.5,0,3-0.4,4.4-1.2l4.1-2.4l47,27.1l-9.9,5.7c-1.1,0.6-1.7,1.8-1.7,3
			c0,1.3,0.6,2.4,1.7,3l27.1,15.6l-30.6,18l-33-19c-5.6-3.2-12.6-3.2-18.2,0l-37.3,21.5l-34.3-19.6c-0.9-0.5-1.4-1.4-1.4-2.4
			c0-1,0.5-1.9,1.4-2.4l8.6-4.9c1.2-0.7,2-2,2-3.4c0-1.4-0.7-2.7-1.9-3.4l-15.6-9.4l16.1-9.3c0.9-0.5,1.5-1.5,1.5-2.5
			c0-1.1-0.5-2-1.5-2.5l-27.4-15.8c-3.3-1.9-7.4-1.9-10.7,0l-27.4,15.8c-0.9,0.5-1.5,1.5-1.5,2.5c0,1.1,0.5,2,1.5,2.5l28.6,16.5
			c1.3,0.7,2.7,1.1,4.1,1.1c1.4,0,2.8-0.4,4.1-1.1l11.4-6.6l16.1,9.8c0.9,0.5,1.4,1.4,1.3,2.4c0,1-0.5,1.9-1.4,2.4l-8.6,4.9
			c-1.2,0.7-2,2-2,3.4c0,1.4,0.7,2.7,2,3.4l33.7,19.3l-9,5.2c-1.4,0.8-2.3,2.3-2.3,4c0,1.7,0.9,3.2,2.3,4l37.1,21.4l-26.4,14.8
			l-22-12.7c-3.7-2.1-8.3-2.1-12,0l-23.1,13.4l-18.7-11.1c-0.8-0.5-1.2-1.3-1.2-2.2c0-0.9,0.5-1.7,1.2-2.1c1.1-0.7,1.8-1.9,1.8-3.2
			c0-1.3-0.7-2.5-1.8-3.2l-16.8-9.7l10.7-6.2c0.6-0.4,1-1,1-1.7c0-0.7-0.4-1.4-1-1.7L44.9,181c-2.1-1.2-4.7-1.2-6.8,0l-16.7,9.6
			c-0.6,0.4-1,1-1,1.7c0,0.7,0.4,1.4,1,1.7l17.4,10.1c0.8,0.5,1.7,0.7,2.6,0.7c0.9,0,1.8-0.2,2.6-0.7l5.6-3.2L67,211
			c0.8,0.5,1.2,1.3,1.2,2.2c0,0.9-0.5,1.7-1.2,2.2c-1.1,0.7-1.8,1.8-1.8,3.2c0,1.3,0.7,2.5,1.8,3.2l18.2,10.8l-6.4,3.7
			c-1,0.6-1.6,1.6-1.6,2.8c0,1.2,0.6,2.2,1.6,2.8l22.1,12.8l-6,3.9c-1.8,1.2-4.1,1.2-5.9,0.1l-13.6-7.8c-2.1-1.2-4.7-1.2-6.9,0
			l-18.4,10.6l-10.6-6.1c-3.3-1.9-7.4-1.9-10.7,0L1.5,270.9C0.5,271.4,0,272.4,0,273.4z M60.9,193.1l-17.4,10.1
			c-1.3,0.7-2.8,0.7-4,0L22,193.1c-0.3-0.1-0.4-0.4-0.4-0.7c0-0.3,0.2-0.6,0.4-0.7l16.7-9.6c1.7-1,3.9-1,5.6,0l16.7,9.6
			c0.3,0.1,0.4,0.4,0.4,0.7C61.4,192.7,61.2,193,60.9,193.1z M117.2,125.1l-28.6,16.5c-2.2,1.3-4.9,1.2-7,0l-28.6-16.5
			c-0.5-0.3-0.9-0.9-0.9-1.5c0-0.6,0.3-1.2,0.9-1.5l27.4-15.8c1.5-0.9,3.1-1.3,4.8-1.3c1.7,0,3.3,0.4,4.8,1.3l27.4,15.8
			c0.5,0.3,0.9,0.9,0.9,1.5C118.1,124.2,117.7,124.8,117.2,125.1z M224,89.6l-30.9,17.8c-2.3,1.4-5.3,1.4-7.6,0l-30.9-17.8
			c-0.6-0.3-1-1-1-1.7c0-0.7,0.4-1.3,1-1.7l29.5-17c3.2-1.8,7.2-1.8,10.4,0l29.5,17c0.6,0.3,1,1,1,1.7C225,88.6,224.6,89.2,224,89.6
			z M354.9,159c-0.6-0.3-1-1-1-1.7c0-0.7,0.4-1.3,1-1.7l29.5-17.1c3.2-1.9,7.2-1.9,10.4,0l29.5,17.1c0.6,0.3,1,1,1,1.7
			c0,0.7-0.4,1.3-1,1.7l-30.9,17.9c-2.4,1.4-5.3,1.4-7.6,0L354.9,159z M323.3,217c0.6,0.4,1,1,1,1.7c0,0.7-0.4,1.4-1,1.7l-32,18.5
			c-2.4,1.4-5.5,1.4-7.9,0l-32-18.5c-0.6-0.4-1-1-1-1.7c0-0.7,0.4-1.4,1-1.7l30.6-17.7c3.3-1.9,7.5-1.9,10.8,0L323.3,217z
			 M235.5,143.9c-0.7-0.4-1.2-1.2-1.2-2c0-0.8,0.4-1.6,1.2-2l34.1-19.7c1.9-1.1,4-1.6,6-1.6c2.1,0,4.2,0.5,6,1.6l34.1,19.7
			c0.7,0.4,1.2,1.2,1.2,2c0,0.8-0.4,1.6-1.2,2l-35.7,20.6c-2.7,1.6-6.2,1.6-8.9,0L235.5,143.9z M133.4,193.9c-1.1-0.6-1.7-1.7-1.7-3
			c0-1.2,0.6-2.4,1.7-3l47.4-27.4c5.3-3,11.8-3,17,0l47.4,27.4c1.1,0.6,1.7,1.7,1.7,3c0,1.2-0.6,2.4-1.7,3l-49.7,28.7
			c-3.9,2.2-8.7,2.2-12.6,0L133.4,193.9z M185.8,271.8l29.3-16.9c1.6-0.9,3.4-1.4,5.1-1.4c1.8,0,3.6,0.5,5.1,1.4v0l29.3,16.9
			c0.6,0.3,0.9,1,0.9,1.6s-0.4,1.3-0.9,1.6L224,292.7c-2.3,1.3-5.2,1.3-7.6,0L185.8,275c-0.6-0.3-0.9-1-0.9-1.6
			S185.2,272.1,185.8,271.8z M79.4,240.7c-0.6-0.4-1-1-1-1.7s0.4-1.4,1-1.7l30.7-17.7c3.3-1.9,7.5-1.9,10.8,0l30.7,17.7
			c0.6,0.4,1,1,1,1.7s-0.4,1.4-1,1.7l-32.1,18.5c-2.4,1.4-5.5,1.4-7.9,0L79.4,240.7z M105.7,307.7l19.4-11.2c2-1.2,4.6-1.2,6.6,0
			l19.4,11.2c0.3,0.2,0.5,0.5,0.5,0.9c0,0.4-0.2,0.7-0.5,0.9l-20.3,11.7c-1.5,0.9-3.3,0.9-4.8,0l-20.3-11.7
			c-0.3-0.2-0.5-0.5-0.5-0.9C105.1,308.2,105.3,307.9,105.7,307.7z M1.2,273.4c0-0.6,0.3-1.2,0.9-1.5l27.4-15.8c3-1.7,6.6-1.7,9.6,0
			l27.4,15.8c0.5,0.3,0.9,0.9,0.9,1.5c0,0.6-0.3,1.2-0.9,1.5l-28.6,16.5c-2.2,1.3-4.9,1.3-7,0L2,274.9C1.5,274.6,1.2,274,1.2,273.4z
			"/>
		<path id="XMLID_248_" class="st1" d="M389.6,174c0.5,0,0.9-0.1,1.3-0.3l25.1-14.5c1.4-0.8,1.4-2.8,0-3.5l-23.6-13.7
			c-0.9-0.5-1.8-0.8-2.8-0.8c-1,0-2,0.3-2.8,0.8l-23.6,13.7c-1.4,0.8-1.4,2.8,0,3.5l25.1,14.5C388.7,173.9,389.1,174,389.6,174z"/>
		<path id="XMLID_247_" class="st1" d="M275.6,161.1c0.5,0,0.9-0.1,1.3-0.3l25.1-14.5c1.4-0.8,1.4-2.8,0-3.5l-23.6-13.7
			c-0.9-0.5-1.8-0.8-2.8-0.8c-1,0-2,0.3-2.8,0.8l-23.6,13.7c-1.4,0.8-1.4,2.8,0,3.5l25.1,14.5C274.7,161,275.2,161.1,275.6,161.1z"
			/>
		<path id="XMLID_246_" class="st1" d="M115.5,256.4c0.5,0,0.9-0.1,1.3-0.3l25.1-14.5c1.4-0.8,1.4-2.8,0-3.5l-23.6-13.7
			c-0.9-0.5-1.8-0.8-2.8-0.8c-1,0-2,0.3-2.8,0.8L89,238c-1.4,0.8-1.4,2.8,0,3.5l25.1,14.5C114.6,256.3,115,256.4,115.5,256.4z"/>
		<path id="XMLID_245_" class="st1" d="M189.4,104.5c0.5,0,0.9-0.1,1.3-0.3l25.1-14.5c1.4-0.8,1.4-2.8,0-3.5l-23.6-13.7
			c-0.9-0.5-1.8-0.8-2.8-0.8c-1,0-2,0.3-2.8,0.8l-23.6,13.7c-1.4,0.8-1.4,2.8,0,3.5l25.1,14.5C188.5,104.4,188.9,104.5,189.4,104.5z
			"/>
		<path id="XMLID_244_" class="st1" d="M85,138.7c0.4,0,0.7-0.1,1-0.3L106,127c1.1-0.6,1.1-2.2,0-2.8l-18.7-10.8
			c-0.7-0.4-1.4-0.6-2.2-0.6c-0.8,0-1.5,0.2-2.2,0.6l-18.7,10.8c-1.1,0.6-1.1,2.2,0,2.8L84,138.5C84.3,138.6,84.7,138.7,85,138.7z"
			/>
		<path id="XMLID_243_" class="st1" d="M220.9,289.7c0.4,0,0.8-0.1,1.1-0.3l21.1-12.2c1.1-0.7,1.1-2.3,0-3l-19.9-11.5
			c-0.7-0.4-1.5-0.6-2.4-0.6c-0.8,0-1.6,0.2-2.4,0.6l-19.9,11.5c-1.1,0.7-1.1,2.3,0,3l21.1,12.2
			C220.1,289.6,220.5,289.7,220.9,289.7z"/>
		<path id="XMLID_242_" class="st1" d="M189.4,215.5c0.7,0,1.3-0.2,1.9-0.5l37.2-21.4c2-1.2,2-4.1,0-5.2l-34.9-20.2
			c-1.3-0.7-2.7-1.1-4.1-1.1c-1.5,0-2.9,0.4-4.1,1.1l-34.9,20.2c-2,1.2-2,4.1,0,5.2l37.2,21.5C188,215.3,188.7,215.5,189.4,215.5z"
			/>
		<path id="XMLID_241_" class="st1" d="M287.3,234.6c0.4,0,0.9-0.1,1.2-0.3l24-13.8c1.3-0.7,1.3-2.6,0-3.4l-22.5-13
			c-0.8-0.5-1.7-0.7-2.7-0.7c-0.9,0-1.9,0.2-2.7,0.7l-22.5,13c-1.3,0.7-1.3,2.6,0,3.4l24,13.8C286.5,234.5,286.9,234.6,287.3,234.6z
			"/>
		<path id="XMLID_240_" class="st1" d="M34.2,287.6c0.4,0,0.8-0.1,1.1-0.3l21.4-12.4c1.2-0.7,1.2-2.3,0-3l-20.1-11.6
			c-0.7-0.4-1.6-0.6-2.4-0.6c-0.8,0-1.7,0.2-2.4,0.6l-20.1,11.6c-1.2,0.7-1.2,2.3,0,3l21.4,12.4C33.4,287.5,33.8,287.6,34.2,287.6z"
			/>
		<path id="XMLID_239_" class="st1" d="M128.3,318.6c0.3,0,0.5-0.1,0.8-0.2l15.2-8.8c0.8-0.5,0.8-1.7,0-2.1l-14.3-8.2
			c-0.5-0.3-1.1-0.5-1.7-0.5c-0.6,0-1.2,0.2-1.7,0.5l-14.3,8.2c-0.8,0.5-0.8,1.7,0,2.1l15.2,8.8
			C127.8,318.5,128.1,318.6,128.3,318.6z"/>
		<path id="XMLID_238_" class="st1" d="M41.5,201c0.2,0,0.5-0.1,0.7-0.2l13-7.5c0.7-0.4,0.7-1.4,0-1.8l-12.3-7.1
			c-0.4-0.3-0.9-0.4-1.5-0.4c-0.5,0-1,0.1-1.5,0.4l-12.3,7.1c-0.7,0.4-0.7,1.4,0,1.8l13,7.5C41,201,41.2,201,41.5,201z"/>
	</g>
	<path class="st2" d="M3.5,255.2c0,1.1,0.5,2,1.5,2.5l28.6,16.5c1.3,0.7,2.7,1.1,4.1,1.1c1.4,0,2.8-0.4,4.1-1.1l22.4-12.9l45.7,26.4
		l-1.3,0.7c-0.7,0.4-1.1,1.1-1.1,1.9c0,0.8,0.4,1.5,1.1,1.9l20.3,11.7c0.9,0.5,2,0.8,3,0.8c1,0,2.1-0.3,3-0.8l20.3-11.7
		c0.7-0.4,1.1-1.1,1.1-1.9c0-0.8-0.4-1.5-1.1-1.9l-19.4-11.2c-2.4-1.4-5.4-1.4-7.8,0L111,287l-45.7-26.4l5.1-2.9
		c0.9-0.5,1.5-1.5,1.5-2.5c0-1.1-0.5-2-1.5-2.5l-15.6-9l17.8-10.3c1.8-1,3.9-1,5.7,0l13.6,7.8c2.2,1.3,5,1.2,7.1-0.2l6.5-4.2
		l8.9,5.1c1.4,0.8,3,1.2,4.6,1.2c1.6,0,3.2-0.4,4.6-1.2l16.1-9.3l24.8,14.3c1.5,0.9,3.2,1.3,4.8,1.3c1.7,0,3.3-0.4,4.8-1.3l11.3-6.5
		c2.7-1.6,6.1-1.5,8.7,0.1l7.4,4.6l-12.8,7.4c-1,0.6-1.5,1.5-1.5,2.7c0,1.1,0.6,2.1,1.5,2.7l30.6,17.7c1.3,0.8,2.9,1.2,4.4,1.2
		c1.5,0,3-0.4,4.4-1.2l30.6-17.7c1-0.6,1.5-1.5,1.5-2.7c0-1.1-0.6-2.1-1.5-2.7l-29.3-16.9c-3.5-2-7.9-2-11.5,0l-15.3,8.8l-7.9-4.9
		c-3-1.9-6.8-1.9-9.9-0.2l-11.3,6.5c-2.6,1.5-5.9,1.5-8.5,0l-24.2-14l14.8-8.6c1-0.6,1.6-1.6,1.6-2.8c0-1.2-0.6-2.2-1.6-2.8
		l-7.5-4.3l26.4-14.8l11.4,6.6c2.1,1.2,4.5,1.8,6.9,1.8c2.4,0,4.8-0.6,6.9-1.8l49.7-28.7c1.4-0.8,2.3-2.3,2.3-4c0-1.7-0.9-3.2-2.3-4
		l-13.3-7.7l30.6-18l7.5,4.3c1.6,0.9,3.3,1.3,5,1.3c1.7,0,3.5-0.4,5-1.3l16.2-9.4l48.5,28l-37.6,22.6l-14.6-8.4
		c-3.7-2.1-8.3-2.1-11.9,0l-30.6,17.7c-1,0.6-1.6,1.6-1.6,2.8c0,1.1,0.6,2.2,1.6,2.8l32,18.5c1.4,0.8,3,1.2,4.5,1.2
		c1.6,0,3.1-0.4,4.5-1.2l32-18.5c1-0.6,1.6-1.6,1.6-2.8c0-1.2-0.6-2.2-1.6-2.8l-14.9-8.6l37.6-22.6l0,0l0.3-0.2l0,0l0,0l24.4-14.8
		l13.9,8c1.4,0.8,2.9,1.2,4.4,1.2c1.5,0,3-0.4,4.4-1.2l30.9-17.9c1-0.6,1.5-1.6,1.5-2.7c0-1.1-0.6-2.1-1.5-2.7l-29.5-17.1
		c-3.6-2.1-8-2.1-11.6,0l-29.5,17.1c-1,0.6-1.5,1.6-1.5,2.7c0,1.1,0.6,2.1,1.5,2.7l15.8,9.1l-23.5,14.3l-48.5-28l18.3-10.6
		c1.1-0.6,1.7-1.8,1.7-3c0-1.3-0.7-2.4-1.7-3l-34.1-19.7c-4.1-2.4-9.2-2.4-13.3,0l-23,13.3l-47-27.1l25.6-14.8
		c1-0.6,1.5-1.6,1.5-2.7c0-1.1-0.6-2.1-1.5-2.7l-29.5-17c-3.6-2.1-8-2.1-11.5,0l-29.5,17c-1,0.6-1.5,1.6-1.5,2.7
		c0,1.1,0.6,2.1,1.5,2.7l30.9,17.8c1.4,0.8,2.9,1.2,4.4,1.2c1.5,0,3-0.4,4.4-1.2l4.1-2.4l47,27.1l-9.9,5.7c-1.1,0.6-1.7,1.8-1.7,3
		c0,1.3,0.6,2.4,1.7,3l27.1,15.6l-30.6,18l-33-19c-5.6-3.2-12.6-3.2-18.2,0l-37.3,21.5l-34.3-19.6c-0.9-0.5-1.4-1.4-1.4-2.4
		c0-1,0.5-1.9,1.4-2.4l8.6-4.9c1.2-0.7,2-2,2-3.4c0-1.4-0.7-2.7-1.9-3.4l-15.6-9.4l16.1-9.3c0.9-0.5,1.5-1.5,1.5-2.5
		c0-1.1-0.5-2-1.5-2.5L93.9,87c-3.3-1.9-7.4-1.9-10.7,0l-27.4,15.8c-0.9,0.5-1.5,1.5-1.5,2.5c0,1.1,0.5,2,1.5,2.5l28.6,16.5
		c1.3,0.7,2.7,1.1,4.1,1.1c1.4,0,2.8-0.4,4.1-1.1l11.4-6.6l16.1,9.8c0.9,0.5,1.4,1.4,1.3,2.4c0,1-0.5,1.9-1.4,2.4l-8.6,4.9
		c-1.2,0.7-2,2-2,3.4c0,1.4,0.7,2.7,2,3.4l33.7,19.3l-9,5.2c-1.4,0.8-2.3,2.3-2.3,4c0,1.7,0.9,3.2,2.3,4l37.1,21.4L147,212.9
		l-22-12.7c-3.7-2.1-8.3-2.1-12,0l-23.1,13.4l-18.7-11.1c-0.8-0.5-1.2-1.3-1.2-2.2c0-0.9,0.5-1.7,1.2-2.1c1.1-0.7,1.8-1.9,1.8-3.2
		c0-1.3-0.7-2.5-1.8-3.2l-16.8-9.7l10.7-6.2c0.6-0.4,1-1,1-1.7c0-0.7-0.4-1.4-1-1.7l-16.7-9.6c-2.1-1.2-4.7-1.2-6.8,0l-16.7,9.6
		c-0.6,0.4-1,1-1,1.7c0,0.7,0.4,1.4,1,1.7L42.4,186c0.8,0.5,1.7,0.7,2.6,0.7c0.9,0,1.8-0.2,2.6-0.7l5.6-3.2l17.4,10
		c0.8,0.5,1.2,1.3,1.2,2.2c0,0.9-0.5,1.7-1.2,2.2c-1.1,0.7-1.8,1.8-1.8,3.2c0,1.3,0.7,2.5,1.8,3.2l18.2,10.8l-6.4,3.7
		c-1,0.6-1.6,1.6-1.6,2.8c0,1.2,0.6,2.2,1.6,2.8l22.1,12.8l-6,3.9c-1.8,1.2-4.1,1.2-5.9,0.1l-13.6-7.8c-2.1-1.2-4.7-1.2-6.9,0
		L53.6,243l-10.6-6.1c-3.3-1.9-7.4-1.9-10.7,0L5,252.7C4.1,253.2,3.5,254.1,3.5,255.2z M64.5,174.9L47,185c-1.3,0.7-2.8,0.7-4,0
		l-17.4-10.1c-0.3-0.1-0.4-0.4-0.4-0.7c0-0.3,0.2-0.6,0.4-0.7l16.7-9.6c1.7-1,3.9-1,5.6,0l16.7,9.6c0.3,0.1,0.4,0.4,0.4,0.7
		C64.9,174.5,64.7,174.7,64.5,174.9z M120.7,106.9l-28.6,16.5c-2.2,1.3-4.9,1.2-7,0l-28.6-16.5c-0.5-0.3-0.9-0.9-0.9-1.5
		c0-0.6,0.3-1.2,0.9-1.5l27.4-15.8c1.5-0.9,3.1-1.3,4.8-1.3c1.7,0,3.3,0.4,4.8,1.3l27.4,15.8c0.5,0.3,0.9,0.9,0.9,1.5
		C121.6,106,121.2,106.5,120.7,106.9z M227.5,71.3l-30.9,17.8c-2.3,1.4-5.3,1.4-7.6,0l-30.9-17.8c-0.6-0.3-1-1-1-1.7
		c0-0.7,0.4-1.3,1-1.7l29.5-17c3.2-1.8,7.2-1.8,10.4,0l29.5,17c0.6,0.3,1,1,1,1.7C228.5,70.4,228.1,71,227.5,71.3z M358.4,140.8
		c-0.6-0.3-1-1-1-1.7c0-0.7,0.4-1.3,1-1.7l29.5-17.1c3.2-1.9,7.2-1.9,10.4,0l29.5,17.1c0.6,0.3,1,1,1,1.7c0,0.7-0.4,1.3-1,1.7
		l-30.9,17.9c-2.4,1.4-5.3,1.4-7.6,0L358.4,140.8z M326.8,198.8c0.6,0.4,1,1,1,1.7c0,0.7-0.4,1.4-1,1.7l-32,18.5
		c-2.4,1.4-5.5,1.4-7.9,0l-32-18.5c-0.6-0.4-1-1-1-1.7c0-0.7,0.4-1.4,1-1.7l30.6-17.7c3.3-1.9,7.5-1.9,10.8,0L326.8,198.8z
		 M239,125.6c-0.7-0.4-1.2-1.2-1.2-2c0-0.8,0.4-1.6,1.2-2l34.1-19.7c1.9-1.1,4-1.6,6-1.6c2.1,0,4.2,0.5,6,1.6l34.1,19.7
		c0.7,0.4,1.2,1.2,1.2,2c0,0.8-0.4,1.6-1.2,2l-35.7,20.6c-2.7,1.6-6.2,1.6-8.9,0L239,125.6z M136.9,175.7c-1.1-0.6-1.7-1.7-1.7-3
		c0-1.2,0.6-2.4,1.7-3l47.4-27.4c5.3-3,11.8-3,17,0l47.4,27.4c1.1,0.6,1.7,1.7,1.7,3c0,1.2-0.6,2.4-1.7,3l-49.7,28.7
		c-3.9,2.2-8.7,2.2-12.6,0L136.9,175.7z M189.3,253.5l29.3-16.9c1.6-0.9,3.4-1.4,5.1-1.4c1.8,0,3.6,0.5,5.1,1.4v0l29.3,16.9
		c0.6,0.3,0.9,1,0.9,1.6c0,0.7-0.4,1.3-0.9,1.6l-30.6,17.7c-2.3,1.3-5.2,1.3-7.6,0l-30.6-17.7c-0.6-0.3-0.9-1-0.9-1.6
		C188.3,254.5,188.7,253.9,189.3,253.5z M82.9,222.4c-0.6-0.4-1-1-1-1.7s0.4-1.4,1-1.7l30.7-17.7c3.3-1.9,7.5-1.9,10.8,0l30.7,17.7
		c0.6,0.4,1,1,1,1.7s-0.4,1.4-1,1.7L123,241c-2.4,1.4-5.5,1.4-7.9,0L82.9,222.4z M109.2,289.4l19.4-11.2c2-1.2,4.6-1.2,6.6,0
		l19.4,11.2c0.3,0.2,0.5,0.5,0.5,0.9c0,0.4-0.2,0.7-0.5,0.9L134.3,303c-1.5,0.9-3.3,0.9-4.8,0l-20.3-11.7c-0.3-0.2-0.5-0.5-0.5-0.9
		C108.7,290,108.9,289.6,109.2,289.4z M4.7,255.2c0-0.6,0.3-1.2,0.9-1.5l27.4-15.8c3-1.7,6.6-1.7,9.6,0l27.4,15.8
		c0.5,0.3,0.9,0.9,0.9,1.5c0,0.6-0.3,1.2-0.9,1.5l-28.6,16.5c-2.2,1.3-4.9,1.3-7,0L5.6,256.7C5,256.4,4.7,255.8,4.7,255.2z"/>
	<path id="XMLID_225_" class="st3" d="M290.8,216.4c0.4,0,0.9-0.1,1.2-0.3l24-13.8c1.3-0.7,1.3-2.6,0-3.4l-22.5-13
		c-0.8-0.5-1.7-0.7-2.7-0.7c-0.9,0-1.9,0.2-2.7,0.7l-22.5,13c-1.3,0.7-1.3,2.6,0,3.4l24,13.8C290,216.3,290.4,216.4,290.8,216.4z"/>
	<path id="XMLID_224_" class="st3" d="M37.7,269.4c0.4,0,0.8-0.1,1.1-0.3l21.4-12.4c1.2-0.7,1.2-2.3,0-3l-20.1-11.6
		c-0.7-0.4-1.6-0.6-2.4-0.6c-0.8,0-1.7,0.2-2.4,0.6l-20.1,11.6c-1.2,0.7-1.2,2.3,0,3l21.4,12.4C36.9,269.3,37.3,269.4,37.7,269.4z"
		/>
	<path id="XMLID_223_" class="st3" d="M131.9,300.4c0.3,0,0.5-0.1,0.8-0.2l15.2-8.8c0.8-0.5,0.8-1.7,0-2.1l-14.3-8.2
		c-0.5-0.3-1.1-0.5-1.7-0.5c-0.6,0-1.2,0.2-1.7,0.5l-14.3,8.2c-0.8,0.5-0.8,1.7,0,2.1l15.2,8.8C131.3,300.3,131.6,300.4,131.9,300.4
		z"/>
	<path id="XMLID_222_" class="st3" d="M45,182.8c0.2,0,0.5-0.1,0.7-0.2l13-7.5c0.7-0.4,0.7-1.4,0-1.8l-12.3-7.1
		c-0.4-0.3-0.9-0.4-1.5-0.4c-0.5,0-1,0.1-1.5,0.4l-12.3,7.1c-0.7,0.4-0.7,1.4,0,1.8l13,7.5C44.5,182.7,44.8,182.8,45,182.8z"/>
	<g>
		<g>
			<path id="XMLID_221_" class="st4" d="M92.3,199.8c0.1-0.1,0.2-0.2,0.3-0.2l23.6-13.7c0.9-0.5,1.8-0.8,2.8-0.8v53.2
				c-0.5,0-0.9-0.1-1.3-0.3l-25.1-14.5c-0.7-0.4-1-1.1-1-1.8v-20.3C91.5,200.7,91.8,200.1,92.3,199.8z"/>
			<path id="XMLID_220_" class="st3" d="M119,185.1c1,0,2,0.3,2.8,0.8l22.9,13.2l0.8,0.5c0.7,0.4,1,1.1,1,1.8v20.3
				c0,0.7-0.3,1.4-1,1.8L120.3,238c-0.4,0.2-0.8,0.3-1.3,0.3h0L119,185.1L119,185.1z"/>
		</g>
		<path id="XMLID_219_" class="st5" d="M119,217.9c0.5,0,0.9-0.1,1.3-0.3l25.1-14.5c1.4-0.8,1.4-2.8,0-3.5l-23.6-13.7
			c-0.9-0.5-1.8-0.8-2.8-0.8s-2,0.3-2.8,0.8l-23.6,13.7c-1.4,0.8-1.4,2.8,0,3.5l25.1,14.5C118.1,217.8,118.5,217.9,119,217.9z"/>
	</g>
	<g>
		<g>
			<path id="XMLID_218_" class="st4" d="M166.2,47.6c0.1-0.1,0.2-0.2,0.3-0.2l23.6-13.7c0.9-0.5,1.8-0.8,2.8-0.8v53.2
				c-0.5,0-0.9-0.1-1.3-0.3l-25.1-14.5c-0.7-0.4-1-1.1-1-1.8V49.1C165.4,48.5,165.7,47.9,166.2,47.6z"/>
			<path id="XMLID_217_" class="st3" d="M192.9,32.9c1,0,2,0.3,2.8,0.8l22.9,13.2l0.8,0.5c0.7,0.4,1,1.1,1,1.8v20.3
				c0,0.7-0.3,1.4-1,1.8l-25.1,14.5c-0.4,0.2-0.8,0.3-1.3,0.3h0L192.9,32.9L192.9,32.9z"/>
		</g>
		<path id="XMLID_216_" class="st5" d="M192.9,65.7c0.5,0,0.9-0.1,1.3-0.4l25.1-14.5c1.4-0.8,1.4-2.8,0-3.5l-23.6-13.7
			c-0.9-0.5-1.8-0.8-2.8-0.8c-1,0-2,0.3-2.8,0.8l-23.6,13.7c-1.4,0.8-1.4,2.8,0,3.5l25.1,14.5C192,65.6,192.4,65.7,192.9,65.7z"/>
	</g>
	<g>
		<g>
			<path id="XMLID_215_" class="st4" d="M366.4,116.9c0.1-0.1,0.2-0.2,0.3-0.2l23.6-13.7c0.9-0.5,1.8-0.8,2.8-0.8v53.2
				c-0.5,0-0.9-0.1-1.3-0.3l-25.1-14.5c-0.7-0.4-1-1.1-1-1.8v-20.3C365.7,117.9,365.9,117.3,366.4,116.9z"/>
			<path id="XMLID_214_" class="st3" d="M393.1,102.3c1,0,2,0.3,2.8,0.8l22.9,13.2l0.8,0.5c0.7,0.4,1,1.1,1,1.8v20.3
				c0,0.7-0.3,1.4-1,1.8l-25.1,14.5c-0.4,0.2-0.8,0.3-1.3,0.3h0L393.1,102.3L393.1,102.3z"/>
		</g>
		<path id="XMLID_213_" class="st5" d="M393.1,135.1c0.5,0,0.9-0.1,1.3-0.3l25.1-14.5c1.4-0.8,1.4-2.8,0-3.5L395.9,103
			c-0.9-0.5-1.8-0.8-2.8-0.8c-1,0-2,0.3-2.8,0.8l-23.6,13.7c-1.4,0.8-1.4,2.8,0,3.5l25.1,14.5C392.2,135,392.7,135.1,393.1,135.1z"
			/>
	</g>
	<g>
		<g>
			<path id="XMLID_212_" class="st4" d="M252.5,116.4c0.1-0.1,0.2-0.2,0.3-0.2l23.6-13.7c0.9-0.5,1.8-0.8,2.8-0.8v41.2
				c-0.5,0-0.9-0.1-1.3-0.3L252.7,128c-0.7-0.4-1-1.1-1-1.8v-8.3C251.7,117.3,251.9,116.7,252.5,116.4z"/>
			<path id="XMLID_211_" class="st3" d="M279.2,101.7c1,0,2,0.3,2.8,0.8l22.9,13.2l0.8,0.5c0.7,0.4,1,1.1,1,1.8v8.3
				c0,0.7-0.3,1.4-1,1.8l-25.1,14.5c-0.4,0.2-0.8,0.3-1.3,0.3h0L279.2,101.7L279.2,101.7z"/>
		</g>
		<path id="XMLID_210_" class="st5" d="M279.2,134.6c0.5,0,0.9-0.1,1.3-0.3l25.1-14.5c1.4-0.8,1.4-2.8,0-3.5L282,102.5
			c-0.9-0.5-1.8-0.8-2.8-0.8c-1,0-2,0.3-2.8,0.8l-23.6,13.7c-1.4,0.8-1.4,2.8,0,3.5l25.1,14.5C278.3,134.4,278.7,134.6,279.2,134.6z
			"/>
	</g>
	<g>
		<g>
			<path id="XMLID_209_" class="st4" d="M67.4,99.5c0.1-0.1,0.1-0.1,0.2-0.2l18.7-10.8c0.7-0.4,1.4-0.6,2.2-0.6v32.6
				c-0.4,0-0.7-0.1-1-0.3l-19.9-11.5c-0.6-0.3-0.8-0.9-0.8-1.4v-6.6C66.8,100.3,67,99.8,67.4,99.5z"/>
			<path id="XMLID_208_" class="st3" d="M88.6,87.9c0.8,0,1.6,0.2,2.2,0.6L108.9,99l0.6,0.4c0.5,0.3,0.8,0.8,0.8,1.4v6.6
				c0,0.6-0.3,1.1-0.8,1.4l-19.9,11.5c-0.3,0.2-0.7,0.3-1,0.3l0,0V87.9L88.6,87.9z"/>
		</g>
		<path id="XMLID_207_" class="st5" d="M88.6,113.9c0.4,0,0.7-0.1,1-0.3l19.9-11.5c1.1-0.6,1.1-2.2,0-2.8L90.8,88.5
			c-0.7-0.4-1.4-0.6-2.2-0.6c-0.8,0-1.5,0.2-2.2,0.6L67.6,99.3c-1.1,0.6-1.1,2.2,0,2.8l19.9,11.5C87.8,113.8,88.2,113.9,88.6,113.9z
			"/>
	</g>
	<g>
		<g>
			<path id="XMLID_206_" class="st4" d="M201.9,249.1c0.1-0.1,0.1-0.1,0.2-0.2l19.9-11.5c0.7-0.4,1.5-0.6,2.4-0.6v34.6
				c-0.4,0-0.8-0.1-1.1-0.3l-21.1-12.2c-0.6-0.3-0.9-0.9-0.9-1.5v-7C201.3,249.9,201.5,249.4,201.9,249.1z"/>
			<path id="XMLID_205_" class="st3" d="M224.4,236.8c0.8,0,1.6,0.2,2.4,0.6l19.2,11.1l0.7,0.4c0.6,0.3,0.8,0.9,0.8,1.5v7
				c0,0.6-0.3,1.2-0.9,1.5l-21.1,12.2c-0.3,0.2-0.7,0.3-1.1,0.3h0L224.4,236.8L224.4,236.8z"/>
		</g>
		<path id="XMLID_204_" class="st5" d="M224.4,264.4c0.4,0,0.8-0.1,1.1-0.3l21.1-12.2c1.1-0.7,1.1-2.3,0-3l-19.9-11.5
			c-0.7-0.4-1.5-0.6-2.4-0.6c-0.8,0-1.6,0.2-2.4,0.6L202.2,249c-1.1,0.7-1.1,2.3,0,3l21.1,12.2C223.6,264.3,224,264.4,224.4,264.4z"
			/>
	</g>
	<g>
		<g>
			<g>
				<path id="XMLID_203_" class="st4" d="M153.4,114.6c0.1-0.1,0.2-0.2,0.4-0.3l34.9-20.2c1.3-0.7,2.7-1.1,4.2-1.1v104.3
					c-0.7,0-1.3-0.2-1.9-0.5l-37.2-21.5c-1-0.6-1.5-1.6-1.5-2.7v-55.7C152.3,116,152.7,115.1,153.4,114.6z"/>
				<path id="XMLID_202_" class="st3" d="M192.9,93c1.5,0,2.9,0.4,4.2,1.1l33.8,19.5l1.2,0.7c1,0.6,1.5,1.6,1.5,2.6v55.7
					c0,1-0.5,2.1-1.5,2.7l-37.2,21.4c-0.6,0.3-1.3,0.5-1.9,0.5h0L192.9,93L192.9,93z"/>
			</g>
			<path id="XMLID_201_" class="st5" d="M192.9,141.5c0.7,0,1.3-0.2,1.9-0.5l37.2-21.4c2-1.2,2-4.1,0-5.2L197,94.1
				c-1.3-0.7-2.7-1.1-4.1-1.1c-1.5,0-2.9,0.4-4.1,1.1l-34.9,20.2c-2,1.2-2,4.1,0,5.2L191,141C191.5,141.3,192.2,141.5,192.9,141.5z"
				/>
		</g>
		<polygon id="XMLID_200_" class="st6" points="205.1,151.8 205.1,161.8 220.6,152.9 220.6,142.9 219.3,143.7 		"/>
		<polygon id="XMLID_199_" class="st7" points="205.1,151.8 205.1,160 219.3,151.8 219.3,143.7 		"/>
		<polygon id="XMLID_198_" class="st6" points="178.3,151.8 178.3,161.8 162.8,152.9 162.8,142.9 164.1,143.7 		"/>
		<polygon id="XMLID_197_" class="st7" points="178.3,151.8 178.3,160 164.1,151.8 164.1,143.7 		"/>
	</g>
	<path id="XMLID_196_" class="st7" d="M173.3,116.9l0.7,0.4l17.9,10.3c0.3,0.2,0.6,0.3,1,0.3c0.3,0,0.7-0.1,1-0.3l17.9-10.3l0.7-0.4
		c1-0.6,1-2,0-2.6L195,104.3c-0.6-0.4-1.3-0.5-2.1-0.5c-0.7,0-1.4,0.2-2.1,0.5l-17.5,10.1C172.3,114.9,172.3,116.4,173.3,116.9z"/>
	<path id="XMLID_195_" class="st8" d="M174,117.4l17.9,10.3c0.3,0.2,0.6,0.3,1,0.3c0.3,0,0.7-0.1,1-0.3l17.9-10.3l-16.8-9.7
		c-0.6-0.4-1.3-0.6-2.1-0.6c-0.7,0-1.4,0.2-2.1,0.6L174,117.4z"/>
	<path id="XMLID_194_" class="st8" d="M174,117.4l17.9,10.3c0.3,0.2,0.6,0.3,1,0.3c0.3,0,0.7-0.1,1-0.3l17.9-10.3l-16.8-9.7
		c-0.6-0.4-1.3-0.6-2.1-0.6c-0.7,0-1.4,0.2-2.1,0.6L174,117.4z"/>
	<path id="XMLID_193_" class="st7" d="M212.9,251.3l0.4,0.2l9.9,5.7c0.2,0.1,0.3,0.1,0.5,0.1c0.2,0,0.4-0.1,0.5-0.1l9.9-5.7l0.4-0.2
		c0.6-0.3,0.6-1.1,0-1.4l-9.7-5.6c-0.4-0.2-0.7-0.3-1.2-0.3c-0.4,0-0.8,0.1-1.1,0.3l-9.7,5.6C212.3,250.2,212.3,251,212.9,251.3z"/>
	<path id="XMLID_192_" class="st8" d="M213.2,251.5l9.9,5.7c0.2,0.1,0.3,0.1,0.5,0.1c0.2,0,0.4-0.1,0.5-0.1l9.9-5.7l-9.3-5.4
		c-0.4-0.2-0.7-0.3-1.2-0.3c-0.4,0-0.8,0.1-1.1,0.3L213.2,251.5z"/>
	<path id="XMLID_191_" class="st8" d="M213.2,251.5l9.9,5.7c0.2,0.1,0.3,0.1,0.5,0.1c0.2,0,0.4-0.1,0.5-0.1l9.9-5.7l-9.3-5.4
		c-0.4-0.2-0.7-0.3-1.2-0.3c-0.4,0-0.8,0.1-1.1,0.3L213.2,251.5z"/>
	
		<linearGradient id="XMLID_263_" gradientUnits="userSpaceOnUse" x1="-1030.3949" y1="257.1431" x2="-1030.3949" y2="206.9288" gradientTransform="matrix(-1 0 0 1 -806.6956 0)">
		<stop  offset="0" style="stop-color:#FFD815"/>
		<stop  offset="0.9951" style="stop-color:#FFEDCF;stop-opacity:0"/>
	</linearGradient>
	<path id="XMLID_190_" class="st9" d="M207.8,215.8l14.2-8.2c0.5-0.3,1.1-0.5,1.7-0.5c0.6,0,1.2,0.2,1.8,0.5l14.2,8.2l0,0l-5.5,35.7
		l-9.9,5.7c-0.2,0.1-0.3,0.1-0.5,0.1v0c0,0,0,0,0,0l0,0v0c-0.2,0-0.4-0.1-0.5-0.1l-9.9-5.7L207.8,215.8L207.8,215.8z"/>
	
		<linearGradient id="XMLID_265_" gradientUnits="userSpaceOnUse" x1="-1030.3949" y1="256.993" x2="-1030.3949" y2="210.9515" gradientTransform="matrix(-1 0 0 1 -806.6956 0)">
		<stop  offset="0" style="stop-color:#FFD815"/>
		<stop  offset="0.9951" style="stop-color:#FFEDCF;stop-opacity:0"/>
	</linearGradient>
	<path id="XMLID_189_" class="st10" d="M209.1,219.1l13-7.5c0.5-0.3,1-0.4,1.6-0.4c0.6,0,1.1,0.2,1.6,0.4l13,7.5l0,0l-5,32.7
		l-9.1,5.2c-0.2,0.1-0.3,0.1-0.5,0.1v0c0,0,0,0,0,0l0,0v0c-0.2,0-0.3,0-0.5-0.1l-9.1-5.2L209.1,219.1L209.1,219.1z"/>
	<path id="XMLID_188_" class="st7" d="M80.6,102.5l0.3,0.2l7.5,4.3c0.1,0.1,0.3,0.1,0.4,0.1c0.1,0,0.3,0,0.4-0.1l7.5-4.3l0.3-0.2
		c0.4-0.2,0.4-0.9,0-1.1l-7.3-4.2C89.4,97,89.1,97,88.8,97c-0.3,0-0.6,0.1-0.9,0.2l-7.3,4.2C80.2,101.6,80.2,102.3,80.6,102.5z"/>
	<path id="XMLID_187_" class="st8" d="M80.9,102.7l7.5,4.3c0.1,0.1,0.3,0.1,0.4,0.1c0.1,0,0.3,0,0.4-0.1l7.5-4.3l-7-4.1
		c-0.3-0.2-0.6-0.2-0.9-0.2c-0.3,0-0.6,0.1-0.9,0.2L80.9,102.7z"/>
	<path id="XMLID_186_" class="st8" d="M80.9,102.7l7.5,4.3c0.1,0.1,0.3,0.1,0.4,0.1c0.1,0,0.3,0,0.4-0.1l7.5-4.3l-7-4.1
		c-0.3-0.2-0.6-0.2-0.9-0.2c-0.3,0-0.6,0.1-0.9,0.2L80.9,102.7z"/>
	
		<linearGradient id="XMLID_267_" gradientUnits="userSpaceOnUse" x1="-895.4515" y1="106.9218" x2="-895.4515" y2="69.0218" gradientTransform="matrix(-1 0 0 1 -806.6956 0)">
		<stop  offset="0" style="stop-color:#FFD815"/>
		<stop  offset="0.9951" style="stop-color:#FFEDCF;stop-opacity:0"/>
	</linearGradient>
	<path id="XMLID_185_" class="st11" d="M76.7,75.7l10.7-6.2c0.4-0.2,0.9-0.4,1.3-0.4c0.5,0,0.9,0.1,1.3,0.4l10.7,6.2l0,0l-4.1,26.9
		l-7.5,4.3c-0.1,0.1-0.3,0.1-0.4,0.1v0h0h0v0c-0.1,0-0.3,0-0.4-0.1l-7.5-4.3L76.7,75.7L76.7,75.7z"/>
	
		<linearGradient id="XMLID_269_" gradientUnits="userSpaceOnUse" x1="-895.4514" y1="106.8085" x2="-895.4514" y2="72.0581" gradientTransform="matrix(-1 0 0 1 -806.6956 0)">
		<stop  offset="0" style="stop-color:#FFD815"/>
		<stop  offset="0.9951" style="stop-color:#FFEDCF;stop-opacity:0"/>
	</linearGradient>
	<path id="XMLID_184_" class="st12" d="M77.7,78.2l9.8-5.7c0.4-0.2,0.8-0.3,1.2-0.3c0.4,0,0.8,0.1,1.2,0.3l9.8,5.7l0,0L96,102.9
		l-6.9,4c-0.1,0.1-0.2,0.1-0.4,0.1v0l0,0l0,0v0c-0.1,0-0.3,0-0.4-0.1l-6.9-4L77.7,78.2L77.7,78.2z"/>
	<path id="XMLID_183_" class="st7" d="M269.6,118.5l0.3,0.2l8.8,5c0.1,0.1,0.3,0.1,0.5,0.1c0.2,0,0.3,0,0.5-0.1l8.7-5l0.3-0.2
		c0.5-0.3,0.5-1,0-1.3l-8.5-4.9c-0.3-0.2-0.7-0.3-1-0.3c-0.4,0-0.7,0.1-1,0.3l-8.5,4.9C269.1,117.5,269.1,118.2,269.6,118.5z"/>
	<path id="XMLID_182_" class="st8" d="M269.9,118.7l8.8,5c0.1,0.1,0.3,0.1,0.5,0.1c0.2,0,0.3,0,0.5-0.1l8.7-5l-8.2-4.7
		c-0.3-0.2-0.7-0.3-1-0.3c-0.4,0-0.7,0.1-1,0.3L269.9,118.7z"/>
	<path id="XMLID_181_" class="st8" d="M269.9,118.7l8.8,5c0.1,0.1,0.3,0.1,0.5,0.1c0.2,0,0.3,0,0.5-0.1l8.7-5l-8.2-4.7
		c-0.3-0.2-0.7-0.3-1-0.3c-0.4,0-0.7,0.1-1,0.3L269.9,118.7z"/>
	
		<linearGradient id="XMLID_271_" gradientUnits="userSpaceOnUse" x1="-1085.859" y1="123.6815" x2="-1085.859" y2="79.4141" gradientTransform="matrix(-1 0 0 1 -806.6956 0)">
		<stop  offset="0" style="stop-color:#FFD815"/>
		<stop  offset="0.9951" style="stop-color:#FFEDCF;stop-opacity:0"/>
	</linearGradient>
	<path id="XMLID_180_" class="st13" d="M265.1,87.3l12.5-7.2c0.5-0.3,1-0.4,1.5-0.4c0.5,0,1.1,0.2,1.6,0.4l12.5,7.2l0,0l-4.8,31.4
		l-8.7,5c-0.1,0.1-0.3,0.1-0.5,0.1v0h0h0v0c-0.2,0-0.3,0-0.5-0.1l-8.7-5L265.1,87.3L265.1,87.3z"/>
	
		<linearGradient id="XMLID_273_" gradientUnits="userSpaceOnUse" x1="-1085.859" y1="123.5492" x2="-1085.859" y2="82.9604" gradientTransform="matrix(-1 0 0 1 -806.6956 0)">
		<stop  offset="0" style="stop-color:#FFD815"/>
		<stop  offset="0.9951" style="stop-color:#FFEDCF;stop-opacity:0"/>
	</linearGradient>
	<path id="XMLID_179_" class="st14" d="M266.3,90.2l11.5-6.6c0.4-0.2,0.9-0.4,1.4-0.4c0.5,0,1,0.1,1.4,0.4l11.5,6.6l0,0l-4.4,28.8
		l-8,4.6c-0.1,0.1-0.3,0.1-0.4,0.1v0l0,0l0,0v0c-0.2,0-0.3,0-0.4-0.1l-8-4.6L266.3,90.2L266.3,90.2z"/>
	<path id="XMLID_178_" class="st7" d="M180.6,50.1l0.4,0.3l11.4,6.6c0.2,0.1,0.4,0.2,0.6,0.2c0.2,0,0.4-0.1,0.6-0.2l11.4-6.6
		l0.4-0.3c0.6-0.4,0.6-1.3,0-1.7L194.4,42c-0.4-0.2-0.9-0.3-1.3-0.3c-0.5,0-0.9,0.1-1.3,0.3l-11.1,6.4C180,48.8,180,49.7,180.6,50.1
		z"/>
	<path id="XMLID_177_" class="st8" d="M181,50.3l11.4,6.6c0.2,0.1,0.4,0.2,0.6,0.2c0.2,0,0.4-0.1,0.6-0.2l11.4-6.6l-10.7-6.2
		c-0.4-0.2-0.9-0.4-1.3-0.4c-0.5,0-0.9,0.1-1.3,0.4L181,50.3z"/>
	<path id="XMLID_176_" class="st8" d="M181,50.3l11.4,6.6c0.2,0.1,0.4,0.2,0.6,0.2c0.2,0,0.4-0.1,0.6-0.2l11.4-6.6l-10.7-6.2
		c-0.4-0.2-0.9-0.4-1.3-0.4c-0.5,0-0.9,0.1-1.3,0.4L181,50.3z"/>
	
		<linearGradient id="XMLID_275_" gradientUnits="userSpaceOnUse" x1="-999.7318" y1="56.7776" x2="-999.7318" y2="-0.8451" gradientTransform="matrix(-1 0 0 1 -806.6956 0)">
		<stop  offset="0" style="stop-color:#FFD815"/>
		<stop  offset="0.9951" style="stop-color:#FFEDCF;stop-opacity:0"/>
	</linearGradient>
	<path id="XMLID_175_" class="st15" d="M174.7,9.4L191,0c0.6-0.3,1.3-0.5,2-0.5c0.7,0,1.4,0.2,2,0.5l16.3,9.4l0,0L205,50.3
		l-11.4,6.6c-0.2,0.1-0.4,0.2-0.6,0.2v0c0,0,0,0,0,0l0,0l0,0c-0.2,0-0.4-0.1-0.6-0.2L181,50.3L174.7,9.4L174.7,9.4z"/>
	
		<linearGradient id="XMLID_276_" gradientUnits="userSpaceOnUse" x1="-999.7318" y1="56.6051" x2="-999.7318" y2="3.7712" gradientTransform="matrix(-1 0 0 1 -806.6956 0)">
		<stop  offset="0" style="stop-color:#FFD815"/>
		<stop  offset="0.9951" style="stop-color:#FFEDCF;stop-opacity:0"/>
	</linearGradient>
	<path id="XMLID_174_" class="st16" d="M176.3,13.1l14.9-8.6c0.6-0.3,1.2-0.5,1.8-0.5c0.7,0,1.3,0.2,1.9,0.5l14.9,8.6l0,0L204,50.7
		l-10.4,6c-0.2,0.1-0.4,0.2-0.6,0.2v0c0,0,0,0,0,0l0,0v0c-0.2,0-0.4-0.1-0.6-0.2l-10.4-6L176.3,13.1L176.3,13.1z"/>
	<path id="XMLID_173_" class="st7" d="M380.7,119.1l0.4,0.3l11.4,6.6c0.2,0.1,0.4,0.2,0.6,0.2c0.2,0,0.4-0.1,0.6-0.2l11.4-6.6
		l0.4-0.3c0.6-0.4,0.6-1.3,0-1.7l-11.1-6.4c-0.4-0.2-0.9-0.3-1.3-0.3c-0.5,0-0.9,0.1-1.3,0.3l-11.1,6.4
		C380,117.8,380,118.7,380.7,119.1z"/>
	<path id="XMLID_172_" class="st8" d="M381.1,119.3l11.4,6.6c0.2,0.1,0.4,0.2,0.6,0.2c0.2,0,0.4-0.1,0.6-0.2l11.4-6.6l-10.7-6.2
		c-0.4-0.2-0.9-0.4-1.3-0.4c-0.5,0-0.9,0.1-1.3,0.4L381.1,119.3z"/>
	<path id="XMLID_171_" class="st8" d="M381.1,119.3l11.4,6.6c0.2,0.1,0.4,0.2,0.6,0.2c0.2,0,0.4-0.1,0.6-0.2l11.4-6.6l-10.7-6.2
		c-0.4-0.2-0.9-0.4-1.3-0.4c-0.5,0-0.9,0.1-1.3,0.4L381.1,119.3z"/>
	
		<linearGradient id="XMLID_277_" gradientUnits="userSpaceOnUse" x1="-1199.8195" y1="125.8143" x2="-1199.8195" y2="68.1918" gradientTransform="matrix(-1 0 0 1 -806.6956 0)">
		<stop  offset="0" style="stop-color:#FFD815"/>
		<stop  offset="0.9951" style="stop-color:#FFEDCF;stop-opacity:0"/>
	</linearGradient>
	<path id="XMLID_170_" class="st17" d="M374.8,78.4l16.3-9.4c0.6-0.3,1.3-0.5,2-0.5c0.7,0,1.4,0.2,2,0.5l16.3,9.4l0,0l-6.3,40.9
		l-11.4,6.6c-0.2,0.1-0.4,0.2-0.6,0.2v0h0c0,0,0,0,0,0l0,0c-0.2,0-0.4-0.1-0.6-0.2l-11.4-6.6L374.8,78.4L374.8,78.4z"/>
	
		<linearGradient id="XMLID_278_" gradientUnits="userSpaceOnUse" x1="-1199.8196" y1="125.642" x2="-1199.8196" y2="72.808" gradientTransform="matrix(-1 0 0 1 -806.6956 0)">
		<stop  offset="0" style="stop-color:#FFD815"/>
		<stop  offset="0.9951" style="stop-color:#FFEDCF;stop-opacity:0"/>
	</linearGradient>
	<path id="XMLID_169_" class="st18" d="M376.3,82.2l14.9-8.6c0.6-0.3,1.2-0.5,1.8-0.5c0.7,0,1.3,0.2,1.9,0.5l14.9,8.6l0,0l-5.8,37.5
		l-10.4,6c-0.2,0.1-0.4,0.2-0.6,0.2v0l0,0c0,0,0,0,0,0l0,0c-0.2,0-0.4-0.1-0.6-0.2l-10.4-6L376.3,82.2L376.3,82.2z"/>
	<path id="XMLID_168_" class="st7" d="M106.6,203l0.4,0.3l11.4,6.6c0.2,0.1,0.4,0.2,0.6,0.2c0.2,0,0.4-0.1,0.6-0.2l11.4-6.6l0.4-0.3
		c0.6-0.4,0.6-1.3,0-1.7l-11.1-6.4c-0.4-0.2-0.9-0.3-1.3-0.3c-0.5,0-0.9,0.1-1.3,0.3l-11.1,6.4C105.9,201.7,105.9,202.6,106.6,203z"
		/>
	<path id="XMLID_167_" class="st8" d="M107,203.2l11.4,6.6c0.2,0.1,0.4,0.2,0.6,0.2c0.2,0,0.4-0.1,0.6-0.2l11.4-6.6l-10.7-6.2
		c-0.4-0.2-0.9-0.4-1.3-0.4c-0.5,0-0.9,0.1-1.3,0.4L107,203.2z"/>
	<path id="XMLID_166_" class="st8" d="M107,203.2l11.4,6.6c0.2,0.1,0.4,0.2,0.6,0.2c0.2,0,0.4-0.1,0.6-0.2l11.4-6.6l-10.7-6.2
		c-0.4-0.2-0.9-0.4-1.3-0.4c-0.5,0-0.9,0.1-1.3,0.4L107,203.2z"/>
	
		<linearGradient id="XMLID_279_" gradientUnits="userSpaceOnUse" x1="-925.6877" y1="209.6883" x2="-925.6877" y2="152.0656" gradientTransform="matrix(-1 0 0 1 -806.6956 0)">
		<stop  offset="0" style="stop-color:#FFD815"/>
		<stop  offset="0.9951" style="stop-color:#FFEDCF;stop-opacity:0"/>
	</linearGradient>
	<path id="XMLID_165_" class="st19" d="M100.7,162.3l16.3-9.4c0.6-0.3,1.3-0.5,2-0.5c0.7,0,1.4,0.2,2,0.5l16.3,9.4l0,0l-6.3,40.9
		l-11.4,6.6c-0.2,0.1-0.4,0.2-0.6,0.2v0c0,0,0,0,0,0c0,0,0,0,0,0v0c-0.2,0-0.4-0.1-0.6-0.2l-11.4-6.6L100.7,162.3L100.7,162.3z"/>
	
		<linearGradient id="XMLID_280_" gradientUnits="userSpaceOnUse" x1="-925.6877" y1="209.5158" x2="-925.6877" y2="156.6819" gradientTransform="matrix(-1 0 0 1 -806.6956 0)">
		<stop  offset="0" style="stop-color:#FFD815"/>
		<stop  offset="0.9951" style="stop-color:#FFEDCF;stop-opacity:0"/>
	</linearGradient>
	<path id="XMLID_164_" class="st20" d="M102.2,166.1l14.9-8.6c0.6-0.3,1.2-0.5,1.8-0.5c0.7,0,1.3,0.2,1.9,0.5l14.9,8.6l0,0
		l-5.8,37.5l-10.4,6c-0.2,0.1-0.4,0.2-0.6,0.2v0c0,0,0,0,0,0c0,0,0,0,0,0l0,0c-0.2,0-0.4-0.1-0.6-0.2l-10.4-6L102.2,166.1
		L102.2,166.1z"/>
	
		<linearGradient id="XMLID_281_" gradientUnits="userSpaceOnUse" x1="-999.5792" y1="127.5492" x2="-999.5792" y2="37.597" gradientTransform="matrix(-1 0 0 1 -806.6956 0)">
		<stop  offset="0" style="stop-color:#FFD815"/>
		<stop  offset="0.9951" style="stop-color:#FFEDCF;stop-opacity:0"/>
	</linearGradient>
	<path id="XMLID_163_" class="st21" d="M164.3,53.6l25.4-14.7c0.9-0.5,2-0.9,3.1-0.9c1.1,0,2.2,0.3,3.1,0.9l25.4,14.7l0,0l-9.8,63.9
		l-17.8,10.3c-0.3,0.2-0.6,0.3-1,0.3v0c0,0,0,0,0,0c0,0,0,0,0,0v0c-0.3,0-0.7-0.1-1-0.3l-17.8-10.3L164.3,53.6L164.3,53.6z"/>
	
		<linearGradient id="XMLID_283_" gradientUnits="userSpaceOnUse" x1="-999.5792" y1="127.2801" x2="-999.5792" y2="44.8034" gradientTransform="matrix(-1 0 0 1 -806.6956 0)">
		<stop  offset="0" style="stop-color:#FFD815"/>
		<stop  offset="0.9951" style="stop-color:#FFEDCF;stop-opacity:0"/>
	</linearGradient>
	<path id="XMLID_162_" class="st22" d="M166.7,59.4L190,46c0.9-0.5,1.9-0.8,2.9-0.8c1,0,2,0.3,2.9,0.8l23.3,13.5l0,0l-9,58.6
		l-16.3,9.4c-0.3,0.2-0.6,0.2-0.9,0.2v0c0,0,0,0,0,0c0,0,0,0,0,0v0c-0.3,0-0.6-0.1-0.9-0.2l-16.3-9.4L166.7,59.4L166.7,59.4z"/>
	<g>
		<g>
			<polygon id="XMLID_161_" class="st23" points="227.8,247.3 227,247.3 228.8,247.2 229.5,247.2 			"/>
		</g>
		<g>
			<defs>
				<path id="XMLID_159_" d="M228,246.6l-0.7,0c-0.2-0.3-0.4-0.7-0.7-1l0.7,0C227.5,245.9,227.8,246.2,228,246.6z"/>
			</defs>
			<use xlink:href="#XMLID_159_"  style="overflow:visible;fill:#BC820D;"/>
			<clipPath id="XMLID_285_">
				<use xlink:href="#XMLID_159_"  style="overflow:visible;"/>
			</clipPath>
			<g class="st24">
				<path id="XMLID_160_" class="st25" d="M228,246.6l-0.7,0c-0.2-0.3-0.4-0.7-0.7-1l0.7,0C227.5,245.9,227.8,246.2,228,246.6"/>
			</g>
		</g>
		<g>
			<polygon id="XMLID_158_" class="st23" points="227,251 226.3,251 226.4,248.4 227.1,248.4 			"/>
		</g>
		<g>
			<polygon id="XMLID_157_" class="st25" points="227.1,248.4 226.4,248.4 225.2,246.6 225.9,246.7 			"/>
		</g>
		<g>
			<defs>
				<path id="XMLID_152_" d="M224.4,248.3l-0.7,0c0.1,0,0.2,0,0.2,0c0.4,0,0.8-0.2,1.3-0.5l0.7,0c-0.4,0.3-0.9,0.5-1.3,0.5
					C224.6,248.3,224.5,248.3,224.4,248.3z"/>
			</defs>
			<use xlink:href="#XMLID_152_"  style="overflow:visible;fill:#D39220;"/>
			<clipPath id="XMLID_286_">
				<use xlink:href="#XMLID_152_"  style="overflow:visible;"/>
			</clipPath>
			<g class="st26">
				<path id="XMLID_156_" class="st23" d="M224.4,248.3l-0.7,0c0.1,0,0.2,0,0.2,0c0,0,0,0,0,0l0.7,0c0,0,0,0,0,0
					C224.6,248.3,224.5,248.3,224.4,248.3"/>
				<path id="XMLID_155_" class="st23" d="M224.7,248.3l-0.7,0c0.1,0,0.2,0,0.4-0.1l0.7,0C225,248.2,224.8,248.3,224.7,248.3"/>
				<path id="XMLID_154_" class="st23" d="M225.1,248.2l-0.7,0c0.1,0,0.3-0.1,0.4-0.2l0.7,0C225.4,248.1,225.2,248.2,225.1,248.2"/>
				<path id="XMLID_153_" class="st23" d="M225.5,248l-0.7,0c0.1-0.1,0.3-0.2,0.4-0.3l0.7,0C225.8,247.9,225.6,247.9,225.5,248"/>
			</g>
		</g>
		<g>
			<defs>
				<path id="XMLID_144_" d="M224.3,239.4l0.7,0c1.4,0.1,2.6,1.7,2.6,4.3c0,0.7-0.1,1.3-0.3,1.9l-0.7,0c0.2-0.6,0.3-1.2,0.3-1.9
					C226.9,241,225.7,239.4,224.3,239.4z"/>
			</defs>
			<use xlink:href="#XMLID_144_"  style="overflow:visible;fill:#BC820D;"/>
			<clipPath id="XMLID_287_">
				<use xlink:href="#XMLID_144_"  style="overflow:visible;"/>
			</clipPath>
			<g class="st27">
				<path id="XMLID_151_" class="st25" d="M227.3,245.6l-0.7,0c0.1-0.2,0.1-0.4,0.2-0.6l0.7,0C227.4,245.2,227.4,245.4,227.3,245.6"
					/>
				<path id="XMLID_150_" class="st25" d="M227.5,245l-0.7,0c0-0.2,0.1-0.4,0.1-0.6l0.7,0C227.5,244.6,227.5,244.8,227.5,245"/>
				<path id="XMLID_149_" class="st25" d="M227.6,244.4l-0.7,0c0-0.2,0-0.4,0-0.6l0.7,0C227.6,244,227.6,244.2,227.6,244.4"/>
				<path id="XMLID_148_" class="st25" d="M227.6,243.8l-0.7,0c0-0.1,0-0.1,0-0.2c0-0.2,0-0.3,0-0.5l0.7,0c0,0.2,0,0.3,0,0.5
					C227.6,243.7,227.6,243.8,227.6,243.8"/>
				<path id="XMLID_147_" class="st25" d="M227.6,243.2l-0.7,0c0-0.2,0-0.4-0.1-0.6l0.7,0C227.6,242.7,227.6,242.9,227.6,243.2"/>
				<path id="XMLID_146_" class="st25" d="M227.6,242.5l-0.7,0c0-0.2-0.1-0.5-0.1-0.7l0.7,0C227.5,242.1,227.5,242.3,227.6,242.5"/>
				<path id="XMLID_145_" class="st25" d="M227.4,241.9l-0.7,0c-0.4-1.5-1.4-2.4-2.4-2.5l0.7,0C226.1,239.5,227,240.4,227.4,241.9"
					/>
			</g>
		</g>
		<g>
			<polygon id="XMLID_143_" class="st25" points="224.2,246.8 223.5,246.8 223.6,243.1 224.3,243.1 			"/>
		</g>
		<g>
			<polygon id="XMLID_142_" class="st23" points="224.3,243.1 223.6,243.1 226,242.9 226.7,243 			"/>
		</g>
		<g>
			<polygon id="XMLID_141_" class="st28" points="226.7,243 226.6,245.6 227.8,247.3 229.5,247.2 229.4,250.9 227,251 227.1,248.4 
				225.9,246.7 224.2,246.8 224.3,243.1 			"/>
		</g>
		<g>
			<path id="XMLID_140_" class="st28" d="M224.9,236.5c0.5,0,0.9,0,1.4,0.2c2,0.8,3.3,3.6,3.3,6.9c0,1-0.2,2-0.4,3
				c-0.4,0-0.7,0-1.1,0.1c-0.2-0.3-0.4-0.7-0.7-1c0.2-0.6,0.3-1.2,0.3-1.9c0-2.7-1.4-4.3-2.8-4.3c-0.9,0.1-1.8,0.8-2.4,2.2
				c-1.3,3.2,0.2,6.8,2.3,6.6c0.4,0,0.8-0.2,1.3-0.5c0.2,0.3,0.4,0.7,0.7,1c0,0.6,0,1.2,0,1.7c-0.6,0.5-1.3,0.7-1.9,0.7
				c-1.4,0.1-2.7-0.8-3.6-2.4c-1.3-2.4-1.4-6-0.2-8.8C221.8,237.9,223.3,236.6,224.9,236.5z"/>
		</g>
		<path id="XMLID_139_" class="st29" d="M225.3,236.5l-0.7,0c-0.1,0-0.3,0-0.4,0c0,0-0.1,0-0.1,0c0,0-0.1,0-0.1,0
			c-0.1,0-0.1,0-0.2,0c0,0-0.1,0-0.1,0c-0.1,0-0.1,0-0.2,0c0,0,0,0-0.1,0c0,0,0,0-0.1,0c-0.1,0-0.1,0-0.2,0.1c0,0-0.1,0-0.1,0
			c-0.1,0-0.1,0.1-0.2,0.1c0,0,0,0-0.1,0c0,0,0,0,0,0c0,0,0,0-0.1,0c-0.1,0-0.1,0.1-0.2,0.1c0,0-0.1,0-0.1,0.1
			c-0.1,0-0.1,0.1-0.2,0.1c0,0,0,0-0.1,0c-0.1,0.1-0.2,0.1-0.2,0.2c0,0,0,0,0,0c0,0-0.1,0.1-0.1,0.1c0,0-0.1,0.1-0.1,0.1
			c0,0-0.1,0.1-0.1,0.1c0,0-0.1,0.1-0.1,0.1c0,0.1-0.1,0.1-0.1,0.2c0,0-0.1,0.1-0.1,0.1c0,0.1-0.1,0.1-0.1,0.2c0,0-0.1,0.1-0.1,0.1
			c0,0.1-0.1,0.1-0.1,0.2c0,0-0.1,0.1-0.1,0.1c0,0.1-0.1,0.1-0.1,0.2c0,0-0.1,0.1-0.1,0.1c0,0.1-0.1,0.2-0.1,0.3c0,0,0,0.1-0.1,0.1
			c-0.1,0.1-0.1,0.3-0.2,0.4c-0.1,0.2-0.1,0.3-0.2,0.5c0,0,0,0,0,0c-0.1,0.2-0.1,0.4-0.2,0.6c0,0.1,0,0.1,0,0.2
			c0,0.1-0.1,0.3-0.1,0.4c0,0,0,0,0,0.1c0,0.1,0,0.2,0,0.2c0,0.1,0,0.2,0,0.2c0,0.1,0,0.2-0.1,0.3c0,0.1,0,0.1,0,0.2c0,0,0,0,0,0
			c0,0.2,0,0.3-0.1,0.5c0,0,0,0.1,0,0.1c0,0.1,0,0.3,0,0.4c0,0,0,0,0,0.1c0,0.1,0,0.1,0,0.2c0,0.1,0,0.2,0,0.4c0,0.1,0,0.1,0,0.2
			c0,0.1,0,0.1,0,0.2c0,0.1,0,0.1,0,0.2c0,0.1,0,0.2,0,0.2c0,0.1,0,0.2,0,0.3c0,0.1,0,0.1,0,0.2c0,0,0,0.1,0,0.1c0,0.1,0,0.1,0,0.2
			c0,0.1,0,0.2,0.1,0.3c0,0.1,0,0.2,0.1,0.3c0,0.1,0,0.2,0.1,0.3c0,0,0,0.1,0,0.1c0,0.1,0,0.1,0.1,0.2c0,0.1,0,0.1,0.1,0.2
			c0,0.1,0.1,0.2,0.1,0.3c0,0.1,0,0.1,0.1,0.2c0,0.1,0.1,0.2,0.1,0.3c0,0.1,0,0.1,0.1,0.2c0.1,0.2,0.1,0.3,0.2,0.4
			c0.8,1.5,2,2.3,3.2,2.4l0.7,0c-1.2-0.1-2.4-0.9-3.2-2.4c-0.1-0.1-0.2-0.3-0.2-0.4c0,0,0-0.1-0.1-0.2c0-0.1-0.1-0.2-0.1-0.3
			c0-0.1,0-0.1-0.1-0.2c0-0.1-0.1-0.2-0.1-0.3c0-0.1,0-0.1-0.1-0.2c0-0.1-0.1-0.2-0.1-0.3c0-0.1,0-0.2-0.1-0.3c0-0.1,0-0.2-0.1-0.3
			c0-0.1,0-0.2-0.1-0.3c0-0.1,0-0.2,0-0.3c0-0.1,0-0.1,0-0.2c0-0.1,0-0.2,0-0.3c0-0.1,0-0.1,0-0.2c0-0.1,0-0.2,0-0.3
			c0-0.1,0-0.1,0-0.2c0-0.1,0-0.2,0-0.4c0-0.1,0-0.1,0-0.2c0-0.2,0-0.3,0-0.5c0,0,0-0.1,0-0.1c0-0.2,0-0.4,0.1-0.5
			c0-0.1,0-0.1,0-0.2c0-0.1,0-0.2,0.1-0.3c0-0.1,0-0.2,0-0.2c0-0.1,0-0.2,0.1-0.3c0-0.2,0.1-0.3,0.1-0.4c0-0.1,0-0.1,0-0.2
			c0.1-0.2,0.1-0.4,0.2-0.6c0.1-0.2,0.1-0.3,0.2-0.5c0.1-0.1,0.1-0.3,0.2-0.4c0,0,0-0.1,0.1-0.1c0-0.1,0.1-0.2,0.1-0.3
			c0,0,0.1-0.1,0.1-0.1c0-0.1,0.1-0.2,0.1-0.2c0,0,0.1-0.1,0.1-0.1c0-0.1,0.1-0.1,0.1-0.2c0,0,0.1-0.1,0.1-0.1
			c0-0.1,0.1-0.1,0.1-0.2c0,0,0.1-0.1,0.1-0.1c0-0.1,0.1-0.1,0.1-0.2c0,0,0.1-0.1,0.1-0.1c0,0,0.1-0.1,0.1-0.1c0,0,0.1-0.1,0.1-0.1
			c0,0,0.1-0.1,0.1-0.1c0.1-0.1,0.2-0.1,0.2-0.2c0,0,0,0,0.1-0.1c0.1,0,0.1-0.1,0.2-0.1c0,0,0.1,0,0.1-0.1c0.1,0,0.1-0.1,0.2-0.1
			c0,0,0,0,0.1,0c0,0,0.1,0,0.1,0c0.1,0,0.1-0.1,0.2-0.1c0,0,0.1,0,0.1,0c0.1,0,0.1-0.1,0.2-0.1c0,0,0.1,0,0.1,0c0.1,0,0.1,0,0.2,0
			c0,0,0.1,0,0.1,0c0.1,0,0.1,0,0.2,0c0.1,0,0.1,0,0.2,0C225,236.5,225.1,236.5,225.3,236.5L225.3,236.5L225.3,236.5z"/>
	</g>
	<g>
		<g>
			<polygon id="XMLID_138_" class="st23" points="91.9,98.5 91.2,98.4 92.9,98.3 93.6,98.4 			"/>
		</g>
		<g>
			<defs>
				<path id="XMLID_136_" d="M92.1,97.7l-0.7,0c-0.2-0.3-0.4-0.7-0.7-1l0.7,0C91.7,97,91.9,97.4,92.1,97.7z"/>
			</defs>
			<use xlink:href="#XMLID_136_"  style="overflow:visible;fill:#BC820D;"/>
			<clipPath id="XMLID_288_">
				<use xlink:href="#XMLID_136_"  style="overflow:visible;"/>
			</clipPath>
			<g class="st30">
				<path id="XMLID_137_" class="st25" d="M92.1,97.7l-0.7,0c-0.2-0.3-0.4-0.7-0.7-1l0.7,0C91.7,97,91.9,97.4,92.1,97.7"/>
			</g>
		</g>
		<g>
			<polygon id="XMLID_135_" class="st23" points="91.2,102.2 90.5,102.1 90.5,99.5 91.2,99.5 			"/>
		</g>
		<g>
			<polygon id="XMLID_134_" class="st25" points="91.2,99.5 90.5,99.5 89.4,97.8 90.1,97.8 			"/>
		</g>
		<g>
			<defs>
				<path id="XMLID_129_" d="M88.6,99.4l-0.7,0c0.1,0,0.2,0,0.2,0c0.4,0,0.8-0.2,1.3-0.5l0.7,0c-0.4,0.3-0.9,0.5-1.3,0.5
					C88.8,99.4,88.7,99.4,88.6,99.4z"/>
			</defs>
			<use xlink:href="#XMLID_129_"  style="overflow:visible;fill:#D39220;"/>
			<clipPath id="XMLID_290_">
				<use xlink:href="#XMLID_129_"  style="overflow:visible;"/>
			</clipPath>
			<g class="st31">
				<path id="XMLID_133_" class="st23" d="M88.6,99.4l-0.7,0c0.1,0,0.2,0,0.2,0c0,0,0,0,0,0l0.7,0c0,0,0,0,0,0
					C88.8,99.4,88.7,99.4,88.6,99.4"/>
				<path id="XMLID_132_" class="st23" d="M88.9,99.4l-0.7,0c0.1,0,0.2,0,0.4-0.1l0.7,0C89.1,99.4,89,99.4,88.9,99.4"/>
				<path id="XMLID_131_" class="st23" d="M89.2,99.3l-0.7,0c0.1,0,0.3-0.1,0.4-0.2l0.7,0C89.5,99.2,89.4,99.3,89.2,99.3"/>
				<path id="XMLID_130_" class="st23" d="M89.7,99.2l-0.7,0c0.1-0.1,0.3-0.2,0.4-0.3l0.7,0C90,99,89.8,99.1,89.7,99.2"/>
			</g>
		</g>
		<g>
			<defs>
				<path id="XMLID_121_" d="M88.5,90.5l0.7,0c1.4,0.1,2.6,1.7,2.6,4.3c0,0.7-0.1,1.3-0.3,1.9l-0.7,0c0.2-0.6,0.3-1.2,0.3-1.9
					C91.1,92.2,89.9,90.6,88.5,90.5z"/>
			</defs>
			<use xlink:href="#XMLID_121_"  style="overflow:visible;fill:#BC820D;"/>
			<clipPath id="XMLID_292_">
				<use xlink:href="#XMLID_121_"  style="overflow:visible;"/>
			</clipPath>
			<g class="st32">
				<path id="XMLID_128_" class="st25" d="M91.5,96.7l-0.7,0c0.1-0.2,0.1-0.4,0.2-0.6l0.7,0C91.6,96.3,91.5,96.5,91.5,96.7"/>
				<path id="XMLID_127_" class="st25" d="M91.6,96.2l-0.7,0c0-0.2,0.1-0.4,0.1-0.6l0.7,0C91.7,95.8,91.7,96,91.6,96.2"/>
				<path id="XMLID_126_" class="st25" d="M91.7,95.5l-0.7,0c0-0.2,0-0.4,0-0.6l0.7,0C91.8,95.2,91.8,95.4,91.7,95.5"/>
				<path id="XMLID_125_" class="st25" d="M91.8,95l-0.7,0c0-0.1,0-0.1,0-0.2c0-0.2,0-0.3,0-0.5l0.7,0c0,0.2,0,0.3,0,0.5
					C91.8,94.8,91.8,94.9,91.8,95"/>
				<path id="XMLID_124_" class="st25" d="M91.8,94.3l-0.7,0c0-0.2,0-0.4-0.1-0.6l0.7,0C91.7,93.9,91.8,94.1,91.8,94.3"/>
				<path id="XMLID_123_" class="st25" d="M91.7,93.7l-0.7,0c0-0.2-0.1-0.5-0.1-0.7l0.7,0C91.6,93.2,91.7,93.4,91.7,93.7"/>
				<path id="XMLID_122_" class="st25" d="M91.6,93l-0.7,0c-0.4-1.5-1.4-2.4-2.4-2.5l0.7,0C90.2,90.6,91.2,91.5,91.6,93"/>
			</g>
		</g>
		<g>
			<polygon id="XMLID_120_" class="st25" points="88.4,97.9 87.7,97.9 87.7,94.2 88.5,94.3 			"/>
		</g>
		<g>
			<polygon id="XMLID_119_" class="st23" points="88.5,94.3 87.7,94.2 90.1,94.1 90.8,94.1 			"/>
		</g>
		<g>
			<polygon id="XMLID_118_" class="st28" points="90.8,94.1 90.8,96.8 91.9,98.5 93.6,98.4 93.6,102 91.2,102.2 91.2,99.5 
				90.1,97.8 88.4,97.9 88.5,94.3 			"/>
		</g>
		<g>
			<path id="XMLID_117_" class="st28" d="M89,87.6c0.5,0,0.9,0,1.4,0.2c2,0.8,3.3,3.6,3.3,6.9c0,1-0.2,2-0.4,3c-0.4,0-0.7,0-1.1,0.1
				c-0.2-0.3-0.4-0.7-0.7-1c0.2-0.6,0.3-1.2,0.3-1.9c0-2.7-1.4-4.3-2.8-4.3c-0.9,0.1-1.8,0.8-2.4,2.2c-1.3,3.2,0.2,6.8,2.3,6.6
				c0.4,0,0.8-0.2,1.3-0.5c0.2,0.3,0.4,0.7,0.7,1c0,0.6,0,1.2,0,1.7c-0.6,0.5-1.3,0.7-1.9,0.7c-1.4,0.1-2.7-0.8-3.6-2.4
				c-1.3-2.4-1.4-6-0.2-8.8C85.9,89,87.5,87.7,89,87.6z"/>
		</g>
		<path id="XMLID_116_" class="st29" d="M89.4,87.6l-0.7,0c-0.1,0-0.3,0-0.4,0c0,0-0.1,0-0.1,0c0,0-0.1,0-0.1,0c-0.1,0-0.1,0-0.2,0
			c0,0-0.1,0-0.1,0c-0.1,0-0.1,0-0.2,0c0,0,0,0-0.1,0c0,0,0,0-0.1,0c-0.1,0-0.1,0-0.2,0.1c0,0-0.1,0-0.1,0c-0.1,0-0.1,0.1-0.2,0.1
			c0,0,0,0-0.1,0c0,0,0,0,0,0c0,0,0,0-0.1,0c-0.1,0-0.1,0.1-0.2,0.1c0,0-0.1,0-0.1,0.1c-0.1,0-0.1,0.1-0.2,0.1c0,0,0,0-0.1,0
			c-0.1,0.1-0.2,0.1-0.2,0.2c0,0,0,0,0,0c0,0-0.1,0.1-0.1,0.1c0,0-0.1,0.1-0.1,0.1c0,0-0.1,0.1-0.1,0.1c0,0-0.1,0.1-0.1,0.1
			c0,0.1-0.1,0.1-0.1,0.2c0,0-0.1,0.1-0.1,0.1c0,0.1-0.1,0.1-0.1,0.2c0,0-0.1,0.1-0.1,0.1c0,0.1-0.1,0.1-0.1,0.2
			c0,0-0.1,0.1-0.1,0.1c0,0.1-0.1,0.1-0.1,0.2c0,0-0.1,0.1-0.1,0.1c0,0.1-0.1,0.2-0.1,0.3c0,0,0,0.1-0.1,0.1
			c-0.1,0.1-0.1,0.3-0.2,0.4c-0.1,0.2-0.1,0.3-0.2,0.5c0,0,0,0,0,0c-0.1,0.2-0.1,0.4-0.2,0.6c0,0.1,0,0.1,0,0.2
			c0,0.1-0.1,0.3-0.1,0.4c0,0,0,0,0,0.1c0,0.1,0,0.2,0,0.2c0,0.1,0,0.2,0,0.2c0,0.1,0,0.2-0.1,0.3c0,0.1,0,0.1,0,0.2c0,0,0,0,0,0
			c0,0.2,0,0.3-0.1,0.5c0,0,0,0.1,0,0.1c0,0.1,0,0.3,0,0.4c0,0,0,0,0,0.1c0,0.1,0,0.1,0,0.2c0,0.1,0,0.2,0,0.4c0,0.1,0,0.1,0,0.2
			c0,0.1,0,0.1,0,0.2c0,0.1,0,0.1,0,0.2c0,0.1,0,0.2,0,0.2c0,0.1,0,0.2,0,0.3c0,0.1,0,0.1,0,0.2c0,0,0,0.1,0,0.1c0,0.1,0,0.1,0,0.2
			c0,0.1,0,0.2,0.1,0.3c0,0.1,0,0.2,0.1,0.3c0,0.1,0,0.2,0.1,0.3c0,0,0,0.1,0,0.1c0,0.1,0,0.1,0.1,0.2c0,0.1,0,0.1,0.1,0.2
			c0,0.1,0.1,0.2,0.1,0.3c0,0.1,0,0.1,0.1,0.2c0,0.1,0.1,0.2,0.1,0.3c0,0.1,0,0.1,0.1,0.2c0.1,0.2,0.1,0.3,0.2,0.4
			c0.8,1.5,2,2.3,3.2,2.4l0.7,0c-1.2-0.1-2.4-0.9-3.2-2.4c-0.1-0.1-0.2-0.3-0.2-0.4c0,0,0-0.1-0.1-0.2c0-0.1-0.1-0.2-0.1-0.3
			c0-0.1,0-0.1-0.1-0.2c0-0.1-0.1-0.2-0.1-0.3c0-0.1,0-0.1-0.1-0.2c0-0.1-0.1-0.2-0.1-0.3c0-0.1,0-0.2-0.1-0.3c0-0.1,0-0.2-0.1-0.3
			c0-0.1,0-0.2-0.1-0.3c0-0.1,0-0.2,0-0.3c0-0.1,0-0.1,0-0.2c0-0.1,0-0.2,0-0.3c0-0.1,0-0.1,0-0.2c0-0.1,0-0.2,0-0.3
			c0-0.1,0-0.1,0-0.2c0-0.1,0-0.2,0-0.4c0-0.1,0-0.1,0-0.2c0-0.2,0-0.3,0-0.5c0,0,0-0.1,0-0.1c0-0.2,0-0.4,0.1-0.5
			c0-0.1,0-0.1,0-0.2c0-0.1,0-0.2,0.1-0.3c0-0.1,0-0.2,0-0.2c0-0.1,0-0.2,0.1-0.3c0-0.2,0.1-0.3,0.1-0.4c0-0.1,0-0.1,0-0.2
			c0.1-0.2,0.1-0.4,0.2-0.6c0.1-0.2,0.1-0.3,0.2-0.5c0.1-0.1,0.1-0.3,0.2-0.4c0,0,0-0.1,0.1-0.1c0-0.1,0.1-0.2,0.1-0.3
			c0,0,0.1-0.1,0.1-0.1c0-0.1,0.1-0.2,0.1-0.2c0,0,0.1-0.1,0.1-0.1c0-0.1,0.1-0.1,0.1-0.2c0,0,0.1-0.1,0.1-0.1
			c0-0.1,0.1-0.1,0.1-0.2c0,0,0.1-0.1,0.1-0.1c0-0.1,0.1-0.1,0.1-0.2c0,0,0.1-0.1,0.1-0.1c0,0,0.1-0.1,0.1-0.1c0,0,0.1-0.1,0.1-0.1
			c0,0,0.1-0.1,0.1-0.1c0.1-0.1,0.2-0.1,0.2-0.2c0,0,0,0,0.1-0.1c0.1,0,0.1-0.1,0.2-0.1c0,0,0.1,0,0.1-0.1c0.1,0,0.1-0.1,0.2-0.1
			c0,0,0,0,0.1,0c0,0,0.1,0,0.1,0c0.1,0,0.1-0.1,0.2-0.1c0,0,0.1,0,0.1,0c0.1,0,0.1-0.1,0.2-0.1c0,0,0.1,0,0.1,0c0.1,0,0.1,0,0.2,0
			c0,0,0.1,0,0.1,0c0.1,0,0.1,0,0.2,0c0.1,0,0.1,0,0.2,0C89.2,87.6,89.3,87.6,89.4,87.6L89.4,87.6L89.4,87.6z"/>
	</g>
	<g>
		<g>
			<polygon id="XMLID_115_" class="st23" points="123.7,197.3 122.7,197.3 125.1,197.1 126.1,197.2 			"/>
		</g>
		<g>
			<defs>
				<path id="XMLID_113_" d="M124,196.3l-1-0.1c-0.3-0.5-0.6-0.9-0.9-1.4l1,0.1C123.4,195.3,123.7,195.8,124,196.3z"/>
			</defs>
			<use xlink:href="#XMLID_113_"  style="overflow:visible;fill:#BC820D;"/>
			<clipPath id="XMLID_294_">
				<use xlink:href="#XMLID_113_"  style="overflow:visible;"/>
			</clipPath>
			<g class="st33">
				<path id="XMLID_114_" class="st25" d="M124,196.3l-1-0.1c-0.3-0.5-0.6-0.9-0.9-1.4l1,0.1C123.4,195.3,123.7,195.8,124,196.3"/>
			</g>
		</g>
		<g>
			<polygon id="XMLID_112_" class="st23" points="122.7,202.6 121.7,202.5 121.7,198.8 122.7,198.9 			"/>
		</g>
		<g>
			<polygon id="XMLID_111_" class="st25" points="122.7,198.9 121.7,198.8 120.2,196.4 121.2,196.5 			"/>
		</g>
		<g>
			<defs>
				<path id="XMLID_106_" d="M119.1,198.7l-1-0.1c0.1,0,0.2,0,0.3,0c0.6,0,1.2-0.3,1.8-0.7l1,0.1c-0.6,0.5-1.2,0.7-1.8,0.7
					C119.3,198.7,119.2,198.7,119.1,198.7z"/>
			</defs>
			<use xlink:href="#XMLID_106_"  style="overflow:visible;fill:#D39220;"/>
			<clipPath id="XMLID_296_">
				<use xlink:href="#XMLID_106_"  style="overflow:visible;"/>
			</clipPath>
			<g class="st34">
				<path id="XMLID_110_" class="st23" d="M119.1,198.7l-1-0.1c0.1,0,0.2,0,0.3,0c0,0,0,0,0.1,0l1,0.1c0,0,0,0-0.1,0
					C119.3,198.7,119.2,198.7,119.1,198.7"/>
				<path id="XMLID_109_" class="st23" d="M119.4,198.7l-1-0.1c0.2,0,0.3,0,0.5-0.1l1,0.1C119.8,198.6,119.6,198.7,119.4,198.7"/>
				<path id="XMLID_108_" class="st23" d="M120,198.6l-1-0.1c0.2-0.1,0.4-0.1,0.6-0.2l1,0.1C120.3,198.4,120.2,198.5,120,198.6"/>
				<path id="XMLID_107_" class="st23" d="M120.5,198.3l-1-0.1c0.2-0.1,0.4-0.2,0.6-0.4l1,0.1C121,198.1,120.7,198.2,120.5,198.3"/>
			</g>
		</g>
		<g>
			<defs>
				<path id="XMLID_98_" d="M118.9,186.1l1,0.1c1.9,0.1,3.7,2.3,3.6,6c0,1-0.2,1.8-0.4,2.7l-1-0.1c0.3-0.9,0.4-1.7,0.4-2.7
					C122.6,188.5,120.8,186.3,118.9,186.1z"/>
			</defs>
			<use xlink:href="#XMLID_98_"  style="overflow:visible;fill:#BC820D;"/>
			<clipPath id="XMLID_298_">
				<use xlink:href="#XMLID_98_"  style="overflow:visible;"/>
			</clipPath>
			<g class="st35">
				<path id="XMLID_105_" class="st25" d="M123.1,194.9l-1-0.1c0.1-0.3,0.2-0.5,0.2-0.8l1,0.1C123.3,194.4,123.2,194.6,123.1,194.9"
					/>
				<path id="XMLID_104_" class="st25" d="M123.3,194.1l-1-0.1c0.1-0.3,0.1-0.6,0.1-0.8l1,0.1C123.4,193.5,123.4,193.8,123.3,194.1"
					/>
				<path id="XMLID_103_" class="st25" d="M123.5,193.2l-1-0.1c0-0.3,0.1-0.6,0.1-0.8l1,0.1C123.5,192.7,123.5,193,123.5,193.2"/>
				<path id="XMLID_102_" class="st25" d="M123.5,192.4l-1-0.1c0-0.1,0-0.2,0-0.2c0-0.2,0-0.5,0-0.7l1,0.1c0,0.2,0,0.5,0,0.7
					C123.5,192.3,123.5,192.3,123.5,192.4"/>
				<path id="XMLID_101_" class="st25" d="M123.5,191.5l-1-0.1c0-0.3,0-0.6-0.1-0.9l1,0.1C123.5,190.9,123.5,191.2,123.5,191.5"/>
				<path id="XMLID_100_" class="st25" d="M123.4,190.6l-1-0.1c0-0.3-0.1-0.6-0.2-0.9l1,0.1C123.3,190,123.4,190.3,123.4,190.6"/>
				<path id="XMLID_99_" class="st25" d="M123.2,189.7l-1-0.1c-0.6-2.1-1.9-3.4-3.3-3.5l1,0.1C121.3,186.3,122.7,187.5,123.2,189.7"
					/>
			</g>
		</g>
		<g>
			<polygon id="XMLID_97_" class="st25" points="118.8,196.6 117.8,196.5 117.8,191.4 118.8,191.4 			"/>
		</g>
		<g>
			<polygon id="XMLID_96_" class="st23" points="118.8,191.4 117.8,191.4 121.2,191.2 122.2,191.2 			"/>
		</g>
		<g>
			<polygon id="XMLID_95_" class="st28" points="122.2,191.2 122.1,194.9 123.7,197.3 126.1,197.2 126,202.4 122.7,202.6 
				122.7,198.9 121.2,196.5 118.8,196.6 118.8,191.4 			"/>
		</g>
		<g>
			<path id="XMLID_94_" class="st28" d="M119.7,182.1c0.6,0,1.3,0.1,1.9,0.3c2.8,1.1,4.7,5.1,4.6,9.6c0,1.5-0.2,2.8-0.6,4.2
				c-0.5,0-1,0.1-1.6,0.1c-0.3-0.5-0.6-0.9-0.9-1.4c0.3-0.9,0.4-1.7,0.4-2.7c0.1-3.9-1.9-6.1-4-6c-1.3,0.1-2.5,1.1-3.4,3.1
				c-1.9,4.5,0.3,9.5,3.2,9.4c0.6,0,1.2-0.3,1.8-0.7c0.3,0.5,0.6,0.9,0.9,1.4c0,0.8,0,1.6,0,2.4c-0.9,0.6-1.8,1-2.7,1
				c-1.9,0.1-3.8-1.1-5.1-3.4c-1.9-3.4-2-8.4-0.3-12.3C115.3,184,117.4,182.2,119.7,182.1z"/>
		</g>
		<path id="XMLID_93_" class="st29" d="M120.2,182.1l-1-0.1c-0.2,0-0.4,0-0.6,0c0,0-0.1,0-0.1,0c0,0-0.1,0-0.1,0c-0.1,0-0.2,0-0.2,0
			c-0.1,0-0.1,0-0.2,0c-0.1,0-0.2,0-0.2,0.1c0,0-0.1,0-0.1,0c0,0-0.1,0-0.1,0c-0.1,0-0.2,0.1-0.3,0.1c-0.1,0-0.1,0-0.2,0.1
			c-0.1,0-0.2,0.1-0.3,0.1c0,0-0.1,0-0.1,0c0,0,0,0,0,0c0,0-0.1,0-0.1,0.1c-0.1,0-0.2,0.1-0.3,0.2c0,0-0.1,0.1-0.1,0.1
			c-0.1,0.1-0.2,0.1-0.3,0.2c0,0-0.1,0-0.1,0.1c-0.1,0.1-0.2,0.2-0.3,0.3c0,0,0,0,0,0c-0.1,0.1-0.1,0.1-0.2,0.2
			c-0.1,0.1-0.1,0.1-0.2,0.2c-0.1,0.1-0.1,0.1-0.2,0.2c-0.1,0.1-0.1,0.1-0.2,0.2c-0.1,0.1-0.1,0.1-0.2,0.2c-0.1,0.1-0.1,0.1-0.2,0.2
			c-0.1,0.1-0.1,0.2-0.2,0.2c0,0.1-0.1,0.1-0.1,0.2c-0.1,0.1-0.1,0.2-0.2,0.3c0,0.1-0.1,0.1-0.1,0.2c-0.1,0.1-0.1,0.2-0.2,0.3
			c0,0.1-0.1,0.1-0.1,0.2c-0.1,0.1-0.1,0.2-0.2,0.4c0,0.1-0.1,0.1-0.1,0.2c-0.1,0.2-0.2,0.4-0.3,0.6c-0.1,0.2-0.2,0.5-0.3,0.7
			c0,0,0,0,0,0c-0.1,0.3-0.2,0.6-0.3,0.8c0,0.1,0,0.2-0.1,0.2c-0.1,0.2-0.1,0.4-0.2,0.6c0,0,0,0.1,0,0.1c0,0.1,0,0.2-0.1,0.3
			c0,0.1,0,0.2-0.1,0.3c0,0.2-0.1,0.3-0.1,0.5c0,0.1,0,0.2,0,0.3c0,0,0,0,0,0.1c0,0.2-0.1,0.5-0.1,0.7c0,0,0,0.1,0,0.1
			c0,0.2,0,0.4,0,0.6c0,0,0,0.1,0,0.1c0,0.1,0,0.2,0,0.3c0,0.2,0,0.3,0,0.5c0,0.1,0,0.2,0,0.3c0,0.1,0,0.2,0,0.2c0,0.1,0,0.2,0,0.2
			c0,0.1,0,0.2,0,0.3c0,0.2,0,0.3,0,0.5c0,0.1,0,0.2,0,0.3c0,0,0,0.1,0,0.1c0,0.1,0,0.2,0,0.3c0,0.1,0,0.3,0.1,0.4
			c0,0.1,0.1,0.2,0.1,0.4c0,0.1,0.1,0.3,0.1,0.4c0,0,0,0.1,0,0.1c0,0.1,0.1,0.2,0.1,0.3c0,0.1,0.1,0.2,0.1,0.3
			c0,0.1,0.1,0.3,0.1,0.4c0,0.1,0.1,0.2,0.1,0.3c0.1,0.1,0.1,0.3,0.2,0.4c0,0.1,0.1,0.1,0.1,0.2c0.1,0.2,0.2,0.4,0.3,0.6
			c1.1,2.1,2.8,3.2,4.5,3.4l1,0.1c-1.7-0.1-3.4-1.3-4.5-3.4c-0.1-0.2-0.2-0.4-0.3-0.6c0-0.1-0.1-0.1-0.1-0.2
			c-0.1-0.1-0.1-0.3-0.2-0.4c0-0.1-0.1-0.2-0.1-0.3c0-0.1-0.1-0.3-0.1-0.4c0-0.1-0.1-0.2-0.1-0.3c0-0.1-0.1-0.3-0.1-0.4
			c0-0.1-0.1-0.3-0.1-0.4c0-0.1-0.1-0.2-0.1-0.4c0-0.1-0.1-0.3-0.1-0.4c0-0.1,0-0.2-0.1-0.4c0-0.1,0-0.2,0-0.3c0-0.2,0-0.3,0-0.5
			c0-0.1,0-0.2,0-0.3c0-0.2,0-0.3,0-0.5c0-0.1,0-0.2,0-0.3c0-0.2,0-0.3,0-0.5c0-0.1,0-0.2,0-0.3c0-0.2,0-0.4,0-0.7c0,0,0-0.1,0-0.1
			c0-0.3,0-0.5,0.1-0.8c0-0.1,0-0.2,0-0.3c0-0.2,0-0.3,0.1-0.5c0-0.1,0-0.2,0.1-0.3c0-0.1,0.1-0.3,0.1-0.4c0-0.2,0.1-0.4,0.2-0.6
			c0-0.1,0-0.2,0.1-0.2c0.1-0.3,0.2-0.6,0.3-0.8c0.1-0.2,0.2-0.5,0.3-0.7c0.1-0.2,0.2-0.4,0.3-0.6c0-0.1,0.1-0.1,0.1-0.2
			c0.1-0.1,0.1-0.2,0.2-0.4c0-0.1,0.1-0.1,0.1-0.2c0.1-0.1,0.1-0.2,0.2-0.3c0-0.1,0.1-0.1,0.1-0.2c0.1-0.1,0.1-0.2,0.2-0.3
			c0-0.1,0.1-0.1,0.1-0.2c0.1-0.1,0.1-0.2,0.2-0.2c0-0.1,0.1-0.1,0.1-0.2c0.1-0.1,0.1-0.2,0.2-0.2c0.1-0.1,0.1-0.1,0.2-0.2
			c0.1-0.1,0.1-0.1,0.2-0.2c0.1-0.1,0.1-0.1,0.2-0.2c0.1-0.1,0.1-0.1,0.2-0.2c0.1-0.1,0.2-0.2,0.3-0.3c0,0,0.1,0,0.1-0.1
			c0.1-0.1,0.2-0.1,0.3-0.2c0,0,0.1-0.1,0.1-0.1c0.1-0.1,0.2-0.1,0.3-0.2c0,0,0.1,0,0.1-0.1c0,0,0.1,0,0.1-0.1
			c0.1-0.1,0.2-0.1,0.3-0.1c0.1,0,0.1,0,0.2-0.1c0.1,0,0.2-0.1,0.3-0.1c0.1,0,0.1,0,0.2-0.1c0.1,0,0.2,0,0.2-0.1c0.1,0,0.1,0,0.2,0
			c0.1,0,0.2,0,0.2,0c0.1,0,0.2,0,0.2,0C119.8,182,120,182,120.2,182.1L120.2,182.1L120.2,182.1z"/>
	</g>
	<g>
		<g>
			<polygon id="XMLID_92_" class="st23" points="397.8,114 396.8,113.9 399.3,113.8 400.3,113.8 			"/>
		</g>
		<g>
			<defs>
				<path id="XMLID_90_" d="M398.2,112.9l-1-0.1c-0.3-0.5-0.6-0.9-0.9-1.4l1,0.1C397.5,112,397.8,112.5,398.2,112.9z"/>
			</defs>
			<use xlink:href="#XMLID_90_"  style="overflow:visible;fill:#BC820D;"/>
			<clipPath id="XMLID_299_">
				<use xlink:href="#XMLID_90_"  style="overflow:visible;"/>
			</clipPath>
			<g class="st36">
				<path id="XMLID_91_" class="st25" d="M398.2,112.9l-1-0.1c-0.3-0.5-0.6-0.9-0.9-1.4l1,0.1C397.5,112,397.8,112.5,398.2,112.9"/>
			</g>
		</g>
		<g>
			<polygon id="XMLID_89_" class="st23" points="396.8,119.2 395.8,119.2 395.9,115.4 396.9,115.5 			"/>
		</g>
		<g>
			<polygon id="XMLID_88_" class="st25" points="396.9,115.5 395.9,115.4 394.3,113 395.3,113.1 			"/>
		</g>
		<g>
			<defs>
				<path id="XMLID_83_" d="M393.2,115.3l-1-0.1c0.1,0,0.2,0,0.3,0c0.6,0,1.2-0.3,1.8-0.7l1,0.1c-0.6,0.5-1.2,0.7-1.8,0.7
					C393.4,115.3,393.3,115.3,393.2,115.3z"/>
			</defs>
			<use xlink:href="#XMLID_83_"  style="overflow:visible;fill:#D39220;"/>
			<clipPath id="XMLID_300_">
				<use xlink:href="#XMLID_83_"  style="overflow:visible;"/>
			</clipPath>
			<g class="st37">
				<path id="XMLID_87_" class="st23" d="M393.2,115.3l-1-0.1c0.1,0,0.2,0,0.3,0c0,0,0,0,0.1,0l1,0.1c0,0,0,0-0.1,0
					C393.4,115.3,393.3,115.3,393.2,115.3"/>
				<path id="XMLID_86_" class="st23" d="M393.6,115.3l-1-0.1c0.2,0,0.3,0,0.5-0.1l1,0.1C393.9,115.3,393.7,115.3,393.6,115.3"/>
				<path id="XMLID_85_" class="st23" d="M394.1,115.2l-1-0.1c0.2-0.1,0.4-0.1,0.6-0.2l1,0.1C394.5,115.1,394.3,115.2,394.1,115.2"
					/>
				<path id="XMLID_84_" class="st23" d="M394.7,115l-1-0.1c0.2-0.1,0.4-0.2,0.6-0.4l1,0.1C395.1,114.7,394.9,114.9,394.7,115"/>
			</g>
		</g>
		<g>
			<defs>
				<path id="XMLID_75_" d="M393,102.8l1,0.1c1.9,0.1,3.7,2.3,3.6,6c0,1-0.2,1.8-0.4,2.7l-1-0.1c0.3-0.9,0.4-1.7,0.4-2.7
					C396.7,105.1,394.9,102.9,393,102.8z"/>
			</defs>
			<use xlink:href="#XMLID_75_"  style="overflow:visible;fill:#BC820D;"/>
			<clipPath id="XMLID_301_">
				<use xlink:href="#XMLID_75_"  style="overflow:visible;"/>
			</clipPath>
			<g class="st38">
				<path id="XMLID_82_" class="st25" d="M397.2,111.5l-1-0.1c0.1-0.3,0.2-0.5,0.2-0.8l1,0.1C397.4,111,397.3,111.3,397.2,111.5"/>
				<path id="XMLID_81_" class="st25" d="M397.4,110.7l-1-0.1c0.1-0.3,0.1-0.6,0.1-0.8l1,0.1C397.6,110.2,397.5,110.5,397.4,110.7"
					/>
				<path id="XMLID_80_" class="st25" d="M397.6,109.9l-1-0.1c0-0.3,0.1-0.6,0.1-0.8l1,0.1C397.6,109.3,397.6,109.6,397.6,109.9"/>
				<path id="XMLID_79_" class="st25" d="M397.7,109l-1-0.1c0-0.1,0-0.2,0-0.2c0-0.2,0-0.5,0-0.7l1,0.1c0,0.2,0,0.5,0,0.7
					C397.7,108.9,397.7,109,397.7,109"/>
				<path id="XMLID_78_" class="st25" d="M397.6,108.1l-1-0.1c0-0.3,0-0.6-0.1-0.9l1,0.1C397.6,107.5,397.6,107.8,397.6,108.1"/>
				<path id="XMLID_77_" class="st25" d="M397.6,107.3l-1-0.1c0-0.3-0.1-0.6-0.2-0.9l1,0.1C397.5,106.6,397.5,106.9,397.6,107.3"/>
				<path id="XMLID_76_" class="st25" d="M397.4,106.3l-1-0.1c-0.6-2.1-1.9-3.4-3.3-3.5l1,0.1C395.5,102.9,396.8,104.2,397.4,106.3"
					/>
			</g>
		</g>
		<g>
			<polygon id="XMLID_74_" class="st25" points="392.9,113.3 391.9,113.2 392,108 393,108.1 			"/>
		</g>
		<g>
			<polygon id="XMLID_73_" class="st23" points="393,108.1 392,108 395.3,107.8 396.3,107.9 			"/>
		</g>
		<g>
			<polygon id="XMLID_72_" class="st28" points="396.3,107.9 396.3,111.6 397.8,114 400.3,113.8 400.2,119 396.8,119.2 396.9,115.5 
				395.3,113.1 392.9,113.3 393,108.1 			"/>
		</g>
		<g>
			<path id="XMLID_71_" class="st28" d="M393.8,98.7c0.6,0,1.3,0.1,1.9,0.3c2.8,1.1,4.7,5.1,4.6,9.6c0,1.5-0.2,2.8-0.6,4.2
				c-0.5,0-1,0.1-1.6,0.1c-0.3-0.5-0.6-0.9-0.9-1.4c0.3-0.9,0.4-1.7,0.4-2.7c0.1-3.9-1.9-6.1-4-6c-1.3,0.1-2.5,1.1-3.4,3.1
				c-1.9,4.5,0.3,9.5,3.2,9.4c0.6,0,1.2-0.3,1.8-0.7c0.3,0.5,0.6,0.9,0.9,1.4c0,0.8,0,1.6,0,2.4c-0.9,0.6-1.8,1-2.7,1
				c-1.9,0.1-3.8-1.1-5.1-3.4c-1.9-3.4-2-8.4-0.3-12.3C389.4,100.7,391.6,98.8,393.8,98.7z"/>
		</g>
		<path id="XMLID_70_" class="st29" d="M394.3,98.7l-1-0.1c-0.2,0-0.4,0-0.6,0c0,0-0.1,0-0.1,0c0,0-0.1,0-0.1,0c-0.1,0-0.2,0-0.2,0
			c-0.1,0-0.1,0-0.2,0c-0.1,0-0.2,0-0.2,0.1c0,0-0.1,0-0.1,0c0,0-0.1,0-0.1,0c-0.1,0-0.2,0.1-0.3,0.1c-0.1,0-0.1,0-0.2,0.1
			c-0.1,0-0.2,0.1-0.3,0.1c0,0-0.1,0-0.1,0c0,0,0,0,0,0c0,0-0.1,0-0.1,0.1c-0.1,0-0.2,0.1-0.3,0.2c0,0-0.1,0.1-0.1,0.1
			c-0.1,0.1-0.2,0.1-0.3,0.2c0,0-0.1,0-0.1,0.1c-0.1,0.1-0.2,0.2-0.3,0.3c0,0,0,0,0,0c-0.1,0.1-0.1,0.1-0.2,0.2
			c-0.1,0.1-0.1,0.1-0.2,0.2c-0.1,0.1-0.1,0.1-0.2,0.2c-0.1,0.1-0.1,0.1-0.2,0.2c-0.1,0.1-0.1,0.1-0.2,0.2c-0.1,0.1-0.1,0.1-0.2,0.2
			c-0.1,0.1-0.1,0.2-0.2,0.2c0,0.1-0.1,0.1-0.1,0.2c-0.1,0.1-0.1,0.2-0.2,0.3c0,0.1-0.1,0.1-0.1,0.2c-0.1,0.1-0.1,0.2-0.2,0.3
			c0,0.1-0.1,0.1-0.1,0.2c-0.1,0.1-0.1,0.2-0.2,0.4c0,0.1-0.1,0.1-0.1,0.2c-0.1,0.2-0.2,0.4-0.3,0.6c-0.1,0.2-0.2,0.5-0.3,0.7
			c0,0,0,0,0,0c-0.1,0.3-0.2,0.6-0.3,0.8c0,0.1,0,0.2-0.1,0.2c-0.1,0.2-0.1,0.4-0.2,0.6c0,0,0,0.1,0,0.1c0,0.1,0,0.2-0.1,0.3
			c0,0.1,0,0.2-0.1,0.3c0,0.2-0.1,0.3-0.1,0.5c0,0.1,0,0.2,0,0.3c0,0,0,0,0,0.1c0,0.2-0.1,0.5-0.1,0.7c0,0,0,0.1,0,0.1
			c0,0.2,0,0.4,0,0.6c0,0,0,0.1,0,0.1c0,0.1,0,0.2,0,0.3c0,0.2,0,0.3,0,0.5c0,0.1,0,0.2,0,0.3c0,0.1,0,0.2,0,0.2c0,0.1,0,0.2,0,0.2
			c0,0.1,0,0.2,0,0.3c0,0.2,0,0.3,0,0.5c0,0.1,0,0.2,0,0.3c0,0,0,0.1,0,0.1c0,0.1,0,0.2,0,0.3c0,0.1,0,0.3,0.1,0.4
			c0,0.1,0.1,0.2,0.1,0.4c0,0.1,0.1,0.3,0.1,0.4c0,0,0,0.1,0,0.1c0,0.1,0.1,0.2,0.1,0.3c0,0.1,0.1,0.2,0.1,0.3
			c0,0.1,0.1,0.3,0.1,0.4c0,0.1,0.1,0.2,0.1,0.3c0.1,0.1,0.1,0.3,0.2,0.4c0,0.1,0.1,0.1,0.1,0.2c0.1,0.2,0.2,0.4,0.3,0.6
			c1.1,2.1,2.8,3.2,4.5,3.4l1,0.1c-1.7-0.1-3.4-1.3-4.5-3.4c-0.1-0.2-0.2-0.4-0.3-0.6c0-0.1-0.1-0.1-0.1-0.2
			c-0.1-0.1-0.1-0.3-0.2-0.4c0-0.1-0.1-0.2-0.1-0.3c0-0.1-0.1-0.3-0.1-0.4c0-0.1-0.1-0.2-0.1-0.3c0-0.1-0.1-0.3-0.1-0.4
			c0-0.1-0.1-0.3-0.1-0.4c0-0.1-0.1-0.2-0.1-0.4c0-0.1-0.1-0.3-0.1-0.4c0-0.1,0-0.2-0.1-0.4c0-0.1,0-0.2,0-0.3c0-0.2,0-0.3,0-0.5
			c0-0.1,0-0.2,0-0.3c0-0.2,0-0.3,0-0.5c0-0.1,0-0.2,0-0.3c0-0.2,0-0.3,0-0.5c0-0.1,0-0.2,0-0.3c0-0.2,0-0.4,0-0.7c0,0,0-0.1,0-0.1
			c0-0.3,0-0.5,0.1-0.8c0-0.1,0-0.2,0-0.3c0-0.2,0-0.3,0.1-0.5c0-0.1,0-0.2,0.1-0.3c0-0.1,0.1-0.3,0.1-0.4c0-0.2,0.1-0.4,0.2-0.6
			c0-0.1,0-0.2,0.1-0.2c0.1-0.3,0.2-0.6,0.3-0.8c0.1-0.2,0.2-0.5,0.3-0.7c0.1-0.2,0.2-0.4,0.3-0.6c0-0.1,0.1-0.1,0.1-0.2
			c0.1-0.1,0.1-0.2,0.2-0.4c0-0.1,0.1-0.1,0.1-0.2c0.1-0.1,0.1-0.2,0.2-0.3c0-0.1,0.1-0.1,0.1-0.2c0.1-0.1,0.1-0.2,0.2-0.3
			c0-0.1,0.1-0.1,0.1-0.2c0.1-0.1,0.1-0.2,0.2-0.2c0-0.1,0.1-0.1,0.1-0.2c0.1-0.1,0.1-0.2,0.2-0.2c0.1-0.1,0.1-0.1,0.2-0.2
			c0.1-0.1,0.1-0.1,0.2-0.2c0.1-0.1,0.1-0.1,0.2-0.2c0.1-0.1,0.1-0.1,0.2-0.2c0.1-0.1,0.2-0.2,0.3-0.3c0,0,0.1,0,0.1-0.1
			c0.1-0.1,0.2-0.1,0.3-0.2c0,0,0.1-0.1,0.1-0.1c0.1-0.1,0.2-0.1,0.3-0.2c0,0,0.1,0,0.1-0.1c0,0,0.1,0,0.1-0.1
			c0.1-0.1,0.2-0.1,0.3-0.1c0.1,0,0.1,0,0.2-0.1c0.1,0,0.2-0.1,0.3-0.1c0.1,0,0.1,0,0.2-0.1c0.1,0,0.2,0,0.2-0.1c0.1,0,0.1,0,0.2,0
			c0.1,0,0.2,0,0.2,0c0.1,0,0.2,0,0.2,0C394,98.7,394.2,98.7,394.3,98.7L394.3,98.7L394.3,98.7z"/>
	</g>
	<g>
		<g>
			<polygon id="XMLID_69_" class="st23" points="283.4,113.4 282.5,113.3 284.6,113.2 285.5,113.2 			"/>
		</g>
		<g>
			<defs>
				<path id="XMLID_67_" d="M283.7,112.4l-0.9-0.1c-0.3-0.4-0.6-0.8-0.8-1.3l0.9,0.1C283.1,111.6,283.4,112,283.7,112.4z"/>
			</defs>
			<use xlink:href="#XMLID_67_"  style="overflow:visible;fill:#BC820D;"/>
			<clipPath id="XMLID_302_">
				<use xlink:href="#XMLID_67_"  style="overflow:visible;"/>
			</clipPath>
			<g class="st39">
				<path id="XMLID_68_" class="st25" d="M283.7,112.4l-0.9-0.1c-0.3-0.4-0.6-0.8-0.8-1.3l0.9,0.1
					C283.1,111.6,283.4,112,283.7,112.4"/>
			</g>
		</g>
		<g>
			<polygon id="XMLID_66_" class="st23" points="282.5,118 281.6,118 281.6,114.7 282.5,114.7 			"/>
		</g>
		<g>
			<polygon id="XMLID_65_" class="st25" points="282.5,114.7 281.6,114.7 280.2,112.5 281.1,112.6 			"/>
		</g>
		<g>
			<defs>
				<path id="XMLID_60_" d="M279.2,114.5l-0.9-0.1c0.1,0,0.2,0,0.3,0c0.5,0,1-0.2,1.6-0.7l0.9,0.1c-0.5,0.4-1.1,0.6-1.6,0.7
					C279.4,114.5,279.3,114.5,279.2,114.5z"/>
			</defs>
			<use xlink:href="#XMLID_60_"  style="overflow:visible;fill:#D39220;"/>
			<clipPath id="XMLID_303_">
				<use xlink:href="#XMLID_60_"  style="overflow:visible;"/>
			</clipPath>
			<g class="st40">
				<path id="XMLID_64_" class="st23" d="M279.2,114.5l-0.9-0.1c0.1,0,0.2,0,0.3,0c0,0,0,0,0.1,0l0.9,0.1c0,0,0,0-0.1,0
					C279.4,114.5,279.3,114.5,279.2,114.5"/>
				<path id="XMLID_63_" class="st23" d="M279.6,114.5l-0.9-0.1c0.2,0,0.3,0,0.5-0.1l0.9,0.1C279.9,114.5,279.7,114.5,279.6,114.5"
					/>
				<path id="XMLID_62_" class="st23" d="M280,114.5l-0.9-0.1c0.2-0.1,0.3-0.1,0.5-0.2l0.9,0.1C280.4,114.3,280.2,114.4,280,114.5"
					/>
				<path id="XMLID_61_" class="st23" d="M280.5,114.2l-0.9-0.1c0.2-0.1,0.4-0.2,0.5-0.4l0.9,0.1C280.9,114,280.7,114.1,280.5,114.2
					"/>
			</g>
		</g>
		<g>
			<defs>
				<path id="XMLID_52_" d="M279.1,103.3l0.9,0.1c1.7,0.1,3.3,2.1,3.2,5.3c0,0.9-0.1,1.6-0.4,2.4l-0.9-0.1c0.2-0.8,0.4-1.6,0.4-2.4
					C282.4,105.4,280.8,103.5,279.1,103.3z"/>
			</defs>
			<use xlink:href="#XMLID_52_"  style="overflow:visible;fill:#BC820D;"/>
			<clipPath id="XMLID_304_">
				<use xlink:href="#XMLID_52_"  style="overflow:visible;"/>
			</clipPath>
			<g class="st41">
				<path id="XMLID_59_" class="st25" d="M282.8,111.2l-0.9-0.1c0.1-0.2,0.1-0.5,0.2-0.7l0.9,0.1C283,110.7,282.9,110.9,282.8,111.2
					"/>
				<path id="XMLID_58_" class="st25" d="M283,110.5l-0.9-0.1c0.1-0.2,0.1-0.5,0.1-0.8l0.9,0.1C283.1,110,283.1,110.2,283,110.5"/>
				<path id="XMLID_57_" class="st25" d="M283.1,109.7l-0.9-0.1c0-0.2,0-0.5,0.1-0.7l0.9,0.1C283.2,109.2,283.2,109.5,283.1,109.7"
					/>
				<path id="XMLID_56_" class="st25" d="M283.2,108.9l-0.9-0.1c0-0.1,0-0.1,0-0.2c0-0.2,0-0.4,0-0.6l0.9,0.1c0,0.2,0,0.4,0,0.6
					C283.2,108.8,283.2,108.9,283.2,108.9"/>
				<path id="XMLID_55_" class="st25" d="M283.2,108.1l-0.9-0.1c0-0.3,0-0.5-0.1-0.8l0.9,0.1C283.2,107.6,283.2,107.9,283.2,108.1"
					/>
				<path id="XMLID_54_" class="st25" d="M283.1,107.3l-0.9-0.1c0-0.3-0.1-0.6-0.2-0.8l0.9,0.1C283,106.8,283.1,107,283.1,107.3"/>
				<path id="XMLID_53_" class="st25" d="M283,106.5l-0.9-0.1c-0.5-1.9-1.7-3-3-3.1l0.9,0.1C281.2,103.5,282.4,104.6,283,106.5"/>
			</g>
		</g>
		<g>
			<polygon id="XMLID_51_" class="st25" points="279,112.7 278.1,112.6 278.1,108 279,108.1 			"/>
		</g>
		<g>
			<polygon id="XMLID_50_" class="st23" points="279,108.1 278.1,108 281.1,107.8 282,107.9 			"/>
		</g>
		<g>
			<polygon id="XMLID_49_" class="st28" points="282,107.9 282,111.2 283.4,113.4 285.5,113.2 285.5,117.9 282.5,118 282.5,114.7 
				281.1,112.6 279,112.7 279,108.1 			"/>
		</g>
		<g>
			<path id="XMLID_48_" class="st28" d="M279.8,99.7c0.6,0,1.1,0.1,1.7,0.3c2.5,1,4.2,4.5,4.1,8.6c0,1.3-0.2,2.5-0.6,3.7
				c-0.5,0-0.9,0.1-1.4,0.1c-0.3-0.4-0.6-0.8-0.8-1.3c0.2-0.8,0.4-1.6,0.4-2.4c0.1-3.4-1.7-5.5-3.6-5.3c-1.1,0.1-2.3,0.9-3,2.8
				c-1.7,4,0.3,8.5,2.9,8.4c0.5,0,1-0.2,1.6-0.7c0.3,0.4,0.6,0.8,0.8,1.3c0,0.7,0,1.5,0,2.2c-0.8,0.6-1.6,0.9-2.4,0.9
				c-1.7,0.1-3.4-0.9-4.5-3c-1.7-3-1.8-7.5-0.3-11C275.8,101.5,277.8,99.8,279.8,99.7z"/>
		</g>
		<path id="XMLID_47_" class="st29" d="M280.3,99.7l-0.9-0.1c-0.2,0-0.3,0-0.5,0c0,0-0.1,0-0.1,0c0,0-0.1,0-0.1,0
			c-0.1,0-0.1,0-0.2,0c-0.1,0-0.1,0-0.2,0c-0.1,0-0.1,0-0.2,0.1c0,0,0,0-0.1,0c0,0-0.1,0-0.1,0c-0.1,0-0.2,0.1-0.3,0.1
			c0,0-0.1,0-0.1,0.1c-0.1,0-0.2,0.1-0.3,0.1c0,0-0.1,0-0.1,0c0,0,0,0,0,0c0,0-0.1,0-0.1,0.1c-0.1,0-0.2,0.1-0.2,0.1
			c0,0-0.1,0-0.1,0.1c-0.1,0.1-0.2,0.1-0.2,0.2c0,0-0.1,0-0.1,0.1c-0.1,0.1-0.2,0.2-0.3,0.2c0,0,0,0,0,0c-0.1,0.1-0.1,0.1-0.2,0.2
			c-0.1,0-0.1,0.1-0.2,0.1c-0.1,0.1-0.1,0.1-0.2,0.2c0,0.1-0.1,0.1-0.1,0.2c-0.1,0.1-0.1,0.1-0.2,0.2c0,0.1-0.1,0.1-0.1,0.2
			c-0.1,0.1-0.1,0.1-0.2,0.2c0,0.1-0.1,0.1-0.1,0.2c-0.1,0.1-0.1,0.2-0.2,0.2c0,0.1-0.1,0.1-0.1,0.2c-0.1,0.1-0.1,0.2-0.2,0.3
			c0,0.1-0.1,0.1-0.1,0.2c-0.1,0.1-0.1,0.2-0.2,0.3c0,0.1-0.1,0.1-0.1,0.2c-0.1,0.2-0.2,0.3-0.2,0.5c-0.1,0.2-0.2,0.4-0.2,0.6
			c0,0,0,0,0,0c-0.1,0.2-0.2,0.5-0.2,0.8c0,0.1,0,0.1-0.1,0.2c-0.1,0.2-0.1,0.4-0.1,0.6c0,0,0,0.1,0,0.1c0,0.1,0,0.2-0.1,0.3
			c0,0.1,0,0.2-0.1,0.3c0,0.1,0,0.3-0.1,0.4c0,0.1,0,0.2,0,0.3c0,0,0,0,0,0c0,0.2,0,0.4-0.1,0.6c0,0,0,0.1,0,0.1c0,0.2,0,0.3,0,0.5
			c0,0,0,0.1,0,0.1c0,0.1,0,0.2,0,0.2c0,0.2,0,0.3,0,0.5c0,0.1,0,0.2,0,0.3c0,0.1,0,0.1,0,0.2c0,0.1,0,0.1,0,0.2c0,0.1,0,0.2,0,0.3
			c0,0.1,0,0.3,0,0.4c0,0.1,0,0.2,0,0.3c0,0,0,0.1,0,0.1c0,0.1,0,0.2,0,0.2c0,0.1,0,0.3,0.1,0.4c0,0.1,0,0.2,0.1,0.3
			c0,0.1,0.1,0.3,0.1,0.4c0,0,0,0.1,0,0.1c0,0.1,0,0.2,0.1,0.2c0,0.1,0.1,0.2,0.1,0.3c0,0.1,0.1,0.2,0.1,0.4c0,0.1,0.1,0.2,0.1,0.2
			c0.1,0.1,0.1,0.3,0.2,0.4c0,0.1,0.1,0.1,0.1,0.2c0.1,0.2,0.2,0.4,0.3,0.6c1,1.9,2.5,2.9,4,3l0.9,0.1c-1.5-0.1-3-1.1-4-3
			c-0.1-0.2-0.2-0.4-0.3-0.6c0-0.1-0.1-0.1-0.1-0.2c-0.1-0.1-0.1-0.3-0.2-0.4c0-0.1-0.1-0.2-0.1-0.2c0-0.1-0.1-0.2-0.1-0.4
			c0-0.1-0.1-0.2-0.1-0.3c0-0.1-0.1-0.2-0.1-0.4c0-0.1-0.1-0.3-0.1-0.4c0-0.1,0-0.2-0.1-0.3c0-0.1,0-0.3-0.1-0.4
			c0-0.1,0-0.2-0.1-0.3c0-0.1,0-0.2,0-0.3c0-0.1,0-0.3,0-0.4c0-0.1,0-0.2,0-0.3c0-0.1,0-0.3,0-0.4c0-0.1,0-0.2,0-0.3
			c0-0.2,0-0.3,0-0.5c0-0.1,0-0.2,0-0.2c0-0.2,0-0.4,0-0.6c0,0,0-0.1,0-0.1c0-0.2,0-0.5,0.1-0.7c0-0.1,0-0.2,0-0.3
			c0-0.1,0-0.3,0.1-0.4c0-0.1,0-0.2,0.1-0.3c0-0.1,0.1-0.3,0.1-0.4c0-0.2,0.1-0.4,0.1-0.6c0-0.1,0-0.1,0.1-0.2
			c0.1-0.3,0.2-0.5,0.2-0.8c0.1-0.2,0.2-0.4,0.3-0.6c0.1-0.2,0.1-0.3,0.2-0.5c0-0.1,0.1-0.1,0.1-0.1c0.1-0.1,0.1-0.2,0.2-0.3
			c0-0.1,0.1-0.1,0.1-0.2c0.1-0.1,0.1-0.2,0.2-0.3c0-0.1,0.1-0.1,0.1-0.2c0.1-0.1,0.1-0.2,0.2-0.2c0-0.1,0.1-0.1,0.1-0.2
			c0.1-0.1,0.1-0.1,0.2-0.2c0-0.1,0.1-0.1,0.1-0.2c0.1-0.1,0.1-0.1,0.2-0.2c0-0.1,0.1-0.1,0.1-0.2c0.1-0.1,0.1-0.1,0.2-0.2
			c0,0,0.1-0.1,0.2-0.1c0.1-0.1,0.1-0.1,0.2-0.2c0.1-0.1,0.2-0.2,0.3-0.2c0,0,0.1,0,0.1-0.1c0.1-0.1,0.2-0.1,0.2-0.2
			c0,0,0.1,0,0.1-0.1c0.1,0,0.2-0.1,0.2-0.1c0,0,0.1,0,0.1-0.1c0,0,0.1,0,0.1-0.1c0.1,0,0.2-0.1,0.3-0.1c0,0,0.1,0,0.1-0.1
			c0.1,0,0.2-0.1,0.3-0.1c0.1,0,0.1,0,0.2,0c0.1,0,0.1,0,0.2-0.1c0.1,0,0.1,0,0.2,0c0.1,0,0.1,0,0.2,0c0.1,0,0.1,0,0.2,0
			C279.9,99.7,280.1,99.7,280.3,99.7L280.3,99.7L280.3,99.7z"/>
	</g>
	<g>
		<g>
			<polygon id="XMLID_46_" class="st23" points="197.1,45 196.2,44.9 198.4,44.8 199.3,44.8 			"/>
		</g>
		<g>
			<defs>
				<path id="XMLID_44_" d="M197.4,44l-0.9-0.1c-0.3-0.4-0.6-0.8-0.8-1.3l0.9,0.1C196.8,43.2,197.1,43.6,197.4,44z"/>
			</defs>
			<use xlink:href="#XMLID_44_"  style="overflow:visible;fill:#BC820D;"/>
			<clipPath id="XMLID_305_">
				<use xlink:href="#XMLID_44_"  style="overflow:visible;"/>
			</clipPath>
			<g class="st42">
				<path id="XMLID_45_" class="st25" d="M197.4,44l-0.9-0.1c-0.3-0.4-0.6-0.8-0.8-1.3l0.9,0.1C196.8,43.2,197.1,43.6,197.4,44"/>
			</g>
		</g>
		<g>
			<polygon id="XMLID_43_" class="st23" points="196.2,49.7 195.3,49.6 195.3,46.3 196.2,46.3 			"/>
		</g>
		<g>
			<polygon id="XMLID_42_" class="st25" points="196.2,46.3 195.3,46.3 193.9,44.1 194.8,44.2 			"/>
		</g>
		<g>
			<defs>
				<path id="XMLID_37_" d="M192.9,46.2l-0.9-0.1c0.1,0,0.2,0,0.3,0c0.5,0,1-0.2,1.6-0.7l0.9,0.1c-0.5,0.4-1.1,0.6-1.6,0.7
					C193.1,46.2,193,46.2,192.9,46.2z"/>
			</defs>
			<use xlink:href="#XMLID_37_"  style="overflow:visible;fill:#D39220;"/>
			<clipPath id="XMLID_306_">
				<use xlink:href="#XMLID_37_"  style="overflow:visible;"/>
			</clipPath>
			<g class="st43">
				<path id="XMLID_41_" class="st23" d="M192.9,46.2l-0.9-0.1c0.1,0,0.2,0,0.3,0c0,0,0,0,0.1,0l0.9,0.1c0,0,0,0-0.1,0
					C193.1,46.2,193,46.2,192.9,46.2"/>
				<path id="XMLID_40_" class="st23" d="M193.3,46.2l-0.9-0.1c0.2,0,0.3,0,0.5-0.1l0.9,0.1C193.6,46.1,193.4,46.1,193.3,46.2"/>
				<path id="XMLID_39_" class="st23" d="M193.7,46.1l-0.9-0.1c0.2-0.1,0.3-0.1,0.5-0.2l0.9,0.1C194.1,46,193.9,46,193.7,46.1"/>
				<path id="XMLID_38_" class="st23" d="M194.3,45.9l-0.9-0.1c0.2-0.1,0.4-0.2,0.5-0.4l0.9,0.1C194.6,45.6,194.4,45.8,194.3,45.9"
					/>
			</g>
		</g>
		<g>
			<defs>
				<path id="XMLID_29_" d="M192.8,35l0.9,0.1c1.7,0.1,3.3,2.1,3.2,5.3c0,0.9-0.1,1.6-0.4,2.4l-0.9-0.1c0.2-0.8,0.4-1.6,0.4-2.4
					C196.1,37.1,194.5,35.1,192.8,35z"/>
			</defs>
			<use xlink:href="#XMLID_29_"  style="overflow:visible;fill:#BC820D;"/>
			<clipPath id="XMLID_307_">
				<use xlink:href="#XMLID_29_"  style="overflow:visible;"/>
			</clipPath>
			<g class="st44">
				<path id="XMLID_36_" class="st25" d="M196.6,42.8l-0.9-0.1c0.1-0.2,0.1-0.5,0.2-0.7l0.9,0.1C196.7,42.3,196.6,42.5,196.6,42.8"
					/>
				<path id="XMLID_35_" class="st25" d="M196.7,42.1l-0.9-0.1c0.1-0.2,0.1-0.5,0.1-0.8l0.9,0.1C196.8,41.6,196.8,41.8,196.7,42.1"
					/>
				<path id="XMLID_34_" class="st25" d="M196.9,41.3l-0.9-0.1c0-0.2,0-0.5,0.1-0.7l0.9,0.1C196.9,40.8,196.9,41.1,196.9,41.3"/>
				<path id="XMLID_33_" class="st25" d="M196.9,40.6l-0.9-0.1c0-0.1,0-0.1,0-0.2c0-0.2,0-0.4,0-0.6l0.9,0.1c0,0.2,0,0.4,0,0.6
					C196.9,40.4,196.9,40.5,196.9,40.6"/>
				<path id="XMLID_32_" class="st25" d="M196.9,39.8l-0.9-0.1c0-0.3,0-0.5-0.1-0.8l0.9,0.1C196.9,39.2,196.9,39.5,196.9,39.8"/>
				<path id="XMLID_31_" class="st25" d="M196.8,39l-0.9-0.1c0-0.3-0.1-0.6-0.2-0.8l0.9,0.1C196.7,38.4,196.8,38.7,196.8,39"/>
				<path id="XMLID_30_" class="st25" d="M196.7,38.1l-0.9-0.1c-0.5-1.9-1.7-3-3-3.1l0.9,0.1C195,35.1,196.2,36.2,196.7,38.1"/>
			</g>
		</g>
		<g>
			<polygon id="XMLID_28_" class="st25" points="192.7,44.3 191.8,44.3 191.9,39.6 192.7,39.7 			"/>
		</g>
		<g>
			<polygon id="XMLID_27_" class="st23" points="192.7,39.7 191.9,39.6 194.8,39.5 195.7,39.5 			"/>
		</g>
		<g>
			<polygon id="XMLID_26_" class="st28" points="195.7,39.5 195.7,42.8 197.1,45 199.3,44.8 199.2,49.5 196.2,49.7 196.2,46.3 
				194.8,44.2 192.7,44.3 192.7,39.7 			"/>
		</g>
		<g>
			<path id="XMLID_25_" class="st28" d="M193.5,31.3c0.6,0,1.1,0.1,1.7,0.3c2.5,1,4.2,4.5,4.1,8.6c0,1.3-0.2,2.5-0.6,3.7
				c-0.5,0-0.9,0.1-1.4,0.1c-0.3-0.4-0.6-0.8-0.8-1.3c0.2-0.8,0.4-1.6,0.4-2.4c0.1-3.4-1.7-5.5-3.6-5.3c-1.1,0.1-2.3,0.9-3,2.8
				c-1.7,4,0.3,8.5,2.9,8.4c0.5,0,1-0.2,1.6-0.7c0.3,0.4,0.6,0.8,0.8,1.3c0,0.7,0,1.5,0,2.2c-0.8,0.6-1.6,0.9-2.4,0.9
				c-1.7,0.1-3.4-0.9-4.5-3c-1.7-3-1.8-7.5-0.3-11C189.6,33.1,191.5,31.4,193.5,31.3z"/>
		</g>
		<path id="XMLID_24_" class="st29" d="M194,31.3l-0.9-0.1c-0.2,0-0.3,0-0.5,0c0,0-0.1,0-0.1,0c0,0-0.1,0-0.1,0c-0.1,0-0.1,0-0.2,0
			c-0.1,0-0.1,0-0.2,0c-0.1,0-0.1,0-0.2,0.1c0,0,0,0-0.1,0c0,0-0.1,0-0.1,0c-0.1,0-0.2,0.1-0.3,0.1c0,0-0.1,0-0.1,0.1
			c-0.1,0-0.2,0.1-0.3,0.1c0,0-0.1,0-0.1,0c0,0,0,0,0,0c0,0-0.1,0-0.1,0.1c-0.1,0-0.2,0.1-0.2,0.1c0,0-0.1,0-0.1,0.1
			c-0.1,0.1-0.2,0.1-0.2,0.2c0,0-0.1,0-0.1,0.1c-0.1,0.1-0.2,0.2-0.3,0.2c0,0,0,0,0,0c-0.1,0.1-0.1,0.1-0.2,0.2
			c-0.1,0-0.1,0.1-0.2,0.1c-0.1,0.1-0.1,0.1-0.2,0.2c0,0.1-0.1,0.1-0.1,0.2c-0.1,0.1-0.1,0.1-0.2,0.2c0,0.1-0.1,0.1-0.1,0.2
			c-0.1,0.1-0.1,0.1-0.2,0.2c0,0.1-0.1,0.1-0.1,0.2c-0.1,0.1-0.1,0.2-0.2,0.2c0,0.1-0.1,0.1-0.1,0.2c-0.1,0.1-0.1,0.2-0.2,0.3
			c0,0.1-0.1,0.1-0.1,0.2c-0.1,0.1-0.1,0.2-0.2,0.3c0,0.1-0.1,0.1-0.1,0.2c-0.1,0.2-0.2,0.3-0.2,0.5c-0.1,0.2-0.2,0.4-0.2,0.6
			c0,0,0,0,0,0c-0.1,0.2-0.2,0.5-0.2,0.8c0,0.1,0,0.1-0.1,0.2c-0.1,0.2-0.1,0.4-0.1,0.6c0,0,0,0.1,0,0.1c0,0.1,0,0.2-0.1,0.3
			c0,0.1,0,0.2-0.1,0.3c0,0.1,0,0.3-0.1,0.4c0,0.1,0,0.2,0,0.3c0,0,0,0,0,0c0,0.2,0,0.4-0.1,0.6c0,0,0,0.1,0,0.1c0,0.2,0,0.3,0,0.5
			c0,0,0,0.1,0,0.1c0,0.1,0,0.2,0,0.2c0,0.2,0,0.3,0,0.5c0,0.1,0,0.2,0,0.3c0,0.1,0,0.1,0,0.2c0,0.1,0,0.1,0,0.2c0,0.1,0,0.2,0,0.3
			c0,0.1,0,0.3,0,0.4c0,0.1,0,0.2,0,0.3c0,0,0,0.1,0,0.1c0,0.1,0,0.2,0,0.2c0,0.1,0,0.3,0.1,0.4c0,0.1,0,0.2,0.1,0.3
			c0,0.1,0.1,0.3,0.1,0.4c0,0,0,0.1,0,0.1c0,0.1,0,0.2,0.1,0.2c0,0.1,0.1,0.2,0.1,0.3c0,0.1,0.1,0.2,0.1,0.4c0,0.1,0.1,0.2,0.1,0.2
			c0.1,0.1,0.1,0.3,0.2,0.4c0,0.1,0.1,0.1,0.1,0.2c0.1,0.2,0.2,0.4,0.3,0.6c1,1.9,2.5,2.9,4,3l0.9,0.1c-1.5-0.1-3-1.1-4-3
			c-0.1-0.2-0.2-0.4-0.3-0.6c0-0.1-0.1-0.1-0.1-0.2c-0.1-0.1-0.1-0.3-0.2-0.4c0-0.1-0.1-0.2-0.1-0.2c0-0.1-0.1-0.2-0.1-0.4
			c0-0.1-0.1-0.2-0.1-0.3c0-0.1-0.1-0.2-0.1-0.4c0-0.1-0.1-0.3-0.1-0.4c0-0.1,0-0.2-0.1-0.3c0-0.1,0-0.3-0.1-0.4
			c0-0.1,0-0.2-0.1-0.3c0-0.1,0-0.2,0-0.3c0-0.1,0-0.3,0-0.4c0-0.1,0-0.2,0-0.3c0-0.1,0-0.3,0-0.4c0-0.1,0-0.2,0-0.3
			c0-0.2,0-0.3,0-0.5c0-0.1,0-0.2,0-0.2c0-0.2,0-0.4,0-0.6c0,0,0-0.1,0-0.1c0-0.2,0-0.5,0.1-0.7c0-0.1,0-0.2,0-0.3
			c0-0.1,0-0.3,0.1-0.4c0-0.1,0-0.2,0.1-0.3c0-0.1,0.1-0.3,0.1-0.4c0-0.2,0.1-0.4,0.1-0.6c0-0.1,0-0.1,0.1-0.2
			c0.1-0.3,0.2-0.5,0.2-0.8c0.1-0.2,0.2-0.4,0.3-0.6c0.1-0.2,0.1-0.3,0.2-0.5c0-0.1,0.1-0.1,0.1-0.1c0.1-0.1,0.1-0.2,0.2-0.3
			c0-0.1,0.1-0.1,0.1-0.2c0.1-0.1,0.1-0.2,0.2-0.3c0-0.1,0.1-0.1,0.1-0.2c0.1-0.1,0.1-0.2,0.2-0.2c0-0.1,0.1-0.1,0.1-0.2
			c0.1-0.1,0.1-0.1,0.2-0.2c0-0.1,0.1-0.1,0.1-0.2c0.1-0.1,0.1-0.1,0.2-0.2c0-0.1,0.1-0.1,0.1-0.2c0.1-0.1,0.1-0.1,0.2-0.2
			c0,0,0.1-0.1,0.2-0.1c0.1-0.1,0.1-0.1,0.2-0.2c0.1-0.1,0.2-0.2,0.3-0.2c0,0,0.1,0,0.1-0.1c0.1-0.1,0.2-0.1,0.2-0.2
			c0,0,0.1,0,0.1-0.1c0.1,0,0.2-0.1,0.2-0.1c0,0,0.1,0,0.1-0.1c0,0,0.1,0,0.1-0.1c0.1,0,0.2-0.1,0.3-0.1c0,0,0.1,0,0.1-0.1
			c0.1,0,0.2-0.1,0.3-0.1c0.1,0,0.1,0,0.2,0c0.1,0,0.1,0,0.2-0.1c0.1,0,0.1,0,0.2,0c0.1,0,0.1,0,0.2,0c0.1,0,0.1,0,0.2,0
			C193.6,31.3,193.8,31.3,194,31.3L194,31.3L194,31.3z"/>
	</g>
	<g id="XMLID_262_">
		<g id="XMLID_297_">
			<polygon id="XMLID_23_" class="st23" points="202.4,106.8 200.3,106.6 205.2,106.3 207.2,106.5 			"/>
		</g>
		<g id="XMLID_293_">
			<defs>
				<path id="XMLID_21_" d="M203,104.6l-2-0.1c-0.6-0.9-1.2-1.9-1.9-2.8l2,0.1C201.7,102.8,202.4,103.7,203,104.6z"/>
			</defs>
			<use xlink:href="#XMLID_21_"  style="overflow:visible;fill:#BC820D;"/>
			<clipPath id="XMLID_308_">
				<use xlink:href="#XMLID_21_"  style="overflow:visible;"/>
			</clipPath>
			<g id="XMLID_295_" class="st45">
				<path id="XMLID_22_" class="st25" d="M203,104.6l-2-0.1c-0.6-0.9-1.2-1.9-1.9-2.8l2,0.1C201.7,102.8,202.4,103.7,203,104.6"/>
			</g>
		</g>
		<g id="XMLID_291_">
			<polygon id="XMLID_20_" class="st23" points="200.3,117.3 198.3,117.1 198.4,109.7 200.4,109.8 			"/>
		</g>
		<g id="XMLID_289_">
			<polygon id="XMLID_19_" class="st25" points="200.4,109.8 198.4,109.7 195.2,104.9 197.2,105 			"/>
		</g>
		<g id="XMLID_282_">
			<defs>
				<path id="XMLID_14_" d="M193,109.4l-2-0.1c0.2,0,0.4,0,0.6,0c1.1-0.1,2.4-0.5,3.6-1.5l2,0.1c-1.2,1-2.4,1.4-3.6,1.5
					C193.4,109.4,193.2,109.4,193,109.4z"/>
			</defs>
			<use xlink:href="#XMLID_14_"  style="overflow:visible;fill:#D39220;"/>
			<clipPath id="XMLID_309_">
				<use xlink:href="#XMLID_14_"  style="overflow:visible;"/>
			</clipPath>
			<g id="XMLID_284_" class="st46">
				<path id="XMLID_18_" class="st23" d="M193,109.4l-2-0.1c0.2,0,0.4,0,0.6,0c0,0,0.1,0,0.1,0l2,0.1c0,0-0.1,0-0.1,0
					C193.4,109.4,193.2,109.4,193,109.4"/>
				<path id="XMLID_17_" class="st23" d="M193.8,109.4l-2-0.1c0.3,0,0.7-0.1,1-0.2l2,0.1C194.5,109.3,194.1,109.4,193.8,109.4"/>
				<path id="XMLID_16_" class="st23" d="M194.8,109.2l-2-0.1c0.4-0.1,0.8-0.3,1.2-0.5l2,0.1C195.6,109,195.2,109.1,194.8,109.2"/>
				<path id="XMLID_15_" class="st23" d="M196,108.7l-2-0.1c0.4-0.2,0.8-0.5,1.2-0.8l2,0.1C196.8,108.3,196.4,108.5,196,108.7"/>
			</g>
		</g>
		<g id="XMLID_272_">
			<defs>
				<path id="XMLID_6_" d="M192.7,84.2l2,0.1c3.9,0.3,7.4,4.7,7.3,12c0,1.9-0.3,3.7-0.9,5.4l-2-0.1c0.6-1.8,0.8-3.5,0.9-5.4
					C200.1,88.9,196.5,84.5,192.7,84.2z"/>
			</defs>
			<use xlink:href="#XMLID_6_"  style="overflow:visible;fill:#BC820D;"/>
			<clipPath id="XMLID_310_">
				<use xlink:href="#XMLID_6_"  style="overflow:visible;"/>
			</clipPath>
			<g id="XMLID_274_" class="st47">
				<path id="XMLID_13_" class="st25" d="M201.1,101.8l-2-0.1c0.2-0.5,0.3-1.1,0.4-1.6l2,0.1C201.4,100.8,201.3,101.3,201.1,101.8"
					/>
				<path id="XMLID_12_" class="st25" d="M201.6,100.2l-2-0.1c0.1-0.6,0.2-1.1,0.3-1.7l2,0.1C201.8,99.1,201.7,99.7,201.6,100.2"/>
				<path id="XMLID_11_" class="st25" d="M201.8,98.5l-2-0.1c0.1-0.5,0.1-1.1,0.1-1.7l2,0.1C202,97.4,201.9,98,201.8,98.5"/>
				<path id="XMLID_10_" class="st25" d="M202,96.8l-2-0.1c0-0.2,0-0.3,0-0.5c0-0.5,0-0.9,0-1.4l2,0.1c0,0.4,0,0.9,0,1.4
					C202,96.5,202,96.7,202,96.8"/>
				<path id="XMLID_9_" class="st25" d="M202,95l-2-0.1c0-0.6-0.1-1.2-0.2-1.8l2,0.1C201.9,93.8,201.9,94.4,202,95"/>
				<path id="XMLID_8_" class="st25" d="M201.8,93.3l-2-0.1c-0.1-0.7-0.2-1.3-0.4-1.9l2,0.1C201.6,91.9,201.7,92.6,201.8,93.3"/>
				<path id="XMLID_7_" class="st25" d="M201.4,91.3l-2-0.1c-1.1-4.3-3.8-6.8-6.7-7l2,0.1C197.6,84.6,200.3,87.1,201.4,91.3"/>
			</g>
		</g>
		<g id="XMLID_270_">
			<polygon id="XMLID_5_" class="st25" points="192.4,105.3 190.4,105.2 190.6,94.8 192.6,94.9 			"/>
		</g>
		<g id="XMLID_268_">
			<polygon id="XMLID_4_" class="st23" points="192.6,94.9 190.6,94.8 197.3,94.3 199.3,94.5 			"/>
		</g>
		<g id="XMLID_266_">
			<polygon id="XMLID_3_" class="st28" points="199.3,94.5 199.2,101.9 202.4,106.8 207.2,106.5 207,116.9 200.3,117.3 200.4,109.8 
				197.2,105 192.4,105.3 192.6,94.9 			"/>
		</g>
		<g id="XMLID_264_">
			<path id="XMLID_2_" class="st28" d="M194.2,76.1c1.3-0.1,2.6,0.1,3.8,0.6c5.7,2.3,9.4,10.2,9.3,19.4c0,2.9-0.4,5.6-1.2,8.4
				c-1,0.1-2.1,0.1-3.1,0.2c-0.6-0.9-1.2-1.9-1.9-2.8c0.6-1.8,0.8-3.5,0.9-5.4c0.1-7.7-3.9-12.3-8-12c-2.5,0.2-5.1,2.1-6.8,6.3
				c-3.7,9.1,0.6,19.2,6.5,18.8c1.1-0.1,2.4-0.5,3.6-1.5c0.6,0.9,1.2,1.9,1.9,2.8c0,1.6,0,3.3-0.1,4.9c-1.8,1.3-3.6,2-5.4,2.1
				c-3.9,0.2-7.6-2.1-10.2-6.8c-3.7-6.8-4-16.9-0.6-24.8C185.4,80,189.8,76.3,194.2,76.1z"/>
		</g>
		<path id="XMLID_1_" class="st29" d="M195.3,76.1l-2-0.1c-0.4,0-0.8,0-1.1,0c-0.1,0-0.2,0-0.2,0c-0.1,0-0.2,0-0.3,0
			c-0.2,0-0.3,0-0.5,0.1c-0.1,0-0.3,0.1-0.4,0.1c-0.2,0-0.3,0.1-0.5,0.1c-0.1,0-0.1,0-0.2,0c-0.1,0-0.1,0-0.2,0.1
			c-0.2,0.1-0.4,0.1-0.6,0.2c-0.1,0-0.2,0.1-0.3,0.1c-0.2,0.1-0.4,0.2-0.6,0.3c-0.1,0-0.1,0.1-0.2,0.1c0,0,0,0-0.1,0
			c-0.1,0-0.1,0.1-0.2,0.1c-0.2,0.1-0.4,0.2-0.5,0.3c-0.1,0-0.2,0.1-0.2,0.2c-0.2,0.1-0.3,0.2-0.5,0.4c-0.1,0-0.1,0.1-0.2,0.1
			c-0.2,0.2-0.4,0.3-0.7,0.5c0,0,0,0,0,0c-0.1,0.1-0.3,0.2-0.4,0.4c-0.1,0.1-0.2,0.2-0.3,0.3c-0.1,0.1-0.3,0.3-0.4,0.4
			c-0.1,0.1-0.2,0.2-0.3,0.3c-0.1,0.1-0.2,0.3-0.4,0.4c-0.1,0.1-0.2,0.2-0.3,0.4c-0.1,0.2-0.2,0.3-0.4,0.5c-0.1,0.1-0.2,0.2-0.3,0.4
			c-0.1,0.2-0.2,0.4-0.4,0.5c-0.1,0.1-0.2,0.3-0.3,0.4c-0.1,0.2-0.2,0.4-0.4,0.6c-0.1,0.1-0.2,0.3-0.2,0.4c-0.1,0.2-0.2,0.5-0.4,0.7
			c-0.1,0.1-0.1,0.2-0.2,0.3c-0.2,0.4-0.3,0.7-0.5,1.1c-0.2,0.5-0.4,0.9-0.6,1.4c0,0,0,0,0,0c-0.2,0.6-0.4,1.1-0.6,1.7
			c0,0.2-0.1,0.3-0.1,0.5c-0.1,0.4-0.2,0.8-0.3,1.3c0,0.1,0,0.1-0.1,0.2c0,0.2-0.1,0.5-0.1,0.7c0,0.2-0.1,0.4-0.1,0.6
			c-0.1,0.3-0.1,0.7-0.2,1c0,0.2-0.1,0.4-0.1,0.6c0,0,0,0.1,0,0.1c-0.1,0.5-0.1,0.9-0.1,1.4c0,0.1,0,0.1,0,0.2
			c0,0.4-0.1,0.8-0.1,1.1c0,0.1,0,0.1,0,0.2c0,0.2,0,0.3,0,0.5c0,0.3,0,0.7,0,1c0,0.2,0,0.4,0,0.6c0,0.2,0,0.3,0,0.5
			c0,0.2,0,0.3,0,0.5c0,0.2,0,0.4,0,0.6c0,0.3,0.1,0.6,0.1,0.9c0,0.2,0,0.4,0.1,0.6c0,0.1,0,0.2,0,0.2c0,0.2,0.1,0.3,0.1,0.5
			c0,0.3,0.1,0.6,0.2,0.9c0,0.2,0.1,0.5,0.2,0.7c0.1,0.3,0.1,0.6,0.2,0.9c0,0.1,0,0.2,0.1,0.3c0,0.2,0.1,0.4,0.2,0.5
			c0.1,0.2,0.1,0.4,0.2,0.6c0.1,0.3,0.2,0.6,0.3,0.8c0.1,0.2,0.1,0.4,0.2,0.5c0.1,0.3,0.2,0.6,0.4,0.9c0.1,0.1,0.1,0.3,0.2,0.4
			c0.2,0.4,0.4,0.8,0.6,1.3c2.3,4.2,5.6,6.5,9,6.7l2,0.1c-3.5-0.2-6.8-2.6-9-6.7c-0.2-0.4-0.4-0.8-0.6-1.3c-0.1-0.1-0.1-0.3-0.2-0.4
			c-0.1-0.3-0.3-0.6-0.4-0.9c-0.1-0.2-0.1-0.4-0.2-0.5c-0.1-0.3-0.2-0.6-0.3-0.8c-0.1-0.2-0.1-0.4-0.2-0.6c-0.1-0.3-0.2-0.5-0.2-0.8
			c-0.1-0.3-0.1-0.6-0.2-0.9c-0.1-0.2-0.1-0.5-0.2-0.7c-0.1-0.3-0.1-0.6-0.2-0.9c0-0.3-0.1-0.5-0.1-0.8c0-0.2,0-0.4-0.1-0.6
			c0-0.3-0.1-0.6-0.1-0.9c0-0.2,0-0.4,0-0.6c0-0.3,0-0.6,0-0.9c0-0.2,0-0.4,0-0.6c0-0.3,0-0.7,0-1c0-0.2,0-0.3,0-0.5
			c0-0.4,0-0.9,0.1-1.3c0-0.1,0-0.1,0-0.2c0-0.5,0.1-1,0.2-1.5c0-0.2,0.1-0.4,0.1-0.6c0-0.3,0.1-0.7,0.2-1c0-0.2,0.1-0.4,0.1-0.6
			c0.1-0.3,0.1-0.6,0.2-0.9c0.1-0.4,0.2-0.8,0.3-1.3c0-0.2,0.1-0.3,0.1-0.5c0.2-0.6,0.4-1.1,0.6-1.7c0.2-0.5,0.4-1,0.6-1.5
			c0.2-0.4,0.3-0.8,0.5-1.1c0.1-0.1,0.1-0.2,0.2-0.3c0.1-0.2,0.2-0.5,0.4-0.7c0.1-0.1,0.1-0.3,0.2-0.4c0.1-0.2,0.2-0.4,0.4-0.6
			c0.1-0.1,0.2-0.3,0.3-0.4c0.1-0.2,0.2-0.4,0.4-0.5c0.1-0.1,0.2-0.3,0.3-0.4c0.1-0.2,0.2-0.3,0.4-0.5c0.1-0.1,0.2-0.2,0.3-0.4
			c0.1-0.2,0.2-0.3,0.4-0.5c0.1-0.1,0.2-0.2,0.3-0.3c0.1-0.1,0.3-0.3,0.4-0.4c0.1-0.1,0.2-0.2,0.3-0.3c0.1-0.1,0.3-0.2,0.4-0.4
			c0.2-0.2,0.4-0.4,0.7-0.6c0.1,0,0.1-0.1,0.2-0.1c0.2-0.1,0.3-0.2,0.5-0.4c0.1-0.1,0.2-0.1,0.2-0.2c0.2-0.1,0.3-0.2,0.5-0.3
			c0.1,0,0.1-0.1,0.2-0.1c0.1-0.1,0.2-0.1,0.3-0.1c0.2-0.1,0.4-0.2,0.6-0.3c0.1,0,0.2-0.1,0.3-0.1c0.2-0.1,0.4-0.1,0.6-0.2
			c0.1,0,0.2-0.1,0.4-0.1c0.2,0,0.3-0.1,0.5-0.1c0.1,0,0.3-0.1,0.4-0.1c0.2,0,0.3,0,0.5-0.1c0.2,0,0.3,0,0.5-0.1
			C194.6,76,195,76,195.3,76.1L195.3,76.1L195.3,76.1z"/>
	</g>
</g>
</svg>
