<?xml version="1.0" encoding="utf-8"?>
<!-- Generator: Adobe Illustrator 19.0.0, SVG Export Plug-In . SVG Version: 6.00 Build 0)  -->
<svg version="1.1" id="People" xmlns="http://www.w3.org/2000/svg" xmlns:xlink="http://www.w3.org/1999/xlink" x="0px" y="0px"
	 viewBox="0 0 94 112" style="enable-background:new 0 0 94 112;" xml:space="preserve">
<style type="text/css">
	.st0{fill:#E3E4E4;}
	.st1{fill:#EDEDEE;}
	.st2{fill:#C3C3C0;}
	.st3{opacity:0.4;fill:#C3C3C0;}
	.st4{fill:#414141;}
	.st5{fill:#363636;}
	.st6{fill-rule:evenodd;clip-rule:evenodd;fill:#363636;}
</style>
<path class="st0" d="M92.5,78.5L92.5,78.5L50.2,51.7c-0.9-0.6-2-0.9-3.2-0.9c-1.2,0-2.3,0.3-3.2,0.9l-42.5,27
	C0.5,79.4,0,80.2,0,81.2c0,1,0.6,1.9,1.5,2.6l42.8,27.1c0.8,0.4,1.8,0.7,2.8,0.7c1,0,1.9-0.2,2.8-0.7l0,0l42.4-26.9
	c1.1-0.7,1.8-1.7,1.8-2.8C94,80.2,93.4,79.2,92.5,78.5z"/>
<path class="st1" d="M92.5,59.5L92.5,59.5L50.2,32.7c-0.9-0.6-2-0.9-3.2-0.9c-1.2,0-2.3,0.3-3.2,0.9l-42.5,27
	C0.5,60.4,0,61.2,0,62.2c0,1,0.6,1.9,1.5,2.6l42.8,27.1c0.8,0.4,1.8,0.7,2.8,0.7c1,0,1.9-0.2,2.8-0.7l0,0l42.4-26.9
	c1.1-0.7,1.8-1.7,1.8-2.8C94,61.2,93.4,60.2,92.5,59.5z"/>
<path class="st2" d="M92.2,64.9L49.8,91.9l0,0C49,92.3,48,92.5,47,92.5c-1,0-1.9-0.2-2.8-0.7L1.5,64.7C0.6,64,0,63.1,0,62.2
	c0,0,0,8,0,8.6c0,1,0.6,1.9,1.5,2.6l42.8,27.1c0.8,0.4,1.8,0.7,2.8,0.7c1,0,1.9-0.2,2.8-0.7l0,0l42.4-26.9c1.1-0.7,1.8-1.7,1.8-2.8
	c0-0.7,0-8.6,0-8.6C94,63.2,93.3,64.2,92.2,64.9z"/>
<ellipse class="st3" cx="47" cy="73.9" rx="15.7" ry="2.8"/>
<path class="st4" d="M53.4,54.8c-0.2,0-0.5,0-0.7,0C53,54.8,53.2,54.8,53.4,54.8z"/>
<path class="st4" d="M47.9,53.2c-0.2-0.2-0.5-0.4-0.7-0.6C47.4,52.8,47.7,53,47.9,53.2z"/>
<path class="st4" d="M52.5,54.8c-0.3,0-0.5,0-0.8-0.1C52,54.8,52.2,54.8,52.5,54.8z"/>
<path class="st4" d="M50.5,54.5c-0.6-0.2-1.1-0.4-1.7-0.7C49.4,54.2,50,54.4,50.5,54.5z"/>
<path class="st4" d="M48.7,53.7c-0.2-0.1-0.4-0.3-0.6-0.4C48.3,53.5,48.5,53.6,48.7,53.7z"/>
<path class="st4" d="M51.4,54.7c-0.2,0-0.4-0.1-0.6-0.1C51,54.7,51.2,54.7,51.4,54.7z"/>
<path class="st4" d="M54.4,54.6c-0.2,0.1-0.4,0.1-0.6,0.1C54,54.7,54.2,54.6,54.4,54.6z"/>
<path class="st4" d="M51.7,54.8c-0.1,0-0.2,0-0.3,0C51.5,54.7,51.6,54.8,51.7,54.8z"/>
<path class="st4" d="M51.7,54.8c-0.1,0-0.2,0-0.3,0C51.5,54.7,51.6,54.8,51.7,54.8z"/>
<path class="st4" d="M53.7,54.7c-0.1,0-0.2,0-0.3,0C53.5,54.8,53.6,54.7,53.7,54.7z"/>
<path class="st4" d="M53.7,54.7c-0.1,0-0.2,0-0.3,0C53.5,54.8,53.6,54.7,53.7,54.7z"/>
<path class="st4" d="M54.6,54.6l0.7-0.2l0-0.1c-0.3,0.1-0.6,0.2-1,0.3C54.4,54.6,54.5,54.6,54.6,54.6z"/>
<path class="st4" d="M54.6,54.6l0.7-0.2l0-0.1c-0.3,0.1-0.6,0.2-1,0.3C54.4,54.6,54.5,54.6,54.6,54.6z"/>
<path class="st4" d="M52.5,54.8c0.1,0,0.2,0,0.2,0C52.7,54.8,52.6,54.8,52.5,54.8C52.5,54.8,52.5,54.8,52.5,54.8z"/>
<path class="st4" d="M52.5,54.8c0.1,0,0.2,0,0.2,0C52.7,54.8,52.6,54.8,52.5,54.8C52.5,54.8,52.5,54.8,52.5,54.8z"/>
<path class="st4" d="M50.8,54.6c-0.1,0-0.2,0-0.2-0.1C50.6,54.6,50.7,54.6,50.8,54.6z"/>
<path class="st4" d="M50.8,54.6c-0.1,0-0.2,0-0.2-0.1C50.6,54.6,50.7,54.6,50.8,54.6z"/>
<path class="st4" d="M44.3,57.6c-0.1,0-0.1-0.1-0.2-0.1C44.2,57.5,44.2,57.6,44.3,57.6z"/>
<path class="st4" d="M44.3,57.6c-0.1,0-0.1-0.1-0.2-0.1C44.2,57.5,44.2,57.6,44.3,57.6z"/>
<path class="st4" d="M47,52.4l-0.8-0.8c-0.2-0.2-0.3-0.3-0.4-0.5l0,0l1.5,1.5c0,0,0,0,0,0s0,0,0,0L47,52.4z"/>
<path class="st4" d="M47,52.4l-0.8-0.8c-0.2-0.2-0.3-0.3-0.4-0.5l0,0l1.5,1.5c0,0,0,0,0,0s0,0,0,0L47,52.4z"/>
<path class="st4" d="M48.9,53.9c-0.1,0-0.1-0.1-0.2-0.1C48.7,53.8,48.8,53.8,48.9,53.9z"/>
<path class="st4" d="M48.9,53.9c-0.1,0-0.1-0.1-0.2-0.1C48.7,53.8,48.8,53.8,48.9,53.9z"/>
<path class="st4" d="M48.1,53.4c-0.1,0-0.1-0.1-0.2-0.1C48,53.3,48,53.3,48.1,53.4z"/>
<path class="st4" d="M48.1,53.4c-0.1,0-0.1-0.1-0.2-0.1C48,53.3,48,53.3,48.1,53.4z"/>
<g>
	<path class="st5" d="M52.7,41.6H41.3l-5.7-9.8l5.7-9.8h4.8V5.3h1.8V22h4.8l5.7,9.8L52.7,41.6z M42.3,39.9h9.3l4.7-8.1l-4.7-8.1
		h-9.3l-4.7,8.1L42.3,39.9z"/>
	<path class="st6" d="M50.1,8.4c-1.7,1.7-4.4,1.7-6.1,0c-1.7-1.7-1.7-4.4,0-6.1c1.7-1.7,4.4-1.7,6.1,0C51.7,3.9,51.7,6.7,50.1,8.4
		L50.1,8.4z"/>
	<path class="st6" d="M28.2,17.4c0.6,2.3-0.8,4.7-3.1,5.3c-2.3,0.6-4.7-0.7-5.3-3.1c-0.6-2.3,0.7-4.7,3.1-5.3
		C25.2,13.8,27.6,15.1,28.2,17.4L28.2,17.4z"/>
	<path class="st6" d="M25.2,40.9c2.3,0.6,3.7,3,3.1,5.3c-0.6,2.3-3,3.7-5.3,3.1c-2.3-0.6-3.7-3-3.1-5.3
		C20.5,41.6,22.9,40.3,25.2,40.9L25.2,40.9z"/>
	<rect x="46.1" y="40.8" class="st5" width="1.8" height="17.5"/>
	<path class="st6" d="M43.9,55.3c1.7-1.7,4.4-1.7,6.1,0c1.7,1.7,1.7,4.4,0,6.1c-1.7,1.7-4.4,1.7-6.1,0C42.3,59.7,42.3,57,43.9,55.3
		L43.9,55.3z"/>
	<path class="st6" d="M65.8,46.2c-0.6-2.3,0.8-4.7,3.1-5.3c2.3-0.6,4.7,0.7,5.3,3.1c0.6,2.3-0.7,4.7-3.1,5.3
		C68.8,49.9,66.4,48.5,65.8,46.2L65.8,46.2z"/>
	<path class="st6" d="M68.8,22.7c-2.3-0.6-3.7-3-3.1-5.3c0.6-2.3,3-3.7,5.3-3.1c2.3,0.6,3.7,3,3.1,5.3C73.5,22,71.1,23.3,68.8,22.7
		L68.8,22.7z"/>
	<path class="st5" d="M47,4.3L23.2,18.1v27.5L47,59.3l23.8-13.8V18.1L47,4.3z M69.1,43.5l-13.9-8L54.3,37l13.9,8L47,57.3L25.8,45.1
		l13.9-8l-0.9-1.5l-13.9,8V20.1l13.9,8l0.9-1.5l-13.9-8L47,6.3l21.2,12.2l-13.9,8l0.9,1.5l13.9-8V43.5z"/>
</g>
</svg>
