<?xml version="1.0" encoding="utf-8"?>
<!-- Generator: Adobe Illustrator 19.0.0, SVG Export Plug-In . SVG Version: 6.00 Build 0)  -->
<svg version="1.1" id="People" xmlns="http://www.w3.org/2000/svg" xmlns:xlink="http://www.w3.org/1999/xlink" x="0px" y="0px"
	 viewBox="0 0 94 110" style="enable-background:new 0 0 94 110;" xml:space="preserve">
<style type="text/css">
	.st0{fill:#E3E4E4;}
	.st1{fill:#EDEDEE;}
	.st2{fill:#C3C3C0;}
	.st3{opacity:0.4;fill:#C3C3C0;}
	.st4{fill-rule:evenodd;clip-rule:evenodd;fill:#363636;}
	.st5{fill:#363636;}
</style>
<path class="st0" d="M92.5,77L92.5,77L50.2,50.1c-0.9-0.6-2-0.9-3.2-0.9s-2.3,0.3-3.2,0.9L1.4,77.1C0.5,77.8,0,78.6,0,79.6
	c0,1,0.6,1.9,1.5,2.6l42.7,27.1c0.8,0.4,1.8,0.7,2.8,0.7c1,0,1.9-0.2,2.8-0.7l0,0l42.4-26.9c1.1-0.7,1.8-1.7,1.8-2.8
	C94,78.6,93.4,77.7,92.5,77z"/>
<path class="st1" d="M92.5,58L92.5,58L50.2,31.1c-0.9-0.6-2-0.9-3.2-0.9s-2.3,0.3-3.2,0.9L1.4,58.1C0.5,58.8,0,59.6,0,60.6
	c0,1,0.6,1.9,1.5,2.6l42.7,27.1C45.1,90.7,46,91,47,91c1,0,1.9-0.2,2.8-0.7l0,0l42.4-26.9c1.1-0.7,1.8-1.7,1.8-2.8
	C94,59.6,93.4,58.7,92.5,58z"/>
<path class="st2" d="M92.2,63.4L49.8,90.3l0,0C49,90.7,48,91,47,91c-1,0-1.9-0.2-2.8-0.7L1.5,63.2C0.6,62.5,0,61.6,0,60.6
	c0,0,0,8,0,8.6c0,1,0.6,1.9,1.5,2.6l42.7,27.1c0.8,0.4,1.8,0.7,2.8,0.7c1,0,1.9-0.2,2.8-0.7l0,0l42.4-26.9c1.1-0.7,1.8-1.7,1.8-2.8
	c0-0.7,0-8.6,0-8.6C94,61.7,93.3,62.6,92.2,63.4z"/>
<ellipse class="st3" cx="47" cy="72.3" rx="15.7" ry="2.8"/>
<g>
	<path class="st4" d="M27.1,14.7c1.6,1.6,1.6,4.3,0,6c-1.6,1.6-4.3,1.6-6,0c-1.6-1.6-1.6-4.3,0-6C22.8,13,25.4,13,27.1,14.7
		L27.1,14.7z"/>
	<path class="st4" d="M50,27.9c1.6,1.6,1.6,4.3,0,6c-1.6,1.6-4.3,1.6-6,0c-1.6-1.6-1.6-4.3,0-6C45.7,26.2,48.3,26.2,50,27.9L50,27.9
		z"/>
	<path class="st4" d="M72.9,41.1c1.6,1.6,1.6,4.3,0,6c-1.6,1.6-4.3,1.6-6,0c-1.6-1.6-1.6-4.3,0-6C68.6,39.5,71.3,39.5,72.9,41.1
		L72.9,41.1z"/>
	<path class="st4" d="M72.9,14.7c1.6,1.6,1.6,4.3,0,6c-1.6,1.6-4.3,1.6-6,0c-1.6-1.6-1.6-4.3,0-6C68.6,13,71.3,13,72.9,14.7
		L72.9,14.7z"/>
	<path class="st4" d="M50,1.4c1.6,1.6,1.6,4.3,0,6c-1.6,1.6-4.3,1.6-6,0c-1.6-1.6-1.6-4.3,0-6C45.7-0.2,48.3-0.2,50,1.4L50,1.4z"/>
	<path class="st4" d="M50,54.4c1.6,1.6,1.6,4.3,0,6c-1.6,1.6-4.3,1.6-6,0c-1.6-1.6-1.6-4.3,0-6C45.7,52.7,48.3,52.7,50,54.4L50,54.4
		z"/>
	<path class="st4" d="M27.1,41.1c1.6,1.6,1.6,4.3,0,6c-1.6,1.6-4.3,1.6-6,0c-1.6-1.6-1.6-4.3,0-6C22.8,39.5,25.4,39.5,27.1,41.1
		L27.1,41.1z"/>
	<path class="st5" d="M47,3.4L23.2,17.2v27.5L47,58.3l23.8-13.7V17.2L47,3.4z M24.9,19.1l20.3,11.7L24.9,42.6V19.1z M46.2,55.9
		L25.8,44.1l20.4-11.7V55.9z M46.2,29.4L25.8,17.6L46.2,5.9V29.4z M47.9,5.9l20.3,11.7L47.9,29.4V5.9z M47.9,55.9V32.4l20.3,11.7
		L47.9,55.9z M69.1,42.6L48.7,30.9l20.3-11.7V42.6z"/>
</g>
</svg>
