<?xml version="1.0" encoding="utf-8"?>
<!-- Generator: Adobe Illustrator 19.0.0, SVG Export Plug-In . SVG Version: 6.00 Build 0)  -->
<svg version="1.1" id="People" xmlns="http://www.w3.org/2000/svg" xmlns:xlink="http://www.w3.org/1999/xlink" x="0px" y="0px"
	 viewBox="0 0 94 112" style="enable-background:new 0 0 94 112;" xml:space="preserve">
<style type="text/css">
	.st0{fill:#E3E4E4;}
	.st1{fill:#EDEDEE;}
	.st2{fill:#C3C3C0;}
	.st3{opacity:0.4;fill:#C3C3C0;}
	.st4{fill:#363636;}
	.st5{fill-rule:evenodd;clip-rule:evenodd;fill:#363636;}
</style>
<path class="st0" d="M92.5,77.8L92.5,77.8L50.2,51c-0.9-0.6-2-0.9-3.2-0.9s-2.3,0.3-3.2,0.9l-42.5,27C0.5,78.6,0,79.5,0,80.4
	c0,1,0.6,1.9,1.5,2.6l42.8,27.1c0.8,0.4,1.8,0.7,2.8,0.7c1,0,1.9-0.2,2.8-0.7l0,0l42.4-26.9c1.1-0.7,1.8-1.7,1.8-2.8
	C94,79.4,93.4,78.5,92.5,77.8z"/>
<path class="st1" d="M92.5,58.8L92.5,58.8L50.2,32c-0.9-0.6-2-0.9-3.2-0.9s-2.3,0.3-3.2,0.9l-42.5,27C0.5,59.6,0,60.5,0,61.4
	c0,1,0.6,1.9,1.5,2.6l42.8,27.1c0.8,0.4,1.8,0.7,2.8,0.7c1,0,1.9-0.2,2.8-0.7l0,0l42.4-26.9c1.1-0.7,1.8-1.7,1.8-2.8
	C94,60.4,93.4,59.5,92.5,58.8z"/>
<path class="st2" d="M92.2,64.2L49.8,91.2l0,0C49,91.6,48,91.8,47,91.8c-1,0-1.9-0.2-2.8-0.7L1.5,64C0.6,63.3,0,62.4,0,61.4
	c0,0,0,8,0,8.6c0,1,0.6,1.9,1.5,2.6l42.8,27.1c0.8,0.4,1.8,0.7,2.8,0.7c1,0,1.9-0.2,2.8-0.7l0,0l42.4-26.9c1.1-0.7,1.8-1.7,1.8-2.8
	c0-0.7,0-8.6,0-8.6C94,62.5,93.3,63.5,92.2,64.2z"/>
<ellipse class="st3" cx="47" cy="73.2" rx="15.7" ry="2.8"/>
<g>
	<path class="st4" d="M47,59.2L23.2,45.5V18L47,4.3L70.8,18v27.5L47,59.2z M24.9,44.5L47,57.2l22.1-12.7V19L47,6.3L24.9,19V44.5z"/>
	<path class="st5" d="M27.1,15.5c1.6,1.7,1.6,4.3,0,6c-1.6,1.6-4.3,1.6-6,0c-1.6-1.6-1.6-4.3,0-6C22.7,13.9,25.4,13.9,27.1,15.5
		L27.1,15.5z"/>
	<path class="st5" d="M72.9,42c1.6,1.7,1.6,4.3,0,6c-1.6,1.6-4.3,1.6-6,0c-1.6-1.6-1.6-4.3,0-6C68.6,40.3,71.3,40.3,72.9,42L72.9,42
		z"/>
	<path class="st5" d="M72.9,15.5c1.6,1.7,1.6,4.3,0,6c-1.6,1.6-4.3,1.6-6,0c-1.6-1.6-1.6-4.3,0-6C68.6,13.9,71.3,13.9,72.9,15.5
		L72.9,15.5z"/>
	<path class="st5" d="M50,2.3c1.6,1.7,1.6,4.3,0,6c-1.6,1.6-4.3,1.6-6,0c-1.6-1.6-1.6-4.3,0-6C45.7,0.6,48.3,0.6,50,2.3L50,2.3z"/>
	<path class="st5" d="M50,55.2c1.6,1.6,1.6,4.3,0,6c-1.6,1.6-4.3,1.6-6,0c-1.6-1.6-1.6-4.3,0-6C45.7,53.6,48.3,53.6,50,55.2L50,55.2
		z"/>
	<path class="st5" d="M27.1,42c1.6,1.7,1.6,4.3,0,6c-1.6,1.6-4.3,1.6-6,0c-1.6-1.6-1.6-4.3,0-6C22.7,40.3,25.4,40.3,27.1,42L27.1,42
		z"/>
	<path class="st4" d="M47,59.9l-8.5-14.6H22.6l7.9-13.6l-7.9-13.6h15.9L47,3.6l8.5,14.6h15.9l-7.9,13.6l7.9,13.6H55.5L47,59.9z
		 M40.5,45.3L47,56.5l6.5-11.2H40.5z M56.5,43.6h11.9l-6-10.2L56.5,43.6z M39.5,43.6h15.1l6.9-11.9l-6.9-11.9H39.5l-6.9,11.9
		L39.5,43.6z M25.6,43.6h11.9l-6-10.2L25.6,43.6z M25.6,19.9l6,10.2l6-10.2H25.6z M56.5,19.9l6,10.2l6-10.2H56.5z M40.5,18.2h13.1
		L47,7L40.5,18.2z"/>
</g>
</svg>
