<?xml version="1.0" encoding="utf-8"?>
<!-- Generator: Adobe Illustrator 19.0.0, SVG Export Plug-In . SVG Version: 6.00 Build 0)  -->
<svg version="1.1" id="People" xmlns="http://www.w3.org/2000/svg" xmlns:xlink="http://www.w3.org/1999/xlink" x="0px" y="0px"
	 viewBox="0 0 94 102" style="enable-background:new 0 0 94 102;" xml:space="preserve">
<style type="text/css">
	.st0{fill:#E3E4E4;}
	.st1{fill:#EDEDEE;}
	.st2{fill:#C3C3C0;}
	.st3{opacity:0.4;fill:#C3C3C0;}
	.st4{fill-rule:evenodd;clip-rule:evenodd;fill:#363636;}
	.st5{fill:#363636;}
</style>
<path class="st0" d="M92.5,68.6L92.5,68.6L50.2,41.8c-0.9-0.6-2-0.9-3.2-0.9c-1.2,0-2.3,0.3-3.2,0.9l-42.5,27
	C0.5,69.4,0,70.3,0,71.2c0,1,0.6,1.9,1.5,2.6L44.2,101c0.8,0.4,1.8,0.7,2.8,0.7c1,0,1.9-0.2,2.8-0.7l0,0L92.2,74
	c1.1-0.7,1.8-1.7,1.8-2.8C94,70.2,93.4,69.3,92.5,68.6z"/>
<path class="st1" d="M92.5,49.6L92.5,49.6L50.2,22.8c-0.9-0.6-2-0.9-3.2-0.9c-1.2,0-2.3,0.3-3.2,0.9l-42.5,27
	C0.5,50.4,0,51.3,0,52.2c0,1,0.6,1.9,1.5,2.6L44.2,82c0.8,0.4,1.8,0.7,2.8,0.7c1,0,1.9-0.2,2.8-0.7l0,0L92.2,55
	c1.1-0.7,1.8-1.7,1.8-2.8C94,51.2,93.4,50.3,92.5,49.6z"/>
<path class="st2" d="M92.2,55L49.8,82l0,0C49,82.4,48,82.6,47,82.6c-1,0-1.9-0.2-2.8-0.7L1.5,54.8C0.6,54.1,0,53.2,0,52.2
	c0,0,0,8,0,8.6c0,1,0.6,1.9,1.5,2.6l42.8,27.1c0.8,0.4,1.8,0.7,2.8,0.7c1,0,1.9-0.2,2.8-0.7l0,0l42.4-26.9c1.1-0.7,1.8-1.7,1.8-2.8
	c0-0.7,0-8.6,0-8.6C94,53.3,93.3,54.3,92.2,55z"/>
<ellipse class="st3" cx="47" cy="64" rx="15.7" ry="2.8"/>
<g>
	<path class="st4" d="M49.7,53.4c-1.5,1.5-3.9,1.5-5.4,0c-1.5-1.5-1.5-3.9,0-5.4c1.5-1.5,3.9-1.5,5.4,0
		C51.2,49.5,51.2,51.9,49.7,53.4L49.7,53.4z"/>
	<path class="st4" d="M49.7,6.7c-1.5,1.5-3.9,1.5-5.4,0c-1.5-1.5-1.5-3.9,0-5.4c1.5-1.5,3.9-1.5,5.4,0C51.2,2.8,51.2,5.2,49.7,6.7
		L49.7,6.7z"/>
	<path class="st4" d="M73,6.7c-1.5,1.5-3.9,1.5-5.4,0c-1.5-1.5-1.5-3.9,0-5.4c1.5-1.5,3.9-1.5,5.4,0C74.5,2.8,74.5,5.2,73,6.7
		L73,6.7z"/>
	<path class="st5" d="M47,51.8L22.6,27.3L47,2.9l24.4,24.4L47,51.8z M24.7,27.3L47,49.6l22.3-22.3L47,5.1L24.7,27.3z M47,36.7
		c-2.5,0-4.9-1-6.6-2.7c-3.7-3.7-3.7-9.6,0-13.3c1.8-1.8,4.1-2.7,6.6-2.7c2.5,0,4.9,1,6.6,2.7c3.7,3.7,3.7,9.6,0,13.3
		C51.9,35.7,49.5,36.7,47,36.7z M47,19.5c-2.1,0-4.1,0.8-5.5,2.3c-3.1,3.1-3.1,8,0,11.1c1.5,1.5,3.5,2.3,5.5,2.3
		c2.1,0,4.1-0.8,5.5-2.3c3.1-3.1,3.1-8,0-11.1C51.1,20.3,49.1,19.5,47,19.5z"/>
	<path class="st4" d="M26.3,30c-1.5,1.5-3.9,1.5-5.4,0c-1.5-1.5-1.5-3.9,0-5.4c1.5-1.5,3.9-1.5,5.4,0C27.8,26.1,27.8,28.5,26.3,30
		L26.3,30z"/>
	<path class="st4" d="M73,30c-1.5,1.5-3.9,1.5-5.4,0c-1.5-1.5-1.5-3.9,0-5.4c1.5-1.5,3.9-1.5,5.4,0C74.5,26.1,74.5,28.5,73,30L73,30
		z"/>
	<rect x="60.9" y="0.4" transform="matrix(0.707 0.7072 -0.7072 0.707 26.9963 -39.9556)" class="st5" width="1.5" height="24.4"/>
	<path class="st4" d="M26.3,1.3c1.5,1.5,1.5,3.9,0,5.4c-1.5,1.5-3.9,1.5-5.4,0c-1.5-1.5-1.5-3.9,0-5.4C22.4-0.2,24.9-0.2,26.3,1.3
		L26.3,1.3z"/>
	
		<rect x="20.1" y="11.8" transform="matrix(0.7071 0.7071 -0.7071 0.7071 18.3671 -19.1336)" class="st5" width="24.4" height="1.5"/>
	<path class="st4" d="M21,48c1.5-1.5,3.9-1.5,5.4,0c1.5,1.5,1.5,3.9,0,5.4c-1.5,1.5-3.9,1.5-5.4,0C19.5,51.9,19.5,49.5,21,48L21,48z
		"/>
	
		<rect x="31.5" y="29.8" transform="matrix(0.7071 0.7071 -0.7071 0.7071 39.1853 -10.5103)" class="st5" width="1.5" height="24.4"/>
	<path class="st4" d="M67.7,53.4c-1.5-1.5-1.5-3.9,0-5.4c1.5-1.5,3.9-1.5,5.4,0c1.5,1.5,1.5,3.9,0,5.4
		C71.6,54.8,69.1,54.8,67.7,53.4L67.7,53.4z"/>
	
		<rect x="49.5" y="41.3" transform="matrix(0.7071 0.7071 -0.7071 0.7071 47.8072 -31.3283)" class="st5" width="24.4" height="1.5"/>
</g>
</svg>
