<?xml version="1.0" encoding="utf-8"?>
<!-- Generator: Adobe Illustrator 19.0.0, SVG Export Plug-In . SVG Version: 6.00 Build 0)  -->
<svg version="1.1" id="People" xmlns="http://www.w3.org/2000/svg" xmlns:xlink="http://www.w3.org/1999/xlink" x="0px" y="0px"
	 viewBox="0 0 94 100" style="enable-background:new 0 0 94 100;" xml:space="preserve">
<style type="text/css">
	.st0{fill:#E3E4E4;}
	.st1{fill:#EDEDEE;}
	.st2{fill:#C3C3C0;}
	.st3{opacity:0.4;fill:#C3C3C0;}
	.st4{fill:#363636;}
	.st5{fill-rule:evenodd;clip-rule:evenodd;fill:#363636;}
</style>
<path class="st0" d="M92.5,66.7L92.5,66.7L50.2,39.9c-0.9-0.6-2-0.9-3.2-0.9c-1.2,0-2.3,0.3-3.2,0.9l-42.5,27
	C0.5,67.6,0,68.4,0,69.4c0,1,0.6,1.9,1.5,2.6l42.8,27.1c0.8,0.4,1.8,0.7,2.8,0.7c1,0,1.9-0.2,2.8-0.7l0,0l42.4-26.9
	c1.1-0.7,1.8-1.7,1.8-2.8C94,68.4,93.4,67.4,92.5,66.7z"/>
<path class="st1" d="M92.5,47.7L92.5,47.7L50.2,20.9c-0.9-0.6-2-0.9-3.2-0.9c-1.2,0-2.3,0.3-3.2,0.9l-42.5,27
	C0.5,48.5,0,49.4,0,50.4c0,1,0.6,1.9,1.5,2.6l42.8,27.1c0.8,0.4,1.8,0.7,2.8,0.7c1,0,1.9-0.2,2.8-0.7l0,0l42.4-26.9
	c1.1-0.7,1.8-1.7,1.8-2.8C94,49.4,93.4,48.4,92.5,47.7z"/>
<path class="st2" d="M92.2,53.1L49.8,80.1l0,0C49,80.5,48,80.7,47,80.7c-1,0-1.9-0.2-2.8-0.7L1.5,52.9C0.6,52.2,0,51.3,0,50.4
	c0,0,0,8,0,8.6c0,1,0.6,1.9,1.5,2.6l42.8,27.1c0.8,0.4,1.8,0.7,2.8,0.7c1,0,1.9-0.2,2.8-0.7l0,0l42.4-26.9C93.3,61,94,60,94,58.9
	c0-0.7,0-8.6,0-8.6C94,51.4,93.3,52.4,92.2,53.1z"/>
<ellipse class="st3" cx="47" cy="62.1" rx="15.7" ry="2.8"/>
<g>
	<path class="st4" d="M47,46.4l-0.4-0.7H22l12.3-21.3L22,3.1h24.6L47,2.4l0.4,0.7H72L59.7,24.4L72,45.7H47.4L47,46.4z M48.2,44.3
		h21.5L58.9,25.7L48.2,44.3z M24.4,44.3h21.5L35.1,25.7L24.4,44.3z M35.9,24.4L47,43.7l11.1-19.3L47,5.1L35.9,24.4z M48.2,4.4
		L58.9,23L69.6,4.4H48.2z M35.1,23L45.8,4.4H24.4L35.1,23z"/>
	<path class="st5" d="M61.3,22c1.3,1.3,1.3,3.4,0,4.7c-1.3,1.3-3.4,1.3-4.7,0c-1.3-1.3-1.3-3.4,0-4.7C57.9,20.7,60,20.7,61.3,22
		L61.3,22z"/>
	<path class="st5" d="M37.4,22c1.3,1.3,1.3,3.4,0,4.7c-1.3,1.3-3.4,1.3-4.7,0c-1.3-1.3-1.3-3.4,0-4.7C34,20.7,36.1,20.7,37.4,22
		L37.4,22z"/>
	<path class="st5" d="M49.4,42.7c1.3,1.3,1.3,3.4,0,4.7c-1.3,1.3-3.4,1.3-4.7,0c-1.3-1.3-1.3-3.4,0-4.7
		C45.9,41.4,48.1,41.4,49.4,42.7L49.4,42.7z"/>
	<path class="st5" d="M49.4,1.4c1.3,1.3,1.3,3.4,0,4.7c-1.3,1.3-3.4,1.3-4.7,0c-1.3-1.3-1.3-3.4,0-4.7C45.9,0.1,48.1,0.1,49.4,1.4
		L49.4,1.4z"/>
	<path class="st5" d="M25.5,1.4c1.3,1.3,1.3,3.4,0,4.7c-1.3,1.3-3.4,1.3-4.7,0c-1.3-1.3-1.3-3.4,0-4.7C22.1,0.1,24.2,0.1,25.5,1.4
		L25.5,1.4z"/>
	<path class="st5" d="M73.2,1.4c1.3,1.3,1.3,3.4,0,4.7c-1.3,1.3-3.4,1.3-4.7,0c-1.3-1.3-1.3-3.4,0-4.7C69.8,0.1,71.9,0.1,73.2,1.4
		L73.2,1.4z"/>
	<path class="st5" d="M25.5,42.7c1.3,1.3,1.3,3.4,0,4.7c-1.3,1.3-3.4,1.3-4.7,0c-1.3-1.3-1.3-3.4,0-4.7
		C22.1,41.4,24.2,41.4,25.5,42.7L25.5,42.7z"/>
	<path class="st5" d="M73.2,42.7c1.3,1.3,1.3,3.4,0,4.7c-1.3,1.3-3.4,1.3-4.7,0c-1.3-1.3-1.3-3.4,0-4.7
		C69.8,41.4,71.9,41.4,73.2,42.7L73.2,42.7z"/>
	<rect x="35.1" y="23.7" class="st4" width="23.8" height="1.4"/>
</g>
</svg>
