<?xml version="1.0" encoding="utf-8"?>
<!-- Generator: Adobe Illustrator 19.0.0, SVG Export Plug-In . SVG Version: 6.00 Build 0)  -->
<svg version="1.1" id="People" xmlns="http://www.w3.org/2000/svg" xmlns:xlink="http://www.w3.org/1999/xlink" x="0px" y="0px"
	 viewBox="0 0 94 104" style="enable-background:new 0 0 94 104;" xml:space="preserve">
<style type="text/css">
	.st0{fill:#E3E4E4;}
	.st1{fill:#EDEDEE;}
	.st2{fill:#C3C3C0;}
	.st3{opacity:0.4;fill:#C3C3C0;}
	.st4{fill:#363636;}
	.st5{fill-rule:evenodd;clip-rule:evenodd;fill:#363636;}
</style>
<path class="st0" d="M92.5,71L92.5,71L50.3,44.3c-0.9-0.6-2-0.9-3.2-0.9c-1.2,0-2.3,0.3-3.2,0.9L1.5,71.2c-0.8,0.7-1.4,1.5-1.4,2.5
	c0,1,0.6,1.9,1.5,2.6l42.7,27.1c0.8,0.4,1.8,0.7,2.8,0.7c1,0,1.9-0.2,2.8-0.7l0,0l42.4-26.9c1.1-0.7,1.8-1.7,1.8-2.8
	C94,72.7,93.4,71.7,92.5,71z"/>
<path class="st1" d="M92.5,52.1L92.5,52.1L50.3,25.3c-0.9-0.6-2-0.9-3.2-0.9c-1.2,0-2.3,0.3-3.2,0.9L1.5,52.2
	c-0.8,0.7-1.4,1.5-1.4,2.5c0,1,0.6,1.9,1.5,2.6l42.7,27.1c0.8,0.4,1.8,0.7,2.8,0.7c1,0,1.9-0.2,2.8-0.7l0,0l42.4-26.9
	c1.1-0.7,1.8-1.7,1.8-2.8C94,53.7,93.4,52.8,92.5,52.1z"/>
<path class="st2" d="M92.2,57.5L49.9,84.4l0,0C49,84.8,48.1,85,47.1,85c-1,0-1.9-0.2-2.8-0.7L1.6,57.3c-0.9-0.7-1.5-1.6-1.5-2.6
	c0,0,0,8,0,8.6c0,1,0.6,1.9,1.5,2.6l42.7,27.1c0.8,0.4,1.8,0.7,2.8,0.7c1,0,1.9-0.2,2.8-0.7l0,0L92.2,66c1.1-0.7,1.8-1.7,1.8-2.8
	c0-0.7,0-8.6,0-8.6C94,55.8,93.3,56.7,92.2,57.5z"/>
<ellipse class="st3" cx="47.1" cy="66.4" rx="15.7" ry="2.7"/>
<g>
	<path class="st4" d="M61.6,50.3H32.5l13.2-22.9H23.7v-1.5h22.1L32.5,3h29.1L48.4,25.9h22.1v1.5H48.4L61.6,50.3z M35.2,48.8H59
		L47.1,28.2L35.2,48.8z M35.2,4.5l11.9,20.6L59,4.5H35.2z"/>
	<path class="st5" d="M67.8,29.3c-1.5-1.5-1.5-3.8,0-5.3c1.5-1.5,3.8-1.5,5.3,0c1.5,1.5,1.5,3.8,0,5.3
		C71.6,30.7,69.3,30.7,67.8,29.3L67.8,29.3z"/>
	<path class="st5" d="M21.1,29.3c-1.5-1.5-1.5-3.8,0-5.3c1.5-1.5,3.8-1.5,5.3,0c1.5,1.5,1.5,3.8,0,5.3
		C24.9,30.8,22.5,30.7,21.1,29.3L21.1,29.3z"/>
	<path class="st5" d="M31.2,6.4c-1.5-1.5-1.5-3.8,0-5.3c1.5-1.5,3.8-1.5,5.3,0c1.5,1.5,1.5,3.8,0,5.3C35,7.8,32.7,7.8,31.2,6.4
		L31.2,6.4z"/>
	<path class="st5" d="M57.7,6.4c-1.5-1.5-1.5-3.8,0-5.3c1.5-1.5,3.8-1.5,5.3,0c1.5,1.5,1.5,3.8,0,5.3C61.5,7.8,59.1,7.8,57.7,6.4
		L57.7,6.4z"/>
	<path class="st5" d="M31.2,52.1c-1.5-1.5-1.5-3.8,0-5.3c1.5-1.5,3.8-1.5,5.3,0c1.5,1.5,1.5,3.8,0,5.3C35,53.6,32.7,53.6,31.2,52.1
		L31.2,52.1z"/>
	<path class="st5" d="M57.7,52.1c-1.5-1.5-1.5-3.8,0-5.3c1.5-1.5,3.8-1.5,5.3,0c1.5,1.5,1.5,3.8,0,5.3
		C61.5,53.6,59.1,53.6,57.7,52.1L57.7,52.1z"/>
	<path class="st5" d="M44.3,29.1c-1.5-1.5-1.5-3.8,0-5.3c1.5-1.5,3.8-1.5,5.3,0c1.5,1.5,1.5,3.8,0,5.3
		C48.2,30.6,45.8,30.6,44.3,29.1L44.3,29.1z"/>
</g>
</svg>
