<?xml version="1.0" encoding="utf-8"?>
<!-- Generator: Adobe Illustrator 19.0.0, SVG Export Plug-In . SVG Version: 6.00 Build 0)  -->
<svg version="1.1" id="Layer_02" xmlns="http://www.w3.org/2000/svg" xmlns:xlink="http://www.w3.org/1999/xlink" x="0px" y="0px"
	 viewBox="0 0 12 12" style="enable-background:new 0 0 12 12;" xml:space="preserve">
<style type="text/css">
	.st0{fill:#4C4C4C;}
</style>
<path class="st0" d="M3,5.8L0.1,7.6C0,7.7,0,7.8,0.1,7.9C0.8,8.2,3,9.5,4.9,11.9C5,12,5.1,12,5.2,11.9c0.8-1.3,4.2-6.4,6.7-7.3
	C12,4.6,12,4.6,12,4.5c-0.2-0.5-0.7-1.8-0.3-3.9c0-0.1-0.1-0.2-0.2-0.2c-1.1,0.7-4.6,3.2-6.4,8.4C5,8.9,5,8.9,4.9,8.9h0
	c-0.1,0-0.1,0-0.1-0.1c-0.2-0.4-1.2-2.5-1.6-3C3.1,5.7,3,5.7,3,5.8z"/>
</svg>
