<?xml version="1.0" encoding="utf-8"?>
<!-- Generator: Adobe Illustrator 22.0.0, SVG Export Plug-In . SVG Version: 6.00 Build 0)  -->
<svg version="1.1" id="Layer_1" xmlns="http://www.w3.org/2000/svg" xmlns:xlink="http://www.w3.org/1999/xlink" x="0px" y="0px"
	 viewBox="0 0 568 388" style="enable-background:new 0 0 568 388;" xml:space="preserve">
<style type="text/css">
	.st0{fill:#594C35;}
	.st1{fill:#E5E5E5;}
	.st2{fill:#FFD473;}
	.st3{fill:#E0B153;}
	.st4{fill:#EDEDEE;}
	.st5{fill:#6C6F80;}
	.st6{fill:#C3C3C0;}
	.st7{fill:#B2B2B2;}
	.st8{fill:#C9C9C9;}
	.st9{fill:#E2E2E2;}
	.st10{fill:#EBEBEC;}
	.st11{fill:#C3C5C7;}
	.st12{fill:#F2F2F2;}
	.st13{fill:#FEFEFD;}
	.st14{fill:#1F6AAD;}
	.st15{opacity:0.2;}
	.st16{fill:#F1F8F8;}
	.st17{fill:#5B9FDE;}
	.st18{fill:#F7F7F7;}
	.st19{clip-path:url(#SVGID_2_);}
	.st20{clip-path:url(#SVGID_4_);}
	.st21{enable-background:new    ;}
	.st22{clip-path:url(#SVGID_6_);enable-background:new    ;}
	.st23{fill:#6A5417;}
	.st24{fill:#665117;}
	.st25{fill:#8E701F;}
	.st26{fill:#7A5D1B;}
	.st27{fill:#CCA22E;}
	.st28{display:none;opacity:0.6;}
	.st29{display:inline;}
	.st30{opacity:0.5;}
	.st31{fill:#77C3E8;}
	.st32{fill:#AFAFAF;}
	.st33{fill:#CE7D13;}
	.st34{fill:#FFC50D;}
	.st35{opacity:0.43;}
	.st36{fill:#FFFC8F;}
	.st37{fill:#F19D00;}
	.st38{fill:#FFD400;}
	.st39{fill:#FFD41F;}
	.st40{fill:#FFFFFF;}
	.st41{fill:#E09500;}
	.st42{opacity:0.6;enable-background:new    ;}
	.st43{font-family:'MicrosoftYaHeiUILight';}
	.st44{font-size:12.6522px;}
	.st45{font-size:12px;}
</style>
<g>
	<polygon class="st0" points="284.7,193.2 67.8,193.2 67.8,191.2 282.7,191.2 282.7,161 284.7,161 	"/>
</g>
<g>
	<polygon class="st0" points="499.7,193.2 282.7,193.2 282.7,161 284.7,161 284.7,191.2 499.7,191.2 	"/>
</g>
<g>
	<rect x="66.8" y="191.3" class="st0" width="2" height="51.7"/>
</g>
<g>
	<rect x="282.7" y="192.2" class="st0" width="2" height="50.8"/>
</g>
<g>
	<rect x="498.7" y="191.3" class="st0" width="2" height="51.7"/>
</g>
<g>
	<path class="st1" d="M348.6,126.7L348.6,126.7l-60.3-38.3c-1.3-0.8-2.9-1.3-4.6-1.3s-3.2,0.5-4.6,1.3l-60.6,38.5
		c-1.2,1-1.9,2.2-1.9,3.5c0,1.4,0.8,2.7,2.1,3.7l61,38.7c1.2,0.6,2.5,0.9,4,0.9c1.4,0,2.8-0.3,4-0.9l0,0l60.6-38.4
		c1.6-1,2.5-2.4,2.5-4C350.8,129,350,127.7,348.6,126.7z"/>
</g>
<g>
	<path class="st1" d="M564.6,319L564.6,319l-60.3-38.3c-1.3-0.8-2.9-1.3-4.6-1.3s-3.2,0.5-4.6,1.3l-60.6,38.5
		c-1.2,1-1.9,2.2-1.9,3.5c0,1.4,0.8,2.7,2.1,3.7l61,38.7c1.2,0.6,2.5,0.9,4,0.9c1.4,0,2.8-0.3,4-0.9l0,0l60.6-38.4
		c1.6-1,2.5-2.4,2.5-4C566.7,321.3,565.9,320,564.6,319z"/>
</g>
<g>
	<path class="st1" d="M348.6,319L348.6,319l-60.3-38.3c-1.3-0.8-2.9-1.3-4.6-1.3s-3.2,0.5-4.6,1.3l-60.6,38.5
		c-1.2,1-1.9,2.2-1.9,3.5c0,1.4,0.8,2.7,2.1,3.7l61,38.7c1.2,0.6,2.5,0.9,4,0.9c1.4,0,2.8-0.3,4-0.9l0,0l60.6-38.4
		c1.6-1,2.5-2.4,2.5-4C350.8,321.3,350,320,348.6,319z"/>
</g>
<g>
	<path class="st1" d="M132.7,319L132.7,319l-60.3-38.3c-1.3-0.8-2.9-1.3-4.6-1.3s-3.2,0.5-4.6,1.3L2.7,319.2c-1.2,1-1.9,2.2-1.9,3.5
		c0,1.4,0.8,2.7,2.1,3.7l61,38.7c1.2,0.6,2.5,0.9,4,0.9c1.4,0,2.8-0.3,4-0.9l0,0l60.6-38.4c1.6-1,2.5-2.4,2.5-4
		C134.9,321.3,134.1,320,132.7,319z"/>
</g>
<g>
	<path class="st2" d="M132.7,291.2L132.7,291.2l-60.3-38.3c-1.3-0.8-2.9-1.3-4.6-1.3s-3.2,0.5-4.6,1.3L2.7,291.4
		c-1.2,1-1.9,2.2-1.9,3.5c0,1.4,0.8,2.7,2.1,3.7l61,38.7c1.2,0.6,2.5,0.9,4,0.9c1.4,0,2.8-0.3,4-0.9l0,0l60.6-38.4
		c1.6-1,2.5-2.4,2.5-4C134.9,293.5,134.1,292.2,132.7,291.2z"/>
</g>
<g>
	<path class="st3" d="M132.4,298.9l-60.6,38.4l0,0c-1.2,0.6-2.5,0.9-4,0.9c-1.4,0-2.8-0.3-4-0.9l-61-38.7c-1.3-1-2.1-2.3-2.1-3.7
		c0,0,0,11.4,0,12.2c0,1.4,0.8,2.7,2.1,3.7l61,38.7c1.2,0.6,2.5,0.9,4,0.9c1.4,0,2.8-0.3,4-0.9l0,0l60.6-38.4c1.6-1,2.5-2.4,2.5-4
		c0-1,0-12.2,0-12.2C134.9,296.5,133.9,297.9,132.4,298.9z"/>
</g>
<g>
	<path class="st4" d="M132.7,268.3L132.7,268.3L72.4,230c-1.3-0.8-2.9-1.3-4.6-1.3s-3.2,0.5-4.6,1.3L2.7,268.5
		c-1.2,1-1.9,2.2-1.9,3.5c0,1.4,0.8,2.7,2.1,3.7l61,38.7c1.2,0.6,2.5,0.9,4,0.9c1.4,0,2.8-0.3,4-0.9l0,0l60.6-38.4
		c1.6-1,2.5-2.4,2.5-4C134.9,270.6,134.1,269.3,132.7,268.3z"/>
</g>
<g>
	<path class="st5" d="M132.4,276l-60.6,38.4l0,0c-1.2,0.6-2.5,0.9-4,0.9c-1.4,0-2.8-0.3-4-0.9l-61-38.7c-1.3-1-2.1-2.3-2.1-3.7
		c0,0,0,11.4,0,12.2c0,1.4,0.8,2.7,2.1,3.7l61,38.7c1.2,0.6,2.5,0.9,4,0.9c1.4,0,2.8-0.3,4-0.9l0,0l60.6-38.4c1.6-1,2.5-2.4,2.5-4
		c0-1,0-12.2,0-12.2C134.9,273.6,133.9,275,132.4,276z"/>
</g>
<g>
	<path class="st5" d="M132.4,276l-60.6,38.4l0,0c-1.2,0.6-2.5,0.9-4,0.9c-1.4,0-2.8-0.3-4-0.9l-61-38.7c-1.3-1-2.1-2.3-2.1-3.7
		c0,0,0,11.4,0,12.2c0,1.4,0.8,2.7,2.1,3.7l61,38.7c1.2,0.6,2.5,0.9,4,0.9c1.4,0,2.8-0.3,4-0.9l0,0l60.6-38.4c1.6-1,2.5-2.4,2.5-4
		c0-1,0-12.2,0-12.2C134.9,273.6,133.9,275,132.4,276z"/>
</g>
<g>
	<path class="st6" d="M132.4,276l-60.6,38.4l0,0c-1.2,0.6-2.5,0.9-4,0.9c-1.4,0-2.8-0.3-4-0.9l-61-38.7c-1.3-1-2.1-2.3-2.1-3.7
		c0,0,0,11.4,0,12.2c0,1.4,0.8,2.7,2.1,3.7l61,38.7c1.2,0.6,2.5,0.9,4,0.9c1.4,0,2.8-0.3,4-0.9l0,0l60.6-38.4c1.6-1,2.5-2.4,2.5-4
		c0-1,0-12.2,0-12.2C134.9,273.6,133.9,275,132.4,276z"/>
</g>
<g>
	<path class="st2" d="M348.6,291.2L348.6,291.2l-60.3-38.3c-1.3-0.8-2.9-1.3-4.6-1.3s-3.2,0.5-4.6,1.3l-60.6,38.5
		c-1.2,1-1.9,2.2-1.9,3.5c0,1.4,0.8,2.7,2.1,3.7l61,38.7c1.2,0.6,2.5,0.9,4,0.9c1.4,0,2.8-0.3,4-0.9l0,0l60.6-38.4
		c1.6-1,2.5-2.4,2.5-4C350.8,293.5,350,292.2,348.6,291.2z"/>
</g>
<g>
	<path class="st3" d="M348.3,298.9l-60.6,38.4l0,0c-1.2,0.6-2.5,0.9-4,0.9c-1.4,0-2.8-0.3-4-0.9l-61-38.7c-1.3-1-2.1-2.3-2.1-3.7
		c0,0,0,11.4,0,12.2c0,1.4,0.8,2.7,2.1,3.7l61,38.7c1.2,0.6,2.5,0.9,4,0.9c1.4,0,2.8-0.3,4-0.9l0,0l60.6-38.4c1.6-1,2.5-2.4,2.5-4
		c0-1,0-12.2,0-12.2C350.8,296.5,349.9,297.9,348.3,298.9z"/>
</g>
<g>
	<path class="st4" d="M348.6,268.3L348.6,268.3L288.3,230c-1.3-0.8-2.9-1.3-4.6-1.3s-3.2,0.5-4.6,1.3l-60.6,38.5
		c-1.2,1-1.9,2.2-1.9,3.5c0,1.4,0.8,2.7,2.1,3.7l61,38.7c1.2,0.6,2.5,0.9,4,0.9c1.4,0,2.8-0.3,4-0.9l0,0l60.6-38.4
		c1.6-1,2.5-2.4,2.5-4C350.8,270.6,350,269.3,348.6,268.3z"/>
</g>
<g>
	<path class="st5" d="M348.3,276l-60.6,38.4l0,0c-1.2,0.6-2.5,0.9-4,0.9c-1.4,0-2.8-0.3-4-0.9l-61-38.7c-1.3-1-2.1-2.3-2.1-3.7
		c0,0,0,11.4,0,12.2c0,1.4,0.8,2.7,2.1,3.7l61,38.7c1.2,0.6,2.5,0.9,4,0.9c1.4,0,2.8-0.3,4-0.9l0,0l60.6-38.4c1.6-1,2.5-2.4,2.5-4
		c0-1,0-12.2,0-12.2C350.8,273.6,349.9,275,348.3,276z"/>
</g>
<g>
	<path class="st5" d="M348.3,276l-60.6,38.4l0,0c-1.2,0.6-2.5,0.9-4,0.9c-1.4,0-2.8-0.3-4-0.9l-61-38.7c-1.3-1-2.1-2.3-2.1-3.7
		c0,0,0,11.4,0,12.2c0,1.4,0.8,2.7,2.1,3.7l61,38.7c1.2,0.6,2.5,0.9,4,0.9c1.4,0,2.8-0.3,4-0.9l0,0l60.6-38.4c1.6-1,2.5-2.4,2.5-4
		c0-1,0-12.2,0-12.2C350.8,273.6,349.9,275,348.3,276z"/>
</g>
<g>
	<path class="st6" d="M348.3,276l-60.6,38.4l0,0c-1.2,0.6-2.5,0.9-4,0.9c-1.4,0-2.8-0.3-4-0.9l-61-38.7c-1.3-1-2.1-2.3-2.1-3.7
		c0,0,0,11.4,0,12.2c0,1.4,0.8,2.7,2.1,3.7l61,38.7c1.2,0.6,2.5,0.9,4,0.9c1.4,0,2.8-0.3,4-0.9l0,0l60.6-38.4c1.6-1,2.5-2.4,2.5-4
		c0-1,0-12.2,0-12.2C350.8,273.6,349.9,275,348.3,276z"/>
</g>
<g>
	<path class="st2" d="M564.6,291.2L564.6,291.2l-60.3-38.3c-1.3-0.8-2.9-1.3-4.6-1.3s-3.2,0.5-4.6,1.3l-60.6,38.5
		c-1.2,1-1.9,2.2-1.9,3.5c0,1.4,0.8,2.7,2.1,3.7l61,38.7c1.2,0.6,2.5,0.9,4,0.9c1.4,0,2.8-0.3,4-0.9l0,0l60.6-38.4
		c1.6-1,2.5-2.4,2.5-4C566.7,293.5,565.9,292.2,564.6,291.2z"/>
</g>
<g>
	<path class="st3" d="M564.2,298.9l-60.6,38.4l0,0c-1.2,0.6-2.5,0.9-4,0.9c-1.4,0-2.8-0.3-4-0.9l-61-38.7c-1.3-1-2.1-2.3-2.1-3.7
		c0,0,0,11.4,0,12.2c0,1.4,0.8,2.7,2.1,3.7l61,38.7c1.2,0.6,2.5,0.9,4,0.9c1.4,0,2.8-0.3,4-0.9l0,0l60.6-38.4c1.6-1,2.5-2.4,2.5-4
		c0-1,0-12.2,0-12.2C566.7,296.5,565.8,297.9,564.2,298.9z"/>
</g>
<g>
	<path class="st4" d="M564.6,268.3L564.6,268.3L504.3,230c-1.3-0.8-2.9-1.3-4.6-1.3s-3.2,0.5-4.6,1.3l-60.6,38.5
		c-1.2,1-1.9,2.2-1.9,3.5c0,1.4,0.8,2.7,2.1,3.7l61,38.7c1.2,0.6,2.5,0.9,4,0.9c1.4,0,2.8-0.3,4-0.9l0,0l60.6-38.4
		c1.6-1,2.5-2.4,2.5-4C566.7,270.6,565.9,269.3,564.6,268.3z"/>
</g>
<g>
	<path class="st5" d="M564.2,276l-60.6,38.4l0,0c-1.2,0.6-2.5,0.9-4,0.9c-1.4,0-2.8-0.3-4-0.9l-61-38.7c-1.3-1-2.1-2.3-2.1-3.7
		c0,0,0,11.4,0,12.2c0,1.4,0.8,2.7,2.1,3.7l61,38.7c1.2,0.6,2.5,0.9,4,0.9c1.4,0,2.8-0.3,4-0.9l0,0l60.6-38.4c1.6-1,2.5-2.4,2.5-4
		c0-1,0-12.2,0-12.2C566.7,273.6,565.8,275,564.2,276z"/>
</g>
<g>
	<path class="st5" d="M564.2,276l-60.6,38.4l0,0c-1.2,0.6-2.5,0.9-4,0.9c-1.4,0-2.8-0.3-4-0.9l-61-38.7c-1.3-1-2.1-2.3-2.1-3.7
		c0,0,0,11.4,0,12.2c0,1.4,0.8,2.7,2.1,3.7l61,38.7c1.2,0.6,2.5,0.9,4,0.9c1.4,0,2.8-0.3,4-0.9l0,0l60.6-38.4c1.6-1,2.5-2.4,2.5-4
		c0-1,0-12.2,0-12.2C566.7,273.6,565.8,275,564.2,276z"/>
</g>
<g>
	<path class="st6" d="M564.2,276l-60.6,38.4l0,0c-1.2,0.6-2.5,0.9-4,0.9c-1.4,0-2.8-0.3-4-0.9l-61-38.7c-1.3-1-2.1-2.3-2.1-3.7
		c0,0,0,11.4,0,12.2c0,1.4,0.8,2.7,2.1,3.7l61,38.7c1.2,0.6,2.5,0.9,4,0.9c1.4,0,2.8-0.3,4-0.9l0,0l60.6-38.4c1.6-1,2.5-2.4,2.5-4
		c0-1,0-12.2,0-12.2C566.7,273.6,565.8,275,564.2,276z"/>
</g>
<g>
	<path class="st2" d="M348.6,101.7L348.6,101.7l-60.3-38.3c-1.3-0.8-2.9-1.3-4.6-1.3s-3.2,0.5-4.6,1.3l-60.6,38.5
		c-1.2,1-1.9,2.2-1.9,3.5c0,1.4,0.8,2.7,2.1,3.7l61,38.7c1.2,0.6,2.5,0.9,4,0.9c1.4,0,2.8-0.3,4-0.9l0,0l60.6-38.4
		c1.6-1,2.5-2.4,2.5-4C350.8,104,350,102.7,348.6,101.7z"/>
</g>
<g>
	<path class="st3" d="M348.3,109.4l-60.6,38.4l0,0c-1.2,0.6-2.5,0.9-4,0.9c-1.4,0-2.8-0.3-4-0.9l-61-38.7c-1.3-1-2.1-2.3-2.1-3.7
		c0,0,0,11.4,0,12.2c0,1.4,0.8,2.7,2.1,3.7l61,38.7c1.2,0.6,2.5,0.9,4,0.9c1.4,0,2.8-0.3,4-0.9l0,0l60.6-38.4c1.6-1,2.5-2.4,2.5-4
		c0-1,0-12.2,0-12.2C350.8,107,349.9,108.4,348.3,109.4z"/>
</g>
<g>
	<path class="st4" d="M348.6,78.7L348.6,78.7l-60.3-38.3c-1.3-0.8-2.9-1.3-4.6-1.3s-3.2,0.5-4.6,1.3l-60.6,38.5
		c-1.2,1-1.9,2.2-1.9,3.5c0,1.4,0.8,2.7,2.1,3.7l61,38.7c1.2,0.6,2.5,0.9,4,0.9c1.4,0,2.8-0.3,4-0.9l0,0l60.6-38.4
		c1.6-1,2.5-2.4,2.5-4C350.8,81.1,350,79.7,348.6,78.7z"/>
</g>
<g>
	<path class="st5" d="M348.3,86.5l-60.6,38.4l0,0c-1.2,0.6-2.5,0.9-4,0.9c-1.4,0-2.8-0.3-4-0.9l-61-38.7c-1.3-1-2.1-2.3-2.1-3.7
		c0,0,0,11.4,0,12.2c0,1.4,0.8,2.7,2.1,3.7l61,38.7c1.2,0.6,2.5,0.9,4,0.9c1.4,0,2.8-0.3,4-0.9l0,0l60.6-38.4c1.6-1,2.5-2.4,2.5-4
		c0-1,0-12.2,0-12.2C350.8,84,349.9,85.4,348.3,86.5z"/>
</g>
<g>
	<path class="st5" d="M348.3,86.5l-60.6,38.4l0,0c-1.2,0.6-2.5,0.9-4,0.9c-1.4,0-2.8-0.3-4-0.9l-61-38.7c-1.3-1-2.1-2.3-2.1-3.7
		c0,0,0,11.4,0,12.2c0,1.4,0.8,2.7,2.1,3.7l61,38.7c1.2,0.6,2.5,0.9,4,0.9c1.4,0,2.8-0.3,4-0.9l0,0l60.6-38.4c1.6-1,2.5-2.4,2.5-4
		c0-1,0-12.2,0-12.2C350.8,84,349.9,85.4,348.3,86.5z"/>
</g>
<g>
	<path class="st6" d="M348.3,86.5l-60.6,38.4l0,0c-1.2,0.6-2.5,0.9-4,0.9c-1.4,0-2.8-0.3-4-0.9l-61-38.7c-1.3-1-2.1-2.3-2.1-3.7
		c0,0,0,11.4,0,12.2c0,1.4,0.8,2.7,2.1,3.7l61,38.7c1.2,0.6,2.5,0.9,4,0.9c1.4,0,2.8-0.3,4-0.9l0,0l60.6-38.4c1.6-1,2.5-2.4,2.5-4
		c0-1,0-12.2,0-12.2C350.8,84,349.9,85.4,348.3,86.5z"/>
</g>
<g>
	<g>
		<g id="XMLID_4_">
			<polygon class="st7" points="320.6,87.7 293.9,103.2 293.9,31.5 320.6,16.1 			"/>
		</g>
		<g id="XMLID_3_">
			<polygon class="st7" points="293.9,103.2 267.1,87.7 267.1,16.1 293.9,31.5 			"/>
		</g>
		<g id="XMLID_2_">
			<polygon class="st7" points="282.2,105.4 246.9,85.1 246.9,31.9 282.2,52.2 			"/>
		</g>
		<g id="XMLID_1_">
			<polygon class="st7" points="282.2,105.4 290,100.9 290,47.7 282.2,52.2 			"/>
		</g>
	</g>
	<g id="XMLID_88_">
		<polygon class="st8" points="320.6,87.1 293.9,102.5 293.9,30.9 320.6,15.4 		"/>
	</g>
	<g id="XMLID_87_">
		<polygon class="st9" points="293.9,102.5 267.1,87.1 267.1,15.4 293.9,30.9 		"/>
	</g>
	<g id="XMLID_86_">
		<polygon class="st10" points="282.2,104.8 246.9,84.4 246.9,30.9 282.2,51.3 		"/>
	</g>
	<g id="XMLID_85_">
		<polygon class="st11" points="282.2,104.8 290,100.3 290,46.7 282.2,51.3 		"/>
	</g>
	<g id="XMLID_84_">
		<polygon class="st12" points="267.1,33.5 267.1,33.5 267.1,19.2 254.7,26.4 246.9,30.9 282.2,51.3 290,46.7 		"/>
	</g>
	<g id="XMLID_83_">
		<polygon class="st13" points="320.6,15.4 293.9,30.9 267.1,15.4 293.9,0 		"/>
	</g>
	<g id="XMLID_82_">
		<polygon class="st13" points="318.6,48 295.9,61.2 295.8,35 318.6,21.9 		"/>
	</g>
	<g id="XMLID_81_">
		<polygon class="st14" points="318.6,85.3 295.9,98.5 295.8,63.9 318.6,50.7 		"/>
	</g>
	<g id="XMLID_80_">
		<polygon class="st8" points="295.8,52 295.8,35 313.5,24.8 313.5,45.1 295.8,55.3 		"/>
	</g>
	<g id="XMLID_61_">
		<g id="XMLID_73_">
			<g id="XMLID_75_">
				<g id="XMLID_79_">
					<polygon class="st14" points="305.1,31 308.6,29 308.6,33.4 305.1,35.4 					"/>
				</g>
				<g id="XMLID_78_">
					<polygon class="st14" points="309.4,28.6 312.8,26.6 312.8,30.9 309.4,32.9 					"/>
				</g>
				<g id="XMLID_77_">
					<polygon class="st14" points="296.5,36 300,34 300,38.4 296.5,40.4 					"/>
				</g>
				<g id="XMLID_76_">
					<polygon class="st14" points="300.8,33.5 304.3,31.5 304.3,35.9 300.8,37.9 					"/>
				</g>
			</g>
		</g>
		<g id="XMLID_62_">
			<g id="XMLID_68_">
				<g id="XMLID_72_">
					<polygon class="st14" points="305.1,37.2 308.6,35.2 308.6,39.6 305.1,41.6 					"/>
				</g>
				<g id="XMLID_71_">
					<polygon class="st14" points="309.4,34.8 312.8,32.8 312.8,37.1 309.4,39.1 					"/>
				</g>
				<g id="XMLID_70_">
					<polygon class="st14" points="296.5,42.2 300,40.2 300,44.6 296.5,46.6 					"/>
				</g>
				<g id="XMLID_69_">
					<polygon class="st14" points="300.8,39.7 304.3,37.7 304.3,42.1 300.8,44.1 					"/>
				</g>
			</g>
			<g id="XMLID_63_">
				<g id="XMLID_67_">
					<polygon class="st14" points="305.1,43 308.6,41 308.6,45.4 305.1,47.4 					"/>
				</g>
				<g id="XMLID_66_">
					<polygon class="st14" points="309.4,40.5 312.8,38.5 312.8,42.9 309.4,44.9 					"/>
				</g>
				<g id="XMLID_65_">
					<polygon class="st14" points="296.5,48 300,46 300,50.3 296.5,52.3 					"/>
				</g>
				<g id="XMLID_64_">
					<polygon class="st14" points="300.8,45.5 304.3,43.5 304.3,47.9 300.8,49.9 					"/>
				</g>
			</g>
		</g>
	</g>
	<g id="XMLID_60_" class="st15">
		<polygon class="st8" points="295.9,61.2 299.2,53.3 299.2,33.1 295.8,35 		"/>
	</g>
	<g id="XMLID_59_">
		<polygon class="st16" points="316.9,15.4 293.9,28.7 270.8,15.4 293.9,2.1 		"/>
	</g>
	<g id="XMLID_58_">
		<polygon class="st12" points="316.9,15.4 293.9,28.7 270.8,15.4 293.9,2.1 		"/>
	</g>
	<g id="XMLID_57_">
		<polygon class="st8" points="293.9,4.6 314.8,16.7 316.9,15.4 293.9,2.1 270.8,15.4 272.9,16.7 		"/>
	</g>
	<g id="XMLID_56_">
		<polygon class="st17" points="249.4,35.3 249.4,82.6 279.6,100 279.6,52.7 		"/>
	</g>
	<g id="XMLID_53_">
		<path class="st18" d="M293.9,0l-26.7,15.4l26.7,15.4l26.7-15.4L293.9,0z M270.8,15.4l23-13.3l23,13.3l-23,13.3L270.8,15.4z"/>
	</g>
	<g>
		<g id="XMLID_52_">
			<polygon class="st17" points="292.3,45.7 268.4,32 268.4,29.8 292.3,43.5 			"/>
		</g>
		<g id="XMLID_51_">
			<polygon class="st17" points="292.3,42.3 268.4,28.5 268.4,26.4 292.3,40.1 			"/>
		</g>
		<g id="XMLID_50_">
			<polygon class="st17" points="292.3,38.8 268.4,25.1 268.4,23 292.3,36.7 			"/>
		</g>
		<g id="XMLID_49_">
			<polygon class="st17" points="292.3,35.4 268.4,21.7 268.4,19.5 292.3,33.3 			"/>
		</g>
	</g>
	<g>
		<g>
			<g>
				<defs>
					<polygon id="SVGID_1_" points="318.6,85.3 295.9,98.5 295.8,63.9 318.6,50.7 					"/>
				</defs>
				<clipPath id="SVGID_2_">
					<use xlink:href="#SVGID_1_"  style="overflow:visible;"/>
				</clipPath>
				<g id="XMLID_32_" class="st19">
					<g id="XMLID_47_">
						<g id="XMLID_48_">
							<rect x="316" y="41.1" class="st11" width="0.6" height="53.2"/>
						</g>
					</g>
					<g id="XMLID_45_">
						<g id="XMLID_46_">
							<rect x="312.6" y="42.8" class="st11" width="0.6" height="53.2"/>
						</g>
					</g>
					<g id="XMLID_43_">
						<g id="XMLID_44_">
							<rect x="309.2" y="45.3" class="st11" width="0.6" height="53.2"/>
						</g>
					</g>
					<g id="XMLID_41_">
						<g id="XMLID_42_">
							<rect x="305.7" y="47.9" class="st11" width="0.6" height="53.2"/>
						</g>
					</g>
					<g id="XMLID_39_">
						<g id="XMLID_40_">
							<rect x="302.3" y="49.6" class="st11" width="0.6" height="53.2"/>
						</g>
					</g>
					<g id="XMLID_37_">
						<g id="XMLID_38_">
							<rect x="298.9" y="52.2" class="st11" width="0.6" height="53.2"/>
						</g>
					</g>
				</g>
			</g>
		</g>
	</g>
	<g id="XMLID_12_">
		<g>
			<g>
				<defs>
					<polygon id="SVGID_3_" points="249.4,35.3 249.4,82.6 279.6,100 279.6,52.7 					"/>
				</defs>
				<clipPath id="SVGID_4_">
					<use xlink:href="#SVGID_3_"  style="overflow:visible;"/>
				</clipPath>
				<g id="XMLID_14_" class="st20">
					<g id="XMLID_29_">
						<g id="XMLID_30_">
							<rect x="252.6" y="33.8" class="st16" width="0.6" height="53.2"/>
						</g>
					</g>
					<g id="XMLID_27_">
						<g id="XMLID_28_">
							<rect x="256" y="35.5" class="st16" width="0.6" height="53.2"/>
						</g>
					</g>
					<g id="XMLID_25_">
						<g id="XMLID_26_">
							<rect x="259.4" y="38.1" class="st16" width="0.6" height="53.2"/>
						</g>
					</g>
					<g id="XMLID_23_">
						<g id="XMLID_24_">
							<rect x="262.8" y="40.6" class="st16" width="0.6" height="53.2"/>
						</g>
					</g>
					<g id="XMLID_21_">
						<g id="XMLID_22_">
							<rect x="266.3" y="42.4" class="st16" width="0.6" height="53.2"/>
						</g>
					</g>
					<g id="XMLID_19_">
						<g id="XMLID_20_">
							<rect x="269.7" y="44.9" class="st16" width="0.6" height="53.2"/>
						</g>
					</g>
					<g id="XMLID_17_">
						<g id="XMLID_18_">
							<rect x="273.1" y="46.6" class="st16" width="0.6" height="53.2"/>
						</g>
					</g>
					<g id="XMLID_15_">
						<g id="XMLID_16_">
							<rect x="276.5" y="48.3" class="st16" width="0.6" height="53.2"/>
						</g>
					</g>
				</g>
			</g>
		</g>
	</g>
	<g id="XMLID_5_">
		<g id="XMLID_10_">
			<g id="XMLID_11_">
				<rect x="263.5" y="38.3" transform="matrix(0.5 -0.866 0.866 0.5 82.7964 257.541)" class="st10" width="1.9" height="37.6"/>
			</g>
		</g>
		<g id="XMLID_8_">
			<g id="XMLID_9_">
				<rect x="263.6" y="50.7" transform="matrix(0.5 -0.866 0.866 0.5 72.1941 263.8272)" class="st10" width="1.9" height="37.4"/>
			</g>
		</g>
		<g id="XMLID_6_">
			<g id="XMLID_7_">
				<rect x="263.5" y="63.2" transform="matrix(0.5 -0.866 0.866 0.5 61.4283 269.913)" class="st10" width="1.9" height="37.1"/>
			</g>
		</g>
	</g>
	<g class="st21">
		<g>
			<g>
				<defs>
					<polygon id="SVGID_5_" points="297.3,15.3 297.3,15.6 297.3,15.6 					"/>
				</defs>
				<clipPath id="SVGID_6_">
					<use xlink:href="#SVGID_5_"  style="overflow:visible;"/>
				</clipPath>
				<g class="st22">
					<g>
						<polyline class="st23" points="297.3,15.3 297.3,15.6 297.3,15.6 297.3,15.3 297.3,15.3 						"/>
					</g>
				</g>
			</g>
		</g>
	</g>
	<g>
		<g>
			<polygon class="st24" points="293,16.7 293,17 293,15.2 293,14.9 			"/>
		</g>
	</g>
	<g>
		<g>
			<path class="st25" d="M302,17.2L302,17.2c0-0.1,0.1-0.2,0.1-0.2c0-0.1,0.1-0.2,0.1-0.3l0,0c0-0.1,0-0.1,0.1-0.2
				c0-0.1,0.1-0.2,0.1-0.3l0,0c0-0.1,0-0.2,0-0.2c0-0.1,0-0.2,0-0.2v-0.1v-0.4c0,0.1,0,0.2,0,0.3s0,0.2,0,0.2c0,0.1-0.1,0.2-0.1,0.3
				s0,0.1-0.1,0.2c0,0.1-0.1,0.2-0.1,0.3c0,0.1-0.1,0.1-0.1,0.2c-0.1,0.2-0.2,0.3-0.3,0.5c-0.7,0-1.4,0-2,0v0.4c0.7,0,1.4,0,2,0
				C301.8,17.5,301.9,17.4,302,17.2z"/>
		</g>
		<g>
			<rect x="292.8" y="17.3" class="st25" width="3.2" height="0.4"/>
		</g>
		<g>
			<rect x="298.1" y="20.3" class="st25" width="4.4" height="0.4"/>
		</g>
	</g>
	<g>
		<g>
			<polygon class="st24" points="296.7,18.8 296.7,19.1 296.7,17.8 296.7,17.6 			"/>
		</g>
	</g>
	<g>
		<g>
			<path class="st26" d="M288.4,15.2c0-0.1,0.1-0.2,0.1-0.3v-0.1c0.1-0.1,0.1-0.2,0.2-0.3l0,0c0.1-0.1,0.2-0.3,0.4-0.4
				c0.2-0.2,0.5-0.4,0.8-0.6c0.3-0.2,0.7-0.4,1.1-0.5c0.3-0.1,0.7-0.2,1-0.3h0.1c0.3-0.1,0.7-0.1,1-0.1l0,0c0.4,0,0.8,0,1.1,0l0,0
				c0.4,0,0.7,0.1,1.1,0.2c0,0,0,0,0.1,0c0.3,0.1,0.6,0.2,0.9,0.2c0.1,0,0.1,0,0.2,0.1c0.3,0.1,0.6,0.2,0.9,0.4
				c0.5,0.3,0.8,0.6,1.1,0.9c0.3,0.4,0.4,0.8,0.4,1.2v-0.4c0-0.9-0.6-1.6-1.5-2.2c-0.2-0.1-0.5-0.3-0.8-0.4h-0.1
				c-0.1,0-0.1,0-0.2-0.1c-0.1,0-0.3-0.1-0.4-0.1c-0.2,0-0.3-0.1-0.5-0.1c0,0,0,0-0.1,0l0,0c-0.2,0-0.4-0.1-0.6-0.1s-0.3,0-0.5-0.1
				l0,0l0,0c-0.2,0-0.4,0-0.5,0c-0.2,0-0.4,0-0.5,0l0,0l0,0c-0.2,0-0.3,0-0.5,0s-0.4,0-0.5,0.1h-0.1l0,0c-0.3,0.1-0.6,0.1-0.9,0.2
				l0,0c-0.4,0.1-0.8,0.3-1.1,0.5c0,0,0,0-0.1,0c-0.3,0.2-0.5,0.3-0.7,0.5l0,0c-0.1,0.1-0.3,0.3-0.4,0.4l0,0l0,0
				c-0.1,0.1-0.1,0.2-0.2,0.3c0,0,0,0,0,0.1v0.1c0,0,0,0.1-0.1,0.1c0,0.1,0,0.1,0,0.2v0.1l0,0C288.3,15,288.3,15.1,288.4,15.2
				C288.3,15.2,288.3,15.2,288.4,15.2l-0.1,0.5C288.3,15.5,288.4,15.4,288.4,15.2L288.4,15.2z"/>
		</g>
		<g>
			<path class="st26" d="M298.4,16.5v0.4c0.4,0.2,0.8,0.5,1.2,0.7v-0.4C299.3,17,298.9,16.8,298.4,16.5z"/>
		</g>
		<g>
			<polygon class="st26" points="295.9,17.7 298.1,18.9 298.1,18.5 295.9,17.3 			"/>
		</g>
		<g>
			<path class="st26" d="M295.6,20.2c-0.3,0-0.5,0.1-0.8,0.1c-0.1,0-0.2,0-0.3,0c-0.4,0-0.7,0-1.1,0l0,0c-0.4,0-0.8,0-1.1-0.1
				c-0.1,0-0.2,0-0.3,0c-0.3,0-0.7-0.1-1-0.2h-0.1c-0.4-0.1-0.7-0.2-1.1-0.3c-0.2,0-0.3-0.1-0.5-0.2s-0.4-0.1-0.6-0.2
				c-0.4-0.2-0.8-0.3-1.2-0.6c-0.2-0.1-0.3-0.2-0.5-0.3c-1.4-1-2.1-2.1-2.1-3.3v0.4c0,1.2,0.7,2.4,2.1,3.3c0.2,0.1,0.3,0.2,0.5,0.3
				c0.4,0.2,0.8,0.4,1.2,0.6c0,0,0.1,0,0.1,0.1c0.2,0.1,0.3,0.1,0.5,0.2s0.3,0.1,0.5,0.2h0.1c0.3,0.1,0.6,0.2,0.9,0.2l0,0h0.1
				c0.2,0,0.5,0.1,0.7,0.1c0.1,0,0.2,0,0.3,0c0.1,0,0.2,0,0.3,0c0.1,0,0.2,0,0.3,0c0.3,0,0.6,0,0.9,0l0,0l0,0c0.3,0,0.6,0,0.8,0
				c0.1,0,0.2,0,0.3,0c0.1,0,0.2,0,0.4,0c0.1,0,0.2,0,0.3,0c0.2,0,0.3,0,0.5-0.1c0.2,0,0.3,0,0.5-0.1c0.1,0,0.1,0,0.2,0
				c0.3-0.1,0.6-0.1,0.9-0.2v-0.4c-0.4,0.1-0.7,0.2-1.1,0.2C295.9,20.2,295.8,20.2,295.6,20.2z"/>
		</g>
	</g>
	<g>
		<g>
			<polygon class="st27" points="302.5,17.8 299.3,17.8 297.2,16.5 297.2,14.7 292.8,14.7 292.8,17.3 295.9,17.3 298.1,18.5 
				298.1,20.3 302.5,20.3 			"/>
		</g>
		<g>
			<path class="st27" d="M295.9,18c-2.3,0.6-4.5,0.3-6-0.6c-1.6-0.9-2.2-2.4-0.8-3.8c2-1.8,6.1-1.8,8.3-0.5c0.9,0.5,1.5,1.3,1.5,2.2
				c0,0.5-0.2,0.9-0.5,1.3c0.4,0.2,0.8,0.5,1.2,0.7c0.7,0,1.4,0,2,0c0.5-0.7,0.7-1.3,0.7-2c0-1.4-1-2.7-2.6-3.6
				c-1-0.6-2.3-1-3.7-1.3c-3.7-0.6-7.8,0.2-9.9,2.1s-1.9,4.4,0.7,6.1c0.2,0.1,0.3,0.2,0.5,0.3c2.6,1.5,6.4,1.9,9.8,1.1
				c0-0.4,0-0.8,0-1.2C296.8,18.5,296.4,18.2,295.9,18z"/>
		</g>
	</g>
</g>
<g class="st28">
	<path class="st29" d="M213.8,386.1c-0.2-0.3-0.4-0.5-1.1-1.2c-0.7,0.4-1.4,0.6-2.2,0.6c-2.7,0-4.4-2-4.4-5c0-3.1,1.7-5,4.4-5
		s4.4,2,4.4,5c0,0.9-0.2,1.7-0.5,2.4c-0.2,0.6-0.5,0.9-1,1.5c0.6,0.6,0.7,0.7,1.1,1L213.8,386.1z M211.6,382.6
		c0.2,0.3,0.4,0.4,1,1.1c0.4-0.4,0.5-0.6,0.7-1c0.3-0.7,0.4-1.4,0.4-2.2c0-2.5-1.3-4.1-3.3-4.1s-3.4,1.6-3.4,4.1s1.3,4.1,3.4,4.1
		c0.6,0,1-0.1,1.5-0.4c-0.4-0.4-0.7-0.6-1-0.9L211.6,382.6z"/>
	<path class="st29" d="M221.3,384.5c0-0.1,0-0.2,0-0.6c-0.6,1-1.4,1.5-2.6,1.5c-0.9,0-1.6-0.3-2-0.9c-0.2-0.4-0.4-0.9-0.4-1.5v-3.1
		c0-0.6,0-1-0.1-1.4h1.1c-0.1,0.4-0.1,0.9-0.1,1.4v3c0,1.1,0.5,1.8,1.5,1.8c0.7,0,1.3-0.3,1.8-1c0.3-0.4,0.5-0.8,0.6-1.3V380
		c0-0.5,0-1-0.1-1.4h1.1c-0.1,0.4-0.1,0.8-0.1,1.4v4c0,0.6,0,0.9,0.1,1.4H221v-0.9H221.3z"/>
	<path class="st29" d="M225.4,375.7v1.1h-1.2v-1.1H225.4z M225.4,378.5c-0.1,0.4-0.1,0.8-0.1,1.4v4c0,0.6,0,0.9,0.1,1.4h-1.1
		c0.1-0.5,0.1-0.9,0.1-1.4v-4c0-0.6,0-1-0.1-1.4H225.4z"/>
	<path class="st29" d="M227.2,385.3c0.1-0.5,0.1-0.8,0.1-1.4v-4c0-0.6,0-0.9-0.1-1.4h1.1v0.9c0,0.2,0,0.3,0,0.5
		c0.6-1,1.4-1.5,2.6-1.5c0.9,0,1.6,0.3,2,1c0.2,0.4,0.4,0.8,0.4,1.5v3.1c0,0.6,0,1,0.1,1.4h-1.1c0.1-0.5,0.1-0.9,0.1-1.4v-3
		c0-1.1-0.5-1.7-1.5-1.7c-0.7,0-1.3,0.3-1.8,1c-0.3,0.4-0.5,0.7-0.6,1.3v2.4c0,0.6,0,0.9,0.1,1.4L227.2,385.3L227.2,385.3z"/>
	<path class="st29" d="M243.4,379.4c-0.5-0.2-0.7-0.2-1-0.2c-0.6,0-1.2,0.3-1.6,0.8c-0.3,0.4-0.4,0.7-0.5,1.3v2.6
		c0,0.6,0,0.9,0.1,1.4h-1.1c0.1-0.6,0.1-0.9,0.1-1.4v-4c0-0.6,0-1-0.1-1.4h1.1v0.7c0,0.1,0,0.3,0,0.4c0.2-0.4,0.4-0.6,0.7-0.8
		c0.5-0.3,0.9-0.4,1.5-0.4c0.4,0,0.6,0,1.1,0.1L243.4,379.4z"/>
	<path class="st29" d="M245.3,382c0,0.8,0.2,1.3,0.5,1.8c0.4,0.6,1,0.9,1.8,0.9c1,0,1.7-0.5,2.1-1.5l0.9,0.4
		c-0.2,0.5-0.4,0.8-0.7,1.1c-0.6,0.6-1.4,0.9-2.3,0.9c-2,0-3.2-1.4-3.2-3.6s1.2-3.6,3.1-3.6c1.6,0,2.8,1.1,3.1,2.7
		c0,0.1,0.1,0.6,0.1,1L245.3,382L245.3,382z M249.7,381.2c-0.1-0.7-0.3-1.2-0.7-1.6s-0.9-0.6-1.5-0.6c-0.8,0-1.4,0.4-1.8,1.1
		c-0.2,0.3-0.2,0.5-0.3,1h4.3V381.2z"/>
	<path class="st29" d="M254.1,376.6c-0.1,0.4-0.1,0.9-0.1,1.4v0.5h0.6c0.6,0,0.8,0,1.3-0.1v1c-0.4-0.1-0.7-0.1-1.3-0.1H254v4.4
		c0,0.4,0.1,0.6,0.2,0.7c0.1,0.1,0.4,0.2,0.6,0.2c0.3,0,0.6-0.1,1-0.3l0.3,0.9c-0.5,0.2-0.9,0.3-1.4,0.3c-0.6,0-1-0.1-1.2-0.4
		c-0.3-0.3-0.4-0.6-0.4-1.2v-4.5h-0.5c-0.4,0-0.7,0-1.1,0.1v-1c0.4,0.1,0.6,0.1,1.1,0.1h0.5V378c0-0.5,0-1-0.1-1.4H254.1z"/>
	<path class="st29" d="M262.1,384.5c0-0.1,0-0.2,0-0.6c-0.6,1-1.4,1.5-2.6,1.5c-0.9,0-1.6-0.3-2-0.9c-0.2-0.4-0.4-0.9-0.4-1.5v-3.1
		c0-0.6,0-1-0.1-1.4h1.1c-0.1,0.4-0.1,0.9-0.1,1.4v3c0,1.1,0.5,1.8,1.5,1.8c0.7,0,1.3-0.3,1.8-1c0.3-0.4,0.5-0.8,0.6-1.3V380
		c0-0.5,0-1-0.1-1.4h1.1c-0.1,0.4-0.1,0.8-0.1,1.4v4c0,0.6,0,0.9,0.1,1.4h-1.1v-0.9H262.1z"/>
	<path class="st29" d="M269,379.4c-0.5-0.2-0.7-0.2-1-0.2c-0.6,0-1.2,0.3-1.6,0.8c-0.3,0.4-0.4,0.7-0.5,1.3v2.6c0,0.6,0,0.9,0.1,1.4
		h-1.1c0.1-0.6,0.1-0.9,0.1-1.4v-4c0-0.6,0-1-0.1-1.4h1.1v0.7c0,0.1,0,0.3,0,0.4c0.2-0.4,0.4-0.6,0.7-0.8c0.5-0.3,0.9-0.4,1.5-0.4
		c0.4,0,0.6,0,1.1,0.1L269,379.4z"/>
	<path class="st29" d="M270.4,385.3c0.1-0.5,0.1-0.8,0.1-1.4v-4c0-0.6,0-0.9-0.1-1.4h1.1v0.9c0,0.2,0,0.3,0,0.5
		c0.6-1,1.4-1.5,2.6-1.5c0.9,0,1.6,0.3,2,1c0.2,0.4,0.4,0.8,0.4,1.5v3.1c0,0.6,0,1,0.1,1.4h-1.1c0.1-0.5,0.1-0.9,0.1-1.4v-3
		c0-1.1-0.5-1.7-1.5-1.7c-0.7,0-1.3,0.3-1.8,1c-0.3,0.4-0.5,0.7-0.6,1.3v2.4c0,0.6,0,0.9,0.1,1.4L270.4,385.3L270.4,385.3z"/>
	<path class="st29" d="M284.2,385.2l-0.5-0.7l7.1-3.9l-7.1-3.9l0.5-0.7l8.3,4.7L284.2,385.2z"/>
	<path class="st29" d="M295.1,385.3c0.1-0.5,0.1-0.8,0.1-1.5v-6.7c0-0.5,0-0.9-0.1-1.4h1.1c-0.1,0.5-0.1,0.8-0.1,1.4v1.7
		c0,0.3,0,0.6-0.1,0.9c0.6-0.9,1.5-1.4,2.6-1.4c2,0,3.1,1.3,3.1,3.5s-1.2,3.6-3.2,3.6c-0.8,0-1.4-0.2-2-0.7
		c-0.3-0.2-0.4-0.4-0.6-0.7c0,0.2,0,0.3,0,0.5v0.7h-0.8V385.3z M298.6,379.1c-1.5,0-2.5,1.1-2.5,2.7s1,2.7,2.4,2.7s2.3-1,2.3-2.8
		C300.8,380.1,300,379.1,298.6,379.1z"/>
	<path class="st29" d="M307.8,384.4c-0.5,0.4-0.7,0.6-1.2,0.8c-0.4,0.2-0.9,0.3-1.3,0.3c-1.4,0-2.2-0.7-2.2-1.9c0-1,0.6-1.7,1.8-2.1
		c0.7-0.2,1.4-0.3,2.9-0.3v-0.7c0-0.9-0.5-1.3-1.6-1.3c-0.7,0-1.2,0.2-1.6,0.5c-0.2,0.2-0.3,0.4-0.4,0.7l-1-0.2
		c0.2-0.6,0.4-0.8,0.7-1.1c0.5-0.5,1.3-0.7,2.2-0.7c1.7,0,2.5,0.7,2.5,2.1v3.6c0,0.6,0,0.9,0.1,1.4h-1v-1.1L307.8,384.4L307.8,384.4
		z M307.8,381.8c-1.5,0-2.2,0.1-2.8,0.4c-0.6,0.3-1,0.7-1,1.3c0,0.7,0.5,1.1,1.3,1.1c0.7,0,1.5-0.4,2-0.9c0.3-0.3,0.4-0.6,0.4-1.1
		v-0.8H307.8z"/>
	<path class="st29" d="M310.5,385.3c0.1-0.5,0.1-0.8,0.1-1.4v-4c0-0.6,0-0.9-0.1-1.4h1.1v0.9c0,0.2,0,0.3,0,0.5
		c0.6-1,1.4-1.5,2.6-1.5c0.9,0,1.6,0.3,2,1c0.2,0.4,0.4,0.8,0.4,1.5v3.1c0,0.6,0,1,0.1,1.4h-1.1c0.1-0.5,0.1-0.9,0.1-1.4v-3
		c0-1.1-0.5-1.7-1.5-1.7c-0.7,0-1.3,0.3-1.8,1c-0.3,0.4-0.5,0.7-0.6,1.3v2.4c0,0.6,0,0.9,0.1,1.4L310.5,385.3L310.5,385.3z"/>
	<path class="st29" d="M319.5,375.7c-0.1,0.5-0.1,0.8-0.1,1.4v4.6l2.3-2.2c0.5-0.5,0.7-0.7,0.9-1h1.5c-0.2,0.2-0.2,0.2-0.5,0.5
		c-0.1,0.1-0.3,0.3-0.5,0.4c-0.1,0.1-0.2,0.2-0.2,0.2l-1.8,1.6l2.1,2.8c0.8,1,0.8,1.1,1.1,1.3H323c-0.1-0.3-0.2-0.4-0.8-1.2
		l-1.7-2.3l-1.1,1v1.1c0,0.6,0,1,0.1,1.4h-1.1c0.1-0.5,0.1-0.8,0.1-1.4v-6.8c0-0.6,0-1-0.1-1.4H319.5z"/>
	<path class="st29" d="M330.5,383.3c0.1,0.5,0.2,0.7,0.4,0.9c0.3,0.3,0.8,0.4,1.5,0.4c1.1,0,1.8-0.5,1.8-1.2c0-0.4-0.1-0.6-0.4-0.8
		c-0.3-0.2-0.6-0.3-1.5-0.5c-1-0.2-1.4-0.4-1.9-0.7c-0.4-0.3-0.7-0.8-0.7-1.3s0.2-0.9,0.5-1.2c0.4-0.4,1.1-0.7,2-0.7s1.5,0.2,2,0.6
		c0.3,0.3,0.5,0.6,0.7,1.2l-1,0.2c-0.1-0.3-0.1-0.5-0.3-0.7c-0.3-0.3-0.7-0.5-1.3-0.5c-0.9,0-1.6,0.5-1.6,1.1c0,0.3,0.2,0.5,0.4,0.7
		c0.3,0.2,0.6,0.3,1.4,0.4c1.2,0.3,1.6,0.4,2,0.7c0.4,0.3,0.6,0.8,0.6,1.3c0,1.3-1.1,2.1-2.8,2.1c-1.2,0-2-0.3-2.5-1
		c-0.2-0.3-0.3-0.5-0.4-1H330.5z"/>
	<path class="st29" d="M341.2,384.4c-0.5,0.4-0.7,0.6-1.2,0.8c-0.4,0.2-0.9,0.3-1.3,0.3c-1.4,0-2.2-0.7-2.2-1.9c0-1,0.6-1.7,1.8-2.1
		c0.7-0.2,1.4-0.3,2.9-0.3v-0.7c0-0.9-0.5-1.3-1.6-1.3c-0.7,0-1.2,0.2-1.6,0.5c-0.2,0.2-0.3,0.4-0.4,0.7l-1-0.2
		c0.2-0.6,0.4-0.8,0.7-1.1c0.5-0.5,1.3-0.7,2.2-0.7c1.7,0,2.5,0.7,2.5,2.1v3.6c0,0.6,0,0.9,0.1,1.4h-1v-1.1L341.2,384.4L341.2,384.4
		z M341.2,381.8c-1.5,0-2.2,0.1-2.8,0.4c-0.6,0.3-1,0.7-1,1.3c0,0.7,0.5,1.1,1.3,1.1c0.7,0,1.5-0.4,2-0.9c0.3-0.3,0.4-0.6,0.4-1.1
		v-0.8H341.2z"/>
	<path class="st29" d="M344.4,378.5c0.1,0.3,0.2,0.7,0.4,1.2l1.4,3.7c0.1,0.2,0.2,0.6,0.3,0.8c0.1-0.3,0.2-0.5,0.3-0.8l1.4-3.7
		c0.2-0.6,0.3-0.9,0.4-1.2h1.2c-0.2,0.3-0.2,0.4-0.6,1.4l-1.8,4.3c-0.3,0.7-0.3,0.8-0.4,1.2h-1c-0.1-0.3-0.2-0.5-0.4-1.2l-1.8-4.3
		c-0.2-0.6-0.4-0.8-0.6-1.4H344.4z"/>
	<path class="st29" d="M352.1,375.7v1.1h-1.2v-1.1H352.1z M352,378.5c-0.1,0.4-0.1,0.8-0.1,1.4v4c0,0.6,0,0.9,0.1,1.4h-1.1
		c0.1-0.5,0.1-0.9,0.1-1.4v-4c0-0.6,0-1-0.1-1.4H352z"/>
	<path class="st29" d="M353.8,385.3c0.1-0.5,0.1-0.8,0.1-1.4v-4c0-0.6,0-0.9-0.1-1.4h1.1v0.9c0,0.2,0,0.3,0,0.5
		c0.6-1,1.4-1.5,2.6-1.5c0.9,0,1.6,0.3,2,1c0.2,0.4,0.4,0.8,0.4,1.5v3.1c0,0.6,0,1,0.1,1.4h-1.1c0.1-0.5,0.1-0.9,0.1-1.4v-3
		c0-1.1-0.5-1.7-1.5-1.7c-0.7,0-1.3,0.3-1.8,1c-0.3,0.4-0.5,0.7-0.6,1.3v2.4c0,0.6,0,0.9,0.1,1.4L353.8,385.3L353.8,385.3z"/>
	<path class="st29" d="M362.5,386.2c0.2,0.2,0.3,0.3,0.4,0.4c0.5,0.4,1,0.6,1.7,0.6c1.1,0,1.9-0.5,2.2-1.4c0.1-0.4,0.2-0.8,0.2-1.9
		c-0.2,0.3-0.3,0.5-0.5,0.7c-0.5,0.4-1.2,0.7-2,0.7c-1.9,0-3.1-1.3-3.1-3.4c0-2.2,1.2-3.5,3.2-3.5c1.1,0,1.9,0.4,2.4,1.3
		c0-0.2,0-0.3,0-0.5v-0.7h1c-0.1,0.5-0.1,0.8-0.1,1.4v4.5c0,1.2-0.2,2-0.7,2.6s-1.5,1-2.6,1c-1.3,0-2-0.4-2.9-1.3L362.5,386.2z
		 M364.5,384.5c1.4,0,2.4-1.1,2.4-2.7s-0.9-2.6-2.3-2.6s-2.3,1-2.3,2.7C362.3,383.5,363.2,384.5,364.5,384.5z"/>
	<path class="st29" d="M370.5,383.3c0.1,0.5,0.2,0.7,0.4,0.9c0.3,0.3,0.8,0.4,1.5,0.4c1.1,0,1.8-0.5,1.8-1.2c0-0.4-0.1-0.6-0.4-0.8
		c-0.3-0.2-0.6-0.3-1.5-0.5c-1-0.2-1.4-0.4-1.9-0.7c-0.4-0.3-0.7-0.8-0.7-1.3s0.2-0.9,0.5-1.2c0.4-0.4,1.1-0.7,2-0.7s1.5,0.2,2,0.6
		c0.3,0.3,0.5,0.6,0.7,1.2l-1,0.2c-0.1-0.3-0.1-0.5-0.3-0.7c-0.3-0.3-0.7-0.5-1.3-0.5c-0.9,0-1.6,0.5-1.6,1.1c0,0.3,0.2,0.5,0.4,0.7
		c0.3,0.2,0.6,0.3,1.4,0.4c1.2,0.3,1.6,0.4,2,0.7c0.4,0.3,0.6,0.8,0.6,1.3c0,1.3-1.1,2.1-2.8,2.1c-1.2,0-2-0.3-2.5-1
		c-0.2-0.3-0.3-0.5-0.4-1H370.5z"/>
</g>
<g class="st30">
	<g>
		<ellipse class="st6" cx="67.8" cy="291.7" rx="22.4" ry="2.3"/>
	</g>
</g>
<g class="st30">
	<g>
		<ellipse class="st6" cx="501.5" cy="291.7" rx="22.4" ry="2.3"/>
	</g>
</g>
<g>
	<g>
		<path class="st14" d="M105.3,263.3C105.3,263.2,105.3,263.2,105.3,263.3c0-7.2-17.6-13-39.3-13s-39.3,5.8-39.3,12.9v0.1l0,0v0.1
			l0,0v0.1l0,0v0.1l0,0v0.1l0,0v0.1l0,0v0.1l0,0v0.1l0,0v0.1l0,0v0.1l0,0v0.1l0,0v0.1l0,0v0.1l0,0v0.1l0,0v0.1l0,0v0.1l0,0v0.1l0,0
			v0.1l0,0v0.1l0,0v0.1l0,0v0.1l0,0v0.1l0,0v0.1l0,0v0.1l0,0v0.1l0,0v0.1l0,0v0.1l0,0v0.1l0,0v0.1l0,0v0.1l0,0v0.1l0,0v0.1l0,0v0.1
			l0,0v0.1l0,0v0.1l0,0v0.1l0,0v0.1l0,0v0.1l0,0v0.1l0,0v0.1l0,0v0.1l0,0v0.1l0,0v0.1l0,0v0.1l0,0v0.1l0,0v0.1l0,0v0.1l0,0v0.1l0,0
			v0.1l0,0v0.1l0,0v0.1l0,0c0,7.1,17.5,12.9,39,12.9s39-5.8,39-12.9c0,0,0,0,0-0.1c0,0,0,0,0-0.1c0,0,0,0,0-0.1c0,0,0,0,0-0.1
			c0,0,0,0,0-0.1c0,0,0,0,0-0.1s0,0,0-0.1c0,0,0,0,0-0.1s0,0,0-0.1c0,0,0,0,0-0.1c0,0,0,0,0-0.1c0,0,0,0,0-0.1c0,0,0,0,0-0.1
			c0,0,0,0,0-0.1s0,0,0-0.1c0,0,0,0,0-0.1s0,0,0-0.1c0,0,0,0,0-0.1c0,0,0,0,0-0.1c0,0,0,0,0-0.1s0,0,0-0.1c0,0,0,0,0-0.1s0,0,0-0.1
			c0,0,0,0,0-0.1s0,0,0-0.1c0,0,0,0,0-0.1c0,0,0,0,0-0.1c0,0,0,0,0-0.1s0,0,0-0.1c0,0,0,0,0-0.1s0,0,0-0.1c0,0,0,0,0-0.1
			c0,0,0,0,0-0.1c0,0,0,0,0-0.1c0,0,0,0,0-0.1c0,0,0,0,0-0.1s0,0,0-0.1c0,0,0,0,0-0.1s0,0,0-0.1c0,0,0,0,0-0.1s0,0,0-0.1
			c0,0,0,0,0-0.1c0,0,0,0,0-0.1c0,0,0,0,0-0.1s0,0,0-0.1c0,0,0,0,0-0.1c0,0,0,0,0-0.1c0,0,0,0,0-0.1s0,0,0-0.1c0,0,0,0,0-0.1
			c0,0,0,0,0-0.1c0,0,0,0,0-0.1c0,0,0,0,0-0.1c0,0,0,0,0-0.1s0,0,0-0.1c0,0,0,0,0-0.1s0,0,0-0.1c0,0,0,0,0-0.1c0,0,0,0,0-0.1
			c0,0,0,0,0-0.1s0,0,0-0.1c0,0,0,0,0-0.1s0,0,0-0.1c0,0,0,0,0-0.1s0,0,0-0.1c0,0,0,0,0-0.1c0,0,0,0,0-0.1c0,0,0,0,0-0.1s0,0,0-0.1
			c0,0,0,0,0-0.1s0,0,0-0.1c0,0,0,0,0-0.1s0,0,0-0.1c0,0,0,0,0-0.1c0,0,0,0,0-0.1c0,0,0,0,0-0.1s0,0,0-0.1c0,0,0,0,0-0.1s0,0,0-0.1
			c0,0,0,0,0-0.1c0,0,0,0,0-0.1c0,0,0,0,0-0.1c0,0,0,0,0-0.1c0,0,0,0,0-0.1s0,0,0-0.1c0,0,0,0,0-0.1c0,0,0,0,0-0.1c0,0,0,0,0-0.1
			c0,0,0,0,0-0.1c0,0,0,0,0-0.1s0,0,0-0.1c0,0,0,0,0-0.1s0,0,0-0.1c0,0,0,0,0-0.1s0,0,0-0.1c0,0,0,0,0-0.1c0,0,0,0,0-0.1
			c0,0,0,0,0-0.1s0,0,0-0.1C105.3,263.4,105.3,263.4,105.3,263.3L105.3,263.3z"/>
	</g>
	<g>
		<ellipse class="st31" cx="66" cy="262.6" rx="39.3" ry="12.9"/>
	</g>
	<g>
		<polygon class="st3" points="65.8,259.3 65.8,263.7 105.2,263.7 105.2,271.6 109.1,271.6 109.1,263.7 109.1,262.4 109.1,259.3 		
			"/>
	</g>
	<g>
		<path class="st2" d="M65.8,259.3L86,246.4c0,0,19.9,0,23.1,12.9h-43"/>
	</g>
	<g class="st30">
		<polygon class="st32" points="105.2,264 109.1,271.6 105.2,271.6 		"/>
	</g>
</g>
<g>
	<path d="M53.7,246.2v-0.4c0.4,0.2,0.7,0.3,1,0.3c0.4,0,0.8-0.1,1-0.4c0.3-0.2,0.4-0.6,0.4-1c0-0.9-0.5-1.3-1.5-1.3
		c-0.2,0-0.5,0-0.8,0l0.2-2.6h2.3v0.3h-2l-0.1,1.9c0.3,0,0.4,0,0.6,0c0.6,0,1,0.1,1.3,0.4c0.3,0.3,0.4,0.7,0.4,1.2s-0.2,0.9-0.5,1.2
		s-0.8,0.5-1.3,0.5C54.4,246.4,54,246.3,53.7,246.2z"/>
	<path d="M58.7,243.5c-0.4,0-0.7-0.1-0.9-0.4s-0.3-0.6-0.3-1s0.1-0.8,0.4-1s0.6-0.4,0.9-0.4c0.4,0,0.7,0.1,0.9,0.4
		c0.2,0.2,0.3,0.6,0.3,1s-0.1,0.7-0.3,1C59.4,243.4,59.1,243.5,58.7,243.5z M58.8,241c-0.3,0-0.5,0.1-0.7,0.3s-0.3,0.5-0.3,0.8
		s0.1,0.6,0.2,0.8s0.4,0.3,0.7,0.3s0.5-0.1,0.7-0.3s0.2-0.5,0.2-0.8c0-0.4-0.1-0.6-0.2-0.8S59,241,58.8,241z M58.7,246.4h-0.4
		l3.3-5.6H62L58.7,246.4z M61.7,246.4c-0.4,0-0.7-0.1-0.9-0.4s-0.3-0.6-0.3-1s0.1-0.8,0.4-1c0.2-0.2,0.6-0.4,0.9-0.4
		c0.4,0,0.7,0.1,0.9,0.4c0.2,0.3,0.3,0.6,0.3,1s-0.1,0.7-0.3,1C62.4,246.2,62.1,246.4,61.7,246.4z M61.8,243.9
		c-0.3,0-0.5,0.1-0.7,0.3s-0.3,0.5-0.3,0.8s0.1,0.6,0.2,0.8s0.4,0.3,0.7,0.3s0.5-0.1,0.7-0.3s0.2-0.5,0.2-0.8c0-0.4-0.1-0.6-0.2-0.8
		S62,243.9,61.8,243.9z"/>
	<path d="M66,244.2v1.6h-0.3v-1.6h-1.6v-0.3h1.6v-1.6H66v1.6h1.6v0.3H66z"/>
	<path d="M69,246.2v-0.4c0.4,0.2,0.7,0.3,1,0.3c0.4,0,0.8-0.1,1-0.4c0.3-0.2,0.4-0.6,0.4-1c0-0.9-0.5-1.3-1.5-1.3
		c-0.2,0-0.5,0-0.8,0l0.2-2.6h2.3v0.3h-2l-0.1,1.9c0.3,0,0.4,0,0.6,0c0.6,0,1,0.1,1.3,0.4c0.3,0.3,0.4,0.7,0.4,1.2s-0.2,0.9-0.5,1.2
		s-0.8,0.5-1.3,0.5C69.6,246.4,69.3,246.3,69,246.2z"/>
	<path d="M74.4,246.4c-0.5,0-0.9-0.2-1.2-0.7s-0.4-1.1-0.4-2c0-1,0.1-1.7,0.4-2.2s0.7-0.7,1.3-0.7c1.1,0,1.6,0.9,1.6,2.8
		c0,0.9-0.1,1.6-0.4,2.1C75.3,246.1,74.9,246.4,74.4,246.4z M74.4,241c-0.4,0-0.7,0.2-1,0.6s-0.4,1.1-0.4,1.9c0,0.8,0.1,1.4,0.3,1.8
		c0.2,0.4,0.5,0.6,1,0.6c0.4,0,0.7-0.2,0.9-0.6s0.3-1,0.3-1.8C75.7,241.9,75.3,241,74.4,241z"/>
	<path d="M78,243.5c-0.4,0-0.7-0.1-0.9-0.4s-0.3-0.6-0.3-1s0.1-0.8,0.4-1s0.6-0.4,0.9-0.4c0.4,0,0.7,0.1,0.9,0.4
		c0.2,0.2,0.3,0.6,0.3,1s-0.1,0.7-0.3,1C78.7,243.4,78.4,243.5,78,243.5z M78,241c-0.3,0-0.5,0.1-0.7,0.3s-0.3,0.5-0.3,0.8
		s0.1,0.6,0.2,0.8s0.4,0.3,0.7,0.3c0.3,0,0.5-0.1,0.7-0.3s0.2-0.5,0.2-0.8c0-0.4-0.1-0.6-0.2-0.8S78.3,241,78,241z M78,246.4h-0.4
		l3.3-5.6h0.4L78,246.4z M81,246.4c-0.4,0-0.7-0.1-0.9-0.4s-0.3-0.6-0.3-1s0.1-0.8,0.4-1c0.2-0.2,0.6-0.4,0.9-0.4
		c0.4,0,0.7,0.1,0.9,0.4c0.2,0.3,0.3,0.6,0.3,1s-0.1,0.7-0.3,1C81.7,246.2,81.4,246.4,81,246.4z M81,243.9c-0.3,0-0.5,0.1-0.7,0.3
		S80,244.7,80,245s0.1,0.6,0.2,0.8s0.4,0.3,0.7,0.3c0.3,0,0.5-0.1,0.7-0.3s0.2-0.5,0.2-0.8c0-0.4-0.1-0.6-0.2-0.8
		S81.3,243.9,81,243.9z"/>
</g>
<g>
	<g>
		<g>
			<g>
				<g>
					<ellipse class="st33" cx="304.8" cy="283.3" rx="10.1" ry="4.3"/>
				</g>
			</g>
			<g>
				<g>
					<path class="st34" d="M294.8,280.8v2.1c0,1.8,2.5,3.3,6,3.9c0.8,0.2,1.7,0.3,2.7,0.3c0.4,0,0.9,0,1.3,0c1.4,0,2.8-0.1,4-0.4
						c3.6-0.7,5.4-2.2,5.4-4l0.6-2.2c-1.4-1.6-5.8-2-10.1-2C301.4,278.6,296.6,279.7,294.8,280.8z"/>
				</g>
			</g>
			<g class="st35">
				<g>
					<path class="st36" d="M300.8,283v3.8c0.8,0.2,1.7,0.3,2.7,0.3V283H300.8z"/>
				</g>
			</g>
			<g>
				<g>
					<path class="st37" d="M308.4,286.8v-8.1c2.9,0.2,5.4,0.7,6.5,1.9v2.3C314.9,284.6,312.2,286.2,308.4,286.8z"/>
				</g>
			</g>
			<g>
				<g>
					<ellipse class="st38" cx="304.8" cy="280.8" rx="10.1" ry="4.3"/>
				</g>
			</g>
			<g>
				<g>
					<path class="st36" d="M299.1,284.1c-1.7-0.5-3-1.3-3.6-2.1l8.1-5.3c0.5,0,0.9,0,1.4,0c1.7,0,3.3,0.2,4.8,0.5L299.1,284.1z"/>
				</g>
			</g>
			<g>
				<g>
					<path class="st36" d="M303.5,284.9c-0.8,0-1.6-0.1-2.3-0.3l10.5-6.9c0.6,0.2,1.1,0.5,1.6,0.8L303.5,284.9z"/>
				</g>
			</g>
		</g>
		<g>
			<g>
				<g>
					<ellipse class="st33" cx="304.8" cy="280.3" rx="10.1" ry="4.3"/>
				</g>
			</g>
			<g>
				<g>
					<path class="st34" d="M294.8,277.8v2.1c0,1.8,2.5,3.3,6,3.9c0.8,0.2,1.7,0.3,2.7,0.3c0.4,0,0.9,0,1.3,0c1.4,0,2.8-0.1,4-0.4
						c3.6-0.7,5.4-2.2,5.4-4l0.6-2.2c-1.4-1.6-5.8-2-10.1-2C301.4,275.6,296.6,276.7,294.8,277.8z"/>
				</g>
			</g>
			<g class="st35">
				<g>
					<path class="st36" d="M300.8,280v3.8c0.8,0.2,1.7,0.3,2.7,0.3V280H300.8z"/>
				</g>
			</g>
			<g>
				<g>
					<path class="st37" d="M308.4,283.9v-8.1c2.9,0.2,5.4,0.7,6.5,1.9v2.3C314.9,281.7,312.2,283.2,308.4,283.9z"/>
				</g>
			</g>
			<g>
				<g>
					<ellipse class="st38" cx="304.8" cy="277.8" rx="10.1" ry="4.3"/>
				</g>
			</g>
			<g>
				<g>
					<path class="st36" d="M299.1,281.2c-1.7-0.5-3-1.3-3.6-2.1l8.1-5.3c0.5,0,0.9,0,1.4,0c1.7,0,3.3,0.2,4.8,0.5L299.1,281.2z"/>
				</g>
			</g>
			<g>
				<g>
					<path class="st36" d="M303.5,281.9c-0.8,0-1.6-0.1-2.3-0.3l10.5-6.9c0.6,0.2,1.1,0.5,1.6,0.8L303.5,281.9z"/>
				</g>
			</g>
		</g>
		<g>
			<g>
				<g>
					<ellipse class="st33" cx="304.8" cy="277.3" rx="10.1" ry="4.3"/>
				</g>
			</g>
			<g>
				<g>
					<path class="st34" d="M294.8,274.9v2.1c0,1.8,2.5,3.3,6,3.9c0.8,0.2,1.7,0.3,2.7,0.3c0.4,0,0.9,0,1.3,0c1.4,0,2.8-0.1,4-0.4
						c3.6-0.7,5.4-2.2,5.4-4l0.6-2.2c-1.4-1.6-5.8-2-10.1-2C301.4,272.6,296.6,273.8,294.8,274.9z"/>
				</g>
			</g>
			<g class="st35">
				<g>
					<path class="st36" d="M300.8,277.1v3.8c0.8,0.2,1.7,0.3,2.7,0.3v-4.1L300.8,277.1L300.8,277.1z"/>
				</g>
			</g>
			<g>
				<g>
					<path class="st37" d="M308.4,280.9v-8.1c2.9,0.2,5.4,0.7,6.5,1.9v2.3C314.9,278.7,312.2,280.3,308.4,280.9z"/>
				</g>
			</g>
			<g>
				<g>
					<ellipse class="st38" cx="304.8" cy="274.9" rx="10.1" ry="4.3"/>
				</g>
			</g>
			<g>
				<g>
					<path class="st36" d="M299.1,278.2c-1.7-0.5-3-1.3-3.6-2.1l8.1-5.3c0.5,0,0.9,0,1.4,0c1.7,0,3.3,0.2,4.8,0.5L299.1,278.2z"/>
				</g>
			</g>
			<g>
				<g>
					<path class="st36" d="M303.5,279c-0.8,0-1.6-0.1-2.3-0.3l10.5-6.9c0.6,0.2,1.1,0.5,1.6,0.8L303.5,279z"/>
				</g>
			</g>
		</g>
		<g>
			<g>
				<g>
					<ellipse class="st33" cx="304.8" cy="274.4" rx="10.1" ry="4.3"/>
				</g>
			</g>
			<g>
				<g>
					<path class="st34" d="M294.8,271.9v2.1c0,1.8,2.5,3.3,6,3.9c0.8,0.2,1.7,0.3,2.7,0.3c0.4,0,0.9,0,1.3,0c1.4,0,2.8-0.1,4-0.4
						c3.6-0.7,5.4-2.2,5.4-4l0.6-2.2c-1.4-1.6-5.8-2-10.1-2C301.4,269.7,296.6,270.8,294.8,271.9z"/>
				</g>
			</g>
			<g class="st35">
				<g>
					<path class="st36" d="M300.8,274.1v3.8c0.8,0.2,1.7,0.3,2.7,0.3v-4.1L300.8,274.1L300.8,274.1z"/>
				</g>
			</g>
			<g>
				<g>
					<path class="st37" d="M308.4,277.9v-8.1c2.9,0.2,5.4,0.7,6.5,1.9v2.3C314.9,275.8,312.2,277.3,308.4,277.9z"/>
				</g>
			</g>
			<g>
				<g>
					<ellipse class="st38" cx="304.8" cy="271.9" rx="10.1" ry="4.3"/>
				</g>
			</g>
			<g>
				<g>
					<path class="st36" d="M299.1,275.2c-1.7-0.5-3-1.3-3.6-2.1l8.1-5.3c0.5,0,0.9,0,1.4,0c1.7,0,3.3,0.2,4.8,0.5L299.1,275.2z"/>
				</g>
			</g>
			<g>
				<g>
					<path class="st36" d="M303.5,276c-0.8,0-1.6-0.1-2.3-0.3l10.5-6.9c0.6,0.2,1.1,0.5,1.6,0.8L303.5,276z"/>
				</g>
			</g>
		</g>
		<g>
			<g>
				<g>
					<ellipse class="st33" cx="304.8" cy="271.4" rx="10.1" ry="4.3"/>
				</g>
			</g>
			<g>
				<g>
					<path class="st34" d="M294.8,268.9v2.1c0,1.8,2.5,3.3,6,3.9c0.8,0.2,1.7,0.3,2.7,0.3c0.4,0,0.9,0,1.3,0c1.4,0,2.8-0.1,4-0.4
						c3.6-0.7,5.4-2.2,5.4-4l0.6-2.2c-1.4-1.6-5.8-2-10.1-2C301.4,266.7,296.6,267.8,294.8,268.9z"/>
				</g>
			</g>
			<g class="st35">
				<g>
					<path class="st36" d="M300.8,271.1v3.8c0.8,0.2,1.7,0.3,2.7,0.3v-4.1L300.8,271.1L300.8,271.1z"/>
				</g>
			</g>
			<g>
				<g>
					<path class="st37" d="M308.4,275v-8.1c2.9,0.2,5.4,0.7,6.5,1.9v2.3C314.9,272.8,312.2,274.4,308.4,275z"/>
				</g>
			</g>
			<g>
				<g>
					<ellipse class="st38" cx="304.8" cy="268.9" rx="10.1" ry="4.3"/>
				</g>
			</g>
			<g>
				<g>
					<path class="st36" d="M299.1,272.3c-1.7-0.5-3-1.3-3.6-2.1l8.1-5.3c0.5,0,0.9,0,1.4,0c1.7,0,3.3,0.2,4.8,0.5L299.1,272.3z"/>
				</g>
			</g>
			<g>
				<g>
					<path class="st36" d="M303.5,273c-0.8,0-1.6-0.1-2.3-0.3l10.5-6.9c0.6,0.2,1.1,0.5,1.6,0.8L303.5,273z"/>
				</g>
			</g>
		</g>
		<g>
			<g>
				<g>
					<ellipse class="st33" cx="304.8" cy="268.5" rx="10.1" ry="4.3"/>
				</g>
			</g>
			<g>
				<g>
					<path class="st34" d="M294.8,266v2.1c0,1.8,2.5,3.3,6,3.9c0.8,0.2,1.7,0.3,2.7,0.3c0.4,0,0.9,0,1.3,0c1.4,0,2.8-0.1,4-0.4
						c3.6-0.7,5.4-2.2,5.4-4l0.6-2.2c-1.4-1.6-5.8-2-10.1-2C301.4,263.8,296.6,264.9,294.8,266z"/>
				</g>
			</g>
			<g class="st35">
				<g>
					<path class="st36" d="M300.8,268.2v3.8c0.8,0.2,1.7,0.3,2.7,0.3v-4.1L300.8,268.2L300.8,268.2z"/>
				</g>
			</g>
			<g>
				<g>
					<path class="st37" d="M308.4,272v-8.1c2.9,0.2,5.4,0.7,6.5,1.9v2.3C314.9,269.8,312.2,271.4,308.4,272z"/>
				</g>
			</g>
			<g>
				<g>
					<ellipse class="st38" cx="304.8" cy="266" rx="10.1" ry="4.3"/>
				</g>
			</g>
			<g>
				<g>
					<path class="st36" d="M299.1,269.3c-1.7-0.5-3-1.3-3.6-2.1l8.1-5.3c0.5,0,0.9,0,1.4,0c1.7,0,3.3,0.2,4.8,0.5L299.1,269.3z"/>
				</g>
			</g>
			<g>
				<g>
					<path class="st36" d="M303.5,270.1c-0.8,0-1.6-0.1-2.3-0.3l10.5-6.9c0.6,0.2,1.1,0.5,1.6,0.8L303.5,270.1z"/>
				</g>
			</g>
		</g>
		<g>
			<g>
				<g>
					<ellipse class="st33" cx="304.8" cy="265.5" rx="10.1" ry="4.3"/>
				</g>
			</g>
			<g>
				<g>
					<path class="st34" d="M294.8,263v2.1c0,1.8,2.5,3.3,6,3.9c0.8,0.2,1.7,0.3,2.7,0.3c0.4,0,0.9,0,1.3,0c1.4,0,2.8-0.1,4-0.4
						c3.6-0.7,5.4-2.2,5.4-4l0.6-2.2c-1.4-1.6-5.8-2-10.1-2C301.4,260.8,296.6,261.9,294.8,263z"/>
				</g>
			</g>
			<g class="st35">
				<g>
					<path class="st36" d="M300.8,265.2v3.8c0.8,0.2,1.7,0.3,2.7,0.3v-4.1L300.8,265.2L300.8,265.2z"/>
				</g>
			</g>
			<g>
				<g>
					<path class="st37" d="M308.4,269.1V261c2.9,0.2,5.4,0.7,6.5,1.9v2.3C314.9,266.9,312.2,268.4,308.4,269.1z"/>
				</g>
			</g>
			<g>
				<g>
					<ellipse class="st38" cx="304.8" cy="263" rx="10.1" ry="4.3"/>
				</g>
			</g>
			<g>
				<g>
					<path class="st36" d="M299.1,266.4c-1.7-0.5-3-1.3-3.6-2.1l8.1-5.3c0.5,0,0.9,0,1.4,0c1.7,0,3.3,0.2,4.8,0.5L299.1,266.4z"/>
				</g>
			</g>
			<g>
				<g>
					<path class="st36" d="M303.5,267.1c-0.8,0-1.6-0.1-2.3-0.3l10.5-6.9c0.6,0.2,1.1,0.5,1.6,0.8L303.5,267.1z"/>
				</g>
			</g>
		</g>
		<g>
			<g>
				<g>
					<ellipse class="st33" cx="304.8" cy="262.6" rx="10.1" ry="4.3"/>
				</g>
			</g>
			<g>
				<g>
					<path class="st34" d="M294.8,260.1v2.1c0,1.8,2.5,3.3,6,3.9c0.8,0.2,1.7,0.3,2.7,0.3c0.4,0,0.9,0,1.3,0c1.4,0,2.8-0.1,4-0.4
						c3.6-0.7,5.4-2.2,5.4-4l0.6-2.2c-1.4-1.6-5.8-2-10.1-2C301.4,257.8,296.6,259,294.8,260.1z"/>
				</g>
			</g>
			<g class="st35">
				<g>
					<path class="st36" d="M300.8,262.3v3.8c0.8,0.2,1.7,0.3,2.7,0.3v-4.1L300.8,262.3L300.8,262.3z"/>
				</g>
			</g>
			<g>
				<g>
					<path class="st37" d="M308.4,266.1V258c2.9,0.2,5.4,0.7,6.5,1.9v2.3C314.9,263.9,312.2,265.5,308.4,266.1z"/>
				</g>
			</g>
			<g>
				<g>
					<ellipse class="st38" cx="304.8" cy="260.1" rx="10.1" ry="4.3"/>
				</g>
			</g>
			<g>
				<g>
					<path class="st36" d="M299.1,263.4c-1.7-0.5-3-1.3-3.6-2.1l8.1-5.3c0.5,0,0.9,0,1.4,0c1.7,0,3.3,0.2,4.8,0.5L299.1,263.4z"/>
				</g>
			</g>
			<g>
				<g>
					<path class="st36" d="M303.5,264.2c-0.8,0-1.6-0.1-2.3-0.3l10.5-6.9c0.6,0.2,1.1,0.5,1.6,0.8L303.5,264.2z"/>
				</g>
			</g>
		</g>
		<g>
			<g>
				<g>
					<ellipse class="st33" cx="304.8" cy="259.6" rx="10.1" ry="4.3"/>
				</g>
			</g>
			<g>
				<g>
					<path class="st34" d="M294.8,257.1v2.1c0,1.8,2.5,3.3,6,3.9c0.8,0.2,1.7,0.3,2.7,0.3c0.4,0,0.9,0,1.3,0c1.4,0,2.8-0.1,4-0.4
						c3.6-0.7,5.4-2.2,5.4-4l0.6-2.2c-1.4-1.6-5.8-2-10.1-2C301.4,254.9,296.6,256,294.8,257.1z"/>
				</g>
			</g>
			<g class="st35">
				<g>
					<path class="st36" d="M300.8,259.3v3.8c0.8,0.2,1.7,0.3,2.7,0.3v-4.1L300.8,259.3L300.8,259.3z"/>
				</g>
			</g>
			<g>
				<g>
					<path class="st37" d="M308.4,263.1V255c2.9,0.2,5.4,0.7,6.5,1.9v2.3C314.9,261,312.2,262.5,308.4,263.1z"/>
				</g>
			</g>
			<g>
				<g>
					<ellipse class="st38" cx="304.8" cy="257.1" rx="10.1" ry="4.3"/>
				</g>
			</g>
			<g>
				<g>
					<path class="st36" d="M299.1,260.4c-1.7-0.5-3-1.3-3.6-2.1l8.1-5.3c0.5,0,0.9,0,1.4,0c1.7,0,3.3,0.2,4.8,0.5L299.1,260.4z"/>
				</g>
			</g>
			<g>
				<g>
					<path class="st36" d="M303.5,261.2c-0.8,0-1.6-0.1-2.3-0.3l10.5-6.9c0.6,0.2,1.1,0.5,1.6,0.8L303.5,261.2z"/>
				</g>
			</g>
		</g>
		<g>
			<g>
				<g>
					<ellipse class="st33" cx="304.8" cy="256.6" rx="10.1" ry="4.3"/>
				</g>
			</g>
			<g>
				<g>
					<path class="st34" d="M294.8,254.1v2.1c0,1.8,2.5,3.3,6,3.9c0.8,0.2,1.7,0.3,2.7,0.3c0.4,0,0.9,0,1.3,0c1.4,0,2.8-0.1,4-0.4
						c3.6-0.7,5.4-2.2,5.4-4l0.6-2.2c-1.4-1.6-5.8-2-10.1-2C301.4,251.9,296.6,253,294.8,254.1z"/>
				</g>
			</g>
			<g class="st35">
				<g>
					<path class="st36" d="M300.8,256.3v3.8c0.8,0.2,1.7,0.3,2.7,0.3v-4.1L300.8,256.3L300.8,256.3z"/>
				</g>
			</g>
			<g>
				<g>
					<path class="st37" d="M308.4,260.2V252c2.9,0.2,5.4,0.7,6.5,1.9v2.3C314.9,258,312.2,259.6,308.4,260.2z"/>
				</g>
			</g>
			<g>
				<g>
					<ellipse class="st38" cx="304.8" cy="254.1" rx="10.1" ry="4.3"/>
				</g>
			</g>
			<g>
				<g>
					<path class="st36" d="M299.1,257.5c-1.7-0.5-3-1.3-3.6-2.1l8.1-5.3c0.5,0,0.9,0,1.4,0c1.7,0,3.3,0.2,4.8,0.5L299.1,257.5z"/>
				</g>
			</g>
			<g>
				<g>
					<path class="st36" d="M303.5,258.2c-0.8,0-1.6-0.1-2.3-0.3l10.5-6.9c0.6,0.2,1.1,0.5,1.6,0.8L303.5,258.2z"/>
				</g>
			</g>
		</g>
		<g>
			<g>
				<g>
					<ellipse class="st33" cx="304.8" cy="253.7" rx="10.1" ry="4.3"/>
				</g>
			</g>
			<g>
				<g>
					<path class="st34" d="M294.8,251.2v2.1c0,1.8,2.5,3.3,6,3.9c0.8,0.2,1.7,0.3,2.7,0.3c0.4,0,0.9,0,1.3,0c1.4,0,2.8-0.1,4-0.4
						c3.6-0.7,5.4-2.2,5.4-4l0.6-2.2c-1.4-1.6-5.8-2-10.1-2C301.4,249,296.6,250.1,294.8,251.2z"/>
				</g>
			</g>
			<g class="st35">
				<g>
					<path class="st36" d="M300.8,253.4v3.8c0.8,0.2,1.7,0.3,2.7,0.3v-4.1L300.8,253.4L300.8,253.4z"/>
				</g>
			</g>
			<g>
				<g>
					<path class="st37" d="M308.4,257.2v-8.1c2.9,0.2,5.4,0.7,6.5,1.9v2.3C314.9,255,312.2,256.6,308.4,257.2z"/>
				</g>
			</g>
			<g>
				<g>
					<ellipse class="st38" cx="304.8" cy="251.2" rx="10.1" ry="4.3"/>
				</g>
			</g>
			<g>
				<g>
					<path class="st36" d="M299.1,254.5c-1.7-0.5-3-1.3-3.6-2.1l8.1-5.3c0.5,0,0.9,0,1.4,0c1.7,0,3.3,0.2,4.8,0.5L299.1,254.5z"/>
				</g>
			</g>
			<g>
				<g>
					<path class="st36" d="M303.5,255.3c-0.8,0-1.6-0.1-2.3-0.3l10.5-6.9c0.6,0.2,1.1,0.5,1.6,0.8L303.5,255.3z"/>
				</g>
			</g>
		</g>
		<g>
			<g>
				<g>
					<ellipse class="st33" cx="304.8" cy="250.7" rx="10.1" ry="4.3"/>
				</g>
			</g>
			<g>
				<g>
					<path class="st34" d="M294.8,248.2v2.1c0,1.8,2.5,3.3,6,3.9c0.8,0.2,1.7,0.3,2.7,0.3c0.4,0,0.9,0,1.3,0c1.4,0,2.8-0.1,4-0.4
						c3.6-0.7,5.4-2.2,5.4-4l0.6-2.2c-1.4-1.6-5.8-2-10.1-2C301.4,246,296.6,247.1,294.8,248.2z"/>
				</g>
			</g>
			<g class="st35">
				<g>
					<path class="st36" d="M300.8,250.4v3.8c0.8,0.2,1.7,0.3,2.7,0.3v-4.1H300.8z"/>
				</g>
			</g>
			<g>
				<g>
					<path class="st37" d="M308.4,254.3v-8.1c2.9,0.2,5.4,0.7,6.5,1.9v2.3C314.9,252.1,312.2,253.6,308.4,254.3z"/>
				</g>
			</g>
			<g>
				<g>
					<ellipse class="st38" cx="304.8" cy="248.2" rx="10.1" ry="4.3"/>
				</g>
			</g>
			<g>
				<g>
					<path class="st36" d="M299.1,251.6c-1.7-0.5-3-1.3-3.6-2.1l8.1-5.3c0.5,0,0.9,0,1.4,0c1.7,0,3.3,0.2,4.8,0.5L299.1,251.6z"/>
				</g>
			</g>
			<g>
				<g>
					<path class="st36" d="M303.5,252.3c-0.8,0-1.6-0.1-2.3-0.3l10.5-6.9c0.6,0.2,1.1,0.5,1.6,0.8L303.5,252.3z"/>
				</g>
			</g>
		</g>
		<g>
			<g>
				<g>
					<ellipse class="st33" cx="304.8" cy="247.8" rx="10.1" ry="4.3"/>
				</g>
			</g>
			<g>
				<g>
					<path class="st34" d="M294.8,245.3v2.1c0,1.8,2.5,3.3,6,3.9c0.8,0.2,1.7,0.3,2.7,0.3c0.4,0,0.9,0,1.3,0c1.4,0,2.8-0.1,4-0.4
						c3.6-0.7,5.4-2.2,5.4-4l0.6-2.2c-1.4-1.6-5.8-2-10.1-2C301.4,243,296.6,244.2,294.8,245.3z"/>
				</g>
			</g>
			<g class="st35">
				<g>
					<path class="st36" d="M300.8,247.5v3.8c0.8,0.2,1.7,0.3,2.7,0.3v-4.1H300.8z"/>
				</g>
			</g>
			<g>
				<g>
					<path class="st37" d="M308.4,251.3v-8.1c2.9,0.2,5.4,0.7,6.5,1.9v2.3C314.9,249.1,312.2,250.7,308.4,251.3z"/>
				</g>
			</g>
			<g>
				<g>
					<ellipse class="st38" cx="304.8" cy="245.3" rx="10.1" ry="4.3"/>
				</g>
			</g>
		</g>
	</g>
	<g>
		<g>
			<g>
				<g>
					
						<ellipse transform="matrix(2.091940e-02 -0.9998 0.9998 2.091940e-02 -15.9426 541.0541)" class="st33" cx="268.3" cy="278.7" rx="4.3" ry="10.1"/>
				</g>
			</g>
			<g>
				<g>
					<path class="st34" d="M258.3,276v2.1c0,1.8,2.4,3.3,6,4c0.8,0.2,1.7,0.3,2.7,0.4c0.4,0,0.9,0.1,1.3,0.1c1.4,0,2.8-0.1,4-0.3
						c3.6-0.6,5.5-2.1,5.5-3.8l0.7-2.2c-1.4-1.6-5.7-2.1-10-2.2C265,273.9,260.1,274.9,258.3,276z"/>
				</g>
			</g>
			<g class="st35">
				<g>
					<path class="st36" d="M264.3,278.3l-0.1,3.8c0.8,0.2,1.7,0.3,2.7,0.4l0.1-4.1L264.3,278.3z"/>
				</g>
			</g>
			<g>
				<g>
					<path class="st37" d="M271.8,282.3l0.2-8.1c2.9,0.3,5.4,0.9,6.4,2v2.3C278.3,280.3,275.6,281.8,271.8,282.3z"/>
				</g>
			</g>
			<g>
				<g>
					
						<ellipse transform="matrix(2.091647e-02 -0.9998 0.9998 2.091647e-02 -13.3935 538.7137)" class="st38" cx="268.4" cy="276.2" rx="4.3" ry="10.1"/>
				</g>
			</g>
			<g>
				<g>
					<path class="st36" d="M262.5,279.4c-1.7-0.6-3-1.3-3.6-2.2l8.2-5.2c0.3,0,0.6,0,0.9,0c0.2,0,0.3,0,0.5,0c1.7,0,3.3,0.2,4.7,0.6
						L262.5,279.4z"/>
				</g>
			</g>
			<g>
				<g>
					<path class="st36" d="M267,280.3c-0.8-0.1-1.6-0.2-2.3-0.3l10.6-6.7c0.6,0.2,1.1,0.5,1.6,0.8L267,280.3z"/>
				</g>
			</g>
		</g>
		<g>
			<g>
				<g>
					
						<ellipse transform="matrix(2.091940e-02 -0.9998 0.9998 2.091940e-02 -13.0055 538.2139)" class="st33" cx="268.3" cy="275.7" rx="4.3" ry="10.1"/>
				</g>
			</g>
			<g>
				<g>
					<path class="st34" d="M258.3,273v2.1c0,1.8,2.4,3.3,6,4c0.8,0.2,1.7,0.3,2.7,0.4c0.4,0,0.9,0.1,1.3,0.1c1.4,0,2.8-0.1,4-0.3
						c3.6-0.6,5.5-2.1,5.5-3.8l0.7-2.2c-1.4-1.6-5.7-2.1-10-2.2C265,271,260.1,272,258.3,273z"/>
				</g>
			</g>
			<g class="st35">
				<g>
					<path class="st36" d="M264.3,275.4l-0.1,3.8c0.8,0.2,1.7,0.3,2.7,0.4l0.1-4.1L264.3,275.4z"/>
				</g>
			</g>
			<g>
				<g>
					<path class="st37" d="M271.8,279.4l0.2-8.1c2.9,0.3,5.4,0.9,6.4,2v2.3C278.3,277.3,275.6,278.8,271.8,279.4z"/>
				</g>
			</g>
			<g>
				<g>
					
						<ellipse transform="matrix(2.091647e-02 -0.9998 0.9998 2.091647e-02 -10.3565 535.7797)" class="st38" cx="268.4" cy="273.2" rx="4.3" ry="10.1"/>
				</g>
			</g>
			<g>
				<g>
					<path class="st36" d="M262.5,276.5c-1.7-0.6-3-1.3-3.6-2.2l8.2-5.2c0.3,0,0.6,0,0.9,0c0.2,0,0.3,0,0.5,0c1.7,0,3.3,0.2,4.7,0.6
						L262.5,276.5z"/>
				</g>
			</g>
			<g>
				<g>
					<path class="st36" d="M267,277.3c-0.8-0.1-1.6-0.2-2.3-0.3l10.6-6.7c0.6,0.2,1.1,0.5,1.6,0.8L267,277.3z"/>
				</g>
			</g>
		</g>
		<g>
			<g>
				<g>
					
						<ellipse transform="matrix(2.091940e-02 -0.9998 0.9998 2.091940e-02 -9.9685 535.2798)" class="st33" cx="268.3" cy="272.7" rx="4.3" ry="10.1"/>
				</g>
			</g>
			<g>
				<g>
					<path class="st34" d="M258.3,270.1v2.1c0,1.8,2.4,3.3,6,4c0.8,0.2,1.7,0.3,2.7,0.4c0.4,0,0.9,0.1,1.3,0.1c1.4,0,2.8-0.1,4-0.3
						c3.6-0.6,5.5-2.1,5.5-3.8l0.7-2.2c-1.4-1.6-5.7-2.1-10-2.2C265,268,260.1,269,258.3,270.1z"/>
				</g>
			</g>
			<g class="st35">
				<g>
					<path class="st36" d="M264.3,272.4l-0.1,3.8c0.8,0.2,1.7,0.3,2.7,0.4l0.1-4.1L264.3,272.4z"/>
				</g>
			</g>
			<g>
				<g>
					<path class="st37" d="M271.8,276.4l0.2-8.1c2.9,0.3,5.4,0.9,6.4,2v2.3C278.3,274.4,275.6,275.9,271.8,276.4z"/>
				</g>
			</g>
			<g>
				<g>
					
						<ellipse transform="matrix(2.091647e-02 -0.9998 0.9998 2.091647e-02 -7.4193 532.9395)" class="st38" cx="268.4" cy="270.3" rx="4.3" ry="10.1"/>
				</g>
			</g>
			<g>
				<g>
					<path class="st36" d="M267,274.4c-0.8-0.1-1.6-0.2-2.3-0.3l10.6-6.7c0.6,0.2,1.1,0.5,1.6,0.8L267,274.4z"/>
				</g>
			</g>
		</g>
		<g>
			<g>
				<g>
					
						<ellipse transform="matrix(2.091940e-02 -0.9998 0.9998 2.091940e-02 -7.127 532.3375)" class="st33" cx="268.2" cy="269.8" rx="4.3" ry="10.1"/>
				</g>
			</g>
			<g>
				<g>
					<path class="st34" d="M258.3,267.1v2.1c0,1.8,2.4,3.3,6,4c0.8,0.2,1.7,0.3,2.7,0.4c0.4,0,0.9,0.1,1.3,0.1c1.4,0,2.8-0.1,4-0.3
						c3.6-0.6,5.5-2.1,5.5-3.8l0.7-2.2c-1.4-1.6-5.7-2.1-10-2.2C265,265,260.1,266.1,258.3,267.1z"/>
				</g>
			</g>
			<g class="st35">
				<g>
					<path class="st36" d="M264.3,269.5l-0.1,3.8c0.8,0.2,1.7,0.3,2.7,0.4l0.1-4.1L264.3,269.5z"/>
				</g>
			</g>
			<g>
				<g>
					<path class="st37" d="M271.8,273.4l0.2-8.1c2.9,0.3,5.4,0.9,6.4,2v2.3C278.3,271.4,275.6,272.9,271.8,273.4z"/>
				</g>
			</g>
			<g>
				<g>
					
						<ellipse transform="matrix(2.091647e-02 -0.9998 0.9998 2.091647e-02 -4.4819 530.0993)" class="st38" cx="268.4" cy="267.3" rx="4.3" ry="10.1"/>
				</g>
			</g>
		</g>
	</g>
	<g>
		<g>
			<g>
				<g>
					<ellipse class="st33" cx="283.6" cy="294.8" rx="10.1" ry="4.3"/>
				</g>
			</g>
			<g>
				<g>
					<path class="st34" d="M273.5,292.3v2.1c0,1.8,2.5,3.3,6,3.9c0.8,0.2,1.7,0.3,2.7,0.3c0.4,0,0.9,0,1.3,0c1.4,0,2.8-0.1,4-0.4
						c3.6-0.7,5.4-2.2,5.4-4l0.6-2.2c-1.4-1.6-5.8-2-10.1-2C280.2,290.1,275.3,291.2,273.5,292.3z"/>
				</g>
			</g>
			<g class="st35">
				<g>
					<path class="st36" d="M279.6,294.5v3.8c0.8,0.2,1.7,0.3,2.7,0.3v-4.1L279.6,294.5L279.6,294.5z"/>
				</g>
			</g>
			<g>
				<g>
					<path class="st37" d="M287.2,298.3v-8.1c2.9,0.2,5.4,0.7,6.5,1.9v2.3C293.6,296.1,291,297.7,287.2,298.3z"/>
				</g>
			</g>
			<g>
				<g>
					<ellipse class="st38" cx="283.6" cy="292.3" rx="10.1" ry="4.3"/>
				</g>
			</g>
			<g>
				<g>
					<path class="st36" d="M277.8,295.6c-1.7-0.5-3-1.3-3.6-2.1l8.1-5.3c0.5,0,0.9,0,1.4,0c1.7,0,3.3,0.2,4.8,0.5L277.8,295.6z"/>
				</g>
			</g>
			<g>
				<g>
					<path class="st36" d="M282.3,296.4c-0.8,0-1.6-0.1-2.3-0.3l10.5-6.9c0.6,0.2,1.1,0.5,1.6,0.8L282.3,296.4z"/>
				</g>
			</g>
		</g>
		<g>
			<g>
				<g>
					<ellipse class="st33" cx="283.6" cy="291.8" rx="10.1" ry="4.3"/>
				</g>
			</g>
			<g>
				<g>
					<path class="st34" d="M273.5,289.3v2.1c0,1.8,2.5,3.3,6,3.9c0.8,0.2,1.7,0.3,2.7,0.3c0.4,0,0.9,0,1.3,0c1.4,0,2.8-0.1,4-0.4
						c3.6-0.7,5.4-2.2,5.4-4l0.6-2.2c-1.4-1.6-5.8-2-10.1-2C280.2,287.1,275.3,288.2,273.5,289.3z"/>
				</g>
			</g>
			<g class="st35">
				<g>
					<path class="st36" d="M279.6,291.5v3.8c0.8,0.2,1.7,0.3,2.7,0.3v-4.1L279.6,291.5L279.6,291.5z"/>
				</g>
			</g>
			<g>
				<g>
					<path class="st37" d="M287.2,295.3v-8.1c2.9,0.2,5.4,0.7,6.5,1.9v2.3C293.6,293.2,291,294.7,287.2,295.3z"/>
				</g>
			</g>
			<g>
				<g>
					<ellipse class="st38" cx="283.6" cy="289.3" rx="10.1" ry="4.3"/>
				</g>
			</g>
			<g>
				<g>
					<path class="st36" d="M277.8,292.7c-1.7-0.5-3-1.3-3.6-2.1l8.1-5.3c0.5,0,0.9,0,1.4,0c1.7,0,3.3,0.2,4.8,0.5L277.8,292.7z"/>
				</g>
			</g>
			<g>
				<g>
					<path class="st36" d="M282.3,293.4c-0.8,0-1.6-0.1-2.3-0.3l10.5-6.9c0.6,0.2,1.1,0.5,1.6,0.8L282.3,293.4z"/>
				</g>
			</g>
		</g>
		<g>
			<g>
				<g>
					<ellipse class="st33" cx="283.6" cy="288.8" rx="10.1" ry="4.3"/>
				</g>
			</g>
			<g>
				<g>
					<path class="st34" d="M273.5,286.3v2.1c0,1.8,2.5,3.3,6,3.9c0.8,0.2,1.7,0.3,2.7,0.3c0.4,0,0.9,0,1.3,0c1.4,0,2.8-0.1,4-0.4
						c3.6-0.7,5.4-2.2,5.4-4l0.6-2.2c-1.4-1.6-5.8-2-10.1-2C280.2,284.1,275.3,285.3,273.5,286.3z"/>
				</g>
			</g>
			<g class="st35">
				<g>
					<path class="st36" d="M279.6,288.6v3.8c0.8,0.2,1.7,0.3,2.7,0.3v-4.1L279.6,288.6L279.6,288.6z"/>
				</g>
			</g>
			<g>
				<g>
					<path class="st37" d="M287.2,292.4v-8.1c2.9,0.2,5.4,0.7,6.5,1.9v2.3C293.6,290.2,291,291.8,287.2,292.4z"/>
				</g>
			</g>
			<g>
				<g>
					<ellipse class="st38" cx="283.6" cy="286.4" rx="10.1" ry="4.3"/>
				</g>
			</g>
			<g>
				<g>
					<path class="st36" d="M277.8,289.7c-1.7-0.5-3-1.3-3.6-2.1l8.1-5.3c0.5,0,0.9,0,1.4,0c1.7,0,3.3,0.2,4.8,0.5L277.8,289.7z"/>
				</g>
			</g>
			<g>
				<g>
					<path class="st36" d="M282.3,290.5c-0.8,0-1.6-0.1-2.3-0.3l10.5-6.9c0.6,0.2,1.1,0.5,1.6,0.8L282.3,290.5z"/>
				</g>
			</g>
		</g>
		<g>
			<g>
				<g>
					<ellipse class="st33" cx="283.6" cy="285.9" rx="10.1" ry="4.3"/>
				</g>
			</g>
			<g>
				<g>
					<path class="st34" d="M273.5,283.4v2.1c0,1.8,2.5,3.3,6,3.9c0.8,0.2,1.7,0.3,2.7,0.3c0.4,0,0.9,0,1.3,0c1.4,0,2.8-0.1,4-0.4
						c3.6-0.7,5.4-2.2,5.4-4l0.6-2.2c-1.4-1.6-5.8-2-10.1-2C280.2,281.2,275.3,282.3,273.5,283.4z"/>
				</g>
			</g>
			<g class="st35">
				<g>
					<path class="st36" d="M279.6,285.6v3.8c0.8,0.2,1.7,0.3,2.7,0.3v-4.1L279.6,285.6L279.6,285.6z"/>
				</g>
			</g>
			<g>
				<g>
					<path class="st37" d="M287.2,289.4v-8.1c2.9,0.2,5.4,0.7,6.5,1.9v2.3C293.6,287.3,291,288.8,287.2,289.4z"/>
				</g>
			</g>
			<g>
				<g>
					<ellipse class="st38" cx="283.6" cy="283.4" rx="10.1" ry="4.3"/>
				</g>
			</g>
			<g>
				<g>
					<path class="st36" d="M277.8,286.7c-1.7-0.5-3-1.3-3.6-2.1l8.1-5.3c0.5,0,0.9,0,1.4,0c1.7,0,3.3,0.2,4.8,0.5L277.8,286.7z"/>
				</g>
			</g>
			<g>
				<g>
					<path class="st36" d="M282.3,287.5c-0.8,0-1.6-0.1-2.3-0.3l10.5-6.9c0.6,0.2,1.1,0.5,1.6,0.8L282.3,287.5z"/>
				</g>
			</g>
		</g>
		<g>
			<g>
				<g>
					<ellipse class="st33" cx="283.6" cy="282.9" rx="10.1" ry="4.3"/>
				</g>
			</g>
			<g>
				<g>
					<path class="st34" d="M273.5,280.4v2.1c0,1.8,2.5,3.3,6,3.9c0.8,0.2,1.7,0.3,2.7,0.3c0.4,0,0.9,0,1.3,0c1.4,0,2.8-0.1,4-0.4
						c3.6-0.7,5.4-2.2,5.4-4l0.6-2.2c-1.4-1.6-5.8-2-10.1-2C280.2,278.2,275.3,279.3,273.5,280.4z"/>
				</g>
			</g>
			<g class="st35">
				<g>
					<path class="st36" d="M279.6,282.6v3.8c0.8,0.2,1.7,0.3,2.7,0.3v-4.1L279.6,282.6L279.6,282.6z"/>
				</g>
			</g>
			<g>
				<g>
					<path class="st37" d="M287.2,286.5v-8.1c2.9,0.2,5.4,0.7,6.5,1.9v2.3C293.6,284.3,291,285.8,287.2,286.5z"/>
				</g>
			</g>
			<g>
				<g>
					<ellipse class="st38" cx="283.6" cy="280.4" rx="10.1" ry="4.3"/>
				</g>
			</g>
			<g>
				<g>
					<path class="st36" d="M277.8,283.8c-1.7-0.5-3-1.3-3.6-2.1l8.1-5.3c0.5,0,0.9,0,1.4,0c1.7,0,3.3,0.2,4.8,0.5L277.8,283.8z"/>
				</g>
			</g>
			<g>
				<g>
					<path class="st36" d="M282.3,284.5c-0.8,0-1.6-0.1-2.3-0.3l10.5-6.9c0.6,0.2,1.1,0.5,1.6,0.8L282.3,284.5z"/>
				</g>
			</g>
		</g>
		<g>
			<g>
				<g>
					<ellipse class="st33" cx="283.6" cy="280" rx="10.1" ry="4.3"/>
				</g>
			</g>
			<g>
				<g>
					<path class="st34" d="M273.5,277.5v2.1c0,1.8,2.5,3.3,6,3.9c0.8,0.2,1.7,0.3,2.7,0.3c0.4,0,0.9,0,1.3,0c1.4,0,2.8-0.1,4-0.4
						c3.6-0.7,5.4-2.2,5.4-4l0.6-2.2c-1.4-1.6-5.8-2-10.1-2C280.2,275.3,275.3,276.4,273.5,277.5z"/>
				</g>
			</g>
			<g class="st35">
				<g>
					<path class="st36" d="M279.6,279.7v3.8c0.8,0.2,1.7,0.3,2.7,0.3v-4.1L279.6,279.7L279.6,279.7z"/>
				</g>
			</g>
			<g>
				<g>
					<path class="st37" d="M287.2,283.5v-8.1c2.9,0.2,5.4,0.7,6.5,1.9v2.3C293.6,281.3,291,282.9,287.2,283.5z"/>
				</g>
			</g>
			<g>
				<g>
					<ellipse class="st38" cx="283.6" cy="277.5" rx="10.1" ry="4.3"/>
				</g>
			</g>
		</g>
	</g>
</g>
<g>
	<g>
		<g>
			<path class="st39" d="M516.1,273.6c0,1.1-0.9,2-2,2h-28.9c-1.1,0-2-0.9-2-2v-23.7c0-1.1,0.9-2,2-2h28.9c1.1,0,2,0.9,2,2V273.6z"
				/>
		</g>
	</g>
	<g>
		<g>
			<path class="st40" d="M490.9,247.9v-3.7c0-4.7,3.8-8.5,8.6-8.5h0.3c4.7,0,8.6,3.8,8.6,8.5v3.7h4.1v-3.7c0-6.9-5.7-12.6-12.7-12.6
				h-0.3c-7,0-12.7,5.6-12.7,12.6v3.7H490.9z"/>
		</g>
	</g>
	<g>
		<g>
			<g>
				<g>
					<g>
						<g>
							<g>
								<g>
									<path class="st41" d="M504.2,259.3c0-2.5-2-4.5-4.6-4.5c-2.5,0-4.6,2-4.6,4.5c0,2,1.2,3.6,3,4.2v6h3.1v-6
										C503,262.9,504.2,261.3,504.2,259.3z"/>
								</g>
							</g>
						</g>
					</g>
				</g>
			</g>
		</g>
	</g>
</g>
<text transform="matrix(1 0 0 1 256.6667 384.6)" class="st42 st43 st44">Bank rents</text>
<text transform="matrix(1 0 0 1 3.3 384.6)" class="st42 st43 st45">5% + 50% extra dividend</text>
<text transform="matrix(1 0 0 1 468.9 385.6)" class="st42 st43 st45">100% security</text>
</svg>
