<?xml version="1.0" encoding="utf-8"?>
<!-- Generator: Adobe Illustrator 22.0.0, SVG Export Plug-In . SVG Version: 6.00 Build 0)  -->
<svg version="1.1" id="图层_1" xmlns="http://www.w3.org/2000/svg" xmlns:xlink="http://www.w3.org/1999/xlink" x="0px" y="0px"
	 viewBox="0 0 1028 462" style="enable-background:new 0 0 1028 462;" xml:space="preserve">
<style type="text/css">
	.st0{opacity:0.15;enable-background:new    ;}
	.st1{fill:#070707;}
	.st2{fill:#8C6F49;}
	.st3{fill:#E0B153;}
	.st4{fill:#CCA560;}
	.st5{fill:#EDB85A;}
	.st6{fill:#DCE5E7;}
	.st7{fill:#7F6641;}
	.st8{fill:#96794B;}
	.st9{fill:#FFD473;}
	.st10{fill:#F0FAFA;}
	.st11{opacity:0.6;}
	.st12{fill:#FFFFFF;}
</style>
<g id="XMLID_6_" class="st0">
	<path class="st1" d="M667.2,325.4c-30.3,36.7-100.9,62.5-183.3,62.5c-78.4,0-146.1-23.3-178.6-57.2c-13.1,11.8-20.4,25.1-20.4,39.2
		c0,49.7,91.6,90,204.5,90s204.5-40.3,204.5-90C693.9,353.7,684.2,338.5,667.2,325.4z"/>
</g>
<g id="XMLID_158_">
	<path class="st2" d="M619.5,278.1V131.4c-24-4.4-50.2-6.8-77.7-6.8v141C571.3,265.6,598.4,270.3,619.5,278.1z"/>
</g>
<g id="XMLID_157_">
	<path class="st3" d="M691.7,272.5v8.7c-7.1-23.1-33.5-8.6-71.6-22.9c-16-6-34-23.1-53.6-26.7v55c0.1,0.1,0.3,0.1,0.5,0.2
		c26.8,10,43.8,25.1,43.8,41.9c0,19.3-22.5,20.8-56.4,30.5v56.4c81-12.3,139.3-46.5,139.3-86.9v-56.2H691.7z"/>
</g>
<g id="XMLID_156_">
	<polygon class="st4" points="527.8,325.1 527.8,377.2 554.3,415.6 554.3,360.3 	"/>
</g>
<g id="XMLID_155_">
	<path class="st3" d="M488.8,274.1V83.9c-75.2,0-140.9,18.1-176.5,45.2v200.6h54.6c0-0.3,0-0.7,0-1
		C366.8,298.5,421.4,274.1,488.8,274.1z"/>
</g>
<g id="XMLID_154_">
	<polygon class="st5" points="383.7,192 383.7,340.6 312.3,375.3 312.3,209 	"/>
</g>
<g id="XMLID_153_">
	<path class="st6" d="M527.8,380.4c-12.3,1.9-25.4,2.9-39,2.9c-0.9,0-1.9,0-2.8,0c-0.6,0-1.3,0-1.9,0
		c-42.8-0.7-79.9-11.3-100.3-26.8c-10.4-7.9-16.4-7.1-16.8-16.9L312.3,354v21.3c34.9,26.5,98.6,44.4,171.8,45.1
		c1.6,0,3.1,0.1,4.7,0.1c22.9,0,45-1.7,65.6-4.8v-21.3C546.1,396.7,537.2,379,527.8,380.4z"/>
</g>
<g id="XMLID_152_">
	<path class="st4" d="M285.8,172.1v-8.9h-1.9v165.5c0,17,10.4,32.9,28.4,46.6V137.9C298.8,148.2,289.6,159.7,285.8,172.1z"/>
</g>
<g id="XMLID_151_">
	<path class="st7" d="M566.5,286.6V139.9c-24-4.4-50.2-6.8-77.7-6.8v141C518.3,274.1,545.4,278.8,566.5,286.6z"/>
</g>
<g>
	<path class="st8" d="M488.8,110.6v37.2c29.7-0.1,56.5,5,77.7,13l53-29.3C583.9,118.2,538.7,110.6,488.8,110.6z"/>
</g>
<g id="XMLID_149_">
	<path class="st9" d="M693.7,273.3c0-28.3-28.6-53.6-73.6-70.4l-53.6,28.7c26.8,10,44.3,24.9,44.3,41.8c0,24-34.7,44.5-82.9,51.7
		l26.5,35.2C635.3,348,693.7,313.7,693.7,273.3z"/>
</g>
<g id="XMLID_148_">
	<path class="st10" d="M527.8,359.1c-12.3,1.9-25.4,2.9-39,2.9c-0.9,0-1.9,0-2.8,0c-43.6-0.4-81.5-11.1-102.2-26.8l-71.4,18.9
		c34.9,26.5,98.6,44.4,171.8,45.1c1.6,0,3.1,0.1,4.7,0.1c22.9,0,45-1.7,65.6-4.8L527.8,359.1z"/>
</g>
<g id="XMLID_147_">
	<path class="st9" d="M366.8,164.3c0-30.2,54.6-47.8,121.9-47.8v-6.8V72.5l0,0c-113.1,0-204.9,41.1-204.9,91.8
		c0,17,10.4,32.9,28.4,46.6l71.4-18.9C373,183.8,366.8,174.4,366.8,164.3z"/>
</g>
<g id="XMLID_161_" class="st11">
	<ellipse class="st12" cx="355.9" cy="123" rx="5" ry="1.5"/>
</g>
<g id="XMLID_172_" class="st11">
	<ellipse class="st12" cx="566.9" cy="136" rx="5" ry="1.5"/>
</g>
<g id="XMLID_173_" class="st11">
	<ellipse class="st12" cx="431.9" cy="381" rx="5" ry="1.5"/>
</g>
<g id="XMLID_174_" class="st11">
	<ellipse class="st12" cx="661.9" cy="357" rx="5" ry="1.5"/>
</g>
<g id="XMLID_9_">
	<path class="st12" d="M354.9,54.5H73.8c-0.4-1.7-2-3-3.9-3c-2.2,0-4,1.8-4,4s1.8,4,4,4c1.9,0,3.4-1.3,3.9-3h281.1v66h2v-66v-2
		H354.9z"/>
</g>
<g id="XMLID_5_">
	<path class="st12" d="M912.9,84.5c-1.9,0-3.4,1.3-3.9,3H567.9h-2v2v46h2v-46H909c0.4,1.7,2,3,3.9,3c2.2,0,4-1.8,4-4
		S915.1,84.5,912.9,84.5z"/>
</g>
<g id="XMLID_8_">
	<path class="st12" d="M430.9,380.5h2l-30-67h-2H9.8c-0.4-1.7-2-3-3.9-3c-2.2,0-4,1.8-4,4s1.8,4,4,4c1.9,0,3.4-1.3,3.9-3h392
		L430.9,380.5z"/>
</g>
<g id="XMLID_7_">
	<path class="st12" d="M1024.8,286.5c-1.5,0-2.7,1.3-3.1,3H710.5h-1.6l-48,67h1.6l46.6-65h312.7c0.3,1.7,1.6,3,3.1,3
		c1.7,0,3.2-1.8,3.2-4S1026.5,286.5,1024.8,286.5z"/>
</g>
<g>
	<path class="st12" d="M174.5,11.4c2.4,0,4.4,0.6,5.8,1.9s2.1,3.1,2.1,5.3c0,2.6-0.8,4.6-2.4,6.1s-3.9,2.2-6.9,2.2
		c-2.7,0-4.8-0.4-6.4-1.3v-3.5c0.9,0.5,1.9,0.9,3.1,1.2c1.2,0.3,2.2,0.4,3.2,0.4c1.8,0,3.1-0.4,4-1.2c0.9-0.8,1.4-1.9,1.4-3.5
		c0-2.9-1.8-4.3-5.5-4.3c-0.5,0-1.2,0.1-1.9,0.2c-0.8,0.1-1.4,0.2-2,0.4l-1.7-1l0.9-11.9h12.6v3.5h-9.2l-0.5,6
		c0.4-0.1,0.9-0.1,1.4-0.2C173,11.4,173.7,11.4,174.5,11.4z"/>
	<path class="st12" d="M196.3,9.5c0,2.5-0.5,4.5-1.4,5.7s-2.3,1.9-4,1.9s-3-0.7-3.9-2c-0.9-1.3-1.4-3.2-1.4-5.7
		c0-5.1,1.8-7.6,5.3-7.6c1.7,0,3.1,0.7,4,2C195.8,5.2,196.3,7.1,196.3,9.5z M188.8,9.5c0,1.6,0.2,2.9,0.5,3.7s0.8,1.2,1.6,1.2
		c1.5,0,2.2-1.6,2.2-4.9c0-3.3-0.7-4.9-2.2-4.9c-0.7,0-1.3,0.4-1.6,1.2C189,6.6,188.8,7.9,188.8,9.5z M207.2,2.2l-13.5,24.3h-3.2
		L204,2.2H207.2z M212.1,19.2c0,2.5-0.5,4.5-1.4,5.7c-0.9,1.3-2.3,1.9-4,1.9s-3-0.7-3.9-2s-1.4-3.2-1.4-5.7c0-5.1,1.8-7.6,5.3-7.6
		c1.7,0,3,0.7,4,2C211.6,14.9,212.1,16.8,212.1,19.2z M204.7,19.2c0,1.6,0.2,2.9,0.5,3.7c0.3,0.8,0.9,1.2,1.6,1.2
		c1.4,0,2.2-1.6,2.2-4.9c0-3.2-0.7-4.9-2.2-4.9c-0.7,0-1.3,0.4-1.6,1.2C204.8,16.3,204.7,17.6,204.7,19.2z"/>
	<path class="st12" d="M221.7,16h-6.6v-3h6.6V6.2h3V13h6.6v3h-6.6v6.7h-3V16z"/>
</g>
<g>
	<path class="st12" d="M851.7,242c0,1.5-0.4,2.8-1.3,3.8c-0.9,1-2.2,1.7-3.8,2.1v0.1c1.9,0.2,3.4,0.8,4.4,1.8s1.5,2.3,1.5,3.9
		c0,2.3-0.8,4.1-2.5,5.4c-1.6,1.3-4,1.9-7,1.9c-2.7,0-5-0.4-6.8-1.3v-3.5c1,0.5,2.1,0.9,3.3,1.2c1.2,0.3,2.3,0.4,3.3,0.4
		c1.9,0,3.3-0.3,4.2-1s1.4-1.8,1.4-3.2c0-1.3-0.5-2.2-1.5-2.9c-1-0.6-2.6-0.9-4.8-0.9H840v-3.2h2.1c3.9,0,5.8-1.3,5.8-4
		c0-1-0.3-1.8-1-2.4s-1.7-0.8-3-0.8c-0.9,0-1.8,0.1-2.7,0.4s-1.9,0.8-3,1.5l-1.9-2.7c2.2-1.6,4.8-2.5,7.8-2.5c2.4,0,4.4,0.5,5.7,1.6
		C851,238.7,851.7,240.2,851.7,242z"/>
</g>
<g>
	<path class="st12" d="M129.3,286.5h-16.5v-3l6.3-6.3c1.8-1.9,3.1-3.2,3.7-4c0.6-0.8,1-1.5,1.3-2.2s0.4-1.4,0.4-2.2
		c0-1.1-0.3-2-1-2.6s-1.6-0.9-2.7-0.9c-0.9,0-1.8,0.2-2.7,0.5s-1.9,1-3,1.9l-2.1-2.6c1.4-1.1,2.7-1.9,3.9-2.4
		c1.3-0.5,2.6-0.7,4.1-0.7c2.3,0,4.1,0.6,5.4,1.8s2,2.8,2,4.8c0,1.1-0.2,2.1-0.6,3.1s-1,2-1.8,3s-2.2,2.5-4.1,4.2l-4.2,4.1v0.2h11.5
		L129.3,286.5L129.3,286.5z"/>
	<path class="st12" d="M140.5,271.4c2.4,0,4.4,0.6,5.8,1.9s2.1,3.1,2.1,5.3c0,2.6-0.8,4.6-2.4,6.1s-3.9,2.2-6.9,2.2
		c-2.7,0-4.8-0.4-6.4-1.3v-3.5c0.9,0.5,1.9,0.9,3.1,1.2c1.2,0.3,2.2,0.4,3.2,0.4c1.8,0,3.1-0.4,4-1.2c0.9-0.8,1.4-1.9,1.4-3.5
		c0-2.9-1.8-4.3-5.5-4.3c-0.5,0-1.2,0.1-1.9,0.2c-0.8,0.1-1.4,0.2-2,0.4l-1.7-1l0.9-11.9h12.6v3.5h-9.2l-0.5,6
		c0.4-0.1,0.9-0.1,1.4-0.2C139,271.4,139.7,271.4,140.5,271.4z"/>
	<path class="st12" d="M150.2,268.2h4.3l3.7,10.4c0.6,1.5,0.9,2.9,1.1,4.2h0.1c0.1-0.6,0.3-1.3,0.5-2.2c0.3-0.9,1.7-5,4.2-12.4h4.2
		l-7.9,20.8c-1.4,3.8-3.8,5.7-7.1,5.7c-0.9,0-1.7-0.1-2.5-0.3v-3.1c0.6,0.1,1.3,0.2,2,0.2c1.9,0,3.2-1.1,4-3.3l0.7-1.7L150.2,268.2z
		"/>
	<path class="st12" d="M180.5,267.8c0.8,0,1.4,0.1,1.9,0.2l-0.4,3.6c-0.6-0.1-1.1-0.2-1.7-0.2c-1.6,0-2.8,0.5-3.8,1.5
		s-1.5,2.3-1.5,4v9.6h-3.9v-18.4h3.1l0.5,3.2h0.2c0.6-1.1,1.4-2,2.4-2.6C178.3,268.1,179.4,267.8,180.5,267.8z"/>
</g>
<g>
	<path class="st12" d="M741.2,68.2h-3.9V52.5c0-1.9,0-3.4,0.1-4.4c-0.3,0.3-0.6,0.6-0.9,0.9c-0.4,0.3-1.6,1.3-3.7,3.1l-2-2.5
		l7.1-5.6h3.3L741.2,68.2L741.2,68.2z"/>
	<path class="st12" d="M765.6,56c0,4.2-0.7,7.3-2,9.4c-1.4,2-3.4,3.1-6.2,3.1c-2.7,0-4.7-1.1-6.1-3.2c-1.4-2.1-2.1-5.2-2.1-9.3
		c0-4.3,0.7-7.4,2-9.5c1.4-2,3.4-3,6.2-3c2.7,0,4.8,1.1,6.2,3.2S765.6,51.9,765.6,56z M753.1,56c0,3.3,0.3,5.7,1,7.1
		s1.8,2.1,3.3,2.1s2.6-0.7,3.3-2.2c0.7-1.4,1-3.8,1-7.1c0-3.3-0.3-5.6-1-7.1s-1.8-2.2-3.3-2.2s-2.6,0.7-3.3,2.1S753.1,52.7,753.1,56
		z"/>
	<path class="st12" d="M769.7,43.9h7.2c3.3,0,5.8,0.5,7.2,1.5c1.5,1,2.2,2.5,2.2,4.6c0,1.4-0.4,2.6-1.1,3.5
		c-0.7,0.9-1.8,1.5-3.2,1.8v0.2c1.7,0.3,3,1,3.8,1.9s1.2,2.2,1.2,3.8c0,2.2-0.8,3.9-2.3,5.1s-3.6,1.9-6.4,1.9h-8.8V43.9H769.7z
		 M773.6,53.9h3.8c1.7,0,2.9-0.3,3.6-0.8s1.1-1.4,1.1-2.7c0-1.1-0.4-2-1.2-2.5s-2.1-0.8-3.9-0.8h-3.4L773.6,53.9L773.6,53.9z
		 M773.6,57.1v7.7h4.2c1.7,0,2.9-0.3,3.8-1c0.8-0.6,1.3-1.6,1.3-3c0-1.3-0.4-2.2-1.3-2.8c-0.9-0.6-2.2-0.9-3.9-0.9
		C777.7,57.1,773.6,57.1,773.6,57.1z"/>
	<path class="st12" d="M807.9,68.2H804V56.9c0-1.4-0.3-2.5-0.9-3.2c-0.6-0.7-1.5-1-2.7-1c-1.6,0-2.9,0.5-3.6,1.5
		c-0.8,1-1.1,2.6-1.1,4.9v9.1h-3.9V49.8h3.1l0.5,2.4h0.2c0.6-0.9,1.3-1.5,2.4-2c1-0.5,2.1-0.7,3.4-0.7c4.4,0,6.6,2.2,6.6,6.7
		L807.9,68.2L807.9,68.2z"/>
</g>
<g>
	<path class="st12" d="M638.5,115.3c0,1.3-0.3,2.4-0.9,3.3s-1.4,1.4-2.4,1.7l2.3,2.4h-1.1l-1.9-2.3h-0.2h-0.2
		c-1.4,0-2.5-0.5-3.3-1.4s-1.2-2.2-1.2-3.8s0.4-2.8,1.2-3.8s1.9-1.4,3.3-1.4c1.4,0,2.5,0.5,3.3,1.4S638.5,113.7,638.5,115.3z
		 M630.3,115.3c0,1.4,0.3,2.5,1,3.3s1.6,1.2,2.7,1.2c1.2,0,2.1-0.4,2.8-1.2s1-1.9,1-3.3c0-1.4-0.3-2.5-1-3.3s-1.6-1.2-2.7-1.2
		c-1.2,0-2.1,0.4-2.8,1.2S630.3,113.9,630.3,115.3z"/>
	<path class="st12" d="M640.5,119.8c0-0.4,0.2-0.7,0.5-0.7c0.4,0,0.6,0.2,0.6,0.7s-0.2,0.7-0.6,0.7
		C640.7,120.4,640.5,120.2,640.5,119.8z"/>
	<path class="st12" d="M648.9,116.8h-4.1l-1.4,3.5h-0.8l4-10h0.4l3.9,10h-0.8L648.9,116.8z M645.1,116.1h3.6l-1.4-3.6
		c-0.1-0.3-0.3-0.7-0.4-1.2c-0.1,0.4-0.3,0.8-0.4,1.2L645.1,116.1z"/>
	<path class="st12" d="M655.3,112.7c0.3,0,0.7,0,1,0.1l-0.1,0.6c-0.3-0.1-0.6-0.1-1-0.1c-0.6,0-1.2,0.3-1.6,0.8s-0.6,1.2-0.6,2v4.1
		h-0.7v-7.4h0.6l0.1,1.3l0,0c0.3-0.5,0.6-0.9,1-1.2S654.8,112.7,655.3,112.7z"/>
	<path class="st12" d="M659.7,119.8c0.4,0,0.8,0,1.1-0.1v0.5c-0.3,0.1-0.7,0.2-1.1,0.2c-0.7,0-1.1-0.2-1.5-0.5s-0.5-0.9-0.5-1.7
		v-4.8h-1.1V113l1.1-0.3l0.3-1.7h0.3v1.8h2.2v0.6h-2v4.7c0,0.6,0.1,1,0.3,1.3S659.3,119.8,659.7,119.8z"/>
	<path class="st12" d="M667.7,120.3v-4.8c0-0.7-0.2-1.3-0.5-1.6s-0.8-0.5-1.5-0.5c-0.9,0-1.5,0.2-2,0.7s-0.6,1.2-0.6,2.2v4.1h-0.6
		v-10.6h0.7v3.4v1l0,0c0.3-0.4,0.6-0.8,1.1-1s1-0.3,1.6-0.3c1.7,0,2.5,0.9,2.5,2.7v4.9h-0.7V120.3z"/>
	<path class="st12" d="M671.3,112.9v4.8c0,0.7,0.2,1.3,0.5,1.6s0.8,0.5,1.5,0.5c0.9,0,1.5-0.2,2-0.7s0.6-1.2,0.6-2.2v-4.1h0.7v7.4
		H676l-0.1-1l0,0c-0.5,0.8-1.3,1.2-2.6,1.2c-1.7,0-2.5-0.9-2.5-2.7v-4.9L671.3,112.9L671.3,112.9z"/>
	<path class="st12" d="M681.9,112.7c0.3,0,0.7,0,1,0.1l-0.1,0.6c-0.3-0.1-0.6-0.1-1-0.1c-0.6,0-1.2,0.3-1.6,0.8s-0.6,1.2-0.6,2v4.1
		h-0.7v-7.4h0.6l0.1,1.3l0,0c0.3-0.5,0.6-0.9,1-1.2S681.4,112.7,681.9,112.7z"/>
	<path class="st12" d="M690.9,120.3h-0.7V111H687v-0.7h7.2v0.7H691L690.9,120.3L690.9,120.3z"/>
	<path class="st12" d="M699.9,120.3l-0.2-1.2h-0.1c-0.4,0.5-0.8,0.8-1.2,1s-0.9,0.3-1.4,0.3c-0.7,0-1.3-0.2-1.7-0.6
		s-0.6-0.9-0.6-1.6c0-0.7,0.3-1.3,0.9-1.7s1.5-0.6,2.6-0.6h1.4v-0.4c0-0.7-0.1-1.2-0.4-1.6s-0.7-0.5-1.4-0.5s-1.4,0.2-2.1,0.6
		l-0.3-0.6c0.8-0.4,1.6-0.6,2.4-0.6c0.8,0,1.4,0.2,1.8,0.6s0.6,1.1,0.6,2v4.9L699.9,120.3L699.9,120.3z M697.2,119.8
		c0.8,0,1.4-0.2,1.9-0.7s0.7-1.1,0.7-1.9v-0.7l-1.3,0.1c-1,0.1-1.8,0.2-2.2,0.5s-0.7,0.7-0.7,1.3c0,0.5,0.1,0.8,0.4,1.1
		S696.7,119.8,697.2,119.8z"/>
	<path class="st12" d="M705.8,112.7c0.3,0,0.7,0,1,0.1l-0.1,0.6c-0.3-0.1-0.6-0.1-1-0.1c-0.6,0-1.2,0.3-1.6,0.8s-0.6,1.2-0.6,2v4.1
		h-0.7v-7.4h0.6l0.1,1.3l0,0c0.3-0.5,0.6-0.9,1-1.2S705.3,112.7,705.8,112.7z"/>
	<path class="st12" d="M714.1,112.9v0.5l-1.5,0.1c0.4,0.5,0.6,1.1,0.6,1.7c0,0.7-0.2,1.3-0.7,1.7s-1.1,0.7-1.9,0.7
		c-0.3,0-0.6,0-0.7,0c-0.3,0.1-0.5,0.3-0.6,0.5s-0.2,0.4-0.2,0.6c0,0.2,0.1,0.4,0.3,0.5s0.5,0.2,0.9,0.2h1.3c0.8,0,1.4,0.2,1.9,0.5
		s0.6,0.8,0.6,1.4c0,0.8-0.3,1.4-1,1.8s-1.5,0.6-2.7,0.6c-0.9,0-1.7-0.2-2.2-0.5s-0.8-0.9-0.8-1.5c0-0.5,0.2-0.9,0.5-1.3
		s0.7-0.6,1.3-0.7c-0.2-0.1-0.4-0.2-0.5-0.4s-0.2-0.4-0.2-0.6c0-0.5,0.3-0.9,1-1.3c-0.4-0.2-0.8-0.5-1-0.8s-0.4-0.8-0.4-1.3
		c0-0.7,0.2-1.3,0.7-1.8s1.1-0.7,1.9-0.7c0.5,0,0.9,0,1.1,0.1H714.1z M708.1,121.5c0,1,0.8,1.5,2.3,1.5c2,0,2.9-0.6,2.9-1.9
		c0-0.4-0.2-0.8-0.5-1s-0.8-0.3-1.5-0.3h-1.2C708.7,119.9,708.1,120.5,708.1,121.5z M708.6,115.2c0,0.6,0.2,1,0.5,1.3
		s0.8,0.5,1.4,0.5c0.6,0,1.1-0.2,1.4-0.5s0.5-0.8,0.5-1.4c0-0.6-0.2-1.1-0.5-1.4s-0.8-0.5-1.4-0.5c-0.6,0-1.1,0.2-1.4,0.5
		S708.6,114.6,708.6,115.2z"/>
	<path class="st12" d="M718.6,120.4c-1.1,0-1.9-0.3-2.5-1s-0.9-1.6-0.9-2.8s0.3-2.1,0.9-2.8s1.4-1.1,2.4-1.1c0.9,0,1.6,0.3,2.1,0.9
		s0.8,1.4,0.8,2.5v0.5H716c0,1,0.2,1.8,0.7,2.3s1.1,0.8,2,0.8c0.4,0,0.8,0,1.1-0.1s0.7-0.2,1.2-0.4v0.6c-0.4,0.2-0.8,0.3-1.2,0.4
		S719,120.4,718.6,120.4z M718.4,113.3c-0.7,0-1.3,0.2-1.7,0.7s-0.7,1.2-0.8,2h4.6c0-0.9-0.2-1.5-0.6-2S719.1,113.3,718.4,113.3z"/>
	<path class="st12" d="M725.2,119.8c0.4,0,0.8,0,1.1-0.1v0.5c-0.3,0.1-0.7,0.2-1.1,0.2c-0.7,0-1.1-0.2-1.5-0.5
		c-0.3-0.4-0.5-0.9-0.5-1.7v-4.8h-1.1V113l1.1-0.3l0.3-1.7h0.3v1.8h2.2v0.6h-2.2v4.7c0,0.6,0.1,1,0.3,1.3S724.8,119.8,725.2,119.8z"
		/>
	<path class="st12" d="M741,120.3h-0.7V113c0-0.7,0-1.3,0.1-2.1c-0.1,0.1-0.1,0.1-0.2,0.2s-0.8,0.6-2.1,1.7l-0.4-0.5l2.7-2h0.6
		L741,120.3L741,120.3z"/>
	<path class="st12" d="M751.6,115.3c0,1.8-0.3,3.1-0.8,3.9c-0.5,0.8-1.3,1.3-2.4,1.3c-1,0-1.8-0.4-2.4-1.3s-0.8-2.2-0.8-3.9
		s0.3-3,0.8-3.9c0.5-0.8,1.3-1.3,2.4-1.3c1.1,0,1.9,0.4,2.4,1.3S751.6,113.6,751.6,115.3z M745.9,115.3c0,1.5,0.2,2.7,0.6,3.4
		s1,1.1,1.8,1.1c0.9,0,1.5-0.4,1.9-1.1c0.4-0.8,0.6-1.9,0.6-3.4s-0.2-2.6-0.6-3.4c-0.4-0.8-1-1.1-1.9-1.1s-1.5,0.4-1.9,1.1
		S745.9,113.8,745.9,115.3z"/>
	<path class="st12" d="M755.8,110.3h2.7c1.2,0,2.1,0.2,2.7,0.6s0.9,1.1,0.9,1.9c0,0.6-0.2,1.1-0.5,1.4c-0.4,0.4-0.9,0.6-1.5,0.7l0,0
		c0.8,0.1,1.4,0.4,1.8,0.8c0.4,0.4,0.6,0.9,0.6,1.6c0,0.9-0.3,1.6-0.9,2.1s-1.5,0.7-2.6,0.7h-3.1v-9.8H755.8z M756.4,114.7h2.2
		c0.9,0,1.6-0.2,2-0.5s0.6-0.8,0.6-1.5s-0.2-1.1-0.7-1.4c-0.5-0.3-1.2-0.5-2.2-0.5h-2v3.9H756.4z M756.4,115.4v4.3h2.4
		c1.9,0,2.8-0.8,2.8-2.3c0-1.4-1-2.1-2.9-2.1h-2.3V115.4z"/>
	<path class="st12" d="M769.5,120.3v-4.8c0-0.7-0.2-1.3-0.5-1.6s-0.8-0.5-1.5-0.5c-0.9,0-1.5,0.2-2,0.7c-0.4,0.4-0.6,1.2-0.6,2.2
		v4.1h-0.7V113h0.6l0.1,1l0,0c0.5-0.8,1.3-1.2,2.6-1.2c1.7,0,2.5,0.9,2.5,2.7v4.9L769.5,120.3L769.5,120.3z"/>
	<path class="st12" d="M781.4,120.3v-4.8c0-0.7-0.2-1.3-0.5-1.6s-0.8-0.5-1.5-0.5c-0.9,0-1.5,0.2-2,0.7c-0.4,0.4-0.6,1.2-0.6,2.2
		v4.1h-0.7v-10.6h0.7v3.4v1l0,0c0.3-0.4,0.6-0.8,1.1-1s1-0.3,1.6-0.3c1.7,0,2.5,0.9,2.5,2.7v4.9h-0.6V120.3z"/>
	<path class="st12" d="M784.4,110.8c0-0.4,0.1-0.7,0.4-0.7c0.1,0,0.3,0.1,0.3,0.2c0.1,0.1,0.1,0.3,0.1,0.5s0,0.4-0.1,0.5
		s-0.2,0.2-0.3,0.2C784.6,111.5,784.4,111.2,784.4,110.8z M785.2,120.3h-0.7v-7.4h0.7V120.3z"/>
	<path class="st12" d="M793.5,112.9v0.5l-1.5,0.1c0.4,0.5,0.6,1.1,0.6,1.7c0,0.7-0.2,1.3-0.7,1.7s-1.1,0.7-1.9,0.7
		c-0.3,0-0.6,0-0.7,0c-0.3,0.1-0.5,0.3-0.6,0.5s-0.2,0.4-0.2,0.6c0,0.2,0.1,0.4,0.3,0.5s0.5,0.2,0.9,0.2h1.3c0.8,0,1.4,0.2,1.9,0.5
		s0.6,0.8,0.6,1.4c0,0.8-0.3,1.4-1,1.8c-0.6,0.4-1.5,0.6-2.7,0.6c-0.9,0-1.7-0.2-2.2-0.5c-0.5-0.4-0.8-0.9-0.8-1.5
		c0-0.5,0.2-0.9,0.5-1.3c0.3-0.3,0.7-0.6,1.3-0.7c-0.2-0.1-0.4-0.2-0.5-0.4s-0.2-0.4-0.2-0.6c0-0.5,0.3-0.9,1-1.3
		c-0.4-0.2-0.8-0.5-1-0.8s-0.4-0.8-0.4-1.3c0-0.7,0.2-1.3,0.7-1.8c0.5-0.4,1.1-0.7,1.9-0.7c0.5,0,0.9,0,1.1,0.1H793.5z M787.5,121.5
		c0,1,0.8,1.5,2.3,1.5c2,0,2.9-0.6,2.9-1.9c0-0.4-0.2-0.8-0.5-1s-0.8-0.3-1.5-0.3h-1.2C788.1,119.9,787.5,120.5,787.5,121.5z
		 M788,115.2c0,0.6,0.2,1,0.5,1.3s0.8,0.5,1.4,0.5c0.6,0,1.1-0.2,1.4-0.5c0.3-0.3,0.5-0.8,0.5-1.4c0-0.6-0.2-1.1-0.5-1.4
		c-0.3-0.3-0.8-0.5-1.4-0.5c-0.6,0-1.1,0.2-1.4,0.5C788.2,114.1,788,114.6,788,115.2z"/>
	<path class="st12" d="M800.2,120.3v-4.8c0-0.7-0.2-1.3-0.5-1.6s-0.8-0.5-1.5-0.5c-0.9,0-1.5,0.2-2,0.7c-0.4,0.4-0.6,1.2-0.6,2.2
		v4.1h-0.7v-10.6h0.7v3.4v1l0,0c0.3-0.4,0.6-0.8,1.1-1s1-0.3,1.6-0.3c1.7,0,2.5,0.9,2.5,2.7v4.9h-0.6V120.3z"/>
	<path class="st12" d="M809.5,120.4c-1,0-1.7-0.3-2.3-1s-0.8-1.6-0.8-2.8c0-1.3,0.3-2.2,0.8-2.9s1.3-1,2.3-1c1.1,0,1.9,0.4,2.4,1.2
		l0,0l0.1-1h0.6v10.8h-0.7v-2.8c0-0.6,0-1.1,0-1.7l0,0C811.5,120,810.7,120.4,809.5,120.4z M809.6,119.8c0.9,0,1.5-0.2,1.9-0.7
		s0.6-1.3,0.6-2.5v-0.1c0-1.1-0.2-1.9-0.6-2.4s-1-0.7-1.9-0.7c-0.8,0-1.4,0.3-1.8,0.8c-0.4,0.6-0.6,1.4-0.6,2.5c0,1,0.2,1.8,0.6,2.4
		C808.2,119.6,808.8,119.8,809.6,119.8z"/>
	<path class="st12" d="M815.8,112.9v4.8c0,0.7,0.2,1.3,0.5,1.6s0.8,0.5,1.5,0.5c0.9,0,1.5-0.2,2-0.7c0.4-0.4,0.6-1.2,0.6-2.2v-4.1
		h0.7v7.4h-0.6l-0.1-1l0,0c-0.5,0.8-1.3,1.2-2.6,1.2c-1.7,0-2.5-0.9-2.5-2.7v-4.9L815.8,112.9L815.8,112.9z"/>
	<path class="st12" d="M828,120.3l-0.2-1.2h-0.1c-0.4,0.5-0.8,0.8-1.2,1s-0.9,0.3-1.4,0.3c-0.7,0-1.3-0.2-1.7-0.6s-0.6-0.9-0.6-1.6
		c0-0.7,0.3-1.3,0.9-1.7c0.6-0.4,1.5-0.6,2.6-0.6h1.4v-0.4c0-0.7-0.1-1.2-0.4-1.6s-0.8-0.5-1.4-0.5c-0.7,0-1.4,0.2-2.1,0.6l-0.3-0.6
		c0.8-0.4,1.6-0.6,2.4-0.6c0.8,0,1.4,0.2,1.8,0.6c0.4,0.4,0.6,1.1,0.6,2v4.9L828,120.3L828,120.3z M825.3,119.8
		c0.8,0,1.4-0.2,1.9-0.7s0.7-1.1,0.7-1.9v-0.7l-1.3,0.1c-1,0.1-1.8,0.2-2.2,0.5s-0.7,0.7-0.7,1.3c0,0.5,0.1,0.8,0.4,1.1
		C824.3,119.7,824.7,119.8,825.3,119.8z"/>
	<path class="st12" d="M831.6,120.3h-0.7v-10.6h0.7V120.3z"/>
	<path class="st12" d="M834,110.8c0-0.4,0.1-0.7,0.4-0.7c0.1,0,0.3,0.1,0.3,0.2c0.1,0.1,0.1,0.3,0.1,0.5s0,0.4-0.1,0.5
		s-0.2,0.2-0.3,0.2C834.1,111.5,834,111.2,834,110.8z M834.7,120.3H834v-7.4h0.7V120.3z"/>
	<path class="st12" d="M839.2,119.8c0.4,0,0.8,0,1.1-0.1v0.5c-0.3,0.1-0.7,0.2-1.1,0.2c-0.7,0-1.1-0.2-1.5-0.5
		c-0.3-0.4-0.5-0.9-0.5-1.7v-4.8h-1.1V113l1.1-0.3l0.3-1.7h0.3v1.8h2.2v0.6h-2.2v4.7c0,0.6,0.1,1,0.3,1.3S838.8,119.8,839.2,119.8z"
		/>
	<path class="st12" d="M840.7,112.9h0.7l1.6,4.2c0.5,1.3,0.8,2.1,0.9,2.6l0,0c0.2-0.6,0.5-1.5,0.9-2.6l1.6-4.1h0.7l-3.3,8.6
		c-0.3,0.7-0.5,1.2-0.7,1.4s-0.4,0.4-0.6,0.6c-0.2,0.1-0.5,0.2-0.9,0.2c-0.3,0-0.5,0-0.9-0.1v-0.6c0.3,0.1,0.5,0.1,0.9,0.1
		c0.2,0,0.4-0.1,0.6-0.2s0.3-0.3,0.5-0.5c0.1-0.2,0.3-0.6,0.5-1.1s0.3-0.8,0.4-1L840.7,112.9z"/>
	<path class="st12" d="M856.5,120.3l-0.2-1.2h-0.1c-0.4,0.5-0.8,0.8-1.2,1s-0.9,0.3-1.4,0.3c-0.7,0-1.3-0.2-1.7-0.6
		s-0.6-0.9-0.6-1.6c0-0.7,0.3-1.3,0.9-1.7c0.6-0.4,1.5-0.6,2.6-0.6h1.4v-0.4c0-0.7-0.1-1.2-0.4-1.6s-0.8-0.5-1.4-0.5
		c-0.7,0-1.4,0.2-2.1,0.6l-0.3-0.6c0.8-0.4,1.6-0.6,2.4-0.6c0.8,0,1.4,0.2,1.8,0.6c0.4,0.4,0.6,1.1,0.6,2v4.9L856.5,120.3
		L856.5,120.3z M853.8,119.8c0.8,0,1.4-0.2,1.9-0.7s0.7-1.1,0.7-1.9v-0.7l-1.3,0.1c-1,0.1-1.8,0.2-2.2,0.5s-0.7,0.7-0.7,1.3
		c0,0.5,0.1,0.8,0.4,1.1C852.8,119.7,853.2,119.8,853.8,119.8z"/>
	<path class="st12" d="M864,118.4c0,0.7-0.3,1.2-0.8,1.5s-1.2,0.5-2.2,0.5s-1.8-0.2-2.4-0.5v-0.7c0.7,0.4,1.5,0.6,2.4,0.6
		c0.7,0,1.3-0.1,1.7-0.4c0.4-0.2,0.6-0.6,0.6-1s-0.2-0.7-0.5-0.9c-0.3-0.3-0.8-0.5-1.5-0.8s-1.3-0.5-1.6-0.7s-0.5-0.4-0.7-0.7
		c-0.2-0.2-0.2-0.5-0.2-0.9c0-0.6,0.2-1,0.7-1.3s1.1-0.5,2-0.5c0.8,0,1.6,0.2,2.3,0.5l-0.3,0.6c-0.7-0.3-1.4-0.5-2-0.5
		s-1.1,0.1-1.4,0.3s-0.5,0.5-0.5,0.8c0,0.4,0.1,0.7,0.4,0.9c0.3,0.2,0.8,0.5,1.6,0.8c0.7,0.2,1.2,0.5,1.5,0.7s0.5,0.4,0.7,0.7
		C863.9,117.7,864,118,864,118.4z"/>
	<path class="st12" d="M870.5,118.4c0,0.7-0.3,1.2-0.8,1.5s-1.2,0.5-2.2,0.5s-1.8-0.2-2.4-0.5v-0.7c0.7,0.4,1.5,0.6,2.4,0.6
		c0.7,0,1.3-0.1,1.7-0.4c0.4-0.2,0.6-0.6,0.6-1s-0.2-0.7-0.5-0.9c-0.3-0.3-0.8-0.5-1.5-0.8s-1.3-0.5-1.6-0.7s-0.5-0.4-0.7-0.7
		c-0.2-0.2-0.2-0.5-0.2-0.9c0-0.6,0.2-1,0.7-1.3s1.1-0.5,2-0.5c0.8,0,1.6,0.2,2.3,0.5l-0.3,0.6c-0.7-0.3-1.4-0.5-2-0.5
		s-1.1,0.1-1.4,0.3s-0.5,0.5-0.5,0.8c0,0.4,0.1,0.7,0.4,0.9c0.3,0.2,0.8,0.5,1.6,0.8c0.7,0.2,1.2,0.5,1.5,0.7s0.5,0.4,0.7,0.7
		C870.5,117.7,870.5,118,870.5,118.4z"/>
	<path class="st12" d="M875.4,120.4c-1.1,0-1.9-0.3-2.5-1s-0.9-1.6-0.9-2.8s0.3-2.1,0.9-2.8s1.4-1.1,2.4-1.1c0.9,0,1.6,0.3,2.1,0.9
		s0.8,1.4,0.8,2.5v0.5h-5.4c0,1,0.2,1.8,0.7,2.3s1.1,0.8,2,0.8c0.4,0,0.8,0,1.1-0.1s0.7-0.2,1.2-0.4v0.6c-0.4,0.2-0.8,0.3-1.2,0.4
		S875.9,120.4,875.4,120.4z M875.2,113.3c-0.7,0-1.3,0.2-1.7,0.7s-0.7,1.2-0.8,2h4.6c0-0.9-0.2-1.5-0.6-2S875.9,113.3,875.2,113.3z"
		/>
	<path class="st12" d="M882.1,119.8c0.4,0,0.8,0,1.1-0.1v0.5c-0.3,0.1-0.7,0.2-1.1,0.2c-0.7,0-1.1-0.2-1.5-0.5
		c-0.3-0.4-0.5-0.9-0.5-1.7v-4.8H879V113l1.1-0.3l0.3-1.7h0.3v1.8h2.2v0.6h-2.2v4.7c0,0.6,0.1,1,0.3,1.3S881.7,119.8,882.1,119.8z"
		/>
	<path class="st12" d="M889.4,118.4c0,0.7-0.3,1.2-0.8,1.5s-1.2,0.5-2.2,0.5s-1.8-0.2-2.4-0.5v-0.7c0.7,0.4,1.5,0.6,2.4,0.6
		c0.7,0,1.3-0.1,1.7-0.4c0.4-0.2,0.6-0.6,0.6-1s-0.2-0.7-0.5-0.9c-0.3-0.3-0.8-0.5-1.5-0.8s-1.3-0.5-1.6-0.7s-0.5-0.4-0.7-0.7
		c-0.2-0.2-0.2-0.5-0.2-0.9c0-0.6,0.2-1,0.7-1.3s1.1-0.5,2-0.5c0.8,0,1.6,0.2,2.3,0.5l-0.3,0.6c-0.7-0.3-1.4-0.5-2-0.5
		s-1.1,0.1-1.4,0.3s-0.5,0.5-0.5,0.8c0,0.4,0.1,0.7,0.4,0.9c0.3,0.2,0.8,0.5,1.6,0.8c0.7,0.2,1.2,0.5,1.5,0.7s0.5,0.4,0.7,0.7
		C889.3,117.7,889.4,118,889.4,118.4z"/>
	<path class="st12" d="M633.5,127.6c0-0.4,0.1-0.7,0.4-0.7c0.1,0,0.3,0.1,0.3,0.2s0.1,0.3,0.1,0.5s0,0.4-0.1,0.5s-0.2,0.2-0.3,0.2
		C633.6,128.3,633.5,128,633.5,127.6z M634.2,137.1h-0.7v-7.4h0.7V137.1z"/>
	<path class="st12" d="M641.9,137.1v-4.8c0-0.7-0.2-1.3-0.5-1.6s-0.8-0.5-1.5-0.5c-0.9,0-1.5,0.2-2,0.7s-0.6,1.2-0.6,2.2v4.1h-0.7
		v-7.4h0.6l0.1,1l0,0c0.5-0.8,1.3-1.2,2.6-1.2c1.7,0,2.5,0.9,2.5,2.7v4.9L641.9,137.1L641.9,137.1z"/>
	<path class="st12" d="M651.4,130.2h-1.8v6.8h-0.7v-6.8h-1.4v-0.4l1.4-0.3v-0.6c0-0.9,0.2-1.6,0.5-2s0.9-0.6,1.6-0.6
		c0.4,0,0.8,0.1,1.2,0.2l-0.2,0.6c-0.4-0.1-0.7-0.2-1.1-0.2c-0.5,0-0.9,0.2-1.1,0.5s-0.3,0.8-0.3,1.5v0.7h1.8L651.4,130.2
		L651.4,130.2z M652.7,127.6c0-0.4,0.1-0.7,0.4-0.7c0.1,0,0.3,0.1,0.3,0.2s0.1,0.3,0.1,0.5s0,0.4-0.1,0.5s-0.2,0.2-0.3,0.2
		C652.9,128.3,652.7,128,652.7,127.6z M653.5,137.1h-0.7v-7.4h0.7V137.1z"/>
	<path class="st12" d="M661.2,137.1v-4.8c0-0.7-0.2-1.3-0.5-1.6s-0.8-0.5-1.5-0.5c-0.9,0-1.5,0.2-2,0.7s-0.6,1.2-0.6,2.2v4.1h-0.7
		v-7.4h0.6l0.1,1l0,0c0.5-0.8,1.3-1.2,2.6-1.2c1.7,0,2.5,0.9,2.5,2.7v4.9L661.2,137.1L661.2,137.1z"/>
	<path class="st12" d="M668.7,137.1l-0.2-1.2l0,0c-0.4,0.5-0.8,0.8-1.2,1s-0.9,0.3-1.4,0.3c-0.7,0-1.3-0.2-1.7-0.6s-0.6-0.9-0.6-1.6
		c0-0.7,0.3-1.3,0.9-1.7s1.5-0.6,2.6-0.6h1.4v-0.5c0-0.7-0.1-1.2-0.4-1.6s-0.7-0.5-1.4-0.5s-1.4,0.2-2.1,0.6l-0.3-0.6
		c0.8-0.4,1.6-0.6,2.4-0.6c0.8,0,1.4,0.2,1.8,0.6s0.6,1.1,0.6,2v4.9h-0.4V137.1z M666,136.6c0.8,0,1.4-0.2,1.9-0.7s0.7-1.1,0.7-1.9
		v-0.7l-1.3,0.1c-1,0.1-1.8,0.2-2.2,0.5s-0.7,0.7-0.7,1.3c0,0.5,0.1,0.8,0.4,1.1S665.5,136.6,666,136.6z"/>
	<path class="st12" d="M676.8,137.1v-4.8c0-0.7-0.2-1.3-0.5-1.6s-0.8-0.5-1.5-0.5c-0.9,0-1.5,0.2-2,0.7s-0.6,1.2-0.6,2.2v4.1h-0.7
		v-7.4h0.6l0.1,1l0,0c0.5-0.8,1.3-1.2,2.6-1.2c1.7,0,2.5,0.9,2.5,2.7v4.9L676.8,137.1L676.8,137.1z"/>
	<path class="st12" d="M682.9,137.2c-1.1,0-1.9-0.3-2.5-1s-0.9-1.6-0.9-2.8s0.3-2.2,0.9-2.9s1.5-1,2.6-1c0.6,0,1.3,0.1,1.8,0.3
		l-0.2,0.6c-0.6-0.2-1.2-0.3-1.7-0.3c-0.9,0-1.6,0.3-2.1,0.8s-0.7,1.4-0.7,2.4s0.2,1.8,0.7,2.4s1.1,0.9,2,0.9c0.7,0,1.3-0.1,1.9-0.4
		v0.6C684.3,137.1,683.6,137.2,682.9,137.2z"/>
	<path class="st12" d="M686.5,127.6c0-0.4,0.1-0.7,0.4-0.7c0.1,0,0.3,0.1,0.3,0.2s0.1,0.3,0.1,0.5s0,0.4-0.1,0.5s-0.2,0.2-0.3,0.2
		C686.6,128.3,686.5,128,686.5,127.6z M687.2,137.1h-0.7v-7.4h0.7V137.1z"/>
	<path class="st12" d="M694.2,137.1l-0.2-1.2h-0.1c-0.4,0.5-0.8,0.8-1.2,1s-0.9,0.3-1.4,0.3c-0.7,0-1.3-0.2-1.7-0.6
		s-0.6-0.9-0.6-1.6c0-0.7,0.3-1.3,0.9-1.7s1.5-0.6,2.6-0.6h1.4v-0.5c0-0.7-0.1-1.2-0.4-1.6s-0.7-0.5-1.4-0.5s-1.4,0.2-2.1,0.6
		l-0.3-0.6c0.8-0.4,1.6-0.6,2.4-0.6c0.8,0,1.4,0.2,1.8,0.6s0.6,1.1,0.6,2v4.9h-0.3V137.1z M691.5,136.6c0.8,0,1.4-0.2,1.9-0.7
		s0.7-1.1,0.7-1.9v-0.7l-1.3,0.1c-1,0.1-1.8,0.2-2.2,0.5s-0.7,0.7-0.7,1.3c0,0.5,0.1,0.8,0.4,1.1S691,136.6,691.5,136.6z"/>
	<path class="st12" d="M697.8,137.1h-0.7v-10.6h0.7V137.1z"/>
	<path class="st12" d="M706.9,137.2c-1.1,0-1.9-0.3-2.5-1s-0.9-1.6-0.9-2.8s0.3-2.2,0.9-2.9s1.5-1,2.6-1c0.6,0,1.3,0.1,1.8,0.3
		l-0.2,0.6c-0.6-0.2-1.2-0.3-1.7-0.3c-0.9,0-1.6,0.3-2.1,0.8s-0.7,1.4-0.7,2.4s0.2,1.8,0.7,2.4s1.1,0.9,2,0.9c0.7,0,1.3-0.1,1.9-0.4
		v0.6C708.3,137.1,707.7,137.2,706.9,137.2z"/>
	<path class="st12" d="M713.6,137.2c-1.1,0-1.9-0.3-2.5-1s-0.9-1.6-0.9-2.8s0.3-2.1,0.9-2.8s1.4-1.1,2.4-1.1c0.9,0,1.6,0.3,2.1,0.9
		s0.8,1.4,0.8,2.5v0.5H711c0,1,0.2,1.8,0.7,2.3s1.1,0.8,2,0.8c0.4,0,0.8,0,1.1-0.1s0.7-0.2,1.2-0.4v0.6c-0.4,0.2-0.8,0.3-1.2,0.4
		S714,137.2,713.6,137.2z M713.4,130.1c-0.7,0-1.3,0.2-1.7,0.7s-0.7,1.2-0.8,2h4.6c0-0.9-0.2-1.5-0.6-2S714.1,130.1,713.4,130.1z"/>
	<path class="st12" d="M723.5,137.1v-4.8c0-0.7-0.2-1.3-0.5-1.6s-0.8-0.5-1.5-0.5c-0.9,0-1.5,0.2-2,0.7s-0.6,1.2-0.6,2.2v4.1h-0.7
		v-7.4h0.6l0.1,1l0,0c0.5-0.8,1.3-1.2,2.6-1.2c1.7,0,2.5,0.9,2.5,2.7v4.9L723.5,137.1L723.5,137.1z"/>
	<path class="st12" d="M728.5,136.6c0.4,0,0.8,0,1.1-0.1v0.5c-0.3,0.1-0.7,0.2-1.1,0.2c-0.7,0-1.1-0.2-1.5-0.5
		c-0.3-0.4-0.5-0.9-0.5-1.7v-4.8h-1v-0.4l1.1-0.3l0.3-1.7h0.3v1.8h2.2v0.6h-2.2v4.7c0,0.6,0.1,1,0.3,1.3S728.1,136.6,728.5,136.6z"
		/>
	<path class="st12" d="M734.1,129.5c0.3,0,0.7,0,1,0.1l-0.1,0.6c-0.3-0.1-0.6-0.1-1-0.1c-0.6,0-1.2,0.3-1.6,0.8s-0.6,1.2-0.6,2v4.1
		h-0.7v-7.4h0.6l0.1,1.3l0,0c0.3-0.5,0.6-0.9,1-1.2S733.7,129.5,734.1,129.5z"/>
	<path class="st12" d="M739.7,137.2c-1.1,0-1.9-0.3-2.5-1s-0.9-1.6-0.9-2.8s0.3-2.1,0.9-2.8s1.4-1.1,2.4-1.1c0.9,0,1.6,0.3,2.1,0.9
		s0.8,1.4,0.8,2.5v0.5h-5.4c0,1,0.2,1.8,0.7,2.3s1.1,0.8,2,0.8c0.4,0,0.8,0,1.1-0.1s0.7-0.2,1.2-0.4v0.6c-0.4,0.2-0.8,0.3-1.2,0.4
		S740.1,137.2,739.7,137.2z M739.5,130.1c-0.7,0-1.3,0.2-1.7,0.7s-0.7,1.2-0.8,2h4.6c0-0.9-0.2-1.5-0.6-2S740.1,130.1,739.5,130.1z"
		/>
</g>
<g>
	<path class="st12" d="M134.3,87.1h-4.1l-1.4,3.5H128l4-10h0.4l3.9,10h-0.8L134.3,87.1z M130.5,86.4h3.6l-1.4-3.6
		c-0.1-0.3-0.3-0.7-0.4-1.2c-0.1,0.4-0.3,0.8-0.4,1.2L130.5,86.4z"/>
	<path class="st12" d="M142.9,90.6v-4.8c0-0.7-0.2-1.3-0.5-1.6s-0.8-0.5-1.5-0.5c-0.9,0-1.5,0.2-2,0.7s-0.6,1.2-0.6,2.2v4.1h-0.7
		v-7.4h0.6l0.1,1l0,0c0.5-0.8,1.3-1.2,2.6-1.2c1.7,0,2.5,0.9,2.5,2.7v4.9L142.9,90.6L142.9,90.6z"/>
	<path class="st12" d="M151.2,90.6v-4.8c0-0.7-0.2-1.3-0.5-1.6s-0.8-0.5-1.5-0.5c-0.9,0-1.5,0.2-2,0.7s-0.6,1.2-0.6,2.2v4.1h-0.7
		v-7.4h0.6l0.1,1l0,0c0.5-0.8,1.3-1.2,2.6-1.2c1.7,0,2.5,0.9,2.5,2.7v4.9L151.2,90.6L151.2,90.6z"/>
	<path class="st12" d="M154.8,83.2V88c0,0.7,0.2,1.3,0.5,1.6s0.8,0.5,1.5,0.5c0.9,0,1.5-0.2,2-0.7s0.6-1.2,0.6-2.2v-4.1h0.7v7.4
		h-0.6l-0.1-1l0,0c-0.5,0.8-1.3,1.2-2.6,1.2c-1.7,0-2.5-0.9-2.5-2.7v-4.9L154.8,83.2L154.8,83.2z"/>
	<path class="st12" d="M167,90.6l-0.2-1.2h-0.1c-0.4,0.5-0.8,0.8-1.2,1s-0.9,0.3-1.4,0.3c-0.7,0-1.3-0.2-1.7-0.6s-0.6-0.9-0.6-1.6
		c0-0.7,0.3-1.3,0.9-1.7s1.5-0.6,2.6-0.6h1.4v-0.5c0-0.7-0.1-1.2-0.4-1.6s-0.7-0.5-1.4-0.5c-0.7,0-1.4,0.2-2.1,0.6l-0.3-0.6
		c0.8-0.4,1.6-0.6,2.4-0.6s1.4,0.2,1.8,0.6s0.6,1.1,0.6,2v4.9H167V90.6z M164.3,90.1c0.8,0,1.4-0.2,1.9-0.7s0.7-1.1,0.7-1.9v-0.7
		l-1.3,0.1c-1,0.1-1.8,0.2-2.2,0.5s-0.7,0.7-0.7,1.3c0,0.5,0.1,0.8,0.4,1.1S163.8,90.1,164.3,90.1z"/>
	<path class="st12" d="M170.6,90.6h-0.7V80h0.7V90.6z"/>
	<path class="st12" d="M175.5,83.2h0.7l1.6,4.2c0.5,1.3,0.8,2.1,0.9,2.6l0,0c0.2-0.6,0.5-1.5,0.9-2.6l1.6-4.1h0.7l-3.3,8.6
		c-0.3,0.7-0.5,1.2-0.7,1.4s-0.4,0.4-0.6,0.6s-0.5,0.2-0.9,0.2c-0.3,0-0.5,0-0.9-0.1v-0.6c0.3,0.1,0.5,0.1,0.9,0.1
		c0.2,0,0.4-0.1,0.6-0.2s0.3-0.3,0.5-0.5s0.3-0.6,0.5-1.1s0.3-0.8,0.4-1L175.5,83.2z"/>
	<path class="st12" d="M183.1,81.1c0-0.4,0.1-0.7,0.4-0.7c0.1,0,0.3,0.1,0.3,0.2s0.1,0.3,0.1,0.5s0,0.4-0.1,0.5s-0.2,0.2-0.3,0.2
		C183.2,81.8,183.1,81.5,183.1,81.1z M183.8,90.6h-0.7v-7.4h0.7V90.6z"/>
	<path class="st12" d="M189.3,90.7c-1.1,0-1.9-0.3-2.5-1s-0.9-1.6-0.9-2.8s0.3-2.1,0.9-2.8s1.4-1.1,2.4-1.1c0.9,0,1.6,0.3,2.1,0.9
		s0.8,1.4,0.8,2.5v0.5h-5.4c0,1,0.2,1.8,0.7,2.3s1.1,0.8,2,0.8c0.4,0,0.8,0,1.1-0.1s0.7-0.2,1.2-0.4v0.6c-0.4,0.2-0.8,0.3-1.2,0.4
		S189.7,90.7,189.3,90.7z M189.1,83.6c-0.7,0-1.3,0.2-1.7,0.7s-0.7,1.2-0.8,2h4.6c0-0.9-0.2-1.5-0.6-2S189.8,83.6,189.1,83.6z"/>
	<path class="st12" d="M194.7,90.6H194V80h0.7V90.6z"/>
	<path class="st12" d="M199.9,83c0.5,0,1,0.1,1.4,0.3s0.7,0.5,1.1,1l0,0c0-0.6,0-1.1,0-1.7v-2.7h0.7v10.6h-0.4l-0.2-1.1h-0.1
		c-0.6,0.8-1.4,1.3-2.4,1.3s-1.8-0.3-2.4-1s-0.8-1.6-0.8-2.8c0-1.3,0.3-2.3,0.8-2.9S198.9,83,199.9,83z M199.9,83.6
		c-0.8,0-1.4,0.3-1.8,0.9s-0.6,1.4-0.6,2.5c0,2.1,0.8,3.2,2.5,3.2c0.8,0,1.5-0.2,1.8-0.7s0.6-1.3,0.6-2.4V87c0-1.1-0.2-2-0.6-2.5
		S200.7,83.6,199.9,83.6z"/>
	<path class="st12" d="M211.1,90.1c0.4,0,0.8,0,1.1-0.1v0.5c-0.3,0.1-0.7,0.2-1.1,0.2c-0.7,0-1.1-0.2-1.5-0.5s-0.5-0.9-0.5-1.7v-4.8
		H208v-0.4l1.1-0.3l0.3-1.7h0.3v1.8h2.2v0.6h-2.2v4.7c0,0.6,0.1,1,0.3,1.3S210.7,90.1,211.1,90.1z"/>
	<path class="st12" d="M218.3,90.6l-0.2-1.2H218c-0.4,0.5-0.8,0.8-1.2,1s-0.9,0.3-1.4,0.3c-0.7,0-1.3-0.2-1.7-0.6s-0.6-0.9-0.6-1.6
		c0-0.7,0.3-1.3,0.9-1.7s1.5-0.6,2.6-0.6h1.4v-0.5c0-0.7-0.1-1.2-0.4-1.6s-0.7-0.5-1.4-0.5c-0.7,0-1.4,0.2-2.1,0.6l-0.3-0.6
		c0.8-0.4,1.6-0.6,2.4-0.6s1.4,0.2,1.8,0.6s0.6,1.1,0.6,2v4.9h-0.3V90.6z M215.6,90.1c0.8,0,1.4-0.2,1.9-0.7s0.7-1.1,0.7-1.9v-0.7
		l-1.3,0.1c-1,0.1-1.8,0.2-2.2,0.5s-0.7,0.7-0.7,1.3c0,0.5,0.1,0.8,0.4,1.1S215.1,90.1,215.6,90.1z"/>
	<path class="st12" d="M224.2,83c0.3,0,0.7,0,1,0.1l-0.1,0.6c-0.3-0.1-0.6-0.1-1-0.1c-0.6,0-1.2,0.3-1.6,0.8s-0.6,1.2-0.6,2v4.1
		h-0.7v-7.4h0.6l0.1,1.3l0,0c0.3-0.5,0.6-0.9,1-1.2S223.7,83,224.2,83z"/>
	<path class="st12" d="M232.5,83.2v0.5l-1.5,0.1c0.4,0.5,0.6,1.1,0.6,1.7c0,0.7-0.2,1.3-0.7,1.7s-1.1,0.7-1.9,0.7
		c-0.3,0-0.6,0-0.7,0c-0.3,0.1-0.5,0.3-0.6,0.5s-0.2,0.4-0.2,0.6c0,0.2,0.1,0.4,0.3,0.5s0.5,0.2,0.9,0.2h1.3c0.8,0,1.4,0.2,1.9,0.5
		s0.6,0.8,0.6,1.4c0,0.8-0.3,1.4-1,1.8S230,94,228.8,94c-0.9,0-1.7-0.2-2.2-0.5s-0.8-0.9-0.8-1.5c0-0.5,0.2-0.9,0.5-1.3
		s0.7-0.6,1.3-0.7c-0.2-0.1-0.4-0.2-0.5-0.4s-0.2-0.4-0.2-0.6c0-0.5,0.3-0.9,1-1.3c-0.4-0.2-0.8-0.5-1-0.8s-0.4-0.8-0.4-1.3
		c0-0.7,0.2-1.3,0.7-1.8s1.1-0.7,1.9-0.7c0.5,0,0.9,0,1.1,0.1H232.5z M226.5,91.9c0,1,0.8,1.5,2.3,1.5c2,0,2.9-0.6,2.9-1.9
		c0-0.4-0.2-0.8-0.5-1s-0.8-0.3-1.5-0.3h-1.2C227.1,90.2,226.5,90.8,226.5,91.9z M227,85.5c0,0.6,0.2,1,0.5,1.3s0.8,0.5,1.4,0.5
		s1.1-0.2,1.4-0.5s0.5-0.8,0.5-1.4c0-0.6-0.2-1.1-0.5-1.4s-0.8-0.5-1.4-0.5s-1.1,0.2-1.4,0.5S227,84.9,227,85.5z"/>
	<path class="st12" d="M237,90.7c-1.1,0-1.9-0.3-2.5-1s-0.9-1.6-0.9-2.8s0.3-2.1,0.9-2.8s1.4-1.1,2.4-1.1c0.9,0,1.6,0.3,2.1,0.9
		s0.8,1.4,0.8,2.5v0.5h-5.4c0,1,0.2,1.8,0.7,2.3s1.1,0.8,2,0.8c0.4,0,0.8,0,1.1-0.1s0.7-0.2,1.2-0.4v0.6c-0.4,0.2-0.8,0.3-1.2,0.4
		S237.4,90.7,237,90.7z M236.8,83.6c-0.7,0-1.3,0.2-1.7,0.7s-0.7,1.2-0.8,2h4.6c0-0.9-0.2-1.5-0.6-2S237.5,83.6,236.8,83.6z"/>
	<path class="st12" d="M243.7,90.1c0.4,0,0.8,0,1.1-0.1v0.5c-0.3,0.1-0.7,0.2-1.1,0.2c-0.7,0-1.1-0.2-1.5-0.5s-0.5-0.9-0.5-1.7v-4.8
		h-1.1v-0.4l1.1-0.3l0.3-1.7h0.3v1.8h2.2v0.6h-2.2v4.7c0,0.6,0.1,1,0.3,1.3S243.2,90.1,243.7,90.1z"/>
	<path class="st12" d="M252.4,84.6c1.1,0,1.9,0.3,2.5,0.8s0.9,1.2,0.9,2.1c0,1-0.3,1.8-1,2.4s-1.5,0.9-2.6,0.9c-0.5,0-1,0-1.4-0.1
		s-0.8-0.2-1.1-0.4v-0.8c0.5,0.3,0.9,0.4,1.3,0.5s0.8,0.1,1.2,0.1c0.9,0,1.6-0.2,2.1-0.7s0.8-1.1,0.8-1.9c0-0.7-0.3-1.3-0.8-1.8
		s-1.2-0.6-2.1-0.6c-0.6,0-1.2,0.1-1.9,0.3l-0.4-0.3l0.4-4.6h4.8v0.7h-4.2l-0.3,3.5C251.5,84.6,252,84.6,252.4,84.6z"/>
	<path class="st12" d="M261.5,83.6c0,1-0.2,1.8-0.5,2.3s-0.8,0.8-1.5,0.8c-0.6,0-1.1-0.3-1.4-0.8s-0.5-1.3-0.5-2.3s0.2-1.8,0.5-2.3
		s0.8-0.8,1.4-0.8s1.1,0.3,1.5,0.8S261.5,82.6,261.5,83.6z M258.2,83.6c0,0.8,0.1,1.5,0.3,1.9s0.5,0.6,1,0.6c0.9,0,1.3-0.9,1.3-2.5
		c0-0.8-0.1-1.5-0.3-1.9s-0.6-0.6-1-0.6s-0.8,0.2-1,0.6S258.2,82.7,258.2,83.6z M265.5,80.6l-5.5,10h-0.7l5.5-10H265.5z M267.3,87.6
		c0,1-0.2,1.8-0.5,2.3s-0.8,0.8-1.5,0.8c-0.6,0-1.1-0.3-1.4-0.8s-0.5-1.3-0.5-2.3s0.2-1.8,0.5-2.3s0.8-0.8,1.5-0.8
		c0.6,0,1.1,0.3,1.5,0.8S267.3,86.6,267.3,87.6z M264,87.6c0,0.8,0.1,1.5,0.3,1.9s0.5,0.6,1,0.6c0.9,0,1.3-0.8,1.3-2.5
		s-0.4-2.5-1.3-2.5c-0.4,0-0.8,0.2-1,0.6S264,86.8,264,87.6z"/>
	<path class="st12" d="M272.3,85.4h3V86h-3v3h-0.6v-3h-3v-0.6h3v-3h0.6V85.4z"/>
</g>
<g>
	<path class="st12" d="M37.1,352.3v-10h0.7v10H37.1z"/>
	<path class="st12" d="M45.7,352.3v-4.8c0-0.7-0.2-1.3-0.5-1.6s-0.8-0.5-1.5-0.5c-0.9,0-1.5,0.2-2,0.7s-0.6,1.2-0.6,2.2v4.1h-0.6
		V345h0.6l0.1,1l0,0c0.5-0.8,1.3-1.2,2.6-1.2c1.7,0,2.5,0.9,2.5,2.7v4.9h-0.6V352.3z"/>
	<path class="st12" d="M50.4,352.3l-2.9-7.4h0.7l1.9,5.1c0.3,0.6,0.4,1.2,0.6,1.7l0,0c0.2-0.6,0.4-1.2,0.6-1.7l1.9-5h0.7l-2.9,7.4
		h-0.6V352.3z"/>
	<path class="st12" d="M58.2,352.4c-1.1,0-1.9-0.3-2.5-1s-0.9-1.6-0.9-2.8c0-1.2,0.3-2.1,0.9-2.8s1.4-1.1,2.4-1.1
		c0.9,0,1.6,0.3,2.1,0.9s0.8,1.4,0.8,2.5v0.5h-5.4c0,1,0.2,1.8,0.7,2.3s1.1,0.8,2,0.8c0.4,0,0.8,0,1.1-0.1s0.7-0.2,1.2-0.4v0.6
		c-0.4,0.2-0.8,0.3-1.2,0.4S58.6,352.4,58.2,352.4z M58,345.3c-0.7,0-1.3,0.2-1.7,0.7s-0.7,1.2-0.8,2h4.6c0-0.9-0.2-1.5-0.6-2
		S58.6,345.3,58,345.3z"/>
	<path class="st12" d="M67.4,350.3c0,0.7-0.3,1.2-0.8,1.5s-1.2,0.5-2.2,0.5s-1.8-0.2-2.4-0.5v-0.7c0.7,0.4,1.5,0.6,2.4,0.6
		c0.7,0,1.3-0.1,1.7-0.4s0.6-0.6,0.6-1s-0.2-0.7-0.5-0.9s-0.8-0.5-1.5-0.8s-1.3-0.5-1.6-0.7s-0.5-0.4-0.7-0.7s-0.2-0.5-0.2-0.9
		c0-0.6,0.2-1,0.7-1.3s1.1-0.5,2-0.5c0.8,0,1.6,0.2,2.3,0.5l-0.3,0.6c-0.7-0.3-1.4-0.5-2-0.5s-1.1,0.1-1.4,0.3s-0.5,0.5-0.5,0.8
		c0,0.4,0.1,0.7,0.4,0.9s0.8,0.5,1.6,0.8c0.7,0.2,1.2,0.5,1.5,0.7s0.5,0.4,0.7,0.7S67.4,350,67.4,350.3z"/>
	<path class="st12" d="M71.3,351.8c0.4,0,0.8,0,1.1-0.1v0.5c-0.3,0.1-0.7,0.2-1.1,0.2c-0.7,0-1.1-0.2-1.5-0.5s-0.5-0.9-0.5-1.7v-4.8
		h-1.1V345l1.1-0.3l0.3-1.7h0.3v1.8h2.2v0.6h-2.2v4.7c0,0.6,0.1,1,0.3,1.3S70.9,351.8,71.3,351.8z"/>
	<path class="st12" d="M83.3,352.3v-4.9c0-0.7-0.1-1.3-0.4-1.6s-0.7-0.5-1.3-0.5c-0.8,0-1.3,0.2-1.7,0.6s-0.5,1.1-0.5,2v4.4h-0.7
		v-5.1c0-1.3-0.6-1.9-1.7-1.9c-0.8,0-1.3,0.2-1.7,0.7s-0.5,1.2-0.5,2.2v4.1h-0.7v-7.4h0.6l0.1,1l0,0c0.2-0.4,0.5-0.7,0.9-0.9
		s0.8-0.3,1.3-0.3c1.2,0,1.9,0.4,2.3,1.3l0,0c0.2-0.4,0.6-0.7,1-1s0.9-0.3,1.4-0.3c0.8,0,1.4,0.2,1.8,0.6s0.6,1.1,0.6,2.1v4.9
		L83.3,352.3L83.3,352.3z"/>
	<path class="st12" d="M89.4,352.4c-1.1,0-1.9-0.3-2.5-1s-0.9-1.6-0.9-2.8c0-1.2,0.3-2.1,0.9-2.8s1.4-1.1,2.4-1.1
		c0.9,0,1.6,0.3,2.1,0.9s0.8,1.4,0.8,2.5v0.5h-5.4c0,1,0.2,1.8,0.7,2.3s1.1,0.8,2,0.8c0.4,0,0.8,0,1.1-0.1s0.7-0.2,1.2-0.4v0.6
		c-0.4,0.2-0.8,0.3-1.2,0.4S89.8,352.4,89.4,352.4z M89.2,345.3c-0.7,0-1.3,0.2-1.7,0.7s-0.7,1.2-0.8,2h4.6c0-0.9-0.2-1.5-0.6-2
		S89.9,345.3,89.2,345.3z"/>
	<path class="st12" d="M99.3,352.3v-4.8c0-0.7-0.2-1.3-0.5-1.6s-0.8-0.5-1.5-0.5c-0.9,0-1.5,0.2-2,0.7s-0.6,1.2-0.6,2.2v4.1H94V345
		h0.6l0.1,1l0,0c0.5-0.8,1.3-1.2,2.6-1.2c1.7,0,2.5,0.9,2.5,2.7v4.9h-0.5V352.3z"/>
	<path class="st12" d="M104.3,351.8c0.4,0,0.8,0,1.1-0.1v0.5c-0.3,0.1-0.7,0.2-1.1,0.2c-0.7,0-1.1-0.2-1.5-0.5s-0.5-0.9-0.5-1.7
		v-4.8h-1.1V345l1.1-0.3l0.3-1.7h0.3v1.8h2.2v0.6h-2.2v4.7c0,0.6,0.1,1,0.3,1.3S103.9,351.8,104.3,351.8z"/>
	<path class="st12" d="M116.3,352.3h-5.5v-10h5.5v0.6h-4.8v3.8h4.5v0.6h-4.5v4.3h4.8V352.3z"/>
	<path class="st12" d="M120.2,348.4l-2.6-3.6h0.8l2.2,3.1l2.2-3.1h0.7l-2.5,3.6l2.7,3.8h-0.8l-2.3-3.3l-2.4,3.3h-0.7L120.2,348.4z"
		/>
	<path class="st12" d="M128.6,352.4c-1.1,0-2-0.4-2.5-1.3l0,0v0.6c0,0.3,0,0.7,0,1.1v2.8h-0.7v-10.8h0.6l0.1,1.1l0,0
		c0.5-0.8,1.3-1.2,2.4-1.2c1,0,1.8,0.3,2.3,1s0.8,1.6,0.8,2.9c0,1.2-0.3,2.2-0.8,2.8S129.5,352.4,128.6,352.4z M128.5,351.8
		c0.8,0,1.4-0.3,1.8-0.8s0.6-1.4,0.6-2.4c0-2.2-0.8-3.3-2.4-3.3c-0.9,0-1.5,0.2-1.9,0.7s-0.6,1.3-0.6,2.3v0.2c0,1.2,0.2,2,0.6,2.5
		S127.7,351.8,128.5,351.8z"/>
	<path class="st12" d="M136.7,352.4c-1.1,0-1.9-0.3-2.5-1s-0.9-1.6-0.9-2.8c0-1.2,0.3-2.1,0.9-2.8s1.4-1.1,2.4-1.1
		c0.9,0,1.6,0.3,2.1,0.9s0.8,1.4,0.8,2.5v0.5h-5.4c0,1,0.2,1.8,0.7,2.3s1.1,0.8,2,0.8c0.4,0,0.8,0,1.1-0.1s0.7-0.2,1.2-0.4v0.6
		c-0.4,0.2-0.8,0.3-1.2,0.4S137.1,352.4,136.7,352.4z M136.5,345.3c-0.7,0-1.3,0.2-1.7,0.7s-0.7,1.2-0.8,2h4.6c0-0.9-0.2-1.5-0.6-2
		S137.2,345.3,136.5,345.3z"/>
	<path class="st12" d="M144.3,344.7c0.3,0,0.7,0,1,0.1l-0.1,0.6c-0.3-0.1-0.6-0.1-1-0.1c-0.6,0-1.2,0.3-1.6,0.8s-0.6,1.2-0.6,2v4.1
		h-0.7v-7.4h0.6l0.1,1.3l0,0c0.3-0.5,0.6-0.9,1-1.2S143.8,344.7,144.3,344.7z"/>
	<path class="st12" d="M146.7,342.8c0-0.4,0.1-0.7,0.4-0.7c0.1,0,0.3,0.1,0.3,0.2s0.1,0.3,0.1,0.5s0,0.4-0.1,0.5s-0.2,0.2-0.3,0.2
		C146.9,343.4,146.7,343.2,146.7,342.8z M147.5,352.3h-0.7v-7.4h0.7V352.3z"/>
	<path class="st12" d="M153,352.4c-1.1,0-1.9-0.3-2.5-1s-0.9-1.6-0.9-2.8c0-1.2,0.3-2.1,0.9-2.8s1.4-1.1,2.4-1.1
		c0.9,0,1.6,0.3,2.1,0.9s0.8,1.4,0.8,2.5v0.5h-5.4c0,1,0.2,1.8,0.7,2.3s1.1,0.8,2,0.8c0.4,0,0.8,0,1.1-0.1s0.7-0.2,1.2-0.4v0.6
		c-0.4,0.2-0.8,0.3-1.2,0.4S153.4,352.4,153,352.4z M152.8,345.3c-0.7,0-1.3,0.2-1.7,0.7s-0.7,1.2-0.8,2h4.6c0-0.9-0.2-1.5-0.6-2
		S153.5,345.3,152.8,345.3z"/>
	<path class="st12" d="M162.9,352.3v-4.8c0-0.7-0.2-1.3-0.5-1.6s-0.8-0.5-1.5-0.5c-0.9,0-1.5,0.2-2,0.7s-0.6,1.2-0.6,2.2v4.1h-0.7
		V345h0.6l0.1,1l0,0c0.5-0.8,1.3-1.2,2.6-1.2c1.7,0,2.5,0.9,2.5,2.7v4.9h-0.5V352.3z"/>
	<path class="st12" d="M168.9,352.4c-1.1,0-1.9-0.3-2.5-1s-0.9-1.6-0.9-2.8c0-1.2,0.3-2.2,0.9-2.9s1.5-1,2.6-1
		c0.6,0,1.3,0.1,1.8,0.3l-0.2,0.6c-0.6-0.2-1.2-0.3-1.7-0.3c-0.9,0-1.6,0.3-2.1,0.8s-0.7,1.4-0.7,2.4s0.2,1.8,0.7,2.4s1.1,0.9,2,0.9
		c0.7,0,1.3-0.1,1.9-0.4v0.6C170.3,352.3,169.7,352.4,168.9,352.4z"/>
	<path class="st12" d="M175.6,352.4c-1.1,0-1.9-0.3-2.5-1s-0.9-1.6-0.9-2.8c0-1.2,0.3-2.1,0.9-2.8s1.4-1.1,2.4-1.1
		c0.9,0,1.6,0.3,2.1,0.9s0.8,1.4,0.8,2.5v0.5H173c0,1,0.2,1.8,0.7,2.3s1.1,0.8,2,0.8c0.4,0,0.8,0,1.1-0.1s0.7-0.2,1.2-0.4v0.6
		c-0.4,0.2-0.8,0.3-1.2,0.4S176,352.4,175.6,352.4z M175.4,345.3c-0.7,0-1.3,0.2-1.7,0.7s-0.7,1.2-0.8,2h4.6c0-0.9-0.2-1.5-0.6-2
		S176.1,345.3,175.4,345.3z"/>
	<path class="st12" d="M190.1,348.5c0,1.2-0.3,2.2-0.9,2.8s-1.4,1-2.4,1c-0.7,0-1.2-0.2-1.7-0.5s-0.9-0.8-1.1-1.4s-0.4-1.3-0.4-2
		c0-1.2,0.3-2.2,0.9-2.8s1.4-1,2.4-1s1.8,0.3,2.4,1S190.1,347.3,190.1,348.5z M184.2,348.5c0,1,0.2,1.8,0.7,2.4s1.1,0.9,1.9,0.9
		s1.5-0.3,1.9-0.9s0.7-1.4,0.7-2.4s-0.2-1.8-0.7-2.4s-1.1-0.8-1.9-0.8s-1.5,0.3-1.9,0.8S184.2,347.5,184.2,348.5z"/>
	<path class="st12" d="M193.7,352.3l-2.9-7.4h0.7l1.9,5.1c0.3,0.6,0.4,1.2,0.6,1.7l0,0c0.2-0.6,0.4-1.2,0.6-1.7l1.9-5h0.7l-2.9,7.4
		h-0.6V352.3z"/>
	<path class="st12" d="M201.5,352.4c-1.1,0-1.9-0.3-2.5-1s-0.9-1.6-0.9-2.8c0-1.2,0.3-2.1,0.9-2.8s1.4-1.1,2.4-1.1
		c0.9,0,1.6,0.3,2.1,0.9s0.8,1.4,0.8,2.5v0.5h-5.4c0,1,0.2,1.8,0.7,2.3s1.1,0.8,2,0.8c0.4,0,0.8,0,1.1-0.1s0.7-0.2,1.2-0.4v0.6
		c-0.4,0.2-0.8,0.3-1.2,0.4S202,352.4,201.5,352.4z M201.3,345.3c-0.7,0-1.3,0.2-1.7,0.7s-0.7,1.2-0.8,2h4.6c0-0.9-0.2-1.5-0.6-2
		S202,345.3,201.3,345.3z"/>
	<path class="st12" d="M209.2,344.7c0.3,0,0.7,0,1,0.1l-0.1,0.6c-0.3-0.1-0.6-0.1-1-0.1c-0.6,0-1.2,0.3-1.6,0.8s-0.6,1.2-0.6,2v4.1
		h-0.7v-7.4h0.6l0.1,1.3l0,0c0.3-0.5,0.6-0.9,1-1.2S208.7,344.7,209.2,344.7z"/>
	<path class="st12" d="M221.1,352.3h-6.3v-0.6l2.7-2.8c0.7-0.8,1.3-1.4,1.6-1.8s0.5-0.8,0.7-1.2s0.2-0.8,0.2-1.2
		c0-0.6-0.2-1.1-0.6-1.5s-0.9-0.6-1.5-0.6c-0.8,0-1.6,0.3-2.4,0.9l-0.4-0.5c0.8-0.7,1.8-1.1,2.8-1.1c0.9,0,1.6,0.2,2.1,0.7
		s0.7,1.1,0.7,1.9c0,0.7-0.2,1.3-0.5,1.9s-0.9,1.4-1.8,2.3l-2.6,2.6l0,0h5.3L221.1,352.3L221.1,352.3z"/>
	<path class="st12" d="M225.7,346.3c1.1,0,1.9,0.3,2.5,0.8s0.9,1.2,0.9,2.1c0,1-0.3,1.8-1,2.4s-1.5,0.9-2.6,0.9c-0.5,0-1,0-1.4-0.1
		s-0.8-0.2-1.1-0.4v-0.7c0.5,0.3,0.9,0.4,1.3,0.5s0.8,0.1,1.2,0.1c0.9,0,1.6-0.2,2.1-0.7s0.8-1.1,0.8-1.9c0-0.7-0.3-1.3-0.8-1.8
		s-1.2-0.6-2.1-0.6c-0.6,0-1.2,0.1-1.9,0.3l-0.4-0.3l0.4-4.6h4.8v0.7h-4.2l-0.3,3.5C224.8,346.3,225.3,346.3,225.7,346.3z"/>
	<path class="st12" d="M230.1,344.8h0.7l1.6,4.2c0.5,1.3,0.8,2.1,0.9,2.6l0,0c0.2-0.6,0.5-1.5,0.9-2.6l1.6-4.1h0.7l-3.3,8.6
		c-0.3,0.7-0.5,1.2-0.7,1.4s-0.4,0.4-0.6,0.6s-0.5,0.2-0.9,0.2c-0.3,0-0.5,0-0.9-0.1V355c0.3,0.1,0.5,0.1,0.9,0.1
		c0.2,0,0.4-0.1,0.6-0.2s0.3-0.3,0.5-0.5s0.3-0.6,0.5-1.1s0.3-0.8,0.4-1L230.1,344.8z"/>
	<path class="st12" d="M240.6,344.7c0.3,0,0.7,0,1,0.1l-0.1,0.6c-0.3-0.1-0.6-0.1-1-0.1c-0.6,0-1.2,0.3-1.6,0.8s-0.6,1.2-0.6,2v4.1
		h-0.7v-7.4h0.6l0.1,1.3l0,0c0.3-0.5,0.6-0.9,1-1.2S240.2,344.7,240.6,344.7z"/>
	<path class="st12" d="M246.2,347h3v0.6h-3v3h-0.6v-3h-3V347h3v-3h0.6V347z"/>
</g>
<g>
	<path class="st12" d="M759.5,323.6v-10h0.7v10H759.5z"/>
	<path class="st12" d="M768.1,323.6v-4.8c0-0.7-0.2-1.3-0.5-1.6s-0.8-0.5-1.5-0.5c-0.9,0-1.5,0.2-2,0.7s-0.6,1.1-0.6,2.1v4.1h-0.7
		v-7.4h0.6l0.1,1l0,0c0.5-0.8,1.3-1.2,2.6-1.2c1.7,0,2.5,0.9,2.5,2.7v4.9H768.1z"/>
	<path class="st12" d="M771,314.1c0-0.4,0.1-0.7,0.4-0.7c0.1,0,0.3,0.1,0.3,0.2s0.1,0.3,0.1,0.5s0,0.4-0.1,0.5s-0.2,0.2-0.3,0.2
		C771.2,314.8,771,314.6,771,314.1z M771.8,323.6h-0.7v-7.4h0.7V323.6z"/>
	<path class="st12" d="M776.3,323.2c0.4,0,0.8,0,1.1-0.1v0.5c-0.3,0.1-0.7,0.2-1.1,0.2c-0.7,0-1.1-0.2-1.5-0.5s-0.5-0.9-0.5-1.7
		v-4.8h-1.1v-0.4l1.1-0.3l0.3-1.7h0.3v1.8h2.2v0.6h-2.2v4.7c0,0.6,0.1,1,0.3,1.3C775.5,323,775.8,323.2,776.3,323.2z"/>
	<path class="st12" d="M778.9,314.1c0-0.4,0.1-0.7,0.4-0.7c0.1,0,0.3,0.1,0.3,0.2c0.1,0.1,0.1,0.3,0.1,0.5s0,0.4-0.1,0.5
		s-0.2,0.2-0.3,0.2C779,314.8,778.9,314.6,778.9,314.1z M779.7,323.6H779v-7.4h0.7V323.6z"/>
	<path class="st12" d="M786.7,323.6l-0.2-1.2h-0.1c-0.4,0.5-0.8,0.8-1.2,1s-0.9,0.3-1.4,0.3c-0.7,0-1.3-0.2-1.7-0.6
		s-0.6-0.9-0.6-1.6s0.3-1.3,0.9-1.7c0.6-0.4,1.5-0.6,2.6-0.6h1.4v-0.5c0-0.7-0.1-1.2-0.4-1.6s-0.8-0.5-1.4-0.5
		c-0.7,0-1.4,0.2-2.1,0.6l-0.3-0.6c0.8-0.4,1.6-0.6,2.4-0.6c0.8,0,1.4,0.2,1.8,0.6c0.4,0.4,0.6,1.1,0.6,2v4.9h-0.3V323.6z
		 M783.9,323.1c0.8,0,1.4-0.2,1.9-0.7s0.7-1.1,0.7-1.9v-0.7l-1.3,0.1c-1,0.1-1.8,0.2-2.2,0.5s-0.7,0.7-0.7,1.3
		c0,0.5,0.1,0.8,0.4,1.1S783.4,323.1,783.9,323.1z"/>
	<path class="st12" d="M790.2,323.6h-0.7V313h0.7V323.6z"/>
	<path class="st12" d="M796.3,314.1c0-0.4,0.1-0.7,0.4-0.7c0.1,0,0.3,0.1,0.3,0.2s0.1,0.3,0.1,0.5s0,0.4-0.1,0.5s-0.2,0.2-0.3,0.2
		C796.4,314.8,796.3,314.6,796.3,314.1z M797,323.6h-0.7v-7.4h0.7V323.6z"/>
	<path class="st12" d="M804.7,323.6v-4.8c0-0.7-0.2-1.3-0.5-1.6s-0.8-0.5-1.5-0.5c-0.9,0-1.5,0.2-2,0.7c-0.4,0.4-0.6,1.2-0.6,2.2
		v4.1h-0.6v-7.4h0.6l0.1,1l0,0c0.5-0.8,1.3-1.2,2.6-1.2c1.7,0,2.5,0.9,2.5,2.7v4.9h-0.6V323.6z"/>
	<path class="st12" d="M809.4,323.6l-2.9-7.4h0.7l1.9,5.1c0.3,0.6,0.4,1.2,0.6,1.7l0,0c0.2-0.6,0.4-1.2,0.6-1.7l1.9-5h0.7l-2.9,7.4
		h-0.6V323.6z"/>
	<path class="st12" d="M817.2,323.8c-1.1,0-1.9-0.3-2.5-1s-0.9-1.6-0.9-2.8c0-1.2,0.3-2.1,0.9-2.8c0.6-0.7,1.4-1.1,2.4-1.1
		c0.9,0,1.6,0.3,2.1,0.9s0.8,1.4,0.8,2.5v0.5h-5.5c0,1,0.2,1.8,0.7,2.3s1.1,0.8,2,0.8c0.4,0,0.8,0,1.1-0.1s0.7-0.2,1.2-0.4v0.6
		c-0.4,0.2-0.8,0.3-1.2,0.4S817.6,323.8,817.2,323.8z M817,316.6c-0.7,0-1.3,0.2-1.7,0.7s-0.7,1.2-0.8,2h4.6c0-0.9-0.2-1.5-0.6-2
		C818.2,316.9,817.7,316.6,817,316.6z"/>
	<path class="st12" d="M826.5,321.7c0,0.7-0.3,1.2-0.8,1.5s-1.2,0.5-2.2,0.5s-1.8-0.2-2.4-0.5v-0.7c0.7,0.4,1.5,0.6,2.4,0.6
		c0.7,0,1.3-0.1,1.7-0.4s0.6-0.6,0.6-1s-0.2-0.7-0.5-0.9c-0.3-0.3-0.8-0.5-1.5-0.8s-1.3-0.5-1.6-0.7s-0.5-0.4-0.7-0.7
		s-0.2-0.5-0.2-0.9c0-0.6,0.2-1,0.7-1.3s1.1-0.5,2-0.5c0.8,0,1.6,0.2,2.3,0.5L826,317c-0.7-0.3-1.4-0.5-2-0.5s-1.1,0.1-1.4,0.3
		s-0.5,0.5-0.5,0.8c0,0.4,0.1,0.7,0.4,0.9c0.3,0.2,0.8,0.5,1.6,0.8c0.7,0.2,1.2,0.5,1.5,0.7s0.5,0.4,0.7,0.7
		S826.5,321.4,826.5,321.7z"/>
	<path class="st12" d="M830.4,323.2c0.4,0,0.8,0,1.1-0.1v0.5c-0.3,0.1-0.7,0.2-1.1,0.2c-0.7,0-1.1-0.2-1.5-0.5s-0.5-0.9-0.5-1.7
		v-4.8h-1.1v-0.4l1.1-0.3l0.3-1.7h0.3v1.8h2.2v0.6H829v4.7c0,0.6,0.1,1,0.3,1.3C829.6,323,830,323.2,830.4,323.2z"/>
	<path class="st12" d="M842.4,323.6v-4.9c0-0.7-0.1-1.3-0.4-1.6c-0.3-0.3-0.7-0.5-1.3-0.5c-0.8,0-1.3,0.2-1.7,0.6s-0.5,1.1-0.5,2
		v4.4h-0.7v-5.1c0-1.3-0.6-1.9-1.7-1.9c-0.8,0-1.3,0.2-1.7,0.7s-0.5,1.2-0.5,2.2v4.1h-0.7v-7.4h0.6l0.1,1l0,0
		c0.2-0.4,0.5-0.7,0.9-0.9c0.4-0.2,0.8-0.3,1.3-0.3c1.2,0,1.9,0.4,2.3,1.3l0,0c0.2-0.4,0.6-0.7,1-1s0.9-0.3,1.4-0.3
		c0.8,0,1.4,0.2,1.8,0.6c0.4,0.4,0.6,1.1,0.6,2.1v4.9L842.4,323.6L842.4,323.6z"/>
	<path class="st12" d="M848.5,323.8c-1.1,0-1.9-0.3-2.5-1s-0.9-1.6-0.9-2.8c0-1.2,0.3-2.1,0.9-2.8c0.6-0.7,1.4-1.1,2.4-1.1
		c0.9,0,1.6,0.3,2.1,0.9s0.8,1.4,0.8,2.5v0.5h-5.4c0,1,0.2,1.8,0.7,2.3s1.1,0.8,2,0.8c0.4,0,0.8,0,1.1-0.1s0.7-0.2,1.2-0.4v0.6
		c-0.4,0.2-0.8,0.3-1.2,0.4S848.9,323.8,848.5,323.8z M848.3,316.6c-0.7,0-1.3,0.2-1.7,0.7s-0.7,1.2-0.8,2h4.6c0-0.9-0.2-1.5-0.6-2
		C849.4,316.9,848.9,316.6,848.3,316.6z"/>
	<path class="st12" d="M858.3,323.6v-4.8c0-0.7-0.2-1.3-0.5-1.6s-0.8-0.5-1.5-0.5c-0.9,0-1.5,0.2-2,0.7c-0.4,0.4-0.6,1.2-0.6,2.2
		v4.1H853v-7.4h0.6l0.1,1l0,0c0.5-0.8,1.3-1.2,2.6-1.2c1.7,0,2.5,0.9,2.5,2.7v4.9h-0.5V323.6z"/>
	<path class="st12" d="M863.4,323.2c0.4,0,0.8,0,1.1-0.1v0.5c-0.3,0.1-0.7,0.2-1.1,0.2c-0.7,0-1.1-0.2-1.5-0.5s-0.5-0.9-0.5-1.7
		v-4.8h-1.1v-0.4l1.1-0.3l0.3-1.7h0.3v1.8h2.2v0.6H862v4.7c0,0.6,0.1,1,0.3,1.3C862.6,323,862.9,323.2,863.4,323.2z"/>
	<path class="st12" d="M875.9,316.5c0,1-0.3,1.7-1,2.2s-1.6,0.8-2.8,0.8h-1.5v4.1h-0.7v-10h2.4C874.7,313.6,875.9,314.6,875.9,316.5
		z M870.6,318.9h1.4c1.1,0,1.9-0.2,2.4-0.6s0.8-1,0.8-1.8s-0.2-1.3-0.7-1.7c-0.5-0.4-1.2-0.6-2.2-0.6h-1.7V318.9z"/>
	<path class="st12" d="M884.1,319.9c0,1.2-0.3,2.2-0.9,2.8s-1.4,1-2.4,1c-0.7,0-1.2-0.2-1.7-0.5s-0.9-0.8-1.1-1.4
		c-0.3-0.6-0.4-1.3-0.4-2c0-1.2,0.3-2.2,0.9-2.8s1.4-1,2.4-1s1.8,0.3,2.4,1C883.8,317.8,884.1,318.7,884.1,319.9z M878.2,319.9
		c0,1,0.2,1.8,0.7,2.4c0.4,0.6,1.1,0.9,1.9,0.9s1.5-0.3,1.9-0.9s0.7-1.4,0.7-2.4s-0.2-1.8-0.7-2.4s-1.1-0.8-1.9-0.8
		s-1.5,0.3-1.9,0.8C878.4,318.1,878.2,318.9,878.2,319.9z"/>
	<path class="st12" d="M889.1,316c0.3,0,0.7,0,1,0.1l-0.1,0.6c-0.3-0.1-0.6-0.1-1-0.1c-0.6,0-1.2,0.3-1.6,0.8
		c-0.4,0.5-0.6,1.2-0.6,2v4.1h-0.7v-7.4h0.6l0.1,1.3l0,0c0.3-0.5,0.6-0.9,1-1.2C888.1,316.2,888.6,316,889.1,316z"/>
	<path class="st12" d="M893.5,323.2c0.4,0,0.8,0,1.1-0.1v0.5c-0.3,0.1-0.7,0.2-1.1,0.2c-0.7,0-1.1-0.2-1.5-0.5
		c-0.3-0.4-0.5-0.9-0.5-1.7v-4.8h-1.1v-0.4l1.1-0.3l0.3-1.7h0.3v1.8h2.2v0.6h-2.2v4.7c0,0.6,0.1,1,0.3,1.3
		C892.8,323,893.1,323.2,893.5,323.2z"/>
	<path class="st12" d="M899,316.8h-1.8v6.8h-0.7v-6.8h-1.4v-0.4l1.4-0.3v-0.6c0-0.9,0.2-1.6,0.5-2s0.9-0.6,1.6-0.6
		c0.4,0,0.8,0.1,1.2,0.2l-0.2,0.6c-0.4-0.1-0.7-0.2-1.1-0.2c-0.5,0-0.9,0.2-1.1,0.5s-0.3,0.8-0.3,1.5v0.7h1.8L899,316.8L899,316.8z"
		/>
	<path class="st12" d="M906.6,319.9c0,1.2-0.3,2.2-0.9,2.8s-1.4,1-2.4,1c-0.7,0-1.2-0.2-1.7-0.5s-0.9-0.8-1.1-1.4
		c-0.3-0.6-0.4-1.3-0.4-2c0-1.2,0.3-2.2,0.9-2.8s1.4-1,2.4-1s1.8,0.3,2.4,1C906.3,317.8,906.6,318.7,906.6,319.9z M900.7,319.9
		c0,1,0.2,1.8,0.7,2.4s1.1,0.9,1.9,0.9s1.5-0.3,1.9-0.9s0.7-1.4,0.7-2.4s-0.2-1.8-0.7-2.4s-1.1-0.8-1.9-0.8s-1.5,0.3-1.9,0.8
		C901,318.1,900.7,318.9,900.7,319.9z"/>
	<path class="st12" d="M909.3,323.6h-0.7V313h0.7V323.6z"/>
	<path class="st12" d="M911.7,314.1c0-0.4,0.1-0.7,0.4-0.7c0.1,0,0.3,0.1,0.3,0.2c0.1,0.1,0.1,0.3,0.1,0.5s0,0.4-0.1,0.5
		s-0.2,0.2-0.3,0.2C911.9,314.8,911.7,314.6,911.7,314.1z M912.5,323.6h-0.7v-7.4h0.7V323.6z"/>
	<path class="st12" d="M921.1,319.9c0,1.2-0.3,2.2-0.9,2.8s-1.4,1-2.4,1c-0.7,0-1.2-0.2-1.7-0.5s-0.9-0.8-1.1-1.4
		c-0.3-0.6-0.4-1.3-0.4-2c0-1.2,0.3-2.2,0.9-2.8s1.4-1,2.4-1s1.8,0.3,2.4,1C920.9,317.8,921.1,318.7,921.1,319.9z M915.3,319.9
		c0,1,0.2,1.8,0.7,2.4s1.1,0.9,1.9,0.9s1.5-0.3,1.9-0.9s0.7-1.4,0.7-2.4s-0.2-1.8-0.7-2.4s-1.1-0.8-1.9-0.8s-1.5,0.3-1.9,0.8
		C915.5,318.1,915.3,318.9,915.3,319.9z"/>
	<path class="st12" d="M932.3,316c0,0.6-0.2,1.1-0.6,1.6c-0.4,0.4-0.9,0.7-1.6,0.8l0,0c0.8,0.1,1.4,0.4,1.8,0.8s0.6,1,0.6,1.7
		c0,0.9-0.3,1.7-1,2.2c-0.6,0.5-1.6,0.8-2.7,0.8c-1,0-1.9-0.2-2.7-0.6v-0.8c0.4,0.2,0.8,0.4,1.3,0.5s0.9,0.2,1.3,0.2
		c1,0,1.8-0.2,2.3-0.6s0.8-1,0.8-1.7s-0.3-1.2-0.8-1.5c-0.5-0.4-1.3-0.5-2.3-0.5h-1.1v-0.7h1.1c0.8,0,1.5-0.2,2-0.6s0.7-0.9,0.7-1.6
		c0-0.6-0.2-1-0.6-1.3s-0.9-0.5-1.5-0.5c-0.5,0-0.9,0.1-1.4,0.2s-0.9,0.4-1.4,0.7l-0.3-0.5c0.4-0.3,0.9-0.6,1.4-0.8s1.1-0.3,1.7-0.3
		c0.9,0,1.6,0.2,2.1,0.7C932,314.6,932.3,315.2,932.3,316z"/>
</g>
</svg>
