<?xml version="1.0" encoding="utf-8"?>
<!-- Generator: Adobe Illustrator 19.0.0, SVG Export Plug-In . SVG Version: 6.00 Build 0)  -->
<svg version="1.1" id="图层_1" xmlns="http://www.w3.org/2000/svg" xmlns:xlink="http://www.w3.org/1999/xlink" x="0px" y="0px"
	 viewBox="0 0 20 16" style="enable-background:new 0 0 20 16;" xml:space="preserve">
<style type="text/css">
	.st0{fill:#A0A0A0;}
</style>
<polyline class="st0" points="19.9,12.2 19.9,3.9 15.6,8.2 19.9,12.2 "/>
<path class="st0" d="M12.6,11.2c-0.7,0.7-1.7,1.1-2.7,1.1c-1,0-2-0.4-2.7-1.1L5,8.8l-5,4.6v0.8c0,1,0.8,1.8,1.8,1.8h16.3
	c1,0,1.8-0.8,1.8-1.8v-0.8l-5-4.6L12.6,11.2"/>
<path class="st0" d="M18.2,0.4H1.8C0.8,0.4,0,1.2,0,2.2v0.4l8,8c0.5,0.5,1.3,0.8,2,0.8c0.8,0,1.5-0.3,2-0.8l8-8V2.2
	C20,1.2,19.2,0.4,18.2,0.4 M0,3.9v8.3l4.3-4L0,3.9"/>
</svg>
