<?xml version="1.0" encoding="utf-8"?>
<!-- Generator: Adobe Illustrator 19.0.0, SVG Export Plug-In . SVG Version: 6.00 Build 0)  -->
<svg version="1.1" id="图层_1" xmlns="http://www.w3.org/2000/svg" xmlns:xlink="http://www.w3.org/1999/xlink" x="0px" y="0px"
	 viewBox="0 0 60 70" style="enable-background:new 0 0 60 70;" xml:space="preserve">
<style type="text/css">
	.st0{fill:url(#XMLID_107_);}
	.st1{fill:#FFFFFF;}
</style>
<linearGradient id="XMLID_107_" gradientUnits="userSpaceOnUse" x1="30" y1="-39.424" x2="30" y2="105.0692" gradientTransform="matrix(1 0 0 -1 0 72)">
	<stop  offset="0" style="stop-color:#FFD166"/>
	<stop  offset="1" style="stop-color:#EF476F"/>
</linearGradient>
<path id="XMLID_49_" class="st0" d="M1.2,16.9l27.6-16c0.8-0.5,1.7-0.5,2.4,0l27.6,16c0.8,0.5,1.2,1.2,1.2,2.1V51
	c0,0.9-0.4,1.7-1.2,2.1l-27.6,16c-0.8,0.5-1.7,0.5-2.4,0l-27.6-16C0.4,52.7,0,51.9,0,51V19C0,18.1,0.4,17.3,1.2,16.9z"/>
<path id="XMLID_109_" class="st1" d="M47.5,24.2c-1,1.5-2.2,2.7-3.6,3.7c0,0.2,0,0.5,0,0.9c0,1.9-0.3,3.8-0.8,5.8
	c-0.6,1.9-1.4,3.8-2.6,5.5c-1.1,1.8-2.5,3.3-4.1,4.7c-1.6,1.4-3.5,2.4-5.7,3.2c-2.2,0.8-4.6,1.2-7.2,1.2c-4,0-7.7-1.1-11-3.2
	c0.5,0.1,1.1,0.1,1.7,0.1c3.3,0,6.3-1,8.9-3.1c-1.6,0-2.9-0.5-4.2-1.4c-1.2-0.9-2.1-2.1-2.5-3.5c0.5,0.1,0.9,0.1,1.4,0.1
	c0.6,0,1.3-0.1,1.9-0.2c-1.7-0.3-3-1.2-4.1-2.5c-1.1-1.3-1.6-2.8-1.6-4.6v-0.1c1,0.6,2.1,0.9,3.2,0.9c-1-0.7-1.8-1.5-2.3-2.6
	c-0.6-1-0.9-2.2-0.9-3.4c0-1.3,0.3-2.5,1-3.6c1.8,2.2,4,4,6.5,5.3c2.6,1.3,5.3,2.1,8.2,2.2c-0.1-0.6-0.2-1.1-0.2-1.6
	c0-2,0.7-3.7,2.1-5.1c1.4-1.4,3.1-2.1,5.1-2.1c2.1,0,3.8,0.8,5.2,2.3c1.6-0.3,3.1-0.9,4.6-1.7c-0.5,1.7-1.6,3-3.2,4
	C44.7,25.1,46.1,24.8,47.5,24.2L47.5,24.2z"/>
</svg>
