<?xml version="1.0" encoding="utf-8"?>
<!-- Generator: Adobe Illustrator 19.0.0, SVG Export Plug-In . SVG Version: 6.00 Build 0)  -->
<svg version="1.1" id="图层_1" xmlns="http://www.w3.org/2000/svg" xmlns:xlink="http://www.w3.org/1999/xlink" x="0px" y="0px"
	 viewBox="0 0 60 70" style="enable-background:new 0 0 60 70;" xml:space="preserve">
<style type="text/css">
	.st0{fill:url(#XMLID_108_);}
	.st1{fill:#FFFFFF;}
</style>
<linearGradient id="XMLID_108_" gradientUnits="userSpaceOnUse" x1="30" y1="-39.424" x2="30" y2="105.0692" gradientTransform="matrix(1 0 0 -1 0 72)">
	<stop  offset="0" style="stop-color:#FFD166"/>
	<stop  offset="1" style="stop-color:#EF476F"/>
</linearGradient>
<path id="XMLID_49_" class="st0" d="M1.2,16.9l27.6-16c0.8-0.5,1.7-0.5,2.4,0l27.6,16c0.8,0.5,1.2,1.2,1.2,2.1V51
	c0,0.9-0.4,1.7-1.2,2.1l-27.6,16c-0.8,0.5-1.7,0.5-2.4,0l-27.6-16C0.4,52.7,0,51.9,0,51V19C0,18.1,0.4,17.3,1.2,16.9z"/>
<path id="XMLID_106_" class="st1" d="M30,19.4c-8.8,0-16,7.2-16,16c0,7.1,4.6,13.1,10.9,15.2c0.8,0.1,1.1-0.3,1.1-0.8
	c0-0.4,0-1.6,0-3c-4.5,1-5.4-1.9-5.4-1.9c-0.7-1.8-1.8-2.3-1.8-2.3c-1.5-1,0.1-1,0.1-1c1.6,0.1,2.5,1.6,2.5,1.6
	c1.4,2.4,3.7,1.7,4.7,1.3c0.1-1,0.6-1.7,1-2.1c-3.6-0.4-7.3-1.8-7.3-7.9c0-1.7,0.6-3.2,1.6-4.3c-0.2-0.4-0.7-2,0.2-4.2
	c0,0,1.3-0.4,4.4,1.6c1.3-0.4,2.6-0.5,4-0.5c1.4,0,2.7,0.2,4,0.5c3.1-2.1,4.4-1.6,4.4-1.6c0.9,2.2,0.3,3.8,0.2,4.2
	c1,1.1,1.6,2.5,1.6,4.3c0,6.1-3.7,7.5-7.3,7.9c0.6,0.5,1.1,1.5,1.1,3c0,2.1,0,3.9,0,4.4c0,0.4,0.3,0.9,1.1,0.8
	C41.4,48.5,46,42.5,46,35.4C46,26.6,38.8,19.4,30,19.4L30,19.4z"/>
</svg>
