<?xml version="1.0" encoding="utf-8"?>
<!-- Generator: Adobe Illustrator 19.0.0, SVG Export Plug-In . SVG Version: 6.00 Build 0)  -->
<svg version="1.1" id="图层_1" xmlns="http://www.w3.org/2000/svg" xmlns:xlink="http://www.w3.org/1999/xlink" x="0px" y="0px"
	 viewBox="0 0 60 70" style="enable-background:new 0 0 60 70;" xml:space="preserve">
<style type="text/css">
	.st0{fill:url(#XMLID_108_);}
	.st1{fill:#FFFFFF;}
</style>
<linearGradient id="XMLID_108_" gradientUnits="userSpaceOnUse" x1="30" y1="-39.424" x2="30" y2="105.0692" gradientTransform="matrix(1 0 0 -1 0 72)">
	<stop  offset="0" style="stop-color:#FFD166"/>
	<stop  offset="1" style="stop-color:#EF476F"/>
</linearGradient>
<path id="XMLID_49_" class="st0" d="M1.2,16.9l27.6-16c0.8-0.5,1.7-0.5,2.4,0l27.6,16c0.8,0.5,1.2,1.2,1.2,2.1V51
	c0,0.9-0.4,1.7-1.2,2.1l-27.6,16c-0.8,0.5-1.7,0.5-2.4,0l-27.6-16C0.4,52.7,0,51.9,0,51V19C0,18.1,0.4,17.3,1.2,16.9z"/>
<path id="XMLID_106_" class="st1" d="M39,17.9v5.5h-3.3c-1.2,0-2,0.3-2.4,0.8c-0.4,0.5-0.6,1.2-0.6,2.3v3.9h6.1L38,36.5h-5.3v15.8
	h-6.4V36.5H21v-6.2h5.3v-4.5c0-2.6,0.7-4.6,2.2-6c1.4-1.4,3.4-2.1,5.8-2.1C36.3,17.7,37.9,17.8,39,17.9"/>
</svg>
