<?xml version="1.0" encoding="utf-8"?>
<!-- Generator: Adobe Illustrator 19.0.0, SVG Export Plug-In . SVG Version: 6.00 Build 0)  -->
<svg version="1.1" id="图层_1" xmlns="http://www.w3.org/2000/svg" xmlns:xlink="http://www.w3.org/1999/xlink" x="0px" y="0px"
	 viewBox="0 0 60 70" style="enable-background:new 0 0 60 70;" xml:space="preserve">
<style type="text/css">
	.st0{fill:url(#XMLID_108_);}
	.st1{fill:#FFFFFF;}
</style>
<linearGradient id="XMLID_108_" gradientUnits="userSpaceOnUse" x1="30" y1="-39.424" x2="30" y2="105.0692" gradientTransform="matrix(1 0 0 -1 0 72)">
	<stop  offset="0" style="stop-color:#FFD166"/>
	<stop  offset="1" style="stop-color:#EF476F"/>
</linearGradient>
<path id="XMLID_49_" class="st0" d="M1.2,16.9l27.6-16c0.8-0.5,1.7-0.5,2.4,0l27.6,16c0.8,0.5,1.2,1.2,1.2,2.1V51
	c0,0.9-0.4,1.7-1.2,2.1l-27.6,16c-0.8,0.5-1.7,0.5-2.4,0l-27.6-16C0.4,52.7,0,51.9,0,51V19C0,18.1,0.4,17.3,1.2,16.9z"/>
<path id="XMLID_107_" class="st1" d="M26,46.8l0.5-7.5L40.2,27c0.6-0.6-0.1-0.8-0.9-0.3L22.4,37.3L15.1,35c-1.6-0.4-1.6-1.5,0.4-2.3
	l28.4-10.9c1.3-0.6,2.5,0.3,2,2.3l-4.8,22.7c-0.3,1.6-1.3,2-2.7,1.3L31,42.6l-3.5,3.4C27.1,46.5,26.8,46.8,26,46.8"/>
</svg>
