<?xml version="1.0" encoding="utf-8"?>
<!-- Generator: Adobe Illustrator 19.0.0, SVG Export Plug-In . SVG Version: 6.00 Build 0)  -->
<svg version="1.1" id="图层_1" xmlns="http://www.w3.org/2000/svg" xmlns:xlink="http://www.w3.org/1999/xlink" x="0px" y="0px"
	 viewBox="0 0 34 34" style="enable-background:new 0 0 34 34;" xml:space="preserve">
<style type="text/css">
	.st0{fill:#FFD166;}
	.st1{fill:#FFFFFF;}
</style>
<g id="XMLID_2_">
	<polygon id="XMLID_4_" class="st0" points="23.8,21.4 23.8,15.3 15.3,15.3 15.3,23.8 21.4,23.8 25.5,27.9 25.5,34 34,34 34,25.5 
		27.9,25.5 	"/>
	<path id="XMLID_3_" class="st1" d="M32.6,23.8c1-2.2,1.4-4.4,1.4-6.8C34,9.5,29,2.9,21.8,0.7c-7.2-2.2-15,0.7-19.1,7
		C-1.3,14-0.8,22.2,4,28c4.8,5.7,12.9,7.6,19.8,4.6c0-1.3,0-2.6,0-4c-0.8-0.8-1.6-1.6-2.4-2.4c-9.2,4.4-18.5-6-13-14.6
		c5.4-8.7,18.8-4.8,18.8,5.4c0,1.6-0.3,3-1,4.4c0.8,0.8,1.6,1.6,2.4,2.4C29.9,23.8,31.2,23.8,32.6,23.8z"/>
</g>
</svg>
