<?xml version="1.0" encoding="utf-8"?>
<!-- Generator: Adobe Illustrator 22.0.0, SVG Export Plug-In . SVG Version: 6.00 Build 0)  -->
<svg version="1.1" id="图层_1" xmlns="http://www.w3.org/2000/svg" xmlns:xlink="http://www.w3.org/1999/xlink" x="0px" y="0px"
	 viewBox="0 0 44 36" style="enable-background:new 0 0 44 36;" xml:space="preserve">
<path d="M38.1,31.7l-2.4,2.4c-0.3,0.3-0.7,0.5-1.2,0.5c-0.5,0-0.9-0.2-1.2-0.5L6,6.9C5.6,6.6,5.5,6.1,5.5,5.7s0.2-0.9,0.5-1.2L8.4,2
	c0.3-0.3,0.7-0.5,1.2-0.5c0.5,0,0.9,0.2,1.2,0.5L38,29.3c0.3,0.3,0.5,0.7,0.5,1.2C38.5,31,38.4,31.4,38.1,31.7z"/>
<path d="M8.4,34.2l-2.4-2.4c-0.3-0.3-0.5-0.7-0.5-1.2c0-0.5,0.2-0.9,0.5-1.2L33.2,2.1c0.3-0.3,0.7-0.5,1.2-0.5
	c0.5,0,0.9,0.2,1.2,0.5l2.4,2.4c0.3,0.3,0.5,0.7,0.5,1.2c0,0.5-0.2,0.9-0.5,1.2L10.8,34.1c-0.3,0.3-0.7,0.5-1.2,0.5
	C9.1,34.6,8.7,34.5,8.4,34.2z"/>
</svg>
