<?xml version="1.0" encoding="utf-8"?>
<!-- Generator: Adobe Illustrator 19.0.0, SVG Export Plug-In . SVG Version: 6.00 Build 0)  -->
<svg version="1.1" id="图层_1" xmlns="http://www.w3.org/2000/svg" xmlns:xlink="http://www.w3.org/1999/xlink" x="0px" y="0px"
	 viewBox="0 0 35 40" style="enable-background:new 0 0 35 40;" xml:space="preserve">
<style type="text/css">
	.st0{fill:#333333;}
</style>
<g>
	<path class="st0" d="M21.5,40h-8C6,40,0,40,0,36.2v-0.8C0,28,6.1,22.1,13.5,22.1h8c7.4,0,13.5,6,13.5,13.3v0.8
		C35,40,28.7,40,21.5,40L21.5,40z"/>
	<path class="st0" d="M17.1,21.1c-5.9,0-10.7-4.7-10.7-10.5C6.4,4.7,11.2,0,17.1,0C23,0,27.8,4.7,27.8,10.5
		C27.8,16.3,23,21.1,17.1,21.1L17.1,21.1z"/>
</g>
<path class="st0" d="M17.1,21.1"/>
</svg>
