<?xml version="1.0" encoding="utf-8"?>
<!-- Generator: Adobe Illustrator 19.0.0, SVG Export Plug-In . SVG Version: 6.00 Build 0)  -->
<svg version="1.0" id="图层_1" xmlns="http://www.w3.org/2000/svg" xmlns:xlink="http://www.w3.org/1999/xlink" x="0px" y="0px"
	 viewBox="0 0 760 312" style="enable-background:new 0 0 760 312;" xml:space="preserve">
<style type="text/css">
	.st0{fill:#808080;}
	.st1{fill-rule:evenodd;clip-rule:evenodd;fill:#E0B153;}
	.st2{fill-rule:evenodd;clip-rule:evenodd;fill:#997817;}
	.st3{fill-rule:evenodd;clip-rule:evenodd;fill:#808080;}
	.st4{fill-rule:evenodd;clip-rule:evenodd;fill:#FFFFFF;}
	.st5{fill-rule:evenodd;clip-rule:evenodd;fill:none;stroke:#FFFFFF;stroke-miterlimit:10;}
	.st6{fill-rule:evenodd;clip-rule:evenodd;fill:none;stroke:#E0B153;stroke-width:2;stroke-miterlimit:10;}
	.st7{fill-rule:evenodd;clip-rule:evenodd;fill:none;stroke:#808080;stroke-miterlimit:10;}
	.st8{fill-rule:evenodd;clip-rule:evenodd;fill:none;stroke:#997817;stroke-miterlimit:10;}
	.st9{fill:#88A2AA;}
</style>
<g id="XMLID_346_">
	<path id="XMLID_556_" class="st0" d="M504,12.2h-1.5l-6.2-9.6h-0.1c0.1,1.1,0.1,2.2,0.1,3.1v6.5h-1.2V0.8h1.5l6.2,9.5h0.1
		c0-0.1,0-0.6-0.1-1.4c0-0.8,0-1.3,0-1.6V0.8h1.2V12.2z"/>
	<path id="XMLID_553_" class="st0" d="M510.5,12.4c-1.3,0-2.3-0.4-3-1.2c-0.7-0.8-1.1-1.8-1.1-3.2c0-1.4,0.3-2.5,1-3.3
		s1.6-1.2,2.7-1.2c1.1,0,1.9,0.4,2.5,1.1c0.6,0.7,0.9,1.6,0.9,2.8v0.8h-5.9c0,1,0.3,1.8,0.8,2.3c0.5,0.5,1.2,0.8,2,0.8
		c0.9,0,1.8-0.2,2.7-0.6v1.2c-0.5,0.2-0.9,0.3-1.3,0.4S511.1,12.4,510.5,12.4z M510.2,4.6c-0.7,0-1.2,0.2-1.6,0.7
		c-0.4,0.4-0.6,1.1-0.7,1.9h4.5c0-0.8-0.2-1.4-0.5-1.9C511.4,4.8,510.9,4.6,510.2,4.6z"/>
	<path id="XMLID_551_" class="st0" d="M518.7,11.3c0.2,0,0.5,0,0.7-0.1c0.2,0,0.4-0.1,0.5-0.1v1c-0.1,0.1-0.3,0.1-0.6,0.2
		c-0.3,0-0.5,0.1-0.7,0.1c-1.7,0-2.5-0.9-2.5-2.6V4.7h-1.2V4.1l1.2-0.5l0.5-1.8h0.8v2h2.5v1h-2.5v5c0,0.5,0.1,0.9,0.4,1.2
		C517.9,11.2,518.2,11.3,518.7,11.3z"/>
	<path id="XMLID_549_" class="st0" d="M529.1,12.4c-1.2,0-2.2-0.4-2.9-1.1c-0.7-0.8-1-1.8-1-3.2c0-1.4,0.3-2.5,1-3.3
		s1.7-1.2,2.9-1.2c0.4,0,0.8,0,1.2,0.1c0.4,0.1,0.7,0.2,1,0.3L531,5.1c-0.3-0.1-0.6-0.2-0.9-0.3c-0.3-0.1-0.6-0.1-0.9-0.1
		c-1.7,0-2.6,1.1-2.6,3.3c0,1.1,0.2,1.9,0.6,2.4s1.1,0.8,1.9,0.8c0.7,0,1.4-0.2,2.2-0.5V12C530.7,12.3,530,12.4,529.1,12.4z"/>
	<path id="XMLID_546_" class="st0" d="M538.6,12.2l-0.3-1.2h-0.1c-0.4,0.5-0.9,0.9-1.3,1.1s-1,0.3-1.6,0.3c-0.8,0-1.5-0.2-2-0.7
		s-0.7-1.1-0.7-1.9c0-1.7,1.4-2.6,4.1-2.7l1.5,0V6.6c0-0.7-0.1-1.2-0.4-1.5s-0.8-0.5-1.4-0.5c-0.7,0-1.5,0.2-2.4,0.7l-0.4-1
		c0.4-0.2,0.9-0.4,1.4-0.5c0.5-0.1,1-0.2,1.5-0.2c1,0,1.8,0.2,2.3,0.7s0.7,1.2,0.7,2.2v5.8H538.6z M535.7,11.3
		c0.8,0,1.4-0.2,1.9-0.7c0.5-0.4,0.7-1.1,0.7-1.9V8L537,8.1c-1,0-1.8,0.2-2.2,0.5c-0.5,0.3-0.7,0.7-0.7,1.3c0,0.5,0.1,0.8,0.4,1.1
		C534.8,11.2,535.2,11.3,535.7,11.3z"/>
	<path id="XMLID_544_" class="st0" d="M547.8,9.9c0,0.8-0.3,1.4-0.9,1.8c-0.6,0.4-1.4,0.6-2.5,0.6c-1.1,0-2-0.2-2.7-0.5v-1.2
		c0.4,0.2,0.9,0.4,1.3,0.5c0.5,0.1,0.9,0.2,1.4,0.2c0.7,0,1.2-0.1,1.6-0.3c0.4-0.2,0.5-0.5,0.5-1c0-0.3-0.1-0.6-0.4-0.9
		c-0.3-0.2-0.9-0.5-1.7-0.8c-0.8-0.3-1.4-0.6-1.7-0.8c-0.3-0.2-0.6-0.5-0.8-0.8s-0.2-0.6-0.2-1c0-0.7,0.3-1.2,0.9-1.7
		c0.6-0.4,1.3-0.6,2.3-0.6c0.9,0,1.8,0.2,2.7,0.6l-0.5,1.1c-0.9-0.4-1.6-0.5-2.3-0.5c-0.6,0-1.1,0.1-1.4,0.3
		c-0.3,0.2-0.5,0.5-0.5,0.8c0,0.2,0.1,0.4,0.2,0.6c0.1,0.2,0.3,0.3,0.6,0.5c0.3,0.1,0.8,0.4,1.5,0.6c1,0.4,1.7,0.7,2.1,1.1
		S547.8,9.3,547.8,9.9z"/>
	<path id="XMLID_542_" class="st0" d="M555.7,12.2V6.7c0-0.7-0.2-1.2-0.5-1.6s-0.8-0.5-1.5-0.5c-0.9,0-1.6,0.2-2,0.7
		c-0.4,0.5-0.6,1.3-0.6,2.4v4.5h-1.3V0.1h1.3v3.7c0,0.4,0,0.8-0.1,1.1h0.1c0.3-0.4,0.6-0.7,1.1-1c0.5-0.2,1-0.4,1.6-0.4
		c1,0,1.8,0.2,2.4,0.7c0.5,0.5,0.8,1.3,0.8,2.4v5.6H555.7z"/>
	<path id="XMLID_539_" class="st0" d="M567.7,4.7h-2.2v7.6h-1.3V4.7h-1.5V4.1l1.5-0.5V3.2c0-2.1,0.9-3.2,2.8-3.2
		c0.5,0,1,0.1,1.6,0.3l-0.3,1c-0.5-0.2-0.9-0.2-1.3-0.2c-0.5,0-0.9,0.2-1.1,0.5c-0.2,0.3-0.4,0.8-0.4,1.6v0.6h2.2V4.7z M570.6,12.2
		h-1.3V0.1h1.3V12.2z"/>
	<path id="XMLID_536_" class="st0" d="M580.7,8c0,1.4-0.4,2.5-1.1,3.3c-0.7,0.8-1.7,1.2-2.9,1.2c-0.8,0-1.4-0.2-2-0.5
		s-1.1-0.9-1.4-1.5s-0.5-1.5-0.5-2.4c0-1.4,0.3-2.5,1-3.3c0.7-0.8,1.7-1.2,2.9-1.2c1.2,0,2.1,0.4,2.9,1.2S580.7,6.6,580.7,8z
		 M574.2,8c0,1.1,0.2,1.9,0.7,2.5c0.4,0.6,1.1,0.9,1.9,0.9s1.5-0.3,1.9-0.9s0.7-1.4,0.7-2.5c0-1.1-0.2-1.9-0.7-2.5
		c-0.4-0.6-1.1-0.8-1.9-0.8c-0.8,0-1.5,0.3-1.9,0.8C574.4,6,574.2,6.8,574.2,8z"/>
	<path id="XMLID_534_" class="st0" d="M590,12.2l-1.6-5c-0.1-0.3-0.3-1-0.6-2.1h-0.1c-0.2,0.9-0.4,1.6-0.5,2.1l-1.6,5h-1.5l-2.3-8.6
		h1.4c0.6,2.2,1,3.8,1.3,4.9s0.5,1.9,0.5,2.3h0.1c0.1-0.3,0.1-0.7,0.3-1.2c0.1-0.5,0.2-0.8,0.3-1.1l1.6-4.9h1.4l1.5,4.9
		c0.3,0.9,0.5,1.6,0.6,2.3h0.1c0-0.2,0.1-0.5,0.2-0.9s0.6-2.5,1.6-6.3h1.3l-2.4,8.6H590z"/>
	<path id="XMLID_531_" class="st0" d="M494.4,29.5v-1.1h7.3v1.1H494.4z M494.4,32.7v-1.1h7.3v1.1H494.4z"/>
	<path id="XMLID_529_" class="st0" d="M512.1,27.5c0.4,0,0.7,0,1,0.1l-0.2,1.2c-0.4-0.1-0.7-0.1-0.9-0.1c-0.7,0-1.3,0.3-1.8,0.8
		s-0.7,1.3-0.7,2.1v4.6h-1.3v-8.6h1.1l0.1,1.6h0.1c0.3-0.6,0.7-1,1.1-1.3C511,27.7,511.5,27.5,512.1,27.5z"/>
	<path id="XMLID_526_" class="st0" d="M518.3,36.4c-1.3,0-2.3-0.4-3-1.2c-0.7-0.8-1.1-1.8-1.1-3.2c0-1.4,0.3-2.5,1-3.3
		s1.6-1.2,2.7-1.2c1.1,0,1.9,0.4,2.5,1.1c0.6,0.7,0.9,1.6,0.9,2.8v0.8h-5.9c0,1,0.3,1.8,0.8,2.3c0.5,0.5,1.2,0.8,2,0.8
		c0.9,0,1.8-0.2,2.7-0.6v1.2c-0.5,0.2-0.9,0.3-1.3,0.4S518.9,36.4,518.3,36.4z M518,28.6c-0.7,0-1.2,0.2-1.6,0.7
		c-0.4,0.4-0.6,1.1-0.7,1.9h4.5c0-0.8-0.2-1.4-0.5-1.9C519.2,28.8,518.6,28.6,518,28.6z"/>
	<path id="XMLID_524_" class="st0" d="M529.5,36.2v-5.5c0-0.7-0.2-1.2-0.5-1.6s-0.8-0.5-1.5-0.5c-0.9,0-1.6,0.2-2,0.7
		s-0.6,1.3-0.6,2.4v4.5h-1.3v-8.6h1.1l0.2,1.2h0.1c0.3-0.4,0.6-0.7,1.1-1c0.5-0.2,1-0.3,1.6-0.3c1,0,1.8,0.2,2.3,0.7
		c0.5,0.5,0.8,1.3,0.8,2.4v5.6H529.5z"/>
	<path id="XMLID_522_" class="st0" d="M536.3,35.3c0.2,0,0.5,0,0.7-0.1c0.2,0,0.4-0.1,0.5-0.1v1c-0.1,0.1-0.3,0.1-0.6,0.2
		c-0.3,0-0.5,0.1-0.7,0.1c-1.7,0-2.5-0.9-2.5-2.6v-5.1h-1.2v-0.6l1.2-0.5l0.5-1.8h0.8v2h2.5v1h-2.5v5c0,0.5,0.1,0.9,0.4,1.2
		C535.5,35.2,535.8,35.3,536.3,35.3z"/>
	<path id="XMLID_520_" class="st0" d="M544.7,33.9c0,0.8-0.3,1.4-0.9,1.8c-0.6,0.4-1.4,0.6-2.5,0.6c-1.1,0-2-0.2-2.7-0.5v-1.2
		c0.4,0.2,0.9,0.4,1.3,0.5c0.5,0.1,0.9,0.2,1.4,0.2c0.7,0,1.2-0.1,1.6-0.3c0.4-0.2,0.5-0.5,0.5-1c0-0.3-0.1-0.6-0.4-0.9
		c-0.3-0.2-0.9-0.5-1.7-0.8c-0.8-0.3-1.4-0.6-1.7-0.8c-0.3-0.2-0.6-0.5-0.8-0.8s-0.2-0.6-0.2-1c0-0.7,0.3-1.2,0.9-1.7
		c0.6-0.4,1.3-0.6,2.3-0.6c0.9,0,1.8,0.2,2.7,0.6l-0.5,1.1c-0.9-0.4-1.6-0.5-2.3-0.5c-0.6,0-1.1,0.1-1.4,0.3
		c-0.3,0.2-0.5,0.5-0.5,0.8c0,0.2,0.1,0.4,0.2,0.6c0.1,0.2,0.3,0.3,0.6,0.5c0.3,0.1,0.8,0.4,1.5,0.6c1,0.4,1.7,0.7,2.1,1.1
		S544.7,33.3,544.7,33.9z"/>
	<path id="XMLID_517_" class="st0" d="M558.3,32c0,1.4-0.4,2.5-1.1,3.3c-0.7,0.8-1.7,1.2-2.9,1.2c-0.8,0-1.4-0.2-2-0.5
		s-1.1-0.9-1.4-1.5s-0.5-1.5-0.5-2.4c0-1.4,0.3-2.5,1-3.3c0.7-0.8,1.7-1.2,2.9-1.2c1.2,0,2.1,0.4,2.9,1.2S558.3,30.6,558.3,32z
		 M551.8,32c0,1.1,0.2,1.9,0.7,2.5c0.4,0.6,1.1,0.9,1.9,0.9s1.5-0.3,1.9-0.9s0.7-1.4,0.7-2.5c0-1.1-0.2-1.9-0.7-2.5
		c-0.4-0.6-1.1-0.8-1.9-0.8c-0.8,0-1.5,0.3-1.9,0.8C552,30,551.8,30.8,551.8,32z"/>
	<path id="XMLID_515_" class="st0" d="M564.5,28.7h-2.2v7.6H561v-7.6h-1.5v-0.6l1.5-0.5v-0.5c0-2.1,0.9-3.2,2.8-3.2
		c0.5,0,1,0.1,1.6,0.3l-0.3,1c-0.5-0.2-0.9-0.2-1.3-0.2c-0.5,0-0.9,0.2-1.1,0.5c-0.2,0.3-0.4,0.8-0.4,1.6v0.6h2.2V28.7z"/>
	<path id="XMLID_513_" class="st0" d="M572.9,35.3c0.2,0,0.5,0,0.7-0.1c0.2,0,0.4-0.1,0.5-0.1v1c-0.1,0.1-0.3,0.1-0.6,0.2
		c-0.3,0-0.5,0.1-0.7,0.1c-1.7,0-2.5-0.9-2.5-2.6v-5.1H569v-0.6l1.2-0.5l0.5-1.8h0.8v2h2.5v1h-2.5v5c0,0.5,0.1,0.9,0.4,1.2
		C572.2,35.2,572.5,35.3,572.9,35.3z"/>
	<path id="XMLID_511_" class="st0" d="M581.7,36.2v-5.5c0-0.7-0.2-1.2-0.5-1.6s-0.8-0.5-1.5-0.5c-0.9,0-1.6,0.2-2,0.7
		c-0.4,0.5-0.6,1.3-0.6,2.4v4.5h-1.3V24.1h1.3v3.7c0,0.4,0,0.8-0.1,1.1h0.1c0.3-0.4,0.6-0.7,1.1-1c0.5-0.2,1-0.4,1.6-0.4
		c1,0,1.8,0.2,2.4,0.7c0.5,0.5,0.8,1.3,0.8,2.4v5.6H581.7z"/>
	<path id="XMLID_508_" class="st0" d="M589.3,36.4c-1.3,0-2.3-0.4-3-1.2c-0.7-0.8-1.1-1.8-1.1-3.2c0-1.4,0.3-2.5,1-3.3
		s1.6-1.2,2.7-1.2c1.1,0,1.9,0.4,2.5,1.1c0.6,0.7,0.9,1.6,0.9,2.8v0.8h-5.9c0,1,0.3,1.8,0.8,2.3c0.5,0.5,1.2,0.8,2,0.8
		c0.9,0,1.8-0.2,2.7-0.6v1.2c-0.5,0.2-0.9,0.3-1.3,0.4S589.8,36.4,589.3,36.4z M588.9,28.6c-0.7,0-1.2,0.2-1.6,0.7
		c-0.4,0.4-0.6,1.1-0.7,1.9h4.5c0-0.8-0.2-1.4-0.5-1.9C590.1,28.8,589.6,28.6,588.9,28.6z"/>
	<path id="XMLID_506_" class="st0" d="M604.6,36.2v-5.5c0-0.7-0.2-1.2-0.5-1.6s-0.8-0.5-1.5-0.5c-0.9,0-1.6,0.2-2,0.7
		c-0.4,0.5-0.6,1.3-0.6,2.4v4.5h-1.3V24.1h1.3v3.7c0,0.4,0,0.8-0.1,1.1h0.1c0.3-0.4,0.6-0.7,1.1-1c0.5-0.2,1-0.4,1.6-0.4
		c1,0,1.8,0.2,2.4,0.7c0.5,0.5,0.8,1.3,0.8,2.4v5.6H604.6z"/>
	<path id="XMLID_503_" class="st0" d="M616,32c0,1.4-0.4,2.5-1.1,3.3c-0.7,0.8-1.7,1.2-2.9,1.2c-0.8,0-1.4-0.2-2-0.5
		s-1.1-0.9-1.4-1.5s-0.5-1.5-0.5-2.4c0-1.4,0.3-2.5,1-3.3c0.7-0.8,1.7-1.2,2.9-1.2c1.2,0,2.1,0.4,2.9,1.2S616,30.6,616,32z
		 M609.5,32c0,1.1,0.2,1.9,0.7,2.5c0.4,0.6,1.1,0.9,1.9,0.9s1.5-0.3,1.9-0.9s0.7-1.4,0.7-2.5c0-1.1-0.2-1.9-0.7-2.5
		c-0.4-0.6-1.1-0.8-1.9-0.8c-0.8,0-1.5,0.3-1.9,0.8C609.7,30,609.5,30.8,609.5,32z"/>
	<path id="XMLID_501_" class="st0" d="M619.6,36.2h-1.3V24.1h1.3V36.2z"/>
	<path id="XMLID_498_" class="st0" d="M628.1,35.1L628.1,35.1c-0.7,0.9-1.6,1.3-2.8,1.3c-1.1,0-2-0.4-2.6-1.1s-0.9-1.9-0.9-3.3
		c0-1.4,0.3-2.5,0.9-3.3s1.5-1.2,2.6-1.2c1.2,0,2.1,0.4,2.7,1.3h0.1l-0.1-0.6l0-0.6v-3.5h1.3v12.2h-1.1L628.1,35.1z M625.5,35.3
		c0.9,0,1.5-0.2,1.9-0.7c0.4-0.5,0.6-1.3,0.6-2.3V32c0-1.2-0.2-2.1-0.6-2.6c-0.4-0.5-1-0.8-1.9-0.8c-0.8,0-1.3,0.3-1.7,0.9
		c-0.4,0.6-0.6,1.4-0.6,2.5c0,1.1,0.2,1.9,0.6,2.5C624.2,35,624.8,35.3,625.5,35.3z"/>
	<path id="XMLID_495_" class="st0" d="M632,25.4c0-0.3,0.1-0.5,0.2-0.7c0.1-0.1,0.3-0.2,0.5-0.2c0.2,0,0.4,0.1,0.5,0.2
		s0.2,0.4,0.2,0.6c0,0.3-0.1,0.5-0.2,0.7c-0.2,0.1-0.3,0.2-0.5,0.2c-0.2,0-0.4-0.1-0.5-0.2C632.1,25.9,632,25.7,632,25.4z
		 M633.4,36.2h-1.3v-8.6h1.3V36.2z"/>
	<path id="XMLID_493_" class="st0" d="M642,36.2v-5.5c0-0.7-0.2-1.2-0.5-1.6s-0.8-0.5-1.5-0.5c-0.9,0-1.6,0.2-2,0.7
		s-0.6,1.3-0.6,2.4v4.5h-1.3v-8.6h1.1l0.2,1.2h0.1c0.3-0.4,0.6-0.7,1.1-1c0.5-0.2,1-0.3,1.6-0.3c1,0,1.8,0.2,2.3,0.7
		c0.5,0.5,0.8,1.3,0.8,2.4v5.6H642z"/>
	<path id="XMLID_489_" class="st0" d="M653,27.7v0.8l-1.6,0.2c0.1,0.2,0.3,0.4,0.4,0.7c0.1,0.3,0.2,0.6,0.2,1c0,0.8-0.3,1.5-0.9,2
		s-1.4,0.8-2.4,0.8c-0.3,0-0.5,0-0.7-0.1c-0.6,0.3-0.8,0.7-0.8,1.1c0,0.2,0.1,0.4,0.3,0.5c0.2,0.1,0.5,0.2,1,0.2h1.5
		c0.9,0,1.6,0.2,2.1,0.6s0.7,1,0.7,1.7c0,0.9-0.4,1.7-1.1,2.2c-0.8,0.5-1.9,0.7-3.3,0.7c-1.1,0-2-0.2-2.6-0.6
		c-0.6-0.4-0.9-1-0.9-1.8c0-0.5,0.2-1,0.5-1.4s0.8-0.6,1.4-0.8c-0.2-0.1-0.4-0.3-0.6-0.5c-0.1-0.2-0.2-0.5-0.2-0.7
		c0-0.3,0.1-0.6,0.3-0.8s0.4-0.5,0.8-0.7c-0.4-0.2-0.8-0.5-1.1-0.9s-0.4-0.9-0.4-1.5c0-0.9,0.3-1.7,0.8-2.2s1.4-0.8,2.4-0.8
		c0.4,0,0.9,0.1,1.2,0.2H653z M646.2,37.7c0,0.5,0.2,0.8,0.6,1.1c0.4,0.2,1,0.4,1.7,0.4c1.1,0,1.9-0.2,2.4-0.5
		c0.5-0.3,0.8-0.8,0.8-1.3c0-0.5-0.1-0.8-0.4-1s-0.8-0.3-1.6-0.3H648c-0.6,0-1,0.1-1.4,0.4S646.2,37.2,646.2,37.7z M646.9,30.4
		c0,0.6,0.2,1.1,0.5,1.4c0.3,0.3,0.8,0.5,1.4,0.5c1.3,0,1.9-0.6,1.9-1.8c0-1.3-0.6-1.9-1.9-1.9c-0.6,0-1.1,0.2-1.4,0.5
		S646.9,29.8,646.9,30.4z"/>
	<path id="XMLID_486_" class="st0" d="M666.3,32c0,1.4-0.4,2.5-1.1,3.3c-0.7,0.8-1.7,1.2-2.9,1.2c-0.8,0-1.4-0.2-2-0.5
		s-1.1-0.9-1.4-1.5s-0.5-1.5-0.5-2.4c0-1.4,0.3-2.5,1-3.3c0.7-0.8,1.7-1.2,2.9-1.2c1.2,0,2.1,0.4,2.9,1.2S666.3,30.6,666.3,32z
		 M659.8,32c0,1.1,0.2,1.9,0.7,2.5c0.4,0.6,1.1,0.9,1.9,0.9s1.5-0.3,1.9-0.9s0.7-1.4,0.7-2.5c0-1.1-0.2-1.9-0.7-2.5
		c-0.4-0.6-1.1-0.8-1.9-0.8c-0.8,0-1.5,0.3-1.9,0.8C660,30,659.8,30.8,659.8,32z"/>
	<path id="XMLID_484_" class="st0" d="M672.4,28.7h-2.2v7.6H669v-7.6h-1.5v-0.6l1.5-0.5v-0.5c0-2.1,0.9-3.2,2.8-3.2
		c0.5,0,1,0.1,1.6,0.3l-0.3,1c-0.5-0.2-0.9-0.2-1.3-0.2c-0.5,0-0.9,0.2-1.1,0.5c-0.2,0.3-0.4,0.8-0.4,1.6v0.6h2.2V28.7z"/>
	<path id="XMLID_482_" class="st0" d="M682.1,27.5c0.4,0,0.7,0,1,0.1l-0.2,1.2c-0.4-0.1-0.7-0.1-0.9-0.1c-0.7,0-1.3,0.3-1.8,0.8
		s-0.7,1.3-0.7,2.1v4.6h-1.3v-8.6h1.1l0.1,1.6h0.1c0.3-0.6,0.7-1,1.1-1.3C681,27.7,681.5,27.5,682.1,27.5z"/>
	<path id="XMLID_479_" class="st0" d="M688.3,36.4c-1.3,0-2.3-0.4-3-1.2c-0.7-0.8-1.1-1.8-1.1-3.2c0-1.4,0.3-2.5,1-3.3
		s1.6-1.2,2.7-1.2c1.1,0,1.9,0.4,2.5,1.1c0.6,0.7,0.9,1.6,0.9,2.8v0.8h-5.9c0,1,0.3,1.8,0.8,2.3c0.5,0.5,1.2,0.8,2,0.8
		c0.9,0,1.8-0.2,2.7-0.6v1.2c-0.5,0.2-0.9,0.3-1.3,0.4S688.9,36.4,688.3,36.4z M687.9,28.6c-0.7,0-1.2,0.2-1.6,0.7
		c-0.4,0.4-0.6,1.1-0.7,1.9h4.5c0-0.8-0.2-1.4-0.5-1.9C689.1,28.8,688.6,28.6,687.9,28.6z"/>
	<path id="XMLID_476_" class="st0" d="M698.9,36.2l-0.3-1.2h-0.1c-0.4,0.5-0.9,0.9-1.3,1.1s-1,0.3-1.6,0.3c-0.8,0-1.5-0.2-2-0.7
		s-0.7-1.1-0.7-1.9c0-1.7,1.4-2.6,4.1-2.7l1.5,0v-0.5c0-0.7-0.1-1.2-0.4-1.5s-0.8-0.5-1.4-0.5c-0.7,0-1.5,0.2-2.4,0.7l-0.4-1
		c0.4-0.2,0.9-0.4,1.4-0.5c0.5-0.1,1-0.2,1.5-0.2c1,0,1.8,0.2,2.3,0.7s0.7,1.2,0.7,2.2v5.8H698.9z M696,35.3c0.8,0,1.4-0.2,1.9-0.7
		c0.5-0.4,0.7-1.1,0.7-1.9V32l-1.3,0.1c-1,0-1.8,0.2-2.2,0.5c-0.5,0.3-0.7,0.7-0.7,1.3c0,0.5,0.1,0.8,0.4,1.1
		C695.1,35.2,695.5,35.3,696,35.3z"/>
	<path id="XMLID_474_" class="st0" d="M703.9,36.2h-1.3V24.1h1.3V36.2z"/>
	<path id="XMLID_471_" class="st0" d="M714.4,36.4c-1.3,0-2.3-0.4-3-1.2c-0.7-0.8-1.1-1.8-1.1-3.2c0-1.4,0.3-2.5,1-3.3
		s1.6-1.2,2.7-1.2c1.1,0,1.9,0.4,2.5,1.1c0.6,0.7,0.9,1.6,0.9,2.8v0.8h-5.9c0,1,0.3,1.8,0.8,2.3c0.5,0.5,1.2,0.8,2,0.8
		c0.9,0,1.8-0.2,2.7-0.6v1.2c-0.5,0.2-0.9,0.3-1.3,0.4S715,36.4,714.4,36.4z M714,28.6c-0.7,0-1.2,0.2-1.6,0.7
		c-0.4,0.4-0.6,1.1-0.7,1.9h4.5c0-0.8-0.2-1.4-0.5-1.9C715.2,28.8,714.7,28.6,714,28.6z"/>
	<path id="XMLID_469_" class="st0" d="M725.3,33.9c0,0.8-0.3,1.4-0.9,1.8c-0.6,0.4-1.4,0.6-2.5,0.6c-1.1,0-2-0.2-2.7-0.5v-1.2
		c0.4,0.2,0.9,0.4,1.3,0.5c0.5,0.1,0.9,0.2,1.4,0.2c0.7,0,1.2-0.1,1.6-0.3c0.4-0.2,0.5-0.5,0.5-1c0-0.3-0.1-0.6-0.4-0.9
		c-0.3-0.2-0.9-0.5-1.7-0.8c-0.8-0.3-1.4-0.6-1.7-0.8c-0.3-0.2-0.6-0.5-0.8-0.8s-0.2-0.6-0.2-1c0-0.7,0.3-1.2,0.9-1.7
		c0.6-0.4,1.3-0.6,2.3-0.6c0.9,0,1.8,0.2,2.7,0.6l-0.5,1.1c-0.9-0.4-1.6-0.5-2.3-0.5c-0.6,0-1.1,0.1-1.4,0.3
		c-0.3,0.2-0.5,0.5-0.5,0.8c0,0.2,0.1,0.4,0.2,0.6c0.1,0.2,0.3,0.3,0.6,0.5c0.3,0.1,0.8,0.4,1.5,0.6c1,0.4,1.7,0.7,2.1,1.1
		S725.3,33.3,725.3,33.9z"/>
	<path id="XMLID_467_" class="st0" d="M730.1,35.3c0.2,0,0.5,0,0.7-0.1c0.2,0,0.4-0.1,0.5-0.1v1c-0.1,0.1-0.3,0.1-0.6,0.2
		c-0.3,0-0.5,0.1-0.7,0.1c-1.7,0-2.5-0.9-2.5-2.6v-5.1h-1.2v-0.6l1.2-0.5l0.5-1.8h0.8v2h2.5v1h-2.5v5c0,0.5,0.1,0.9,0.4,1.2
		C729.4,35.2,729.7,35.3,730.1,35.3z"/>
	<path id="XMLID_464_" class="st0" d="M738.3,36.2L738,35H738c-0.4,0.5-0.9,0.9-1.3,1.1s-1,0.3-1.6,0.3c-0.8,0-1.5-0.2-2-0.7
		s-0.7-1.1-0.7-1.9c0-1.7,1.4-2.6,4.1-2.7l1.5,0v-0.5c0-0.7-0.1-1.2-0.4-1.5s-0.8-0.5-1.4-0.5c-0.7,0-1.5,0.2-2.4,0.7l-0.4-1
		c0.4-0.2,0.9-0.4,1.4-0.5c0.5-0.1,1-0.2,1.5-0.2c1,0,1.8,0.2,2.3,0.7s0.7,1.2,0.7,2.2v5.8H738.3z M735.4,35.3
		c0.8,0,1.4-0.2,1.9-0.7c0.5-0.4,0.7-1.1,0.7-1.9V32l-1.3,0.1c-1,0-1.8,0.2-2.2,0.5c-0.5,0.3-0.7,0.7-0.7,1.3c0,0.5,0.1,0.8,0.4,1.1
		C734.4,35.2,734.8,35.3,735.4,35.3z"/>
	<path id="XMLID_462_" class="st0" d="M744.7,35.3c0.2,0,0.5,0,0.7-0.1c0.2,0,0.4-0.1,0.5-0.1v1c-0.1,0.1-0.3,0.1-0.6,0.2
		c-0.3,0-0.5,0.1-0.7,0.1c-1.7,0-2.5-0.9-2.5-2.6v-5.1h-1.2v-0.6l1.2-0.5l0.5-1.8h0.8v2h2.5v1h-2.5v5c0,0.5,0.1,0.9,0.4,1.2
		C743.9,35.2,744.3,35.3,744.7,35.3z"/>
	<path id="XMLID_459_" class="st0" d="M751.2,36.4c-1.3,0-2.3-0.4-3-1.2c-0.7-0.8-1.1-1.8-1.1-3.2c0-1.4,0.3-2.5,1-3.3
		s1.6-1.2,2.7-1.2c1.1,0,1.9,0.4,2.5,1.1c0.6,0.7,0.9,1.6,0.9,2.8v0.8h-5.9c0,1,0.3,1.8,0.8,2.3c0.5,0.5,1.2,0.8,2,0.8
		c0.9,0,1.8-0.2,2.7-0.6v1.2c-0.5,0.2-0.9,0.3-1.3,0.4S751.8,36.4,751.2,36.4z M750.8,28.6c-0.7,0-1.2,0.2-1.6,0.7
		c-0.4,0.4-0.6,1.1-0.7,1.9h4.5c0-0.8-0.2-1.4-0.5-1.9C752,28.8,751.5,28.6,750.8,28.6z"/>
	<path id="XMLID_457_" class="st0" d="M494.1,56.5v-1.2h6.7v1.2H494.1z"/>
	<path id="XMLID_454_" class="st0" d="M514.4,56c0,1.4-0.4,2.5-1.1,3.3c-0.7,0.8-1.7,1.2-2.9,1.2c-0.8,0-1.4-0.2-2-0.5
		s-1.1-0.9-1.4-1.5s-0.5-1.5-0.5-2.4c0-1.4,0.3-2.5,1-3.3c0.7-0.8,1.7-1.2,2.9-1.2c1.2,0,2.1,0.4,2.9,1.2S514.4,54.6,514.4,56z
		 M507.9,56c0,1.1,0.2,1.9,0.7,2.5c0.4,0.6,1.1,0.9,1.9,0.9s1.5-0.3,1.9-0.9s0.7-1.4,0.7-2.5c0-1.1-0.2-1.9-0.7-2.5
		c-0.4-0.6-1.1-0.8-1.9-0.8c-0.8,0-1.5,0.3-1.9,0.8C508.1,54,507.9,54.8,507.9,56z"/>
	<path id="XMLID_451_" class="st0" d="M520.7,60.4c-0.6,0-1.1-0.1-1.5-0.3s-0.8-0.5-1.2-0.9h-0.1c0.1,0.5,0.1,1,0.1,1.4v3.5h-1.3
		V51.7h1.1l0.2,1.2h0.1c0.3-0.5,0.7-0.8,1.2-1c0.4-0.2,1-0.3,1.5-0.3c1.1,0,2,0.4,2.6,1.2c0.6,0.8,0.9,1.9,0.9,3.3
		c0,1.4-0.3,2.5-0.9,3.3C522.7,60,521.8,60.4,520.7,60.4z M520.5,52.6c-0.9,0-1.5,0.2-1.9,0.7s-0.6,1.3-0.6,2.3V56
		c0,1.2,0.2,2.1,0.6,2.6c0.4,0.5,1,0.8,1.9,0.8c0.7,0,1.3-0.3,1.7-0.9c0.4-0.6,0.6-1.4,0.6-2.5c0-1.1-0.2-1.9-0.6-2.5
		S521.2,52.6,520.5,52.6z"/>
	<path id="XMLID_448_" class="st0" d="M530.1,60.4c-1.3,0-2.3-0.4-3-1.2c-0.7-0.8-1.1-1.8-1.1-3.2c0-1.4,0.3-2.5,1-3.3
		s1.6-1.2,2.7-1.2c1.1,0,1.9,0.4,2.5,1.1c0.6,0.7,0.9,1.6,0.9,2.8v0.8h-5.9c0,1,0.3,1.8,0.8,2.3c0.5,0.5,1.2,0.8,2,0.8
		c0.9,0,1.8-0.2,2.7-0.6v1.2c-0.5,0.2-0.9,0.3-1.3,0.4S530.7,60.4,530.1,60.4z M529.8,52.6c-0.7,0-1.2,0.2-1.6,0.7
		c-0.4,0.4-0.6,1.1-0.7,1.9h4.5c0-0.8-0.2-1.4-0.5-1.9C531,52.8,530.4,52.6,529.8,52.6z"/>
	<path id="XMLID_446_" class="st0" d="M539.4,51.5c0.4,0,0.7,0,1,0.1l-0.2,1.2c-0.4-0.1-0.7-0.1-0.9-0.1c-0.7,0-1.3,0.3-1.8,0.8
		s-0.7,1.3-0.7,2.1v4.6h-1.3v-8.6h1.1l0.1,1.6h0.1c0.3-0.6,0.7-1,1.1-1.3C538.3,51.7,538.8,51.5,539.4,51.5z"/>
	<path id="XMLID_443_" class="st0" d="M547.3,60.2L547,59h-0.1c-0.4,0.5-0.9,0.9-1.3,1.1s-1,0.3-1.6,0.3c-0.8,0-1.5-0.2-2-0.7
		s-0.7-1.1-0.7-1.9c0-1.7,1.4-2.6,4.1-2.7l1.5,0v-0.5c0-0.7-0.1-1.2-0.4-1.5s-0.8-0.5-1.4-0.5c-0.7,0-1.5,0.2-2.4,0.7l-0.4-1
		c0.4-0.2,0.9-0.4,1.4-0.5c0.5-0.1,1-0.2,1.5-0.2c1,0,1.8,0.2,2.3,0.7s0.7,1.2,0.7,2.2v5.8H547.3z M544.3,59.3
		c0.8,0,1.4-0.2,1.9-0.7c0.5-0.4,0.7-1.1,0.7-1.9V56l-1.3,0.1c-1,0-1.8,0.2-2.2,0.5c-0.5,0.3-0.7,0.7-0.7,1.3c0,0.5,0.1,0.8,0.4,1.1
		C543.4,59.2,543.8,59.3,544.3,59.3z"/>
	<path id="XMLID_441_" class="st0" d="M553.7,59.3c0.2,0,0.5,0,0.7-0.1c0.2,0,0.4-0.1,0.5-0.1v1c-0.1,0.1-0.3,0.1-0.6,0.2
		c-0.3,0-0.5,0.1-0.7,0.1c-1.7,0-2.5-0.9-2.5-2.6v-5.1h-1.2v-0.6l1.2-0.5l0.5-1.8h0.8v2h2.5v1h-2.5v5c0,0.5,0.1,0.9,0.4,1.2
		C552.9,59.2,553.2,59.3,553.7,59.3z"/>
	<path id="XMLID_438_" class="st0" d="M556.4,49.4c0-0.3,0.1-0.5,0.2-0.7c0.1-0.1,0.3-0.2,0.5-0.2c0.2,0,0.4,0.1,0.5,0.2
		s0.2,0.4,0.2,0.6c0,0.3-0.1,0.5-0.2,0.7c-0.2,0.1-0.3,0.2-0.5,0.2c-0.2,0-0.4-0.1-0.5-0.2C556.5,49.9,556.4,49.7,556.4,49.4z
		 M557.8,60.2h-1.3v-8.6h1.3V60.2z"/>
	<path id="XMLID_435_" class="st0" d="M568,56c0,1.4-0.4,2.5-1.1,3.3c-0.7,0.8-1.7,1.2-2.9,1.2c-0.8,0-1.4-0.2-2-0.5
		s-1.1-0.9-1.4-1.5s-0.5-1.5-0.5-2.4c0-1.4,0.3-2.5,1-3.3c0.7-0.8,1.7-1.2,2.9-1.2c1.2,0,2.1,0.4,2.9,1.2S568,54.6,568,56z
		 M561.5,56c0,1.1,0.2,1.9,0.7,2.5c0.4,0.6,1.1,0.9,1.9,0.9s1.5-0.3,1.9-0.9s0.7-1.4,0.7-2.5c0-1.1-0.2-1.9-0.7-2.5
		c-0.4-0.6-1.1-0.8-1.9-0.8c-0.8,0-1.5,0.3-1.9,0.8C561.7,54,561.5,54.8,561.5,56z"/>
	<path id="XMLID_433_" class="st0" d="M576.1,60.2v-5.5c0-0.7-0.2-1.2-0.5-1.6s-0.8-0.5-1.5-0.5c-0.9,0-1.6,0.2-2,0.7
		s-0.6,1.3-0.6,2.4v4.5h-1.3v-8.6h1.1l0.2,1.2h0.1c0.3-0.4,0.6-0.7,1.1-1c0.5-0.2,1-0.3,1.6-0.3c1,0,1.8,0.2,2.3,0.7
		c0.5,0.5,0.8,1.3,0.8,2.4v5.6H576.1z"/>
	<path id="XMLID_431_" class="st0" d="M587.7,60.4c-1.2,0-2.2-0.4-2.9-1.1c-0.7-0.8-1-1.8-1-3.2c0-1.4,0.3-2.5,1-3.3
		s1.7-1.2,2.9-1.2c0.4,0,0.8,0,1.2,0.1c0.4,0.1,0.7,0.2,1,0.3l-0.4,1.1c-0.3-0.1-0.6-0.2-0.9-0.3c-0.3-0.1-0.6-0.1-0.9-0.1
		c-1.7,0-2.6,1.1-2.6,3.3c0,1.1,0.2,1.9,0.6,2.4s1.1,0.8,1.9,0.8c0.7,0,1.4-0.2,2.2-0.5V60C589.2,60.3,588.5,60.4,587.7,60.4z"/>
	<path id="XMLID_428_" class="st0" d="M599.2,56c0,1.4-0.4,2.5-1.1,3.3c-0.7,0.8-1.7,1.2-2.9,1.2c-0.8,0-1.4-0.2-2-0.5
		s-1.1-0.9-1.4-1.5s-0.5-1.5-0.5-2.4c0-1.4,0.3-2.5,1-3.3c0.7-0.8,1.7-1.2,2.9-1.2c1.2,0,2.1,0.4,2.9,1.2S599.2,54.6,599.2,56z
		 M592.7,56c0,1.1,0.2,1.9,0.7,2.5c0.4,0.6,1.1,0.9,1.9,0.9s1.5-0.3,1.9-0.9s0.7-1.4,0.7-2.5c0-1.1-0.2-1.9-0.7-2.5
		c-0.4-0.6-1.1-0.8-1.9-0.8c-0.8,0-1.5,0.3-1.9,0.8C592.9,54,592.7,54.8,592.7,56z"/>
	<path id="XMLID_426_" class="st0" d="M607,57.9c0,0.8-0.3,1.4-0.9,1.8c-0.6,0.4-1.4,0.6-2.5,0.6c-1.1,0-2-0.2-2.7-0.5v-1.2
		c0.4,0.2,0.9,0.4,1.3,0.5c0.5,0.1,0.9,0.2,1.4,0.2c0.7,0,1.2-0.1,1.6-0.3c0.4-0.2,0.5-0.5,0.5-1c0-0.3-0.1-0.6-0.4-0.9
		c-0.3-0.2-0.9-0.5-1.7-0.8c-0.8-0.3-1.4-0.6-1.7-0.8c-0.3-0.2-0.6-0.5-0.8-0.8s-0.2-0.6-0.2-1c0-0.7,0.3-1.2,0.9-1.7
		c0.6-0.4,1.3-0.6,2.3-0.6c0.9,0,1.8,0.2,2.7,0.6l-0.5,1.1c-0.9-0.4-1.6-0.5-2.3-0.5c-0.6,0-1.1,0.1-1.4,0.3
		c-0.3,0.2-0.5,0.5-0.5,0.8c0,0.2,0.1,0.4,0.2,0.6c0.1,0.2,0.3,0.3,0.6,0.5c0.3,0.1,0.8,0.4,1.5,0.6c1,0.4,1.7,0.7,2.1,1.1
		S607,57.3,607,57.9z"/>
	<path id="XMLID_424_" class="st0" d="M611.9,59.3c0.2,0,0.5,0,0.7-0.1c0.2,0,0.4-0.1,0.5-0.1v1c-0.1,0.1-0.3,0.1-0.6,0.2
		c-0.3,0-0.5,0.1-0.7,0.1c-1.7,0-2.5-0.9-2.5-2.6v-5.1H608v-0.6l1.2-0.5l0.5-1.8h0.8v2h2.5v1h-2.5v5c0,0.5,0.1,0.9,0.4,1.2
		C611.2,59.2,611.5,59.3,611.9,59.3z"/>
	<path id="XMLID_422_" class="st0" d="M494.1,80.5v-1.2h6.7v1.2H494.1z"/>
	<path id="XMLID_419_" class="st0" d="M511,84.4c-0.6,0-1.1-0.1-1.5-0.3s-0.8-0.5-1.2-0.9h-0.1c0.1,0.5,0.1,1,0.1,1.4v3.5H507V75.7
		h1.1l0.2,1.2h0.1c0.3-0.5,0.7-0.8,1.2-1c0.4-0.2,1-0.3,1.5-0.3c1.1,0,2,0.4,2.6,1.2c0.6,0.8,0.9,1.9,0.9,3.3c0,1.4-0.3,2.5-0.9,3.3
		C513,84,512.1,84.4,511,84.4z M510.8,76.6c-0.9,0-1.5,0.2-1.9,0.7s-0.6,1.3-0.6,2.3V80c0,1.2,0.2,2.1,0.6,2.6
		c0.4,0.5,1,0.8,1.9,0.8c0.7,0,1.3-0.3,1.7-0.9c0.4-0.6,0.6-1.4,0.6-2.5c0-1.1-0.2-1.9-0.6-2.5S511.6,76.6,510.8,76.6z"/>
	<path id="XMLID_417_" class="st0" d="M520.7,75.5c0.4,0,0.7,0,1,0.1l-0.2,1.2c-0.4-0.1-0.7-0.1-0.9-0.1c-0.7,0-1.3,0.3-1.8,0.8
		s-0.7,1.3-0.7,2.1v4.6h-1.3v-8.6h1.1l0.1,1.6h0.1c0.3-0.6,0.7-1,1.1-1.3C519.7,75.7,520.2,75.5,520.7,75.5z"/>
	<path id="XMLID_414_" class="st0" d="M523.3,73.4c0-0.3,0.1-0.5,0.2-0.7c0.1-0.1,0.3-0.2,0.5-0.2c0.2,0,0.4,0.1,0.5,0.2
		s0.2,0.4,0.2,0.6c0,0.3-0.1,0.5-0.2,0.7c-0.2,0.1-0.3,0.2-0.5,0.2c-0.2,0-0.4-0.1-0.5-0.2C523.3,73.9,523.3,73.7,523.3,73.4z
		 M524.7,84.2h-1.3v-8.6h1.3V84.2z"/>
	<path id="XMLID_412_" class="st0" d="M533.3,84.2v-5.5c0-0.7-0.2-1.2-0.5-1.6s-0.8-0.5-1.5-0.5c-0.9,0-1.6,0.2-2,0.7
		s-0.6,1.3-0.6,2.4v4.5h-1.3v-8.6h1.1l0.2,1.2h0.1c0.3-0.4,0.6-0.7,1.1-1c0.5-0.2,1-0.3,1.6-0.3c1,0,1.8,0.2,2.3,0.7
		c0.5,0.5,0.8,1.3,0.8,2.4v5.6H533.3z"/>
	<path id="XMLID_410_" class="st0" d="M540.6,84.4c-1.2,0-2.2-0.4-2.9-1.1c-0.7-0.8-1-1.8-1-3.2c0-1.4,0.3-2.5,1-3.3
		s1.7-1.2,2.9-1.2c0.4,0,0.8,0,1.2,0.1c0.4,0.1,0.7,0.2,1,0.3l-0.4,1.1c-0.3-0.1-0.6-0.2-0.9-0.3c-0.3-0.1-0.6-0.1-0.9-0.1
		c-1.7,0-2.6,1.1-2.6,3.3c0,1.1,0.2,1.9,0.6,2.4s1.1,0.8,1.9,0.8c0.7,0,1.4-0.2,2.2-0.5V84C542.2,84.3,541.5,84.4,540.6,84.4z"/>
	<path id="XMLID_407_" class="st0" d="M544.7,73.4c0-0.3,0.1-0.5,0.2-0.7c0.1-0.1,0.3-0.2,0.5-0.2c0.2,0,0.4,0.1,0.5,0.2
		s0.2,0.4,0.2,0.6c0,0.3-0.1,0.5-0.2,0.7c-0.2,0.1-0.3,0.2-0.5,0.2c-0.2,0-0.4-0.1-0.5-0.2C544.8,73.9,544.7,73.7,544.7,73.4z
		 M546.1,84.2h-1.3v-8.6h1.3V84.2z"/>
	<path id="XMLID_404_" class="st0" d="M552.9,84.4c-0.6,0-1.1-0.1-1.5-0.3s-0.8-0.5-1.2-0.9h-0.1c0.1,0.5,0.1,1,0.1,1.4v3.5h-1.3
		V75.7h1.1l0.2,1.2h0.1c0.3-0.5,0.7-0.8,1.2-1c0.4-0.2,1-0.3,1.5-0.3c1.1,0,2,0.4,2.6,1.2c0.6,0.8,0.9,1.9,0.9,3.3
		c0,1.4-0.3,2.5-0.9,3.3C554.9,84,554,84.4,552.9,84.4z M552.7,76.6c-0.9,0-1.5,0.2-1.9,0.7s-0.6,1.3-0.6,2.3V80
		c0,1.2,0.2,2.1,0.6,2.6c0.4,0.5,1,0.8,1.9,0.8c0.7,0,1.3-0.3,1.7-0.9c0.4-0.6,0.6-1.4,0.6-2.5c0-1.1-0.2-1.9-0.6-2.5
		S553.4,76.6,552.7,76.6z"/>
	<path id="XMLID_401_" class="st0" d="M564,84.2l-0.3-1.2h-0.1c-0.4,0.5-0.9,0.9-1.3,1.1s-1,0.3-1.6,0.3c-0.8,0-1.5-0.2-2-0.7
		s-0.7-1.1-0.7-1.9c0-1.7,1.4-2.6,4.1-2.7l1.5,0v-0.5c0-0.7-0.1-1.2-0.4-1.5s-0.8-0.5-1.4-0.5c-0.7,0-1.5,0.2-2.4,0.7l-0.4-1
		c0.4-0.2,0.9-0.4,1.4-0.5c0.5-0.1,1-0.2,1.5-0.2c1,0,1.8,0.2,2.3,0.7s0.7,1.2,0.7,2.2v5.8H564z M561,83.3c0.8,0,1.4-0.2,1.9-0.7
		c0.5-0.4,0.7-1.1,0.7-1.9V80l-1.3,0.1c-1,0-1.8,0.2-2.2,0.5c-0.5,0.3-0.7,0.7-0.7,1.3c0,0.5,0.1,0.8,0.4,1.1
		C560.1,83.2,560.5,83.3,561,83.3z"/>
	<path id="XMLID_399_" class="st0" d="M568.9,84.2h-1.3V72.1h1.3V84.2z"/>
	<path id="XMLID_396_" class="st0" d="M581.1,84.2l-0.3-1.2h-0.1c-0.4,0.5-0.9,0.9-1.3,1.1s-1,0.3-1.6,0.3c-0.8,0-1.5-0.2-2-0.7
		s-0.7-1.1-0.7-1.9c0-1.7,1.4-2.6,4.1-2.7l1.5,0v-0.5c0-0.7-0.1-1.2-0.4-1.5s-0.8-0.5-1.4-0.5c-0.7,0-1.5,0.2-2.4,0.7l-0.4-1
		c0.4-0.2,0.9-0.4,1.4-0.5c0.5-0.1,1-0.2,1.5-0.2c1,0,1.8,0.2,2.3,0.7s0.7,1.2,0.7,2.2v5.8H581.1z M578.1,83.3
		c0.8,0,1.4-0.2,1.9-0.7c0.5-0.4,0.7-1.1,0.7-1.9V80l-1.3,0.1c-1,0-1.8,0.2-2.2,0.5c-0.5,0.3-0.7,0.7-0.7,1.3c0,0.5,0.1,0.8,0.4,1.1
		C577.2,83.2,577.6,83.3,578.1,83.3z"/>
	<path id="XMLID_394_" class="st0" d="M590.6,84.2v-5.5c0-0.7-0.2-1.2-0.5-1.6s-0.8-0.5-1.5-0.5c-0.9,0-1.6,0.2-2,0.7
		s-0.6,1.3-0.6,2.4v4.5h-1.3v-8.6h1.1l0.2,1.2h0.1c0.3-0.4,0.6-0.7,1.1-1c0.5-0.2,1-0.3,1.6-0.3c1,0,1.8,0.2,2.3,0.7
		c0.5,0.5,0.8,1.3,0.8,2.4v5.6H590.6z"/>
	<path id="XMLID_391_" class="st0" d="M600.3,83.1L600.3,83.1c-0.7,0.9-1.6,1.3-2.8,1.3c-1.1,0-2-0.4-2.6-1.1S594,81.4,594,80
		c0-1.4,0.3-2.5,0.9-3.3s1.5-1.2,2.6-1.2c1.2,0,2.1,0.4,2.7,1.3h0.1l-0.1-0.6l0-0.6v-3.5h1.3v12.2h-1.1L600.3,83.1z M597.8,83.3
		c0.9,0,1.5-0.2,1.9-0.7c0.4-0.5,0.6-1.3,0.6-2.3V80c0-1.2-0.2-2.1-0.6-2.6c-0.4-0.5-1-0.8-1.9-0.8c-0.8,0-1.3,0.3-1.7,0.9
		c-0.4,0.6-0.6,1.4-0.6,2.5c0,1.1,0.2,1.9,0.6,2.5C596.4,83,597,83.3,597.8,83.3z"/>
	<path id="XMLID_388_" class="st0" d="M608.4,73.4c0-0.3,0.1-0.5,0.2-0.7c0.1-0.1,0.3-0.2,0.5-0.2c0.2,0,0.4,0.1,0.5,0.2
		s0.2,0.4,0.2,0.6c0,0.3-0.1,0.5-0.2,0.7c-0.2,0.1-0.3,0.2-0.5,0.2c-0.2,0-0.4-0.1-0.5-0.2C608.4,73.9,608.4,73.7,608.4,73.4z
		 M609.8,84.2h-1.3v-8.6h1.3V84.2z"/>
	<path id="XMLID_386_" class="st0" d="M618.4,84.2v-5.5c0-0.7-0.2-1.2-0.5-1.6s-0.8-0.5-1.5-0.5c-0.9,0-1.6,0.2-2,0.7
		s-0.6,1.3-0.6,2.4v4.5h-1.3v-8.6h1.1l0.2,1.2h0.1c0.3-0.4,0.6-0.7,1.1-1c0.5-0.2,1-0.3,1.6-0.3c1,0,1.8,0.2,2.3,0.7
		c0.5,0.5,0.8,1.3,0.8,2.4v5.6H618.4z"/>
	<path id="XMLID_384_" class="st0" d="M625.1,83.3c0.2,0,0.5,0,0.7-0.1c0.2,0,0.4-0.1,0.5-0.1v1c-0.1,0.1-0.3,0.1-0.6,0.2
		c-0.3,0-0.5,0.1-0.7,0.1c-1.7,0-2.5-0.9-2.5-2.6v-5.1h-1.2v-0.6l1.2-0.5l0.5-1.8h0.8v2h2.5v1h-2.5v5c0,0.5,0.1,0.9,0.4,1.2
		C624.3,83.2,624.7,83.3,625.1,83.3z"/>
	<path id="XMLID_381_" class="st0" d="M631.6,84.4c-1.3,0-2.3-0.4-3-1.2c-0.7-0.8-1.1-1.8-1.1-3.2c0-1.4,0.3-2.5,1-3.3
		s1.6-1.2,2.7-1.2c1.1,0,1.9,0.4,2.5,1.1c0.6,0.7,0.9,1.6,0.9,2.8v0.8h-5.9c0,1,0.3,1.8,0.8,2.3c0.5,0.5,1.2,0.8,2,0.8
		c0.9,0,1.8-0.2,2.7-0.6v1.2c-0.5,0.2-0.9,0.3-1.3,0.4S632.2,84.4,631.6,84.4z M631.3,76.6c-0.7,0-1.2,0.2-1.6,0.7
		c-0.4,0.4-0.6,1.1-0.7,1.9h4.5c0-0.8-0.2-1.4-0.5-1.9C632.5,76.8,631.9,76.6,631.3,76.6z"/>
	<path id="XMLID_379_" class="st0" d="M640.9,75.5c0.4,0,0.7,0,1,0.1l-0.2,1.2c-0.4-0.1-0.7-0.1-0.9-0.1c-0.7,0-1.3,0.3-1.8,0.8
		s-0.7,1.3-0.7,2.1v4.6H637v-8.6h1.1l0.1,1.6h0.1c0.3-0.6,0.7-1,1.1-1.3C639.8,75.7,640.3,75.5,640.9,75.5z"/>
	<path id="XMLID_376_" class="st0" d="M647.1,84.4c-1.3,0-2.3-0.4-3-1.2c-0.7-0.8-1.1-1.8-1.1-3.2c0-1.4,0.3-2.5,1-3.3
		s1.6-1.2,2.7-1.2c1.1,0,1.9,0.4,2.5,1.1c0.6,0.7,0.9,1.6,0.9,2.8v0.8h-5.9c0,1,0.3,1.8,0.8,2.3c0.5,0.5,1.2,0.8,2,0.8
		c0.9,0,1.8-0.2,2.7-0.6v1.2c-0.5,0.2-0.9,0.3-1.3,0.4S647.7,84.4,647.1,84.4z M646.8,76.6c-0.7,0-1.2,0.2-1.6,0.7
		c-0.4,0.4-0.6,1.1-0.7,1.9h4.5c0-0.8-0.2-1.4-0.5-1.9C648,76.8,647.4,76.6,646.8,76.6z"/>
	<path id="XMLID_374_" class="st0" d="M658,81.9c0,0.8-0.3,1.4-0.9,1.8c-0.6,0.4-1.4,0.6-2.5,0.6c-1.1,0-2-0.2-2.7-0.5v-1.2
		c0.4,0.2,0.9,0.4,1.3,0.5c0.5,0.1,0.9,0.2,1.4,0.2c0.7,0,1.2-0.1,1.6-0.3c0.4-0.2,0.5-0.5,0.5-1c0-0.3-0.1-0.6-0.4-0.9
		c-0.3-0.2-0.9-0.5-1.7-0.8c-0.8-0.3-1.4-0.6-1.7-0.8c-0.3-0.2-0.6-0.5-0.8-0.8s-0.2-0.6-0.2-1c0-0.7,0.3-1.2,0.9-1.7
		c0.6-0.4,1.3-0.6,2.3-0.6c0.9,0,1.8,0.2,2.7,0.6l-0.5,1.1c-0.9-0.4-1.6-0.5-2.3-0.5c-0.6,0-1.1,0.1-1.4,0.3
		c-0.3,0.2-0.5,0.5-0.5,0.8c0,0.2,0.1,0.4,0.2,0.6c0.1,0.2,0.3,0.3,0.6,0.5c0.3,0.1,0.8,0.4,1.5,0.6c1,0.4,1.7,0.7,2.1,1.1
		S658,81.3,658,81.9z"/>
	<path id="XMLID_372_" class="st0" d="M662.9,83.3c0.2,0,0.5,0,0.7-0.1c0.2,0,0.4-0.1,0.5-0.1v1c-0.1,0.1-0.3,0.1-0.6,0.2
		c-0.3,0-0.5,0.1-0.7,0.1c-1.7,0-2.5-0.9-2.5-2.6v-5.1H659v-0.6l1.2-0.5l0.5-1.8h0.8v2h2.5v1h-2.5v5c0,0.5,0.1,0.9,0.4,1.2
		C662.1,83.2,662.4,83.3,662.9,83.3z"/>
	<path id="XMLID_369_" class="st0" d="M677.3,80c0,1.4-0.4,2.5-1.1,3.3c-0.7,0.8-1.7,1.2-2.9,1.2c-0.8,0-1.4-0.2-2-0.5
		s-1.1-0.9-1.4-1.5s-0.5-1.5-0.5-2.4c0-1.4,0.3-2.5,1-3.3c0.7-0.8,1.7-1.2,2.9-1.2c1.2,0,2.1,0.4,2.9,1.2S677.3,78.6,677.3,80z
		 M670.8,80c0,1.1,0.2,1.9,0.7,2.5c0.4,0.6,1.1,0.9,1.9,0.9s1.5-0.3,1.9-0.9s0.7-1.4,0.7-2.5c0-1.1-0.2-1.9-0.7-2.5
		c-0.4-0.6-1.1-0.8-1.9-0.8c-0.8,0-1.5,0.3-1.9,0.8C671,78,670.8,78.8,670.8,80z"/>
	<path id="XMLID_367_" class="st0" d="M683.4,76.7h-2.2v7.6H680v-7.6h-1.5v-0.6l1.5-0.5v-0.5c0-2.1,0.9-3.2,2.8-3.2
		c0.5,0,1,0.1,1.6,0.3l-0.3,1c-0.5-0.2-0.9-0.2-1.3-0.2c-0.5,0-0.9,0.2-1.1,0.5c-0.2,0.3-0.4,0.8-0.4,1.6v0.6h2.2V76.7z"/>
	<path id="XMLID_364_" class="st0" d="M693.1,75.5c1.1,0,2,0.4,2.6,1.2c0.6,0.8,0.9,1.9,0.9,3.3s-0.3,2.5-0.9,3.3
		c-0.6,0.8-1.5,1.2-2.6,1.2c-0.6,0-1.1-0.1-1.5-0.3s-0.8-0.5-1.2-0.9h-0.1l-0.3,1.1h-0.9V72.1h1.3v3c0,0.7,0,1.3-0.1,1.8h0.1
		C691.1,76,692,75.5,693.1,75.5z M693,76.6c-0.9,0-1.5,0.3-1.9,0.8s-0.6,1.4-0.6,2.6s0.2,2.1,0.6,2.6c0.4,0.5,1,0.8,1.9,0.8
		c0.8,0,1.4-0.3,1.8-0.9c0.4-0.6,0.6-1.4,0.6-2.5c0-1.1-0.2-1.9-0.6-2.5S693.8,76.6,693,76.6z"/>
	<path id="XMLID_361_" class="st0" d="M704.2,84.2L704,83h-0.1c-0.4,0.5-0.9,0.9-1.3,1.1s-1,0.3-1.6,0.3c-0.8,0-1.5-0.2-2-0.7
		s-0.7-1.1-0.7-1.9c0-1.7,1.4-2.6,4.1-2.7l1.5,0v-0.5c0-0.7-0.1-1.2-0.4-1.5s-0.8-0.5-1.4-0.5c-0.7,0-1.5,0.2-2.4,0.7l-0.4-1
		c0.4-0.2,0.9-0.4,1.4-0.5c0.5-0.1,1-0.2,1.5-0.2c1,0,1.8,0.2,2.3,0.7s0.7,1.2,0.7,2.2v5.8H704.2z M701.3,83.3
		c0.8,0,1.4-0.2,1.9-0.7c0.5-0.4,0.7-1.1,0.7-1.9V80l-1.3,0.1c-1,0-1.8,0.2-2.2,0.5c-0.5,0.3-0.7,0.7-0.7,1.3c0,0.5,0.1,0.8,0.4,1.1
		C700.4,83.2,700.8,83.3,701.3,83.3z"/>
	<path id="XMLID_359_" class="st0" d="M713.7,84.2v-5.5c0-0.7-0.2-1.2-0.5-1.6s-0.8-0.5-1.5-0.5c-0.9,0-1.6,0.2-2,0.7
		s-0.6,1.3-0.6,2.4v4.5h-1.3v-8.6h1.1l0.2,1.2h0.1c0.3-0.4,0.6-0.7,1.1-1c0.5-0.2,1-0.3,1.6-0.3c1,0,1.8,0.2,2.3,0.7
		c0.5,0.5,0.8,1.3,0.8,2.4v5.6H713.7z"/>
	<path id="XMLID_357_" class="st0" d="M719,79.9c0.2-0.3,0.6-0.7,1-1.3l2.8-2.9h1.5l-3.5,3.6l3.7,4.9H723l-3-4l-1,0.8v3.2h-1.3V72.1
		h1.3v6.4C719,78.8,718.9,79.3,719,79.9L719,79.9z"/>
	<path id="XMLID_355_" class="st0" d="M731.5,84.2h-1.3V72.1h1.3V84.2z"/>
	<path id="XMLID_352_" class="st0" d="M741.7,80c0,1.4-0.4,2.5-1.1,3.3c-0.7,0.8-1.7,1.2-2.9,1.2c-0.8,0-1.4-0.2-2-0.5
		s-1.1-0.9-1.4-1.5s-0.5-1.5-0.5-2.4c0-1.4,0.3-2.5,1-3.3c0.7-0.8,1.7-1.2,2.9-1.2c1.2,0,2.1,0.4,2.9,1.2S741.7,78.6,741.7,80z
		 M735.1,80c0,1.1,0.2,1.9,0.7,2.5c0.4,0.6,1.1,0.9,1.9,0.9s1.5-0.3,1.9-0.9s0.7-1.4,0.7-2.5c0-1.1-0.2-1.9-0.7-2.5
		c-0.4-0.6-1.1-0.8-1.9-0.8c-0.8,0-1.5,0.3-1.9,0.8C735.4,78,735.1,78.8,735.1,80z"/>
	<path id="XMLID_349_" class="st0" d="M749.2,84.2L749,83h-0.1c-0.4,0.5-0.9,0.9-1.3,1.1s-1,0.3-1.6,0.3c-0.8,0-1.5-0.2-2-0.7
		s-0.7-1.1-0.7-1.9c0-1.7,1.4-2.6,4.1-2.7l1.5,0v-0.5c0-0.7-0.1-1.2-0.4-1.5s-0.8-0.5-1.4-0.5c-0.7,0-1.5,0.2-2.4,0.7l-0.4-1
		c0.4-0.2,0.9-0.4,1.4-0.5c0.5-0.1,1-0.2,1.5-0.2c1,0,1.8,0.2,2.3,0.7s0.7,1.2,0.7,2.2v5.8H749.2z M746.3,83.3
		c0.8,0,1.4-0.2,1.9-0.7c0.5-0.4,0.7-1.1,0.7-1.9V80l-1.3,0.1c-1,0-1.8,0.2-2.2,0.5c-0.5,0.3-0.7,0.7-0.7,1.3c0,0.5,0.1,0.8,0.4,1.1
		C745.4,83.2,745.8,83.3,746.3,83.3z"/>
	<path id="XMLID_347_" class="st0" d="M758.7,84.2v-5.5c0-0.7-0.2-1.2-0.5-1.6s-0.8-0.5-1.5-0.5c-0.9,0-1.6,0.2-2,0.7
		s-0.6,1.3-0.6,2.4v4.5h-1.3v-8.6h1.1l0.2,1.2h0.1c0.3-0.4,0.6-0.7,1.1-1c0.5-0.2,1-0.3,1.6-0.3c1,0,1.8,0.2,2.3,0.7
		c0.5,0.5,0.8,1.3,0.8,2.4v5.6H758.7z"/>
</g>
<g id="XMLID_209_">
	<path id="XMLID_344_" class="st0" d="M4.9,30.2H3.6V19.9H0v-1.2h8.6v1.2H4.9V30.2z"/>
	<path id="XMLID_342_" class="st0" d="M15.9,30.2v-5.5c0-0.7-0.2-1.2-0.5-1.6s-0.8-0.5-1.5-0.5c-0.9,0-1.6,0.2-2,0.7
		c-0.4,0.5-0.6,1.3-0.6,2.4v4.5h-1.3V18h1.3v3.7c0,0.4,0,0.8-0.1,1.1h0.1c0.3-0.4,0.6-0.7,1.1-1c0.5-0.2,1-0.4,1.6-0.4
		c1,0,1.8,0.2,2.4,0.7c0.5,0.5,0.8,1.3,0.8,2.4v5.6H15.9z"/>
	<path id="XMLID_339_" class="st0" d="M23.5,30.3c-1.3,0-2.3-0.4-3-1.2c-0.7-0.8-1.1-1.8-1.1-3.2c0-1.4,0.3-2.5,1-3.3
		s1.6-1.2,2.7-1.2c1.1,0,1.9,0.4,2.5,1.1c0.6,0.7,0.9,1.6,0.9,2.8v0.8h-5.9c0,1,0.3,1.8,0.8,2.3c0.5,0.5,1.2,0.8,2,0.8
		c0.9,0,1.8-0.2,2.7-0.6v1.2c-0.5,0.2-0.9,0.3-1.3,0.4S24.1,30.3,23.5,30.3z M23.2,22.5c-0.7,0-1.2,0.2-1.6,0.7
		c-0.4,0.4-0.6,1.1-0.7,1.9h4.5c0-0.8-0.2-1.4-0.5-1.9C24.4,22.7,23.8,22.5,23.2,22.5z"/>
	<path id="XMLID_336_" class="st0" d="M38.3,30.2L38,28.9H38c-0.4,0.5-0.9,0.9-1.3,1.1s-1,0.3-1.6,0.3c-0.8,0-1.5-0.2-2-0.7
		s-0.7-1.1-0.7-1.9c0-1.7,1.4-2.6,4.1-2.7l1.5,0v-0.5c0-0.7-0.1-1.2-0.4-1.5s-0.8-0.5-1.4-0.5c-0.7,0-1.5,0.2-2.4,0.7l-0.4-1
		c0.4-0.2,0.9-0.4,1.4-0.5c0.5-0.1,1-0.2,1.5-0.2c1,0,1.8,0.2,2.3,0.7s0.7,1.2,0.7,2.2v5.8H38.3z M35.4,29.2c0.8,0,1.4-0.2,1.9-0.7
		c0.5-0.4,0.7-1.1,0.7-1.9v-0.8L36.7,26c-1,0-1.8,0.2-2.2,0.5c-0.5,0.3-0.7,0.7-0.7,1.3c0,0.5,0.1,0.8,0.4,1.1
		C34.5,29.1,34.9,29.2,35.4,29.2z"/>
	<path id="XMLID_334_" class="st0" d="M45.4,30.3c-1.2,0-2.2-0.4-2.9-1.1c-0.7-0.8-1-1.8-1-3.2c0-1.4,0.3-2.5,1-3.3s1.7-1.2,2.9-1.2
		c0.4,0,0.8,0,1.2,0.1c0.4,0.1,0.7,0.2,1,0.3L47.3,23c-0.3-0.1-0.6-0.2-0.9-0.3c-0.3-0.1-0.6-0.1-0.9-0.1c-1.7,0-2.6,1.1-2.6,3.3
		c0,1.1,0.2,1.9,0.6,2.4s1.1,0.8,1.9,0.8c0.7,0,1.4-0.2,2.2-0.5v1.1C47,30.2,46.2,30.3,45.4,30.3z"/>
	<path id="XMLID_332_" class="st0" d="M53,30.3c-1.2,0-2.2-0.4-2.9-1.1c-0.7-0.8-1-1.8-1-3.2c0-1.4,0.3-2.5,1-3.3s1.7-1.2,2.9-1.2
		c0.4,0,0.8,0,1.2,0.1c0.4,0.1,0.7,0.2,1,0.3L54.9,23c-0.3-0.1-0.6-0.2-0.9-0.3c-0.3-0.1-0.6-0.1-0.9-0.1c-1.7,0-2.6,1.1-2.6,3.3
		c0,1.1,0.2,1.9,0.6,2.4s1.1,0.8,1.9,0.8c0.7,0,1.4-0.2,2.2-0.5v1.1C54.6,30.2,53.8,30.3,53,30.3z"/>
	<path id="XMLID_330_" class="st0" d="M58.4,21.6v5.6c0,0.7,0.2,1.2,0.5,1.6s0.8,0.5,1.5,0.5c0.9,0,1.6-0.2,2-0.7
		c0.4-0.5,0.6-1.3,0.6-2.4v-4.5h1.3v8.6h-1.1L63,29h-0.1c-0.3,0.4-0.6,0.7-1.1,1s-1,0.3-1.6,0.3c-1,0-1.8-0.2-2.3-0.7
		c-0.5-0.5-0.8-1.3-0.8-2.4v-5.6H58.4z"/>
	<path id="XMLID_328_" class="st0" d="M77.9,30.2v-5.6c0-0.7-0.1-1.2-0.4-1.5c-0.3-0.3-0.7-0.5-1.4-0.5c-0.8,0-1.4,0.2-1.8,0.7
		c-0.4,0.5-0.6,1.2-0.6,2.1v4.8h-1.3v-5.6c0-0.7-0.1-1.2-0.4-1.5c-0.3-0.3-0.7-0.5-1.4-0.5c-0.8,0-1.4,0.2-1.8,0.7
		c-0.4,0.5-0.6,1.3-0.6,2.4v4.5H67v-8.6H68l0.2,1.2h0.1c0.2-0.4,0.6-0.7,1-1s0.9-0.4,1.5-0.4c1.3,0,2.2,0.5,2.6,1.5h0.1
		c0.3-0.4,0.6-0.8,1.1-1.1c0.5-0.3,1-0.4,1.7-0.4c1,0,1.7,0.2,2.2,0.7c0.5,0.5,0.7,1.3,0.7,2.4v5.6H77.9z"/>
	<path id="XMLID_326_" class="st0" d="M83.1,21.6v5.6c0,0.7,0.2,1.2,0.5,1.6s0.8,0.5,1.5,0.5c0.9,0,1.6-0.2,2-0.7
		c0.4-0.5,0.6-1.3,0.6-2.4v-4.5h1.3v8.6h-1.1L87.7,29h-0.1c-0.3,0.4-0.6,0.7-1.1,1s-1,0.3-1.6,0.3c-1,0-1.8-0.2-2.3-0.7
		c-0.5-0.5-0.8-1.3-0.8-2.4v-5.6H83.1z"/>
	<path id="XMLID_324_" class="st0" d="M93,30.2h-1.3V18H93V30.2z"/>
	<path id="XMLID_321_" class="st0" d="M101,30.2l-0.3-1.2h-0.1c-0.4,0.5-0.9,0.9-1.3,1.1s-1,0.3-1.6,0.3c-0.8,0-1.5-0.2-2-0.7
		s-0.7-1.1-0.7-1.9c0-1.7,1.4-2.6,4.1-2.7l1.5,0v-0.5c0-0.7-0.1-1.2-0.4-1.5s-0.8-0.5-1.4-0.5c-0.7,0-1.5,0.2-2.4,0.7l-0.4-1
		c0.4-0.2,0.9-0.4,1.4-0.5c0.5-0.1,1-0.2,1.5-0.2c1,0,1.8,0.2,2.3,0.7s0.7,1.2,0.7,2.2v5.8H101z M98.1,29.2c0.8,0,1.4-0.2,1.9-0.7
		c0.5-0.4,0.7-1.1,0.7-1.9v-0.8L99.4,26c-1,0-1.8,0.2-2.2,0.5c-0.5,0.3-0.7,0.7-0.7,1.3c0,0.5,0.1,0.8,0.4,1.1
		C97.2,29.1,97.6,29.2,98.1,29.2z"/>
	<path id="XMLID_319_" class="st0" d="M107.4,29.2c0.2,0,0.5,0,0.7-0.1c0.2,0,0.4-0.1,0.5-0.1v1c-0.1,0.1-0.3,0.1-0.6,0.2
		c-0.3,0-0.5,0.1-0.7,0.1c-1.7,0-2.5-0.9-2.5-2.6v-5.1h-1.2V22l1.2-0.5l0.5-1.8h0.8v2h2.5v1H106v5c0,0.5,0.1,0.9,0.4,1.2
		C106.6,29.1,107,29.2,107.4,29.2z"/>
	<path id="XMLID_316_" class="st0" d="M110.2,19.3c0-0.3,0.1-0.5,0.2-0.7c0.1-0.1,0.3-0.2,0.5-0.2c0.2,0,0.4,0.1,0.5,0.2
		s0.2,0.4,0.2,0.6c0,0.3-0.1,0.5-0.2,0.7c-0.2,0.1-0.3,0.2-0.5,0.2c-0.2,0-0.4-0.1-0.5-0.2C110.3,19.8,110.2,19.6,110.2,19.3z
		 M111.6,30.2h-1.3v-8.6h1.3V30.2z"/>
	<path id="XMLID_314_" class="st0" d="M116.2,30.2l-3.3-8.6h1.4l1.8,5.1c0.4,1.2,0.7,2,0.7,2.3h0.1c0.1-0.3,0.2-0.8,0.5-1.7
		s1-2.8,2.1-5.7h1.4l-3.3,8.6H116.2z"/>
	<path id="XMLID_311_" class="st0" d="M126,30.3c-1.3,0-2.3-0.4-3-1.2c-0.7-0.8-1.1-1.8-1.1-3.2c0-1.4,0.3-2.5,1-3.3
		s1.6-1.2,2.7-1.2c1.1,0,1.9,0.4,2.5,1.1c0.6,0.7,0.9,1.6,0.9,2.8v0.8h-5.9c0,1,0.3,1.8,0.8,2.3c0.5,0.5,1.2,0.8,2,0.8
		c0.9,0,1.8-0.2,2.7-0.6v1.2c-0.5,0.2-0.9,0.3-1.3,0.4S126.5,30.3,126,30.3z M125.6,22.5c-0.7,0-1.2,0.2-1.6,0.7
		c-0.4,0.4-0.6,1.1-0.7,1.9h4.5c0-0.8-0.2-1.4-0.5-1.9C126.8,22.7,126.3,22.5,125.6,22.5z"/>
	<path id="XMLID_308_" class="st0" d="M140.8,30.2l-0.3-1.2h-0.1c-0.4,0.5-0.9,0.9-1.3,1.1s-1,0.3-1.6,0.3c-0.8,0-1.5-0.2-2-0.7
		s-0.7-1.1-0.7-1.9c0-1.7,1.4-2.6,4.1-2.7l1.5,0v-0.5c0-0.7-0.1-1.2-0.4-1.5s-0.8-0.5-1.4-0.5c-0.7,0-1.5,0.2-2.4,0.7l-0.4-1
		c0.4-0.2,0.9-0.4,1.4-0.5c0.5-0.1,1-0.2,1.5-0.2c1,0,1.8,0.2,2.3,0.7s0.7,1.2,0.7,2.2v5.8H140.8z M137.8,29.2
		c0.8,0,1.4-0.2,1.9-0.7c0.5-0.4,0.7-1.1,0.7-1.9v-0.8l-1.3,0.1c-1,0-1.8,0.2-2.2,0.5c-0.5,0.3-0.7,0.7-0.7,1.3
		c0,0.5,0.1,0.8,0.4,1.1C136.9,29.1,137.3,29.2,137.8,29.2z"/>
	<path id="XMLID_306_" class="st0" d="M155.3,30.2v-5.6c0-0.7-0.1-1.2-0.4-1.5c-0.3-0.3-0.7-0.5-1.4-0.5c-0.8,0-1.4,0.2-1.8,0.7
		c-0.4,0.5-0.6,1.2-0.6,2.1v4.8h-1.3v-5.6c0-0.7-0.1-1.2-0.4-1.5c-0.3-0.3-0.7-0.5-1.4-0.5c-0.8,0-1.4,0.2-1.8,0.7
		c-0.4,0.5-0.6,1.3-0.6,2.4v4.5h-1.3v-8.6h1.1l0.2,1.2h0.1c0.2-0.4,0.6-0.7,1-1s0.9-0.4,1.5-0.4c1.3,0,2.2,0.5,2.6,1.5h0.1
		c0.3-0.4,0.6-0.8,1.1-1.1c0.5-0.3,1-0.4,1.7-0.4c1,0,1.7,0.2,2.2,0.7c0.5,0.5,0.7,1.3,0.7,2.4v5.6H155.3z"/>
	<path id="XMLID_303_" class="st0" d="M166.7,25.9c0,1.4-0.4,2.5-1.1,3.3c-0.7,0.8-1.7,1.2-2.9,1.2c-0.8,0-1.4-0.2-2-0.5
		s-1.1-0.9-1.4-1.5s-0.5-1.5-0.5-2.4c0-1.4,0.3-2.5,1-3.3c0.7-0.8,1.7-1.2,2.9-1.2c1.2,0,2.1,0.4,2.9,1.2S166.7,24.5,166.7,25.9z
		 M160.1,25.9c0,1.1,0.2,1.9,0.7,2.5c0.4,0.6,1.1,0.9,1.9,0.9s1.5-0.3,1.9-0.9s0.7-1.4,0.7-2.5c0-1.1-0.2-1.9-0.7-2.5
		c-0.4-0.6-1.1-0.8-1.9-0.8c-0.8,0-1.5,0.3-1.9,0.8C160.3,23.9,160.1,24.8,160.1,25.9z"/>
	<path id="XMLID_301_" class="st0" d="M172.8,21.4c0.4,0,0.7,0,1,0.1l-0.2,1.2c-0.4-0.1-0.7-0.1-0.9-0.1c-0.7,0-1.3,0.3-1.8,0.8
		s-0.7,1.3-0.7,2.1v4.6h-1.3v-8.6h1.1l0.1,1.6h0.1c0.3-0.6,0.7-1,1.1-1.3C171.8,21.6,172.3,21.4,172.8,21.4z"/>
	<path id="XMLID_299_" class="st0" d="M178.2,29.2c0.2,0,0.5,0,0.7-0.1c0.2,0,0.4-0.1,0.5-0.1v1c-0.1,0.1-0.3,0.1-0.6,0.2
		c-0.3,0-0.5,0.1-0.7,0.1c-1.7,0-2.5-0.9-2.5-2.6v-5.1h-1.2V22l1.2-0.5l0.5-1.8h0.8v2h2.5v1h-2.5v5c0,0.5,0.1,0.9,0.4,1.2
		C177.5,29.1,177.8,29.2,178.2,29.2z"/>
	<path id="XMLID_296_" class="st0" d="M181,19.3c0-0.3,0.1-0.5,0.2-0.7c0.1-0.1,0.3-0.2,0.5-0.2c0.2,0,0.4,0.1,0.5,0.2
		s0.2,0.4,0.2,0.6c0,0.3-0.1,0.5-0.2,0.7c-0.2,0.1-0.3,0.2-0.5,0.2c-0.2,0-0.4-0.1-0.5-0.2C181.1,19.8,181,19.6,181,19.3z
		 M182.4,30.2h-1.3v-8.6h1.3V30.2z"/>
	<path id="XMLID_294_" class="st0" d="M190.6,30.2h-6.2v-0.9l4.7-6.7h-4.4v-1h5.8v1l-4.6,6.5h4.7V30.2z"/>
	<path id="XMLID_291_" class="st0" d="M197.9,30.2l-0.3-1.2h-0.1c-0.4,0.5-0.9,0.9-1.3,1.1s-1,0.3-1.6,0.3c-0.8,0-1.5-0.2-2-0.7
		s-0.7-1.1-0.7-1.9c0-1.7,1.4-2.6,4.1-2.7l1.5,0v-0.5c0-0.7-0.1-1.2-0.4-1.5s-0.8-0.5-1.4-0.5c-0.7,0-1.5,0.2-2.4,0.7l-0.4-1
		c0.4-0.2,0.9-0.4,1.4-0.5c0.5-0.1,1-0.2,1.5-0.2c1,0,1.8,0.2,2.3,0.7s0.7,1.2,0.7,2.2v5.8H197.9z M195,29.2c0.8,0,1.4-0.2,1.9-0.7
		c0.5-0.4,0.7-1.1,0.7-1.9v-0.8l-1.3,0.1c-1,0-1.8,0.2-2.2,0.5c-0.5,0.3-0.7,0.7-0.7,1.3c0,0.5,0.1,0.8,0.4,1.1
		C194.1,29.1,194.5,29.2,195,29.2z"/>
	<path id="XMLID_289_" class="st0" d="M204.3,29.2c0.2,0,0.5,0,0.7-0.1c0.2,0,0.4-0.1,0.5-0.1v1c-0.1,0.1-0.3,0.1-0.6,0.2
		c-0.3,0-0.5,0.1-0.7,0.1c-1.7,0-2.5-0.9-2.5-2.6v-5.1h-1.2V22l1.2-0.5l0.5-1.8h0.8v2h2.5v1h-2.5v5c0,0.5,0.1,0.9,0.4,1.2
		C203.5,29.1,203.9,29.2,204.3,29.2z"/>
	<path id="XMLID_286_" class="st0" d="M207.1,19.3c0-0.3,0.1-0.5,0.2-0.7c0.1-0.1,0.3-0.2,0.5-0.2c0.2,0,0.4,0.1,0.5,0.2
		s0.2,0.4,0.2,0.6c0,0.3-0.1,0.5-0.2,0.7c-0.2,0.1-0.3,0.2-0.5,0.2c-0.2,0-0.4-0.1-0.5-0.2C207.2,19.8,207.1,19.6,207.1,19.3z
		 M208.5,30.2h-1.3v-8.6h1.3V30.2z"/>
	<path id="XMLID_283_" class="st0" d="M218.6,25.9c0,1.4-0.4,2.5-1.1,3.3c-0.7,0.8-1.7,1.2-2.9,1.2c-0.8,0-1.4-0.2-2-0.5
		s-1.1-0.9-1.4-1.5s-0.5-1.5-0.5-2.4c0-1.4,0.3-2.5,1-3.3c0.7-0.8,1.7-1.2,2.9-1.2c1.2,0,2.1,0.4,2.9,1.2S218.6,24.5,218.6,25.9z
		 M212.1,25.9c0,1.1,0.2,1.9,0.7,2.5c0.4,0.6,1.1,0.9,1.9,0.9s1.5-0.3,1.9-0.9s0.7-1.4,0.7-2.5c0-1.1-0.2-1.9-0.7-2.5
		c-0.4-0.6-1.1-0.8-1.9-0.8c-0.8,0-1.5,0.3-1.9,0.8C212.3,23.9,212.1,24.8,212.1,25.9z"/>
	<path id="XMLID_281_" class="st0" d="M226.8,30.2v-5.5c0-0.7-0.2-1.2-0.5-1.6s-0.8-0.5-1.5-0.5c-0.9,0-1.6,0.2-2,0.7
		s-0.6,1.3-0.6,2.4v4.5h-1.3v-8.6h1.1l0.2,1.2h0.1c0.3-0.4,0.6-0.7,1.1-1c0.5-0.2,1-0.3,1.6-0.3c1,0,1.8,0.2,2.3,0.7
		c0.5,0.5,0.8,1.3,0.8,2.4v5.6H226.8z"/>
	<path id="XMLID_278_" class="st0" d="M242.3,25.9c0,1.4-0.4,2.5-1.1,3.3c-0.7,0.8-1.7,1.2-2.9,1.2c-0.8,0-1.4-0.2-2-0.5
		s-1.1-0.9-1.4-1.5s-0.5-1.5-0.5-2.4c0-1.4,0.3-2.5,1-3.3c0.7-0.8,1.7-1.2,2.9-1.2c1.2,0,2.1,0.4,2.9,1.2S242.3,24.5,242.3,25.9z
		 M235.7,25.9c0,1.1,0.2,1.9,0.7,2.5c0.4,0.6,1.1,0.9,1.9,0.9s1.5-0.3,1.9-0.9s0.7-1.4,0.7-2.5c0-1.1-0.2-1.9-0.7-2.5
		c-0.4-0.6-1.1-0.8-1.9-0.8c-0.8,0-1.5,0.3-1.9,0.8C236,23.9,235.7,24.8,235.7,25.9z"/>
	<path id="XMLID_276_" class="st0" d="M248.4,22.6h-2.2v7.6h-1.3v-7.6h-1.5V22l1.5-0.5v-0.5c0-2.1,0.9-3.2,2.8-3.2
		c0.5,0,1,0.1,1.6,0.3l-0.3,1c-0.5-0.2-0.9-0.2-1.3-0.2c-0.5,0-0.9,0.2-1.1,0.5c-0.2,0.3-0.4,0.8-0.4,1.6v0.6h2.2V22.6z"/>
	<path id="XMLID_274_" class="st0" d="M4,53.2c0.2,0,0.5,0,0.7-0.1c0.2,0,0.4-0.1,0.5-0.1v1c-0.1,0.1-0.3,0.1-0.6,0.2
		c-0.3,0-0.5,0.1-0.7,0.1c-1.7,0-2.5-0.9-2.5-2.6v-5.1H0.1V46l1.2-0.5l0.5-1.8h0.8v2h2.5v1H2.6v5c0,0.5,0.1,0.9,0.4,1.2
		C3.2,53.1,3.6,53.2,4,53.2z"/>
	<path id="XMLID_272_" class="st0" d="M12.7,54.2v-5.5c0-0.7-0.2-1.2-0.5-1.6s-0.8-0.5-1.5-0.5c-0.9,0-1.6,0.2-2,0.7
		c-0.4,0.5-0.6,1.3-0.6,2.4v4.5H6.9V42h1.3v3.7c0,0.4,0,0.8-0.1,1.1h0.1c0.3-0.4,0.6-0.7,1.1-1c0.5-0.2,1-0.4,1.6-0.4
		c1,0,1.8,0.2,2.4,0.7c0.5,0.5,0.8,1.3,0.8,2.4v5.6H12.7z"/>
	<path id="XMLID_269_" class="st0" d="M20.3,54.3c-1.3,0-2.3-0.4-3-1.2c-0.7-0.8-1.1-1.8-1.1-3.2c0-1.4,0.3-2.5,1-3.3
		s1.6-1.2,2.7-1.2c1.1,0,1.9,0.4,2.5,1.1c0.6,0.7,0.9,1.6,0.9,2.8v0.8h-5.9c0,1,0.3,1.8,0.8,2.3c0.5,0.5,1.2,0.8,2,0.8
		c0.9,0,1.8-0.2,2.7-0.6v1.2c-0.5,0.2-0.9,0.3-1.3,0.4S20.9,54.3,20.3,54.3z M20,46.5c-0.7,0-1.2,0.2-1.6,0.7
		c-0.4,0.4-0.6,1.1-0.7,1.9h4.5c0-0.8-0.2-1.4-0.5-1.9C21.2,46.7,20.6,46.5,20,46.5z"/>
	<path id="XMLID_266_" class="st0" d="M35.1,54.2l-0.3-1.2h-0.1c-0.4,0.5-0.9,0.9-1.3,1.1s-1,0.3-1.6,0.3c-0.8,0-1.5-0.2-2-0.7
		s-0.7-1.1-0.7-1.9c0-1.7,1.4-2.6,4.1-2.7l1.5,0v-0.5c0-0.7-0.1-1.2-0.4-1.5s-0.8-0.5-1.4-0.5c-0.7,0-1.5,0.2-2.4,0.7l-0.4-1
		c0.4-0.2,0.9-0.4,1.4-0.5c0.5-0.1,1-0.2,1.5-0.2c1,0,1.8,0.2,2.3,0.7s0.7,1.2,0.7,2.2v5.8H35.1z M32.2,53.2c0.8,0,1.4-0.2,1.9-0.7
		c0.5-0.4,0.7-1.1,0.7-1.9v-0.8L33.5,50c-1,0-1.8,0.2-2.2,0.5c-0.5,0.3-0.7,0.7-0.7,1.3c0,0.5,0.1,0.8,0.4,1.1
		C31.3,53.1,31.7,53.2,32.2,53.2z"/>
	<path id="XMLID_264_" class="st0" d="M44.6,54.2v-5.5c0-0.7-0.2-1.2-0.5-1.6s-0.8-0.5-1.5-0.5c-0.9,0-1.6,0.2-2,0.7
		S40,48.6,40,49.7v4.5h-1.3v-8.6h1.1l0.2,1.2h0.1c0.3-0.4,0.6-0.7,1.1-1c0.5-0.2,1-0.3,1.6-0.3c1,0,1.8,0.2,2.3,0.7
		c0.5,0.5,0.8,1.3,0.8,2.4v5.6H44.6z"/>
	<path id="XMLID_262_" class="st0" d="M54.4,54.2v-5.5c0-0.7-0.2-1.2-0.5-1.6s-0.8-0.5-1.5-0.5c-0.9,0-1.6,0.2-2,0.7
		s-0.6,1.3-0.6,2.4v4.5h-1.3v-8.6h1.1l0.2,1.2h0.1c0.3-0.4,0.6-0.7,1.1-1c0.5-0.2,1-0.3,1.6-0.3c1,0,1.8,0.2,2.3,0.7
		c0.5,0.5,0.8,1.3,0.8,2.4v5.6H54.4z"/>
	<path id="XMLID_260_" class="st0" d="M59.6,45.6v5.6c0,0.7,0.2,1.2,0.5,1.6s0.8,0.5,1.5,0.5c0.9,0,1.6-0.2,2-0.7
		c0.4-0.5,0.6-1.3,0.6-2.4v-4.5h1.3v8.6h-1.1L64.2,53h-0.1c-0.3,0.4-0.6,0.7-1.1,1s-1,0.3-1.6,0.3c-1,0-1.8-0.2-2.3-0.7
		c-0.5-0.5-0.8-1.3-0.8-2.4v-5.6H59.6z"/>
	<path id="XMLID_257_" class="st0" d="M73.5,54.2l-0.3-1.2h-0.1c-0.4,0.5-0.9,0.9-1.3,1.1s-1,0.3-1.6,0.3c-0.8,0-1.5-0.2-2-0.7
		s-0.7-1.1-0.7-1.9c0-1.7,1.4-2.6,4.1-2.7l1.5,0v-0.5c0-0.7-0.1-1.2-0.4-1.5s-0.8-0.5-1.4-0.5c-0.7,0-1.5,0.2-2.4,0.7l-0.4-1
		c0.4-0.2,0.9-0.4,1.4-0.5c0.5-0.1,1-0.2,1.5-0.2c1,0,1.8,0.2,2.3,0.7s0.7,1.2,0.7,2.2v5.8H73.5z M70.5,53.2c0.8,0,1.4-0.2,1.9-0.7
		c0.5-0.4,0.7-1.1,0.7-1.9v-0.8L71.8,50c-1,0-1.8,0.2-2.2,0.5c-0.5,0.3-0.7,0.7-0.7,1.3c0,0.5,0.1,0.8,0.4,1.1
		C69.6,53.1,70,53.2,70.5,53.2z"/>
	<path id="XMLID_255_" class="st0" d="M78.4,54.2h-1.3V42h1.3V54.2z"/>
	<path id="XMLID_252_" class="st0" d="M89.3,54.3c-0.6,0-1.1-0.1-1.5-0.3s-0.8-0.5-1.2-0.9h-0.1c0.1,0.5,0.1,1,0.1,1.4V58h-1.3V45.6
		h1.1l0.2,1.2h0.1c0.3-0.5,0.7-0.8,1.2-1c0.4-0.2,1-0.3,1.5-0.3c1.1,0,2,0.4,2.6,1.2c0.6,0.8,0.9,1.9,0.9,3.3c0,1.4-0.3,2.5-0.9,3.3
		C91.3,53.9,90.4,54.3,89.3,54.3z M89.1,46.5c-0.9,0-1.5,0.2-1.9,0.7s-0.6,1.3-0.6,2.3v0.3c0,1.2,0.2,2.1,0.6,2.6
		c0.4,0.5,1,0.8,1.9,0.8c0.7,0,1.3-0.3,1.7-0.9c0.4-0.6,0.6-1.4,0.6-2.5c0-1.1-0.2-1.9-0.6-2.5S89.9,46.5,89.1,46.5z"/>
	<path id="XMLID_250_" class="st0" d="M99,45.4c0.4,0,0.7,0,1,0.1l-0.2,1.2c-0.4-0.1-0.7-0.1-0.9-0.1c-0.7,0-1.3,0.3-1.8,0.8
		s-0.7,1.3-0.7,2.1v4.6h-1.3v-8.6h1.1l0.1,1.6h0.1c0.3-0.6,0.7-1,1.1-1.3C98,45.6,98.5,45.4,99,45.4z"/>
	<path id="XMLID_247_" class="st0" d="M101.5,43.3c0-0.3,0.1-0.5,0.2-0.7c0.1-0.1,0.3-0.2,0.5-0.2c0.2,0,0.4,0.1,0.5,0.2
		s0.2,0.4,0.2,0.6c0,0.3-0.1,0.5-0.2,0.7c-0.2,0.1-0.3,0.2-0.5,0.2c-0.2,0-0.4-0.1-0.5-0.2C101.6,43.8,101.5,43.6,101.5,43.3z
		 M102.9,54.2h-1.3v-8.6h1.3V54.2z"/>
	<path id="XMLID_245_" class="st0" d="M111.5,54.2v-5.5c0-0.7-0.2-1.2-0.5-1.6s-0.8-0.5-1.5-0.5c-0.9,0-1.6,0.2-2,0.7
		s-0.6,1.3-0.6,2.4v4.5h-1.3v-8.6h1.1l0.2,1.2h0.1c0.3-0.4,0.6-0.7,1.1-1c0.5-0.2,1-0.3,1.6-0.3c1,0,1.8,0.2,2.3,0.7
		c0.5,0.5,0.8,1.3,0.8,2.4v5.6H111.5z"/>
	<path id="XMLID_243_" class="st0" d="M118.9,54.3c-1.2,0-2.2-0.4-2.9-1.1c-0.7-0.8-1-1.8-1-3.2c0-1.4,0.3-2.5,1-3.3
		s1.7-1.2,2.9-1.2c0.4,0,0.8,0,1.2,0.1c0.4,0.1,0.7,0.2,1,0.3l-0.4,1.1c-0.3-0.1-0.6-0.2-0.9-0.3c-0.3-0.1-0.6-0.1-0.9-0.1
		c-1.7,0-2.6,1.1-2.6,3.3c0,1.1,0.2,1.9,0.6,2.4s1.1,0.8,1.9,0.8c0.7,0,1.4-0.2,2.2-0.5v1.1C120.5,54.2,119.8,54.3,118.9,54.3z"/>
	<path id="XMLID_240_" class="st0" d="M123,43.3c0-0.3,0.1-0.5,0.2-0.7c0.1-0.1,0.3-0.2,0.5-0.2c0.2,0,0.4,0.1,0.5,0.2
		s0.2,0.4,0.2,0.6c0,0.3-0.1,0.5-0.2,0.7c-0.2,0.1-0.3,0.2-0.5,0.2c-0.2,0-0.4-0.1-0.5-0.2C123.1,43.8,123,43.6,123,43.3z
		 M124.4,54.2h-1.3v-8.6h1.3V54.2z"/>
	<path id="XMLID_237_" class="st0" d="M131.1,54.3c-0.6,0-1.1-0.1-1.5-0.3s-0.8-0.5-1.2-0.9h-0.1c0.1,0.5,0.1,1,0.1,1.4V58h-1.3
		V45.6h1.1l0.2,1.2h0.1c0.3-0.5,0.7-0.8,1.2-1c0.4-0.2,1-0.3,1.5-0.3c1.1,0,2,0.4,2.6,1.2c0.6,0.8,0.9,1.9,0.9,3.3
		c0,1.4-0.3,2.5-0.9,3.3C133.1,53.9,132.3,54.3,131.1,54.3z M131,46.5c-0.9,0-1.5,0.2-1.9,0.7s-0.6,1.3-0.6,2.3v0.3
		c0,1.2,0.2,2.1,0.6,2.6c0.4,0.5,1,0.8,1.9,0.8c0.7,0,1.3-0.3,1.7-0.9c0.4-0.6,0.6-1.4,0.6-2.5c0-1.1-0.2-1.9-0.6-2.5
		S131.7,46.5,131,46.5z"/>
	<path id="XMLID_234_" class="st0" d="M142.2,54.2l-0.3-1.2h-0.1c-0.4,0.5-0.9,0.9-1.3,1.1s-1,0.3-1.6,0.3c-0.8,0-1.5-0.2-2-0.7
		s-0.7-1.1-0.7-1.9c0-1.7,1.4-2.6,4.1-2.7l1.5,0v-0.5c0-0.7-0.1-1.2-0.4-1.5s-0.8-0.5-1.4-0.5c-0.7,0-1.5,0.2-2.4,0.7l-0.4-1
		c0.4-0.2,0.9-0.4,1.4-0.5c0.5-0.1,1-0.2,1.5-0.2c1,0,1.8,0.2,2.3,0.7s0.7,1.2,0.7,2.2v5.8H142.2z M139.3,53.2
		c0.8,0,1.4-0.2,1.9-0.7c0.5-0.4,0.7-1.1,0.7-1.9v-0.8l-1.3,0.1c-1,0-1.8,0.2-2.2,0.5c-0.5,0.3-0.7,0.7-0.7,1.3
		c0,0.5,0.1,0.8,0.4,1.1C138.4,53.1,138.8,53.2,139.3,53.2z"/>
	<path id="XMLID_232_" class="st0" d="M147.2,54.2h-1.3V42h1.3V54.2z"/>
	<path id="XMLID_230_" class="st0" d="M158,45.4c0.4,0,0.7,0,1,0.1l-0.2,1.2c-0.4-0.1-0.7-0.1-0.9-0.1c-0.7,0-1.3,0.3-1.8,0.8
		s-0.7,1.3-0.7,2.1v4.6h-1.3v-8.6h1.1l0.1,1.6h0.1c0.3-0.6,0.7-1,1.1-1.3C156.9,45.6,157.4,45.4,158,45.4z"/>
	<path id="XMLID_227_" class="st0" d="M164.2,54.3c-1.3,0-2.3-0.4-3-1.2c-0.7-0.8-1.1-1.8-1.1-3.2c0-1.4,0.3-2.5,1-3.3
		s1.6-1.2,2.7-1.2c1.1,0,1.9,0.4,2.5,1.1c0.6,0.7,0.9,1.6,0.9,2.8v0.8h-5.9c0,1,0.3,1.8,0.8,2.3c0.5,0.5,1.2,0.8,2,0.8
		c0.9,0,1.8-0.2,2.7-0.6v1.2c-0.5,0.2-0.9,0.3-1.3,0.4S164.8,54.3,164.2,54.3z M163.9,46.5c-0.7,0-1.2,0.2-1.6,0.7
		c-0.4,0.4-0.6,1.1-0.7,1.9h4.5c0-0.8-0.2-1.4-0.5-1.9C165.1,46.7,164.5,46.5,163.9,46.5z"/>
	<path id="XMLID_224_" class="st0" d="M173.6,54.3c-0.6,0-1.1-0.1-1.5-0.3s-0.8-0.5-1.2-0.9h-0.1c0.1,0.5,0.1,1,0.1,1.4V58h-1.3
		V45.6h1.1l0.2,1.2h0.1c0.3-0.5,0.7-0.8,1.2-1c0.4-0.2,1-0.3,1.5-0.3c1.1,0,2,0.4,2.6,1.2c0.6,0.8,0.9,1.9,0.9,3.3
		c0,1.4-0.3,2.5-0.9,3.3C175.5,53.9,174.7,54.3,173.6,54.3z M173.4,46.5c-0.9,0-1.5,0.2-1.9,0.7s-0.6,1.3-0.6,2.3v0.3
		c0,1.2,0.2,2.1,0.6,2.6c0.4,0.5,1,0.8,1.9,0.8c0.7,0,1.3-0.3,1.7-0.9c0.4-0.6,0.6-1.4,0.6-2.5c0-1.1-0.2-1.9-0.6-2.5
		S174.1,46.5,173.4,46.5z"/>
	<path id="XMLID_221_" class="st0" d="M184.6,54.2l-0.3-1.2h-0.1c-0.4,0.5-0.9,0.9-1.3,1.1s-1,0.3-1.6,0.3c-0.8,0-1.5-0.2-2-0.7
		s-0.7-1.1-0.7-1.9c0-1.7,1.4-2.6,4.1-2.7l1.5,0v-0.5c0-0.7-0.1-1.2-0.4-1.5s-0.8-0.5-1.4-0.5c-0.7,0-1.5,0.2-2.4,0.7l-0.4-1
		c0.4-0.2,0.9-0.4,1.4-0.5c0.5-0.1,1-0.2,1.5-0.2c1,0,1.8,0.2,2.3,0.7s0.7,1.2,0.7,2.2v5.8H184.6z M181.7,53.2
		c0.8,0,1.4-0.2,1.9-0.7c0.5-0.4,0.7-1.1,0.7-1.9v-0.8L183,50c-1,0-1.8,0.2-2.2,0.5c-0.5,0.3-0.7,0.7-0.7,1.3c0,0.5,0.1,0.8,0.4,1.1
		C180.8,53.1,181.2,53.2,181.7,53.2z"/>
	<path id="XMLID_219_" class="st0" d="M186.9,45.6h1.4l1.9,4.9c0.4,1.1,0.7,1.9,0.8,2.4h0.1c0.1-0.3,0.2-0.7,0.4-1.4
		c0.2-0.6,0.9-2.6,2.1-5.9h1.4l-3.7,9.8c-0.4,1-0.8,1.6-1.3,2.1c-0.5,0.4-1.1,0.6-1.8,0.6c-0.4,0-0.8,0-1.2-0.1v-1
		c0.3,0.1,0.6,0.1,1,0.1c0.9,0,1.5-0.5,1.9-1.5l0.5-1.2L186.9,45.6z"/>
	<path id="XMLID_217_" class="st0" d="M207.3,54.2v-5.6c0-0.7-0.1-1.2-0.4-1.5c-0.3-0.3-0.7-0.5-1.4-0.5c-0.8,0-1.4,0.2-1.8,0.7
		c-0.4,0.5-0.6,1.2-0.6,2.1v4.8h-1.3v-5.6c0-0.7-0.1-1.2-0.4-1.5c-0.3-0.3-0.7-0.5-1.4-0.5c-0.8,0-1.4,0.2-1.8,0.7
		c-0.4,0.5-0.6,1.3-0.6,2.4v4.5h-1.3v-8.6h1.1l0.2,1.2h0.1c0.2-0.4,0.6-0.7,1-1s0.9-0.4,1.5-0.4c1.3,0,2.2,0.5,2.6,1.5h0.1
		c0.3-0.4,0.6-0.8,1.1-1.1c0.5-0.3,1-0.4,1.7-0.4c1,0,1.7,0.2,2.2,0.7c0.5,0.5,0.7,1.3,0.7,2.4v5.6H207.3z"/>
	<path id="XMLID_214_" class="st0" d="M214.8,54.3c-1.3,0-2.3-0.4-3-1.2c-0.7-0.8-1.1-1.8-1.1-3.2c0-1.4,0.3-2.5,1-3.3
		s1.6-1.2,2.7-1.2c1.1,0,1.9,0.4,2.5,1.1c0.6,0.7,0.9,1.6,0.9,2.8v0.8h-5.9c0,1,0.3,1.8,0.8,2.3c0.5,0.5,1.2,0.8,2,0.8
		c0.9,0,1.8-0.2,2.7-0.6v1.2c-0.5,0.2-0.9,0.3-1.3,0.4S215.4,54.3,214.8,54.3z M214.5,46.5c-0.7,0-1.2,0.2-1.6,0.7
		c-0.4,0.4-0.6,1.1-0.7,1.9h4.5c0-0.8-0.2-1.4-0.5-1.9C215.7,46.7,215.2,46.5,214.5,46.5z"/>
	<path id="XMLID_212_" class="st0" d="M226.1,54.2v-5.5c0-0.7-0.2-1.2-0.5-1.6s-0.8-0.5-1.5-0.5c-0.9,0-1.6,0.2-2,0.7
		s-0.6,1.3-0.6,2.4v4.5h-1.3v-8.6h1.1l0.2,1.2h0.1c0.3-0.4,0.6-0.7,1.1-1c0.5-0.2,1-0.3,1.6-0.3c1,0,1.8,0.2,2.3,0.7
		c0.5,0.5,0.8,1.3,0.8,2.4v5.6H226.1z"/>
	<path id="XMLID_210_" class="st0" d="M232.8,53.2c0.2,0,0.5,0,0.7-0.1c0.2,0,0.4-0.1,0.5-0.1v1c-0.1,0.1-0.3,0.1-0.6,0.2
		c-0.3,0-0.5,0.1-0.7,0.1c-1.7,0-2.5-0.9-2.5-2.6v-5.1h-1.2V46l1.2-0.5l0.5-1.8h0.8v2h2.5v1h-2.5v5c0,0.5,0.1,0.9,0.4,1.2
		C232,53.1,232.4,53.2,232.8,53.2z"/>
</g>
<g id="XMLID_78_">
	<path id="XMLID_206_" class="st0" d="M8.8,232.7L7.3,229H2.8l-1.4,3.6H0l4.5-11.5h1.1l4.5,11.5H8.8z M6.9,227.8l-1.3-3.5
		c-0.2-0.4-0.3-1-0.5-1.6c-0.1,0.5-0.3,1-0.5,1.6l-1.3,3.5H6.9z"/>
	<path id="XMLID_203_" class="st0" d="M15.5,232.8c-0.6,0-1.1-0.1-1.5-0.3c-0.5-0.2-0.8-0.5-1.2-0.9h-0.1c0.1,0.5,0.1,1,0.1,1.4v3.5
		h-1.3v-12.4h1.1l0.2,1.2h0.1c0.3-0.5,0.7-0.8,1.2-1c0.4-0.2,1-0.3,1.5-0.3c1.1,0,2,0.4,2.6,1.2c0.6,0.8,0.9,1.9,0.9,3.3
		c0,1.4-0.3,2.5-0.9,3.3C17.5,232.4,16.6,232.8,15.5,232.8z M15.3,225c-0.9,0-1.5,0.2-1.9,0.7s-0.6,1.3-0.6,2.3v0.3
		c0,1.2,0.2,2.1,0.6,2.6c0.4,0.5,1,0.8,1.9,0.8c0.7,0,1.3-0.3,1.7-0.9c0.4-0.6,0.6-1.4,0.6-2.5c0-1.1-0.2-1.9-0.6-2.5
		S16.1,225,15.3,225z"/>
	<path id="XMLID_200_" class="st0" d="M25.3,232.8c-0.6,0-1.1-0.1-1.5-0.3c-0.5-0.2-0.8-0.5-1.2-0.9h-0.1c0.1,0.5,0.1,1,0.1,1.4v3.5
		h-1.3v-12.4h1.1l0.2,1.2h0.1c0.3-0.5,0.7-0.8,1.2-1c0.4-0.2,1-0.3,1.5-0.3c1.1,0,2,0.4,2.6,1.2c0.6,0.8,0.9,1.9,0.9,3.3
		c0,1.4-0.3,2.5-0.9,3.3C27.3,232.4,26.4,232.8,25.3,232.8z M25.1,225c-0.9,0-1.5,0.2-1.9,0.7s-0.6,1.3-0.6,2.3v0.3
		c0,1.2,0.2,2.1,0.6,2.6c0.4,0.5,1,0.8,1.9,0.8c0.7,0,1.3-0.3,1.7-0.9c0.4-0.6,0.6-1.4,0.6-2.5c0-1.1-0.2-1.9-0.6-2.5
		S25.9,225,25.1,225z"/>
	<path id="XMLID_198_" class="st0" d="M35,223.9c0.4,0,0.7,0,1,0.1l-0.2,1.2c-0.4-0.1-0.7-0.1-0.9-0.1c-0.7,0-1.3,0.3-1.8,0.8
		s-0.7,1.3-0.7,2.1v4.6h-1.3v-8.6h1.1l0.1,1.6h0.1c0.3-0.6,0.7-1,1.1-1.3C34,224.1,34.5,223.9,35,223.9z"/>
	<path id="XMLID_195_" class="st0" d="M41.3,232.8c-1.3,0-2.3-0.4-3-1.2c-0.7-0.8-1.1-1.8-1.1-3.2c0-1.4,0.3-2.5,1-3.3
		s1.6-1.2,2.7-1.2c1.1,0,1.9,0.4,2.5,1.1c0.6,0.7,0.9,1.6,0.9,2.8v0.8h-5.9c0,1,0.3,1.8,0.8,2.3c0.5,0.5,1.2,0.8,2,0.8
		c0.9,0,1.8-0.2,2.7-0.6v1.2c-0.5,0.2-0.9,0.3-1.3,0.4S41.8,232.8,41.3,232.8z M40.9,225c-0.7,0-1.2,0.2-1.6,0.7
		c-0.4,0.4-0.6,1.1-0.7,1.9H43c0-0.8-0.2-1.4-0.5-1.9C42.1,225.2,41.6,225,40.9,225z"/>
	<path id="XMLID_193_" class="st0" d="M50,232.8c-1.2,0-2.2-0.4-2.9-1.1c-0.7-0.8-1-1.8-1-3.2c0-1.4,0.3-2.5,1-3.3s1.7-1.2,2.9-1.2
		c0.4,0,0.8,0,1.2,0.1c0.4,0.1,0.7,0.2,1,0.3l-0.4,1.1c-0.3-0.1-0.6-0.2-0.9-0.3c-0.3-0.1-0.6-0.1-0.9-0.1c-1.7,0-2.6,1.1-2.6,3.3
		c0,1.1,0.2,1.9,0.6,2.4s1.1,0.8,1.9,0.8c0.7,0,1.4-0.2,2.2-0.5v1.1C51.6,232.7,50.9,232.8,50,232.8z"/>
	<path id="XMLID_190_" class="st0" d="M54.1,221.8c0-0.3,0.1-0.5,0.2-0.7c0.1-0.1,0.3-0.2,0.5-0.2c0.2,0,0.4,0.1,0.5,0.2
		s0.2,0.4,0.2,0.6c0,0.3-0.1,0.5-0.2,0.7c-0.2,0.1-0.3,0.2-0.5,0.2c-0.2,0-0.4-0.1-0.5-0.2C54.2,222.3,54.1,222.1,54.1,221.8z
		 M55.5,232.7h-1.3v-8.6h1.3V232.7z"/>
	<path id="XMLID_187_" class="st0" d="M63.5,232.7l-0.3-1.2h-0.1c-0.4,0.5-0.9,0.9-1.3,1.1c-0.4,0.2-1,0.3-1.6,0.3
		c-0.8,0-1.5-0.2-2-0.7s-0.7-1.1-0.7-1.9c0-1.7,1.4-2.6,4.1-2.7l1.5,0V227c0-0.7-0.1-1.2-0.4-1.5s-0.8-0.5-1.4-0.5
		c-0.7,0-1.5,0.2-2.4,0.7l-0.4-1c0.4-0.2,0.9-0.4,1.4-0.5c0.5-0.1,1-0.2,1.5-0.2c1,0,1.8,0.2,2.3,0.7s0.7,1.2,0.7,2.2v5.8H63.5z
		 M60.6,231.7c0.8,0,1.4-0.2,1.9-0.7c0.5-0.4,0.7-1.1,0.7-1.9v-0.8l-1.3,0.1c-1,0-1.8,0.2-2.2,0.5c-0.5,0.3-0.7,0.7-0.7,1.3
		c0,0.5,0.1,0.8,0.4,1.1C59.7,231.6,60.1,231.7,60.6,231.7z"/>
	<path id="XMLID_185_" class="st0" d="M69.9,231.7c0.2,0,0.5,0,0.7-0.1c0.2,0,0.4-0.1,0.5-0.1v1c-0.1,0.1-0.3,0.1-0.6,0.2
		s-0.5,0.1-0.7,0.1c-1.7,0-2.5-0.9-2.5-2.6v-5.1H66v-0.6l1.2-0.5l0.5-1.8h0.8v2h2.5v1h-2.5v5c0,0.5,0.1,0.9,0.4,1.2
		C69.2,231.6,69.5,231.7,69.9,231.7z"/>
	<path id="XMLID_182_" class="st0" d="M72.7,221.8c0-0.3,0.1-0.5,0.2-0.7c0.1-0.1,0.3-0.2,0.5-0.2c0.2,0,0.4,0.1,0.5,0.2
		s0.2,0.4,0.2,0.6c0,0.3-0.1,0.5-0.2,0.7c-0.2,0.1-0.3,0.2-0.5,0.2c-0.2,0-0.4-0.1-0.5-0.2C72.8,222.3,72.7,222.1,72.7,221.8z
		 M74.1,232.7h-1.3v-8.6h1.3V232.7z"/>
	<path id="XMLID_179_" class="st0" d="M84.3,228.4c0,1.4-0.4,2.5-1.1,3.3c-0.7,0.8-1.7,1.2-2.9,1.2c-0.8,0-1.4-0.2-2-0.5
		s-1.1-0.9-1.4-1.5s-0.5-1.5-0.5-2.4c0-1.4,0.3-2.5,1-3.3c0.7-0.8,1.7-1.2,2.9-1.2c1.2,0,2.1,0.4,2.9,1.2S84.3,227,84.3,228.4z
		 M77.7,228.4c0,1.1,0.2,1.9,0.7,2.5c0.4,0.6,1.1,0.9,1.9,0.9s1.5-0.3,1.9-0.9s0.7-1.4,0.7-2.5c0-1.1-0.2-1.9-0.7-2.5
		c-0.4-0.6-1.1-0.8-1.9-0.8c-0.8,0-1.5,0.3-1.9,0.8C78,226.4,77.7,227.3,77.7,228.4z"/>
	<path id="XMLID_177_" class="st0" d="M92.4,232.7v-5.5c0-0.7-0.2-1.2-0.5-1.6s-0.8-0.5-1.5-0.5c-0.9,0-1.6,0.2-2,0.7
		s-0.6,1.3-0.6,2.4v4.5h-1.3v-8.6h1.1l0.2,1.2h0.1c0.3-0.4,0.6-0.7,1.1-1c0.5-0.2,1-0.3,1.6-0.3c1,0,1.8,0.2,2.3,0.7
		c0.5,0.5,0.8,1.3,0.8,2.4v5.6H92.4z"/>
	<path id="XMLID_174_" class="st0" d="M100.4,221.8c0-0.3,0.1-0.5,0.2-0.7c0.1-0.1,0.3-0.2,0.5-0.2c0.2,0,0.4,0.1,0.5,0.2
		s0.2,0.4,0.2,0.6c0,0.3-0.1,0.5-0.2,0.7c-0.2,0.1-0.3,0.2-0.5,0.2c-0.2,0-0.4-0.1-0.5-0.2C100.5,222.3,100.4,222.1,100.4,221.8z
		 M101.8,232.7h-1.3v-8.6h1.3V232.7z"/>
	<path id="XMLID_172_" class="st0" d="M110.4,232.7v-5.5c0-0.7-0.2-1.2-0.5-1.6s-0.8-0.5-1.5-0.5c-0.9,0-1.6,0.2-2,0.7
		s-0.6,1.3-0.6,2.4v4.5h-1.3v-8.6h1.1l0.2,1.2h0.1c0.3-0.4,0.6-0.7,1.1-1c0.5-0.2,1-0.3,1.6-0.3c1,0,1.8,0.2,2.3,0.7
		c0.5,0.5,0.8,1.3,0.8,2.4v5.6H110.4z"/>
	<path id="XMLID_169_" class="st0" d="M123.8,232.7l-0.3-1.2h-0.1c-0.4,0.5-0.9,0.9-1.3,1.1c-0.4,0.2-1,0.3-1.6,0.3
		c-0.8,0-1.5-0.2-2-0.7s-0.7-1.1-0.7-1.9c0-1.7,1.4-2.6,4.1-2.7l1.5,0V227c0-0.7-0.1-1.2-0.4-1.5s-0.8-0.5-1.4-0.5
		c-0.7,0-1.5,0.2-2.4,0.7l-0.4-1c0.4-0.2,0.9-0.4,1.4-0.5c0.5-0.1,1-0.2,1.5-0.2c1,0,1.8,0.2,2.3,0.7s0.7,1.2,0.7,2.2v5.8H123.8z
		 M120.9,231.7c0.8,0,1.4-0.2,1.9-0.7c0.5-0.4,0.7-1.1,0.7-1.9v-0.8l-1.3,0.1c-1,0-1.8,0.2-2.2,0.5c-0.5,0.3-0.7,0.7-0.7,1.3
		c0,0.5,0.1,0.8,0.4,1.1C120,231.6,120.4,231.7,120.9,231.7z"/>
	<path id="XMLID_167_" class="st0" d="M133,230.3c0,0.8-0.3,1.4-0.9,1.8c-0.6,0.4-1.4,0.6-2.5,0.6c-1.1,0-2-0.2-2.7-0.5v-1.2
		c0.4,0.2,0.9,0.4,1.3,0.5c0.5,0.1,0.9,0.2,1.4,0.2c0.7,0,1.2-0.1,1.6-0.3c0.4-0.2,0.5-0.5,0.5-1c0-0.3-0.1-0.6-0.4-0.9
		c-0.3-0.2-0.9-0.5-1.7-0.8c-0.8-0.3-1.4-0.6-1.7-0.8c-0.3-0.2-0.6-0.5-0.8-0.8s-0.2-0.6-0.2-1c0-0.7,0.3-1.2,0.9-1.7
		c0.6-0.4,1.3-0.6,2.3-0.6c0.9,0,1.8,0.2,2.7,0.6l-0.5,1.1c-0.9-0.4-1.6-0.5-2.3-0.5c-0.6,0-1.1,0.1-1.4,0.3
		c-0.3,0.2-0.5,0.5-0.5,0.8c0,0.2,0.1,0.4,0.2,0.6c0.1,0.2,0.3,0.3,0.6,0.5c0.3,0.1,0.8,0.4,1.5,0.6c1,0.4,1.7,0.7,2.1,1.1
		S133,229.8,133,230.3z"/>
	<path id="XMLID_165_" class="st0" d="M140.6,230.3c0,0.8-0.3,1.4-0.9,1.8c-0.6,0.4-1.4,0.6-2.5,0.6c-1.1,0-2-0.2-2.7-0.5v-1.2
		c0.4,0.2,0.9,0.4,1.3,0.5c0.5,0.1,0.9,0.2,1.4,0.2c0.7,0,1.2-0.1,1.6-0.3c0.4-0.2,0.5-0.5,0.5-1c0-0.3-0.1-0.6-0.4-0.9
		c-0.3-0.2-0.9-0.5-1.7-0.8c-0.8-0.3-1.4-0.6-1.7-0.8c-0.3-0.2-0.6-0.5-0.8-0.8s-0.2-0.6-0.2-1c0-0.7,0.3-1.2,0.9-1.7
		c0.6-0.4,1.3-0.6,2.3-0.6c0.9,0,1.8,0.2,2.7,0.6l-0.5,1.1c-0.9-0.4-1.6-0.5-2.3-0.5c-0.6,0-1.1,0.1-1.4,0.3
		c-0.3,0.2-0.5,0.5-0.5,0.8c0,0.2,0.1,0.4,0.2,0.6c0.1,0.2,0.3,0.3,0.6,0.5c0.3,0.1,0.8,0.4,1.5,0.6c1,0.4,1.7,0.7,2.1,1.1
		S140.6,229.8,140.6,230.3z"/>
	<path id="XMLID_162_" class="st0" d="M146.3,232.8c-1.3,0-2.3-0.4-3-1.2c-0.7-0.8-1.1-1.8-1.1-3.2c0-1.4,0.3-2.5,1-3.3
		s1.6-1.2,2.7-1.2c1.1,0,1.9,0.4,2.5,1.1c0.6,0.7,0.9,1.6,0.9,2.8v0.8h-5.9c0,1,0.3,1.8,0.8,2.3c0.5,0.5,1.2,0.8,2,0.8
		c0.9,0,1.8-0.2,2.7-0.6v1.2c-0.5,0.2-0.9,0.3-1.3,0.4S146.9,232.8,146.3,232.8z M146,225c-0.7,0-1.2,0.2-1.6,0.7
		c-0.4,0.4-0.6,1.1-0.7,1.9h4.5c0-0.8-0.2-1.4-0.5-1.9C147.2,225.2,146.6,225,146,225z"/>
	<path id="XMLID_160_" class="st0" d="M154.4,231.7c0.2,0,0.5,0,0.7-0.1c0.2,0,0.4-0.1,0.5-0.1v1c-0.1,0.1-0.3,0.1-0.6,0.2
		s-0.5,0.1-0.7,0.1c-1.7,0-2.5-0.9-2.5-2.6v-5.1h-1.2v-0.6l1.2-0.5l0.5-1.8h0.8v2h2.5v1h-2.5v5c0,0.5,0.1,0.9,0.4,1.2
		C153.7,231.6,154,231.7,154.4,231.7z"/>
	<path id="XMLID_158_" class="st0" d="M163.4,232.7l-3.3-8.6h1.4l1.8,5.1c0.4,1.2,0.7,2,0.7,2.3h0.1c0.1-0.3,0.2-0.8,0.5-1.7
		s1-2.8,2.1-5.7h1.4l-3.3,8.6H163.4z"/>
	<path id="XMLID_155_" class="st0" d="M174.8,232.7l-0.3-1.2h-0.1c-0.4,0.5-0.9,0.9-1.3,1.1c-0.4,0.2-1,0.3-1.6,0.3
		c-0.8,0-1.5-0.2-2-0.7s-0.7-1.1-0.7-1.9c0-1.7,1.4-2.6,4.1-2.7l1.5,0V227c0-0.7-0.1-1.2-0.4-1.5s-0.8-0.5-1.4-0.5
		c-0.7,0-1.5,0.2-2.4,0.7l-0.4-1c0.4-0.2,0.9-0.4,1.4-0.5c0.5-0.1,1-0.2,1.5-0.2c1,0,1.8,0.2,2.3,0.7s0.7,1.2,0.7,2.2v5.8H174.8z
		 M171.8,231.7c0.8,0,1.4-0.2,1.9-0.7c0.5-0.4,0.7-1.1,0.7-1.9v-0.8l-1.3,0.1c-1,0-1.8,0.2-2.2,0.5c-0.5,0.3-0.7,0.7-0.7,1.3
		c0,0.5,0.1,0.8,0.4,1.1C170.9,231.6,171.3,231.7,171.8,231.7z"/>
	<path id="XMLID_153_" class="st0" d="M179.7,232.7h-1.3v-12.2h1.3V232.7z"/>
	<path id="XMLID_151_" class="st0" d="M183.7,224.1v5.6c0,0.7,0.2,1.2,0.5,1.6s0.8,0.5,1.5,0.5c0.9,0,1.6-0.2,2-0.7
		c0.4-0.5,0.6-1.3,0.6-2.4v-4.5h1.3v8.6h-1.1l-0.2-1.1h-0.1c-0.3,0.4-0.6,0.7-1.1,1s-1,0.3-1.6,0.3c-1,0-1.8-0.2-2.3-0.7
		c-0.5-0.5-0.8-1.3-0.8-2.4v-5.6H183.7z"/>
	<path id="XMLID_148_" class="st0" d="M195.9,232.8c-1.3,0-2.3-0.4-3-1.2c-0.7-0.8-1.1-1.8-1.1-3.2c0-1.4,0.3-2.5,1-3.3
		s1.6-1.2,2.7-1.2c1.1,0,1.9,0.4,2.5,1.1c0.6,0.7,0.9,1.6,0.9,2.8v0.8h-5.9c0,1,0.3,1.8,0.8,2.3c0.5,0.5,1.2,0.8,2,0.8
		c0.9,0,1.8-0.2,2.7-0.6v1.2c-0.5,0.2-0.9,0.3-1.3,0.4S196.5,232.8,195.9,232.8z M195.5,225c-0.7,0-1.2,0.2-1.6,0.7
		c-0.4,0.4-0.6,1.1-0.7,1.9h4.5c0-0.8-0.2-1.4-0.5-1.9C196.7,225.2,196.2,225,195.5,225z"/>
	<path id="XMLID_145_" class="st0" d="M0.9,250v-1.1h7.3v1.1H0.9z M0.9,253.2v-1.1h7.3v1.1H0.9z"/>
	<path id="XMLID_142_" class="st0" d="M19.9,256.7l-0.3-1.2h-0.1c-0.4,0.5-0.9,0.9-1.3,1.1c-0.4,0.2-1,0.3-1.6,0.3
		c-0.8,0-1.5-0.2-2-0.7c-0.5-0.4-0.7-1.1-0.7-1.9c0-1.7,1.4-2.6,4.1-2.7l1.5,0V251c0-0.7-0.1-1.2-0.4-1.5s-0.8-0.5-1.4-0.5
		c-0.7,0-1.5,0.2-2.4,0.7l-0.4-1c0.4-0.2,0.9-0.4,1.4-0.5c0.5-0.1,1-0.2,1.5-0.2c1,0,1.8,0.2,2.3,0.7s0.7,1.2,0.7,2.2v5.8H19.9z
		 M17,255.7c0.8,0,1.4-0.2,1.9-0.7c0.5-0.4,0.7-1.1,0.7-1.9v-0.8l-1.3,0.1c-1,0-1.8,0.2-2.2,0.5c-0.5,0.3-0.7,0.7-0.7,1.3
		c0,0.5,0.1,0.8,0.4,1.1C16.1,255.6,16.5,255.7,17,255.7z"/>
	<path id="XMLID_139_" class="st0" d="M27.6,256.8c-0.6,0-1.1-0.1-1.5-0.3c-0.5-0.2-0.8-0.5-1.2-0.9h-0.1c0.1,0.5,0.1,1,0.1,1.4v3.5
		h-1.3v-12.4h1.1l0.2,1.2h0.1c0.3-0.5,0.7-0.8,1.2-1c0.4-0.2,1-0.3,1.5-0.3c1.1,0,2,0.4,2.6,1.2c0.6,0.8,0.9,1.9,0.9,3.3
		c0,1.4-0.3,2.5-0.9,3.3C29.5,256.4,28.7,256.8,27.6,256.8z M27.4,249c-0.9,0-1.5,0.2-1.9,0.7s-0.6,1.3-0.6,2.3v0.3
		c0,1.2,0.2,2.1,0.6,2.6c0.4,0.5,1,0.8,1.9,0.8c0.7,0,1.3-0.3,1.7-0.9c0.4-0.6,0.6-1.4,0.6-2.5c0-1.1-0.2-1.9-0.6-2.5
		S28.1,249,27.4,249z"/>
	<path id="XMLID_136_" class="st0" d="M37.4,256.8c-0.6,0-1.1-0.1-1.5-0.3c-0.5-0.2-0.8-0.5-1.2-0.9h-0.1c0.1,0.5,0.1,1,0.1,1.4v3.5
		h-1.3v-12.4h1.1l0.2,1.2h0.1c0.3-0.5,0.7-0.8,1.2-1c0.4-0.2,1-0.3,1.5-0.3c1.1,0,2,0.4,2.6,1.2c0.6,0.8,0.9,1.9,0.9,3.3
		c0,1.4-0.3,2.5-0.9,3.3C39.4,256.4,38.5,256.8,37.4,256.8z M37.2,249c-0.9,0-1.5,0.2-1.9,0.7s-0.6,1.3-0.6,2.3v0.3
		c0,1.2,0.2,2.1,0.6,2.6c0.4,0.5,1,0.8,1.9,0.8c0.7,0,1.3-0.3,1.7-0.9c0.4-0.6,0.6-1.4,0.6-2.5c0-1.1-0.2-1.9-0.6-2.5
		S37.9,249,37.2,249z"/>
	<path id="XMLID_134_" class="st0" d="M47.1,247.9c0.4,0,0.7,0,1,0.1l-0.2,1.2c-0.4-0.1-0.7-0.1-0.9-0.1c-0.7,0-1.3,0.3-1.8,0.8
		s-0.7,1.3-0.7,2.1v4.6h-1.3v-8.6h1.1l0.1,1.6h0.1c0.3-0.6,0.7-1,1.1-1.3C46.1,248.1,46.6,247.9,47.1,247.9z"/>
	<path id="XMLID_131_" class="st0" d="M53.3,256.8c-1.3,0-2.3-0.4-3-1.2c-0.7-0.8-1.1-1.8-1.1-3.2c0-1.4,0.3-2.5,1-3.3
		s1.6-1.2,2.7-1.2c1.1,0,1.9,0.4,2.5,1.1c0.6,0.7,0.9,1.6,0.9,2.8v0.8h-5.9c0,1,0.3,1.8,0.8,2.3c0.5,0.5,1.2,0.8,2,0.8
		c0.9,0,1.8-0.2,2.7-0.6v1.2c-0.5,0.2-0.9,0.3-1.3,0.4S53.9,256.8,53.3,256.8z M53,249c-0.7,0-1.2,0.2-1.6,0.7
		c-0.4,0.4-0.6,1.1-0.7,1.9h4.5c0-0.8-0.2-1.4-0.5-1.9C54.2,249.2,53.7,249,53,249z"/>
	<path id="XMLID_129_" class="st0" d="M62.1,256.8c-1.2,0-2.2-0.4-2.9-1.1c-0.7-0.8-1-1.8-1-3.2c0-1.4,0.3-2.5,1-3.3
		s1.7-1.2,2.9-1.2c0.4,0,0.8,0,1.2,0.1c0.4,0.1,0.7,0.2,1,0.3l-0.4,1.1c-0.3-0.1-0.6-0.2-0.9-0.3c-0.3-0.1-0.6-0.1-0.9-0.1
		c-1.7,0-2.6,1.1-2.6,3.3c0,1.1,0.2,1.9,0.6,2.4s1.1,0.8,1.9,0.8c0.7,0,1.4-0.2,2.2-0.5v1.1C63.7,256.7,63,256.8,62.1,256.8z"/>
	<path id="XMLID_126_" class="st0" d="M66.2,245.8c0-0.3,0.1-0.5,0.2-0.7c0.1-0.1,0.3-0.2,0.5-0.2c0.2,0,0.4,0.1,0.5,0.2
		s0.2,0.4,0.2,0.6c0,0.3-0.1,0.5-0.2,0.7c-0.2,0.1-0.3,0.2-0.5,0.2c-0.2,0-0.4-0.1-0.5-0.2C66.3,246.3,66.2,246.1,66.2,245.8z
		 M67.6,256.7h-1.3v-8.6h1.3V256.7z"/>
	<path id="XMLID_123_" class="st0" d="M75.6,256.7l-0.3-1.2h-0.1c-0.4,0.5-0.9,0.9-1.3,1.1c-0.4,0.2-1,0.3-1.6,0.3
		c-0.8,0-1.5-0.2-2-0.7c-0.5-0.4-0.7-1.1-0.7-1.9c0-1.7,1.4-2.6,4.1-2.7l1.5,0V251c0-0.7-0.1-1.2-0.4-1.5s-0.8-0.5-1.4-0.5
		c-0.7,0-1.5,0.2-2.4,0.7l-0.4-1c0.4-0.2,0.9-0.4,1.4-0.5c0.5-0.1,1-0.2,1.5-0.2c1,0,1.8,0.2,2.3,0.7s0.7,1.2,0.7,2.2v5.8H75.6z
		 M72.7,255.7c0.8,0,1.4-0.2,1.9-0.7c0.5-0.4,0.7-1.1,0.7-1.9v-0.8l-1.3,0.1c-1,0-1.8,0.2-2.2,0.5c-0.5,0.3-0.7,0.7-0.7,1.3
		c0,0.5,0.1,0.8,0.4,1.1C71.8,255.6,72.2,255.7,72.7,255.7z"/>
	<path id="XMLID_121_" class="st0" d="M82,255.7c0.2,0,0.5,0,0.7-0.1c0.2,0,0.4-0.1,0.5-0.1v1c-0.1,0.1-0.3,0.1-0.6,0.2
		s-0.5,0.1-0.7,0.1c-1.7,0-2.5-0.9-2.5-2.6v-5.1h-1.2v-0.6l1.2-0.5l0.5-1.8h0.8v2h2.5v1h-2.5v5c0,0.5,0.1,0.9,0.4,1.2
		C81.3,255.6,81.6,255.7,82,255.7z"/>
	<path id="XMLID_118_" class="st0" d="M84.8,245.8c0-0.3,0.1-0.5,0.2-0.7c0.1-0.1,0.3-0.2,0.5-0.2c0.2,0,0.4,0.1,0.5,0.2
		s0.2,0.4,0.2,0.6c0,0.3-0.1,0.5-0.2,0.7c-0.2,0.1-0.3,0.2-0.5,0.2c-0.2,0-0.4-0.1-0.5-0.2C84.9,246.3,84.8,246.1,84.8,245.8z
		 M86.2,256.7h-1.3v-8.6h1.3V256.7z"/>
	<path id="XMLID_115_" class="st0" d="M96.3,252.4c0,1.4-0.4,2.5-1.1,3.3c-0.7,0.8-1.7,1.2-2.9,1.2c-0.8,0-1.4-0.2-2-0.5
		c-0.6-0.4-1.1-0.9-1.4-1.5s-0.5-1.5-0.5-2.4c0-1.4,0.3-2.5,1-3.3c0.7-0.8,1.7-1.2,2.9-1.2c1.2,0,2.1,0.4,2.9,1.2
		S96.3,251,96.3,252.4z M89.8,252.4c0,1.1,0.2,1.9,0.7,2.5c0.4,0.6,1.1,0.9,1.9,0.9s1.5-0.3,1.9-0.9s0.7-1.4,0.7-2.5
		c0-1.1-0.2-1.9-0.7-2.5c-0.4-0.6-1.1-0.8-1.9-0.8c-0.8,0-1.5,0.3-1.9,0.8C90,250.4,89.8,251.3,89.8,252.4z"/>
	<path id="XMLID_113_" class="st0" d="M104.5,256.7v-5.5c0-0.7-0.2-1.2-0.5-1.6s-0.8-0.5-1.5-0.5c-0.9,0-1.6,0.2-2,0.7
		s-0.6,1.3-0.6,2.4v4.5h-1.3v-8.6h1.1l0.2,1.2h0.1c0.3-0.4,0.6-0.7,1.1-1c0.5-0.2,1-0.3,1.6-0.3c1,0,1.8,0.2,2.3,0.7
		c0.5,0.5,0.8,1.3,0.8,2.4v5.6H104.5z"/>
	<path id="XMLID_110_" class="st0" d="M112.5,245.8c0-0.3,0.1-0.5,0.2-0.7c0.1-0.1,0.3-0.2,0.5-0.2c0.2,0,0.4,0.1,0.5,0.2
		s0.2,0.4,0.2,0.6c0,0.3-0.1,0.5-0.2,0.7c-0.2,0.1-0.3,0.2-0.5,0.2c-0.2,0-0.4-0.1-0.5-0.2C112.6,246.3,112.5,246.1,112.5,245.8z
		 M113.9,256.7h-1.3v-8.6h1.3V256.7z"/>
	<path id="XMLID_108_" class="st0" d="M122.5,256.7v-5.5c0-0.7-0.2-1.2-0.5-1.6s-0.8-0.5-1.5-0.5c-0.9,0-1.6,0.2-2,0.7
		s-0.6,1.3-0.6,2.4v4.5h-1.3v-8.6h1.1l0.2,1.2h0.1c0.3-0.4,0.6-0.7,1.1-1c0.5-0.2,1-0.3,1.6-0.3c1,0,1.8,0.2,2.3,0.7
		c0.5,0.5,0.8,1.3,0.8,2.4v5.6H122.5z"/>
	<path id="XMLID_106_" class="st0" d="M136.5,256.7v-5.5c0-0.7-0.2-1.2-0.5-1.6s-0.8-0.5-1.5-0.5c-0.9,0-1.6,0.2-2,0.7
		c-0.4,0.5-0.6,1.3-0.6,2.4v4.5h-1.3v-12.2h1.3v3.7c0,0.4,0,0.8-0.1,1.1h0.1c0.3-0.4,0.6-0.7,1.1-1c0.5-0.2,1-0.4,1.6-0.4
		c1,0,1.8,0.2,2.4,0.7c0.5,0.5,0.8,1.3,0.8,2.4v5.6H136.5z"/>
	<path id="XMLID_103_" class="st0" d="M147.8,252.4c0,1.4-0.4,2.5-1.1,3.3c-0.7,0.8-1.7,1.2-2.9,1.2c-0.8,0-1.4-0.2-2-0.5
		c-0.6-0.4-1.1-0.9-1.4-1.5s-0.5-1.5-0.5-2.4c0-1.4,0.3-2.5,1-3.3c0.7-0.8,1.7-1.2,2.9-1.2c1.2,0,2.1,0.4,2.9,1.2
		S147.8,251,147.8,252.4z M141.3,252.4c0,1.1,0.2,1.9,0.7,2.5c0.4,0.6,1.1,0.9,1.9,0.9s1.5-0.3,1.9-0.9s0.7-1.4,0.7-2.5
		c0-1.1-0.2-1.9-0.7-2.5c-0.4-0.6-1.1-0.8-1.9-0.8c-0.8,0-1.5,0.3-1.9,0.8C141.5,250.4,141.3,251.3,141.3,252.4z"/>
	<path id="XMLID_101_" class="st0" d="M151.3,248.1v5.6c0,0.7,0.2,1.2,0.5,1.6s0.8,0.5,1.5,0.5c0.9,0,1.6-0.2,2-0.7
		c0.4-0.5,0.6-1.3,0.6-2.4v-4.5h1.3v8.6h-1.1l-0.2-1.1h-0.1c-0.3,0.4-0.6,0.7-1.1,1s-1,0.3-1.6,0.3c-1,0-1.8-0.2-2.3-0.7
		c-0.5-0.5-0.8-1.3-0.8-2.4v-5.6H151.3z"/>
	<path id="XMLID_99_" class="st0" d="M165.4,254.3c0,0.8-0.3,1.4-0.9,1.8c-0.6,0.4-1.4,0.6-2.5,0.6c-1.1,0-2-0.2-2.7-0.5v-1.2
		c0.4,0.2,0.9,0.4,1.3,0.5c0.5,0.1,0.9,0.2,1.4,0.2c0.7,0,1.2-0.1,1.6-0.3c0.4-0.2,0.5-0.5,0.5-1c0-0.3-0.1-0.6-0.4-0.9
		c-0.3-0.2-0.9-0.5-1.7-0.8c-0.8-0.3-1.4-0.6-1.7-0.8c-0.3-0.2-0.6-0.5-0.8-0.8s-0.2-0.6-0.2-1c0-0.7,0.3-1.2,0.9-1.7
		c0.6-0.4,1.3-0.6,2.3-0.6c0.9,0,1.8,0.2,2.7,0.6l-0.5,1.1c-0.9-0.4-1.6-0.5-2.3-0.5c-0.6,0-1.1,0.1-1.4,0.3
		c-0.3,0.2-0.5,0.5-0.5,0.8c0,0.2,0.1,0.4,0.2,0.6c0.1,0.2,0.3,0.3,0.6,0.5c0.3,0.1,0.8,0.4,1.5,0.6c1,0.4,1.7,0.7,2.1,1.1
		S165.4,253.8,165.4,254.3z"/>
	<path id="XMLID_96_" class="st0" d="M171.2,256.8c-1.3,0-2.3-0.4-3-1.2c-0.7-0.8-1.1-1.8-1.1-3.2c0-1.4,0.3-2.5,1-3.3
		s1.6-1.2,2.7-1.2c1.1,0,1.9,0.4,2.5,1.1c0.6,0.7,0.9,1.6,0.9,2.8v0.8h-5.9c0,1,0.3,1.8,0.8,2.3c0.5,0.5,1.2,0.8,2,0.8
		c0.9,0,1.8-0.2,2.7-0.6v1.2c-0.5,0.2-0.9,0.3-1.3,0.4S171.8,256.8,171.2,256.8z M170.8,249c-0.7,0-1.2,0.2-1.6,0.7
		c-0.4,0.4-0.6,1.1-0.7,1.9h4.5c0-0.8-0.2-1.4-0.5-1.9C172,249.2,171.5,249,170.8,249z"/>
	<path id="XMLID_94_" class="st0" d="M184.5,249.1h-2.2v7.6h-1.3v-7.6h-1.5v-0.6l1.5-0.5v-0.5c0-2.1,0.9-3.2,2.8-3.2
		c0.5,0,1,0.1,1.6,0.3l-0.3,1c-0.5-0.2-0.9-0.2-1.3-0.2c-0.5,0-0.9,0.2-1.1,0.5c-0.2,0.3-0.4,0.8-0.4,1.6v0.6h2.2V249.1z"/>
	<path id="XMLID_91_" class="st0" d="M193.5,252.4c0,1.4-0.4,2.5-1.1,3.3c-0.7,0.8-1.7,1.2-2.9,1.2c-0.8,0-1.4-0.2-2-0.5
		c-0.6-0.4-1.1-0.9-1.4-1.5s-0.5-1.5-0.5-2.4c0-1.4,0.3-2.5,1-3.3c0.7-0.8,1.7-1.2,2.9-1.2c1.2,0,2.1,0.4,2.9,1.2
		S193.5,251,193.5,252.4z M187,252.4c0,1.1,0.2,1.9,0.7,2.5c0.4,0.6,1.1,0.9,1.9,0.9s1.5-0.3,1.9-0.9s0.7-1.4,0.7-2.5
		c0-1.1-0.2-1.9-0.7-2.5c-0.4-0.6-1.1-0.8-1.9-0.8c-0.8,0-1.5,0.3-1.9,0.8C187.2,250.4,187,251.3,187,252.4z"/>
	<path id="XMLID_89_" class="st0" d="M199.7,247.9c0.4,0,0.7,0,1,0.1l-0.2,1.2c-0.4-0.1-0.7-0.1-0.9-0.1c-0.7,0-1.3,0.3-1.8,0.8
		s-0.7,1.3-0.7,2.1v4.6h-1.3v-8.6h1.1l0.1,1.6h0.1c0.3-0.6,0.7-1,1.1-1.3C198.7,248.1,199.1,247.9,199.7,247.9z"/>
	<path id="XMLID_87_" class="st0" d="M212,254.3c0,0.8-0.3,1.4-0.9,1.8c-0.6,0.4-1.4,0.6-2.5,0.6c-1.1,0-2-0.2-2.7-0.5v-1.2
		c0.4,0.2,0.9,0.4,1.3,0.5c0.5,0.1,0.9,0.2,1.4,0.2c0.7,0,1.2-0.1,1.6-0.3c0.4-0.2,0.5-0.5,0.5-1c0-0.3-0.1-0.6-0.4-0.9
		c-0.3-0.2-0.9-0.5-1.7-0.8c-0.8-0.3-1.4-0.6-1.7-0.8c-0.3-0.2-0.6-0.5-0.8-0.8s-0.2-0.6-0.2-1c0-0.7,0.3-1.2,0.9-1.7
		c0.6-0.4,1.3-0.6,2.3-0.6c0.9,0,1.8,0.2,2.7,0.6l-0.5,1.1c-0.9-0.4-1.6-0.5-2.3-0.5c-0.6,0-1.1,0.1-1.4,0.3
		c-0.3,0.2-0.5,0.5-0.5,0.8c0,0.2,0.1,0.4,0.2,0.6c0.1,0.2,0.3,0.3,0.6,0.5c0.3,0.1,0.8,0.4,1.5,0.6c1,0.4,1.7,0.7,2.1,1.1
		S212,253.8,212,254.3z"/>
	<path id="XMLID_84_" class="st0" d="M219.4,256.7l-0.3-1.2H219c-0.4,0.5-0.9,0.9-1.3,1.1c-0.4,0.2-1,0.3-1.6,0.3
		c-0.8,0-1.5-0.2-2-0.7c-0.5-0.4-0.7-1.1-0.7-1.9c0-1.7,1.4-2.6,4.1-2.7l1.5,0V251c0-0.7-0.1-1.2-0.4-1.5s-0.8-0.5-1.4-0.5
		c-0.7,0-1.5,0.2-2.4,0.7l-0.4-1c0.4-0.2,0.9-0.4,1.4-0.5c0.5-0.1,1-0.2,1.5-0.2c1,0,1.8,0.2,2.3,0.7s0.7,1.2,0.7,2.2v5.8H219.4z
		 M216.4,255.7c0.8,0,1.4-0.2,1.9-0.7c0.5-0.4,0.7-1.1,0.7-1.9v-0.8l-1.3,0.1c-1,0-1.8,0.2-2.2,0.5c-0.5,0.3-0.7,0.7-0.7,1.3
		c0,0.5,0.1,0.8,0.4,1.1C215.5,255.6,215.9,255.7,216.4,255.7z"/>
	<path id="XMLID_82_" class="st0" d="M224.3,256.7H223v-12.2h1.3V256.7z"/>
	<path id="XMLID_79_" class="st0" d="M230.7,256.8c-1.3,0-2.3-0.4-3-1.2c-0.7-0.8-1.1-1.8-1.1-3.2c0-1.4,0.3-2.5,1-3.3
		s1.6-1.2,2.7-1.2c1.1,0,1.9,0.4,2.5,1.1c0.6,0.7,0.9,1.6,0.9,2.8v0.8h-5.9c0,1,0.3,1.8,0.8,2.3c0.5,0.5,1.2,0.8,2,0.8
		c0.9,0,1.8-0.2,2.7-0.6v1.2c-0.5,0.2-0.9,0.3-1.3,0.4S231.2,256.8,230.7,256.8z M230.3,249c-0.7,0-1.2,0.2-1.6,0.7
		c-0.4,0.4-0.6,1.1-0.7,1.9h4.5c0-0.8-0.2-1.4-0.5-1.9C231.5,249.2,231,249,230.3,249z"/>
</g>
<path id="XMLID_77_" class="st1" d="M252.8,148.5c1.9-20.2,8.9-39.6,20.4-56.3c36.9-53.7,110-67.8,164.1-31.8l-66.8,97.3
	L252.8,148.5z"/>
<path id="XMLID_76_" class="st2" d="M440.3,62.4c40.2,28.5,58.8,79,46.4,126.9c-16.3,63.1-80.2,101.3-143.3,86l29.7-115L440.3,62.4z
	"/>
<path id="XMLID_73_" class="st3" d="M339.8,274.4c-54.4-14.9-90.9-66-87.3-122.3l116.5,9.1L339.8,274.4z"/>
<path id="XMLID_71_" class="st4" d="M355,124c9-4.3,19.6-5.2,29.7-1.6c10.1,3.6,17.8,10.9,22.1,19.9c4.3,9,5.2,19.6,1.6,29.7
	c-3.6,10.1-10.9,17.8-19.9,22.1c-9,4.3-19.6,5.2-29.7,1.6c-10.1-3.6-17.8-10.9-22.1-19.9c-4.3-9-5.2-19.6-1.6-29.7
	C338.7,136,346.1,128.3,355,124z"/>
<path id="XMLID_69_" class="st5" d="M353.7,121.3c9.7-4.6,21.1-5.5,32-1.7c10.9,3.8,19.2,11.8,23.8,21.4c4.6,9.7,5.5,21.1,1.7,32
	c-3.8,10.9-11.8,19.2-21.4,23.8c-9.7,4.6-21.1,5.6-32,1.7c-10.9-3.9-19.2-11.8-23.8-21.4c-4.6-9.7-5.6-21.1-1.7-32
	C336.2,134.2,344.1,125.9,353.7,121.3z"/>
<polyline id="XMLID_68_" class="st6" points="297,110.5 245.7,69 0,69 "/>
<polyline id="XMLID_67_" class="st7" points="312.3,210.9 242.5,270.9 0,270.9 "/>
<polyline id="XMLID_66_" class="st8" points="439.7,161.5 499,98.9 760,98.9 "/>
<g id="XMLID_53_">
	<path id="XMLID_64_" class="st9" d="M353,159.1c0-1.5,0.2-2.9,0.6-4.1c0.4-1.2,0.9-2.3,1.6-3.1h2.5c-0.7,0.9-1.2,2-1.5,3.2
		s-0.5,2.6-0.5,4c0,1.4,0.2,2.6,0.5,3.9s0.8,2.3,1.5,3.2h-2.5c-0.7-0.8-1.3-1.8-1.6-3S353,160.6,353,159.1z"/>
	<path id="XMLID_62_" class="st9" d="M359.4,163.7v-11.4h3.1v11.4H359.4z"/>
	<path id="XMLID_59_" class="st9" d="M368.1,159.5v4.2H365v-11.4h3.7c3.1,0,4.7,1.1,4.7,3.4c0,1.3-0.6,2.3-1.9,3.1l3.3,5h-3.5
		l-2.4-4.2H368.1z M368.1,157.2h0.6c1.1,0,1.6-0.5,1.6-1.4c0-0.8-0.5-1.2-1.6-1.2h-0.6V157.2z"/>
	<path id="XMLID_56_" class="st9" d="M378.9,159.5v4.2h-3.1v-11.4h3.7c3.1,0,4.7,1.1,4.7,3.4c0,1.3-0.6,2.3-1.9,3.1l3.3,5h-3.5
		l-2.4-4.2H378.9z M378.9,157.2h0.6c1.1,0,1.6-0.5,1.6-1.4c0-0.8-0.5-1.2-1.6-1.2h-0.6V157.2z"/>
	<path id="XMLID_54_" class="st9" d="M390.6,159.1c0,1.5-0.2,2.8-0.6,4s-0.9,2.2-1.6,3.1h-2.5c0.7-0.9,1.2-2,1.5-3.2
		s0.5-2.5,0.5-3.9c0-1.4-0.2-2.7-0.5-3.9c-0.3-1.2-0.9-2.3-1.5-3.3h2.5c0.7,0.9,1.3,1.9,1.6,3.1
		C390.4,156.3,390.6,157.7,390.6,159.1z"/>
</g>
</svg>
