<?xml version="1.0" encoding="utf-8"?>
<!-- Generator: Adobe Illustrator 19.0.0, SVG Export Plug-In . SVG Version: 6.00 Build 0)  -->
<svg version="1.1" id="图层_1" xmlns="http://www.w3.org/2000/svg" xmlns:xlink="http://www.w3.org/1999/xlink" x="0px" y="0px"
	 viewBox="-287 412.9 20 16" style="enable-background:new -287 412.9 20 16;" xml:space="preserve">
<style type="text/css">
	.st0{fill:#BFBFBF;}
</style>
<polyline class="st0" points="-267,425.1 -267,416.8 -271.3,421.1 -267,425.1 "/>
<path class="st0" d="M-274.4,424.1c-0.7,0.7-1.7,1.1-2.7,1.1s-2-0.4-2.7-1.1l-2.2-2.4l-5,4.6v0.8c0,1,0.8,1.8,1.8,1.8h16.3
	c1,0,1.8-0.8,1.8-1.8v-0.8l-5-4.6L-274.4,424.1"/>
<path class="st0" d="M-268.8,413.3h-16.4c-1,0-1.8,0.8-1.8,1.8v0.4l8,8c0.5,0.5,1.3,0.8,2,0.8c0.8,0,1.5-0.3,2-0.8l8-8v-0.4
	C-267,414.1-267.8,413.3-268.8,413.3 M-287,416.8v8.3l4.3-4L-287,416.8"/>
</svg>
