<?xml version="1.0" encoding="utf-8"?>
<!-- Generator: Adobe Illustrator 19.0.0, SVG Export Plug-In . SVG Version: 6.00 Build 0)  -->
<svg version="1.1" id="Layer_1" xmlns="http://www.w3.org/2000/svg" xmlns:xlink="http://www.w3.org/1999/xlink" x="0px" y="0px"
	 viewBox="56 234.9 434 372" style="enable-background:new 56 234.9 434 372;" xml:space="preserve">
<style type="text/css">
	.st0{opacity:0.5;fill:none;stroke:#101723;stroke-width:3;stroke-miterlimit:10;enable-background:new    ;}
	.st1{fill:#E3E4E4;}
	.st2{fill:#FFD473;}
	.st3{fill:#E0B153;}
	.st4{fill:#EDEDEE;}
	.st5{fill:#6C6F80;}
	.st6{fill:#C3C3C0;}
	.st7{fill:url(#SVGID_1_);}
	.st8{fill:url(#SVGID_2_);}
	.st9{fill:url(#SVGID_3_);}
	.st10{fill:url(#SVGID_4_);}
	.st11{fill:url(#SVGID_5_);}
	.st12{fill:url(#SVGID_6_);}
	.st13{fill:url(#SVGID_7_);}
	.st14{fill:url(#SVGID_8_);}
	.st15{fill:url(#SVGID_9_);}
	.st16{fill:#F9F9F9;}
	.st17{fill:#CCA22E;}
	.st18{fill:#B2B2B2;}
	.st19{fill:#C9C9C9;}
	.st20{fill:#E2E2E2;}
	.st21{fill:#EBEBEC;}
	.st22{fill:#C3C5C7;}
	.st23{fill:#F2F2F2;}
	.st24{fill:#FEFEFD;}
	.st25{fill:#1F6AAD;}
	.st26{opacity:0.2;fill:#C9C9C9;enable-background:new    ;}
	.st27{fill:#F1F8F8;}
	.st28{fill:#5B9FDE;}
	.st29{fill:#F7F7F7;}
	.st30{clip-path:url(#SVGID_11_);}
	.st31{clip-path:url(#SVGID_13_);}
	.st32{enable-background:new    ;}
	.st33{clip-path:url(#SVGID_15_);enable-background:new    ;}
	.st34{fill:#6A5417;}
	.st35{fill:#665117;}
	.st36{fill:#8E701F;}
	.st37{fill:#7A5D1B;}
</style>
<g>
	<polygon id="XMLID_10662_" class="st0" points="66.3,437.6 273.4,580.7 480.6,437.6 273.4,294.4 	"/>
	<line id="XMLID_10661_" class="st0" x1="169.9" y1="509.4" x2="377" y2="365.9"/>
	<line id="XMLID_5229_" class="st0" x1="169.9" y1="366.1" x2="377" y2="509.2"/>
</g>
<path class="st1" d="M207.2,376L207.2,376l-33.3-21.2c-0.8-0.5-1.6-0.7-2.5-0.7s-1.8,0.2-2.5,0.7L135.4,376c-0.7,0.5-1.1,1.2-1.1,2
	c0,0.8,0.5,1.5,1.1,2.1l33.7,21.4c0.7,0.3,1.4,0.5,2.2,0.5c0.8,0,1.5-0.2,2.2-0.5l0,0l33.5-21.2c0.8-0.5,1.4-1.4,1.4-2.2
	C208.5,377.2,208,376.5,207.2,376z"/>
<path class="st2" d="M207.2,361L207.2,361l-33.3-21.2c-0.8-0.5-1.6-0.7-2.5-0.7s-1.8,0.2-2.5,0.7L135.4,361c-0.7,0.5-1.1,1.2-1.1,2
	c0,0.8,0.5,1.5,1.1,2.1l33.7,21.4c0.7,0.3,1.4,0.5,2.2,0.5c0.8,0,1.5-0.2,2.2-0.5l0,0l33.5-21.2c0.8-0.5,1.4-1.4,1.4-2.2
	C208.5,362.3,208,361.5,207.2,361z"/>
<path class="st3" d="M207.1,365.2l-33.5,21.2l0,0c-0.7,0.3-1.4,0.5-2.2,0.5c-0.8,0-1.5-0.2-2.2-0.5l-33.7-21.4
	c-0.8-0.5-1.1-1.3-1.1-2.1c0,0,0,6.3,0,6.8c0,0.8,0.5,1.5,1.1,2.1l33.7,21.4c0.7,0.3,1.4,0.5,2.2,0.5c0.8,0,1.5-0.2,2.2-0.5l0,0
	l33.5-21.2c0.8-0.5,1.4-1.4,1.4-2.2c0-0.5,0-6.8,0-6.8C208.5,363.9,207.9,364.7,207.1,365.2z"/>
<path class="st4" d="M207.2,348.3L207.2,348.3l-33.3-21.2c-0.8-0.5-1.6-0.7-2.5-0.7s-1.8,0.2-2.5,0.7l-33.5,21.2
	c-0.7,0.5-1.1,1.2-1.1,2s0.5,1.5,1.1,2.1l33.7,21.4c0.7,0.3,1.4,0.5,2.2,0.5c0.8,0,1.5-0.2,2.2-0.5l0,0l33.5-21.2
	c0.8-0.5,1.4-1.4,1.4-2.2C208.5,349.5,208,348.9,207.2,348.3z"/>
<path class="st5" d="M207.1,352.5l-33.5,21.2l0,0c-0.7,0.3-1.4,0.5-2.2,0.5c-0.8,0-1.5-0.2-2.2-0.5l-33.7-21.4
	c-0.8-0.5-1.1-1.3-1.1-2.1c0,0,0,6.3,0,6.8c0,0.8,0.5,1.5,1.1,2.1l33.7,21.4c0.7,0.3,1.4,0.5,2.2,0.5c0.8,0,1.5-0.2,2.2-0.5l0,0
	l33.5-21.2c0.8-0.5,1.4-1.4,1.4-2.2c0-0.5,0-6.8,0-6.8C208.5,351.2,207.9,352,207.1,352.5z"/>
<path class="st5" d="M207.1,352.5l-33.5,21.2l0,0c-0.7,0.3-1.4,0.5-2.2,0.5c-0.8,0-1.5-0.2-2.2-0.5l-33.7-21.4
	c-0.8-0.5-1.1-1.3-1.1-2.1c0,0,0,6.3,0,6.8c0,0.8,0.5,1.5,1.1,2.1l33.7,21.4c0.7,0.3,1.4,0.5,2.2,0.5c0.8,0,1.5-0.2,2.2-0.5l0,0
	l33.5-21.2c0.8-0.5,1.4-1.4,1.4-2.2c0-0.5,0-6.8,0-6.8C208.5,351.2,207.9,352,207.1,352.5z"/>
<path class="st6" d="M207.1,352.5l-33.5,21.2l0,0c-0.7,0.3-1.4,0.5-2.2,0.5c-0.8,0-1.5-0.2-2.2-0.5l-33.7-21.4
	c-0.8-0.5-1.1-1.3-1.1-2.1c0,0,0,6.3,0,6.8c0,0.8,0.5,1.5,1.1,2.1l33.7,21.4c0.7,0.3,1.4,0.5,2.2,0.5c0.8,0,1.5-0.2,2.2-0.5l0,0
	l33.5-21.2c0.8-0.5,1.4-1.4,1.4-2.2c0-0.5,0-6.8,0-6.8C208.5,351.2,207.9,352,207.1,352.5z"/>
<path class="st2" d="M198.3,348.8L198.3,348.8l-24.7-15.7c-0.5-0.3-1.2-0.5-1.9-0.5c-0.7,0-1.3,0.2-1.9,0.5L145,348.9
	c-0.5,0.4-0.8,0.9-0.8,1.4c0,0.6,0.3,1.1,0.8,1.5l25,15.8c0.5,0.2,1.1,0.4,1.6,0.4c0.6,0,1.1-0.2,1.6-0.4l0,0l24.8-15.8
	c0.6-0.5,1.1-1,1.1-1.6C199.2,349.7,198.8,349.2,198.3,348.8z"/>
<path class="st1" d="M411.4,376L411.4,376l-33.3-21.2c-0.8-0.5-1.6-0.7-2.5-0.7c-0.9,0-1.8,0.2-2.5,0.7L339.6,376
	c-0.7,0.5-1.1,1.2-1.1,2c0,0.8,0.5,1.5,1.1,2.1l33.7,21.4c0.7,0.3,1.4,0.5,2.2,0.5c0.8,0,1.5-0.2,2.2-0.5l0,0l33.5-21.2
	c0.8-0.5,1.4-1.4,1.4-2.2C412.6,377.2,412.2,376.5,411.4,376z"/>
<path class="st2" d="M411.4,361L411.4,361l-33.3-21.2c-0.8-0.5-1.6-0.7-2.5-0.7c-0.9,0-1.8,0.2-2.5,0.7L339.6,361
	c-0.7,0.5-1.1,1.2-1.1,2c0,0.8,0.5,1.5,1.1,2.1l33.7,21.4c0.7,0.3,1.4,0.5,2.2,0.5c0.8,0,1.5-0.2,2.2-0.5l0,0l33.5-21.2
	c0.8-0.5,1.4-1.4,1.4-2.2C412.6,362.3,412.2,361.5,411.4,361z"/>
<path class="st3" d="M411.2,365.2l-33.5,21.2l0,0c-0.7,0.3-1.4,0.5-2.2,0.5c-0.8,0-1.5-0.2-2.2-0.5l-33.7-21.4
	c-0.8-0.5-1.1-1.3-1.1-2.1c0,0,0,6.3,0,6.8c0,0.8,0.5,1.5,1.1,2.1l33.7,21.4c0.7,0.3,1.4,0.5,2.2,0.5c0.8,0,1.5-0.2,2.2-0.5l0,0
	l33.5-21.2c0.8-0.5,1.4-1.4,1.4-2.2c0-0.5,0-6.8,0-6.8C412.6,363.9,412.1,364.7,411.2,365.2z"/>
<path class="st4" d="M411.4,348.3L411.4,348.3l-33.3-21.2c-0.8-0.5-1.6-0.7-2.5-0.7c-0.9,0-1.8,0.2-2.5,0.7l-33.5,21.2
	c-0.7,0.5-1.1,1.2-1.1,2s0.5,1.5,1.1,2.1l33.7,21.5c0.7,0.3,1.4,0.5,2.2,0.5c0.8,0,1.5-0.2,2.2-0.5l0,0l33.5-21.2
	c0.8-0.5,1.4-1.4,1.4-2.2C412.6,349.5,412.2,348.9,411.4,348.3z"/>
<path class="st5" d="M411.2,352.6l-33.5,21.2l0,0c-0.7,0.3-1.4,0.5-2.2,0.5c-0.8,0-1.5-0.2-2.2-0.5l-33.7-21.4
	c-0.8-0.5-1.1-1.3-1.1-2.1c0,0,0,6.3,0,6.8c0,0.8,0.5,1.5,1.1,2.1l33.7,21.4c0.7,0.3,1.4,0.5,2.2,0.5c0.8,0,1.5-0.2,2.2-0.5l0,0
	l33.5-21.2c0.8-0.5,1.4-1.4,1.4-2.2c0-0.5,0-6.8,0-6.8C412.6,351.2,412.1,352,411.2,352.6z"/>
<path class="st5" d="M411.2,352.6l-33.5,21.2l0,0c-0.7,0.3-1.4,0.5-2.2,0.5c-0.8,0-1.5-0.2-2.2-0.5l-33.7-21.4
	c-0.8-0.5-1.1-1.3-1.1-2.1c0,0,0,6.3,0,6.8c0,0.8,0.5,1.5,1.1,2.1l33.7,21.4c0.7,0.3,1.4,0.5,2.2,0.5c0.8,0,1.5-0.2,2.2-0.5l0,0
	l33.5-21.2c0.8-0.5,1.4-1.4,1.4-2.2c0-0.5,0-6.8,0-6.8C412.6,351.2,412.1,352,411.2,352.6z"/>
<path class="st6" d="M411.2,352.6l-33.5,21.2l0,0c-0.7,0.3-1.4,0.5-2.2,0.5c-0.8,0-1.5-0.2-2.2-0.5l-33.7-21.4
	c-0.8-0.5-1.1-1.3-1.1-2.1c0,0,0,6.3,0,6.8c0,0.8,0.5,1.5,1.1,2.1l33.7,21.4c0.7,0.3,1.4,0.5,2.2,0.5c0.8,0,1.5-0.2,2.2-0.5l0,0
	l33.5-21.2c0.8-0.5,1.4-1.4,1.4-2.2c0-0.5,0-6.8,0-6.8C412.6,351.2,412.1,352,411.2,352.6z"/>
<path class="st2" d="M402.4,348.8L402.4,348.8l-24.7-15.7c-0.5-0.3-1.2-0.5-1.9-0.5s-1.3,0.2-1.9,0.5l-24.8,15.8
	c-0.5,0.4-0.8,0.9-0.8,1.4c0,0.6,0.3,1.1,0.8,1.5l25,15.8c0.5,0.2,1.1,0.4,1.6,0.4c0.6,0,1.1-0.2,1.6-0.4l0,0l24.8-15.8
	c0.6-0.5,1.1-1,1.1-1.6C403.3,349.7,403,349.2,402.4,348.8z"/>
<path class="st1" d="M309.4,302.9L309.4,302.9L276,281.7c-0.8-0.5-1.6-0.7-2.5-0.7s-1.8,0.2-2.5,0.7L237.5,303
	c-0.7,0.5-1.1,1.2-1.1,2s0.5,1.5,1.1,2.1l33.7,21.4c0.7,0.3,1.4,0.5,2.2,0.5c0.8,0,1.5-0.2,2.2-0.5l0,0l33.5-21.2
	c0.8-0.5,1.4-1.4,1.4-2.2C310.5,304.1,310,303.4,309.4,302.9z"/>
<path class="st2" d="M309.4,287.9L309.4,287.9L276,266.7c-0.8-0.5-1.6-0.7-2.5-0.7s-1.8,0.2-2.5,0.7L237.5,288
	c-0.7,0.5-1.1,1.2-1.1,2s0.5,1.5,1.1,2.1l33.7,21.4c0.7,0.3,1.4,0.5,2.2,0.5c0.8,0,1.5-0.2,2.2-0.5l0,0l33.5-21.2
	c0.8-0.5,1.4-1.4,1.4-2.2C310.5,289.1,310,288.4,309.4,287.9z"/>
<path class="st3" d="M309.1,292.2l-33.5,21.2l0,0c-0.7,0.3-1.4,0.5-2.2,0.5c-0.8,0-1.5-0.2-2.2-0.5L237.5,292
	c-0.8-0.5-1.1-1.3-1.1-2.1c0,0,0,6.3,0,6.8c0,0.8,0.5,1.5,1.1,2.1l33.7,21.4c0.7,0.3,1.4,0.5,2.2,0.5c0.8,0,1.5-0.2,2.2-0.5l0,0
	l33.5-21.2c0.8-0.5,1.4-1.4,1.4-2.2c0-0.5,0-6.8,0-6.8C310.5,290.8,310,291.6,309.1,292.2z"/>
<path class="st4" d="M309.4,275.2L309.4,275.2L276,254c-0.8-0.5-1.6-0.7-2.5-0.7s-1.8,0.2-2.5,0.7l-33.5,21.2
	c-0.7,0.5-1.1,1.2-1.1,2s0.5,1.5,1.1,2.1l33.7,21.4c0.7,0.3,1.4,0.5,2.2,0.5c0.8,0,1.5-0.2,2.2-0.5l0,0l33.5-21.2
	c0.8-0.5,1.4-1.4,1.4-2.2C310.5,276.5,310,275.7,309.4,275.2z"/>
<path class="st2" d="M300,275.7L300,275.7l-24.7-15.7c-0.5-0.3-1.2-0.5-1.9-0.5c-0.7,0-1.3,0.2-1.9,0.5l-24.8,15.8
	c-0.5,0.4-0.8,0.9-0.8,1.4c0,0.6,0.3,1.1,0.8,1.5l25,15.8c0.5,0.2,1.1,0.4,1.6,0.4c0.6,0,1.1-0.2,1.6-0.4l0,0l24.8-15.8
	c0.6-0.5,1.1-1,1.1-1.6C300.9,276.7,300.6,276.1,300,275.7z"/>
<path class="st5" d="M309.1,279.5l-33.5,21.2l0,0c-0.7,0.3-1.4,0.5-2.2,0.5c-0.8,0-1.5-0.2-2.2-0.5l-33.7-21.4
	c-0.8-0.5-1.1-1.3-1.1-2.1c0,0,0,6.3,0,6.8c0,0.8,0.5,1.5,1.1,2.1l33.7,21.4c0.7,0.3,1.4,0.5,2.2,0.5c0.8,0,1.5-0.2,2.2-0.5l0,0
	l33.5-21.2c0.8-0.5,1.4-1.4,1.4-2.2c0-0.5,0-6.8,0-6.8C310.5,278.1,310,278.9,309.1,279.5z"/>
<path class="st5" d="M309.1,279.5l-33.5,21.2l0,0c-0.7,0.3-1.4,0.5-2.2,0.5c-0.8,0-1.5-0.2-2.2-0.5l-33.7-21.4
	c-0.8-0.5-1.1-1.3-1.1-2.1c0,0,0,6.3,0,6.8c0,0.8,0.5,1.5,1.1,2.1l33.7,21.4c0.7,0.3,1.4,0.5,2.2,0.5c0.8,0,1.5-0.2,2.2-0.5l0,0
	l33.5-21.2c0.8-0.5,1.4-1.4,1.4-2.2c0-0.5,0-6.8,0-6.8C310.5,278.1,310,278.9,309.1,279.5z"/>
<path class="st6" d="M309.1,279.5l-33.5,21.2l0,0c-0.7,0.3-1.4,0.5-2.2,0.5c-0.8,0-1.5-0.2-2.2-0.5l-33.7-21.4
	c-0.8-0.5-1.1-1.3-1.1-2.1c0,0,0,6.3,0,6.8c0,0.8,0.5,1.5,1.1,2.1l33.7,21.4c0.7,0.3,1.4,0.5,2.2,0.5c0.8,0,1.5-0.2,2.2-0.5l0,0
	l33.5-21.2c0.8-0.5,1.4-1.4,1.4-2.2c0-0.5,0-6.8,0-6.8C310.5,278.1,310,278.9,309.1,279.5z"/>
<path class="st1" d="M309.4,577.5L309.4,577.5L276,556.4c-0.8-0.5-1.6-0.7-2.5-0.7s-1.8,0.2-2.5,0.7l-33.5,21.2
	c-0.7,0.5-1.1,1.2-1.1,2c0,0.8,0.5,1.5,1.1,2.1l33.7,21.4c0.7,0.3,1.4,0.5,2.2,0.5c0.8,0,1.5-0.2,2.2-0.5l0,0l33.5-21.2
	c0.8-0.5,1.4-1.4,1.4-2.2C310.5,578.8,310,578.2,309.4,577.5z"/>
<path class="st2" d="M309.4,562.6L309.4,562.6L276,541.4c-0.8-0.5-1.6-0.7-2.5-0.7s-1.8,0.2-2.5,0.7l-33.5,21.2
	c-0.7,0.5-1.1,1.2-1.1,2c0,0.8,0.5,1.5,1.1,2.1l33.7,21.4c0.7,0.3,1.4,0.5,2.2,0.5c0.8,0,1.5-0.2,2.2-0.5l0,0l33.5-21.2
	c0.8-0.5,1.4-1.4,1.4-2.2C310.5,563.8,310,563.2,309.4,562.6z"/>
<path class="st3" d="M309.1,566.8L275.6,588l0,0c-0.7,0.3-1.4,0.5-2.2,0.5c-0.8,0-1.5-0.2-2.2-0.5l-33.7-21.4
	c-0.8-0.5-1.1-1.3-1.1-2.1c0,0,0,6.3,0,6.8c0,0.8,0.5,1.5,1.1,2.1l33.7,21.4c0.7,0.3,1.4,0.5,2.2,0.5c0.8,0,1.5-0.2,2.2-0.5l0,0
	l33.5-21.2c0.8-0.5,1.4-1.4,1.4-2.2c0-0.5,0-6.8,0-6.8C310.5,565.5,310,566.3,309.1,566.8z"/>
<path class="st4" d="M309.4,549.9L309.4,549.9L276,528.8c-0.8-0.5-1.6-0.7-2.5-0.7s-1.8,0.2-2.5,0.7L237.5,550
	c-0.7,0.5-1.1,1.2-1.1,2s0.5,1.5,1.1,2.1l33.7,21.4c0.7,0.3,1.4,0.5,2.2,0.5c0.8,0,1.5-0.2,2.2-0.5l0,0l33.5-21.2
	c0.8-0.5,1.4-1.4,1.4-2.2C310.5,551.1,310,550.5,309.4,549.9z"/>
<path class="st2" d="M300,550.5L300,550.5l-24.7-15.7c-0.5-0.3-1.2-0.5-1.9-0.5c-0.7,0-1.3,0.2-1.9,0.5l-24.8,15.8
	c-0.5,0.4-0.8,0.9-0.8,1.4c0,0.6,0.3,1.1,0.8,1.5l25,15.8c0.5,0.2,1.1,0.4,1.6,0.4c0.6,0,1.1-0.2,1.6-0.4l0,0l24.8-15.8
	c0.6-0.5,1.1-1,1.1-1.6C300.9,551.4,300.6,550.8,300,550.5z"/>
<path class="st5" d="M309.1,554.2l-33.5,21.2l0,0c-0.7,0.3-1.4,0.5-2.2,0.5c-0.8,0-1.5-0.2-2.2-0.5L237.5,554
	c-0.8-0.5-1.1-1.3-1.1-2.1c0,0,0,6.3,0,6.8c0,0.8,0.5,1.5,1.1,2.1l33.7,21.4c0.7,0.3,1.4,0.5,2.2,0.5c0.8,0,1.5-0.2,2.2-0.5l0,0
	l33.5-21.2c0.8-0.5,1.4-1.4,1.4-2.2c0-0.5,0-6.8,0-6.8C310.5,552.8,310,553.6,309.1,554.2z"/>
<path class="st5" d="M309.1,554.2l-33.5,21.2l0,0c-0.7,0.3-1.4,0.5-2.2,0.5c-0.8,0-1.5-0.2-2.2-0.5L237.5,554
	c-0.8-0.5-1.1-1.3-1.1-2.1c0,0,0,6.3,0,6.8c0,0.8,0.5,1.5,1.1,2.1l33.7,21.4c0.7,0.3,1.4,0.5,2.2,0.5c0.8,0,1.5-0.2,2.2-0.5l0,0
	l33.5-21.2c0.8-0.5,1.4-1.4,1.4-2.2c0-0.5,0-6.8,0-6.8C310.5,552.8,310,553.6,309.1,554.2z"/>
<path class="st6" d="M309.1,554.2l-33.5,21.2l0,0c-0.7,0.3-1.4,0.5-2.2,0.5c-0.8,0-1.5-0.2-2.2-0.5L237.5,554
	c-0.8-0.5-1.1-1.3-1.1-2.1c0,0,0,6.3,0,6.8c0,0.8,0.5,1.5,1.1,2.1l33.7,21.4c0.7,0.3,1.4,0.5,2.2,0.5c0.8,0,1.5-0.2,2.2-0.5l0,0
	l33.5-21.2c0.8-0.5,1.4-1.4,1.4-2.2c0-0.5,0-6.8,0-6.8C310.5,552.8,310,553.6,309.1,554.2z"/>
<path class="st1" d="M488.7,442.2L488.7,442.2l-29.6-18.8c-0.7-0.4-1.4-0.6-2.3-0.6s-1.6,0.2-2.2,0.6l-29.8,18.9
	c-0.6,0.5-0.9,1.1-0.9,1.8c0,0.7,0.4,1.3,1.1,1.8l30,19c0.6,0.3,1.2,0.5,2,0.5s1.4-0.2,2-0.5l0,0l29.8-18.9c0.8-0.5,1.2-1.2,1.2-2
	C489.8,443.4,489.4,442.8,488.7,442.2z"/>
<path class="st2" d="M488.7,428.9L488.7,428.9l-29.6-18.8c-0.7-0.4-1.4-0.6-2.3-0.6s-1.6,0.2-2.2,0.6L424.9,429
	c-0.6,0.5-0.9,1.1-0.9,1.8c0,0.7,0.4,1.3,1.1,1.8l30,19c0.6,0.3,1.2,0.5,2,0.5s1.4-0.2,2-0.5l0,0l29.8-18.9c0.8-0.5,1.2-1.2,1.2-2
	C489.8,430.1,489.4,429.5,488.7,428.9z"/>
<path class="st3" d="M488.6,432.7l-29.8,18.9l0,0c-0.6,0.3-1.2,0.5-2,0.5s-1.4-0.2-2-0.5l-30-19c-0.6-0.5-1.1-1.1-1.1-1.8
	c0,0,0,5.6,0,6c0,0.7,0.4,1.3,1.1,1.8l30,19c0.6,0.3,1.2,0.5,2,0.5s1.4-0.2,2-0.5l0,0l29.8-18.9c0.8-0.5,1.2-1.2,1.2-2
	c0-0.5,0-6,0-6C489.8,431.5,489.3,432.3,488.6,432.7z"/>
<path class="st4" d="M488.7,417.7L488.7,417.7l-29.6-18.8c-0.7-0.4-1.4-0.6-2.3-0.6s-1.6,0.2-2.2,0.6l-29.8,18.9
	c-0.6,0.5-0.9,1.1-0.9,1.8s0.4,1.3,1.1,1.8l30,19c0.6,0.3,1.2,0.5,2,0.5s1.4-0.2,2-0.5l0,0l29.8-18.9c0.8-0.5,1.2-1.2,1.2-2
	C489.8,418.8,489.4,418.2,488.7,417.7z"/>
<path class="st2" d="M480.4,418.2L480.4,418.2l-21.9-13.9c-0.5-0.3-1.1-0.5-1.7-0.5c-0.6,0-1.1,0.2-1.7,0.5l-22.1,14
	c-0.5,0.4-0.7,0.8-0.7,1.3c0,0.5,0.3,1,0.8,1.4l22.2,14.1c0.5,0.2,0.9,0.4,1.4,0.4s1-0.2,1.4-0.4l0,0l22-14c0.5-0.4,0.9-0.9,0.9-1.4
	C481.3,419,481,418.5,480.4,418.2z"/>
<path class="st5" d="M488.6,421.5l-29.8,18.9l0,0c-0.6,0.3-1.2,0.5-2,0.5s-1.4-0.2-2-0.5l-30-19c-0.6-0.5-1.1-1.1-1.1-1.8
	c0,0,0,5.6,0,6c0,0.7,0.4,1.3,1.1,1.8l30,19c0.6,0.3,1.2,0.5,2,0.5s1.4-0.2,2-0.5l0,0l29.8-18.9c0.8-0.5,1.2-1.2,1.2-2
	c0-0.5,0-6,0-6C489.8,420.2,489.3,421,488.6,421.5z"/>
<path class="st5" d="M488.6,421.5l-29.8,18.9l0,0c-0.6,0.3-1.2,0.5-2,0.5s-1.4-0.2-2-0.5l-30-19c-0.6-0.5-1.1-1.1-1.1-1.8
	c0,0,0,5.6,0,6c0,0.7,0.4,1.3,1.1,1.8l30,19c0.6,0.3,1.2,0.5,2,0.5s1.4-0.2,2-0.5l0,0l29.8-18.9c0.8-0.5,1.2-1.2,1.2-2
	c0-0.5,0-6,0-6C489.8,420.2,489.3,421,488.6,421.5z"/>
<path class="st6" d="M488.6,421.5l-29.8,18.9l0,0c-0.6,0.3-1.2,0.5-2,0.5s-1.4-0.2-2-0.5l-30-19c-0.6-0.5-1.1-1.1-1.1-1.8
	c0,0,0,5.6,0,6c0,0.7,0.4,1.3,1.1,1.8l30,19c0.6,0.3,1.2,0.5,2,0.5s1.4-0.2,2-0.5l0,0l29.8-18.9c0.8-0.5,1.2-1.2,1.2-2
	c0-0.5,0-6,0-6C489.8,420.2,489.3,421,488.6,421.5z"/>
<path class="st1" d="M121.9,441.9L121.9,441.9l-30.1-19.1c-0.7-0.4-1.4-0.6-2.3-0.6c-0.8,0-1.6,0.2-2.3,0.6L57,442
	c-0.6,0.5-1,1.1-1,1.8s0.4,1.4,1.1,1.8l30.4,19.3c0.6,0.3,1.3,0.5,2,0.5s1.4-0.2,2-0.5l0,0l30.2-19.2c0.8-0.5,1.3-1.2,1.3-2
	C123,443,122.6,442.4,121.9,441.9z"/>
<path class="st2" d="M121.9,428.3L121.9,428.3l-30.1-19.1c-0.7-0.4-1.4-0.6-2.3-0.6c-0.8,0-1.6,0.2-2.3,0.6L57,428.5
	c-0.6,0.5-1,1.1-1,1.8s0.4,1.4,1.1,1.8l30.4,19.3c0.6,0.3,1.3,0.5,2,0.5s1.4-0.2,2-0.5l0,0l30.2-19.2c0.8-0.5,1.3-1.2,1.3-2
	C123,429.5,122.6,428.8,121.9,428.3z"/>
<path class="st3" d="M121.7,432.2l-30.2,19.2l0,0c-0.6,0.3-1.3,0.5-2,0.5s-1.4-0.2-2-0.5L57.1,432c-0.7-0.5-1.1-1.1-1.1-1.8
	c0,0,0,5.7,0,6.1c0,0.7,0.4,1.4,1.1,1.8l30.4,19.3c0.6,0.3,1.3,0.5,2,0.5s1.4-0.2,2-0.5l0,0l30.2-19.2c0.8-0.5,1.3-1.2,1.3-2
	c0-0.5,0-6.1,0-6.1C123,431,122.5,431.7,121.7,432.2z"/>
<path class="st4" d="M121.9,416.9L121.9,416.9l-30.1-19.1c-0.7-0.4-1.4-0.6-2.3-0.6c-0.8,0-1.6,0.2-2.3,0.6L57,417
	c-0.6,0.5-1,1.1-1,1.8c0,0.7,0.4,1.4,1.1,1.8l30.4,19.3c0.6,0.3,1.3,0.5,2,0.5s1.4-0.2,2-0.5l0,0l30.2-19.2c0.8-0.5,1.3-1.2,1.3-2
	C123,418,122.6,417.4,121.9,416.9z"/>
<path class="st2" d="M113.5,417.4L113.5,417.4l-22.3-14.2c-0.5-0.3-1.1-0.5-1.7-0.5c-0.6,0-1.2,0.2-1.7,0.5l-22.4,14.2
	c-0.5,0.4-0.7,0.8-0.7,1.3c0,0.5,0.3,1,0.8,1.4l22.5,14.3c0.5,0.2,0.9,0.4,1.4,0.4s1-0.2,1.4-0.4l0,0l22.4-14.2
	c0.6-0.4,0.9-0.9,0.9-1.4C114.3,418.3,114,417.7,113.5,417.4z"/>
<path class="st5" d="M121.7,420.8L91.5,440l0,0c-0.6,0.3-1.3,0.5-2,0.5s-1.4-0.2-2-0.5l-30.4-19.3c-0.7-0.5-1.1-1.1-1.1-1.8
	c0,0,0,5.7,0,6.1c0,0.7,0.4,1.4,1.1,1.8L87.5,446c0.6,0.3,1.3,0.5,2,0.5s1.4-0.2,2-0.5l0,0l30.2-19.2c0.8-0.5,1.3-1.2,1.3-2
	c0-0.5,0-6.1,0-6.1C123,419.6,122.5,420.2,121.7,420.8z"/>
<path class="st5" d="M121.7,420.8L91.5,440l0,0c-0.6,0.3-1.3,0.5-2,0.5s-1.4-0.2-2-0.5l-30.4-19.3c-0.7-0.5-1.1-1.1-1.1-1.8
	c0,0,0,5.7,0,6.1c0,0.7,0.4,1.4,1.1,1.8L87.5,446c0.6,0.3,1.3,0.5,2,0.5s1.4-0.2,2-0.5l0,0l30.2-19.2c0.8-0.5,1.3-1.2,1.3-2
	c0-0.5,0-6.1,0-6.1C123,419.6,122.5,420.2,121.7,420.8z"/>
<path class="st6" d="M121.7,420.8L91.5,440l0,0c-0.6,0.3-1.3,0.5-2,0.5s-1.4-0.2-2-0.5l-30.4-19.3c-0.7-0.5-1.1-1.1-1.1-1.8
	c0,0,0,5.7,0,6.1c0,0.7,0.4,1.4,1.1,1.8L87.5,446c0.6,0.3,1.3,0.5,2,0.5s1.4-0.2,2-0.5l0,0l30.2-19.2c0.8-0.5,1.3-1.2,1.3-2
	c0-0.5,0-6.1,0-6.1C123,419.6,122.5,420.2,121.7,420.8z"/>
<path class="st1" d="M207.2,515.9L207.2,515.9l-33.3-21.2c-0.8-0.5-1.6-0.7-2.5-0.7s-1.8,0.2-2.5,0.7L135.4,516
	c-0.7,0.5-1.1,1.2-1.1,2s0.5,1.5,1.1,2.1l33.7,21.4c0.7,0.3,1.4,0.5,2.2,0.5c0.8,0,1.5-0.2,2.2-0.5l0,0l33.5-21.2
	c0.8-0.5,1.4-1.4,1.4-2.2C208.5,517.2,208,516.4,207.2,515.9z"/>
<path class="st2" d="M207.2,500.9L207.2,500.9l-33.3-21.2c-0.8-0.5-1.6-0.7-2.5-0.7s-1.8,0.2-2.5,0.7L135.4,501
	c-0.7,0.5-1.1,1.2-1.1,2s0.5,1.5,1.1,2.1l33.7,21.4c0.7,0.3,1.4,0.5,2.2,0.5c0.8,0,1.5-0.2,2.2-0.5l0,0l33.5-21.2
	c0.8-0.5,1.4-1.4,1.4-2.2C208.5,502.2,208,501.4,207.2,500.9z"/>
<path class="st3" d="M207.1,505.2l-33.5,21.2l0,0c-0.7,0.3-1.4,0.5-2.2,0.5c-0.8,0-1.5-0.2-2.2-0.5L135.5,505
	c-0.8-0.5-1.1-1.3-1.1-2.1c0,0,0,6.3,0,6.8c0,0.8,0.5,1.5,1.1,2.1l33.7,21.4c0.7,0.3,1.4,0.5,2.2,0.5c0.8,0,1.5-0.2,2.2-0.5l0,0
	l33.5-21.2c0.8-0.5,1.4-1.4,1.4-2.2c0-0.5,0-6.8,0-6.8C208.5,503.9,207.9,504.6,207.1,505.2z"/>
<path class="st4" d="M207.2,488.3L207.2,488.3l-33.3-21.2c-0.8-0.5-1.6-0.7-2.5-0.7s-1.8,0.2-2.5,0.7l-33.5,21.2
	c-0.7,0.5-1.1,1.2-1.1,2c0,0.8,0.5,1.5,1.1,2.1l33.7,21.4c0.7,0.3,1.4,0.5,2.2,0.5c0.8,0,1.5-0.2,2.2-0.5l0,0l33.5-21.2
	c0.8-0.5,1.4-1.4,1.4-2.2C208.5,489.5,208,488.8,207.2,488.3z"/>
<path class="st2" d="M197.9,488.8L197.9,488.8l-24.7-15.7c-0.5-0.3-1.2-0.5-1.9-0.5c-0.7,0-1.3,0.2-1.9,0.5l-24.8,15.8
	c-0.5,0.4-0.8,0.9-0.8,1.4c0,0.6,0.3,1.1,0.8,1.5l25,15.8c0.5,0.2,1.1,0.4,1.6,0.4c0.6,0,1.1-0.2,1.6-0.4l0,0l24.8-15.8
	c0.6-0.5,1.1-1,1.1-1.6C198.9,489.7,198.5,489.2,197.9,488.8z"/>
<path class="st5" d="M207.1,492.5l-33.5,21.2l0,0c-0.7,0.3-1.4,0.5-2.2,0.5c-0.8,0-1.5-0.2-2.2-0.5l-33.7-21.4
	c-0.8-0.5-1.1-1.3-1.1-2.1c0,0,0,6.3,0,6.8c0,0.8,0.5,1.5,1.1,2.1l33.7,21.4c0.7,0.3,1.4,0.5,2.2,0.5c0.8,0,1.5-0.2,2.2-0.5l0,0
	l33.5-21.2c0.8-0.5,1.4-1.4,1.4-2.2c0-0.5,0-6.8,0-6.8C208.5,491.2,207.9,491.9,207.1,492.5z"/>
<path class="st5" d="M207.1,492.5l-33.5,21.2l0,0c-0.7,0.3-1.4,0.5-2.2,0.5c-0.8,0-1.5-0.2-2.2-0.5l-33.7-21.4
	c-0.8-0.5-1.1-1.3-1.1-2.1c0,0,0,6.3,0,6.8c0,0.8,0.5,1.5,1.1,2.1l33.7,21.4c0.7,0.3,1.4,0.5,2.2,0.5c0.8,0,1.5-0.2,2.2-0.5l0,0
	l33.5-21.2c0.8-0.5,1.4-1.4,1.4-2.2c0-0.5,0-6.8,0-6.8C208.5,491.2,207.9,491.9,207.1,492.5z"/>
<path class="st6" d="M207.1,492.5l-33.5,21.2l0,0c-0.7,0.3-1.4,0.5-2.2,0.5c-0.8,0-1.5-0.2-2.2-0.5l-33.7-21.4
	c-0.8-0.5-1.1-1.3-1.1-2.1c0,0,0,6.3,0,6.8c0,0.8,0.5,1.5,1.1,2.1l33.7,21.4c0.7,0.3,1.4,0.5,2.2,0.5c0.8,0,1.5-0.2,2.2-0.5l0,0
	l33.5-21.2c0.8-0.5,1.4-1.4,1.4-2.2c0-0.5,0-6.8,0-6.8C208.5,491.2,207.9,491.9,207.1,492.5z"/>
<path class="st1" d="M412.3,515.9L412.3,515.9L379,494.7c-0.8-0.5-1.6-0.7-2.5-0.7c-0.9,0-1.8,0.2-2.5,0.7L340.5,516
	c-0.7,0.5-1.1,1.2-1.1,2s0.5,1.5,1.1,2.1l33.7,21.4c0.7,0.3,1.4,0.5,2.2,0.5c0.8,0,1.5-0.2,2.2-0.5l0,0l33.5-21.2
	c0.8-0.5,1.4-1.4,1.4-2.2C413.5,517.2,413.1,516.5,412.3,515.9z"/>
<path class="st2" d="M412.3,500.9L412.3,500.9L379,479.8c-0.8-0.5-1.6-0.7-2.5-0.7c-0.9,0-1.8,0.2-2.5,0.7L340.5,501
	c-0.7,0.5-1.1,1.2-1.1,2s0.5,1.5,1.1,2.1l33.7,21.4c0.7,0.3,1.4,0.5,2.2,0.5c0.8,0,1.5-0.2,2.2-0.5l0,0l33.5-21.2
	c0.8-0.5,1.4-1.4,1.4-2.2C413.5,502.2,413.1,501.5,412.3,500.9z"/>
<path class="st3" d="M412.1,505.2l-33.5,21.2l0,0c-0.7,0.3-1.4,0.5-2.2,0.5c-0.8,0-1.5-0.2-2.2-0.5L340.5,505
	c-0.8-0.5-1.1-1.3-1.1-2.1c0,0,0,6.3,0,6.8c0,0.8,0.5,1.5,1.1,2.1l33.7,21.4c0.7,0.3,1.4,0.5,2.2,0.5c0.8,0,1.5-0.2,2.2-0.5l0,0
	l33.5-21.2c0.8-0.5,1.4-1.4,1.4-2.2c0-0.5,0-6.8,0-6.8C413.5,503.9,413,504.6,412.1,505.2z"/>
<path class="st4" d="M412.3,488.3L412.3,488.3L379,467.1c-0.8-0.5-1.6-0.7-2.5-0.7c-0.9,0-1.8,0.2-2.5,0.7l-33.5,21.2
	c-0.7,0.5-1.1,1.2-1.1,2c0,0.8,0.5,1.5,1.1,2.1l33.7,21.4c0.7,0.3,1.4,0.5,2.2,0.5c0.8,0,1.5-0.2,2.2-0.5l0,0l33.5-21.2
	c0.8-0.5,1.4-1.4,1.4-2.2S413.1,488.8,412.3,488.3z"/>
<path class="st2" d="M403,488.8L403,488.8l-24.7-15.7c-0.5-0.3-1.2-0.5-1.9-0.5s-1.3,0.2-1.9,0.5l-24.8,15.8
	c-0.5,0.4-0.8,0.9-0.8,1.4c0,0.6,0.3,1.1,0.8,1.5l25,15.8c0.5,0.2,1.1,0.4,1.6,0.4c0.6,0,1.1-0.2,1.6-0.4l0,0l24.8-15.8
	c0.6-0.5,1.1-1,1.1-1.6S403.6,489.2,403,488.8z"/>
<path class="st5" d="M412.1,492.5l-33.5,21.2l0,0c-0.7,0.3-1.4,0.5-2.2,0.5c-0.8,0-1.5-0.2-2.2-0.5l-33.7-21.4
	c-0.8-0.5-1.1-1.3-1.1-2.1c0,0,0,6.3,0,6.8c0,0.8,0.5,1.5,1.1,2.1l33.7,21.4c0.7,0.3,1.4,0.5,2.2,0.5c0.8,0,1.5-0.2,2.2-0.5l0,0
	l33.5-21.2c0.8-0.5,1.4-1.4,1.4-2.2c0-0.5,0-6.8,0-6.8C413.5,491.2,413,491.9,412.1,492.5z"/>
<path class="st5" d="M412.1,492.5l-33.5,21.2l0,0c-0.7,0.3-1.4,0.5-2.2,0.5c-0.8,0-1.5-0.2-2.2-0.5l-33.7-21.4
	c-0.8-0.5-1.1-1.3-1.1-2.1c0,0,0,6.3,0,6.8c0,0.8,0.5,1.5,1.1,2.1l33.7,21.4c0.7,0.3,1.4,0.5,2.2,0.5c0.8,0,1.5-0.2,2.2-0.5l0,0
	l33.5-21.2c0.8-0.5,1.4-1.4,1.4-2.2c0-0.5,0-6.8,0-6.8C413.5,491.2,413,491.9,412.1,492.5z"/>
<path class="st6" d="M412.1,492.5l-33.5,21.2l0,0c-0.7,0.3-1.4,0.5-2.2,0.5c-0.8,0-1.5-0.2-2.2-0.5l-33.7-21.4
	c-0.8-0.5-1.1-1.3-1.1-2.1c0,0,0,6.3,0,6.8c0,0.8,0.5,1.5,1.1,2.1l33.7,21.4c0.7,0.3,1.4,0.5,2.2,0.5c0.8,0,1.5-0.2,2.2-0.5l0,0
	l33.5-21.2c0.8-0.5,1.4-1.4,1.4-2.2c0-0.5,0-6.8,0-6.8C413.5,491.2,413,491.9,412.1,492.5z"/>
<g>
	
		<linearGradient id="SVGID_1_" gradientUnits="userSpaceOnUse" x1="171.3908" y1="474.5522" x2="171.3908" y2="529.7559" gradientTransform="matrix(1 0 0 -1 0 841.67)">
		<stop  offset="0" style="stop-color:#FFD15F;stop-opacity:0.2"/>
		<stop  offset="1" style="stop-color:#FFD15F;stop-opacity:0.8"/>
	</linearGradient>
	<path class="st7" d="M195.1,327.3L195.1,327.3c0-0.6-0.3-1.1-0.8-1.4L173,312.4c-0.5-0.3-1-0.5-1.6-0.5s-1.1,0.2-1.6,0.5L148.3,326
		c-0.5,0.4-0.7,0.8-0.7,1.3v0.1v0.1v0.1v0.1v0.1v0.1v0.1v0.1v0.1v0.1v0.1v0.1v0.1v0.1v0.1v0.1v0.1v0.1v0.1v0.1v0.1v0.1v0.1v0.1v0.1
		v0.1v0.1v0.1v0.1v0.1v0.1v0.1v0.1v0.1v0.1v0.1v0.1v0.1v0.1v0.1v0.1v0.1v0.1v0.1v0.1v0.1v0.1v0.1v0.1v0.1v0.1v0.1v0.1v0.1v0.1v0.1
		v0.1v0.1v0.1v0.1v0.1v0.1v0.1v0.1v0.1v0.1v0.1v0.1v0.1v0.1v0.1v0.1v0.1v0.1v0.1v0.1v0.1v0.1v0.1v0.1v0.1v0.1v0.1v0.1v0.1v0.1v0.1
		v0.1v0.1v0.1v0.1v0.1v0.1v0.1v0.1v0.1v0.1v0.1v0.1v0.1v0.1v0.1v0.1v0.1v0.1v0.1v0.1v0.1v0.1v0.1v0.1v0.1v0.1v0.1v0.1v0.1v0.1v0.1
		v0.1v0.1v0.1v0.1v0.1v0.1v0.1v0.1v0.1v0.1v0.1v0.1v0.1v0.1v0.1v0.1v0.1v0.1v0.1v0.1v0.1v0.1v0.1v0.1v0.1v0.1v0.1v0.1v0.1v0.1v0.1
		v0.1v0.1v0.1v0.1v0.1v0.1v0.1v0.1v0.1v0.1v0.1v0.1v0.1v0.1v0.1v0.1v0.1v0.1v0.1v0.1v0.1v0.1v0.1v0.1v0.1v0.1v0.1v0.1v0.1v0.1v0.1
		v0.1v0.1v0.1v0.1v0.1v0.1v0.1v0.1v0.1v0.1v0.1v0.1v0.1v0.1v0.1v0.1v0.1v0.1v0.1v0.1v0.1v0.1v0.1v0.1v0.1v0.1v0.1v0.1v0.1v0.1v0.1
		v0.1v0.1v0.1v0.1v0.1v0.1v0.1v0.1v0.1v0.1v0.1v0.1v0.1v0.1v0.1v0.1v0.1v0.1v0.1v0.1v0.1v0.1v0.1v0.1v0.1v0.1v0.1v0.1v0.1v0.1v0.1
		v0.1v0.1v0.1v0.1v0.1v0.1v0.1v0.1v0.1v0.1c0,0.5,0.3,1,0.8,1.3l21.6,13.7c0.5,0.2,0.9,0.3,1.4,0.3s1-0.2,1.4-0.3l21.5-13.6
		c0.5-0.4,0.9-0.8,0.9-1.4v-0.1v-0.1v-0.1v-0.1V346V346v-0.1v-0.1v-0.1v-0.1v-0.1v-0.1v-0.1v-0.1v-0.1v-0.1v-0.1v-0.1V345v-0.1v-0.1
		v-0.1v-0.1v-0.1v-0.1v-0.1v-0.1v-0.1v-0.1v-0.1v-0.1V344v-0.1v-0.1v-0.1v-0.1v-0.1v-0.1v-0.1v-0.1v-0.1v-0.1v-0.1v-0.1V343v-0.1
		v-0.1v-0.1v-0.1v-0.1v-0.1v-0.1v-0.1v-0.1v-0.1v-0.1v-0.1V342v-0.1v-0.1v-0.1v-0.1v-0.1v-0.1v-0.1v-0.1v-0.1v-0.1v-0.1v-0.1V341
		v-0.1v-0.1v-0.1v-0.1v-0.1v-0.1v-0.1v-0.1v-0.1v-0.1v-0.1v-0.1V340V340v-0.1v-0.1v-0.1v-0.1v-0.1v-0.1v-0.1v-0.1v-0.1v-0.1v-0.1
		V339V339v-0.1v-0.1v-0.1v-0.1v-0.1v-0.1v-0.1v-0.1v-0.1v-0.1v-0.1v-0.1V338v-0.1v-0.1v-0.1v-0.1v-0.1v-0.1v-0.1v-0.1v-0.1v-0.1
		v-0.1v-0.1V337v-0.1v-0.1v-0.1v-0.1v-0.1v-0.1v-0.1v-0.1v-0.1v-0.1v-0.1v-0.1V336v-0.1v-0.1v-0.1v-0.1v-0.1v-0.1v-0.1v-0.1v-0.1
		v-0.1v-0.1v-0.1V335v-0.1v-0.1v-0.1v-0.1v-0.1v-0.1v-0.1v-0.1v-0.1v-0.1v-0.1v-0.1V334v-0.1v-0.1v-0.1v-0.1v-0.1v-0.1v-0.1v-0.1
		v-0.1v-0.1v-0.1v-0.1V333V333v-0.1v-0.1v-0.1v-0.1v-0.1v-0.1v-0.1v-0.1v-0.1v-0.1v-0.1V332V332v-0.1v-0.1v-0.1v-0.1v-0.1v-0.1v-0.1
		v-0.1v-0.1v-0.1v-0.1v-0.1V331v-0.1v-0.1v-0.1v-0.1v-0.1v-0.1v-0.1v-0.1v-0.1v-0.1v-0.1v-0.1V330v-0.1v-0.1v-0.1v-0.1v-0.1v-0.1
		v-0.1v-0.1v-0.1v-0.1v-0.1v-0.1V329v-0.1v-0.1v-0.1v-0.1v-0.1v-0.1v-0.1v-0.1v-0.1v-0.1v-0.1v-0.1V328v-0.1v-0.1v-0.1v-0.1v-0.1
		v-0.1v-0.1L195.1,327.3C195.1,327.4,195.1,327.4,195.1,327.3z"/>
	
		<linearGradient id="SVGID_2_" gradientUnits="userSpaceOnUse" x1="375.5691" y1="474.5463" x2="375.5691" y2="529.7499" gradientTransform="matrix(1 0 0 -1 0 841.67)">
		<stop  offset="0" style="stop-color:#FFD15F;stop-opacity:0.2"/>
		<stop  offset="1" style="stop-color:#FFD15F;stop-opacity:0.8"/>
	</linearGradient>
	<path class="st8" d="M399.2,327.3L399.2,327.3c0-0.6-0.3-1.1-0.8-1.4l-21.3-13.5c-0.5-0.3-1-0.5-1.6-0.5c-0.6,0-1.1,0.2-1.6,0.5
		L352.5,326c-0.5,0.4-0.7,0.8-0.7,1.3v0.1v0.1v0.1v0.1v0.1v0.1v0.1v0.1v0.1v0.1v0.1v0.1v0.1v0.1v0.1v0.1v0.1v0.1v0.1v0.1v0.1v0.1
		v0.1v0.1v0.1v0.1v0.1v0.1v0.1v0.1v0.1v0.1v0.1v0.1v0.1v0.1v0.1v0.1v0.1v0.1v0.1v0.1v0.1v0.1v0.1v0.1v0.1v0.1v0.1v0.1v0.1v0.1v0.1
		v0.1v0.1v0.1v0.1v0.1v0.1v0.1v0.1v0.1v0.1v0.1v0.1v0.1v0.1v0.1v0.1v0.1v0.1v0.1v0.1v0.1v0.1v0.1v0.1v0.1v0.1v0.1v0.1v0.1v0.1v0.1
		v0.1v0.1v0.1v0.1v0.1v0.1v0.1v0.1v0.1v0.1v0.1v0.1v0.1v0.1v0.1v0.1v0.1v0.1v0.1v0.1v0.1v0.1v0.1v0.1v0.1v0.1v0.1v0.1v0.1v0.1v0.1
		v0.1v0.1v0.1v0.1v0.1v0.1v0.1v0.1v0.1v0.1v0.1v0.1v0.1v0.1v0.1v0.1v0.1v0.1v0.1v0.1v0.1v0.1v0.1v0.1v0.1v0.1v0.1v0.1v0.1v0.1v0.1
		v0.1v0.1v0.1v0.1v0.1v0.1v0.1v0.1v0.1v0.1v0.1v0.1v0.1v0.1v0.1v0.1v0.1v0.1v0.1v0.1v0.1v0.1v0.1v0.1v0.1v0.1v0.1v0.1v0.1v0.1v0.1
		v0.1v0.1v0.1v0.1v0.1v0.1v0.1v0.1v0.1v0.1v0.1v0.1v0.1v0.1v0.1v0.1v0.1v0.1v0.1v0.1v0.1v0.1v0.1v0.1v0.1v0.1v0.1v0.1v0.1v0.1v0.1
		v0.1v0.1v0.1v0.1v0.1v0.1v0.1v0.1v0.1v0.1v0.1v0.1v0.1v0.1v0.1v0.1v0.1v0.1v0.1v0.1v0.1v0.1v0.1v0.1v0.1v0.1v0.1v0.1v0.1v0.1v0.1
		v0.1v0.1v0.1v0.1v0.1v0.1v0.1v0.1v0.1v0.1v0.1v0.1v0.1c0,0.5,0.3,1,0.8,1.3l21.6,13.7c0.5,0.2,0.9,0.3,1.4,0.3c0.5,0,1-0.2,1.4-0.3
		l21.5-13.6c0.5-0.4,0.9-0.8,0.9-1.4v-0.1v-0.1v-0.1v-0.1V346V346v-0.1v-0.1v-0.1v-0.1v-0.1v-0.1v-0.1v-0.1v-0.1v-0.1v-0.1v-0.1V345
		v-0.1v-0.1v-0.1v-0.1v-0.1v-0.1v-0.1v-0.1v-0.1v-0.1v-0.1v-0.1V344v-0.1v-0.1v-0.1v-0.1v-0.1v-0.1v-0.1v-0.1v-0.1v-0.1v-0.1v-0.1
		V343v-0.1v-0.1v-0.1v-0.1v-0.1v-0.1v-0.1v-0.1v-0.1v-0.1v-0.1v-0.1V342v-0.1v-0.1v-0.1v-0.1v-0.1v-0.1v-0.1v-0.1v-0.1v-0.1v-0.1
		v-0.1V341v-0.1v-0.1v-0.1v-0.1v-0.1v-0.1v-0.1v-0.1v-0.1v-0.1v-0.1v-0.1V340V340v-0.1v-0.1v-0.1v-0.1v-0.1v-0.1v-0.1v-0.1v-0.1
		v-0.1v-0.1V339V339v-0.1v-0.1v-0.1v-0.1v-0.1v-0.1v-0.1v-0.1v-0.1v-0.1v-0.1v-0.1V338v-0.1v-0.1v-0.1v-0.1v-0.1v-0.1v-0.1v-0.1
		v-0.1v-0.1v-0.1v-0.1V337v-0.1v-0.1v-0.1v-0.1v-0.1v-0.1v-0.1v-0.1v-0.1v-0.1v-0.1v-0.1V336v-0.1v-0.1v-0.1v-0.1v-0.1v-0.1v-0.1
		v-0.1v-0.1v-0.1v-0.1v-0.1V335v-0.1v-0.1v-0.1v-0.1v-0.1v-0.1v-0.1v-0.1v-0.1v-0.1v-0.1v-0.1V334v-0.1v-0.1v-0.1v-0.1v-0.1v-0.1
		v-0.1v-0.1v-0.1v-0.1v-0.1v-0.1V333V333v-0.1v-0.1v-0.1v-0.1v-0.1v-0.1v-0.1v-0.1v-0.1v-0.1v-0.1V332V332v-0.1v-0.1v-0.1v-0.1v-0.1
		v-0.1v-0.1v-0.1v-0.1v-0.1v-0.1v-0.1V331v-0.1v-0.1v-0.1v-0.1v-0.1v-0.1v-0.1v-0.1v-0.1v-0.1v-0.1v-0.1V330v-0.1v-0.1v-0.1v-0.1
		v-0.1v-0.1v-0.1v-0.1v-0.1v-0.1v-0.1v-0.1V329v-0.1v-0.1v-0.1v-0.1v-0.1v-0.1v-0.1v-0.1v-0.1v-0.1v-0.1v-0.1V328v-0.1v-0.1v-0.1
		v-0.1v-0.1v-0.1v-0.1L399.2,327.3C399.3,327.4,399.2,327.4,399.2,327.3z"/>
	
		<linearGradient id="SVGID_3_" gradientUnits="userSpaceOnUse" x1="273.4419" y1="548.2283" x2="273.4419" y2="603.4319" gradientTransform="matrix(1 0 0 -1 0 841.67)">
		<stop  offset="0" style="stop-color:#FFD15F;stop-opacity:0.2"/>
		<stop  offset="1" style="stop-color:#FFD15F;stop-opacity:0.8"/>
	</linearGradient>
	<path class="st9" d="M297.2,253.7L297.2,253.7c0-0.6-0.3-1.1-0.8-1.4L275,238.7c-0.5-0.3-1-0.5-1.6-0.5s-1.1,0.2-1.6,0.5
		l-21.5,13.6c-0.5,0.4-0.7,0.8-0.7,1.3v0.1v0.1v0.1v0.1v0.1v0.1v0.1v0.1v0.1v0.1v0.1v0.1v0.1v0.1v0.1v0.1v0.1v0.1v0.1v0.1v0.1v0.1
		v0.1v0.1v0.1v0.1v0.1v0.1v0.1v0.1v0.1v0.1v0.1v0.1v0.1v0.1v0.1v0.1v0.1v0.1v0.1v0.1v0.1v0.1v0.1v0.1v0.1v0.1v0.1v0.1v0.1v0.1v0.1
		v0.1v0.1v0.1v0.1v0.1v0.1v0.1v0.1v0.1v0.1v0.1v0.1v0.1v0.1v0.1v0.1v0.1v0.1v0.1v0.1v0.1v0.1v0.1v0.1v0.1v0.1v0.1v0.1v0.1v0.1v0.1
		v0.1v0.1v0.1v0.1v0.1v0.1v0.1v0.1v0.1v0.1v0.1v0.1v0.1v0.1v0.1v0.1v0.1v0.1v0.1v0.1v0.1v0.1v0.1v0.1v0.1v0.1v0.1v0.1v0.1v0.1v0.1
		v0.1v0.1v0.1v0.1v0.1v0.1v0.1v0.1v0.1v0.1v0.1v0.1v0.1v0.1v0.1v0.1v0.1v0.1v0.1v0.1v0.1v0.1v0.1v0.1v0.1v0.1v0.1v0.1v0.1v0.1v0.1
		v0.1v0.1v0.1v0.1v0.1v0.1v0.1v0.1v0.1v0.1v0.1v0.1v0.1v0.1v0.1v0.1v0.1v0.1v0.1v0.1v0.1v0.1v0.1v0.1v0.1v0.1v0.1v0.1v0.1v0.1v0.1
		v0.1v0.1v0.1v0.1v0.1v0.1v0.1v0.1v0.1v0.1v0.1v0.1v0.1v0.1v0.1v0.1v0.1v0.1v0.1v0.1v0.1v0.1v0.1v0.1v0.1v0.1v0.1v0.1v0.1v0.1v0.1
		v0.1v0.1v0.1v0.1v0.1v0.1v0.1v0.1v0.1v0.1v0.1v0.1v0.1v0.1v0.1v0.1v0.1v0.1v0.1v0.1v0.1v0.1v0.1v0.1v0.1v0.1v0.1v0.1v0.1v0.1v0.1
		v0.1v0.1v0.1v0.1v0.1v0.1v0.1v0.1v0.1v0.1v0.1v0.1v0.1c0,0.5,0.3,1,0.8,1.3l21.6,13.7c0.5,0.2,0.9,0.3,1.4,0.3c0.5,0,1-0.2,1.4-0.3
		l21.5-13.6c0.5-0.4,0.9-0.8,0.9-1.4v-0.1v-0.1v-0.1v-0.1v-0.1v-0.1v-0.1v-0.1V272v-0.1v-0.1v-0.1v-0.1v-0.1v-0.1v-0.1v-0.1v-0.1
		v-0.1v-0.1v-0.1V271v-0.1v-0.1v-0.1v-0.1v-0.1v-0.1v-0.1v-0.1v-0.1v-0.1v-0.1v-0.1V270v-0.1v-0.1v-0.1v-0.1v-0.1v-0.1v-0.1v-0.1
		v-0.1v-0.1v-0.1v-0.1V269V269v-0.1v-0.1v-0.1v-0.1v-0.1v-0.1v-0.1v-0.1v-0.1v-0.1v-0.1V268V268v-0.1v-0.1v-0.1v-0.1v-0.1v-0.1v-0.1
		v-0.1v-0.1v-0.1v-0.1v-0.1V267v-0.1v-0.1v-0.1v-0.1v-0.1v-0.1v-0.1v-0.1v-0.1v-0.1v-0.1v-0.1V266v-0.1v-0.1v-0.1v-0.1v-0.1v-0.1
		v-0.1v-0.1v-0.1v-0.1v-0.1v-0.1V265v-0.1v-0.1v-0.1v-0.1v-0.1v-0.1v-0.1v-0.1v-0.1v-0.1v-0.1v-0.1V264v-0.1v-0.1v-0.1v-0.1v-0.1
		v-0.1v-0.1v-0.1v-0.1v-0.1v-0.1v-0.1V263v-0.1v-0.1v-0.1v-0.1v-0.1v-0.1v-0.1v-0.1v-0.1v-0.1v-0.1v-0.1V262V262v-0.1v-0.1v-0.1
		v-0.1v-0.1v-0.1v-0.1v-0.1v-0.1v-0.1v-0.1V261V261v-0.1v-0.1v-0.1v-0.1v-0.1v-0.1v-0.1v-0.1v-0.1v-0.1v-0.1v-0.1V260v-0.1v-0.1
		v-0.1v-0.1v-0.1v-0.1v-0.1v-0.1v-0.1v-0.1v-0.1v-0.1V259v-0.1v-0.1v-0.1v-0.1v-0.1v-0.1v-0.1v-0.1v-0.1v-0.1v-0.1v-0.1V258v-0.1
		v-0.1v-0.1v-0.1v-0.1v-0.1v-0.1v-0.1v-0.1v-0.1v-0.1v-0.1V257v-0.1v-0.1v-0.1v-0.1v-0.1v-0.1v-0.1v-0.1v-0.1v-0.1v-0.1v-0.1V256
		v-0.1v-0.1v-0.1v-0.1v-0.1v-0.1v-0.1v-0.1v-0.1v-0.1v-0.1v-0.1V255V255v-0.1v-0.1v-0.1v-0.1v-0.1v-0.1v-0.1v-0.1v-0.1v-0.1v-0.1
		V254V254v-0.1v-0.1V253.7L297.2,253.7C297.2,253.7,297.2,253.7,297.2,253.7z"/>
	
		<linearGradient id="SVGID_4_" gradientUnits="userSpaceOnUse" x1="273.4419" y1="273.5284" x2="273.4419" y2="328.7319" gradientTransform="matrix(1 0 0 -1 0 841.67)">
		<stop  offset="0" style="stop-color:#FFD15F;stop-opacity:0.2"/>
		<stop  offset="1" style="stop-color:#FFD15F;stop-opacity:0.8"/>
	</linearGradient>
	<path class="st10" d="M297.2,528.4L297.2,528.4c0-0.6-0.3-1.1-0.8-1.4L275,513.5c-0.5-0.3-1-0.5-1.6-0.5s-1.1,0.2-1.6,0.5
		l-21.5,13.6c-0.5,0.4-0.7,0.8-0.7,1.3v0.1v0.1v0.1v0.1v0.1v0.1v0.1v0.1v0.1v0.1v0.1v0.1v0.1v0.1v0.1v0.1v0.1v0.1v0.1v0.1v0.1v0.1
		v0.1v0.1v0.1v0.1v0.1v0.1v0.1v0.1v0.1v0.1v0.1v0.1v0.1v0.1v0.1v0.1v0.1v0.1v0.1v0.1v0.1v0.1v0.1v0.1v0.1v0.1v0.1v0.1v0.1v0.1v0.1
		v0.1v0.1v0.1v0.1v0.1v0.1v0.1v0.1v0.1v0.1v0.1v0.1v0.1v0.1v0.1v0.1v0.1v0.1v0.1v0.1v0.1v0.1v0.1v0.1v0.1v0.1v0.1v0.1v0.1v0.1v0.1
		v0.1v0.1v0.1v0.1v0.1v0.1v0.1v0.1v0.1v0.1v0.1v0.1v0.1v0.1v0.1v0.1v0.1v0.1v0.1v0.1v0.1v0.1v0.1v0.1v0.1v0.1v0.1v0.1v0.1v0.1v0.1
		v0.1v0.1v0.1v0.1v0.1v0.1v0.1v0.1v0.1v0.1v0.1v0.1v0.1v0.1v0.1v0.1v0.1v0.1v0.1v0.1v0.1v0.1v0.1v0.1v0.1v0.1v0.1v0.1v0.1v0.1v0.1
		v0.1v0.1v0.1v0.1v0.1v0.1v0.1v0.1v0.1v0.1v0.1v0.1v0.1v0.1v0.1v0.1v0.1v0.1v0.1v0.1v0.1v0.1v0.1v0.1v0.1v0.1v0.1v0.1v0.1v0.1v0.1
		v0.1v0.1v0.1v0.1v0.1v0.1v0.1v0.1v0.1v0.1v0.1v0.1v0.1v0.1v0.1v0.1v0.1v0.1v0.1v0.1v0.1v0.1v0.1v0.1v0.1v0.1v0.1v0.1v0.1v0.1v0.1
		v0.1v0.1v0.1v0.1v0.1v0.1v0.1v0.1v0.1v0.1v0.1v0.1v0.1v0.1v0.1v0.1v0.1v0.1v0.1v0.1v0.1v0.1v0.1v0.1v0.1v0.1v0.1v0.1v0.1v0.1v0.1
		v0.1v0.1v0.1v0.1v0.1v0.1v0.1v0.1v0.1v0.1v0.1v0.1v0.1c0,0.5,0.3,1,0.8,1.3l21.6,13.7c0.5,0.2,0.9,0.3,1.4,0.3c0.5,0,1-0.2,1.4-0.3
		l21.5-13.6c0.5-0.4,0.9-0.8,0.9-1.4v-0.1v-0.1v-0.1v-0.1v-0.1V547V547v-0.1v-0.1v-0.1v-0.1v-0.1v-0.1v-0.1v-0.1v-0.1v-0.1v-0.1V546
		V546v-0.1v-0.1v-0.1v-0.1v-0.1v-0.1v-0.1v-0.1v-0.1v-0.1v-0.1V545V545v-0.1v-0.1v-0.1v-0.1v-0.1v-0.1v-0.1v-0.1v-0.1v-0.1v-0.1
		v-0.1V544v-0.1v-0.1v-0.1v-0.1v-0.1v-0.1v-0.1v-0.1v-0.1v-0.1v-0.1v-0.1V543v-0.1v-0.1v-0.1v-0.1v-0.1v-0.1v-0.1v-0.1v-0.1v-0.1
		v-0.1v-0.1V542v-0.1v-0.1v-0.1v-0.1v-0.1v-0.1v-0.1v-0.1v-0.1v-0.1v-0.1v-0.1V541v-0.1v-0.1v-0.1v-0.1v-0.1v-0.1v-0.1v-0.1v-0.1
		v-0.1v-0.1v-0.1V540V540v-0.1v-0.1v-0.1v-0.1v-0.1v-0.1v-0.1v-0.1v-0.1v-0.1v-0.1V539V539v-0.1v-0.1v-0.1v-0.1v-0.1v-0.1v-0.1v-0.1
		v-0.1v-0.1v-0.1V538V538v-0.1v-0.1v-0.1v-0.1v-0.1v-0.1v-0.1v-0.1v-0.1v-0.1v-0.1v-0.1V537v-0.1v-0.1v-0.1v-0.1v-0.1v-0.1v-0.1
		v-0.1v-0.1v-0.1v-0.1v-0.1V536v-0.1v-0.1v-0.1v-0.1v-0.1v-0.1v-0.1v-0.1v-0.1v-0.1v-0.1v-0.1V535v-0.1v-0.1v-0.1v-0.1v-0.1v-0.1
		v-0.1v-0.1v-0.1v-0.1v-0.1v-0.1V534v-0.1v-0.1v-0.1v-0.1v-0.1v-0.1v-0.1v-0.1v-0.1v-0.1v-0.1v-0.1V533v-0.1v-0.1v-0.1v-0.1v-0.1
		v-0.1v-0.1v-0.1v-0.1v-0.1v-0.1v-0.1V532V532v-0.1v-0.1v-0.1v-0.1v-0.1v-0.1v-0.1v-0.1v-0.1v-0.1v-0.1V531V531v-0.1v-0.1v-0.1v-0.1
		v-0.1v-0.1v-0.1v-0.1v-0.1v-0.1v-0.1v-0.1V530v-0.1v-0.1v-0.1v-0.1v-0.1v-0.1v-0.1v-0.1v-0.1v-0.1v-0.1v-0.1V529v-0.1v-0.1v-0.1
		v-0.1v-0.1v-0.1V528.4C297.2,528.5,297.2,528.4,297.2,528.4z"/>
	
		<linearGradient id="SVGID_5_" gradientUnits="userSpaceOnUse" x1="456.8448" y1="407.6236" x2="456.8448" y2="456.6607" gradientTransform="matrix(1 0 0 -1 0 841.67)">
		<stop  offset="0" style="stop-color:#FFD15F;stop-opacity:0.2"/>
		<stop  offset="1" style="stop-color:#FFD15F;stop-opacity:0.8"/>
	</linearGradient>
	<path class="st11" d="M477.9,398.7L477.9,398.7c0-0.5-0.2-0.9-0.7-1.2l-18.9-12c-0.5-0.2-0.9-0.4-1.4-0.4s-1,0.2-1.4,0.4l-19,12.1
		c-0.4,0.3-0.6,0.7-0.6,1.1v0.1v0.1v0.1v0.1v0.1v0.1v0.1v0.1v0.1v0.1v0.1v0.1v0.1v0.1v0.1v0.1v0.1v0.1v0.1v0.1v0.1v0.1v0.1v0.1v0.1
		v0.1v0.1v0.1v0.1v0.1v0.1v0.1v0.1v0.1v0.1v0.1v0.1v0.1v0.1v0.1v0.1v0.1v0.1v0.1v0.1v0.1v0.1v0.1v0.1v0.1v0.1v0.1v0.1v0.1v0.1v0.1
		v0.1v0.1v0.1v0.1v0.1v0.1v0.1v0.1v0.1v0.1v0.1v0.1v0.1v0.1v0.1v0.1v0.1v0.1v0.1v0.1v0.1v0.1v0.1v0.1v0.1v0.1v0.1v0.1v0.1v0.1v0.1
		v0.1v0.1v0.1v0.1v0.1v0.1v0.1v0.1v0.1v0.1v0.1v0.1v0.1v0.1v0.1v0.1v0.1v0.1v0.1v0.1v0.1v0.1v0.1v0.1v0.1v0.1v0.1v0.1v0.1v0.1v0.1
		v0.1v0.1v0.1v0.1v0.1v0.1v0.1v0.1v0.1v0.1v0.1v0.1v0.1v0.1v0.1v0.1v0.1v0.1v0.1v0.1v0.1v0.1v0.1v0.1v0.1v0.1v0.1v0.1v0.1v0.1v0.1
		v0.1v0.1v0.1v0.1v0.1v0.1v0.1v0.1v0.1v0.1v0.1v0.1v0.1v0.1v0.1v0.1v0.1v0.1v0.1v0.1v0.1v0.1v0.1v0.1v0.1v0.1v0.1v0.1v0.1v0.1v0.1
		v0.1v0.1v0.1v0.1v0.1v0.1v0.1v0.1v0.1v0.1v0.1v0.1v0.1v0.1v0.1v0.1v0.1v0.1v0.1v0.1v0.1v0.1v0.1v0.1v0.1v0.1v0.1v0.1v0.1v0.1v0.1
		v0.1v0.1v0.1v0.1v0.1v0.1v0.1v0.1v0.1v0.1v0.1v0.1v0.1v0.1v0.1v0.1v0.1v0.1v0.1v0.1v0.1v0.1v0.1v0.1v0.1v0.1v0.1v0.1v0.1v0.1v0.1
		v0.1v0.1v0.1v0.1v0.1v0.1v0.1v0.1v0.1v0.1c0,0.5,0.2,0.8,0.7,1.1l19.2,12.2c0.4,0.2,0.8,0.3,1.2,0.3c0.5,0,0.8-0.1,1.2-0.3l19-12.1
		c0.5-0.3,0.8-0.8,0.8-1.2v-0.1v-0.1v-0.1v-0.1v-0.1v-0.1v-0.1v-0.1v-0.1v-0.1V417V417v-0.1v-0.1v-0.1v-0.1v-0.1v-0.1v-0.1v-0.1
		v-0.1v-0.1v-0.1v-0.1V416v-0.1v-0.1v-0.1v-0.1v-0.1v-0.1v-0.1v-0.1v-0.1v-0.1v-0.1v-0.1V415v-0.1v-0.1v-0.1v-0.1v-0.1v-0.1v-0.1
		v-0.1v-0.1v-0.1v-0.1v-0.1V414v-0.1v-0.1v-0.1v-0.1v-0.1v-0.1v-0.1v-0.1v-0.1v-0.1v-0.1v-0.1V413v-0.1v-0.1v-0.1v-0.1v-0.1v-0.1
		v-0.1v-0.1v-0.1v-0.1v-0.1v-0.1V412v-0.1v-0.1v-0.1v-0.1v-0.1v-0.1v-0.1v-0.1v-0.1v-0.1v-0.1v-0.1V411V411v-0.1v-0.1v-0.1v-0.1
		v-0.1v-0.1v-0.1v-0.1v-0.1v-0.1v-0.1V410V410v-0.1v-0.1v-0.1v-0.1v-0.1v-0.1v-0.1v-0.1v-0.1v-0.1v-0.1v-0.1V409v-0.1v-0.1v-0.1
		v-0.1v-0.1v-0.1v-0.1v-0.1v-0.1v-0.1v-0.1v-0.1V408v-0.1v-0.1v-0.1v-0.1v-0.1v-0.1v-0.1v-0.1v-0.1v-0.1v-0.1v-0.1V407v-0.1v-0.1
		v-0.1v-0.1v-0.1v-0.1v-0.1v-0.1v-0.1v-0.1v-0.1v-0.1V406v-0.1v-0.1v-0.1v-0.1v-0.1v-0.1v-0.1v-0.1v-0.1v-0.1v-0.1v-0.1V405v-0.1
		v-0.1v-0.1v-0.1v-0.1v-0.1v-0.1v-0.1v-0.1v-0.1v-0.1v-0.1V404V404v-0.1v-0.1v-0.1v-0.1v-0.1v-0.1v-0.1v-0.1v-0.1v-0.1v-0.1V403V403
		v-0.1v-0.1v-0.1v-0.1v-0.1v-0.1v-0.1v-0.1v-0.1v-0.1v-0.1v-0.1V402v-0.1v-0.1v-0.1v-0.1v-0.1v-0.1v-0.1v-0.1v-0.1v-0.1v-0.1v-0.1
		V401v-0.1v-0.1v-0.1v-0.1v-0.1v-0.1v-0.1v-0.1v-0.1v-0.1v-0.1v-0.1V400v-0.1v-0.1v-0.1v-0.1v-0.1v-0.1v-0.1v-0.1v-0.1v-0.1v-0.1
		v-0.1V399v-0.1v-0.1C477.9,398.8,477.9,398.7,477.9,398.7z"/>
	
		<linearGradient id="SVGID_6_" gradientUnits="userSpaceOnUse" x1="89.5444" y1="408.1853" x2="89.5444" y2="458.0314" gradientTransform="matrix(1 0 0 -1 0 841.67)">
		<stop  offset="0" style="stop-color:#FFD15F;stop-opacity:0.2"/>
		<stop  offset="1" style="stop-color:#FFD15F;stop-opacity:0.8"/>
	</linearGradient>
	<path class="st12" d="M111,397.6L111,397.6c0-0.5-0.2-0.9-0.7-1.3L91,384c-0.5-0.2-0.9-0.4-1.4-0.4s-1.1,0.2-1.4,0.4l-19.4,12.3
		c-0.4,0.3-0.6,0.7-0.6,1.1v0.1v0.1v0.1v0.1v0.1v0.1v0.1v0.1v0.1v0.1v0.1v0.1v0.1v0.1v0.1v0.1v0.1v0.1v0.1v0.1v0.1v0.1v0.1v0.1v0.1
		v0.1v0.1v0.1v0.1v0.1v0.1v0.1v0.1v0.1v0.1v0.1v0.1v0.1v0.1v0.1v0.1v0.1v0.1v0.1v0.1v0.1v0.1v0.1v0.1v0.1v0.1v0.1v0.1v0.1v0.1v0.1
		v0.1v0.1v0.1v0.1v0.1v0.1v0.1v0.1v0.1v0.1v0.1v0.1v0.1v0.1v0.1v0.1v0.1v0.1v0.1v0.1v0.1v0.1v0.1v0.1v0.1v0.1v0.1v0.1v0.1v0.1v0.1
		v0.1v0.1v0.1v0.1v0.1v0.1v0.1v0.1v0.1v0.1v0.1v0.1v0.1v0.1v0.1v0.1v0.1v0.1v0.1v0.1v0.1v0.1v0.1v0.1v0.1v0.1v0.1v0.1v0.1v0.1v0.1
		v0.1v0.1v0.1v0.1v0.1v0.1v0.1v0.1v0.1v0.1v0.1v0.1v0.1v0.1v0.1v0.1v0.1v0.1v0.1v0.1v0.1v0.1v0.1v0.1v0.1v0.1v0.1v0.1v0.1v0.1v0.1
		v0.1v0.1v0.1v0.1v0.1v0.1v0.1v0.1v0.1v0.1v0.1v0.1v0.1v0.1v0.1v0.1v0.1v0.1v0.1v0.1v0.1v0.1v0.1v0.1v0.1v0.1v0.1v0.1v0.1v0.1v0.1
		v0.1v0.1v0.1v0.1v0.1v0.1v0.1v0.1v0.1v0.1v0.1v0.1v0.1v0.1v0.1v0.1v0.1v0.1v0.1v0.1v0.1v0.1v0.1v0.1v0.1v0.1v0.1v0.1v0.1v0.1v0.1
		v0.1v0.1v0.1v0.1v0.1v0.1v0.1v0.1v0.1v0.1v0.1v0.1v0.1v0.1v0.1v0.1v0.1v0.1v0.1v0.1v0.1v0.1v0.1v0.1v0.1v0.1v0.1v0.1v0.1v0.1v0.1
		v0.1v0.1v0.1v0.1v0.1v0.1v0.1v0.1v0.1v0.1c0,0.5,0.2,0.8,0.7,1.1l19.4,15.4c0.4,0.2,0.8,0.3,1.3,0.3c0.5,0,0.9-0.1,1.3-0.3
		l19.3-12.3c0.5-0.3,0.8-0.8,0.8-1.3v-0.1v-0.1v-0.1v-0.1v-0.1v-0.1v-0.1V419v-0.1v-0.1v-0.1v-0.1v-0.1v-0.1v-0.1v-0.1v-0.1v-0.1
		v-0.1v-0.1V418V418v-0.1v-0.1v-0.1v-0.1v-0.1v-0.1v-0.1v-0.1v-0.1v-0.1v-0.1V417V417v-0.1v-0.1v-0.1v-0.1v-0.1v-0.1v-0.1v-0.1v-0.1
		v-0.1v-0.1v-0.1V416v-0.1v-0.1v-0.1v-0.1v-0.1v-0.1v-0.1v-0.1v-0.1v-0.1v-0.1v-0.1V415v-0.1v-0.1v-0.1v-0.1v-0.1v-0.1v-0.1v-0.1
		v-0.1v-0.1v-0.1v-0.1V414v-0.1v-0.1v-0.1v-0.1v-0.1v-0.1v-0.1v-0.1v-0.1v-0.1v-0.1v-0.1V413v-0.1v-0.1v-0.1v-0.1v-0.1v-0.1v-0.1
		v-0.1v-0.1v-0.1v-0.1v-0.1V412v-0.1v-0.1v-0.1v-0.1v-0.1v-0.1v-0.1v-0.1v-0.1v-0.1v-0.1v-0.1V411V411v-0.1v-0.1v-0.1v-0.1v-0.1
		v-0.1v-0.1v-0.1v-0.1v-0.1v-0.1V410V410v-0.1v-0.1v-0.1v-0.1v-0.1v-0.1v-0.1v-0.1v-0.1v-0.1v-0.1v-0.1V409v-0.1v-0.1v-0.1v-0.1
		v-0.1v-0.1v-0.1v-0.1v-0.1v-0.1v-0.1v-0.1V408v-0.1v-0.1v-0.1v-0.1v-0.1v-0.1v-0.1v-0.1v-0.1v-0.1v-0.1v-0.1V407v-0.1v-0.1v-0.1
		v-0.1v-0.1v-0.1v-0.1v-0.1v-0.1v-0.1v-0.1v-0.1V406v-0.1v-0.1v-0.1v-0.1v-0.1v-0.1v-0.1v-0.1v-0.1v-0.1v-0.1v-0.1V405v-0.1v-0.1
		v-0.1v-0.1v-0.1v-0.1v-0.1v-0.1v-0.1v-0.1v-0.1v-0.1V404V404v-0.1v-0.1v-0.1v-0.1v-0.1v-0.1v-0.1v-0.1v-0.1v-0.1v-0.1V403V403v-0.1
		v-0.1v-0.1v-0.1v-0.1v-0.1v-0.1v-0.1v-0.1v-0.1v-0.1v-0.1V402v-0.1v-0.1v-0.1v-0.1v-0.1v-0.1v-0.1v-0.1v-0.1v-0.1v-0.1v-0.1V401
		v-0.1v-0.1v-0.1v-0.1v-0.1C111,397.6,111,397.6,111,397.6z"/>
	
		<linearGradient id="SVGID_7_" gradientUnits="userSpaceOnUse" x1="171.3908" y1="335.1463" x2="171.3908" y2="390.3499" gradientTransform="matrix(1 0 0 -1 0 841.67)">
		<stop  offset="0" style="stop-color:#FFD15F;stop-opacity:0.2"/>
		<stop  offset="1" style="stop-color:#FFD15F;stop-opacity:0.8"/>
	</linearGradient>
	<path class="st13" d="M195.1,466.7L195.1,466.7c0-0.6-0.3-1.1-0.8-1.4L173,451.8c-0.5-0.3-1-0.5-1.6-0.5s-1.1,0.2-1.6,0.5
		l-21.5,13.6c-0.5,0.4-0.7,0.8-0.7,1.3v0.1v0.1v0.1v0.1v0.1v0.1v0.1v0.1v0.1v0.1v0.1v0.1v0.1v0.1v0.1v0.1v0.1v0.1v0.1v0.1v0.1v0.1
		v0.1v0.1v0.1v0.1v0.1v0.1v0.1v0.1v0.1v0.1v0.1v0.1v0.1v0.1v0.1v0.1v0.1v0.1v0.1v0.1v0.1v0.1v0.1v0.1v0.1v0.1v0.1v0.1v0.1v0.1v0.1
		v0.1v0.1v0.1v0.1v0.1v0.1v0.1v0.1v0.1v0.1v0.1v0.1v0.1v0.1v0.1v0.1v0.1v0.1v0.1v0.1v0.1v0.1v0.1v0.1v0.1v0.1v0.1v0.1v0.1v0.1v0.1
		v0.1v0.1v0.1v0.1v0.1v0.1v0.1v0.1v0.1v0.1v0.1v0.1v0.1v0.1v0.1v0.1v0.1v0.1v0.1v0.1v0.1v0.1v0.1v0.1v0.1v0.1v0.1v0.1v0.1v0.1v0.1
		v0.1v0.1v0.1v0.1v0.1v0.1v0.1v0.1v0.1v0.1v0.1v0.1v0.1v0.1v0.1v0.1v0.1v0.1v0.1v0.1v0.1v0.1v0.1v0.1v0.1v0.1v0.1v0.1v0.1v0.1v0.1
		v0.1v0.1v0.1v0.1v0.1v0.1v0.1v0.1v0.1v0.1v0.1v0.1v0.1v0.1v0.1v0.1v0.1v0.1v0.1v0.1v0.1v0.1v0.1v0.1v0.1v0.1v0.1v0.1v0.1v0.1v0.1
		v0.1v0.1v0.1v0.1v0.1v0.1v0.1v0.1v0.1v0.1v0.1v0.1v0.1v0.1v0.1v0.1v0.1v0.1v0.1v0.1v0.1v0.1v0.1v0.1v0.1v0.1v0.1v0.1v0.1v0.1v0.1
		v0.1v0.1v0.1v0.1v0.1v0.1v0.1v0.1v0.1v0.1v0.1v0.1v0.1v0.1v0.1v0.1v0.1v0.1v0.1v0.1v0.1v0.1v0.1v0.1v0.1v0.1v0.1v0.1v0.1v0.1v0.1
		v0.1v0.1v0.1v0.1v0.1v0.1v0.1v0.1v0.1v0.1v0.1v0.1v0.1c0,0.5,0.3,1,0.8,1.3l21.6,13.7c0.5,0.2,0.9,0.3,1.4,0.3c0.5,0,1-0.2,1.4-0.3
		l21.5-13.6c0.5-0.4,0.9-0.8,0.9-1.4v-0.1v-0.1v-0.1v-0.1v-0.1v-0.1v-0.1v-0.1v-0.1v-0.1V485v-0.1v-0.1v-0.1v-0.1v-0.1v-0.1v-0.1
		v-0.1v-0.1v-0.1v-0.1v-0.1V484v-0.1v-0.1v-0.1v-0.1v-0.1v-0.1v-0.1v-0.1v-0.1v-0.1v-0.1v-0.1V483V483v-0.1v-0.1v-0.1v-0.1v-0.1
		v-0.1v-0.1v-0.1v-0.1v-0.1v-0.1V482V482v-0.1v-0.1v-0.1v-0.1v-0.1v-0.1v-0.1v-0.1v-0.1v-0.1v-0.1V481V481v-0.1v-0.1v-0.1v-0.1v-0.1
		v-0.1v-0.1v-0.1v-0.1v-0.1v-0.1v-0.1V480v-0.1v-0.1v-0.1v-0.1v-0.1v-0.1v-0.1v-0.1v-0.1v-0.1v-0.1v-0.1V479v-0.1v-0.1v-0.1v-0.1
		v-0.1v-0.1v-0.1v-0.1v-0.1v-0.1v-0.1v-0.1V478v-0.1v-0.1v-0.1v-0.1v-0.1v-0.1v-0.1v-0.1v-0.1v-0.1v-0.1v-0.1V477v-0.1v-0.1v-0.1
		v-0.1v-0.1v-0.1v-0.1v-0.1v-0.1v-0.1v-0.1v-0.1V476v-0.1v-0.1v-0.1v-0.1v-0.1v-0.1v-0.1v-0.1v-0.1v-0.1v-0.1v-0.1V475V475v-0.1
		v-0.1v-0.1v-0.1v-0.1v-0.1v-0.1v-0.1v-0.1v-0.1v-0.1V474V474v-0.1v-0.1v-0.1v-0.1v-0.1v-0.1v-0.1v-0.1v-0.1v-0.1v-0.1v-0.1V473
		v-0.1v-0.1v-0.1v-0.1v-0.1v-0.1v-0.1v-0.1v-0.1v-0.1v-0.1v-0.1V472v-0.1v-0.1v-0.1v-0.1v-0.1v-0.1v-0.1v-0.1v-0.1v-0.1v-0.1v-0.1
		V471v-0.1v-0.1v-0.1v-0.1v-0.1v-0.1v-0.1v-0.1v-0.1v-0.1v-0.1v-0.1V470v-0.1v-0.1v-0.1v-0.1v-0.1v-0.1v-0.1v-0.1v-0.1v-0.1v-0.1
		v-0.1V469v-0.1v-0.1v-0.1v-0.1v-0.1v-0.1v-0.1v-0.1v-0.1v-0.1v-0.1v-0.1V468V468v-0.1v-0.1v-0.1v-0.1v-0.1v-0.1v-0.1v-0.1v-0.1
		v-0.1v-0.1V467V467v-0.1L195.1,466.7C195.1,466.8,195.1,466.7,195.1,466.7z"/>
	
		<linearGradient id="SVGID_8_" gradientUnits="userSpaceOnUse" x1="376.4232" y1="335.1308" x2="376.4232" y2="390.3344" gradientTransform="matrix(1 0 0 -1 0 841.67)">
		<stop  offset="0" style="stop-color:#FFD15F;stop-opacity:0.2"/>
		<stop  offset="1" style="stop-color:#FFD15F;stop-opacity:0.8"/>
	</linearGradient>
	<path class="st14" d="M400.1,466.7L400.1,466.7c0-0.6-0.3-1.1-0.8-1.4L378,451.8c-0.5-0.3-1-0.5-1.6-0.5c-0.6,0-1.1,0.2-1.6,0.5
		l-21.5,13.6c-0.5,0.4-0.7,0.8-0.7,1.3v0.1v0.1v0.1v0.1v0.1v0.1v0.1v0.1v0.1v0.1v0.1v0.1v0.1v0.1v0.1v0.1v0.1v0.1v0.1v0.1v0.1v0.1
		v0.1v0.1v0.1v0.1v0.1v0.1v0.1v0.1v0.1v0.1v0.1v0.1v0.1v0.1v0.1v0.1v0.1v0.1v0.1v0.1v0.1v0.1v0.1v0.1v0.1v0.1v0.1v0.1v0.1v0.1v0.1
		v0.1v0.1v0.1v0.1v0.1v0.1v0.1v0.1v0.1v0.1v0.1v0.1v0.1v0.1v0.1v0.1v0.1v0.1v0.1v0.1v0.1v0.1v0.1v0.1v0.1v0.1v0.1v0.1v0.1v0.1v0.1
		v0.1v0.1v0.1v0.1v0.1v0.1v0.1v0.1v0.1v0.1v0.1v0.1v0.1v0.1v0.1v0.1v0.1v0.1v0.1v0.1v0.1v0.1v0.1v0.1v0.1v0.1v0.1v0.1v0.1v0.1v0.1
		v0.1v0.1v0.1v0.1v0.1v0.1v0.1v0.1v0.1v0.1v0.1v0.1v0.1v0.1v0.1v0.1v0.1v0.1v0.1v0.1v0.1v0.1v0.1v0.1v0.1v0.1v0.1v0.1v0.1v0.1v0.1
		v0.1v0.1v0.1v0.1v0.1v0.1v0.1v0.1v0.1v0.1v0.1v0.1v0.1v0.1v0.1v0.1v0.1v0.1v0.1v0.1v0.1v0.1v0.1v0.1v0.1v0.1v0.1v0.1v0.1v0.1v0.1
		v0.1v0.1v0.1v0.1v0.1v0.1v0.1v0.1v0.1v0.1v0.1v0.1v0.1v0.1v0.1v0.1v0.1v0.1v0.1v0.1v0.1v0.1v0.1v0.1v0.1v0.1v0.1v0.1v0.1v0.1v0.1
		v0.1v0.1v0.1v0.1v0.1v0.1v0.1v0.1v0.1v0.1v0.1v0.1v0.1v0.1v0.1v0.1v0.1v0.1v0.1v0.1v0.1v0.1v0.1v0.1v0.1v0.1v0.1v0.1v0.1v0.1v0.1
		v0.1v0.1v0.1v0.1v0.1v0.1v0.1v0.1v0.1v0.1v0.1v0.1v0.1c0,0.5,0.3,1,0.8,1.3l21.6,13.7c0.5,0.2,0.9,0.3,1.4,0.3c0.5,0,1-0.2,1.4-0.3
		l21.5-13.6c0.5-0.4,0.9-0.8,0.9-1.4v-0.1v-0.1v-0.1v-0.1v-0.1v-0.1v-0.1v-0.1v-0.1v-0.1V485v-0.1v-0.1v-0.1v-0.1v-0.1v-0.1v-0.1
		v-0.1v-0.1v-0.1v-0.1v-0.1V484v-0.1v-0.1v-0.1v-0.1v-0.1v-0.1v-0.1v-0.1v-0.1v-0.1v-0.1v-0.1V483V483v-0.1v-0.1v-0.1v-0.1v-0.1
		v-0.1v-0.1v-0.1v-0.1v-0.1v-0.1V482V482v-0.1v-0.1v-0.1v-0.1v-0.1v-0.1v-0.1v-0.1v-0.1v-0.1v-0.1V481V481v-0.1v-0.1v-0.1v-0.1v-0.1
		v-0.1v-0.1v-0.1v-0.1v-0.1v-0.1v-0.1V480v-0.1v-0.1v-0.1v-0.1v-0.1v-0.1v-0.1v-0.1v-0.1v-0.1v-0.1v-0.1V479v-0.1v-0.1v-0.1v-0.1
		v-0.1v-0.1v-0.1v-0.1v-0.1v-0.1v-0.1v-0.1V478v-0.1v-0.1v-0.1v-0.1v-0.1v-0.1v-0.1v-0.1v-0.1v-0.1v-0.1v-0.1V477v-0.1v-0.1v-0.1
		v-0.1v-0.1v-0.1v-0.1v-0.1v-0.1v-0.1v-0.1v-0.1V476v-0.1v-0.1v-0.1v-0.1v-0.1v-0.1v-0.1v-0.1v-0.1v-0.1v-0.1v-0.1V475V475v-0.1
		v-0.1v-0.1v-0.1v-0.1v-0.1v-0.1v-0.1v-0.1v-0.1v-0.1V474V474v-0.1v-0.1v-0.1v-0.1v-0.1v-0.1v-0.1v-0.1v-0.1v-0.1v-0.1v-0.1V473
		v-0.1v-0.1v-0.1v-0.1v-0.1v-0.1v-0.1v-0.1v-0.1v-0.1v-0.1v-0.1V472v-0.1v-0.1v-0.1v-0.1v-0.1v-0.1v-0.1v-0.1v-0.1v-0.1v-0.1v-0.1
		V471v-0.1v-0.1v-0.1v-0.1v-0.1v-0.1v-0.1v-0.1v-0.1v-0.1v-0.1v-0.1V470v-0.1v-0.1v-0.1v-0.1v-0.1v-0.1v-0.1v-0.1v-0.1v-0.1v-0.1
		v-0.1V469v-0.1v-0.1v-0.1v-0.1v-0.1v-0.1v-0.1v-0.1v-0.1v-0.1v-0.1v-0.1V468V468v-0.1v-0.1v-0.1v-0.1v-0.1v-0.1v-0.1v-0.1v-0.1
		v-0.1v-0.1V467V467v-0.1L400.1,466.7C400.2,466.8,400.1,466.8,400.1,466.7z"/>
</g>
<g>
	<polygon class="st6" points="273.9,465.4 224.7,437.7 224.7,448.2 273.9,476.1 322.1,447.6 322.1,437.2 	"/>
	<polygon class="st4" points="224.7,437.7 273.1,409.6 322.1,437.2 273.9,465.4 	"/>
	
		<linearGradient id="SVGID_9_" gradientUnits="userSpaceOnUse" x1="273.4419" y1="389.5406" x2="273.4419" y2="510.1604" gradientTransform="matrix(1 0 0 -1 0 841.67)">
		<stop  offset="0" style="stop-color:#FFD473;stop-opacity:0.8"/>
		<stop  offset="3.232032e-002" style="stop-color:#FFD67A;stop-opacity:0.7741"/>
		<stop  offset="0.2614" style="stop-color:#FFE5A9;stop-opacity:0.5909"/>
		<stop  offset="0.4796" style="stop-color:#FFF0CF;stop-opacity:0.4163"/>
		<stop  offset="0.6816" style="stop-color:#FFF8E9;stop-opacity:0.2548"/>
		<stop  offset="0.8611" style="stop-color:#FFFDF9;stop-opacity:0.1111"/>
		<stop  offset="1" style="stop-color:#FFFFFF;stop-opacity:0"/>
	</linearGradient>
	<polygon class="st15" points="224.7,415.1 224.7,331.5 322.1,331.5 322.1,423.7 273.9,452.1 224.7,424.2 	"/>
	<polygon class="st3" points="273.9,442.8 224.7,415.1 224.7,426.5 273.9,454.4 322.1,426 322.1,414.6 	"/>
	<polygon class="st2" points="224.7,415.1 273.1,386.9 322.1,414.6 273.9,442.8 	"/>
	<polygon class="st16" points="237.8,415.1 273.2,394.4 309.1,414.7 273.8,435.3 	"/>
	<g>
		<polygon class="st17" points="285.8,418.5 281.4,418.4 278.4,416.7 278.4,414.2 272.1,414.2 272.2,417.7 276.6,417.7 279.6,419.5 
			279.6,422 285.8,422 		"/>
		<path class="st17" d="M276.6,418.7c-3.2,0.9-6.4,0.4-8.4-0.8c-2.3-1.3-3.1-3.4-1.1-5.3c2.8-2.6,8.4-2.5,11.6-0.8
			c1.3,0.8,2.1,1.8,2.1,3c0,0.7-0.2,1.2-0.7,1.8c0.6,0.3,1.1,0.7,1.8,1c0.9,0,1.9,0,2.9,0c0.7-0.9,1-1.8,1-2.9c0-2-1.4-3.7-3.7-5.1
			c-1.4-0.8-3.2-1.4-5.2-1.8c-5.3-0.9-10.9,0.3-13.9,3c-3,2.7-2.6,6.1,1,8.5c0.2,0.2,0.5,0.3,0.7,0.5c3.6,2.1,9,2.7,13.7,1.5
			c0-0.5,0-1.1,0-1.7C277.9,419.4,277.2,419.1,276.6,418.7z"/>
	</g>
	<g>
		<g>
			<polygon id="XMLID_35_" class="st18" points="302.7,416.5 281.4,428.7 281.4,372 302.7,359.7 			"/>
			<polygon id="XMLID_34_" class="st18" points="281.4,428.7 260.3,416.5 260.3,359.7 281.4,372 			"/>
			<polygon id="XMLID_33_" class="st18" points="272.2,430.5 244.3,414.4 244.3,372.3 272.2,388.4 			"/>
			<polygon id="XMLID_1_" class="st18" points="272.2,430.5 278.4,426.9 278.4,384.9 272.2,388.4 			"/>
		</g>
		<polygon id="XMLID_88_" class="st19" points="302.7,416 281.4,428.2 281.4,371.5 302.7,359.3 		"/>
		<polygon id="XMLID_87_" class="st20" points="281.4,428.2 260.3,416 260.3,359.3 281.4,371.5 		"/>
		<polygon id="XMLID_86_" class="st21" points="272.2,430 244.3,413.9 244.3,371.5 272.2,387.6 		"/>
		<polygon id="XMLID_85_" class="st22" points="272.2,430 278.4,426.4 278.4,384 272.2,387.6 		"/>
		<polygon id="XMLID_84_" class="st23" points="260.3,373.6 260.3,373.6 260.3,362.3 250.5,367.9 244.3,371.5 272.2,387.6 
			278.4,384 		"/>
		<polygon id="XMLID_83_" class="st24" points="302.7,359.3 281.4,371.5 260.3,359.3 281.4,347 		"/>
		<polygon id="XMLID_82_" class="st24" points="301.1,385.1 283,395.5 283,374.8 301.1,364.4 		"/>
		<polygon id="XMLID_81_" class="st25" points="301.1,414.5 283,425 283,397.6 301.1,387.2 		"/>
		<polygon id="XMLID_80_" class="st19" points="283,388.3 283,374.8 297,366.7 297,382.7 283,390.8 		"/>
		<g id="XMLID_61_">
			<g id="XMLID_73_">
				<g id="XMLID_75_">
					<polygon id="XMLID_79_" class="st25" points="290.3,371.6 293.1,370 293.1,373.5 290.3,375.1 					"/>
					<polygon id="XMLID_78_" class="st25" points="293.8,369.6 296.5,368 296.5,371.5 293.8,373.1 					"/>
					<polygon id="XMLID_77_" class="st25" points="283.6,375.5 286.3,374 286.3,377.4 283.6,379 					"/>
					<polygon id="XMLID_76_" class="st25" points="287,373.6 289.7,372 289.7,375.4 287,377 					"/>
				</g>
			</g>
			<g id="XMLID_62_">
				<g id="XMLID_68_">
					<polygon id="XMLID_72_" class="st25" points="290.3,376.5 293.1,375 293.1,378.4 290.3,380 					"/>
					<polygon id="XMLID_71_" class="st25" points="293.8,374.6 296.5,373 296.5,376.5 293.8,378 					"/>
					<polygon id="XMLID_70_" class="st25" points="283.6,380.4 286.3,378.8 286.3,382.3 283.6,383.9 					"/>
					<polygon id="XMLID_69_" class="st25" points="287,378.5 289.7,376.9 289.7,380.4 287,382 					"/>
				</g>
				<g id="XMLID_63_">
					<polygon id="XMLID_67_" class="st25" points="290.3,381.1 293.1,379.5 293.1,383 290.3,384.6 					"/>
					<polygon id="XMLID_66_" class="st25" points="293.8,379.1 296.5,377.6 296.5,381.1 293.8,382.6 					"/>
					<polygon id="XMLID_65_" class="st25" points="283.6,385 286.3,383.4 286.3,386.9 283.6,388.5 					"/>
					<polygon id="XMLID_64_" class="st25" points="287,383 289.7,381.4 289.7,384.9 287,386.5 					"/>
				</g>
			</g>
		</g>
		<polygon id="XMLID_60_" class="st26" points="283,395.5 285.7,389.3 285.7,373.2 283,374.8 		"/>
		<polygon id="XMLID_59_" class="st27" points="299.7,359.3 281.4,369.8 263.2,359.3 281.4,348.7 		"/>
		<polygon id="XMLID_58_" class="st23" points="299.7,359.3 281.4,369.8 263.2,359.3 281.4,348.7 		"/>
		<polygon id="XMLID_57_" class="st19" points="281.4,350.7 298,360.2 299.7,359.3 281.4,348.7 263.2,359.3 264.9,360.2 		"/>
		<polygon id="XMLID_56_" class="st28" points="246.3,375 246.3,412.4 270.2,426.3 270.2,388.8 		"/>
		<path id="XMLID_53_" class="st29" d="M281.4,347l-21.2,12.3l21.2,12.3l21.2-12.3L281.4,347z M263.2,359.3l18.3-10.5l18.3,10.5
			l-18.3,10.5L263.2,359.3z"/>
		<g>
			<polygon id="XMLID_52_" class="st28" points="280.2,383.2 261.3,372.4 261.3,370.6 280.2,381.5 			"/>
			<polygon id="XMLID_51_" class="st28" points="280.2,380.5 261.3,369.6 261.3,368 280.2,378.8 			"/>
			<polygon id="XMLID_50_" class="st28" points="280.2,377.8 261.3,366.9 261.3,365.2 280.2,376.1 			"/>
			<polygon id="XMLID_49_" class="st28" points="280.2,375.1 261.3,364.2 261.3,362.5 280.2,373.4 			"/>
		</g>
		<g>
			<g>
				<defs>
					<polygon id="SVGID_10_" points="301.1,414.5 283,425 283,397.6 301.1,387.2 					"/>
				</defs>
				<clipPath id="SVGID_11_">
					<use xlink:href="#SVGID_10_"  style="overflow:visible;"/>
				</clipPath>
				<g id="XMLID_32_" class="st30">
					<g id="XMLID_47_">
						<rect id="XMLID_48_" x="299" y="379.5" class="st22" width="0.5" height="42.1"/>
					</g>
					<g id="XMLID_45_">
						<rect id="XMLID_46_" x="296.3" y="380.9" class="st22" width="0.5" height="42.1"/>
					</g>
					<g id="XMLID_43_">
						<rect id="XMLID_44_" x="293.5" y="383" class="st22" width="0.5" height="42.1"/>
					</g>
					<g id="XMLID_41_">
						<rect id="XMLID_42_" x="290.9" y="385" class="st22" width="0.5" height="42.1"/>
					</g>
					<g id="XMLID_39_">
						<rect id="XMLID_40_" x="288.1" y="386.3" class="st22" width="0.5" height="42.1"/>
					</g>
					<g id="XMLID_37_">
						<rect id="XMLID_38_" x="285.5" y="388.4" class="st22" width="0.5" height="42.1"/>
					</g>
				</g>
			</g>
		</g>
		<g id="XMLID_12_">
			<g>
				<defs>
					<polygon id="SVGID_12_" points="246.3,375 246.3,412.4 270.2,426.3 270.2,388.8 					"/>
				</defs>
				<clipPath id="SVGID_13_">
					<use xlink:href="#SVGID_12_"  style="overflow:visible;"/>
				</clipPath>
				<g id="XMLID_14_" class="st31">
					<g id="XMLID_29_">
						<rect id="XMLID_30_" x="248.8" y="373.8" class="st27" width="0.5" height="42.1"/>
					</g>
					<g id="XMLID_27_">
						<rect id="XMLID_28_" x="251.4" y="375.2" class="st27" width="0.5" height="42.1"/>
					</g>
					<g id="XMLID_25_">
						<rect id="XMLID_26_" x="254.2" y="377.2" class="st27" width="0.5" height="42.1"/>
					</g>
					<g id="XMLID_23_">
						<rect id="XMLID_24_" x="256.9" y="379.2" class="st27" width="0.5" height="42.1"/>
					</g>
					<g id="XMLID_21_">
						<rect id="XMLID_22_" x="259.6" y="380.6" class="st27" width="0.5" height="42.1"/>
					</g>
					<g id="XMLID_19_">
						<rect id="XMLID_20_" x="262.3" y="382.6" class="st27" width="0.5" height="42.1"/>
					</g>
					<g id="XMLID_17_">
						<rect id="XMLID_18_" x="265" y="383.9" class="st27" width="0.5" height="42.1"/>
					</g>
					<g id="XMLID_15_">
						<rect id="XMLID_16_" x="267.7" y="385.3" class="st27" width="0.5" height="42.1"/>
					</g>
				</g>
			</g>
		</g>
		<g id="XMLID_5_">
			<g id="XMLID_10_">
				
					<rect id="XMLID_11_" x="243.4" y="391.5" transform="matrix(-0.866 -0.5 0.5 -0.866 285.7501 861.054)" class="st21" width="29.8" height="1.5"/>
			</g>
			<g id="XMLID_8_">
				
					<rect id="XMLID_9_" x="243.5" y="401.3" transform="matrix(-0.866 -0.5 0.5 -0.866 280.9901 879.4285)" class="st21" width="29.6" height="1.5"/>
			</g>
			<g id="XMLID_6_">
				
					<rect id="XMLID_7_" x="243.5" y="411" transform="matrix(-0.866 -0.5 0.5 -0.866 275.9201 897.5263)" class="st21" width="29.4" height="1.5"/>
			</g>
		</g>
		<g class="st32">
			<g>
				<defs>
					<polygon id="SVGID_14_" points="284.2,359.1 284.2,359.4 284.2,359.4 					"/>
				</defs>
				<clipPath id="SVGID_15_">
					<use xlink:href="#SVGID_14_"  style="overflow:visible;"/>
				</clipPath>
				<g class="st33">
					<polyline class="st34" points="284.2,359.1 284.2,359.4 284.2,359.4 284.2,359.1 284.2,359.1 					"/>
				</g>
			</g>
		</g>
		<g>
			<polygon class="st35" points="280.8,360.3 280.8,360.5 280.8,359.1 280.8,358.9 			"/>
		</g>
		<g>
			<path class="st36" d="M287.9,360.7L287.9,360.7c0.1-0.1,0.1-0.2,0.1-0.2c0-0.1,0.1-0.2,0.1-0.2l0,0c0-0.1,0-0.1,0.1-0.2
				c0-0.1,0.1-0.2,0.1-0.2l0,0c0-0.1,0-0.2,0-0.2c0-0.1,0-0.2,0-0.2v-0.1v-0.3c0,0.1,0,0.2,0,0.2s0,0.2,0,0.2s-0.1,0.2-0.1,0.2
				s0,0.1-0.1,0.2c0,0.1-0.1,0.2-0.1,0.2c0,0.1-0.1,0.2-0.1,0.2c-0.1,0.2-0.2,0.2-0.2,0.4c-0.5,0-1.1,0-1.6,0v0.3c0.5,0,1.1,0,1.6,0
				C287.7,361,287.8,360.8,287.9,360.7z"/>
			<rect x="280.6" y="360.7" class="st36" width="2.5" height="0.3"/>
			<rect x="284.8" y="363.2" class="st36" width="3.5" height="0.3"/>
		</g>
		<g>
			<polygon class="st35" points="283.7,361.9 283.7,362.2 283.7,361.2 283.7,361 			"/>
		</g>
		<g>
			<path class="st37" d="M277.2,359.1c0-0.1,0.1-0.2,0.1-0.2v-0.1c0.1-0.1,0.1-0.2,0.2-0.2l0,0c0.1-0.1,0.2-0.2,0.3-0.3
				c0.2-0.2,0.4-0.3,0.6-0.5c0.2-0.2,0.5-0.3,0.8-0.4c0.2-0.1,0.5-0.2,0.8-0.2h0.1c0.3-0.1,0.5-0.1,0.8-0.1l0,0c0.3,0,0.6,0,0.9,0
				l0,0c0.3,0,0.6,0.1,0.8,0.2c0,0,0,0,0.1,0c0.2,0.1,0.5,0.2,0.7,0.2c0.1,0,0.1,0,0.2,0.1c0.2,0.1,0.5,0.2,0.7,0.3
				c0.4,0.2,0.7,0.5,0.8,0.8c0.2,0.3,0.3,0.6,0.3,1v-0.3c0-0.7-0.5-1.3-1.2-1.7c-0.2-0.1-0.4-0.2-0.6-0.3h-0.1c-0.1,0-0.1,0-0.2-0.1
				c-0.1,0-0.2-0.1-0.3-0.1c-0.2,0-0.2-0.1-0.4-0.1c0,0,0,0-0.1,0l0,0c-0.2,0-0.3-0.1-0.5-0.1c-0.2,0-0.2,0-0.4-0.1l0,0l0,0
				c-0.2,0-0.3,0-0.5,0s-0.3,0-0.5,0l0,0l0,0c-0.2,0-0.3,0-0.4,0c-0.2,0-0.3,0-0.4,0.1H280l0,0c-0.2,0.1-0.5,0.1-0.8,0.2l0,0
				c-0.3,0.1-0.6,0.2-0.8,0.4c0,0,0,0-0.1,0c-0.2,0.2-0.4,0.2-0.5,0.5l0,0c-0.1,0.1-0.2,0.2-0.3,0.3l0,0l0,0
				c-0.1,0.1-0.1,0.2-0.2,0.2c0,0,0,0,0,0.1v0.1c0,0,0,0.1-0.1,0.1c0,0.1,0,0.1,0,0.2L277.2,359.1L277.2,359.1
				C277.1,358.9,277.1,359,277.2,359.1C277.1,359.1,277.1,359.1,277.2,359.1l-0.1,0.4C277.1,359.4,277.1,359.2,277.2,359.1
				C277.1,359.1,277.1,359.1,277.2,359.1z"/>
			<path class="st37" d="M285.1,360.1v0.3c0.3,0.2,0.7,0.4,1,0.5v-0.3C285.8,360.5,285.4,360.4,285.1,360.1z"/>
			<polygon class="st37" points="283.1,361 284.8,362 284.8,361.7 283.1,360.7 			"/>
			<path class="st37" d="M282.9,363c-0.2,0-0.5,0.1-0.6,0.1c-0.1,0-0.2,0-0.3,0c-0.3,0-0.6,0-0.9,0l0,0c-0.3,0-0.6,0-0.9-0.1
				c-0.1,0-0.2,0-0.2,0c-0.3,0-0.5-0.1-0.8-0.2h-0.1c-0.3-0.1-0.6-0.2-0.8-0.2c-0.2,0-0.2-0.1-0.4-0.2c-0.2-0.1-0.3-0.1-0.5-0.2
				c-0.3-0.2-0.6-0.3-0.9-0.5c-0.2-0.1-0.3-0.2-0.4-0.2c-1.1-0.8-1.7-1.7-1.7-2.7v0.3c0,0.9,0.5,1.9,1.7,2.7
				c0.2,0.1,0.2,0.2,0.4,0.2c0.3,0.2,0.6,0.3,0.9,0.5c0,0,0.1,0,0.1,0.1c0.2,0.1,0.2,0.1,0.4,0.2c0.2,0.1,0.2,0.1,0.4,0.2h0.1
				c0.2,0.1,0.5,0.2,0.8,0.2l0,0h0.1c0.2,0,0.4,0.1,0.5,0.1c0.1,0,0.2,0,0.2,0c0.1,0,0.2,0,0.2,0c0.1,0,0.2,0,0.2,0
				c0.2,0,0.5,0,0.7,0l0,0l0,0c0.2,0,0.5,0,0.7,0c0.1,0,0.2,0,0.2,0c0.1,0,0.2,0,0.3,0c0.1,0,0.2,0,0.3,0c0.2,0,0.2,0,0.4-0.1
				c0.2,0,0.2,0,0.4-0.1c0.1,0,0.1,0,0.2,0c0.2-0.1,0.5-0.1,0.8-0.2v-0.3c-0.3,0.1-0.6,0.2-0.9,0.2C283.1,363,283,363,282.9,363z"/>
		</g>
		<g>
			<polygon class="st17" points="288.3,361.1 285.8,361.1 284.1,360.1 284.1,358.7 280.6,358.7 280.6,360.7 283.1,360.7 
				284.8,361.7 284.8,363.2 288.3,363.2 			"/>
			<path class="st17" d="M283.1,361.3c-1.8,0.5-3.6,0.2-4.8-0.5c-1.3-0.8-1.8-1.9-0.6-3c1.6-1.4,4.8-1.4,6.5-0.4
				c0.7,0.4,1.2,1,1.2,1.7c0,0.4-0.2,0.7-0.4,1.1c0.3,0.2,0.7,0.4,1,0.5c0.5,0,1.1,0,1.6,0c0.4-0.5,0.6-1.1,0.6-1.6
				c0-1.1-0.8-2.1-2.1-2.9c-0.8-0.5-1.8-0.8-3-1c-3-0.5-6.2,0.2-7.8,1.7c-1.7,1.5-1.4,3.4,0.5,4.8c0.2,0.1,0.2,0.2,0.4,0.2
				c2.1,1.1,5.1,1.5,7.8,0.8c0-0.3,0-0.6,0-0.9C283.8,361.6,283.4,361.5,283.1,361.3z"/>
		</g>
	</g>
</g>
</svg>
