<?xml version="1.0" encoding="utf-8"?>
<!-- Generator: Adobe Illustrator 22.0.0, SVG Export Plug-In . SVG Version: 6.00 Build 0)  -->
<svg version="1.1" id="Layer_1" xmlns="http://www.w3.org/2000/svg" xmlns:xlink="http://www.w3.org/1999/xlink" x="0px" y="0px"
	 viewBox="0 0 568 388" style="enable-background:new 0 0 568 388;" xml:space="preserve">
<style type="text/css">
	.st0{fill:#594C35;}
	.st1{fill:#E5E5E5;}
	.st2{fill:#FFD473;}
	.st3{fill:#E0B153;}
	.st4{fill:#EDEDEE;}
	.st5{fill:#6C6F80;}
	.st6{fill:#C3C3C0;}
	.st7{fill:#B2B2B2;}
	.st8{fill:#C9C9C9;}
	.st9{fill:#E2E2E2;}
	.st10{fill:#EBEBEC;}
	.st11{fill:#C3C5C7;}
	.st12{fill:#F2F2F2;}
	.st13{fill:#FEFEFD;}
	.st14{fill:#1F6AAD;}
	.st15{opacity:0.2;}
	.st16{fill:#F1F8F8;}
	.st17{fill:#5B9FDE;}
	.st18{fill:#F7F7F7;}
	.st19{clip-path:url(#SVGID_2_);}
	.st20{clip-path:url(#SVGID_4_);}
	.st21{enable-background:new    ;}
	.st22{clip-path:url(#SVGID_6_);enable-background:new    ;}
	.st23{fill:#6A5417;}
	.st24{fill:#665117;}
	.st25{fill:#8E701F;}
	.st26{fill:#7A5D1B;}
	.st27{fill:#CCA22E;}
	.st28{display:none;opacity:0.6;}
	.st29{display:inline;}
	.st30{opacity:0.5;}
	.st31{fill:#77C3E8;}
	.st32{fill:#AFAFAF;}
	.st33{fill:#CE7D13;}
	.st34{fill:#FFC50D;}
	.st35{opacity:0.43;}
	.st36{fill:#FFFC8F;}
	.st37{fill:#F19D00;}
	.st38{fill:#FFD400;}
	.st39{fill:#FFD41F;}
	.st40{fill:#FFFFFF;}
	.st41{fill:#E09500;}
	.st42{opacity:0.6;enable-background:new    ;}
	.st43{font-family:'MicrosoftYaHeiUILight';}
	.st44{font-size:12px;}
</style>
<g>
	<polygon class="st0" points="285,193.9 67.4,193.9 67.4,191.9 283,191.9 283,161.6 285,161.6 	"/>
</g>
<g>
	<polygon class="st0" points="500.7,193.9 283,193.9 283,161.6 285,161.6 285,191.9 500.7,191.9 	"/>
</g>
<g>
	<rect x="66.4" y="192" class="st0" width="2" height="51.9"/>
</g>
<g>
	<rect x="283" y="192.9" class="st0" width="2" height="51"/>
</g>
<g>
	<rect x="499.7" y="192" class="st0" width="2" height="51.9"/>
</g>
<g>
	<path class="st1" d="M349.2,127.1L349.2,127.1l-60.5-38.4c-1.3-0.8-2.9-1.3-4.6-1.3s-3.2,0.5-4.6,1.3l-60.8,38.6
		c-1.2,1-1.9,2.2-1.9,3.6s0.8,2.7,2.1,3.7l61.2,38.9c1.2,0.6,2.5,1,4,1c1.4,0,2.8-0.3,4-1l0,0l60.8-38.6c1.6-1,2.5-2.4,2.5-4
		C351.4,129.5,350.5,128.1,349.2,127.1z"/>
</g>
<g>
	<path class="st1" d="M565.9,320.1L565.9,320.1l-60.5-38.4c-1.3-0.8-2.9-1.3-4.6-1.3s-3.2,0.5-4.6,1.3l-60.8,38.6
		c-1.2,1-1.9,2.2-1.9,3.6s0.8,2.7,2.1,3.7l61.2,38.9c1.2,0.6,2.5,1,4,1c1.4,0,2.8-0.3,4-1l0,0l60.8-38.6c1.6-1,2.5-2.4,2.5-4
		C568,322.5,567.2,321.2,565.9,320.1z"/>
</g>
<g>
	<path class="st1" d="M349.2,320.1L349.2,320.1l-60.5-38.4c-1.3-0.8-2.9-1.3-4.6-1.3s-3.2,0.5-4.6,1.3l-60.8,38.6
		c-1.2,1-1.9,2.2-1.9,3.6s0.8,2.7,2.1,3.7l61.2,38.9c1.2,0.6,2.5,1,4,1c1.4,0,2.8-0.3,4-1l0,0l60.8-38.6c1.6-1,2.5-2.4,2.5-4
		C351.4,322.5,350.5,321.2,349.2,320.1z"/>
</g>
<g>
	<path class="st1" d="M132.5,320.1L132.5,320.1L72,281.7c-1.3-0.8-2.9-1.3-4.6-1.3s-3.2,0.5-4.6,1.3L2,320.3c-1.2,1-1.9,2.2-1.9,3.6
		s0.8,2.7,2.1,3.7l61.2,38.9c1.2,0.6,2.5,1,4,1c1.4,0,2.8-0.3,4-1l0,0l60.8-38.6c1.6-1,2.5-2.4,2.5-4
		C134.7,322.5,133.8,321.2,132.5,320.1z"/>
</g>
<g>
	<path class="st2" d="M132.5,292.3L132.5,292.3L72,253.9c-1.3-0.8-2.9-1.3-4.6-1.3s-3.2,0.5-4.6,1.3L2,292.5c-1.2,1-1.9,2.2-1.9,3.6
		s0.8,2.7,2.1,3.7l61.2,38.9c1.2,0.6,2.5,1,4,1c1.4,0,2.8-0.3,4-1l0,0l60.8-38.6c1.6-1,2.5-2.4,2.5-4
		C134.7,294.6,133.8,293.3,132.5,292.3z"/>
</g>
<g>
	<path class="st3" d="M132.1,300l-60.8,38.6l0,0c-1.2,0.6-2.5,1-4,1c-1.4,0-2.8-0.3-4-1L2.2,299.7c-1.3-1-2.1-2.3-2.1-3.7
		c0,0,0,11.4,0,12.3c0,1.4,0.8,2.7,2.1,3.7l61.2,38.9c1.2,0.6,2.5,1,4,1c1.4,0,2.8-0.3,4-1l0,0l60.8-38.6c1.6-1,2.5-2.4,2.5-4
		c0-1,0-12.3,0-12.3C134.7,297.6,133.7,299,132.1,300z"/>
</g>
<g>
	<path class="st4" d="M132.5,269.3L132.5,269.3L72,230.8c-1.3-0.8-2.9-1.3-4.6-1.3s-3.2,0.5-4.6,1.3L2,269.5c-1.2,1-1.9,2.2-1.9,3.6
		s0.8,2.7,2.1,3.7l61.2,38.9c1.2,0.6,2.5,1,4,1c1.4,0,2.8-0.3,4-1l0,0l60.8-38.6c1.6-1,2.5-2.4,2.5-4
		C134.7,271.6,133.8,270.3,132.5,269.3z"/>
</g>
<g>
	<path class="st5" d="M132.1,277l-60.8,38.6l0,0c-1.2,0.6-2.5,1-4,1c-1.4,0-2.8-0.3-4-1L2.2,276.7c-1.3-1-2.1-2.3-2.1-3.7
		c0,0,0,11.4,0,12.3c0,1.4,0.8,2.7,2.1,3.7l61.2,38.9c1.2,0.6,2.5,1,4,1c1.4,0,2.8-0.3,4-1l0,0l60.8-38.6c1.6-1,2.5-2.4,2.5-4
		c0-1,0-12.3,0-12.3C134.7,274.6,133.7,276,132.1,277z"/>
</g>
<g>
	<path class="st5" d="M132.1,277l-60.8,38.6l0,0c-1.2,0.6-2.5,1-4,1c-1.4,0-2.8-0.3-4-1L2.2,276.7c-1.3-1-2.1-2.3-2.1-3.7
		c0,0,0,11.4,0,12.3c0,1.4,0.8,2.7,2.1,3.7l61.2,38.9c1.2,0.6,2.5,1,4,1c1.4,0,2.8-0.3,4-1l0,0l60.8-38.6c1.6-1,2.5-2.4,2.5-4
		c0-1,0-12.3,0-12.3C134.7,274.6,133.7,276,132.1,277z"/>
</g>
<g>
	<path class="st6" d="M132.1,277l-60.8,38.6l0,0c-1.2,0.6-2.5,1-4,1c-1.4,0-2.8-0.3-4-1L2.2,276.7c-1.3-1-2.1-2.3-2.1-3.7
		c0,0,0,11.4,0,12.3c0,1.4,0.8,2.7,2.1,3.7l61.2,38.9c1.2,0.6,2.5,1,4,1c1.4,0,2.8-0.3,4-1l0,0l60.8-38.6c1.6-1,2.5-2.4,2.5-4
		c0-1,0-12.3,0-12.3C134.7,274.6,133.7,276,132.1,277z"/>
</g>
<g>
	<path class="st2" d="M349.2,292.3L349.2,292.3l-60.5-38.4c-1.3-0.8-2.9-1.3-4.6-1.3s-3.2,0.5-4.6,1.3l-60.8,38.6
		c-1.2,1-1.9,2.2-1.9,3.6s0.8,2.7,2.1,3.7l61.2,38.9c1.2,0.6,2.5,1,4,1c1.4,0,2.8-0.3,4-1l0,0l60.8-38.6c1.6-1,2.5-2.4,2.5-4
		C351.4,294.6,350.5,293.3,349.2,292.3z"/>
</g>
<g>
	<path class="st3" d="M348.8,300L288,338.6l0,0c-1.2,0.6-2.5,1-4,1c-1.4,0-2.8-0.3-4-1l-61.2-38.9c-1.3-1-2.1-2.3-2.1-3.7
		c0,0,0,11.4,0,12.3c0,1.4,0.8,2.7,2.1,3.7l61.2,38.9c1.2,0.6,2.5,1,4,1c1.4,0,2.8-0.3,4-1l0,0l60.8-38.6c1.6-1,2.5-2.4,2.5-4
		c0-1,0-12.3,0-12.3C351.4,297.6,350.4,299,348.8,300z"/>
</g>
<g>
	<path class="st4" d="M349.2,269.3L349.2,269.3l-60.5-38.4c-1.3-0.8-2.9-1.3-4.6-1.3s-3.2,0.5-4.6,1.3l-60.8,38.6
		c-1.2,1-1.9,2.2-1.9,3.6s0.8,2.7,2.1,3.7l61.2,38.9c1.2,0.6,2.5,1,4,1c1.4,0,2.8-0.3,4-1l0,0l60.8-38.6c1.6-1,2.5-2.4,2.5-4
		C351.4,271.6,350.5,270.3,349.2,269.3z"/>
</g>
<g>
	<path class="st5" d="M348.8,277L288,315.6l0,0c-1.2,0.6-2.5,1-4,1c-1.4,0-2.8-0.3-4-1l-61.2-38.9c-1.3-1-2.1-2.3-2.1-3.7
		c0,0,0,11.4,0,12.3c0,1.4,0.8,2.7,2.1,3.7l61.2,38.9c1.2,0.6,2.5,1,4,1c1.4,0,2.8-0.3,4-1l0,0l60.8-38.6c1.6-1,2.5-2.4,2.5-4
		c0-1,0-12.3,0-12.3C351.4,274.6,350.4,276,348.8,277z"/>
</g>
<g>
	<path class="st5" d="M348.8,277L288,315.6l0,0c-1.2,0.6-2.5,1-4,1c-1.4,0-2.8-0.3-4-1l-61.2-38.9c-1.3-1-2.1-2.3-2.1-3.7
		c0,0,0,11.4,0,12.3c0,1.4,0.8,2.7,2.1,3.7l61.2,38.9c1.2,0.6,2.5,1,4,1c1.4,0,2.8-0.3,4-1l0,0l60.8-38.6c1.6-1,2.5-2.4,2.5-4
		c0-1,0-12.3,0-12.3C351.4,274.6,350.4,276,348.8,277z"/>
</g>
<g>
	<path class="st6" d="M348.8,277L288,315.6l0,0c-1.2,0.6-2.5,1-4,1c-1.4,0-2.8-0.3-4-1l-61.2-38.9c-1.3-1-2.1-2.3-2.1-3.7
		c0,0,0,11.4,0,12.3c0,1.4,0.8,2.7,2.1,3.7l61.2,38.9c1.2,0.6,2.5,1,4,1c1.4,0,2.8-0.3,4-1l0,0l60.8-38.6c1.6-1,2.5-2.4,2.5-4
		c0-1,0-12.3,0-12.3C351.4,274.6,350.4,276,348.8,277z"/>
</g>
<g>
	<path class="st2" d="M565.9,292.3L565.9,292.3l-60.5-38.4c-1.3-0.8-2.9-1.3-4.6-1.3s-3.2,0.5-4.6,1.3l-60.8,38.6
		c-1.2,1-1.9,2.2-1.9,3.6s0.8,2.7,2.1,3.7l61.2,38.9c1.2,0.6,2.5,1,4,1c1.4,0,2.8-0.3,4-1l0,0l60.8-38.6c1.6-1,2.5-2.4,2.5-4
		C568,294.6,567.2,293.3,565.9,292.3z"/>
</g>
<g>
	<path class="st3" d="M565.5,300l-60.8,38.6l0,0c-1.2,0.6-2.5,1-4,1c-1.4,0-2.8-0.3-4-1l-61.2-38.9c-1.3-1-2.1-2.3-2.1-3.7
		c0,0,0,11.4,0,12.3c0,1.4,0.8,2.7,2.1,3.7l61.2,38.9c1.2,0.6,2.5,1,4,1c1.4,0,2.8-0.3,4-1l0,0l60.8-38.6c1.6-1,2.5-2.4,2.5-4
		c0-1,0-12.3,0-12.3C568,297.6,567.1,299,565.5,300z"/>
</g>
<g>
	<path class="st4" d="M565.9,269.3L565.9,269.3l-60.5-38.4c-1.3-0.8-2.9-1.3-4.6-1.3s-3.2,0.5-4.6,1.3l-60.8,38.6
		c-1.2,1-1.9,2.2-1.9,3.6s0.8,2.7,2.1,3.7l61.2,38.9c1.2,0.6,2.5,1,4,1c1.4,0,2.8-0.3,4-1l0,0l60.8-38.6c1.6-1,2.5-2.4,2.5-4
		C568,271.6,567.2,270.3,565.9,269.3z"/>
</g>
<g>
	<path class="st5" d="M565.5,277l-60.8,38.6l0,0c-1.2,0.6-2.5,1-4,1c-1.4,0-2.8-0.3-4-1l-61.2-38.9c-1.3-1-2.1-2.3-2.1-3.7
		c0,0,0,11.4,0,12.3c0,1.4,0.8,2.7,2.1,3.7l61.2,38.9c1.2,0.6,2.5,1,4,1c1.4,0,2.8-0.3,4-1l0,0l60.8-38.6c1.6-1,2.5-2.4,2.5-4
		c0-1,0-12.3,0-12.3C568,274.6,567.1,276,565.5,277z"/>
</g>
<g>
	<path class="st5" d="M565.5,277l-60.8,38.6l0,0c-1.2,0.6-2.5,1-4,1c-1.4,0-2.8-0.3-4-1l-61.2-38.9c-1.3-1-2.1-2.3-2.1-3.7
		c0,0,0,11.4,0,12.3c0,1.4,0.8,2.7,2.1,3.7l61.2,38.9c1.2,0.6,2.5,1,4,1c1.4,0,2.8-0.3,4-1l0,0l60.8-38.6c1.6-1,2.5-2.4,2.5-4
		c0-1,0-12.3,0-12.3C568,274.6,567.1,276,565.5,277z"/>
</g>
<g>
	<path class="st6" d="M565.5,277l-60.8,38.6l0,0c-1.2,0.6-2.5,1-4,1c-1.4,0-2.8-0.3-4-1l-61.2-38.9c-1.3-1-2.1-2.3-2.1-3.7
		c0,0,0,11.4,0,12.3c0,1.4,0.8,2.7,2.1,3.7l61.2,38.9c1.2,0.6,2.5,1,4,1c1.4,0,2.8-0.3,4-1l0,0l60.8-38.6c1.6-1,2.5-2.4,2.5-4
		c0-1,0-12.3,0-12.3C568,274.6,567.1,276,565.5,277z"/>
</g>
<g>
	<path class="st2" d="M349.2,102.1L349.2,102.1l-60.5-38.4c-1.3-0.8-2.9-1.3-4.6-1.3s-3.2,0.5-4.6,1.3l-60.8,38.6
		c-1.2,1-1.9,2.2-1.9,3.6s0.8,2.7,2.1,3.7l61.2,38.9c1.2,0.6,2.5,1,4,1c1.4,0,2.8-0.3,4-1l0,0l60.8-38.6c1.6-1,2.5-2.4,2.5-4
		C351.4,104.4,350.5,103.1,349.2,102.1z"/>
</g>
<g>
	<path class="st3" d="M348.8,109.8L288,148.4l0,0c-1.2,0.6-2.5,1-4,1c-1.4,0-2.8-0.3-4-1l-61.2-38.9c-1.3-1-2.1-2.3-2.1-3.7
		c0,0,0,11.4,0,12.3c0,1.4,0.8,2.7,2.1,3.7l61.2,38.9c1.2,0.6,2.5,1,4,1c1.4,0,2.8-0.3,4-1l0,0l60.8-38.6c1.6-1,2.5-2.4,2.5-4
		c0-1,0-12.3,0-12.3C351.4,107.4,350.4,108.8,348.8,109.8z"/>
</g>
<g>
	<path class="st4" d="M349.2,79.1L349.2,79.1l-60.5-38.4c-1.3-0.8-2.9-1.3-4.6-1.3s-3.2,0.5-4.6,1.3l-60.8,38.6
		c-1.2,1-1.9,2.2-1.9,3.6s0.8,2.7,2.1,3.7l61.2,38.9c1.2,0.6,2.5,1,4,1c1.4,0,2.8-0.3,4-1l0,0l60.8-38.6c1.6-1,2.5-2.4,2.5-4
		C351.4,81.4,350.5,80.1,349.2,79.1z"/>
</g>
<g>
	<path class="st5" d="M348.8,86.8L288,125.4l0,0c-1.2,0.6-2.5,1-4,1c-1.4,0-2.8-0.3-4-1l-61.2-38.9c-1.3-1-2.1-2.3-2.1-3.7
		c0,0,0,11.4,0,12.3c0,1.4,0.8,2.7,2.1,3.7l61.2,38.9c1.2,0.6,2.5,1,4,1c1.4,0,2.8-0.3,4-1l0,0l60.8-38.6c1.6-1,2.5-2.4,2.5-4
		c0-1,0-12.3,0-12.3C351.4,84.4,350.4,85.8,348.8,86.8z"/>
</g>
<g>
	<path class="st5" d="M348.8,86.8L288,125.4l0,0c-1.2,0.6-2.5,1-4,1c-1.4,0-2.8-0.3-4-1l-61.2-38.9c-1.3-1-2.1-2.3-2.1-3.7
		c0,0,0,11.4,0,12.3c0,1.4,0.8,2.7,2.1,3.7l61.2,38.9c1.2,0.6,2.5,1,4,1c1.4,0,2.8-0.3,4-1l0,0l60.8-38.6c1.6-1,2.5-2.4,2.5-4
		c0-1,0-12.3,0-12.3C351.4,84.4,350.4,85.8,348.8,86.8z"/>
</g>
<g>
	<path class="st6" d="M348.8,86.8L288,125.4l0,0c-1.2,0.6-2.5,1-4,1c-1.4,0-2.8-0.3-4-1l-61.2-38.9c-1.3-1-2.1-2.3-2.1-3.7
		c0,0,0,11.4,0,12.3c0,1.4,0.8,2.7,2.1,3.7l61.2,38.9c1.2,0.6,2.5,1,4,1c1.4,0,2.8-0.3,4-1l0,0l60.8-38.6c1.6-1,2.5-2.4,2.5-4
		c0-1,0-12.3,0-12.3C351.4,84.4,350.4,85.8,348.8,86.8z"/>
</g>
<g>
	<g>
		<g id="XMLID_4_">
			<polygon class="st7" points="321,88.1 294.2,103.6 294.2,31.7 321,16.2 			"/>
		</g>
		<g id="XMLID_3_">
			<polygon class="st7" points="294.2,103.6 267.4,88.1 267.4,16.2 294.2,31.7 			"/>
		</g>
		<g id="XMLID_2_">
			<polygon class="st7" points="282.5,105.9 247,85.4 247,32 282.5,52.5 			"/>
		</g>
		<g id="XMLID_1_">
			<polygon class="st7" points="282.5,105.9 290.3,101.3 290.3,47.9 282.5,52.5 			"/>
		</g>
	</g>
	<g id="XMLID_88_">
		<polygon class="st8" points="321,87.4 294.2,102.9 294.2,31 321,15.5 		"/>
	</g>
	<g id="XMLID_87_">
		<polygon class="st9" points="294.2,102.9 267.4,87.4 267.4,15.5 294.2,31 		"/>
	</g>
	<g id="XMLID_86_">
		<polygon class="st10" points="282.5,105.2 247,84.8 247,31 282.5,51.5 		"/>
	</g>
	<g id="XMLID_85_">
		<polygon class="st11" points="282.5,105.2 290.3,100.7 290.3,46.9 282.5,51.5 		"/>
	</g>
	<g id="XMLID_84_">
		<polygon class="st12" points="267.4,33.7 267.4,33.7 267.4,19.3 254.9,26.5 247,31 282.5,51.5 290.3,46.9 		"/>
	</g>
	<g id="XMLID_83_">
		<polygon class="st13" points="321,15.5 294.2,31 267.4,15.5 294.2,0 		"/>
	</g>
	<g id="XMLID_82_">
		<polygon class="st13" points="319.1,48.2 296.2,61.4 296.2,35.2 319.1,22 		"/>
	</g>
	<g id="XMLID_81_">
		<polygon class="st14" points="319.1,85.6 296.2,98.8 296.2,64.1 319.1,50.9 		"/>
	</g>
	<g id="XMLID_80_">
		<polygon class="st8" points="296.2,52.3 296.2,35.2 313.9,24.9 313.9,45.2 296.2,55.5 		"/>
	</g>
	<g id="XMLID_61_">
		<g id="XMLID_73_">
			<g id="XMLID_75_">
				<g id="XMLID_79_">
					<polygon class="st14" points="305.5,31.2 308.9,29.2 308.9,33.6 305.5,35.6 					"/>
				</g>
				<g id="XMLID_78_">
					<polygon class="st14" points="309.8,28.7 313.2,26.7 313.2,31.1 309.8,33.1 					"/>
				</g>
				<g id="XMLID_77_">
					<polygon class="st14" points="296.9,36.1 300.4,34.1 300.4,38.5 296.9,40.5 					"/>
				</g>
				<g id="XMLID_76_">
					<polygon class="st14" points="301.2,33.6 304.7,31.6 304.7,36 301.2,38 					"/>
				</g>
			</g>
		</g>
		<g id="XMLID_62_">
			<g id="XMLID_68_">
				<g id="XMLID_72_">
					<polygon class="st14" points="305.5,37.4 308.9,35.4 308.9,39.8 305.5,41.8 					"/>
				</g>
				<g id="XMLID_71_">
					<polygon class="st14" points="309.8,34.9 313.2,32.9 313.2,37.3 309.8,39.3 					"/>
				</g>
				<g id="XMLID_70_">
					<polygon class="st14" points="296.9,42.4 300.4,40.4 300.4,44.8 296.9,46.8 					"/>
				</g>
				<g id="XMLID_69_">
					<polygon class="st14" points="301.2,39.9 304.7,37.9 304.7,42.3 301.2,44.3 					"/>
				</g>
			</g>
			<g id="XMLID_63_">
				<g id="XMLID_67_">
					<polygon class="st14" points="305.5,43.2 308.9,41.2 308.9,45.6 305.5,47.6 					"/>
				</g>
				<g id="XMLID_66_">
					<polygon class="st14" points="309.8,40.7 313.2,38.7 313.2,43.1 309.8,45.1 					"/>
				</g>
				<g id="XMLID_65_">
					<polygon class="st14" points="296.9,48.2 300.4,46.2 300.4,50.5 296.9,52.6 					"/>
				</g>
				<g id="XMLID_64_">
					<polygon class="st14" points="301.2,45.7 304.7,43.7 304.7,48.1 301.2,50.1 					"/>
				</g>
			</g>
		</g>
	</g>
	<g id="XMLID_60_" class="st15">
		<polygon class="st8" points="296.2,61.4 299.5,53.6 299.5,33.2 296.2,35.2 		"/>
	</g>
	<g id="XMLID_59_">
		<polygon class="st16" points="317.3,15.5 294.2,28.9 271.1,15.5 294.2,2.2 		"/>
	</g>
	<g id="XMLID_58_">
		<polygon class="st12" points="317.3,15.5 294.2,28.9 271.1,15.5 294.2,2.2 		"/>
	</g>
	<g id="XMLID_57_">
		<polygon class="st8" points="294.2,4.6 315.2,16.7 317.3,15.5 294.2,2.2 271.1,15.5 273.2,16.7 		"/>
	</g>
	<g id="XMLID_56_">
		<polygon class="st17" points="249.6,35.5 249.6,82.9 279.9,100.4 279.9,53 		"/>
	</g>
	<g id="XMLID_53_">
		<path class="st18" d="M294.2,0l-26.8,15.5L294.2,31L321,15.5L294.2,0z M271.1,15.5l23.1-13.4l23.1,13.4l-23.1,13.4L271.1,15.5z"/>
	</g>
	<g>
		<g id="XMLID_52_">
			<polygon class="st17" points="292.6,45.9 268.7,32.1 268.7,29.9 292.6,43.7 			"/>
		</g>
		<g id="XMLID_51_">
			<polygon class="st17" points="292.6,42.4 268.7,28.7 268.7,26.5 292.6,40.3 			"/>
		</g>
		<g id="XMLID_50_">
			<polygon class="st17" points="292.6,39 268.7,25.2 268.7,23.1 292.6,36.8 			"/>
		</g>
		<g id="XMLID_49_">
			<polygon class="st17" points="292.6,35.6 268.7,21.8 268.7,19.6 292.6,33.4 			"/>
		</g>
	</g>
	<g>
		<g>
			<g>
				<defs>
					<polygon id="SVGID_1_" points="319.1,85.6 296.2,98.8 296.2,64.1 319.1,50.9 					"/>
				</defs>
				<clipPath id="SVGID_2_">
					<use xlink:href="#SVGID_1_"  style="overflow:visible;"/>
				</clipPath>
				<g id="XMLID_32_" class="st19">
					<g id="XMLID_47_">
						<g id="XMLID_48_">
							<rect x="316.4" y="41.2" class="st11" width="0.6" height="53.4"/>
						</g>
					</g>
					<g id="XMLID_45_">
						<g id="XMLID_46_">
							<rect x="313" y="43" class="st11" width="0.6" height="53.4"/>
						</g>
					</g>
					<g id="XMLID_43_">
						<g id="XMLID_44_">
							<rect x="309.5" y="45.5" class="st11" width="0.6" height="53.4"/>
						</g>
					</g>
					<g id="XMLID_41_">
						<g id="XMLID_42_">
							<rect x="306.1" y="48.1" class="st11" width="0.6" height="53.4"/>
						</g>
					</g>
					<g id="XMLID_39_">
						<g id="XMLID_40_">
							<rect x="302.7" y="49.8" class="st11" width="0.6" height="53.4"/>
						</g>
					</g>
					<g id="XMLID_37_">
						<g id="XMLID_38_">
							<rect x="299.2" y="52.4" class="st11" width="0.6" height="53.4"/>
						</g>
					</g>
				</g>
			</g>
		</g>
	</g>
	<g id="XMLID_12_">
		<g>
			<g>
				<defs>
					<polygon id="SVGID_3_" points="249.6,35.5 249.6,82.9 279.9,100.4 279.9,53 					"/>
				</defs>
				<clipPath id="SVGID_4_">
					<use xlink:href="#SVGID_3_"  style="overflow:visible;"/>
				</clipPath>
				<g id="XMLID_14_" class="st20">
					<g id="XMLID_29_">
						<g id="XMLID_30_">
							<rect x="252.7" y="33.9" class="st16" width="0.6" height="53.4"/>
						</g>
					</g>
					<g id="XMLID_27_">
						<g id="XMLID_28_">
							<rect x="256.2" y="35.7" class="st16" width="0.6" height="53.4"/>
						</g>
					</g>
					<g id="XMLID_25_">
						<g id="XMLID_26_">
							<rect x="259.6" y="38.2" class="st16" width="0.6" height="53.4"/>
						</g>
					</g>
					<g id="XMLID_23_">
						<g id="XMLID_24_">
							<rect x="263.1" y="40.8" class="st16" width="0.6" height="53.4"/>
						</g>
					</g>
					<g id="XMLID_21_">
						<g id="XMLID_22_">
							<rect x="266.5" y="42.5" class="st16" width="0.6" height="53.4"/>
						</g>
					</g>
					<g id="XMLID_19_">
						<g id="XMLID_20_">
							<rect x="269.9" y="45.1" class="st16" width="0.6" height="53.4"/>
						</g>
					</g>
					<g id="XMLID_17_">
						<g id="XMLID_18_">
							<rect x="273.4" y="46.8" class="st16" width="0.6" height="53.4"/>
						</g>
					</g>
					<g id="XMLID_15_">
						<g id="XMLID_16_">
							<rect x="276.8" y="48.5" class="st16" width="0.6" height="53.4"/>
						</g>
					</g>
				</g>
			</g>
		</g>
	</g>
	<g id="XMLID_5_">
		<g id="XMLID_10_">
			<g id="XMLID_11_">
				<rect x="263.7" y="38.5" transform="matrix(0.5 -0.866 0.866 0.5 82.7019 257.8692)" class="st10" width="2" height="37.7"/>
			</g>
		</g>
		<g id="XMLID_8_">
			<g id="XMLID_9_">
				<rect x="263.8" y="51.1" transform="matrix(0.5 -0.866 0.866 0.5 71.9334 264.2853)" class="st10" width="2" height="37.5"/>
			</g>
		</g>
		<g id="XMLID_6_">
			<g id="XMLID_7_">
				<rect x="263.7" y="63.5" transform="matrix(0.5 -0.866 0.866 0.5 61.208 270.3623)" class="st10" width="2" height="37.3"/>
			</g>
		</g>
	</g>
	<g class="st21">
		<g>
			<g>
				<defs>
					<polygon id="SVGID_5_" points="297.7,15.4 297.7,15.7 297.7,15.7 					"/>
				</defs>
				<clipPath id="SVGID_6_">
					<use xlink:href="#SVGID_5_"  style="overflow:visible;"/>
				</clipPath>
				<g class="st22">
					<g>
						<polyline class="st23" points="297.7,15.4 297.7,15.7 297.7,15.7 297.7,15.4 297.7,15.4 						"/>
					</g>
				</g>
			</g>
		</g>
	</g>
	<g>
		<g>
			<polygon class="st24" points="293.4,16.8 293.4,17.1 293.4,15.3 293.4,15 			"/>
		</g>
	</g>
	<g>
		<g>
			<path class="st25" d="M302.4,17.3L302.4,17.3c0-0.1,0.1-0.2,0.1-0.2c0-0.1,0.1-0.2,0.1-0.3l0,0c0-0.1,0-0.1,0.1-0.2
				c0-0.1,0.1-0.2,0.1-0.3l0,0c0-0.1,0-0.2,0-0.2c0-0.1,0-0.2,0-0.2v-0.1v-0.4c0,0.1,0,0.2,0,0.3s0,0.2,0,0.2c0,0.1-0.1,0.2-0.1,0.3
				s0,0.1-0.1,0.2c0,0.1-0.1,0.2-0.1,0.3c0,0.1-0.1,0.1-0.1,0.2c-0.1,0.2-0.2,0.3-0.3,0.5c-0.7,0-1.4,0-2,0v0.4c0.7,0,1.4,0,2,0
				C302.2,17.6,302.3,17.5,302.4,17.3z"/>
		</g>
		<g>
			<rect x="293.1" y="17.4" class="st25" width="3.2" height="0.4"/>
		</g>
		<g>
			<rect x="298.4" y="20.4" class="st25" width="4.4" height="0.4"/>
		</g>
	</g>
	<g>
		<g>
			<polygon class="st24" points="297.1,18.9 297.1,19.2 297,17.9 297,17.7 			"/>
		</g>
	</g>
	<g>
		<g>
			<path class="st26" d="M288.7,15.3c0-0.1,0.1-0.2,0.1-0.3v-0.1c0.1-0.1,0.1-0.2,0.2-0.3l0,0c0.1-0.1,0.2-0.3,0.4-0.4
				c0.2-0.2,0.5-0.4,0.8-0.6c0.3-0.2,0.7-0.4,1.1-0.5c0.3-0.1,0.7-0.2,1-0.3h0.1c0.3-0.1,0.7-0.1,1-0.1l0,0c0.4,0,0.8,0,1.1,0l0,0
				c0.4,0,0.7,0.1,1.1,0.2c0,0,0,0,0.1,0c0.3,0.1,0.6,0.2,0.9,0.2c0.1,0,0.1,0,0.2,0.1c0.3,0.1,0.6,0.2,0.9,0.4
				c0.5,0.3,0.8,0.6,1.1,0.9c0.3,0.4,0.4,0.8,0.4,1.2v-0.4c0-0.9-0.6-1.6-1.5-2.2c-0.2-0.1-0.5-0.3-0.8-0.4h-0.1
				c-0.1,0-0.1,0-0.2-0.1c-0.1,0-0.3-0.1-0.4-0.1c-0.2,0-0.3-0.1-0.5-0.1c0,0,0,0-0.1,0l0,0c-0.2,0-0.4-0.1-0.6-0.1s-0.3,0-0.5-0.1
				l0,0l0,0c-0.2,0-0.4,0-0.5,0c-0.2,0-0.4,0-0.6,0l0,0l0,0c-0.2,0-0.3,0-0.5,0s-0.4,0-0.5,0.1h-0.1l0,0c-0.3,0.1-0.6,0.1-0.9,0.2
				l0,0c-0.4,0.1-0.8,0.3-1.1,0.5c0,0,0,0-0.1,0c-0.3,0.2-0.5,0.3-0.7,0.5l0,0c-0.1,0.1-0.3,0.3-0.4,0.4l0,0l0,0
				c-0.1,0.1-0.1,0.2-0.2,0.3c0,0,0,0,0,0.1v0.1c0,0,0,0.1-0.1,0.1c0,0.1,0,0.1,0,0.2v0.1l0,0C288.7,15.1,288.7,15.2,288.7,15.3
				C288.6,15.3,288.6,15.3,288.7,15.3l-0.1,0.5C288.6,15.6,288.7,15.5,288.7,15.3L288.7,15.3z"/>
		</g>
		<g>
			<path class="st26" d="M298.8,16.6V17c0.4,0.2,0.8,0.5,1.3,0.7v-0.4C299.6,17.1,299.2,16.9,298.8,16.6z"/>
		</g>
		<g>
			<polygon class="st26" points="296.3,17.8 298.4,19 298.4,18.6 296.3,17.4 			"/>
		</g>
		<g>
			<path class="st26" d="M296,20.3c-0.3,0-0.5,0.1-0.8,0.1c-0.1,0-0.2,0-0.4,0c-0.4,0-0.7,0-1.1,0l0,0c-0.4,0-0.8,0-1.2-0.1
				c-0.1,0-0.2,0-0.3,0c-0.3,0-0.7-0.1-1-0.2h-0.1c-0.4-0.1-0.7-0.2-1.1-0.3c-0.2,0-0.3-0.1-0.5-0.2s-0.4-0.1-0.6-0.2
				c-0.4-0.2-0.8-0.4-1.2-0.6c-0.2-0.1-0.3-0.2-0.5-0.3c-1.4-1-2.1-2.1-2.1-3.3v0.4c0,1.2,0.7,2.4,2.1,3.3c0.2,0.1,0.3,0.2,0.5,0.3
				c0.4,0.2,0.8,0.4,1.2,0.6c0,0,0.1,0,0.1,0.1c0.2,0.1,0.3,0.1,0.5,0.2s0.3,0.1,0.5,0.2h0.1c0.3,0.1,0.6,0.2,0.9,0.2l0,0h0.1
				c0.2,0,0.5,0.1,0.7,0.1c0.1,0,0.2,0,0.3,0c0.1,0,0.2,0,0.3,0c0.1,0,0.2,0,0.3,0c0.3,0,0.6,0,0.9,0l0,0l0,0c0.3,0,0.6,0,0.9,0
				c0.1,0,0.2,0,0.3,0c0.1,0,0.2,0,0.4,0c0.1,0,0.2,0,0.3,0c0.2,0,0.3,0,0.5-0.1c0.2,0,0.3,0,0.5-0.1c0.1,0,0.1,0,0.2,0
				c0.3-0.1,0.6-0.1,0.9-0.2v-0.4c-0.4,0.1-0.7,0.2-1.1,0.2C296.3,20.3,296.1,20.3,296,20.3z"/>
		</g>
	</g>
	<g>
		<g>
			<polygon class="st27" points="302.8,17.9 299.7,17.9 297.5,16.6 297.5,14.8 293.1,14.8 293.1,17.4 296.3,17.4 298.4,18.6 
				298.4,20.4 302.9,20.4 			"/>
		</g>
		<g>
			<path class="st27" d="M296.3,18.1c-2.3,0.6-4.6,0.3-6-0.6c-1.6-0.9-2.3-2.5-0.8-3.8c2-1.8,6.1-1.8,8.3-0.5
				c0.9,0.5,1.5,1.3,1.5,2.2c0,0.5-0.2,0.9-0.5,1.3c0.4,0.2,0.8,0.5,1.3,0.7c0.7,0,1.4,0,2,0c0.5-0.7,0.7-1.3,0.7-2
				c0-1.4-1-2.7-2.6-3.6c-1-0.6-2.3-1-3.7-1.3c-3.8-0.6-7.8,0.2-9.9,2.1s-1.9,4.4,0.7,6.1c0.2,0.1,0.3,0.2,0.5,0.3
				c2.6,1.5,6.5,1.9,9.8,1.1c0-0.4,0-0.8,0-1.2C297.1,18.6,296.7,18.3,296.3,18.1z"/>
		</g>
	</g>
</g>
<g class="st28">
	<path class="st29" d="M232.4,387.5c-0.2-0.3-0.4-0.5-1.1-1.2c-0.7,0.4-1.4,0.6-2.2,0.6c-2.7,0-4.4-2-4.4-5c0-3.1,1.7-5,4.4-5
		s4.4,2,4.4,5c0,0.9-0.2,1.7-0.5,2.4c-0.2,0.6-0.5,0.9-1,1.5c0.6,0.6,0.7,0.7,1.1,1L232.4,387.5z M230.3,384c0.2,0.3,0.4,0.4,1,1.1
		c0.4-0.4,0.5-0.6,0.7-1c0.3-0.7,0.4-1.4,0.4-2.2c0-2.5-1.3-4.1-3.3-4.1s-3.4,1.6-3.4,4.1s1.3,4.1,3.4,4.1c0.6,0,1-0.1,1.5-0.4
		c-0.4-0.4-0.7-0.6-1-0.9L230.3,384z"/>
	<path class="st29" d="M240,385.9c0-0.1,0-0.2,0-0.6c-0.6,1-1.4,1.5-2.6,1.5c-0.9,0-1.6-0.3-2-0.9c-0.2-0.4-0.4-0.9-0.4-1.5v-3.1
		c0-0.6,0-1-0.1-1.4h1.1c-0.1,0.4-0.1,0.9-0.1,1.4v3c0,1.1,0.5,1.8,1.5,1.8c0.7,0,1.3-0.3,1.8-1c0.3-0.4,0.5-0.8,0.6-1.3v-2.5
		c0-0.5,0-1-0.1-1.4h1.1c-0.1,0.4-0.1,0.9-0.1,1.4v4c0,0.6,0,0.9,0.1,1.4H240V385.9z"/>
	<path class="st29" d="M244.1,377v1.1h-1.2V377H244.1z M244,379.9c-0.1,0.4-0.1,0.8-0.1,1.4v4c0,0.6,0,0.9,0.1,1.4h-1.1
		c0.1-0.5,0.1-0.9,0.1-1.4v-4c0-0.6,0-1-0.1-1.4H244z"/>
	<path class="st29" d="M245.9,386.7c0.1-0.5,0.1-0.8,0.1-1.4v-4c0-0.6,0-0.9-0.1-1.4h1.1v0.9c0,0.2,0,0.3,0,0.5
		c0.6-1,1.4-1.5,2.6-1.5c0.9,0,1.6,0.3,2,1c0.2,0.4,0.4,0.8,0.4,1.5v3.1c0,0.6,0,1,0.1,1.4H251c0.1-0.5,0.1-0.9,0.1-1.4v-3
		c0-1.1-0.5-1.8-1.6-1.8c-0.7,0-1.3,0.3-1.8,1c-0.3,0.4-0.5,0.7-0.6,1.3v2.5c0,0.6,0,0.9,0.1,1.4h-1.3V386.7z"/>
	<path class="st29" d="M255,384.2c0.6-0.3,1.2-0.5,1.6-0.7v-5.8c0-0.6,0-0.9-0.1-1.3h0.9c-0.1,0.4-0.1,0.7-0.1,1.3v8.7
		c0,0.7,0,1,0.1,1.3h-0.9c0.1-0.4,0.1-0.8,0.1-1.3v-2c-0.2,0.1-0.4,0.2-0.7,0.3c-0.5,0.2-0.6,0.3-1.1,0.5c-0.3,0.1-0.3,0.1-0.6,0.3
		l-0.3-0.8c0.3-0.2,0.4-0.3,0.4-0.6v-5.2c0-0.6,0-1-0.1-1.3h0.9c-0.1,0.4-0.1,0.7-0.1,1.3L255,384.2L255,384.2z M263.4,379.2
		c-0.1,1.2-0.1,1.5-0.3,2.3c-0.3,1.2-0.6,2-1.1,2.8c0.9,1.1,1.9,1.9,3.2,2.6c-0.3,0.2-0.4,0.5-0.6,0.8c-1.4-0.9-2.2-1.6-3.1-2.7
		c-0.8,1-1.8,1.9-3.2,2.7c-0.3-0.5-0.5-0.6-0.6-0.7c1.6-0.8,2.5-1.6,3.3-2.7c-0.7-1.1-1.3-2.2-1.7-3.6c-0.4,0.8-0.6,1-1.1,1.7
		c-0.2-0.3-0.3-0.4-0.6-0.6c0.8-0.9,1.3-1.9,1.7-3.1c0.3-0.9,0.5-1.8,0.5-2.6l0.9,0.2c-0.1,0.2-0.1,0.3-0.4,1.6
		c0,0.1-0.1,0.3-0.2,0.6h3.4c0.5,0,0.9,0,1.2-0.1v0.9C264.4,379.3,264,379.2,263.4,379.2L263.4,379.2L263.4,379.2z M259.9,379.2
		c-0.1,0.2-0.1,0.3-0.2,0.6c0.3,1.1,0.4,1.3,0.7,2c0.3,0.7,0.6,1.2,1,1.9c0.7-1.3,1.1-2.7,1.1-4.4h-2.6V379.2z"/>
	<path class="st29" d="M267.9,383.5c0-0.6,0-0.8,0-1.1c0.3,0,0.8,0.1,1.4,0.1h5.3c0.5,0,1,0,1.3-0.1c-0.1,0.3-0.1,0.6-0.1,1.1v3h0.7
		c0.5,0,0.8,0,1-0.1v0.9c-0.4,0-0.6-0.1-1.1-0.1h-9.1c-0.5,0-0.9,0-1.2,0.1v-0.9c0.3,0.1,0.5,0.1,1,0.1h0.8L267.9,383.5L267.9,383.5
		z M272.9,378.4c0.6-0.7,1-1.4,1.3-2.3l0.8,0.3c-0.4,0.9-0.7,1.4-1.3,2h2.4c0.6,0,1,0,1.3-0.1v0.9c-0.4-0.1-0.8-0.1-1.3-0.1h-8.6
		c-0.5,0-0.9,0-1.3,0.1v-0.9c0.4,0.1,0.7,0.1,1.3,0.1H272.9z M270.4,379.9c-1,1.1-2,1.8-3.4,2.4c-0.2-0.3-0.3-0.4-0.5-0.7
		c1.5-0.5,2.6-1.3,3.2-2.3L270.4,379.9z M269.3,376.1c0.6,0.7,0.9,1.1,1.3,1.9l-0.7,0.4c-0.4-0.9-0.7-1.3-1.3-2L269.3,376.1z
		 M268.7,386.5h1.6v-3.3h-1.6V386.5z M271.1,386.5h1.6v-3.3h-1.6V386.5z M276.3,382.5c-0.7-0.7-0.9-0.9-1.5-1.3
		c-0.7-0.5-1-0.7-1.7-1.2l0.5-0.6c0.4,0.3,0.4,0.3,1.3,0.9c0.7,0.5,1.2,0.9,1.9,1.6L276.3,382.5z M273.4,386.5h1.6v-3.3h-1.6V386.5z
		"/>
	<path class="st29" d="M280.9,386.6l-0.5-0.7l7.1-3.9l-7.1-3.9l0.5-0.8l8.4,4.7L280.9,386.6z"/>
	<path class="st29" d="M293.1,378.4c-0.4,0.8-0.7,1.1-1.2,1.7c-0.2-0.3-0.3-0.4-0.5-0.6c0.7-0.7,1.1-1.3,1.4-2.3
		c0.2-0.4,0.2-0.6,0.3-1l0.9,0.2c-0.1,0.2-0.2,0.3-0.4,1c-0.1,0.1-0.1,0.2-0.1,0.3h1.7c0.6,0,1,0,1.2-0.1v0.9
		c-0.3,0-0.7-0.1-1.2-0.1H293.1z M292.8,383.1c-0.5,0-0.9,0-1.2,0.1v-0.8c0.3,0,0.7,0.1,1.2,0.1h0.7v-1.8H293c-0.3,0-0.6,0-0.8,0.1
		V380c0.3,0,0.5,0.1,0.9,0.1h2.1c0.4,0,0.6,0,0.8-0.1v0.8c-0.3,0-0.6,0-0.9,0h-0.8v1.8h0.8c0.5,0,0.8,0,1.2-0.1v0.8
		c-0.4-0.1-0.8-0.1-1.2-0.1h-0.8v2.9c1.3-0.7,1.3-0.7,1.9-1.1v0.9c-0.8,0.4-2.3,1.2-2.7,1.4l-0.4-0.7c0.3-0.2,0.4-0.2,0.4-0.4v-3
		L292.8,383.1L292.8,383.1z M303,383c-1.2,1-1.2,1-2.2,1.7c0.5,0.8,1.3,1.5,2.5,2.2c-0.3,0.3-0.4,0.4-0.6,0.7
		c-1.3-0.9-2.1-1.7-2.7-2.8c-0.4-0.7-0.7-1.4-0.8-2.2c0,0,0-0.1-0.1-0.5h-1.4v4.5c0.7-0.2,1.7-0.5,2.4-0.8v0.8
		c-0.3,0.1-0.3,0.1-1,0.3c-0.4,0.1-0.4,0.1-1.3,0.4c-0.2,0.1-0.2,0.1-0.6,0.2c-0.3,0.1-0.3,0.1-0.3,0.1l-0.3-0.7
		c0.3-0.1,0.3-0.2,0.4-0.6v-8.1c0-0.5,0-0.9-0.1-1.3c0.4,0.1,0.7,0.1,1.2,0.1h3c0.6,0,0.9,0,1.2-0.1c0,0.3,0,0.6,0,1.4v2.6
		c0,0.8,0,1.1,0,1.3c-0.3,0-0.7,0-1.1,0h-1.4c0.2,0.9,0.3,1.4,0.6,2c0.9-0.6,1.4-1.1,1.9-1.7L303,383z M297.7,379h3.8v-1.5h-3.8V379
		z M297.7,381.3h3.8v-1.6h-3.8V381.3z"/>
	<path class="st29" d="M306.2,383.3c0-0.5,0-0.9,0-1.5c-0.5,0.6-0.8,0.9-1.4,1.4c-0.2-0.3-0.3-0.5-0.5-0.7c1-0.7,1.8-1.5,2.6-2.5
		c0.3-0.4,0.5-0.7,0.6-1.1l0.8,0.4c-0.2,0.2-0.2,0.3-0.4,0.5c-0.3,0.4-0.5,0.7-0.9,1.1v5.1c0,0.7,0,1.2,0.1,1.6h-1
		c0.1-0.4,0.1-0.9,0.1-1.6L306.2,383.3L306.2,383.3z M308,376.7c-0.1,0.1-0.1,0.1-0.2,0.3c-0.8,1-1.7,1.9-2.8,2.8
		c-0.2-0.3-0.3-0.4-0.6-0.6c0.7-0.5,1.2-0.8,1.7-1.3c0.6-0.6,1-1.1,1.2-1.6L308,376.7z M313.6,386.5c0,0.8-0.3,1-1.4,1
		c-0.5,0-1,0-1.5-0.1c0-0.4-0.1-0.6-0.2-0.9c0.7,0.1,1.3,0.2,1.8,0.2c0.4,0,0.5-0.1,0.5-0.3v-5.5h-2.9c-0.6,0-1.1,0-1.4,0.1v-0.9
		c0.3,0.1,0.8,0.1,1.4,0.1h4.5c0.6,0,1.1,0,1.4-0.1v0.9c-0.3-0.1-0.8-0.1-1.4-0.1h-0.7L313.6,386.5L313.6,386.5z M309,376.9
		c0.3,0.1,0.7,0.1,1.3,0.1h3.6c0.6,0,1,0,1.3-0.1v0.9c-0.4-0.1-0.8-0.1-1.3-0.1h-3.6c-0.5,0-0.9,0-1.3,0.1V376.9z"/>
	<path class="st29" d="M318.6,378.4c-0.6,0-1,0-1.4,0.1v-0.9c0.3,0.1,0.7,0.1,1.4,0.1h2.4c0.3-0.6,0.4-1,0.5-1.6l0.9,0.1
		c-0.1,0.3-0.2,0.4-0.4,0.9c-0.1,0.2-0.1,0.3-0.2,0.5h5c0.7,0,1.1,0,1.4-0.1v0.9c-0.4,0-0.8-0.1-1.4-0.1h-5.4c-0.5,1-1.1,2-1.9,2.9
		v5.1c0,0.5,0,0.9,0.1,1.3h-1c0.1-0.3,0.1-0.7,0.1-1.3v-4.1c-0.4,0.4-0.4,0.4-1.5,1.3c-0.2-0.3-0.3-0.5-0.5-0.7
		c0.9-0.7,1.4-1.2,2-1.8c0-0.3,0-0.4,0-0.7h0.6c0.4-0.6,0.9-1.2,1.3-2h-2V378.4z M324.9,386.6c0,0.8-0.2,1-1.2,1
		c-0.4,0-0.8,0-1.3-0.1c-0.1-0.4-0.1-0.5-0.2-0.8c0.6,0.1,1,0.2,1.4,0.2s0.5-0.1,0.5-0.4v-2.8h-2.4c-0.5,0-0.9,0-1.3,0.1v-0.9
		c0.3,0,0.7,0.1,1.3,0.1h2.4v-0.4c0-0.3,0-0.5,0-0.7h0.6c0.7-0.4,1.1-0.7,1.8-1.3h-4c-0.4,0-0.8,0-1.2,0.1v-0.8
		c0.3,0,0.6,0.1,1.2,0.1h3.7c0.5,0,0.8,0,1-0.1l0.5,0.5c-0.1,0.1-0.1,0.1-0.4,0.4c-0.2,0.2-0.8,0.7-1.1,1c-0.3,0.2-0.6,0.4-1.2,0.8
		v0.6h2.2c0.6,0,0.9,0,1.3-0.1v0.9c-0.4,0-0.8-0.1-1.3-0.1H325L324.9,386.6L324.9,386.6z"/>
	<path class="st29" d="M331.8,384c-0.4,1.3-0.8,2-1.4,2.8c-0.3-0.2-0.4-0.4-0.6-0.5c0.7-0.8,1-1.4,1.3-2.6L331.8,384z M333.4,386.7
		c0,0.7-0.2,0.9-1.2,0.9c-0.1,0-0.4,0-0.8,0c0-0.4-0.1-0.5-0.2-0.8c0.4,0.1,0.7,0.1,1,0.1s0.4-0.1,0.4-0.3v-3.3H331
		c-0.5,0-0.8,0-1.1,0.1v-0.8c0.3,0,0.6,0.1,1.1,0.1h3.7c0.5,0,0.9,0,1.1-0.1v0.8c-0.3-0.1-0.6-0.1-1.1-0.1h-1.2v3.4L333.4,386.7
		L333.4,386.7z M334.5,377.5c0.6,0,1,0,1.3-0.1v0.8c-0.3-0.1-0.6-0.1-1.3-0.1h-1.2v1.1h1c0.7,0,0.9,0,1.2,0v0.7
		c-0.4,0-0.6-0.1-1.1-0.1h-2.8c-0.6,0-0.9,0-1.2,0.1v-0.7c0.3,0,0.5,0,1.2,0h1.1v-1.1h-1.3c-0.6,0-1,0-1.3,0.1v-0.8
		c0.3,0.1,0.7,0.1,1.3,0.1h1.3v-0.3c0-0.4,0-0.6-0.1-1h0.9c-0.1,0.3-0.1,0.6-0.1,1v0.3H334.5z M335.3,381.6c-0.2,0-0.5-0.1-0.8-0.1
		h-3.3c-0.3,0-0.6,0-0.8,0.1v-0.8c0.2,0,0.5,0.1,0.9,0.1h3.3c0.4,0,0.6,0,0.8-0.1v0.8H335.3z M334.6,383.7c0.4,0.6,0.6,1,0.9,1.7
		l-0.6,0.4c-0.3-0.8-0.5-1.2-0.9-1.8L334.6,383.7z M338.4,379.9c0,0.2,0,0.3,0,0.5c0,1.9,0.5,3.6,1.3,4.8c0.5,0.7,1,1.3,1.8,1.8
		c-0.3,0.3-0.3,0.3-0.5,0.8c-0.7-0.6-1.3-1.2-1.7-1.8c-0.6-1-1-1.8-1.2-3.3c-0.3,2.3-1.2,3.7-3.1,5c-0.2-0.3-0.4-0.4-0.6-0.6
		c0.6-0.4,0.9-0.6,1.2-1c0.7-0.8,1.2-1.5,1.5-2.6c0.3-0.9,0.4-1.9,0.4-3.1c0-0.2,0-0.3,0-0.5L338.4,379.9L338.4,379.9z M339.9,378.2
		c0.5,0,0.8,0,1-0.1l0.4,0.5c-0.1,0.2-0.2,0.3-0.3,0.8c-0.2,0.6-0.6,1.6-1.1,2.3c-0.2-0.2-0.4-0.3-0.7-0.4c0.4-0.6,0.7-1.3,1.2-2.4
		h-3.3c-0.4,1-0.7,1.7-1.2,2.4c-0.2-0.3-0.3-0.4-0.6-0.6c0.9-1.1,1.6-3.3,1.6-4.7l0.9,0.1c-0.1,0.2-0.1,0.3-0.2,0.7
		c-0.1,0.6-0.1,0.6-0.3,1.3h2.6V378.2z"/>
</g>
<g class="st30">
	<g>
		<ellipse class="st6" cx="67.4" cy="292.8" rx="22.5" ry="2.3"/>
	</g>
</g>
<g class="st30">
	<g>
		<ellipse class="st6" cx="502.5" cy="292.8" rx="22.5" ry="2.3"/>
	</g>
</g>
<g>
	<g>
		<path class="st14" d="M105,264.2L105,264.2c0-7.2-17.6-13-39.4-13s-39.4,5.8-39.4,12.9v0.1l0,0v0.1l0,0v0.1l0,0v0.1l0,0v0.1l0,0
			v0.1l0,0v0.1l0,0v0.1l0,0v0.1l0,0v0.1l0,0v0.1l0,0v0.1l0,0v0.1l0,0v0.1l0,0v0.1l0,0v0.1l0,0v0.1l0,0v0.1l0,0v0.1l0,0v0.1l0,0v0.1
			l0,0v0.1l0,0v0.1l0,0v0.1l0,0v0.1l0,0v0.1l0,0v0.1l0,0v0.1l0,0v0.1l0,0v0.1l0,0v0.1l0,0v0.1l0,0v0.1l0,0v0.1l0,0v0.1l0,0v0.1l0,0
			v0.1l0,0v0.1l0,0v0.1l0,0v0.1l0,0v0.1l0,0v0.1l0,0v0.1l0,0v0.1l0,0v0.1l0,0v0.1l0,0v0.1l0,0v0.1l0,0v0.1l0,0v0.1l0,0v0.1l0,0
			c0,7.1,17.5,12.9,39.1,12.9s39.1-5.8,39.1-12.9c0,0,0,0,0-0.1c0,0,0,0,0-0.1c0,0,0,0,0-0.1c0,0,0,0,0-0.1s0,0,0-0.1c0,0,0,0,0-0.1
			s0,0,0-0.1c0,0,0,0,0-0.1s0,0,0-0.1c0,0,0,0,0-0.1c0,0,0,0,0-0.1c0,0,0,0,0-0.1c0,0,0,0,0-0.1c0,0,0,0,0-0.1s0,0,0-0.1
			c0,0,0,0,0-0.1s0,0,0-0.1c0,0,0,0,0-0.1c0,0,0,0,0-0.1c0,0,0,0,0-0.1s0,0,0-0.1c0,0,0,0,0-0.1s0,0,0-0.1c0,0,0,0,0-0.1s0,0,0-0.1
			c0,0,0,0,0-0.1c0,0,0,0,0-0.1c0,0,0,0,0-0.1c0,0,0,0,0-0.1c0,0,0,0,0-0.1s0,0,0-0.1c0,0,0,0,0-0.1s0,0,0-0.1c0,0,0,0,0-0.1
			c0,0,0,0,0-0.1c0,0,0,0,0-0.1s0,0,0-0.1c0,0,0,0,0-0.1s0,0,0-0.1c0,0,0,0,0-0.1s0,0,0-0.1c0,0,0,0,0-0.1c0,0,0,0,0-0.1
			c0,0,0,0,0-0.1c0,0,0,0,0-0.1c0,0,0,0,0-0.1s0,0,0-0.1c0,0,0,0,0-0.1s0,0,0-0.1c0,0,0,0,0-0.1c0,0,0,0,0-0.1c0,0,0,0,0-0.1
			s0,0,0-0.1c0,0,0,0,0-0.1s0,0,0-0.1c0,0,0,0,0-0.1s0,0,0-0.1c0,0,0,0,0-0.1c0,0,0,0,0-0.1c0,0,0,0,0-0.1c0,0,0,0,0-0.1
			c0,0,0,0,0-0.1s0,0,0-0.1c0,0,0,0,0-0.1s0,0,0-0.1c0,0,0,0,0-0.1c0,0,0,0,0-0.1c0,0,0,0,0-0.1s0,0,0-0.1c0,0,0,0,0-0.1s0,0,0-0.1
			c0,0,0,0,0-0.1s0,0,0-0.1c0,0,0,0,0-0.1c0,0,0,0,0-0.1c0,0,0,0,0-0.1c0,0,0,0,0-0.1c0,0,0,0,0-0.1s0,0,0-0.1c0,0,0,0,0-0.1
			s0,0,0-0.1c0,0,0,0,0-0.1c0,0,0,0,0-0.1c0,0,0,0,0-0.1s0,0,0-0.1c0,0,0,0,0-0.1s0,0,0-0.1c0,0,0,0,0-0.1c0,0,0,0,0-0.1
			c0,0,0,0,0-0.1s0,0,0-0.1c0,0,0,0,0-0.1c0,0,0,0,0-0.1c0,0,0,0,0-0.1s0,0,0-0.1c0,0,0,0,0-0.1c0,0,0,0,0-0.1c0,0,0,0,0-0.1
			s0,0,0-0.1C105,264.4,105,264.3,105,264.2C105,264.3,105,264.3,105,264.2z"/>
	</g>
	<g>
		<ellipse class="st31" cx="65.6" cy="263.6" rx="39.4" ry="12.9"/>
	</g>
	<g>
		<polygon class="st3" points="65.3,260.2 65.3,264.7 104.8,264.7 104.8,272.6 108.7,272.6 108.7,264.7 108.7,263.4 108.7,260.2 		
			"/>
	</g>
	<g>
		<path class="st2" d="M65.3,260.2l20.3-13c0,0,20,0,23.2,13H65.6"/>
	</g>
	<g class="st30">
		<polygon class="st32" points="104.8,265 108.7,272.6 104.8,272.6 		"/>
	</g>
</g>
<g>
	<path d="M53.2,247.1v-0.4c0.4,0.2,0.7,0.3,1,0.3c0.4,0,0.8-0.1,1.1-0.4c0.3-0.2,0.4-0.6,0.4-1c0-0.9-0.5-1.3-1.5-1.3
		c-0.2,0-0.5,0-0.8,0l0.2-2.6h2.3v0.3h-2l-0.1,2c0.3,0,0.5,0,0.6,0c0.6,0,1,0.1,1.3,0.4c0.3,0.3,0.4,0.7,0.4,1.2s-0.2,0.9-0.5,1.2
		s-0.8,0.5-1.4,0.5C53.9,247.3,53.5,247.2,53.2,247.1z"/>
	<path d="M58.2,244.4c-0.4,0-0.7-0.1-0.9-0.4c-0.2-0.3-0.3-0.6-0.3-1s0.1-0.8,0.4-1c0.2-0.2,0.6-0.4,0.9-0.4c0.4,0,0.7,0.1,0.9,0.4
		c0.2,0.2,0.3,0.6,0.3,1s-0.1,0.7-0.4,1C58.9,244.3,58.6,244.4,58.2,244.4z M58.3,241.9c-0.3,0-0.5,0.1-0.7,0.3s-0.3,0.5-0.3,0.8
		s0.1,0.6,0.2,0.8c0.2,0.2,0.4,0.3,0.7,0.3s0.5-0.1,0.7-0.3s0.2-0.5,0.2-0.8c0-0.4-0.1-0.6-0.2-0.8S58.5,241.9,58.3,241.9z
		 M58.2,247.3h-0.4l3.3-5.6h0.4L58.2,247.3z M61.2,247.3c-0.4,0-0.7-0.1-0.9-0.4c-0.2-0.3-0.3-0.6-0.3-1c0-0.5,0.1-0.8,0.4-1
		c0.2-0.2,0.6-0.4,0.9-0.4c0.4,0,0.7,0.1,0.9,0.4c0.2,0.3,0.3,0.6,0.3,1s-0.1,0.7-0.4,1C61.9,247.2,61.6,247.3,61.2,247.3z
		 M61.3,244.8c-0.3,0-0.5,0.1-0.7,0.3s-0.3,0.5-0.3,0.8s0.1,0.6,0.2,0.8c0.2,0.2,0.4,0.3,0.7,0.3s0.5-0.1,0.7-0.3s0.2-0.5,0.2-0.8
		c0-0.4-0.1-0.6-0.2-0.8S61.5,244.8,61.3,244.8z"/>
	<path d="M65.5,245.1v1.6h-0.3v-1.6h-1.6v-0.3h1.6v-1.6h0.3v1.6h1.6v0.3H65.5z"/>
	<path d="M68.5,247.1v-0.4c0.4,0.2,0.7,0.3,1,0.3c0.4,0,0.8-0.1,1.1-0.4c0.3-0.2,0.4-0.6,0.4-1c0-0.9-0.5-1.3-1.5-1.3
		c-0.2,0-0.5,0-0.8,0l0.2-2.6h2.3v0.3h-2l-0.1,2c0.3,0,0.5,0,0.6,0c0.6,0,1,0.1,1.3,0.4c0.3,0.3,0.4,0.7,0.4,1.2s-0.2,0.9-0.5,1.2
		s-0.8,0.5-1.4,0.5C69.1,247.3,68.8,247.2,68.5,247.1z"/>
	<path d="M73.9,247.3c-0.5,0-0.9-0.2-1.2-0.7c-0.3-0.5-0.4-1.1-0.4-2c0-1,0.1-1.7,0.4-2.2s0.7-0.7,1.3-0.7c1.1,0,1.6,0.9,1.6,2.8
		c0,0.9-0.1,1.6-0.4,2.1C74.9,247,74.4,247.3,73.9,247.3z M74,241.9c-0.4,0-0.7,0.2-1,0.6s-0.4,1.1-0.4,1.9c0,0.8,0.1,1.4,0.3,1.8
		c0.2,0.4,0.5,0.6,1,0.6c0.4,0,0.7-0.2,0.9-0.6c0.2-0.4,0.3-1,0.3-1.8C75.2,242.8,74.8,241.9,74,241.9z"/>
	<path d="M77.6,244.4c-0.4,0-0.7-0.1-0.9-0.4c-0.2-0.3-0.3-0.6-0.3-1s0.1-0.8,0.4-1c0.2-0.2,0.6-0.4,0.9-0.4c0.4,0,0.7,0.1,0.9,0.4
		c0.2,0.2,0.3,0.6,0.3,1s-0.1,0.7-0.4,1C78.3,244.3,77.9,244.4,77.6,244.4z M77.6,241.9c-0.3,0-0.5,0.1-0.7,0.3s-0.3,0.5-0.3,0.8
		s0.1,0.6,0.2,0.8c0.2,0.2,0.4,0.3,0.7,0.3c0.3,0,0.5-0.1,0.7-0.3s0.2-0.5,0.2-0.8c0-0.4-0.1-0.6-0.2-0.8S77.9,241.9,77.6,241.9z
		 M77.6,247.3h-0.4l3.3-5.6h0.4L77.6,247.3z M80.6,247.3c-0.4,0-0.7-0.1-0.9-0.4c-0.2-0.3-0.3-0.6-0.3-1c0-0.5,0.1-0.8,0.4-1
		c0.2-0.2,0.6-0.4,0.9-0.4c0.4,0,0.7,0.1,0.9,0.4c0.2,0.3,0.3,0.6,0.3,1s-0.1,0.7-0.4,1C81.3,247.2,80.9,247.3,80.6,247.3z
		 M80.6,244.8c-0.3,0-0.5,0.1-0.7,0.3s-0.3,0.5-0.3,0.8s0.1,0.6,0.2,0.8c0.2,0.2,0.4,0.3,0.7,0.3c0.3,0,0.5-0.1,0.7-0.3
		s0.2-0.5,0.2-0.8c0-0.4-0.1-0.6-0.2-0.8S80.9,244.8,80.6,244.8z"/>
</g>
<g>
	<g>
		<g>
			<g>
				<g>
					<ellipse class="st33" cx="305.2" cy="284.3" rx="10.1" ry="4.3"/>
				</g>
			</g>
			<g>
				<g>
					<path class="st34" d="M295.1,281.8v2.1c0,1.8,2.5,3.3,6.1,3.9c0.8,0.2,1.8,0.3,2.7,0.3c0.4,0,0.9,0,1.3,0c1.4,0,2.8-0.1,4-0.4
						c3.6-0.7,5.4-2.2,5.4-4l0.6-2.2c-1.5-1.6-5.8-2-10.1-2C301.8,279.6,296.9,280.7,295.1,281.8z"/>
				</g>
			</g>
			<g class="st35">
				<g>
					<path class="st36" d="M301.2,284v3.8c0.8,0.2,1.8,0.3,2.7,0.3V284H301.2z"/>
				</g>
			</g>
			<g>
				<g>
					<path class="st37" d="M308.8,287.9v-8.2c2.9,0.2,5.5,0.7,6.5,1.9v2.3C315.3,285.7,312.6,287.3,308.8,287.9z"/>
				</g>
			</g>
			<g>
				<g>
					<ellipse class="st38" cx="305.2" cy="281.8" rx="10.1" ry="4.3"/>
				</g>
			</g>
			<g>
				<g>
					<path class="st36" d="M299.4,285.2c-1.7-0.5-3-1.3-3.7-2.1l8.1-5.4c0.5,0,0.9,0,1.4,0c1.7,0,3.3,0.2,4.8,0.5L299.4,285.2z"/>
				</g>
			</g>
			<g>
				<g>
					<path class="st36" d="M303.9,285.9c-0.8,0-1.6-0.1-2.4-0.3l10.5-6.9c0.6,0.2,1.1,0.5,1.6,0.8L303.9,285.9z"/>
				</g>
			</g>
		</g>
		<g>
			<g>
				<g>
					<ellipse class="st33" cx="305.2" cy="281.3" rx="10.1" ry="4.3"/>
				</g>
			</g>
			<g>
				<g>
					<path class="st34" d="M295.1,278.8v2.1c0,1.8,2.5,3.3,6.1,3.9c0.8,0.2,1.8,0.3,2.7,0.3c0.4,0,0.9,0,1.3,0c1.4,0,2.8-0.1,4-0.4
						c3.6-0.7,5.4-2.2,5.4-4l0.6-2.2c-1.5-1.6-5.8-2-10.1-2C301.8,276.6,296.9,277.7,295.1,278.8z"/>
				</g>
			</g>
			<g class="st35">
				<g>
					<path class="st36" d="M301.2,281.1v3.8c0.8,0.2,1.8,0.3,2.7,0.3v-4.1L301.2,281.1L301.2,281.1z"/>
				</g>
			</g>
			<g>
				<g>
					<path class="st37" d="M308.8,284.9v-8.2c2.9,0.2,5.5,0.7,6.5,1.9v2.3C315.3,282.7,312.6,284.3,308.8,284.9z"/>
				</g>
			</g>
			<g>
				<g>
					<ellipse class="st38" cx="305.2" cy="278.8" rx="10.1" ry="4.3"/>
				</g>
			</g>
			<g>
				<g>
					<path class="st36" d="M299.4,282.2c-1.7-0.5-3-1.3-3.7-2.1l8.1-5.4c0.5,0,0.9,0,1.4,0c1.7,0,3.3,0.2,4.8,0.5L299.4,282.2z"/>
				</g>
			</g>
			<g>
				<g>
					<path class="st36" d="M303.9,283c-0.8,0-1.6-0.1-2.4-0.3l10.5-6.9c0.6,0.2,1.1,0.5,1.6,0.8L303.9,283z"/>
				</g>
			</g>
		</g>
		<g>
			<g>
				<g>
					<ellipse class="st33" cx="305.2" cy="278.4" rx="10.1" ry="4.3"/>
				</g>
			</g>
			<g>
				<g>
					<path class="st34" d="M295.1,275.9v2.1c0,1.8,2.5,3.3,6.1,3.9c0.8,0.2,1.8,0.3,2.7,0.3c0.4,0,0.9,0,1.3,0c1.4,0,2.8-0.1,4-0.4
						c3.6-0.7,5.4-2.2,5.4-4l0.6-2.2c-1.5-1.6-5.8-2-10.1-2C301.8,273.7,296.9,274.8,295.1,275.9z"/>
				</g>
			</g>
			<g class="st35">
				<g>
					<path class="st36" d="M301.2,278.1v3.8c0.8,0.2,1.8,0.3,2.7,0.3v-4.1L301.2,278.1L301.2,278.1z"/>
				</g>
			</g>
			<g>
				<g>
					<path class="st37" d="M308.8,281.9v-8.2c2.9,0.2,5.5,0.7,6.5,1.9v2.3C315.3,279.8,312.6,281.3,308.8,281.9z"/>
				</g>
			</g>
			<g>
				<g>
					<ellipse class="st38" cx="305.2" cy="275.9" rx="10.1" ry="4.3"/>
				</g>
			</g>
			<g>
				<g>
					<path class="st36" d="M299.4,279.2c-1.7-0.5-3-1.3-3.7-2.1l8.1-5.4c0.5,0,0.9,0,1.4,0c1.7,0,3.3,0.2,4.8,0.5L299.4,279.2z"/>
				</g>
			</g>
			<g>
				<g>
					<path class="st36" d="M303.9,280c-0.8,0-1.6-0.1-2.4-0.3l10.5-6.9c0.6,0.2,1.1,0.5,1.6,0.8L303.9,280z"/>
				</g>
			</g>
		</g>
		<g>
			<g>
				<g>
					<ellipse class="st33" cx="305.2" cy="275.4" rx="10.1" ry="4.3"/>
				</g>
			</g>
			<g>
				<g>
					<path class="st34" d="M295.1,272.9v2.1c0,1.8,2.5,3.3,6.1,3.9c0.8,0.2,1.8,0.3,2.7,0.3c0.4,0,0.9,0,1.3,0c1.4,0,2.8-0.1,4-0.4
						c3.6-0.7,5.4-2.2,5.4-4l0.6-2.2c-1.5-1.6-5.8-2-10.1-2C301.8,270.7,296.9,271.8,295.1,272.9z"/>
				</g>
			</g>
			<g class="st35">
				<g>
					<path class="st36" d="M301.2,275.1v3.8c0.8,0.2,1.8,0.3,2.7,0.3v-4.1L301.2,275.1L301.2,275.1z"/>
				</g>
			</g>
			<g>
				<g>
					<path class="st37" d="M308.8,279v-8.2c2.9,0.2,5.5,0.7,6.5,1.9v2.3C315.3,276.8,312.6,278.3,308.8,279z"/>
				</g>
			</g>
			<g>
				<g>
					<ellipse class="st38" cx="305.2" cy="272.9" rx="10.1" ry="4.3"/>
				</g>
			</g>
			<g>
				<g>
					<path class="st36" d="M299.4,276.3c-1.7-0.5-3-1.3-3.7-2.1l8.1-5.4c0.5,0,0.9,0,1.4,0c1.7,0,3.3,0.2,4.8,0.5L299.4,276.3z"/>
				</g>
			</g>
			<g>
				<g>
					<path class="st36" d="M303.9,277c-0.8,0-1.6-0.1-2.4-0.3l10.5-6.9c0.6,0.2,1.1,0.5,1.6,0.8L303.9,277z"/>
				</g>
			</g>
		</g>
		<g>
			<g>
				<g>
					<ellipse class="st33" cx="305.2" cy="272.4" rx="10.1" ry="4.3"/>
				</g>
			</g>
			<g>
				<g>
					<path class="st34" d="M295.1,269.9v2.1c0,1.8,2.5,3.3,6.1,3.9c0.8,0.2,1.8,0.3,2.7,0.3c0.4,0,0.9,0,1.3,0c1.4,0,2.8-0.1,4-0.4
						c3.6-0.7,5.4-2.2,5.4-4l0.6-2.2c-1.5-1.6-5.8-2-10.1-2C301.8,267.7,296.9,268.8,295.1,269.9z"/>
				</g>
			</g>
			<g class="st35">
				<g>
					<path class="st36" d="M301.2,272.1v3.8c0.8,0.2,1.8,0.3,2.7,0.3v-4.1L301.2,272.1L301.2,272.1z"/>
				</g>
			</g>
			<g>
				<g>
					<path class="st37" d="M308.8,276v-8.2c2.9,0.2,5.5,0.7,6.5,1.9v2.3C315.3,273.8,312.6,275.4,308.8,276z"/>
				</g>
			</g>
			<g>
				<g>
					<ellipse class="st38" cx="305.2" cy="269.9" rx="10.1" ry="4.3"/>
				</g>
			</g>
			<g>
				<g>
					<path class="st36" d="M299.4,273.3c-1.7-0.5-3-1.3-3.7-2.1l8.1-5.4c0.5,0,0.9,0,1.4,0c1.7,0,3.3,0.2,4.8,0.5L299.4,273.3z"/>
				</g>
			</g>
			<g>
				<g>
					<path class="st36" d="M303.9,274.1c-0.8,0-1.6-0.1-2.4-0.3l10.5-6.9c0.6,0.2,1.1,0.5,1.6,0.8L303.9,274.1z"/>
				</g>
			</g>
		</g>
		<g>
			<g>
				<g>
					<ellipse class="st33" cx="305.2" cy="269.5" rx="10.1" ry="4.3"/>
				</g>
			</g>
			<g>
				<g>
					<path class="st34" d="M295.1,267v2.1c0,1.8,2.5,3.3,6.1,3.9c0.8,0.2,1.8,0.3,2.7,0.3c0.4,0,0.9,0,1.3,0c1.4,0,2.8-0.1,4-0.4
						c3.6-0.7,5.4-2.2,5.4-4l0.6-2.2c-1.5-1.6-5.8-2-10.1-2C301.8,264.7,296.9,265.9,295.1,267z"/>
				</g>
			</g>
			<g class="st35">
				<g>
					<path class="st36" d="M301.2,269.2v3.8c0.8,0.2,1.8,0.3,2.7,0.3v-4.1L301.2,269.2L301.2,269.2z"/>
				</g>
			</g>
			<g>
				<g>
					<path class="st37" d="M308.8,273v-8.2c2.9,0.2,5.5,0.7,6.5,1.9v2.3C315.3,270.8,312.6,272.4,308.8,273z"/>
				</g>
			</g>
			<g>
				<g>
					<ellipse class="st38" cx="305.2" cy="267" rx="10.1" ry="4.3"/>
				</g>
			</g>
			<g>
				<g>
					<path class="st36" d="M299.4,270.3c-1.7-0.5-3-1.3-3.7-2.1l8.1-5.4c0.5,0,0.9,0,1.4,0c1.7,0,3.3,0.2,4.8,0.5L299.4,270.3z"/>
				</g>
			</g>
			<g>
				<g>
					<path class="st36" d="M303.9,271.1c-0.8,0-1.6-0.1-2.4-0.3l10.5-6.9c0.6,0.2,1.1,0.5,1.6,0.8L303.9,271.1z"/>
				</g>
			</g>
		</g>
		<g>
			<g>
				<g>
					<ellipse class="st33" cx="305.2" cy="266.5" rx="10.1" ry="4.3"/>
				</g>
			</g>
			<g>
				<g>
					<path class="st34" d="M295.1,264v2.1c0,1.8,2.5,3.3,6.1,3.9c0.8,0.2,1.8,0.3,2.7,0.3c0.4,0,0.9,0,1.3,0c1.4,0,2.8-0.1,4-0.4
						c3.6-0.7,5.4-2.2,5.4-4l0.6-2.2c-1.5-1.6-5.8-2-10.1-2C301.8,261.8,296.9,262.9,295.1,264z"/>
				</g>
			</g>
			<g class="st35">
				<g>
					<path class="st36" d="M301.2,266.2v3.8c0.8,0.2,1.8,0.3,2.7,0.3v-4.1L301.2,266.2L301.2,266.2z"/>
				</g>
			</g>
			<g>
				<g>
					<path class="st37" d="M308.8,270v-8.2c2.9,0.2,5.5,0.7,6.5,1.9v2.3C315.3,267.9,312.6,269.4,308.8,270z"/>
				</g>
			</g>
			<g>
				<g>
					<ellipse class="st38" cx="305.2" cy="264" rx="10.1" ry="4.3"/>
				</g>
			</g>
			<g>
				<g>
					<path class="st36" d="M299.4,267.4c-1.7-0.5-3-1.3-3.7-2.1l8.1-5.4c0.5,0,0.9,0,1.4,0c1.7,0,3.3,0.2,4.8,0.5L299.4,267.4z"/>
				</g>
			</g>
			<g>
				<g>
					<path class="st36" d="M303.9,268.1c-0.8,0-1.6-0.1-2.4-0.3l10.5-6.9c0.6,0.2,1.1,0.5,1.6,0.8L303.9,268.1z"/>
				</g>
			</g>
		</g>
		<g>
			<g>
				<g>
					<ellipse class="st33" cx="305.2" cy="263.5" rx="10.1" ry="4.3"/>
				</g>
			</g>
			<g>
				<g>
					<path class="st34" d="M295.1,261v2.1c0,1.8,2.5,3.3,6.1,3.9c0.8,0.2,1.8,0.3,2.7,0.3c0.4,0,0.9,0,1.3,0c1.4,0,2.8-0.1,4-0.4
						c3.6-0.7,5.4-2.2,5.4-4l0.6-2.2c-1.5-1.6-5.8-2-10.1-2C301.8,258.8,296.9,259.9,295.1,261z"/>
				</g>
			</g>
			<g class="st35">
				<g>
					<path class="st36" d="M301.2,263.2v3.8c0.8,0.2,1.8,0.3,2.7,0.3v-4.1L301.2,263.2L301.2,263.2z"/>
				</g>
			</g>
			<g>
				<g>
					<path class="st37" d="M308.8,267.1v-8.2c2.9,0.2,5.5,0.7,6.5,1.9v2.3C315.3,264.9,312.6,266.5,308.8,267.1z"/>
				</g>
			</g>
			<g>
				<g>
					<ellipse class="st38" cx="305.2" cy="261" rx="10.1" ry="4.3"/>
				</g>
			</g>
			<g>
				<g>
					<path class="st36" d="M299.4,264.4c-1.7-0.5-3-1.3-3.7-2.1l8.1-5.4c0.5,0,0.9,0,1.4,0c1.7,0,3.3,0.2,4.8,0.5L299.4,264.4z"/>
				</g>
			</g>
			<g>
				<g>
					<path class="st36" d="M303.9,265.1c-0.8,0-1.6-0.1-2.4-0.3L312,258c0.6,0.2,1.1,0.5,1.6,0.8L303.9,265.1z"/>
				</g>
			</g>
		</g>
		<g>
			<g>
				<g>
					<ellipse class="st33" cx="305.2" cy="260.6" rx="10.1" ry="4.3"/>
				</g>
			</g>
			<g>
				<g>
					<path class="st34" d="M295.1,258.1v2.1c0,1.8,2.5,3.3,6.1,3.9c0.8,0.2,1.8,0.3,2.7,0.3c0.4,0,0.9,0,1.3,0c1.4,0,2.8-0.1,4-0.4
						c3.6-0.7,5.4-2.2,5.4-4l0.6-2.2c-1.5-1.6-5.8-2-10.1-2C301.8,255.8,296.9,257,295.1,258.1z"/>
				</g>
			</g>
			<g class="st35">
				<g>
					<path class="st36" d="M301.2,260.3v3.8c0.8,0.2,1.8,0.3,2.7,0.3v-4.1L301.2,260.3L301.2,260.3z"/>
				</g>
			</g>
			<g>
				<g>
					<path class="st37" d="M308.8,264.1v-8.2c2.9,0.2,5.5,0.7,6.5,1.9v2.3C315.3,261.9,312.6,263.5,308.8,264.1z"/>
				</g>
			</g>
			<g>
				<g>
					<ellipse class="st38" cx="305.2" cy="258.1" rx="10.1" ry="4.3"/>
				</g>
			</g>
			<g>
				<g>
					<path class="st36" d="M299.4,261.4c-1.7-0.5-3-1.3-3.7-2.1l8.1-5.4c0.5,0,0.9,0,1.4,0c1.7,0,3.3,0.2,4.8,0.5L299.4,261.4z"/>
				</g>
			</g>
			<g>
				<g>
					<path class="st36" d="M303.9,262.2c-0.8,0-1.6-0.1-2.4-0.3L312,255c0.6,0.2,1.1,0.5,1.6,0.8L303.9,262.2z"/>
				</g>
			</g>
		</g>
		<g>
			<g>
				<g>
					<ellipse class="st33" cx="305.2" cy="257.6" rx="10.1" ry="4.3"/>
				</g>
			</g>
			<g>
				<g>
					<path class="st34" d="M295.1,255.1v2.1c0,1.8,2.5,3.3,6.1,3.9c0.8,0.2,1.8,0.3,2.7,0.3c0.4,0,0.9,0,1.3,0c1.4,0,2.8-0.1,4-0.4
						c3.6-0.7,5.4-2.2,5.4-4l0.6-2.2c-1.5-1.6-5.8-2-10.1-2C301.8,252.9,296.9,254,295.1,255.1z"/>
				</g>
			</g>
			<g class="st35">
				<g>
					<path class="st36" d="M301.2,257.3v3.8c0.8,0.2,1.8,0.3,2.7,0.3v-4.1L301.2,257.3L301.2,257.3z"/>
				</g>
			</g>
			<g>
				<g>
					<path class="st37" d="M308.8,261.1V253c2.9,0.2,5.5,0.7,6.5,1.9v2.3C315.3,259,312.6,260.5,308.8,261.1z"/>
				</g>
			</g>
			<g>
				<g>
					<ellipse class="st38" cx="305.2" cy="255.1" rx="10.1" ry="4.3"/>
				</g>
			</g>
			<g>
				<g>
					<path class="st36" d="M299.4,258.4c-1.7-0.5-3-1.3-3.7-2.1l8.1-5.4c0.5,0,0.9,0,1.4,0c1.7,0,3.3,0.2,4.8,0.5L299.4,258.4z"/>
				</g>
			</g>
			<g>
				<g>
					<path class="st36" d="M303.9,259.2c-0.8,0-1.6-0.1-2.4-0.3L312,252c0.6,0.2,1.1,0.5,1.6,0.8L303.9,259.2z"/>
				</g>
			</g>
		</g>
		<g>
			<g>
				<g>
					<ellipse class="st33" cx="305.2" cy="254.6" rx="10.1" ry="4.3"/>
				</g>
			</g>
			<g>
				<g>
					<path class="st34" d="M295.1,252.1v2.1c0,1.8,2.5,3.3,6.1,3.9c0.8,0.2,1.8,0.3,2.7,0.3c0.4,0,0.9,0,1.3,0c1.4,0,2.8-0.1,4-0.4
						c3.6-0.7,5.4-2.2,5.4-4l0.6-2.2c-1.5-1.6-5.8-2-10.1-2C301.8,249.9,296.9,251,295.1,252.1z"/>
				</g>
			</g>
			<g class="st35">
				<g>
					<path class="st36" d="M301.2,254.3v3.8c0.8,0.2,1.8,0.3,2.7,0.3v-4.1L301.2,254.3L301.2,254.3z"/>
				</g>
			</g>
			<g>
				<g>
					<path class="st37" d="M308.8,258.2V250c2.9,0.2,5.5,0.7,6.5,1.9v2.3C315.3,256,312.6,257.6,308.8,258.2z"/>
				</g>
			</g>
			<g>
				<g>
					<ellipse class="st38" cx="305.2" cy="252.1" rx="10.1" ry="4.3"/>
				</g>
			</g>
			<g>
				<g>
					<path class="st36" d="M299.4,255.5c-1.7-0.5-3-1.3-3.7-2.1l8.1-5.4c0.5,0,0.9,0,1.4,0c1.7,0,3.3,0.2,4.8,0.5L299.4,255.5z"/>
				</g>
			</g>
			<g>
				<g>
					<path class="st36" d="M303.9,256.2c-0.8,0-1.6-0.1-2.4-0.3L312,249c0.6,0.2,1.1,0.5,1.6,0.8L303.9,256.2z"/>
				</g>
			</g>
		</g>
		<g>
			<g>
				<g>
					<ellipse class="st33" cx="305.2" cy="251.6" rx="10.1" ry="4.3"/>
				</g>
			</g>
			<g>
				<g>
					<path class="st34" d="M295.1,249.1v2.1c0,1.8,2.5,3.3,6.1,3.9c0.8,0.2,1.8,0.3,2.7,0.3c0.4,0,0.9,0,1.3,0c1.4,0,2.8-0.1,4-0.4
						c3.6-0.7,5.4-2.2,5.4-4l0.6-2.2c-1.5-1.6-5.8-2-10.1-2C301.8,246.9,296.9,248,295.1,249.1z"/>
				</g>
			</g>
			<g class="st35">
				<g>
					<path class="st36" d="M301.2,251.4v3.8c0.8,0.2,1.8,0.3,2.7,0.3v-4.1H301.2z"/>
				</g>
			</g>
			<g>
				<g>
					<path class="st37" d="M308.8,255.2V247c2.9,0.2,5.5,0.7,6.5,1.9v2.3C315.3,253,312.6,254.6,308.8,255.2z"/>
				</g>
			</g>
			<g>
				<g>
					<ellipse class="st38" cx="305.2" cy="249.1" rx="10.1" ry="4.3"/>
				</g>
			</g>
			<g>
				<g>
					<path class="st36" d="M299.4,252.5c-1.7-0.5-3-1.3-3.7-2.1l8.1-5.4c0.5,0,0.9,0,1.4,0c1.7,0,3.3,0.2,4.8,0.5L299.4,252.5z"/>
				</g>
			</g>
			<g>
				<g>
					<path class="st36" d="M303.9,253.3c-0.8,0-1.6-0.1-2.4-0.3l10.5-6.9c0.6,0.2,1.1,0.5,1.6,0.8L303.9,253.3z"/>
				</g>
			</g>
		</g>
		<g>
			<g>
				<g>
					<ellipse class="st33" cx="305.2" cy="248.7" rx="10.1" ry="4.3"/>
				</g>
			</g>
			<g>
				<g>
					<path class="st34" d="M295.1,246.2v2.1c0,1.8,2.5,3.3,6.1,3.9c0.8,0.2,1.8,0.3,2.7,0.3c0.4,0,0.9,0,1.3,0c1.4,0,2.8-0.1,4-0.4
						c3.6-0.7,5.4-2.2,5.4-4l0.6-2.2c-1.5-1.6-5.8-2-10.1-2C301.8,243.9,296.9,245.1,295.1,246.2z"/>
				</g>
			</g>
			<g class="st35">
				<g>
					<path class="st36" d="M301.2,248.4v3.8c0.8,0.2,1.8,0.3,2.7,0.3v-4.1H301.2z"/>
				</g>
			</g>
			<g>
				<g>
					<path class="st37" d="M308.8,252.2V244c2.9,0.2,5.5,0.7,6.5,1.9v2.3C315.3,250.1,312.6,251.6,308.8,252.2z"/>
				</g>
			</g>
			<g>
				<g>
					<ellipse class="st38" cx="305.2" cy="246.2" rx="10.1" ry="4.3"/>
				</g>
			</g>
		</g>
	</g>
	<g>
		<g>
			<g>
				<g>
					
						<ellipse transform="matrix(2.091940e-02 -0.9998 0.9998 2.091940e-02 -16.6777 542.3976)" class="st33" cx="268.6" cy="279.7" rx="4.3" ry="10.1"/>
				</g>
			</g>
			<g>
				<g>
					<path class="st34" d="M258.5,277v2.1c0,1.8,2.4,3.3,6,4.1c0.8,0.2,1.7,0.3,2.7,0.4c0.4,0,0.9,0.1,1.3,0.1c1.4,0,2.8-0.1,4-0.3
						c3.6-0.6,5.5-2.1,5.5-3.9l0.7-2.2c-1.4-1.6-5.8-2.1-10.1-2.2C265.2,274.9,260.3,276,258.5,277z"/>
				</g>
			</g>
			<g class="st35">
				<g>
					<path class="st36" d="M264.5,279.4l-0.1,3.8c0.8,0.2,1.7,0.3,2.7,0.4l0.1-4.1L264.5,279.4z"/>
				</g>
			</g>
			<g>
				<g>
					<path class="st37" d="M272.1,283.4l0.2-8.2c2.9,0.3,5.4,0.9,6.5,2v2.3C278.6,281.3,275.9,282.8,272.1,283.4z"/>
				</g>
			</g>
			<g>
				<g>
					
						<ellipse transform="matrix(2.091647e-02 -0.9998 0.9998 2.091647e-02 -14.1873 539.959)" class="st38" cx="268.6" cy="277.2" rx="4.3" ry="10.1"/>
				</g>
			</g>
			<g>
				<g>
					<path class="st36" d="M262.8,280.5c-1.7-0.6-3-1.3-3.6-2.2l8.2-5.2c0.3,0,0.6,0,0.9,0c0.2,0,0.3,0,0.5,0c1.7,0,3.3,0.2,4.8,0.6
						L262.8,280.5z"/>
				</g>
			</g>
			<g>
				<g>
					<path class="st36" d="M267.2,281.3c-0.8-0.1-1.6-0.2-2.4-0.3l10.7-6.7c0.6,0.2,1.1,0.5,1.6,0.8L267.2,281.3z"/>
				</g>
			</g>
		</g>
		<g>
			<g>
				<g>
					
						<ellipse transform="matrix(2.091940e-02 -0.9998 0.9998 2.091940e-02 -13.6948 539.3629)" class="st33" cx="268.5" cy="276.7" rx="4.3" ry="10.1"/>
				</g>
			</g>
			<g>
				<g>
					<path class="st34" d="M258.5,274.1v2.1c0,1.8,2.4,3.3,6,4.1c0.8,0.2,1.7,0.3,2.7,0.4c0.4,0,0.9,0.1,1.3,0.1
						c1.4,0,2.8-0.1,4-0.3c3.6-0.6,5.5-2.1,5.5-3.9l0.7-2.2c-1.4-1.6-5.8-2.1-10.1-2.2C265.2,272,260.3,273,258.5,274.1z"/>
				</g>
			</g>
			<g class="st35">
				<g>
					<path class="st36" d="M264.5,276.4l-0.1,3.8c0.8,0.2,1.7,0.3,2.7,0.4l0.1-4.1L264.5,276.4z"/>
				</g>
			</g>
			<g>
				<g>
					<path class="st37" d="M272.1,280.4l0.2-8.2c2.9,0.3,5.4,0.9,6.5,2v2.3C278.6,278.4,275.9,279.9,272.1,280.4z"/>
				</g>
			</g>
			<g>
				<g>
					
						<ellipse transform="matrix(2.091647e-02 -0.9998 0.9998 2.091647e-02 -11.2045 536.9243)" class="st38" cx="268.5" cy="274.2" rx="4.3" ry="10.1"/>
				</g>
			</g>
			<g>
				<g>
					<path class="st36" d="M262.8,277.5c-1.7-0.6-3-1.3-3.6-2.2l8.2-5.2c0.3,0,0.6,0,0.9,0c0.2,0,0.3,0,0.5,0c1.7,0,3.3,0.2,4.8,0.6
						L262.8,277.5z"/>
				</g>
			</g>
			<g>
				<g>
					<path class="st36" d="M267.2,278.4c-0.8-0.1-1.6-0.2-2.4-0.3l10.7-6.7c0.6,0.2,1.1,0.5,1.6,0.8L267.2,278.4z"/>
				</g>
			</g>
		</g>
		<g>
			<g>
				<g>
					
						<ellipse transform="matrix(2.091940e-02 -0.9998 0.9998 2.091940e-02 -10.7161 536.524)" class="st33" cx="268.6" cy="273.7" rx="4.3" ry="10.1"/>
				</g>
			</g>
			<g>
				<g>
					<path class="st34" d="M258.5,271.1v2.1c0,1.8,2.4,3.3,6,4.1c0.8,0.2,1.7,0.3,2.7,0.4c0.4,0,0.9,0.1,1.3,0.1
						c1.4,0,2.8-0.1,4-0.3c3.6-0.6,5.5-2.1,5.5-3.9l0.7-2.2c-1.4-1.6-5.8-2.1-10.1-2.2C265.2,269,260.3,270,258.5,271.1z"/>
				</g>
			</g>
			<g class="st35">
				<g>
					<path class="st36" d="M264.5,273.4l-0.1,3.8c0.8,0.2,1.7,0.3,2.7,0.4l0.1-4.1L264.5,273.4z"/>
				</g>
			</g>
			<g>
				<g>
					<path class="st37" d="M272.1,277.4l0.2-8.2c2.9,0.3,5.4,0.9,6.5,2v2.3C278.6,275.4,275.9,276.9,272.1,277.4z"/>
				</g>
			</g>
			<g>
				<g>
					
						<ellipse transform="matrix(2.091647e-02 -0.9998 0.9998 2.091647e-02 -8.2257 534.0854)" class="st38" cx="268.6" cy="271.2" rx="4.3" ry="10.1"/>
				</g>
			</g>
			<g>
				<g>
					<path class="st36" d="M267.2,275.4c-0.8-0.1-1.6-0.2-2.4-0.3l10.7-6.7c0.6,0.2,1.1,0.5,1.6,0.8L267.2,275.4z"/>
				</g>
			</g>
		</g>
		<g>
			<g>
				<g>
					
						<ellipse transform="matrix(2.091940e-02 -0.9998 0.9998 2.091940e-02 -7.833 533.5829)" class="st33" cx="268.5" cy="270.8" rx="4.3" ry="10.1"/>
				</g>
			</g>
			<g>
				<g>
					<path class="st34" d="M258.5,268.1v2.1c0,1.8,2.4,3.3,6,4.1c0.8,0.2,1.7,0.3,2.7,0.4c0.4,0,0.9,0.1,1.3,0.1
						c1.4,0,2.8-0.1,4-0.3c3.6-0.6,5.5-2.1,5.5-3.9l0.7-2.2c-1.4-1.6-5.8-2.1-10.1-2.2C265.2,266,260.3,267.1,258.5,268.1z"/>
				</g>
			</g>
			<g class="st35">
				<g>
					<path class="st36" d="M264.5,270.4l-0.1,3.8c0.8,0.2,1.7,0.3,2.7,0.4l0.1-4.1L264.5,270.4z"/>
				</g>
			</g>
			<g>
				<g>
					<path class="st37" d="M272.1,274.5l0.2-8.2c2.9,0.3,5.4,0.9,6.5,2v2.3C278.6,272.4,275.9,273.9,272.1,274.5z"/>
				</g>
			</g>
			<g>
				<g>
					
						<ellipse transform="matrix(2.091647e-02 -0.9998 0.9998 2.091647e-02 -5.3427 531.1445)" class="st38" cx="268.5" cy="268.3" rx="4.3" ry="10.1"/>
				</g>
			</g>
		</g>
	</g>
	<g>
		<g>
			<g>
				<g>
					<ellipse class="st33" cx="283.9" cy="295.8" rx="10.1" ry="4.3"/>
				</g>
			</g>
			<g>
				<g>
					<path class="st34" d="M273.8,293.3v2.1c0,1.8,2.5,3.3,6.1,3.9c0.8,0.2,1.8,0.3,2.7,0.3c0.4,0,0.9,0,1.3,0c1.4,0,2.8-0.1,4-0.4
						c3.6-0.7,5.4-2.2,5.4-4l0.6-2.2c-1.5-1.6-5.8-2-10.1-2C280.5,291.1,275.6,292.2,273.8,293.3z"/>
				</g>
			</g>
			<g class="st35">
				<g>
					<path class="st36" d="M279.8,295.6v3.8c0.8,0.2,1.8,0.3,2.7,0.3v-4.1L279.8,295.6L279.8,295.6z"/>
				</g>
			</g>
			<g>
				<g>
					<path class="st37" d="M287.5,299.4v-8.2c2.9,0.2,5.5,0.7,6.5,1.9v2.3C294,297.2,291.3,298.8,287.5,299.4z"/>
				</g>
			</g>
			<g>
				<g>
					<ellipse class="st38" cx="283.9" cy="293.4" rx="10.1" ry="4.3"/>
				</g>
			</g>
			<g>
				<g>
					<path class="st36" d="M278.1,296.7c-1.7-0.5-3-1.3-3.7-2.1l8.1-5.4c0.5,0,0.9,0,1.4,0c1.7,0,3.3,0.2,4.8,0.5L278.1,296.7z"/>
				</g>
			</g>
			<g>
				<g>
					<path class="st36" d="M282.6,297.5c-0.8,0-1.6-0.1-2.4-0.3l10.5-6.9c0.6,0.2,1.1,0.5,1.6,0.8L282.6,297.5z"/>
				</g>
			</g>
		</g>
		<g>
			<g>
				<g>
					<ellipse class="st33" cx="283.9" cy="292.9" rx="10.1" ry="4.3"/>
				</g>
			</g>
			<g>
				<g>
					<path class="st34" d="M273.8,290.4v2.1c0,1.8,2.5,3.3,6.1,3.9c0.8,0.2,1.8,0.3,2.7,0.3c0.4,0,0.9,0,1.3,0c1.4,0,2.8-0.1,4-0.4
						c3.6-0.7,5.4-2.2,5.4-4l0.6-2.2c-1.5-1.6-5.8-2-10.1-2C280.5,288.2,275.6,289.3,273.8,290.4z"/>
				</g>
			</g>
			<g class="st35">
				<g>
					<path class="st36" d="M279.8,292.6v3.8c0.8,0.2,1.8,0.3,2.7,0.3v-4.1L279.8,292.6L279.8,292.6z"/>
				</g>
			</g>
			<g>
				<g>
					<path class="st37" d="M287.5,296.4v-8.2c2.9,0.2,5.5,0.7,6.5,1.9v2.3C294,294.3,291.3,295.8,287.5,296.4z"/>
				</g>
			</g>
			<g>
				<g>
					<ellipse class="st38" cx="283.9" cy="290.4" rx="10.1" ry="4.3"/>
				</g>
			</g>
			<g>
				<g>
					<path class="st36" d="M278.1,293.7c-1.7-0.5-3-1.3-3.7-2.1l8.1-5.4c0.5,0,0.9,0,1.4,0c1.7,0,3.3,0.2,4.8,0.5L278.1,293.7z"/>
				</g>
			</g>
			<g>
				<g>
					<path class="st36" d="M282.6,294.5c-0.8,0-1.6-0.1-2.4-0.3l10.5-6.9c0.6,0.2,1.1,0.5,1.6,0.8L282.6,294.5z"/>
				</g>
			</g>
		</g>
		<g>
			<g>
				<g>
					<ellipse class="st33" cx="283.9" cy="289.9" rx="10.1" ry="4.3"/>
				</g>
			</g>
			<g>
				<g>
					<path class="st34" d="M273.8,287.4v2.1c0,1.8,2.5,3.3,6.1,3.9c0.8,0.2,1.8,0.3,2.7,0.3c0.4,0,0.9,0,1.3,0c1.4,0,2.8-0.1,4-0.4
						c3.6-0.7,5.4-2.2,5.4-4l0.6-2.2c-1.5-1.6-5.8-2-10.1-2C280.5,285.2,275.6,286.3,273.8,287.4z"/>
				</g>
			</g>
			<g class="st35">
				<g>
					<path class="st36" d="M279.8,289.6v3.8c0.8,0.2,1.8,0.3,2.7,0.3v-4.1L279.8,289.6L279.8,289.6z"/>
				</g>
			</g>
			<g>
				<g>
					<path class="st37" d="M287.5,293.5v-8.2c2.9,0.2,5.5,0.7,6.5,1.9v2.3C294,291.3,291.3,292.8,287.5,293.5z"/>
				</g>
			</g>
			<g>
				<g>
					<ellipse class="st38" cx="283.9" cy="287.4" rx="10.1" ry="4.3"/>
				</g>
			</g>
			<g>
				<g>
					<path class="st36" d="M278.1,290.8c-1.7-0.5-3-1.3-3.7-2.1l8.1-5.4c0.5,0,0.9,0,1.4,0c1.7,0,3.3,0.2,4.8,0.5L278.1,290.8z"/>
				</g>
			</g>
			<g>
				<g>
					<path class="st36" d="M282.6,291.5c-0.8,0-1.6-0.1-2.4-0.3l10.5-6.9c0.6,0.2,1.1,0.5,1.6,0.8L282.6,291.5z"/>
				</g>
			</g>
		</g>
		<g>
			<g>
				<g>
					<ellipse class="st33" cx="283.9" cy="286.9" rx="10.1" ry="4.3"/>
				</g>
			</g>
			<g>
				<g>
					<path class="st34" d="M273.8,284.4v2.1c0,1.8,2.5,3.3,6.1,3.9c0.8,0.2,1.8,0.3,2.7,0.3c0.4,0,0.9,0,1.3,0c1.4,0,2.8-0.1,4-0.4
						c3.6-0.7,5.4-2.2,5.4-4l0.6-2.2c-1.5-1.6-5.8-2-10.1-2C280.5,282.2,275.6,283.3,273.8,284.4z"/>
				</g>
			</g>
			<g class="st35">
				<g>
					<path class="st36" d="M279.8,286.6v3.8c0.8,0.2,1.8,0.3,2.7,0.3v-4.1L279.8,286.6L279.8,286.6z"/>
				</g>
			</g>
			<g>
				<g>
					<path class="st37" d="M287.5,290.5v-8.2c2.9,0.2,5.5,0.7,6.5,1.9v2.3C294,288.3,291.3,289.9,287.5,290.5z"/>
				</g>
			</g>
			<g>
				<g>
					<ellipse class="st38" cx="283.9" cy="284.4" rx="10.1" ry="4.3"/>
				</g>
			</g>
			<g>
				<g>
					<path class="st36" d="M278.1,287.8c-1.7-0.5-3-1.3-3.7-2.1l8.1-5.4c0.5,0,0.9,0,1.4,0c1.7,0,3.3,0.2,4.8,0.5L278.1,287.8z"/>
				</g>
			</g>
			<g>
				<g>
					<path class="st36" d="M282.6,288.6c-0.8,0-1.6-0.1-2.4-0.3l10.5-6.9c0.6,0.2,1.1,0.5,1.6,0.8L282.6,288.6z"/>
				</g>
			</g>
		</g>
		<g>
			<g>
				<g>
					<ellipse class="st33" cx="283.9" cy="284" rx="10.1" ry="4.3"/>
				</g>
			</g>
			<g>
				<g>
					<path class="st34" d="M273.8,281.5v2.1c0,1.8,2.5,3.3,6.1,3.9c0.8,0.2,1.8,0.3,2.7,0.3c0.4,0,0.9,0,1.3,0c1.4,0,2.8-0.1,4-0.4
						c3.6-0.7,5.4-2.2,5.4-4l0.6-2.2c-1.5-1.6-5.8-2-10.1-2C280.5,279.2,275.6,280.4,273.8,281.5z"/>
				</g>
			</g>
			<g class="st35">
				<g>
					<path class="st36" d="M279.8,283.7v3.8c0.8,0.2,1.8,0.3,2.7,0.3v-4.1L279.8,283.7L279.8,283.7z"/>
				</g>
			</g>
			<g>
				<g>
					<path class="st37" d="M287.5,287.5v-8.2c2.9,0.2,5.5,0.7,6.5,1.9v2.3C294,285.3,291.3,286.9,287.5,287.5z"/>
				</g>
			</g>
			<g>
				<g>
					<ellipse class="st38" cx="283.9" cy="281.5" rx="10.1" ry="4.3"/>
				</g>
			</g>
			<g>
				<g>
					<path class="st36" d="M278.1,284.8c-1.7-0.5-3-1.3-3.7-2.1l8.1-5.4c0.5,0,0.9,0,1.4,0c1.7,0,3.3,0.2,4.8,0.5L278.1,284.8z"/>
				</g>
			</g>
			<g>
				<g>
					<path class="st36" d="M282.6,285.6c-0.8,0-1.6-0.1-2.4-0.3l10.5-6.9c0.6,0.2,1.1,0.5,1.6,0.8L282.6,285.6z"/>
				</g>
			</g>
		</g>
		<g>
			<g>
				<g>
					<ellipse class="st33" cx="283.9" cy="281" rx="10.1" ry="4.3"/>
				</g>
			</g>
			<g>
				<g>
					<path class="st34" d="M273.8,278.5v2.1c0,1.8,2.5,3.3,6.1,3.9c0.8,0.2,1.8,0.3,2.7,0.3c0.4,0,0.9,0,1.3,0c1.4,0,2.8-0.1,4-0.4
						c3.6-0.7,5.4-2.2,5.4-4l0.6-2.2c-1.5-1.6-5.8-2-10.1-2C280.5,276.3,275.6,277.4,273.8,278.5z"/>
				</g>
			</g>
			<g class="st35">
				<g>
					<path class="st36" d="M279.8,280.7v3.8c0.8,0.2,1.8,0.3,2.7,0.3v-4.1L279.8,280.7L279.8,280.7z"/>
				</g>
			</g>
			<g>
				<g>
					<path class="st37" d="M287.5,284.6v-8.2c2.9,0.2,5.5,0.7,6.5,1.9v2.3C294,282.4,291.3,283.9,287.5,284.6z"/>
				</g>
			</g>
			<g>
				<g>
					<ellipse class="st38" cx="283.9" cy="278.5" rx="10.1" ry="4.3"/>
				</g>
			</g>
		</g>
	</g>
</g>
<g>
	<g>
		<g>
			<path class="st39" d="M517.3,274.6c0,1.1-0.9,2-2,2h-29c-1.1,0-2-0.9-2-2v-23.7c0-1.1,0.9-2,2-2h29c1.1,0,2,0.9,2,2V274.6z"/>
		</g>
	</g>
	<g>
		<g>
			<path class="st40" d="M492,248.8v-3.7c0-4.7,3.9-8.6,8.6-8.6h0.3c4.7,0,8.6,3.8,8.6,8.6v3.7h4.1v-3.7c0-7-5.7-12.6-12.7-12.6
				h-0.3c-7,0-12.7,5.7-12.7,12.6v3.7H492z"/>
		</g>
	</g>
	<g>
		<g>
			<g>
				<g>
					<g>
						<g>
							<g>
								<g>
									<path class="st41" d="M505.3,260.3c0-2.5-2-4.5-4.6-4.5c-2.5,0-4.6,2-4.6,4.5c0,2,1.3,3.6,3,4.3v6.1h3.1v-6.1
										C504,263.9,505.3,262.2,505.3,260.3z"/>
								</g>
							</g>
						</g>
					</g>
				</g>
			</g>
		</g>
	</g>
</g>
<text transform="matrix(1 0 0 1 260 385.8)" class="st42 st43 st44"></text>
<text transform="matrix(1 0 0 1 22.8667 386.8)" class="st42 st43 st44">5%+50%</text>
<text transform="matrix(1 0 0 1 476.9997 386.1)" class="st42 st43 st44">100%</text>
</svg>
