<?xml version="1.0" encoding="utf-8"?>
<!-- Generator: Adobe Illustrator 22.0.0, SVG Export Plug-In . SVG Version: 6.00 Build 0)  -->
<svg version="1.1" id="图层_1" xmlns="http://www.w3.org/2000/svg" xmlns:xlink="http://www.w3.org/1999/xlink" x="0px" y="0px"
	 viewBox="0 0 1028 462" style="enable-background:new 0 0 1028 462;" xml:space="preserve">
<style type="text/css">
	.st0{opacity:0.15;enable-background:new    ;}
	.st1{fill:#070707;}
	.st2{fill:#8C6F49;}
	.st3{fill:#E0B153;}
	.st4{fill:#CCA560;}
	.st5{fill:#EDB85A;}
	.st6{fill:#DCE5E7;}
	.st7{fill:#7F6641;}
	.st8{fill:#96794B;}
	.st9{fill:#FFD473;}
	.st10{fill:#F0FAFA;}
	.st11{opacity:0.6;}
	.st12{fill:#999;}
</style>
<g id="XMLID_6_" class="st0">
	<path class="st1" d="M664.8,325.5c-30.4,36.8-101.1,62.6-183.6,62.6c-78.5,0-146.4-23.3-178.9-57.3c-13.1,11.8-20.4,25.1-20.4,39.3
		c0,49.8,91.8,90.2,204.9,90.2s204.7-40.4,204.7-90.2C691.5,353.9,681.8,338.6,664.8,325.5z"/>
</g>
<g id="XMLID_158_">
	<path class="st2" d="M617,278.1v-147c-24-4.4-50.3-6.8-77.8-6.8v141.3C568.7,265.6,595.9,270.3,617,278.1z"/>
</g>
<g id="XMLID_157_">
	<path class="st3" d="M689.3,272.5v8.7c-7.1-23.1-33.6-8.6-71.7-22.9c-16-6-34.1-23.1-53.7-26.7v55.1c0.1,0.1,0.3,0.1,0.5,0.2
		c26.8,10,43.9,25.1,43.9,42c0,19.3-22.5,20.8-56.5,30.6V416c81.1-12.3,139.6-46.6,139.6-87.1v-56.4H689.3z"/>
</g>
<g id="XMLID_156_">
	<polygon class="st4" points="525.1,325.2 525.1,377.4 551.7,415.9 551.7,360.5 	"/>
</g>
<g id="XMLID_155_">
	<path class="st3" d="M486.1,274.1V83.6c-75.3,0-141.2,18.1-176.8,45.3v201H364c0-0.3,0-0.7,0-1
		C363.8,298.6,418.5,274.1,486.1,274.1z"/>
</g>
<g id="XMLID_154_">
	<polygon class="st5" points="380.8,191.9 380.8,340.7 309.2,375.5 309.2,208.9 	"/>
</g>
<g id="XMLID_153_">
	<path class="st6" d="M525.1,380.6c-12.3,1.9-25.4,2.9-39.1,2.9c-0.9,0-1.9,0-2.8,0c-0.6,0-1.3,0-1.9,0
		c-42.9-0.7-80-11.3-100.5-26.8c-10.4-7.9-16.4-7.1-16.8-16.9l-54.8,14.4v21.3c35,26.5,98.8,44.5,172.1,45.2c1.6,0,3.1,0.1,4.7,0.1
		c22.9,0,45.1-1.7,65.7-4.8v-21.3C543.5,396.9,534.6,379.2,525.1,380.6z"/>
</g>
<g id="XMLID_152_">
	<path class="st4" d="M282.7,171.9V163h-1.9v165.8c0,17,10.4,33,28.5,46.7V137.7C295.7,148,286.5,159.5,282.7,171.9z"/>
</g>
<g id="XMLID_151_">
	<path class="st7" d="M563.9,286.6v-147c-24-4.4-50.3-6.8-77.8-6.8v141.3C515.6,274.1,542.8,278.8,563.9,286.6z"/>
</g>
<g>
	<path class="st8" d="M486.1,110.3v37.3c29.8-0.1,56.6,5,77.8,13l53.1-29.4C581.3,117.9,536.1,110.3,486.1,110.3z"/>
</g>
<g id="XMLID_149_">
	<path class="st9" d="M691.3,273.3c0-28.4-28.7-53.7-73.7-70.5l-53.7,28.7c26.8,10,44.4,24.9,44.4,41.9c0,24-34.8,44.6-83.1,51.8
		l26.5,35.3C632.8,348.1,691.3,313.8,691.3,273.3z"/>
</g>
<g id="XMLID_148_">
	<path class="st10" d="M525.1,359.3c-12.3,1.9-25.4,2.9-39.1,2.9c-0.9,0-1.9,0-2.8,0c-43.7-0.4-81.7-11.1-102.4-26.8l-71.5,18.9
		c35,26.5,98.8,44.5,172.1,45.2c1.6,0,3.1,0.1,4.7,0.1c22.9,0,45.1-1.7,65.7-4.8L525.1,359.3z"/>
</g>
<g id="XMLID_147_">
	<path class="st9" d="M363.8,164.1c0-30.3,54.7-47.9,122.1-47.9v-6.8V72.1l0,0c-113.3,0-205.3,41.2-205.3,92c0,17,10.4,33,28.5,46.7
		l71.5-18.9C370,183.6,363.8,174.2,363.8,164.1z"/>
</g>
<g id="XMLID_161_" class="st11">
	<ellipse class="st12" cx="352.9" cy="122.7" rx="5" ry="1.5"/>
</g>
<g id="XMLID_172_" class="st11">
	<ellipse class="st12" cx="564.3" cy="135.8" rx="5" ry="1.5"/>
</g>
<g id="XMLID_173_" class="st11">
	<ellipse class="st12" cx="429.1" cy="381.2" rx="5" ry="1.5"/>
</g>
<g id="XMLID_174_" class="st11">
	<ellipse class="st12" cx="659.5" cy="357.2" rx="5" ry="1.5"/>
</g>
<g id="XMLID_9_">
	<path class="st12" d="M351.9,54.1H70.3c-0.4-1.7-2-3-3.9-3c-2.2,0-4,1.8-4,4s1.8,4,4,4c1.9,0,3.4-1.3,3.9-3h281.6v66.1h2V56.1v-2
		H351.9z"/>
</g>
<g id="XMLID_5_">
	<path class="st12" d="M910.9,84.2c-1.9,0-3.4,1.3-3.9,3H565.3h-2v2v46.1h2V89.2H907c0.4,1.7,2,3,3.9,3c2.2,0,4-1.8,4-4
		S913.1,84.2,910.9,84.2z"/>
</g>
<g id="XMLID_8_">
	<path class="st12" d="M428.1,380.7h2L400,313.6h-2H6.2c-0.4-1.7-2-3-3.9-3c-2.2,0-4,1.8-4,4s1.8,4,4,4c1.9,0,3.4-1.3,3.9-3h392.7
		L428.1,380.7z"/>
</g>
<g id="XMLID_7_">
	<path class="st12" d="M1023,286.5c-1.5,0-2.7,1.3-3.1,3H708.2h-1.6l-48.1,67.2h1.6l46.7-65.1h313.3c0.3,1.7,1.6,3,3.1,3
		c1.7,0,3.2-1.8,3.2-4S1024.8,286.5,1023,286.5z"/>
</g>
<g>
	<path class="st12" d="M759.1,312.2c0.7-0.9,0.9-1.2,1.4-2.1l0.9,0.3c-0.6,0.8-0.8,1.2-1.3,1.8h2.7c0.6,0,1,0,1.4-0.1v1
		c-0.4-0.1-0.8-0.1-1.4-0.1h-4.5c-0.2,0.5-0.4,1-0.6,1.4h3.4c0.4,0,0.8,0,1.3-0.1c0,0.4-0.1,0.7-0.1,1.1v6.2c0,0.5,0,0.9,0.1,1.3h-1
		v-0.8h-7v0.8h-1c0.1-0.4,0.1-0.8,0.1-1.3v-6.2c0-0.4,0-0.7-0.1-1.1c0.5,0,0.9,0.1,1.3,0.1h1.9c0.3-0.5,0.4-0.9,0.6-1.4H753
		c-0.6,0-1,0-1.4,0.1v-1c0.4,0.1,0.8,0.1,1.4,0.1h2.7c-0.3-0.6-0.7-1.1-1.2-1.7l0.8-0.4c0.6,0.8,0.9,1.2,1.4,2h2.4V312.2z
		 M754.4,315.2v1.5h7v-1.5H754.4z M754.4,317.4v1.5h7v-1.5H754.4z M754.4,319.7v1.7h7v-1.7H754.4z"/>
	<path class="st12" d="M767.1,311.8c0-0.6,0-0.9-0.1-1.3h1c-0.1,0.4-0.1,0.8-0.1,1.3v0.3h2.6v-0.3c0-0.6,0-1-0.1-1.3h1
		c-0.1,0.4-0.1,0.8-0.1,1.3v0.3c0.5,0,0.9,0,1.2-0.1v0.9c-0.3,0-0.7-0.1-1.2-0.1v6c0.4,0,0.8,0,1.1-0.1v0.9c-0.3,0-0.7,0-1.3,0h-4.4
		c-0.6,0-0.8,0-1.1,0.1v-0.9c0.3,0.1,0.6,0.1,1.1,0.1h0.4v-6H767c-0.6,0-0.9,0-1.2,0.1v-0.9c0.3,0.1,0.6,0.1,1.2,0.1h0.1
		L767.1,311.8L767.1,311.8z M768.6,320.5c-0.7,1.1-1.1,1.6-2.2,2.4c-0.2-0.3-0.3-0.4-0.6-0.7c1.1-0.7,1.6-1.2,2.1-2.2L768.6,320.5z
		 M770.5,314.2v-1.5h-2.6v1.5H770.5z M770.5,316.4v-1.5h-2.6v1.5H770.5z M770.5,318.8v-1.6h-2.6v1.6H770.5z M771.1,322.2
		c-0.6-0.8-0.8-1.1-1.4-1.5l0.6-0.6c0.6,0.6,0.8,0.7,1.5,1.5L771.1,322.2z M773.9,318.4c-0.2,2-0.6,3.2-1.6,4.5
		c-0.3-0.4-0.4-0.4-0.7-0.6c0.9-1,1.2-1.8,1.4-3.2c0.1-1,0.2-3.5,0.2-6.5c0-0.9,0-1.3-0.1-1.7c0.4,0,0.7,0.1,1.3,0.1h1.9
		c0.6,0,1,0,1.3-0.1c0,0.3-0.1,0.7-0.1,1.4v9.5c0,0.5-0.1,0.8-0.4,0.9c-0.2,0.1-0.5,0.2-1.1,0.2c-0.2,0-0.4,0-1.1-0.1
		c0-0.4-0.1-0.6-0.2-1c0.8,0.1,1.1,0.2,1.5,0.2c0.3,0,0.4-0.1,0.4-0.3v-3.3H773.9z M776.9,317.6V315h-2.8c0,1.5,0,1.8-0.1,2.6H776.9
		z M776.9,314.3v-2.5h-2.8v1.9c0,0.4,0,0.4,0,0.5h2.8V314.3z"/>
	<path class="st12" d="M785.5,319.3c0.2,0.7,0.4,1,0.9,1.3s1.1,0.5,1.8,0.5c1.6,0,2.7-0.8,2.7-2.2c0-1.4-1-2.1-2.9-2.1
		c-0.4,0-0.7,0-1.1,0.1v-1.1c0.3,0.1,0.7,0.1,1,0.1c0.9,0,1.6-0.2,2-0.6c0.4-0.3,0.6-0.9,0.6-1.4c0-1.2-0.8-1.9-2.3-1.9
		c-0.9,0-1.5,0.2-1.9,0.7c-0.2,0.3-0.3,0.5-0.4,1l-1.2-0.3c0.2-0.7,0.4-1,0.8-1.4c0.6-0.7,1.6-1,2.8-1c2,0,3.3,1.1,3.3,2.8
		c0,0.9-0.4,1.6-1,2c-0.4,0.3-0.7,0.4-1.3,0.5c0.8,0.1,1.2,0.2,1.7,0.6c0.6,0.5,0.9,1.2,0.9,2.1c0,1.9-1.5,3.1-3.8,3.1
		c-1.4,0-2.5-0.4-3.1-1.2c-0.3-0.3-0.5-0.6-0.7-1.4L785.5,319.3z"/>
	<path class="st12" d="M805,310.6c0.8,1.3,1.5,2.1,2.7,3.1c1.1,0.9,2,1.5,3.2,2.1c-0.3,0.3-0.4,0.5-0.6,0.9
		c-1.3-0.7-2.2-1.4-3.1-2.2c-1-0.9-1.7-1.6-2.6-3c-1.2,2-3,3.8-5.4,5.2c-0.2-0.4-0.3-0.5-0.6-0.8c1.7-0.9,3.2-2.1,4.4-3.6
		c0.7-0.9,1.1-1.6,1.3-2.4l1,0.4L805,310.6z M804,322.9c0.1-0.5,0.1-1,0.1-1.5v-6c0-0.5,0-1-0.1-1.4h1.1c-0.1,0.4-0.1,0.9-0.1,1.4v6
		c0,0.5,0,1,0.1,1.5H804z"/>
	<path class="st12" d="M813.8,317c0-0.8,0-1.4,0-2.1c-0.4,0.8-0.8,1.4-1.3,2.1c-0.2-0.4-0.3-0.6-0.6-0.8c0.9-1.1,1.6-2.2,2.2-3.7
		c0.4-0.9,0.6-1.7,0.7-2.2l0.9,0.3c-0.1,0.2-0.1,0.3-0.3,0.7c-0.3,0.9-0.5,1.4-0.9,2.3v7.7c0,0.8,0,1.3,0.1,1.8h-1
		c0.1-0.5,0.1-1,0.1-1.7L813.8,317L813.8,317z M820.6,310.8c0.5,0.8,1,1.5,1.6,2.1c0.9,0.9,1.5,1.4,3.1,2.2
		c-0.3,0.3-0.5,0.5-0.6,0.8c-1.2-0.8-1.5-1-2-1.3c-0.9-0.8-1.7-1.6-2.6-3c-0.5,0.8-0.8,1.2-1.2,1.7c-0.4,0.4-0.9,1-1.8,1.7
		c-0.5,0.4-0.7,0.5-1.3,1c-0.2-0.3-0.4-0.5-0.6-0.8c1.3-0.8,2.2-1.5,3.1-2.6c0.7-0.8,1.2-1.6,1.7-2.6l0.8,0.3L820.6,310.8z
		 M818.4,321.1c0,0.4,0.1,0.5,0.3,0.6s0.9,0.1,1.7,0.1c1.5,0,2.1-0.1,2.3-0.2c0.4-0.2,0.5-0.9,0.5-2.1c0-0.1,0-0.2,0-0.4
		c0.4,0.3,0.4,0.3,1,0.5c-0.1,1.4-0.2,1.8-0.4,2.2c-0.4,0.8-0.9,0.9-3.3,0.9c-2.5,0-3-0.2-3-1.2v-4.8c0-0.5,0-0.8-0.1-1.3h1.1
		c-0.1,0.4-0.1,0.6-0.1,1.2v1.6c0.3-0.1,0.3-0.1,0.7-0.3c0.9-0.4,2-1,2.7-1.4c0.4-0.2,0.5-0.3,0.7-0.6l0.8,0.7
		c-0.8,0.5-1.2,0.8-1.4,0.9c-0.9,0.5-1.7,0.9-2.5,1.2c-0.1,0-0.1,0-1,0.4V321.1z"/>
	<path class="st12" d="M826.3,319.5c0.2,0,0.2,0,0.4,0c0.4,0,1.8-0.1,2.8-0.2c0-0.4,0-0.7-0.1-1h0.4c0.5-0.3,0.9-0.5,1.3-0.8H828
		c-0.6,0-0.9,0-1.2,0.1v-0.9c0.3,0.1,0.6,0.1,1.2,0.1h3.3c0.3,0,0.5,0,0.7-0.1l0.4,0.6c-0.2,0.1-0.2,0.1-0.4,0.3
		c-0.6,0.5-1.2,0.9-1.7,1.1v0.5c1.5-0.2,1.6-0.2,2.9-0.5v0.8c-1.2,0.2-1.6,0.3-2.9,0.5v1.8c0,0.7-0.3,0.9-1.2,0.9
		c-0.4,0-0.6,0-1.3-0.1c0-0.3-0.1-0.5-0.2-0.9c0.5,0.1,1.1,0.2,1.5,0.2c0.3,0,0.4-0.1,0.4-0.3V320c-1.5,0.2-1.5,0.2-2.3,0.2
		c-0.3,0-0.5,0.1-0.7,0.1L826.3,319.5z M832,311.6c0.6,0,0.9,0,1.2-0.1v0.9c-0.4-0.1-0.6-0.1-1.2-0.1h-4.3c-0.5,0-0.8,0-1.2,0.1
		v-0.9c0.3,0.1,0.6,0.1,1.2,0.1h1.9c-0.2-0.4-0.3-0.6-0.7-1l0.7-0.4c0.3,0.4,0.7,1.1,0.9,1.4H832z M827.3,314.1c0-0.4,0-0.6-0.1-0.9
		c0.4,0,0.6,0.1,1.2,0.1h2.9c0.5,0,0.8,0,1.1-0.1c0,0.3-0.1,0.6-0.1,0.9v0.8c0,0.4,0,0.6,0.1,0.9c-0.4,0-0.7-0.1-1.1-0.1h-2.9
		c-0.5,0-0.8,0-1.1,0.1c0-0.3,0.1-0.6,0.1-0.9v-0.8H827.3z M828.1,315.1h3.5v-1.2h-3.5V315.1z M839,313.7c-0.3-0.1-0.5-0.1-1.1-0.1
		c-0.3,2-0.3,2.1-0.5,3c-0.3,1.1-0.7,1.9-1.2,2.7c0.8,1.1,1.8,2,3.1,2.9c-0.3,0.3-0.4,0.5-0.6,0.8c-1.3-1-2.3-2-3-3c0,0,0,0-0.1,0.2
		c-0.8,1.1-2,2.1-3.4,2.9c-0.2-0.4-0.3-0.5-0.6-0.8c1.5-0.7,2.8-1.8,3.6-3c-0.6-1.1-1.1-2.2-1.4-3.7c-0.4,0.6-0.5,0.9-0.9,1.4
		c-0.2-0.3-0.4-0.5-0.6-0.6c1-1.2,1.7-2.8,2.1-4.6c0.1-0.6,0.2-1.1,0.2-1.5l1,0.2c0,0.1-0.1,0.5-0.2,0.7c-0.1,0.6-0.3,1.1-0.5,1.7
		h2.7c0.6,0,0.9,0,1.3-0.1v0.9H839z M834.7,313.6c-0.2,0.5-0.2,0.6-0.3,0.9c0.3,1.6,0.7,3,1.3,4c0.4-0.7,0.7-1.5,1-2.5
		c0.2-0.9,0.2-1,0.4-2.4H834.7z"/>
	<path class="st12" d="M847.1,310.6c0.7,0.9,1.1,1.3,1.9,2c1.1,0.9,2.6,1.8,4.1,2.3c-0.3,0.4-0.4,0.6-0.5,0.9
		c-1.1-0.5-1.6-0.8-2.6-1.4v0.8c-0.4-0.1-0.7-0.1-1.3-0.1H847v1.9h3.8c0.6,0,1,0,1.4-0.1v1c-0.4-0.1-0.8-0.1-1.4-0.1H847v3.7h4.1
		c0.6,0,1.1,0,1.5-0.1v1c-0.5-0.1-1-0.1-1.5-0.1h-8.9c-0.5,0-1.1,0-1.6,0.1v-1c0.5,0.1,1,0.1,1.6,0.1h3.9v-3.7h-3.5
		c-0.5,0-1,0-1.4,0.1v-1c0.4,0.1,0.8,0.1,1.4,0.1h3.5v-1.9h-1.5c-0.6,0-0.9,0-1.3,0.1v-0.9c-0.6,0.4-0.6,0.4-2.5,1.4
		c-0.1-0.2-0.2-0.3-0.2-0.4c0,0-0.1-0.1-0.2-0.2c0-0.1-0.1-0.2-0.2-0.3c1.4-0.5,2.4-1.1,3.4-1.9c1.2-1,2-1.9,2.9-3.1l0.8,0.4
		L847.1,310.6z M843.3,318.3c0.5,0.8,0.8,1.5,1.2,2.5l-0.8,0.3c-0.3-1-0.7-1.7-1.2-2.5L843.3,318.3z M848.7,314.4
		c0.5,0,0.9,0,1.2-0.1c-1.3-0.9-2.5-1.9-3.3-3c-1,1.2-2.1,2.2-3.3,3c0,0,0,0,0.1,0c0.2,0,0.6,0,1.1,0h4.2V314.4z M850.7,318.7
		c-0.6,1.3-0.9,1.7-1.5,2.6l-0.8-0.3c0.6-0.8,1-1.6,1.4-2.7L850.7,318.7z"/>
	<path class="st12" d="M861.2,311.7c-0.4-0.1-0.8-0.1-1.4-0.1h-3.6c-0.6,0-1,0-1.4,0.1v-0.9c0.4,0.1,0.8,0.1,1.5,0.1h3.6
		c0.7,0,1,0,1.4-0.1L861.2,311.7L861.2,311.7z M854.8,317.3c0-0.5,0-1,0-1.3c0.3,0,0.8,0.1,1.3,0.1h3.7c0.6,0,1,0,1.2-0.1
		c0,0.4,0,0.7,0,1.2v4.6c0,0.8-0.2,1-1.4,1c-0.2,0-0.4,0-0.7,0c0-0.4-0.1-0.6-0.2-0.9c0.5,0.1,0.7,0.1,1.1,0.1
		c0.4,0,0.4-0.1,0.4-0.3v-4.9h-4.5v4.6c0,0.7,0,1.1,0.1,1.5h-0.9c0.1-0.5,0.1-0.9,0.1-1.6v-4H854.8z M860.5,314.3c0,0.4,0,0.7,0,0.9
		c-0.3,0-0.5,0-1,0h-3.1c-0.5,0-0.8,0-1.1,0c0-0.2,0-0.6,0-0.9v-0.9c0-0.4,0-0.7,0-0.9c0.3,0,0.6,0,1.1,0h3c0.5,0,0.8,0,1.1,0
		c0,0.2,0,0.5,0,0.9V314.3z M858.2,318.8c0.2-0.5,0.4-1,0.6-1.7l0.8,0.2c-0.1,0.2-0.1,0.3-0.1,0.4c-0.1,0.3-0.4,1-0.5,1.2
		c0.4,0,0.6,0,0.9-0.1v0.8c-0.3,0-0.5-0.1-0.9-0.1h-0.7v1.8c0,0.4,0,0.7,0.1,1h-0.8c0-0.3,0.1-0.7,0.1-1v-1.9H857
		c-0.4,0-0.6,0-0.8,0.1v-0.8c0.3,0,0.5,0.1,0.8,0.1H858.2z M859.7,313.2h-3.5v1.3h3.5V313.2z M856.9,317.1c0.3,0.5,0.3,0.5,0.6,1.4
		l-0.6,0.3c-0.2-0.7-0.3-0.9-0.6-1.4L856.9,317.1z M865.3,312.9c0.5,0,0.9,0,1.3-0.1c0,0.4-0.1,0.7-0.1,1.3v2.7c0,0.7,0,1,0.1,1.4
		c-0.4,0-0.7-0.1-1.3-0.1h-0.8v2.9c0.9-0.2,0.9-0.2,1.5-0.4c-0.2-0.6-0.4-0.9-0.7-1.6l0.7-0.3c0.6,1.2,1,2.2,1.4,3.7l-0.8,0.4
		c-0.2-0.7-0.2-0.9-0.4-1.4c-1,0.3-2.4,0.6-3.6,0.9c-0.8,0.2-0.8,0.2-1.1,0.3l-0.3-1h0.2c0.5,0,0.6,0,2.3-0.3v-3.1H863
		c-0.6,0-0.9,0-1.3,0.1c0-0.4,0-0.8,0-1.3v-2.8c0-0.6,0-1-0.1-1.4c0.4,0.1,0.8,0.1,1.4,0.1h0.7v-1.2c0-0.5,0-1-0.1-1.4h1
		c-0.1,0.4-0.1,0.9-0.1,1.4v1.2L865.3,312.9L865.3,312.9z M863.6,313.7h-1.2v3.8h1.2V313.7z M864.4,317.5h1.3v-3.8h-1.3V317.5z"/>
	<path class="st12" d="M871.1,314c0.5,0,0.8,0,1.2-0.1v0.9c-0.4,0-0.8-0.1-1.2-0.1h-0.2v3.9c0.4-0.2,0.7-0.4,1.3-0.8l0.1,0.9
		c-1.1,0.7-1.6,1-3.1,1.7c-0.2,0.1-0.2,0.1-0.5,0.3l-0.3-0.9c0.4-0.1,0.9-0.3,1.7-0.7v-4.4h-0.3c-0.4,0-0.8,0-1.2,0.1v-0.9
		c0.4,0.1,0.7,0.1,1.2,0.1h0.3v-2.1c0-0.6,0-1.1-0.1-1.5h1c-0.1,0.4-0.1,0.9-0.1,1.6v2.1h0.2V314z M873.7,313.4v0.5
		c0,0.4,0,0.5,0,1.5h1.5c0.5,0,0.9,0,1.2-0.1v0.1c0,0.2,0,0.2-0.1,1.9c0,0.7-0.2,1.7-0.3,2.1c-0.2,0.7-0.5,0.9-1.3,0.9
		c-0.3,0-0.6,0-1,0c0-0.4-0.1-0.5-0.2-0.9c0.4,0.1,0.8,0.1,1.1,0.1c0.4,0,0.5-0.1,0.6-0.3c0.2-0.5,0.3-1.5,0.3-3.1h-1.9
		c-0.1,1.5-0.3,3.2-0.7,4.2c-0.3,0.9-0.7,1.6-1.3,2.3c-0.3-0.3-0.4-0.4-0.8-0.6c1.4-1.6,1.9-3.6,1.9-8c0-0.8,0-1.3-0.1-1.6
		c0.7,0.1,0.9,0.1,1.4,0.1h2.7c0-0.5,0-0.8,0-1.3c0-0.4,0-0.7-0.1-1h1c-0.1,0.3-0.1,0.5-0.1,1.1c0,0.3,0,0.3,0,1.2h1.6
		c0.6,0,1.1,0,1.5-0.1v1c-0.4,0-1-0.1-1.5-0.1h-1.5c0.1,1.8,0.3,3.2,0.7,4.6c0.5-1,1-2.3,1.2-3.2l0.9,0.3c-0.2,0.4-0.2,0.5-0.3,0.8
		c-0.4,1-0.9,2.2-1.4,3c0.5,1.4,1.2,2.7,1.5,2.7c0.2,0,0.3-0.8,0.4-2c0.3,0.3,0.5,0.4,0.7,0.6c-0.2,1.8-0.5,2.5-1.1,2.5
		c-0.7,0-1.5-1-2.1-2.8c-0.9,1.2-1.7,1.9-3,2.8c-0.2-0.3-0.4-0.5-0.7-0.7c1.6-0.9,2.4-1.6,3.4-3c-0.5-1.5-0.8-3.3-0.9-5.6h-3.2
		V313.4z M879.8,312.3c-0.5-0.6-0.9-0.9-1.6-1.4l0.5-0.5c0.6,0.4,1,0.7,1.6,1.3L879.8,312.3z"/>
	<path class="st12" d="M888.6,311.6c-0.4-0.7-0.5-0.8-0.8-1.2l0.8-0.4c0.4,0.5,0.8,1.2,1,1.5h4c0.6,0,1.1,0,1.5-0.1v0.9
		c-0.4,0-0.9-0.1-1.4-0.1h-1.9c-0.3,0.7-0.5,1.2-0.8,1.7h2.1c0.7,0,1,0,1.3-0.1c0,0.4-0.1,0.6-0.1,1.1v6.6c0,0.5-0.1,0.8-0.4,0.9
		c-0.2,0.2-0.5,0.2-1.2,0.2c-0.4,0-0.9,0-1.6-0.1c0-0.4-0.1-0.6-0.2-0.9c0.7,0.1,1.4,0.2,1.9,0.2c0.5,0,0.6-0.1,0.6-0.4v-6.8h-9.3
		v6.6c0,0.7,0,1.1,0.1,1.5h-1.1c0.1-0.5,0.1-0.9,0.1-1.5v-6.3c0-0.4,0-0.8-0.1-1.1c0.3,0,0.8,0.1,1.3,0.1h2
		c-0.2-0.5-0.4-1.2-0.7-1.7h-1.8c-0.6,0-1,0-1.4,0.1v-0.8c0.5,0.1,0.9,0.1,1.5,0.1H888.6z M888,315.4c-1.1,1.5-1.5,1.9-2.8,2.7
		c-0.4-0.4-0.4-0.4-0.7-0.6c0.8-0.4,1.1-0.6,1.5-1s0.7-0.7,1-1.3L888,315.4z M891.3,320c0,0.6,0,0.8,0.1,1.2c-0.4,0-0.7-0.1-1.3-0.1
		H887v0.7h-0.9c0.1-0.4,0.1-0.6,0.1-1v-2.1c0-0.4,0-0.7-0.1-1c0.4,0,0.7,0,1.2,0h2.8c0.7,0,1,0,1.3,0c0,0.4-0.1,0.6-0.1,1.2V320z
		 M886.7,312.4c0.3,0.6,0.6,1.3,0.7,1.7h2.6c0.4-0.8,0.5-1,0.8-1.7H886.7z M887,320.4h3.5v-1.9H887V320.4z M890.1,315.1
		c1,0.6,1.8,1.2,2.9,2.2l-0.7,0.6c-1-1-2-1.8-2.8-2.3L890.1,315.1z"/>
	<path class="st12" d="M904.7,310.6c-0.1,0.4-0.1,0.9-0.1,1.5v9.2h3c0.6,0,1,0,1.5-0.1v1c-0.5-0.1-0.9-0.1-1.5-0.1H898
		c-0.6,0-1,0-1.5,0.1v-1c0.4,0.1,0.8,0.1,1.5,0.1h2.9V312c0-0.7,0-1-0.1-1.4h1.1c-0.1,0.5-0.1,0.7-0.1,1.4v9.3h2v-9.2
		c0-0.8,0-1-0.1-1.5H904.7z M898,313.4c0.6,1.4,0.9,2.4,1.5,4.6l-0.9,0.3c-0.5-2-0.9-3.3-1.4-4.6L898,313.4z M908.3,313.9
		c-0.1,0.3-0.2,0.5-0.2,0.7c-0.6,2-0.9,2.7-1.7,4l-0.7-0.4c0.8-1.4,1.4-3,1.8-4.7L908.3,313.9z"/>
	<path class="st12" d="M913.5,314.1c0.6,0,0.9,0,1.1-0.1v0.9c-0.4,0-0.6-0.1-1.1-0.1h-0.4v4.4c0.6-0.3,0.9-0.4,1.6-0.8l0.1,0.9
		c-1.4,0.8-2,1.1-3.6,1.7c-0.2,0.1-0.4,0.2-0.6,0.2l-0.2-1c0.5-0.1,0.8-0.2,1.9-0.6v-4.8h-0.5c-0.6,0-0.8,0-1.2,0.1v-1
		c0.3,0.1,0.6,0.1,1.2,0.1h0.5v-2.1c0-0.7,0-1.2-0.1-1.6h1c-0.1,0.4-0.1,0.9-0.1,1.6v2.1L913.5,314.1L913.5,314.1z M915.3,316.2
		c-0.8,0.3-0.8,0.3-1.2,0.4l-0.3-1c0.4,0,0.8-0.1,1.2-0.3l0.5-0.2v-2.2c0-0.6,0-1-0.1-1.4h1.1c-0.1,0.4-0.1,0.8-0.1,1.4v2l2-0.7
		v-2.6c0-0.5,0-0.9-0.1-1.3h1c-0.1,0.4-0.1,0.8-0.1,1.3v2.3l2.2-0.7c0.4-0.1,0.7-0.3,1.1-0.4c-0.1,2.9-0.2,4.2-0.4,4.9
		c-0.1,0.6-0.3,0.8-0.6,1c-0.2,0.1-0.5,0.2-0.9,0.2c-0.2,0-0.4,0-0.7,0c0-0.4-0.1-0.6-0.2-0.9c0.4,0.1,0.7,0.1,1.1,0.1
		c0.3,0,0.4-0.1,0.5-0.5c0.1-0.5,0.2-1.6,0.2-3.6l-2.3,0.8v3.9c0,0.6,0,0.9,0.1,1.3h-1c0.1-0.4,0.1-0.8,0.1-1.4V315l-2,0.7v5.3
		c0,0.3,0.1,0.4,0.4,0.5s0.9,0.1,2.3,0.1c2,0,2.6-0.1,2.8-0.4c0.2-0.3,0.3-0.9,0.3-1.9c0.3,0.2,0.5,0.3,0.9,0.4
		c-0.2,2.6-0.4,2.8-4.1,2.8c-2.9,0-3.5-0.2-3.5-1.3V316L915.3,316.2z"/>
	<path class="st12" d="M935.2,311.4c0.7,0,1.1,0,1.5-0.1v0.9c-0.5,0-0.8-0.1-1.5-0.1h-1.1c-0.1,0.2-0.1,0.3-0.2,0.6
		c-0.3,0.9-0.4,1.2-0.7,1.8h1.9c0.8,0,1.2,0,1.7-0.1v0.9c-0.5-0.1-0.8-0.1-1.7-0.1h-8.5c0,2.6-0.1,3.3-0.3,4.6
		c-0.3,1.3-0.5,2-1.2,3.1c-0.3-0.4-0.4-0.5-0.7-0.7c0.6-0.9,0.9-1.5,1.1-2.5c0.2-1.1,0.3-2.3,0.3-4.1c0-0.5,0-0.8-0.1-1.3
		c0.4,0.1,0.7,0.1,1.5,0.1h1.7c-0.3-1.4-0.4-1.7-0.7-2.4h-1.4c-0.7,0-1,0-1.4,0.1v-0.9c0.4,0.1,0.8,0.1,1.4,0.1h3.6
		c-0.4-0.7-0.4-0.7-0.6-0.9l0.8-0.4c0.3,0.3,0.3,0.3,0.8,1.2c0,0,0,0,0.1,0.2L935.2,311.4L935.2,311.4z M932.3,314.5
		c0.2-0.4,0.4-0.7,0.6-1.7c0.1-0.4,0.2-0.5,0.2-0.7h-4c0.1,0.3,0.2,0.6,0.4,1.3c0.2,0.5,0.2,0.7,0.3,1.1L932.3,314.5L932.3,314.5z"
		/>
</g>
<g>
	<path class="st12" d="M67.1,350.2c0.1-0.4,0.1-0.7,0.1-1.7v-8.7c0-0.7,0-1.1-0.1-1.7c0.5,0.1,0.9,0.1,1.6,0.1h8.4
		c0.8,0,1.2,0,1.7-0.1c-0.1,0.6-0.1,0.9-0.1,1.7v8.8c0,0.9,0,1.2,0.1,1.7h-1v-0.8h-9.7v0.8L67.1,350.2L67.1,350.2z M68,348.6h9.7
		v-9.7H68V348.6z M73.9,340.6c0-0.6,0-0.8-0.1-1.1h1c-0.1,0.3-0.1,0.5-0.1,1.1v0.6h1.1c0.7,0,1,0,1.3-0.1v0.9
		c-0.3,0-0.7-0.1-1.3-0.1h-1.1v4.9c0,0.8-0.3,1.1-1.4,1.1c-0.4,0-0.6,0-1.5-0.1c0-0.4-0.1-0.6-0.2-0.9c0.7,0.1,1.2,0.2,1.8,0.2
		c0.4,0,0.5-0.1,0.5-0.4v-4.2c-0.6,0.9-1.2,1.5-2.1,2.3c-0.8,0.7-1.5,1.2-2.7,1.9c-0.2-0.3-0.3-0.4-0.6-0.7c1.2-0.6,2-1.2,2.9-1.9
		c0.9-0.8,1.5-1.4,2-2.3H70c-0.7,0-0.9,0-1.3,0.1V341c0.3,0.1,0.6,0.1,1.3,0.1h3.9L73.9,340.6L73.9,340.6z"/>
	<path class="st12" d="M81.3,339c0-0.4,0-0.7,0-1.1c0.2,0,0.5,0,0.9,0h2.1c0.4,0,0.6,0,0.9-0.1l0.4,0.5c0,0.1-0.1,0.3-0.2,0.4
		c-0.5,1.3-0.9,2.2-1.5,3.2c0.7,0.8,0.9,1.2,1.2,1.8c0.2,0.5,0.3,1.1,0.3,1.7c0,0.8-0.2,1.2-0.7,1.4c-0.3,0.1-0.6,0.1-1.1,0.1
		c-0.2,0-0.3,0-0.5,0c0-0.4-0.1-0.6-0.2-0.9c0.4,0.1,0.6,0.1,0.9,0.1c0.6,0,0.8-0.2,0.8-0.8c0-0.6-0.2-1.3-0.5-1.9
		c-0.2-0.4-0.5-0.8-1.1-1.4c0.7-1.3,1.1-2.2,1.5-3.5h-2.3v10.1c0,0.6,0,0.9,0.1,1.3h-1c0.1-0.4,0.1-0.8,0.1-1.3L81.3,339L81.3,339z
		 M89.5,337.6c0,0.2-0.1,0.8-0.1,1.2c0,1.2,0,1.8,0.1,2.4c0.3,2,0.6,3.2,1.3,4.4c0.4,0.8,0.9,1.5,1.4,2.2c0.4,0.5,0.8,0.8,1.6,1.3
		c-0.3,0.3-0.5,0.5-0.7,0.9c-0.9-0.8-1.3-1.3-2-2.1c-0.7-1.1-1.3-2.2-1.7-3.4c-0.3-0.8-0.4-1.4-0.5-2.6c-0.4,2.6-0.7,3.7-1.5,5
		c-0.7,1.1-1.4,1.9-2.7,3.1c-0.4-0.5-0.4-0.6-0.7-0.8c1-0.7,1.5-1.2,2.1-2c1.1-1.3,1.6-2.7,2-5c0.2-1.2,0.3-2.2,0.3-3.5
		c0-0.5,0-0.8,0-1.2h1.1V337.6z"/>
	<path class="st12" d="M96.7,339.3c-0.4,0.6-0.8,0.9-1.3,1.4c-0.3-0.3-0.3-0.3-0.7-0.6c1.1-0.8,1.8-1.6,2.2-2.8l0.9,0.3
		c-0.2,0.4-0.3,0.6-0.6,1h2.4c0.6,0,0.9,0,1.2-0.1v0.8c-0.4,0-0.5,0-1.1,0h-1.1c0.3,0.4,0.4,0.7,0.6,1.2l-0.8,0.3
		c-0.2-0.6-0.4-1-0.7-1.5L96.7,339.3L96.7,339.3z M105.4,341.1c0.6,0,1,0,1.4-0.1c0,0.3-0.1,0.5-0.1,0.9v0.7c0,0.4,0,0.7,0.1,0.9
		h-0.9v-1.8H96v1.8h-0.9c0-0.3,0.1-0.5,0.1-0.9v-0.7c0-0.4,0-0.6-0.1-0.9c0.4,0,0.7,0.1,1.4,0.1h3.9c-0.2-0.3-0.3-0.4-0.6-0.8
		l0.7-0.4c0.2,0.3,0.5,0.7,0.8,1.2L105.4,341.1L105.4,341.1z M97,350.2c0.1-0.5,0.1-0.9,0.1-1.4v-5.1c0-0.5,0-0.7-0.1-1
		c0.4,0.1,0.8,0.1,1.4,0.1h5c0.6,0,1,0,1.4-0.1c0,0.3,0,0.6,0,1v0.8c0,0.5,0,0.8,0.1,1.1c-0.4,0-0.8-0.1-1.4-0.1H98v1h6.3
		c0.6,0,0.9,0,1.3-0.1c-0.1,0.4-0.1,0.7-0.1,1.3v1.1c0,0.5,0,0.9,0.1,1.3h-0.9v-0.6H98v0.7H97z M97.9,344.9h6v-1.4h-6V344.9z
		 M97.9,348.8h6.7v-1.5h-6.7V348.8z M102.2,339.3c-0.2,0.3-0.3,0.4-0.8,0.9c-0.2-0.2-0.4-0.3-0.7-0.5c0.8-0.8,1.2-1.3,1.5-2.4
		l0.9,0.2c-0.2,0.4-0.3,0.7-0.5,1h3.4c0.6,0,0.9,0,1.2-0.1v0.9c-0.4-0.1-0.6-0.1-1.2-0.1h-1.8c0.3,0.4,0.5,0.7,0.7,1.2l-0.8,0.3
		c-0.3-0.6-0.4-1-0.7-1.5h-1.2V339.3z"/>
	<path class="st12" d="M111.3,342.4h0.6c0.4,0,0.6,0,0.9-0.1v0.9c-0.3,0-0.6-0.1-0.9-0.1h-0.6v3.6c0.9-0.4,1-0.4,1.6-0.8l0.1,0.9
		c-1.3,0.6-1.9,0.9-3.5,1.5c-0.4,0.1-0.5,0.2-0.7,0.3l-0.3-1c0.5-0.1,1.2-0.3,1.9-0.6v-3.9h-0.7c-0.4,0-0.6,0-0.9,0.1v-0.9
		c0.3,0.1,0.5,0.1,0.9,0.1h0.7v-3.3h-0.7c-0.6,0-0.7,0-1.1,0.1v-0.9c0.3,0.1,0.6,0.1,1.2,0.1h2.1c0.5,0,0.8,0,1.2-0.1v0.9
		c-0.4,0-0.6-0.1-1.1-0.1h-0.7V342.4z M117.5,346.1h2.1c0.7,0,1,0,1.4-0.1v0.9c-0.4-0.1-0.7-0.1-1.4-0.1h-2.1v2.1h2.6
		c0.7,0,1,0,1.4-0.1v0.9c-0.4-0.1-0.7-0.1-1.4-0.1h-6.3c-0.7,0-1,0-1.4,0.1v-0.9c0.4,0.1,0.7,0.1,1.3,0.1h2.9v-2.1h-1.9
		c-0.7,0-1,0-1.3,0.1V346c0.4,0.1,0.6,0.1,1.3,0.1h1.9v-1.6h-1.4c-0.9,0-1.3,0-1.7,0.1c0-0.3,0-0.4,0-0.5c0-0.2,0-0.2,0-1.1v-3
		c0-0.9,0-1.3-0.1-1.8c0.4,0.1,0.9,0.1,1.8,0.1h3.7c1,0,1.4,0,1.8-0.1c0,0.4-0.1,0.9-0.1,1.8v2.8c0,0.9,0,1.4,0.1,1.8
		c-0.5,0-0.9-0.1-1.7-0.1h-1.5V346.1z M116.6,339h-2.3v2h2.3V339z M116.6,341.7h-2.3v2h2.3V341.7z M119.8,341v-2h-2.3v2H119.8z
		 M119.8,343.7v-2h-2.3v2H119.8z"/>
	<path class="st12" d="M127.8,348.1c-1.3,0.4-2.6,0.8-4.2,1.2c-0.5,0.1-0.5,0.1-0.7,0.2l-0.2-1c0.3,0,0.4,0,1.2-0.2
		c0.5-0.1,1.3-0.3,2.2-0.5c0.7-0.2,0.9-0.3,1.7-0.5L127.8,348.1L127.8,348.1z M126,337.9c-0.2,0.4-0.3,0.7-0.5,1.1
		c-0.5,1.1-1,2.1-1.5,2.9c1.1-0.1,1.2-0.1,2.2-0.2c0.3-0.6,0.6-1,0.7-1.2l0.9,0.5c-0.4,0.5-0.4,0.5-1.2,1.7
		c-0.4,0.6-1.2,1.5-2.1,2.5c2.1-0.4,2.2-0.4,3.3-0.6l-0.1,0.9c-0.1,0-0.7,0.1-3.3,0.6c-0.4,0.1-0.6,0.1-1,0.3l-0.3-1
		c0.1,0,0.1,0,0.3-0.1c0.3-0.1,0.5-0.3,1.2-1.3c1-1.3,1-1.3,1.2-1.6c-0.2,0-0.2,0-0.4,0c-1.1,0.1-1.9,0.2-2.2,0.3l-0.2-0.9
		c0.4-0.1,0.5-0.2,1-1.3c0.4-0.8,1-2.3,1.3-3.1L126,337.9z M129.7,345.5c-0.6,0-1,0-1.3,0.1v-0.9c0.4,0.1,0.7,0.1,1.3,0.1h3.8
		c0.6,0,0.9,0,1.3-0.1v0.9c-0.4,0-0.7-0.1-1.3-0.1h-1.6v3.4h2.1c0.7,0,1,0,1.4-0.1v0.9c-0.4-0.1-0.8-0.1-1.4-0.1h-4.7
		c-0.6,0-1,0-1.4,0.1v-0.9c0.4,0.1,0.8,0.1,1.3,0.1h1.8v-3.4H129.7z M135,344.1c-0.8-0.6-1.7-1.1-3.3-1.9c-1,0.8-1.8,1.3-3.3,1.9
		c-0.2-0.4-0.3-0.6-0.5-0.8c1.4-0.5,2.1-0.9,3.1-1.7c0.9-0.7,1.5-1.4,2.1-2.6h-3.4c-0.6,0-0.9,0-1.3,0.1v-0.9
		c0.3,0.1,0.7,0.1,1.4,0.1h2.9c0.6,0,0.9,0,1.1-0.1l0.5,0.5c-0.1,0.1-0.2,0.2-0.3,0.4c-0.7,1.1-1.1,1.7-1.8,2.4
		c1.6,0.8,1.8,0.9,3.1,1.7L135,344.1z"/>
	<path class="st12" d="M136.4,347.1c0.1,0,0.1,0,0.3-0.1c0.3,0,0.9-0.2,1.4-0.3c0.7-0.2,1-0.3,2.1-0.7v0.9c-0.7,0.3-1.6,0.6-2.8,0.9
		c-0.3,0.1-0.4,0.1-0.7,0.3L136.4,347.1z M140.8,344c0.7,0,0.8,0,1-0.1c0,0.2,0,0.4-0.1,1c-0.1,2.3-0.4,4-0.7,4.6
		c-0.2,0.4-0.5,0.5-1.1,0.5c-0.4,0-0.7,0-1.1-0.1c0-0.3-0.1-0.7-0.2-1c0.5,0.1,1,0.2,1.2,0.2c0.3,0,0.5-0.2,0.6-0.9
		c0.2-0.7,0.3-1.9,0.3-3.5h-2.2c-0.5,0-0.9,0-1.3,0c0.1-0.4,0.1-0.6,0.2-1.5l0.2-2.3c0-0.3,0.1-0.7,0.1-0.9c0-0.1,0-0.1,0-0.3l1,0.1
		c-0.1,0.4-0.1,0.4-0.2,1.2l-0.3,2.9h1.8l0.5-5h-2.1c-0.7,0-1.1,0-1.6,0.1v-1c0.4,0.1,0.9,0.1,1.5,0.1h2c0.6,0,1,0,1.2-0.1
		c-0.1,0.3-0.2,1.1-0.2,1.5L140.8,344z M146,337.4c0,0.1,0,0.1-0.1,0.1c0.5,1.2,0.8,1.8,1.3,2.5c0.6,0.8,1.3,1.4,2.4,2.1
		c-0.2,0.3-0.4,0.5-0.5,0.8c-0.6-0.4-1.1-0.8-1.7-1.3v0.9c-0.3,0-0.6-0.1-1.1-0.1h-1.6c-0.4,0-0.8,0-1.1,0.1v-1
		c-0.4,0.4-0.8,0.8-1.5,1.4c-0.1-0.3-0.3-0.6-0.5-0.8c0.8-0.5,1.4-1.1,2-1.8c0.8-1,1.1-1.7,1.5-3.2L146,337.4z M147.9,348.9
		c0.5,0,0.9,0,1.3-0.1v1c-0.4-0.1-0.7-0.1-1.3-0.1h-4.6c-0.6,0-0.9,0-1.3,0.1v-1c0.4,0.1,0.7,0.1,1.3,0.1h2.7
		c0.6-1.2,0.8-1.6,1.1-2.4c0.4-1.2,0.7-2,0.8-2.8l0.9,0.4c-0.1,0.2-0.1,0.2-0.3,0.9c-0.4,1.4-1,2.7-1.6,4h1V348.9z M143.7,347.5
		c-0.4-1.3-0.6-2-1.2-3.2l0.8-0.4c0.5,1.1,0.8,1.9,1.2,3.1L143.7,347.5z M146.4,341.6c0.5,0,0.7,0,1,0c-0.7-0.8-1.3-1.7-1.9-3
		c-0.5,1.3-1,2-1.9,3c0.2,0,0.6,0.1,1,0.1h1.8V341.6z M145.6,347c-0.2-1.3-0.4-2.1-0.9-3.3l0.8-0.3c0.4,1.2,0.7,2.2,0.9,3.3
		L145.6,347z"/>
	<path class="st12" d="M154.5,348.5c0.9,0.5,1.9,0.6,4.8,0.6c2,0,3.1-0.1,4.3-0.2c-0.2,0.4-0.3,0.6-0.3,1c-1.4,0.1-2.1,0.1-3.6,0.1
		c-3.5,0-4.7-0.2-5.8-1c-0.7-0.4-1.2-1.1-1.6-1.8c-0.2,1.1-0.6,2.1-1.1,3c-0.2-0.2-0.5-0.4-0.7-0.5c0.5-0.8,0.7-1.3,0.9-2.3
		c0.2-0.9,0.3-1.8,0.3-2.8c0-0.3,0-0.4,0-0.6l0.9,0.1c0,0.2,0,0.2,0,0.4c0,0.8-0.1,1.2-0.2,1.8c0.3,0.6,0.7,1.2,1.3,1.7v-4.9h-1.4
		c-0.7,0-1,0-1.4,0.1v-0.9c0.3,0.1,0.7,0.1,1.4,0.1h1.3v-1.9h-1.1c-0.5,0-0.9,0-1.2,0.1v-1.1c0.3,0.1,0.6,0.1,1.2,0.1h1.1V339
		c0-0.7,0-1-0.1-1.4h1c-0.1,0.4-0.1,0.7-0.1,1.4v0.6h0.8c0.7,0,0.9,0,1.2-0.1v0.9c-0.4-0.1-0.7-0.1-1.2-0.1h-0.8v1.9h0.9
		c0.6,0,1,0,1.3-0.1v0.9c-0.4-0.1-0.7-0.1-1.3-0.1h-0.8v2h0.9c0.5,0,0.8,0,1.1-0.1v0.9c-0.3-0.1-0.6-0.1-1.2-0.1h-0.8V348.5z
		 M159.7,339.1c0,0.7-0.2,1.5-0.4,2c-0.4,1-0.9,1.6-2.1,2.3c-0.2-0.3-0.3-0.5-0.6-0.7c1.6-0.9,2.1-1.7,2.2-3.6h-0.7
		c-0.6,0-1,0-1.3,0.1v-0.9c0.3,0.1,0.8,0.1,1.4,0.1h3.2c0.6,0,1.1,0,1.3-0.1c0,0.2,0,0.2-0.1,1.4c-0.1,1.9-0.2,2.5-0.5,2.8
		s-0.6,0.4-1.5,0.4c-0.2,0-0.4,0-0.8,0c0-0.4-0.1-0.5-0.2-0.9c0.6,0.1,0.9,0.1,1.2,0.1c0.5,0,0.6,0,0.7-0.2c0.1-0.3,0.3-1.4,0.3-2.8
		L159.7,339.1L159.7,339.1z M157.2,345c0-0.7,0-0.9-0.1-1.2c0.4,0.1,0.7,0.1,1.4,0.1h2.6c0.7,0,1.1,0,1.5-0.1c0,0.3-0.1,0.6-0.1,1.4
		v1.5c0,0.8,0,1.1,0.1,1.4c-0.4-0.1-0.9-0.1-1.5-0.1h-2.6c-0.7,0-1.1,0-1.5,0.1c0-0.4,0.1-0.6,0.1-1.3V345H157.2z M158.1,347.2h3.7
		v-2.6h-3.7V347.2z"/>
	<path class="st12" d="M166.9,344H166c-0.5,0-0.7,0-1,0.1v-0.9c0.3,0.1,0.5,0.1,1.1,0.1h0.7c0.4,0,0.7,0,1.1-0.1
		c-0.1,0.4-0.1,0.8-0.1,1.4v2.9c0.1,0.1,0.2,0.2,0.3,0.3c0.5,0.6,0.9,0.8,1.4,1c0.5,0.1,1.6,0.2,3.4,0.2c2,0,3.6-0.1,4.8-0.3
		c-0.2,0.5-0.3,0.6-0.3,1c-1.4,0.1-2.9,0.1-4.9,0.1c-0.8,0-2-0.1-2.6-0.1c-0.6-0.1-1.1-0.3-1.6-0.6c-0.3-0.2-0.3-0.2-0.8-0.8
		c-0.1-0.1-0.3-0.2-0.4-0.2c-0.4,0-1.2,0.8-2,1.8l-0.6-0.7c0.7-0.7,1.2-1.2,1.6-1.4c0.4-0.3,0.6-0.4,0.8-0.5V344z M165.9,337.9
		c1,1,1.4,1.4,2.2,2.5l-0.7,0.6c-0.8-1.2-1.2-1.6-2.2-2.6L165.9,337.9z M175.7,339.9c0.6,0,1,0,1.3-0.1v1c-0.3-0.1-0.8-0.1-1.3-0.1
		h-0.8v5.9c0,0.5-0.1,0.8-0.3,1c-0.2,0.2-0.6,0.3-1.2,0.3c-0.3,0-0.8,0-1.3-0.1c0-0.4-0.1-0.5-0.2-1c0.6,0.1,1.1,0.2,1.5,0.2
		s0.5-0.2,0.5-0.5v-5.7h-4.1c-0.5,0-1,0-1.3,0.1v-1c0.3,0.1,0.7,0.1,1.3,0.1h4.1v-0.7c0-0.9,0-1.2-0.1-1.6h1c0,0.5-0.1,0.9-0.1,1.6
		v0.7L175.7,339.9L175.7,339.9z M171.7,345.3c-0.5-1.1-1-1.8-2.1-2.9l0.8-0.5c1.2,1.3,1.6,1.9,2.1,2.8L171.7,345.3z"/>
	<path class="st12" d="M185.1,349.1c-0.9,0-1.1,0-1.5,0.1c0.2-1.1,0.2-1.3,0.4-1.9c0.4-0.9,0.9-1.7,1.8-2.4c0.5-0.4,0.5-0.4,2.1-1.5
		c1.4-0.9,1.9-1.6,1.9-2.4c0-1.1-0.9-1.8-2.3-1.8c-0.9,0-1.6,0.3-2,0.9c-0.3,0.4-0.4,0.7-0.5,1.4l-1.2-0.2c0.2-1,0.4-1.5,0.9-2
		c0.6-0.7,1.6-1.1,2.8-1.1c2.1,0,3.5,1.1,3.5,2.7c0,0.7-0.3,1.4-0.8,2c-0.4,0.5-0.8,0.7-2.4,1.8c-1.1,0.7-1.6,1.1-2,1.7
		s-0.6,1-0.8,1.6h4.5c0.7,0,1.2,0,1.7-0.1v1.2c-0.6-0.1-1-0.1-1.7-0.1L185.1,349.1L185.1,349.1z"/>
	<path class="st12" d="M194.4,342.5c0,0.3,0,0.3-0.1,0.6c0.7-0.6,1.5-1,2.5-1s1.9,0.3,2.5,1c0.6,0.6,0.9,1.4,0.9,2.5
		c0,2.3-1.5,3.7-3.8,3.7c-1.1,0-2-0.3-2.7-1c-0.4-0.4-0.5-0.6-0.9-1.3l1.2-0.3c0.1,0.4,0.2,0.6,0.4,0.8c0.5,0.5,1.2,0.8,2,0.8
		c1.6,0,2.6-1.1,2.6-2.7c0-1.5-1-2.6-2.5-2.6c-0.7,0-1.3,0.2-1.8,0.6c-0.3,0.3-0.5,0.5-0.6,0.8l-1.1-0.1c0.1-0.5,0.2-0.8,0.2-1.4
		l0.3-3.2c0-0.4,0-0.6,0-0.8c0-0.2,0-0.3,0-0.6c0.4,0.1,0.7,0.1,1.5,0.1h2.9c0.8,0,1.1,0,1.6-0.1v1.2c-0.5-0.1-1-0.1-1.6-0.1h-3.3
		L194.4,342.5z"/>
	<path class="st12" d="M217.5,345.8c0.6,0,1,0,1.4-0.1v1c-0.4-0.1-0.8-0.1-1.4-0.1H214v2.3c0,0.6,0,0.9,0.1,1.3H213
		c0.1-0.4,0.1-0.7,0.1-1.3v-2.3H208c-0.6,0-1,0-1.4,0.1v-1c0.4,0.1,0.8,0.1,1.4,0.1h1.1V343c0-0.3,0-0.5,0-0.8c0.3,0,0.6,0,1,0h3
		v-2.3h-3.3c-0.8,1.3-1.4,2-2.3,2.9c-0.2-0.3-0.4-0.5-0.7-0.7c1.4-1.2,2.1-2.2,2.8-3.8c0.2-0.4,0.3-0.7,0.4-1l1,0.3
		c-0.1,0.2-0.1,0.3-0.6,1.3c0,0.1-0.1,0.1-0.1,0.2h7c0.6,0,0.9,0,1.3-0.1v1c-0.4-0.1-0.7-0.1-1.3-0.1h-3.2v2.3h2.5
		c0.6,0,0.9,0,1.2-0.1v0.9c-0.4,0-0.7-0.1-1.2-0.1H214v2.8h3.5V345.8z M213.1,343.1H210v2.8h3.1V343.1z"/>
</g>
<g>
	<path class="st12" d="M109.3,84.3c0.7,0,1.1,0,1.5-0.1c-0.1,0.4-0.1,0.8-0.1,1.3v9.2c0,0.7,0,1.1,0.1,1.5h-1v-0.9h-7.3v0.9h-1
		c0.1-0.4,0.1-0.8,0.1-1.4v-9.1c0-0.6,0-1-0.1-1.4c0.4,0.1,0.9,0.1,1.5,0.1h6.3V84.3z M109.7,87.6v-2.4h-7.2v2.4H109.7z M102.5,91
		h7.2v-2.5h-7.2V91z M102.5,94.4h7.2v-2.6h-7.2V94.4z"/>
	<path class="st12" d="M116.8,94.7c0,0.8,0,1.2,0.1,1.6h-1c0.1-0.4,0.1-0.9,0.1-1.6v-3.9c0-0.6,0-1.4,0.1-2.3
		c-0.4,1.9-1,3.1-1.9,4.5c-0.2-0.4-0.3-0.5-0.6-0.8c0.7-0.8,1.2-1.9,1.7-3.1c0.2-0.5,0.4-1.5,0.5-2h-0.7c-0.4,0-0.8,0-1.2,0.1v-0.9
		c0.3,0.1,0.6,0.1,1.2,0.1h0.9v-1.3c0-0.6,0-1-0.1-1.4h1c-0.1,0.4-0.1,0.8-0.1,1.4v1.3h0.8c0.4,0,0.6,0,0.9-0.1v0.9
		c-0.3,0-0.6-0.1-0.9-0.1h-0.8v0.7c0.8,1,1.2,1.5,1.8,2.3l-0.7,0.6c-0.3-0.6-0.7-1.2-1.2-1.9L116.8,94.7L116.8,94.7z M120.7,90.1
		c-0.5,2-1.1,3.1-2.2,4.7c-0.2-0.3-0.3-0.4-0.7-0.7c1.1-1.2,1.6-2.2,2.1-4.3L120.7,90.1z M119.8,88.5c-0.5,0-0.9,0-1.3,0.1v-1
		c0.4,0.1,0.7,0.1,1.3,0.1h5.4c0.6,0,0.9,0,1.3-0.1v1c-0.4-0.1-0.8-0.1-1.3-0.1h-2.3v6.2c0,0.6,0,0.6-0.1,0.8
		c-0.2,0.4-0.5,0.5-1.3,0.5c-0.3,0-0.6,0-1.2-0.1c0-0.4-0.1-0.6-0.3-0.9c0.7,0.1,1,0.1,1.5,0.1c0.4,0,0.4,0,0.4-0.3v-6.3H119.8z
		 M119.3,84.3c0.3,0.1,0.6,0.1,1.1,0.1h4.2c0.5,0,0.7,0,1.1-0.1v1c-0.4,0-0.6-0.1-1.1-0.1h-4.3c-0.4,0-0.8,0-1.1,0.1v-1H119.3z
		 M125.9,94.6c-0.7-2.3-1.1-3.2-1.9-4.5l0.8-0.3c0.5,0.9,1.4,2.9,1.9,4.4L125.9,94.6z"/>
	<path class="st12" d="M138.8,91.4c0.8,0,1.2,0,1.6-0.1v1c-0.5-0.1-0.9-0.1-1.6-0.1h-4c-0.4,1.1-1.1,1.9-2.4,2.6
		c-1,0.6-2.1,0.9-4,1.4c-0.1-0.4-0.3-0.6-0.6-0.9c1.8-0.2,3.1-0.6,4.2-1.2c1-0.5,1.4-1,1.8-1.9h-4.3c-0.7,0-1.2,0-1.5,0.1v-1
		c0.4,0.1,0.8,0.1,1.5,0.1h4.5c0.2-0.8,0.4-2.2,0.4-3.5c0-0.7,0-1.1-0.1-1.4h1.2c-0.1,0.4-0.1,0.7-0.1,1.2c0,1.2-0.2,2.8-0.4,3.6
		L138.8,91.4L138.8,91.4z M138.6,85c0.5,0,0.9,0,1.4-0.1c0,0.3-0.1,0.5-0.1,1V87c0,0.4,0,0.6,0.1,1h-1v-2.2h-9.8V88h-0.9
		c0-0.3,0.1-0.6,0.1-1v-1.1c0-0.4,0-0.7-0.1-1c0.5,0.1,0.9,0.1,1.4,0.1h4c-0.2-0.4-0.4-0.6-0.7-1.1l0.7-0.4c0.4,0.6,0.6,0.9,0.9,1.5
		H138.6z M132.2,90.7c-1-0.6-2.1-1.1-3.2-1.4l0.5-0.7c1.2,0.4,2.2,0.8,3.2,1.3L132.2,90.7z M133.2,88.8c-1-0.6-1.8-1-3.1-1.5
		l0.5-0.7c1.3,0.5,2,0.7,3,1.4L133.2,88.8z M139.7,96.2c-0.8-0.5-1-0.6-2.7-1.6c-1.5-0.8-1.5-0.8-2.2-1.2l0.4-0.7
		c1.8,0.8,3.5,1.7,5,2.6L139.7,96.2z"/>
	<path class="st12" d="M144.6,88.5h0.6c0.4,0,0.6,0,0.9-0.1v0.9c-0.4,0-0.6-0.1-0.9-0.1h-0.6v3.4c0.5-0.2,0.9-0.4,1.8-0.9v0.9
		c-1.2,0.7-2.2,1.1-3.6,1.6c-0.3,0.1-0.6,0.2-0.8,0.3l-0.3-1c0.5-0.1,1.2-0.3,1.8-0.6c0.1,0,0.1,0,0.1,0v-3.7h-0.7
		c-0.4,0-0.6,0-0.9,0.1v-0.8c0.3,0.1,0.5,0.1,1,0.1h0.6v-3.3H143c-0.6,0-0.8,0-1.2,0.1v-0.9c0.4,0.1,0.6,0.1,1.2,0.1h2.1
		c0.5,0,0.8,0,1.2-0.1v0.9c-0.4,0-0.6-0.1-1.1-0.1h-0.6V88.5z M150.8,86.2c-0.1,0.3-0.1,0.7-0.1,1.3c0,3.9-0.2,5-0.9,6.2
		c-0.5,0.8-1.3,1.4-2.3,2c-0.5,0.3-1,0.4-1.9,0.7c-0.2-0.3-0.3-0.5-0.6-0.8c2-0.5,3.2-1.1,3.9-2.1c0.8-1,1-2,1-5.1
		c0-1.4,0-1.8-0.1-2.2L150.8,86.2L150.8,86.2z M147,92.5c0.1-0.4,0.1-0.9,0.1-1.6v-5.3c0-0.9,0-1.1-0.1-1.5c0.4,0,0.9,0.1,1.6,0.1
		h3.5c0.7,0,1.2,0,1.6-0.1c0,0.3-0.1,0.7-0.1,1.4v5.4c0,0.8,0,1.2,0.1,1.6h-1c0.1-0.4,0.1-0.9,0.1-1.6V85H148v5.9
		c0,0.8,0,1.2,0.1,1.6L147,92.5L147,92.5z M151.5,91.5c0,0.4,0,0.8,0,1.3v2c0,0.4,0.1,0.5,0.7,0.5c0.7,0,1.1-0.1,1.2-0.2
		c0.2-0.2,0.3-0.9,0.3-1.9c0.2,0.1,0.5,0.2,0.9,0.3c-0.2,1.4-0.3,1.9-0.4,2.2c-0.3,0.4-0.8,0.5-2.1,0.5c-1.2,0-1.4-0.2-1.4-1.2v-2.2
		c0-0.6,0-0.9,0-1.3L151.5,91.5L151.5,91.5z"/>
	<path class="st12" d="M166.9,91.9c0.6,0,1,0,1.4-0.1v1c-0.4-0.1-0.8-0.1-1.4-0.1h-3.5V95c0,0.6,0,0.9,0.1,1.3h-1.1
		c0.1-0.4,0.1-0.7,0.1-1.3v-2.3h-5.1c-0.6,0-1,0-1.4,0.1v-1c0.4,0.1,0.8,0.1,1.4,0.1h1.1v-2.8c0-0.3,0-0.5,0-0.8c0.3,0,0.6,0,1,0h3
		V86h-3.3c-0.8,1.3-1.4,2-2.3,2.9c-0.2-0.3-0.4-0.5-0.7-0.7c1.4-1.2,2.1-2.2,2.8-3.8c0.2-0.4,0.3-0.7,0.4-1l1,0.3
		c-0.1,0.2-0.1,0.3-0.6,1.3c0,0.1-0.1,0.1-0.1,0.2h7c0.6,0,0.9,0,1.3-0.1v1c-0.4-0.1-0.7-0.1-1.3-0.1h-3.2v2.3h2.5
		c0.6,0,0.9,0,1.2-0.1v0.9c-0.4,0-0.7-0.1-1.2-0.1h-2.6v2.8h3.5V91.9z M162.4,89.1h-3.1v2.8h3.1V89.1z"/>
	<path class="st12" d="M176.4,88.6c0,0.3,0,0.3-0.1,0.6c0.7-0.6,1.5-1,2.5-1s1.9,0.3,2.5,1c0.6,0.6,0.9,1.4,0.9,2.5
		c0,2.3-1.5,3.7-3.8,3.7c-1.1,0-2-0.3-2.7-1c-0.4-0.4-0.5-0.6-0.9-1.3l1.2-0.3c0.1,0.4,0.2,0.6,0.4,0.8c0.5,0.5,1.2,0.8,2,0.8
		c1.6,0,2.6-1.1,2.6-2.7c0-1.5-1-2.6-2.5-2.6c-0.7,0-1.3,0.2-1.8,0.6c-0.3,0.3-0.5,0.5-0.6,0.8l-1.1-0.1c0.1-0.5,0.2-0.8,0.2-1.4
		l0.3-3.2c0-0.4,0-0.6,0-0.8s0-0.3,0-0.6c0.4,0.1,0.7,0.1,1.5,0.1h2.9c0.8,0,1.1,0,1.6-0.1v1.2c-0.5-0.1-1-0.1-1.6-0.1h-3.3
		L176.4,88.6z"/>
	<path class="st12" d="M184.5,89.7c-0.5-0.5-0.8-1.3-0.8-2.4c0-1.9,0.9-3,2.4-3s2.4,1.1,2.4,3c0,1-0.3,1.9-0.8,2.4
		c-0.4,0.4-1,0.6-1.7,0.6C185.5,90.3,184.9,90.1,184.5,89.7z M184.6,87.3c0,1.4,0.5,2.2,1.5,2.2c0.9,0,1.5-0.8,1.5-2.2
		s-0.5-2.2-1.5-2.2C185.2,85.2,184.6,85.9,184.6,87.3z M193.2,84.2l0.6,0.4l-8.5,10.8l-0.6-0.5L193.2,84.2z M190.7,94.7
		c-0.5-0.5-0.8-1.3-0.8-2.3c0-1.9,0.9-3,2.4-3s2.4,1.1,2.4,3c0,1-0.3,1.9-0.8,2.3c-0.4,0.4-1,0.6-1.7,0.6
		C191.7,95.4,191.2,95.2,190.7,94.7z M190.9,92.4c0,1.4,0.5,2.1,1.5,2.1c0.9,0,1.5-0.8,1.5-2.1c0-1.4-0.5-2.2-1.5-2.2
		S190.9,91,190.9,92.4z"/>
	<path class="st12" d="M203,94.8h-1v-4.4h-4.3v-1h4.3v-4.2h1v4.2h4.3v1H203V94.8z"/>
	<path class="st12" d="M214,85.8c0.7,0,1.1,0,1.2,0c0,0.4,0,0.7,0,1.2v7.1c0,0.6,0,1.1,0.1,1.4h-0.9v-0.9h-2.7v1.2h-0.9
		c0.1-0.4,0.1-0.9,0.1-1.7V87c0-0.7,0-1-0.1-1.3c0.3,0,0.5,0,1.2,0h0.3c0.3-0.7,0.5-1.4,0.6-2.1l1,0.2c-0.3,0.8-0.5,1.5-0.7,1.9h0.8
		V85.8z M211.6,89.7h2.7v-3.1h-2.7V89.7z M211.6,93.9h2.7v-3.4h-2.7V93.9z M221.3,85.8c0.6,0,1,0,1.2-0.1c0,0.3,0,0.4-0.1,0.9
		c-0.1,5.6-0.3,7.4-0.8,8.6c-0.3,0.6-0.7,0.9-1.6,0.9c-0.5,0-0.9,0-1.8-0.1c0-0.4-0.1-0.6-0.2-1c0.9,0.2,1.5,0.2,2,0.2
		s0.7-0.1,0.9-0.6c0.2-0.6,0.4-2,0.5-3.9c0.1-1.1,0.1-2.1,0.1-4.2h-4c-0.5,1-0.9,1.6-1.6,2.6c-0.2-0.2-0.4-0.5-0.7-0.6
		c0.9-0.9,1.5-2.1,2.1-3.5c0.2-0.5,0.3-1.1,0.4-1.4l1,0.2c0,0.1-0.1,0.3-0.2,0.5c-0.2,0.5-0.3,0.9-0.5,1.4h3.3V85.8z M219.1,92.4
		c-0.8-1.7-1.3-2.6-2.1-3.6l0.7-0.4c0.9,1.1,1.5,2,2.2,3.5L219.1,92.4z"/>
	<path class="st12" d="M227,88.5h0.6c0.4,0,0.6,0,0.9-0.1v0.9c-0.4,0-0.6-0.1-0.9-0.1H227v3.4c0.5-0.2,0.9-0.4,1.8-0.9v0.9
		c-1.2,0.7-2.2,1.1-3.6,1.6c-0.3,0.1-0.6,0.2-0.8,0.3l-0.3-1c0.5-0.1,1.2-0.3,1.8-0.6c0.1,0,0.1,0,0.1,0v-3.7h-0.7
		c-0.4,0-0.6,0-0.9,0.1v-0.8c0.3,0.1,0.5,0.1,1,0.1h0.6v-3.3h-0.5c-0.6,0-0.8,0-1.2,0.1v-0.9c0.4,0.1,0.6,0.1,1.2,0.1h2.1
		c0.5,0,0.8,0,1.2-0.1v0.9c-0.4,0-0.6-0.1-1.1-0.1h-0.6v3.2H227z M233.2,86.2c-0.1,0.3-0.1,0.7-0.1,1.3c0,3.9-0.2,5-0.9,6.2
		c-0.5,0.8-1.3,1.4-2.3,2c-0.5,0.3-1,0.4-1.9,0.7c-0.2-0.3-0.3-0.5-0.6-0.8c2-0.5,3.2-1.1,3.9-2.1c0.8-1,1-2,1-5.1
		c0-1.4,0-1.8-0.1-2.2L233.2,86.2L233.2,86.2z M229.3,92.5c0.1-0.4,0.1-0.9,0.1-1.6v-5.3c0-0.9,0-1.1-0.1-1.5c0.4,0,0.9,0.1,1.6,0.1
		h3.5c0.7,0,1.2,0,1.6-0.1c0,0.3-0.1,0.7-0.1,1.4v5.4c0,0.8,0,1.2,0.1,1.6h-1c0.1-0.4,0.1-0.9,0.1-1.6V85h-4.8v5.9
		c0,0.8,0,1.2,0.1,1.6L229.3,92.5L229.3,92.5z M233.8,91.5c0,0.4,0,0.8,0,1.3v2c0,0.4,0.1,0.5,0.7,0.5c0.7,0,1.1-0.1,1.2-0.2
		c0.2-0.2,0.3-0.9,0.3-1.9c0.2,0.1,0.5,0.2,0.9,0.3c-0.2,1.4-0.3,1.9-0.4,2.2c-0.3,0.4-0.8,0.5-2.1,0.5c-1.2,0-1.4-0.2-1.4-1.2v-2.2
		c0-0.6,0-0.9,0-1.3L233.8,91.5L233.8,91.5z"/>
	<path class="st12" d="M244.9,84c0.7,0.9,1.1,1.3,1.9,2c1.1,0.9,2.6,1.8,4.1,2.3c-0.3,0.4-0.4,0.6-0.5,0.9c-1.1-0.5-1.6-0.8-2.6-1.4
		v0.8c-0.4-0.1-0.7-0.1-1.3-0.1h-1.7v1.9h3.8c0.6,0,1,0,1.4-0.1v1c-0.4-0.1-0.8-0.1-1.4-0.1h-3.8v3.7h4.1c0.6,0,1.1,0,1.5-0.1v1
		c-0.5-0.1-1-0.1-1.5-0.1H240c-0.5,0-1.1,0-1.6,0.1v-1c0.5,0.1,1,0.1,1.6,0.1h3.9v-3.7h-3.5c-0.5,0-1,0-1.4,0.1v-1
		c0.4,0.1,0.8,0.1,1.4,0.1h3.5v-1.9h-1.5c-0.6,0-0.9,0-1.3,0.1v-0.9c-0.6,0.4-0.6,0.4-2.5,1.4c-0.1-0.2-0.2-0.3-0.2-0.4
		c0,0-0.1-0.1-0.2-0.2c0-0.1-0.1-0.2-0.2-0.3c1.4-0.5,2.4-1.1,3.4-1.9c1.2-1,2-1.9,2.9-3.1l0.8,0.4L244.9,84z M241.2,91.7
		c0.5,0.8,0.8,1.5,1.2,2.5l-0.8,0.3c-0.3-1-0.7-1.7-1.2-2.5L241.2,91.7z M246.6,87.7c0.5,0,0.9,0,1.2-0.1c-1.3-0.9-2.5-1.9-3.3-3
		c-1,1.2-2.1,2.2-3.3,3c0,0,0,0,0.1,0c0.2,0,0.6,0,1.1,0h4.2V87.7z M248.6,92.1c-0.6,1.3-0.9,1.7-1.5,2.6l-0.8-0.3
		c0.6-0.8,1-1.6,1.4-2.7L248.6,92.1z"/>
	<path class="st12" d="M252.6,87.1c1,0.6,1.5,1,2.4,1.8l-0.5,0.8c-0.9-0.9-1.4-1.3-2.4-1.9L252.6,87.1z M255.2,91.7
		c-0.7,1.8-0.9,2.3-1.9,4c-0.1,0.1-0.1,0.2-0.2,0.3l-0.8-0.7c0.7-0.7,1.5-2.1,2.2-4.1L255.2,91.7z M253.3,83.7
		c0.9,0.7,1.5,1.2,2.2,2l-0.6,0.7c-0.7-0.9-1.2-1.4-2.2-2.1L253.3,83.7z M257.8,89.6c-0.1,0.3-0.1,0.4-0.1,1.2c0,1.7-0.3,2.7-1,3.8
		c-0.4,0.6-0.8,1-1.6,1.5c-0.3-0.3-0.4-0.5-0.7-0.7c1.8-1,2.5-2.4,2.5-4.8c0-0.4,0-0.7-0.1-1.1h1V89.6z M256.2,88.2
		c0.3,0,0.4-0.1,0.6-0.2c0.1-0.1,0.1-0.1,0.3-0.3c0.7-0.7,0.9-0.9,1.6-2h-1.5c-0.6,0-1,0-1.3,0.1v-0.9c0.3,0.1,0.7,0.1,1.3,0.1h2.6
		c-0.3-0.4-0.4-0.7-0.7-1l0.7-0.4c0.4,0.5,0.5,0.6,0.9,1.5h2.5c0.6,0,1,0,1.4-0.1v0.9c-0.4,0-0.8-0.1-1.4-0.1h-3.6
		c-0.8,1.2-1.2,1.7-2,2.4c0.6,0,0.6,0,2.2-0.2c0.8-0.1,1-0.1,2.5-0.2c-0.4-0.4-0.6-0.6-1.2-1l0.7-0.4c1,0.8,1.8,1.6,2.8,2.8
		l-0.7,0.5c-0.4-0.6-0.6-0.8-0.9-1.2c-0.7,0.1-1.2,0.2-2.7,0.3c-1.9,0.2-1.9,0.2-2.7,0.2c-0.7,0.1-0.7,0.1-1.3,0.1L256.2,88.2z
		 M259.1,95.6c0.1-0.4,0.1-0.8,0.1-1.3v-3.4c0-0.5,0-0.9-0.1-1.2h1c-0.1,0.4-0.1,0.7-0.1,1.2v3.4c0,0.5,0,1,0.1,1.3H259.1z
		 M262.7,94.7c0,0.4,0.1,0.4,0.6,0.4c0.6,0,0.8-0.1,0.9-0.3s0.2-0.9,0.2-1.7c0.3,0.2,0.5,0.3,0.8,0.4c-0.1,2.2-0.3,2.4-1.9,2.4
		c-1.2,0-1.4-0.2-1.4-0.9v-4c0-0.7,0-1-0.1-1.4h1c-0.1,0.4-0.1,0.7-0.1,1.4V94.7z"/>
	<path class="st12" d="M268,92.4c0.7-0.3,1.4-0.6,1.8-0.8v-6.4c0-0.6,0-1-0.1-1.5h1c-0.1,0.4-0.1,0.8-0.1,1.5v9.7
		c0,0.7,0,1.1,0.1,1.5h-1c0.1-0.4,0.1-0.8,0.1-1.5v-2.4c-0.3,0.1-0.4,0.2-0.8,0.4c-0.6,0.3-0.7,0.3-1.3,0.5
		c-0.3,0.2-0.3,0.2-0.7,0.3l-0.4-0.9c0.4-0.2,0.4-0.3,0.5-0.7v-5.8c0-0.6,0-1.1-0.1-1.5h1c-0.1,0.4-0.1,0.8-0.1,1.5v6.1H268z
		 M277.2,86.9c-0.1,1.4-0.1,1.6-0.3,2.5c-0.3,1.3-0.6,2.2-1.2,3.1c1,1.2,2.1,2.1,3.6,2.9c-0.3,0.3-0.4,0.5-0.6,0.9
		c-1.5-1-2.4-1.8-3.5-3c-0.8,1.1-2,2.1-3.6,3c-0.4-0.5-0.5-0.7-0.7-0.8c1.7-0.9,2.8-1.7,3.6-3c-0.8-1.2-1.4-2.5-1.9-3.9
		c-0.5,0.9-0.6,1.1-1.2,1.8c-0.2-0.3-0.3-0.5-0.7-0.7c0.9-1,1.4-2,1.9-3.4c0.3-1,0.5-2,0.6-2.8l1,0.2c-0.1,0.2-0.1,0.3-0.4,1.7
		c0,0.2-0.1,0.4-0.2,0.7h3.8c0.6,0,1,0,1.3-0.1v1c-0.4-0.1-0.7-0.1-1.3-0.1L277.2,86.9L277.2,86.9z M273.4,86.9
		c-0.1,0.2-0.1,0.3-0.2,0.6c0.4,1.2,0.4,1.4,0.8,2.2s0.6,1.3,1.1,2c0.8-1.4,1.2-2.9,1.2-4.8H273.4z"/>
	<path class="st12" d="M282.2,91.7c0-0.7,0-0.9,0-1.2c0.4,0,0.9,0.1,1.5,0.1h5.9c0.6,0,1.1,0,1.5-0.1c-0.1,0.3-0.1,0.6-0.1,1.2V95
		h0.8c0.6,0,0.8,0,1.2-0.1v1c-0.4,0-0.7-0.1-1.2-0.1h-10c-0.5,0-1,0-1.3,0.1v-1c0.3,0.1,0.6,0.1,1.1,0.1h0.8v-3.3H282.2z M287.7,86
		c0.6-0.8,1.1-1.5,1.5-2.6l0.9,0.3c-0.5,1-0.8,1.5-1.4,2.2h2.7c0.7,0,1.1,0,1.4-0.1v1c-0.4-0.1-0.9-0.1-1.4-0.1h-9.5
		c-0.6,0-1,0-1.4,0.1v-1c0.4,0.1,0.8,0.1,1.4,0.1h5.8V86z M285,87.7c-1.1,1.2-2.2,2-3.7,2.7c-0.2-0.4-0.3-0.5-0.6-0.7
		c1.7-0.6,2.8-1.4,3.6-2.5L285,87.7z M283.8,83.4c0.6,0.7,1,1.2,1.5,2.1l-0.8,0.4c-0.5-1-0.8-1.4-1.5-2.2L283.8,83.4z M283.1,95h1.8
		v-3.6h-1.8V95z M285.7,95h1.8v-3.6h-1.8V95z M291.5,90.6c-0.8-0.8-1-1-1.6-1.5c-0.8-0.6-1.1-0.8-1.9-1.3l0.5-0.6
		c0.4,0.3,0.4,0.3,1.4,1c0.8,0.5,1.4,1,2.1,1.7L291.5,90.6z M288.3,95h1.8v-3.6h-1.8V95z"/>
</g>
<g>
	<path class="st12" d="M630.4,110.3c0.7,0,1.1,0,1.5-0.1c-0.1,0.4-0.1,0.8-0.1,1.3v9.2c0,0.7,0,1.1,0.1,1.5h-1v-0.9h-7.2v0.9h-1
		c0.1-0.4,0.1-0.8,0.1-1.4v-9.1c0-0.6,0-1-0.1-1.4c0.4,0.1,0.9,0.1,1.5,0.1h6.2V110.3z M630.9,113.6v-2.4h-7.2v2.4H630.9z
		 M623.6,117h7.2v-2.5h-7.2V117z M623.6,120.4h7.2v-2.6h-7.2V120.4z"/>
	<path class="st12" d="M637.9,120.7c0,0.8,0,1.2,0.1,1.6h-1c0.1-0.4,0.1-0.9,0.1-1.6v-3.9c0-0.6,0-1.4,0.1-2.3
		c-0.4,1.9-1,3.1-1.9,4.5c-0.2-0.4-0.3-0.5-0.6-0.8c0.7-0.8,1.2-1.9,1.7-3.1c0.2-0.5,0.4-1.5,0.5-2h-0.7c-0.4,0-0.8,0-1.2,0.1v-0.9
		c0.3,0.1,0.6,0.1,1.2,0.1h0.9v-1.3c0-0.6,0-1-0.1-1.4h1c-0.1,0.4-0.1,0.8-0.1,1.4v1.3h0.8c0.4,0,0.6,0,0.9-0.1v0.9
		c-0.3,0-0.6-0.1-0.9-0.1h-0.8v0.7c0.8,1,1.2,1.5,1.8,2.3l-0.7,0.6c-0.3-0.6-0.7-1.2-1.2-1.9v5.9H637.9z M641.9,116.1
		c-0.5,2-1.1,3.1-2.2,4.7c-0.2-0.3-0.3-0.4-0.7-0.7c1.1-1.2,1.6-2.2,2.1-4.3L641.9,116.1z M641,114.5c-0.5,0-0.9,0-1.3,0.1v-1
		c0.4,0.1,0.7,0.1,1.3,0.1h5.4c0.6,0,0.9,0,1.3-0.1v1c-0.4-0.1-0.8-0.1-1.3-0.1h-2.3v6.2c0,0.6,0,0.6-0.1,0.8
		c-0.2,0.4-0.5,0.5-1.3,0.5c-0.3,0-0.6,0-1.2-0.1c0-0.4-0.1-0.6-0.3-0.9c0.7,0.1,1,0.1,1.5,0.1c0.4,0,0.4,0,0.4-0.3v-6.3H641z
		 M640.4,110.3c0.3,0.1,0.6,0.1,1.1,0.1h4.2c0.5,0,0.7,0,1.1-0.1v1c-0.4,0-0.6-0.1-1.1-0.1h-4.2c-0.4,0-0.8,0-1.1,0.1V110.3z
		 M647.1,120.6c-0.7-2.3-1.1-3.2-1.9-4.5l0.8-0.3c0.5,0.9,1.4,2.9,1.9,4.4L647.1,120.6z"/>
	<path class="st12" d="M651.1,111.4c-0.4,0.6-0.8,0.9-1.3,1.4c-0.3-0.3-0.3-0.3-0.7-0.6c1.1-0.8,1.8-1.6,2.2-2.8l0.9,0.3
		c-0.2,0.4-0.3,0.6-0.6,1h2.4c0.6,0,0.9,0,1.2-0.1v0.8c-0.4,0-0.5,0-1.1,0H653c0.3,0.4,0.4,0.7,0.6,1.2l-0.8,0.3
		c-0.2-0.6-0.4-1-0.7-1.5L651.1,111.4L651.1,111.4z M659.8,113.2c0.6,0,1,0,1.4-0.1c0,0.3-0.1,0.5-0.1,0.9v0.7c0,0.4,0,0.7,0.1,0.9
		h-0.9v-1.8h-9.8v1.8h-0.9c0-0.3,0.1-0.5,0.1-0.9V114c0-0.4,0-0.6-0.1-0.9c0.4,0,0.7,0.1,1.4,0.1h3.9c-0.2-0.3-0.3-0.4-0.6-0.8
		l0.7-0.4c0.2,0.3,0.5,0.7,0.8,1.2H659.8z M651.4,122.3c0.1-0.5,0.1-0.9,0.1-1.4v-5.1c0-0.5,0-0.7-0.1-1c0.4,0.1,0.8,0.1,1.4,0.1h5
		c0.6,0,1,0,1.4-0.1c0,0.3,0,0.6,0,1v0.8c0,0.5,0,0.8,0.1,1.1c-0.4,0-0.8-0.1-1.4-0.1h-5.5v1h6.3c0.6,0,0.9,0,1.3-0.1
		c-0.1,0.4-0.1,0.7-0.1,1.3v1.1c0,0.5,0,0.9,0.1,1.3h-0.9v-0.7h-6.7v0.7L651.4,122.3L651.4,122.3z M652.3,116.9h6v-1.3h-6V116.9z
		 M652.3,120.9h6.7v-1.5h-6.7V120.9z M656.6,111.4c-0.2,0.3-0.3,0.4-0.8,0.9c-0.2-0.2-0.4-0.3-0.7-0.5c0.8-0.8,1.2-1.3,1.5-2.4
		l0.9,0.2c-0.2,0.4-0.3,0.7-0.5,1h3.4c0.6,0,0.9,0,1.2-0.1v0.9c-0.4-0.1-0.6-0.1-1.2-0.1h-1.9c0.3,0.4,0.5,0.7,0.7,1.2l-0.8,0.3
		c-0.3-0.6-0.4-1-0.7-1.5h-1.1V111.4z"/>
	<path class="st12" d="M665.7,114.5h0.6c0.4,0,0.6,0,0.9-0.1v0.9c-0.3,0-0.6-0.1-0.9-0.1h-0.6v3.6c0.9-0.4,1-0.4,1.6-0.8l0.1,0.9
		c-1.3,0.6-1.9,0.9-3.5,1.5c-0.4,0.1-0.5,0.2-0.7,0.3l-0.3-1c0.5-0.1,1.2-0.3,1.9-0.6v-3.9h-0.7c-0.4,0-0.6,0-0.9,0.1v-0.9
		c0.3,0.1,0.5,0.1,0.9,0.1h0.7v-3.3h-0.7c-0.6,0-0.7,0-1.1,0.1v-0.9c0.3,0.1,0.6,0.1,1.2,0.1h2.1c0.5,0,0.8,0,1.2-0.1v0.9
		c-0.4,0-0.6-0.1-1.1-0.1h-0.7V114.5z M671.9,118.1h2.1c0.7,0,1,0,1.4-0.1v0.9c-0.4-0.1-0.7-0.1-1.4-0.1h-2.1v2.1h2.6
		c0.7,0,1,0,1.4-0.1v0.9c-0.4-0.1-0.7-0.1-1.4-0.1h-6.3c-0.7,0-1,0-1.4,0.1v-0.9c0.4,0.1,0.7,0.1,1.3,0.1h2.9v-2.1h-1.9
		c-0.7,0-1,0-1.3,0.1V118c0.4,0.1,0.6,0.1,1.3,0.1h1.9v-1.6h-1.4c-0.9,0-1.3,0-1.7,0.1c0-0.3,0-0.4,0-0.5c0-0.2,0-0.2,0-1.1v-3
		c0-0.9,0-1.3-0.1-1.8c0.4,0.1,0.9,0.1,1.8,0.1h3.7c1,0,1.4,0,1.8-0.1c0,0.4-0.1,0.9-0.1,1.8v2.8c0,0.9,0,1.4,0.1,1.8
		c-0.5,0-0.9-0.1-1.7-0.1h-1.6v1.6H671.9z M671,111h-2.3v2h2.3V111z M671,113.8h-2.3v2h2.3V113.8z M674.2,113v-2h-2.4v2H674.2z
		 M674.2,115.8v-2h-2.4v2H674.2z"/>
	<path class="st12" d="M693.3,110.5c0.4,0.1,0.6,0.1,1.2,0.1h0.9c0.5,0,0.7,0,1.2-0.1c-0.1,0.9-0.1,1.6-0.1,2.3v6.8
		c0,0.7,0,1.1,0.1,1.6h-1.3c0.1-0.5,0.1-0.9,0.1-1.6v-8.1h-0.9c-0.4,0-0.8,0-1.2,0.1V110.5z"/>
	<path class="st12" d="M702.3,120.4c-0.4-0.4-0.7-0.8-0.8-1.3c-0.4-1-0.5-2.1-0.5-3.2c0-1.5,0.3-3,0.8-3.8c0.7-1.1,1.8-1.7,3.1-1.7
		c1,0,1.9,0.3,2.6,1c0.4,0.4,0.7,0.8,0.8,1.3c0.4,1,0.5,2.1,0.5,3.3c0,1.7-0.4,3.2-1,4.1c-0.7,1-1.7,1.5-3,1.5
		C703.8,121.4,702.9,121.1,702.3,120.4z M703.1,112c-0.3,0.3-0.5,0.7-0.6,1c-0.3,0.9-0.4,1.8-0.4,2.8c0,1.3,0.3,2.7,0.7,3.3
		c0.5,0.8,1.2,1.2,2.2,1.2c0.7,0,1.3-0.2,1.7-0.7c0.3-0.3,0.5-0.7,0.7-1.1c0.3-0.9,0.4-1.8,0.4-2.8c0-1.2-0.3-2.6-0.6-3.3
		c-0.5-0.8-1.2-1.3-2.2-1.3C704.1,111.3,703.5,111.5,703.1,112z"/>
	<path class="st12" d="M711.5,120.4c-0.4-0.4-0.7-0.8-0.8-1.3c-0.4-1-0.5-2.1-0.5-3.2c0-1.5,0.3-3,0.8-3.8c0.7-1.1,1.8-1.7,3.1-1.7
		c1,0,1.9,0.3,2.6,1c0.4,0.4,0.7,0.8,0.8,1.3c0.4,1,0.5,2.1,0.5,3.3c0,1.7-0.4,3.2-1,4.1c-0.7,1-1.7,1.5-3,1.5
		C713,121.4,712.2,121.1,711.5,120.4z M712.3,112c-0.3,0.3-0.5,0.7-0.6,1c-0.3,0.9-0.4,1.8-0.4,2.8c0,1.3,0.3,2.7,0.7,3.3
		c0.5,0.8,1.2,1.2,2.2,1.2c0.7,0,1.3-0.2,1.7-0.7c0.3-0.3,0.5-0.7,0.7-1.1c0.3-0.9,0.4-1.8,0.4-2.8c0-1.2-0.3-2.6-0.6-3.3
		c-0.5-0.8-1.2-1.3-2.2-1.3C713.3,111.3,712.8,111.5,712.3,112z"/>
	<path class="st12" d="M720.7,116c0-0.5,0-1,0-1.7c-0.6,1-1,1.5-1.8,2.4c-0.1-0.3-0.3-0.6-0.6-0.8c1.3-1.3,2.2-2.7,3-4.5
		c0.3-0.7,0.4-1.2,0.5-1.7l1,0.4c-0.1,0.1-0.1,0.1-0.2,0.4c0,0.1-0.1,0.3-0.3,0.7c-0.4,0.9-0.5,1.2-0.9,2v7.5c0,0.8,0,1.2,0.1,1.6
		h-1.1c0.1-0.5,0.1-1,0.1-1.7V116H720.7z M730.6,111.6c-0.2,0.1-0.2,0.1-1,1c-0.1,0.1-0.3,0.3-0.6,0.6c-1.5,1.5-2.6,2.8-3.5,4
		c-0.8,1.1-1.2,2-1.2,2.8c0,0.4,0.2,0.7,0.5,0.9c0.3,0.1,1.2,0.2,2.2,0.2c0.8,0,1.8-0.1,2.1-0.2c0.6-0.2,0.8-0.8,0.8-2.8
		c0.5,0.3,0.6,0.3,1,0.4c-0.1,1.6-0.3,2.5-0.6,2.9c-0.5,0.5-1.3,0.6-3.2,0.6c-1.3,0-2-0.1-2.6-0.3c-0.8-0.3-1.2-0.8-1.2-1.7
		c0-1,0.5-2.1,1.6-3.6c0.7-0.9,1.6-2,2.8-3.2l1.4-1.4h-3.9c-0.7,0-1.1,0-1.6,0.1v-1c0.4,0.1,0.9,0.1,1.6,0.1h3.6
		c0.5,0,0.8,0,1.1-0.1L730.6,111.6z"/>
	<path class="st12" d="M734.2,117.9c-0.6,0-1.1,0-1.6,0.1v-1c0.4,0.1,0.8,0.1,1.5,0.1h0.3v-1.9c0-0.6,0-1-0.1-1.3
		c0.4,0,0.7,0.1,1.4,0.1h2.6c0-0.6,0-0.9-0.1-1.3h1c-0.1,0.4-0.1,0.7-0.1,1.1c0,0.1,0,0.1,0,0.2h2.8c0.7,0,1,0,1.4-0.1
		c-0.1,0.3-0.1,0.7-0.1,1.3v1.9h0.4c0.8,0,1.1,0,1.5-0.1v1c-0.5-0.1-0.9-0.1-1.6-0.1h-4.3c0.6,1,1.1,1.4,2,2
		c1.1,0.7,2.2,1.1,3.9,1.5c-0.3,0.3-0.4,0.5-0.5,0.9c-3-0.8-5-2.1-6.1-4.1c-0.5,1.2-1.1,2-2.1,2.7c-0.9,0.6-1.9,1-3.4,1.3
		c-0.1-0.4-0.3-0.7-0.5-0.9c1.6-0.2,2.7-0.6,3.6-1.3c0.8-0.6,1.3-1.2,1.6-2.2h-3.5V117.9z M740.4,111v-0.3c0-0.4,0-0.6-0.1-1h1
		c-0.1,0.3-0.1,0.6-0.1,1v0.3h2.2c0.7,0,1.2,0,1.6-0.1v1c-0.4-0.1-0.9-0.1-1.6-0.1h-2.2v0.4c0,0.4,0,0.6,0.1,0.9h-1
		c0-0.3,0.1-0.5,0.1-0.9v-0.4h-3.3v0.4c0,0.4,0,0.6,0.1,0.9h-1c0-0.3,0.1-0.6,0.1-0.9v-0.4h-2c-0.7,0-1.1,0-1.6,0.1v-1
		c0.4,0.1,0.9,0.1,1.6,0.1h2v-0.3c0-0.4,0-0.7-0.1-1h1c-0.1,0.3-0.1,0.6-0.1,1v0.3H740.4z M738.1,117.1c0.1-0.6,0.2-1.2,0.2-2.4h-3
		v2.4H738.1z M742.5,117.1v-2.4h-3.3c0,1-0.1,1.7-0.2,2.4H742.5z"/>
	<path class="st12" d="M748.2,112c-0.4,0.8-0.8,1.3-1.3,1.9c-0.1-0.3-0.3-0.5-0.5-0.8c0.7-0.7,1.2-1.5,1.7-2.6
		c0.2-0.4,0.2-0.5,0.3-0.9l0.9,0.3c-0.2,0.3-0.2,0.3-0.3,0.7c-0.1,0.2-0.2,0.5-0.3,0.7h1.2c0.7,0,1.1,0,1.3-0.1v0.9
		c-0.4-0.1-0.7-0.1-1.3-0.1L748.2,112L748.2,112z M749.9,116.5c0.5,0,0.9,0,1.3-0.1v0.9c-0.4-0.1-0.8-0.1-1.3-0.1h-0.3v3.1
		c0.8-0.4,1.1-0.6,1.6-1v1c-0.4,0.2-0.4,0.2-1.6,0.9c-0.5,0.3-0.7,0.4-0.8,0.5l-0.4-0.9c0.3-0.2,0.3-0.3,0.3-0.6v-3h-0.8
		c-0.6,0-1,0-1.3,0.1v-0.9c0.4,0,0.8,0.1,1.3,0.1h0.7v-2h-0.4c-0.4,0-0.6,0-0.9,0.1v-0.9c0.2,0,0.5,0.1,0.9,0.1h1.7
		c0.4,0,0.7,0,0.9-0.1v0.9c-0.3,0-0.5-0.1-0.9-0.1h-0.5v2H749.9z M757.8,116c0.7,0,1.1,0,1.3-0.1v0.9c-0.3,0-0.8-0.1-1.4-0.1h-3.2
		c0,0.1,0,0.1,0,0.1c0,0.4-0.1,0.7-0.1,1.2h2.8c0.5,0,0.8,0,1.2-0.1c0,0.1,0,0.5-0.1,0.9c-0.1,1.5-0.2,2.4-0.4,2.7
		c-0.2,0.4-0.6,0.5-1.4,0.5c-0.4,0-0.7,0-1.3-0.1c-0.1-0.4-0.1-0.6-0.2-0.9c0.6,0.1,1.2,0.2,1.6,0.2c0.5,0,0.7-0.1,0.8-0.4
		c0.1-0.3,0.2-1.2,0.2-2.1h-3.2c-0.2,0.6-0.4,1.2-0.8,1.7c-0.5,0.7-1,1.2-2,1.8c-0.1-0.3-0.3-0.5-0.5-0.7c1.2-0.6,1.8-1.2,2.2-2.1
		c0.4-0.8,0.5-1.4,0.6-2.7h-0.8c-0.5,0-1,0-1.3,0.1v-0.9c0.3,0.1,0.6,0.1,1.2,0.1h2.3c-0.3-0.5-0.4-0.7-0.7-1.2l0.7-0.4
		c0.4,0.6,0.7,1.1,1,1.6H757.8z M753.2,111.7c-0.5,0-1,0-1.3,0.1v-0.9c0.3,0.1,0.8,0.1,1.4,0.1h1.8c-0.3-0.5-0.4-0.6-0.6-1.1
		l0.7-0.4c0.4,0.5,0.5,0.8,0.8,1.4h1.6c0.6,0,1.1,0,1.4-0.1v0.9c-0.4-0.1-0.8-0.1-1.3-0.1h-0.1c-0.2,0.8-0.4,1.3-0.6,1.9h0.9
		c0.6,0,1,0,1.3-0.1c0,0.3,0,0.5,0,0.8v0.4c0,0.3,0,0.6,0,0.8h-0.8v-1.2h-6.1v1.2h-0.8c0-0.2,0-0.5,0-0.7v-0.5c0-0.2,0-0.4,0-0.7
		c0.4,0,0.7,0.1,1.3,0.1h1C753.7,112.9,753.5,112.3,753.2,111.7L753.2,111.7z M754.2,111.7c0.2,0.7,0.4,1.2,0.5,1.9h1.5
		c0.3-0.7,0.4-1,0.5-1.9H754.2z"/>
	<path class="st12" d="M762.2,113.2c-0.4,0-0.8,0-1.2,0.1v-1c0.4,0.1,0.7,0.1,1.2,0.1h1v-1c0-0.9,0-1.2-0.1-1.5h1
		c-0.1,0.4-0.1,0.4-0.1,2.5h0.9c0.4,0,0.8,0,1.1-0.1v0.9c-0.3-0.1-0.6-0.1-1.1-0.1h-1c0,0.9,0,1.5-0.1,2.3h1c0.4,0,0.7,0,1.1-0.1v1
		c-0.3-0.1-0.7-0.1-1.1-0.1h-1.2c0,0.2,0,0.2,0,0.4c1,1,1.4,1.4,2.4,2.7l-0.7,0.7c-0.7-1.2-1.2-1.8-1.9-2.5
		c-0.4,1.8-1.1,3.1-2.4,4.3c-0.2-0.3-0.3-0.4-0.7-0.6c1-0.9,1.5-1.6,1.9-2.6c0.3-0.7,0.5-1.5,0.6-2.4h-1c-0.4,0-0.8,0-1.2,0.1v-1
		c0.4,0.1,0.7,0.1,1.2,0.1h1.1c0-0.6,0-0.6,0.1-2.3h-0.8V113.2z M770.1,112.2c-0.1,0.4-0.1,0.4-0.1,2.5c0,1.8-0.1,3-0.5,3.8
		c-0.4,1-0.9,1.8-1.9,2.6c-0.7,0.6-1.1,0.8-2.1,1.3c-0.2-0.3-0.3-0.5-0.6-0.8c1.3-0.5,2.2-1.1,3-2c0.9-1.1,1.2-2.1,1.2-4.8
		c0-2.1,0-2.2-0.1-2.6H770.1z M766.5,118.1c0.1-0.4,0.1-0.9,0.1-1.6v-4.9c0-0.9,0-1.1-0.1-1.5c0.4,0,0.9,0.1,1.6,0.1h3
		c0.7,0,1.2,0,1.6-0.1c0,0.3-0.1,0.7-0.1,1.4v5c0,0.8,0,1.2,0.1,1.5h-1.1c0.1-0.4,0.1-0.9,0.1-1.6v-5.5h-4.2v5.5
		c0,0.8,0,1.2,0.1,1.6h-1.1V118.1z M770.7,117.7c0,0.4,0,0.8,0,1.3v1.7c0,0.4,0.1,0.5,0.6,0.5c0.7,0,1-0.1,1.1-0.4
		c0.1-0.2,0.2-1,0.2-1.7c0.2,0.1,0.5,0.2,0.9,0.3c-0.2,1.4-0.3,1.9-0.4,2.2c-0.3,0.3-0.9,0.5-1.9,0.5c-1.1,0-1.3-0.2-1.3-1.2V119
		c0-0.6,0-0.9,0-1.3L770.7,117.7L770.7,117.7z"/>
	<path class="st12" d="M777.3,120.8c0,0.8,0,1.2,0.1,1.6h-1c0.1-0.4,0.1-0.9,0.1-1.6v-4c0-0.5,0-1.4,0.1-2.2c-0.5,1.9-0.9,2.9-1.6,4
		c-0.2-0.4-0.3-0.6-0.5-0.8c0.9-1.2,1.6-2.8,2-4.6h-0.6c-0.4,0-0.7,0-1,0.1v-0.9c0.2,0,0.5,0.1,1,0.1h0.7v-1.4c0-0.8,0-1.1-0.1-1.4
		h1c-0.1,0.4-0.1,0.7-0.1,1.4v1.4h0.6c0.4,0,0.6,0,0.9-0.1v0.9c-0.3,0-0.6,0-0.9,0h-0.6v0.7l0.2,0.3c0.5,0.6,1,1.4,1.4,2l-0.6,0.5
		c-0.4-0.7-0.6-1.2-1-1.7v5.7H777.3z M783.3,119.2c0.8,1.3,2.1,2,4.2,2.4c-0.2,0.3-0.3,0.5-0.4,0.9c-2.2-0.6-3.5-1.4-4.4-2.9
		c-0.7,1.4-2,2.3-4.2,2.8c-0.1-0.3-0.2-0.5-0.5-0.8c1.2-0.3,2-0.6,2.7-1c0.6-0.4,1-0.8,1.2-1.5h-2c-0.5,0-1,0-1.4,0.1v-0.9
		c0.3,0,0.8,0.1,1.4,0.1h2.2c0.1-0.3,0.1-0.3,0.1-1.1h-1.6c-0.4,0-0.8,0-1.3,0.1c0-0.4,0-0.7,0-1.2v-2.3c0-0.5,0-0.8,0-1.1
		c0.3,0,0.7,0.1,1.3,0.1h4.5c0.6,0,1,0,1.3-0.1c0,0.3-0.1,0.6-0.1,1.1v2.2c0,0.6,0,0.8,0.1,1.2c-0.4,0-0.8-0.1-1.3-0.1h-2
		c0,0.6-0.1,0.8-0.1,1.1h3c0.6,0,1,0,1.4-0.1v0.9c-0.4-0.1-0.8-0.1-1.4-0.1h-2.7V119.2z M781.7,111.7c0,0.4,0,0.5,0.1,0.8h-0.9
		c0-0.3,0.1-0.4,0.1-0.8v-0.1h-0.9c-0.6,0-1,0-1.3,0.1v-0.9c0.3,0.1,0.6,0.1,1.3,0.1h0.9v-0.3c0-0.4,0-0.7-0.1-0.9h1
		c0,0.3-0.1,0.5-0.1,0.9v0.3h2.2v-0.3c0-0.4,0-0.7-0.1-0.9h1c0,0.3-0.1,0.5-0.1,0.9v0.3h1.1c0.7,0,1.1,0,1.5-0.1v0.9
		c-0.4-0.1-0.8-0.1-1.4-0.1h-1.1v0.1c0,0.4,0,0.6,0,0.8H784c0-0.3,0-0.4,0-0.8v-0.1L781.7,111.7L781.7,111.7z M780.2,114.7h5.4v-1.1
		h-5.4V114.7z M780.2,116.6h5.4v-1.1h-5.4V116.6z"/>
	<path class="st12" d="M792.6,111.8c0.7,0,1.1,0,1.2,0c0,0.4,0,0.7,0,1.2v7.1c0,0.6,0,1.1,0.1,1.4H793v-0.9h-2.7v1.2h-0.9
		c0.1-0.4,0.1-0.9,0.1-1.7V113c0-0.7,0-1-0.1-1.3c0.3,0,0.5,0,1.2,0h0.3c0.3-0.7,0.5-1.4,0.6-2.1l1,0.2c-0.3,0.8-0.5,1.5-0.7,1.9
		h0.8V111.8z M790.2,115.7h2.7v-3.2h-2.7V115.7z M790.2,119.9h2.7v-3.4h-2.7V119.9z M799.8,111.8c0.6,0,1,0,1.2-0.1
		c0,0.3,0,0.4-0.1,0.9c-0.1,5.6-0.3,7.4-0.8,8.6c-0.3,0.6-0.7,0.9-1.6,0.9c-0.5,0-0.9,0-1.8-0.1c0-0.4-0.1-0.6-0.2-1
		c0.9,0.2,1.5,0.2,2,0.2s0.7-0.1,0.9-0.6c0.2-0.6,0.4-2,0.5-3.9c0.1-1.1,0.1-2.1,0.1-4.2h-4c-0.5,1-0.9,1.6-1.6,2.6
		c-0.2-0.2-0.4-0.5-0.7-0.6c0.9-0.9,1.5-2.1,2.1-3.5c0.2-0.5,0.3-1.1,0.4-1.4l1,0.2c0,0.1-0.1,0.3-0.2,0.5c-0.2,0.5-0.3,0.9-0.5,1.4
		h3.3V111.8z M797.6,118.4c-0.8-1.7-1.3-2.6-2.1-3.6l0.7-0.4c0.9,1.1,1.5,2,2.2,3.5L797.6,118.4z"/>
	<path class="st12" d="M804.4,115.9c0-0.6,0-1,0-1.7c-0.5,0.9-0.9,1.4-1.5,2.1c0-0.1-0.1-0.1-0.1-0.2c-0.1-0.3-0.1-0.3-0.4-0.7
		c1.2-1.3,1.9-2.5,2.7-4.2c0.3-0.8,0.5-1.4,0.6-1.8l1,0.3c-0.1,0.2-0.2,0.4-0.3,0.8c-0.2,0.5-0.6,1.5-1,2.3v7.7c0,0.6,0,1.2,0.1,1.7
		h-1.1c0.1-0.5,0.1-1,0.1-1.7L804.4,115.9L804.4,115.9z M809.5,113c0-0.5,0.1-1.5,0.1-2.1s0-0.9-0.1-1.3h1c0,0.2,0,0.9-0.1,2.2
		c0,0.3,0,0.4,0,1.2h3.4c0.7,0,1,0,1.3-0.1v1c-0.3-0.1-0.7-0.1-1.3-0.1h-3.4c-0.1,1.7-0.3,2.9-0.7,3.9c-0.5,1.8-1.5,3.2-3.1,4.5
		c-0.2-0.4-0.3-0.5-0.7-0.8c1-0.7,1.5-1.2,2-2.1c0.9-1.4,1.3-2.9,1.5-5.6h-2c-0.6,0-0.9,0-1.2,0.1v-1c0.3,0.1,0.6,0.1,1.3,0.1h2V113
		z M812,120.6c0,0.4,0.2,0.4,1.1,0.4c0.9,0,1.1-0.1,1.2-0.4c0.1-0.4,0.2-0.9,0.2-2c0.3,0.2,0.6,0.3,0.9,0.4
		c-0.1,1.2-0.2,1.8-0.4,2.2c-0.2,0.5-0.7,0.7-2.1,0.7c-1.5,0-1.8-0.1-1.8-1v-4.6c0-0.5,0-0.7,0-1.2h1c-0.1,0.4-0.1,0.6-0.1,1.2
		L812,120.6L812,120.6z M812.6,109.9c0.8,0.8,1.2,1.2,1.9,2.1l-0.7,0.5c-0.6-0.9-1.1-1.4-1.9-2.2L812.6,109.9z"/>
	<path class="st12" d="M820.6,119.9c0-0.5,0.1-1,0.1-1.7v-1.9c0-0.7,0-1.1,0-1.6c0.4,0.1,0.5,0.1,1.3,0.1h1.4
		c0.2-0.6,0.2-0.8,0.3-1.4h-4.4c-0.1,4.8-0.5,6.8-1.7,8.8c-0.3-0.3-0.4-0.5-0.7-0.7c0.5-0.8,0.7-1.3,1-2.2c0.4-1.6,0.6-3.7,0.6-7.1
		c0-1,0-1.3-0.1-1.8c0.4,0,0.6,0,1.2,0c1.9,0,4.4-0.2,6.1-0.4c1.1-0.2,1.5-0.3,2.2-0.5l0.7,0.8c-0.3,0.1-0.3,0.1-0.9,0.2
		c-0.4,0.1-1.7,0.3-2.6,0.4l-0.2,1.7h3.5c0.7,0,0.9,0,1.4-0.1v1c-0.5-0.1-0.7-0.1-1.4-0.1h-3.9c-0.1,0.5-0.1,0.7-0.3,1.4h2.6
		c0.9,0,1.1,0,1.5-0.1c0,0.4-0.1,0.8-0.1,1.7v1.9c0,0.6,0,1.2,0.1,1.7h-1c0-0.5,0.1-0.8,0.1-1.7v-2.8h-5.9v2.7c0,0.7,0,1.2,0,1.7
		H820.6z M824.8,116.2c0,0.1,0,0.3,0,0.6c0,0.5,0,0.7-0.1,1.1c-0.1,1.5-0.5,2.3-1.4,3c-0.6,0.5-1.4,0.8-2.6,1.1
		c-0.1,0-0.1,0-0.9,0.2c-0.1,0-0.3,0.1-0.5,0.1c0-0.3-0.1-0.6-0.4-0.9c0.3,0,0.6-0.1,0.7-0.1c1.7-0.2,2.6-0.6,3.4-1.3
		c0.6-0.6,0.9-1.3,0.9-2.8c0-0.4,0-0.6,0-0.9h0.9V116.2z M823.7,112.5c0.1-0.6,0.1-0.9,0.2-1.6c-2.1,0.1-3,0.2-4.7,0.2v1.4
		L823.7,112.5L823.7,112.5z M825,119.5c1.1,0.4,3.2,1.4,4.5,2l-0.5,0.8c-1.4-0.8-2.6-1.4-4.4-2.1L825,119.5z"/>
	<path class="st12" d="M839.5,111L839.5,111c0-0.6,0-1-0.1-1.3h1c-0.1,0.3-0.1,0.7-0.1,1.2v0.1h1.3c0.6,0,1,0,1.4-0.1v0.9
		c-0.4,0-0.9-0.1-1.4-0.1h-1.3v4.5h1.5c0.6,0,1,0,1.4-0.1v0.9c-0.4-0.1-0.8-0.1-1.4-0.1h-2.1c1,0.9,2.1,1.5,3.9,1.9
		c-0.2,0.3-0.3,0.5-0.5,0.9c-2.1-0.7-3.3-1.5-4.5-2.8h-3.5c-1,1.3-2.3,2.1-4.3,2.8c-0.2-0.4-0.2-0.5-0.5-0.8c1.7-0.4,3-1.1,3.8-2h-2
		c-0.6,0-1,0-1.4,0.1v-0.9c0.4,0.1,0.8,0.1,1.4,0.1h1.5v-4.5h-1.1c-0.5,0-1,0-1.4,0.1v-0.9c0.4,0.1,0.8,0.1,1.4,0.1h1.1v-0.1
		c0-0.6,0-0.9-0.1-1.2h1c0,0.3-0.1,0.7-0.1,1.2v0.1L839.5,111L839.5,111z M839.4,118.7c0.6,0,0.9,0,1.2-0.1v0.9
		c-0.4,0-0.7-0.1-1.2-0.1h-2v1.6h3.8c0.7,0,1.1,0,1.5-0.1v0.9c-0.4-0.1-0.9-0.1-1.5-0.1h-8.1c-0.6,0-1.1,0-1.5,0.1v-0.9
		c0.3,0,0.8,0.1,1.5,0.1h3.5v-1.5h-1.7c-0.5,0-0.8,0-1.2,0.1v-0.9c0.3,0,0.7,0.1,1.2,0.1h1.7v-0.1c0-0.5,0-0.8-0.1-1.1h1
		c-0.1,0.3-0.1,0.6-0.1,1.1v0.1h2V118.7z M834.6,112.7h4.9v-1h-4.9V112.7z M834.6,114.5h4.9v-1h-4.9V114.5z M834.6,116.2h4.9v-1
		h-4.9V116.2z"/>
	<path class="st12" d="M846.3,111.1c-0.5,0-0.8,0-1.2,0.1v-1c0.4,0.1,0.7,0.1,1.2,0.1h2.5c0.6,0,0.8,0,1.2-0.1v0.9
		c-0.4,0-0.7-0.1-1.1-0.1h-1.1c0,0.1,0,0.1-0.1,0.5c-0.1,0.8-0.4,1.9-0.9,3h1.8c0.4,0,0.6,0,0.9,0c0,0.3,0,0.5,0,1.1v4.3
		c0,0.5,0,0.9,0,1.2h-0.9v-0.6h-1.7v1.2H846c0.1-0.4,0.1-0.8,0.1-1.4v-3.1c0-0.5,0-1,0-1.6c-0.3,0.8-0.6,1.2-1.1,1.9
		c-0.2-0.4-0.3-0.5-0.5-0.8c0.8-1,1.4-2.1,1.9-3.5c0.2-0.7,0.4-1.5,0.5-2.2h-0.6V111.1z M846.9,119.8h1.8v-4.4h-1.8V119.8z
		 M853.3,111.1c0-0.6,0-1-0.1-1.4h1c-0.1,0.4-0.1,0.8-0.1,1.4v3.6h1.8v-2.9c0-0.4,0-0.7-0.1-1.1h1c-0.1,0.3-0.1,0.7-0.1,1.1v2.8
		c0,0.4,0,0.7,0,0.9c-0.3,0-0.5,0-0.9,0H854v5.3h2.1v-2.7c0-0.6,0-0.9-0.1-1.2h1c-0.1,0.3-0.1,0.8-0.1,1.2v2.8c0,0.5,0,0.8,0.1,1.3
		h-0.9v-0.6h-4.8c-0.3,0-0.6,0-1,0c0-0.3,0.1-0.7,0.1-1.3v-2.2c0-0.5,0-0.9-0.1-1.3h1c0,0.3-0.1,0.6-0.1,1.2v2.7h1.9v-5.3h-1.6
		c-0.3,0-0.6,0-0.9,0c0-0.3,0-0.6,0-0.9v-2.8c0-0.4,0-0.8-0.1-1.1h1c0,0.3-0.1,0.7-0.1,1.1v2.9h1.8L853.3,111.1L853.3,111.1z"/>
	<path class="st12" d="M862.8,113.5c-0.9,0.4-1.8,0.7-2.4,1c-0.5,0.2-0.5,0.2-0.7,0.3c-0.3,0.1-0.3,0.1-0.5,0.2l-0.3-0.9
		c1.3-0.3,2.3-0.6,3.7-1.2L862.8,113.5z M865.6,116.7c0,0.3,0,0.3-0.1,1c0,1.3-0.2,1.9-0.6,2.5c-0.4,0.6-1,1-2,1.4
		c-0.7,0.3-1.2,0.4-2.2,0.6c-0.1,0-0.5,0.1-1.2,0.1c-0.1-0.3-0.2-0.5-0.4-0.9c1.6,0,2.8-0.2,3.8-0.7c0.9-0.4,1.4-0.9,1.6-1.6
		c0.1-0.4,0.2-0.9,0.2-1.7c0-0.3,0-0.4-0.1-0.7L865.6,116.7L865.6,116.7z M862,111.8c-1.1-0.7-1.6-1-2.5-1.3l0.5-0.6
		c1.1,0.4,1.7,0.8,2.5,1.3L862,111.8z M860.7,120.1c0.1-0.4,0.1-0.9,0.1-1.6v-1.8c0-0.7,0-1,0-1.3c0.4,0,0.9,0.1,1.6,0.1h5.7
		c0.7,0,1.2,0,1.6-0.1c0,0.3-0.1,0.8-0.1,1.4v1.8c0,0.8,0,1.2,0.1,1.6h-1.1c0.1-0.5,0.1-0.9,0.1-1.6v-2.3h-6.9v2.3
		c0,0.5,0,1.2,0.1,1.6L860.7,120.1L860.7,120.1z M864.5,111.5c-0.3,0.4-0.8,0.9-1.3,1.3c-0.2-0.3-0.3-0.4-0.6-0.6
		c1.1-0.8,1.8-1.6,2.2-2.7l0.9,0.3c-0.3,0.5-0.4,0.7-0.6,1h4.6c0.5,0,0.7,0,0.9-0.1l0.5,0.5c-0.1,0.1-0.1,0.1-0.2,0.2
		c0,0,0,0.1-0.2,0.3c-0.4,0.6-0.7,0.9-1.3,1.3c-0.3-0.2-0.5-0.3-0.8-0.4c0.6-0.4,0.9-0.6,1.2-1.1h-2.6c0.2,0.7,0.6,1.3,1.2,1.8
		c0.7,0.6,1.7,1,3.1,1.2c-0.2,0.3-0.3,0.5-0.4,0.9c-1.2-0.3-1.9-0.6-2.6-1c-0.8-0.5-1.2-1-1.7-2c-0.3,0.8-0.8,1.4-1.6,1.9
		c-0.4,0.2-0.8,0.4-1.3,0.6c0,0-0.3,0.1-0.7,0.2c-0.1,0-0.2,0.1-0.4,0.1c-0.1-0.3-0.2-0.5-0.4-0.8c1.3-0.2,2.2-0.5,2.8-1.1
		c0.6-0.5,0.9-1,1.1-1.8L864.5,111.5L864.5,111.5z M866.1,119.6c2.5,0.8,3.3,1.1,5.2,1.9l-0.4,0.8c-2.3-1-2.4-1.1-5.2-2L866.1,119.6
		z"/>
	<path class="st12" d="M883.6,110.8c0.7,0,1.1,0,1.5-0.1v0.9c-0.5,0-0.8-0.1-1.5-0.1h-1.1c-0.1,0.2-0.1,0.3-0.2,0.6
		c-0.3,0.9-0.4,1.2-0.7,1.8h1.9c0.8,0,1.2,0,1.7-0.1v0.9c-0.5-0.1-0.8-0.1-1.7-0.1H875c0,2.6-0.1,3.3-0.3,4.6
		c-0.3,1.3-0.5,2-1.2,3.1c-0.3-0.4-0.4-0.5-0.7-0.7c0.6-0.9,0.9-1.5,1.1-2.5c0.2-1.1,0.3-2.3,0.3-4.1c0-0.5,0-0.8-0.1-1.3
		c0.4,0.1,0.7,0.1,1.5,0.1h1.7c-0.3-1.4-0.4-1.7-0.7-2.4h-1.4c-0.7,0-1,0-1.4,0.1v-0.9c0.4,0.1,0.8,0.1,1.4,0.1h3.6
		c-0.4-0.7-0.4-0.7-0.6-0.9l0.8-0.4c0.3,0.3,0.3,0.3,0.8,1.2c0,0,0,0,0.1,0.2L883.6,110.8L883.6,110.8z M880.6,113.9
		c0.2-0.4,0.4-0.7,0.6-1.7c0.1-0.4,0.2-0.5,0.2-0.7h-4c0.1,0.3,0.2,0.6,0.4,1.3c0.2,0.5,0.2,0.7,0.3,1.1L880.6,113.9L880.6,113.9z"
		/>
</g>
<g>
	<path class="st12" d="M722.2,43c0.9,0.1,1.5,0.2,2.8,0.2h2.1c1.2,0,1.7,0,2.8-0.2c-0.2,2.1-0.3,3.8-0.3,5.7v16.6
		c0,1.6,0.1,2.6,0.3,3.8h-3.2c0.2-1.2,0.3-2.3,0.3-3.8V45.5h-1.8c-1.1,0-2,0.1-3,0.2L722.2,43L722.2,43z"/>
	<path class="st12" d="M744.1,67.2c-0.9-0.9-1.6-2-2-3.1c-0.9-2.4-1.3-5.1-1.3-7.9c0-3.6,0.8-7.3,2-9.3c1.6-2.8,4.3-4.2,7.6-4.2
		c2.5,0,4.7,0.8,6.2,2.4c1,1,1.6,2,2,3.1c0.9,2.4,1.3,5.1,1.3,7.9c0,4.1-0.9,7.8-2.4,9.8c-1.7,2.4-4.1,3.6-7.2,3.6
		C747.8,69.6,745.7,68.8,744.1,67.2z M746.1,46.8c-0.7,0.8-1.3,1.6-1.5,2.5c-0.7,2.1-1.1,4.4-1.1,6.9c0,3.2,0.7,6.5,1.6,8.1
		c1.2,2,3,3,5.3,3c1.7,0,3.2-0.5,4.2-1.6c0.7-0.8,1.3-1.7,1.6-2.7c0.7-2.1,1.1-4.4,1.1-6.9c0-3-0.6-6.3-1.5-7.9
		c-1.1-2-3-3.1-5.3-3.1C748.5,45.1,747.1,45.6,746.1,46.8z"/>
	<path class="st12" d="M766.5,67.2c-0.9-0.9-1.6-2-2-3.1c-0.9-2.4-1.3-5.1-1.3-7.9c0-3.6,0.8-7.3,2-9.3c1.6-2.8,4.3-4.2,7.6-4.2
		c2.5,0,4.7,0.8,6.2,2.4c1,1,1.6,2,2,3.1c0.9,2.4,1.3,5.1,1.3,7.9c0,4.1-0.9,7.8-2.4,9.8c-1.7,2.4-4.1,3.6-7.2,3.6
		C770.2,69.6,768.1,68.8,766.5,67.2z M768.4,46.8c-0.7,0.8-1.3,1.6-1.5,2.5c-0.7,2.1-1.1,4.4-1.1,6.9c0,3.2,0.7,6.5,1.6,8.1
		c1.2,2,3,3,5.3,3c1.7,0,3.2-0.5,4.2-1.6c0.7-0.8,1.3-1.7,1.6-2.7c0.7-2.1,1.1-4.4,1.1-6.9c0-3-0.6-6.3-1.5-7.9
		c-1.1-2-3-3.1-5.3-3.1C770.9,45.1,769.5,45.6,768.4,46.8z"/>
	<path class="st12" d="M785.5,56.2"/>
	<path class="st12" d="M793,56.4c0-1.3,0-2.4,0.1-4.1c-1.4,2.4-2.5,3.7-4.3,5.7c-0.3-0.8-0.7-1.4-1.4-2c3.2-3.2,5.4-6.5,7.3-10.9
		c0.7-1.6,1.1-2.9,1.2-4.1l2.5,0.9c-0.1,0.3-0.1,0.3-0.4,0.9c-0.1,0.1-0.2,0.6-0.6,1.6c-0.9,2.2-1.2,2.9-2.2,5v18.1c0,2,0,3,0.2,4
		h-2.6c0.1-1.3,0.2-2.3,0.2-4.1V56.4z M817.1,45.9c-0.4,0.3-0.4,0.3-2.4,2.4c-0.1,0.2-0.6,0.7-1.4,1.4c-3.6,3.6-6.3,6.7-8.6,9.7
		c-1.9,2.6-2.9,4.8-2.9,6.7c0,1.1,0.4,1.7,1.3,2.1c0.7,0.3,2.9,0.6,5.4,0.6c1.8,0,4.3-0.2,5.1-0.5c1.5-0.5,2-2,2-6.8
		c1.3,0.7,1.5,0.8,2.4,1c-0.1,3.8-0.6,6.1-1.5,6.9c-1.1,1.1-3.3,1.6-7.9,1.6c-3.2,0-4.9-0.2-6.3-0.6c-1.9-0.6-2.9-1.9-2.9-4.1
		c0-2.5,1.1-5,4-8.8c1.6-2.2,4-4.8,6.8-7.7l3.3-3.4h-9.6c-1.8,0-2.8,0.1-3.8,0.2v-2.5c1,0.1,2.1,0.2,3.8,0.2h8.7
		c1.2,0,1.9,0,2.7-0.1L817.1,45.9z"/>
</g>
<g>
	<path class="st12" d="M167.5,9.8c-0.1,0.6-0.1,0.6-0.3,1.5c1.6-1.6,3.6-2.4,6-2.4c2.5,0,4.6,0.8,6.1,2.3s2.3,3.5,2.3,6
		c0,5.5-3.6,9-9.2,9c-2.7,0-4.9-0.8-6.5-2.3c-0.9-0.9-1.3-1.6-2.1-3.2l2.8-0.8c0.3,1,0.6,1.4,1.1,2c1.2,1.3,2.9,2,4.8,2
		c3.8,0,6.4-2.6,6.4-6.5c0-3.7-2.4-6.2-6-6.2c-1.7,0-3.2,0.5-4.5,1.4c-0.8,0.6-1.2,1.1-1.6,2l-2.6-0.2c0.3-1.3,0.4-2,0.5-3.5
		l0.7-7.7c0.1-1,0.1-1.4,0.1-2c0-0.5,0-0.6-0.1-1.5c1.1,0.1,1.6,0.2,3.6,0.2h7c1.8,0,2.6-0.1,4-0.3v2.9c-1.3-0.2-2.4-0.3-4-0.3h-8
		L167.5,9.8z"/>
	<path class="st12" d="M187.2,12.5c-1.2-1.2-1.9-3.2-1.9-5.7c0-4.6,2.2-7.3,5.9-7.3c3.7,0,5.9,2.7,5.9,7.3c0,2.5-0.6,4.5-1.9,5.7
		c-1,1-2.4,1.5-4,1.5S188.2,13.5,187.2,12.5z M187.6,6.7c0,3.3,1.3,5.2,3.6,5.2c2.3,0,3.6-1.9,3.6-5.2c0-3.4-1.3-5.2-3.6-5.2
		S187.6,3.4,187.6,6.7z M208.4-0.7l1.4,1.1l-20.6,26.1l-1.4-1.2L208.4-0.7z M202.4,24.8c-1.2-1.2-1.9-3.2-1.9-5.7
		c0-4.6,2.2-7.3,5.9-7.3c3.7,0,5.9,2.7,5.9,7.3c0,2.5-0.6,4.5-1.9,5.7c-1,1-2.4,1.5-4,1.5S203.4,25.8,202.4,24.8z M202.8,19.1
		c0,3.3,1.3,5.2,3.6,5.2c2.3,0,3.6-1.9,3.6-5.2c0-3.4-1.3-5.2-3.6-5.2C204.1,13.8,202.8,15.7,202.8,19.1z"/>
	<path class="st12" d="M226.2,26.1h-2.4v-8.2h-8.3v-2.4h8.2V7.3h2.4v8.2h8.2v2.3h-8.2v8.3H226.2z"/>
</g>
<g>
	<path class="st12" d="M837,254.2c0.5,1.8,1,2.5,2.1,3.2c1.2,0.8,2.7,1.2,4.4,1.2c4,0,6.4-2,6.4-5.3c0-3.4-2.4-5.2-6.9-5.2
		c-1,0-1.8,0.1-2.7,0.2v-2.7c0.8,0.1,1.6,0.2,2.5,0.2c2.2,0,3.9-0.5,5-1.6c0.9-0.8,1.4-2.1,1.4-3.3c0-2.9-2-4.6-5.5-4.6
		c-2.1,0-3.6,0.6-4.5,1.8c-0.5,0.6-0.7,1.2-1.1,2.4l-2.8-0.6c0.6-1.7,1-2.5,1.8-3.4c1.5-1.6,3.8-2.5,6.8-2.5c4.9,0,8.1,2.6,8.1,6.7
		c0,2.1-0.9,3.9-2.4,5c-0.9,0.6-1.6,0.9-3.2,1.2c2,0.2,3,0.6,4.2,1.5c1.5,1.2,2.3,3,2.3,5.1c0,4.6-3.5,7.5-9.2,7.5
		c-3.4,0-6-1-7.6-2.8c-0.7-0.8-1.1-1.6-1.7-3.3L837,254.2z"/>
</g>
<g>
	<path class="st12" d="M111.9,288.9c-2.1,0-2.7,0-3.7,0.2c0.4-2.7,0.5-3.2,1-4.5c0.9-2.1,2.3-4,4.4-5.9c1.2-1,1.3-1.1,5.2-3.7
		c3.4-2.3,4.5-3.8,4.5-5.9c0-2.6-2.2-4.3-5.7-4.3c-2.2,0-3.9,0.7-4.9,2.2c-0.6,0.9-1,1.7-1.2,3.4l-2.9-0.5c0.5-2.5,1-3.6,2.1-4.9
		c1.5-1.7,3.8-2.6,6.8-2.6c5.1,0,8.4,2.6,8.4,6.6c0,1.7-0.7,3.4-2,4.8c-1,1.2-1.9,1.8-5.8,4.4c-2.7,1.8-3.8,2.8-4.9,4.2
		c-1.1,1.4-1.5,2.3-1.9,4h10.9c1.7,0,2.9-0.1,4.2-0.2v2.9c-1.4-0.1-2.5-0.2-4.2-0.2H111.9z"/>
	<path class="st12" d="M134.5,272.9c-0.1,0.6-0.1,0.6-0.3,1.5c1.6-1.6,3.6-2.4,6-2.4c2.5,0,4.6,0.8,6.1,2.3s2.3,3.5,2.3,6
		c0,5.5-3.6,9-9.2,9c-2.7,0-4.9-0.8-6.5-2.3c-0.9-0.9-1.3-1.6-2.1-3.2l2.8-0.8c0.3,1,0.6,1.4,1.1,2c1.2,1.3,2.9,2,4.8,2
		c3.8,0,6.4-2.6,6.4-6.5c0-3.7-2.4-6.2-6-6.2c-1.7,0-3.2,0.5-4.5,1.4c-0.8,0.6-1.2,1.1-1.6,2l-2.6-0.2c0.3-1.3,0.4-2,0.5-3.5
		l0.7-7.7c0.1-1,0.1-1.4,0.1-2c0-0.5,0-0.6-0.1-1.5c1.1,0.1,1.6,0.2,3.6,0.2h7c1.8,0,2.6-0.1,4-0.3v2.9c-1.3-0.2-2.4-0.3-4-0.3h-8
		L134.5,272.9z"/>
	<path class="st12" d="M179.3,280.9c1.5,0,2.5-0.1,3.4-0.2v2.5c-1-0.1-2-0.2-3.4-0.2h-8.6v5.6c0,1.5,0.1,2.3,0.2,3.2h-2.7
		c0.2-0.9,0.2-1.6,0.2-3.2V283h-12.3c-1.4,0-2.5,0.1-3.4,0.2v-2.5c1,0.1,1.9,0.2,3.4,0.2h2.6v-6.7c0-0.7,0-1.3-0.1-2
		c0.7,0.1,1.5,0.1,2.4,0.1h7.4v-5.6h-8c-2,3.2-3.3,4.9-5.7,6.9c-0.5-0.8-0.9-1.1-1.6-1.6c3.4-2.9,5.2-5.3,6.8-9.2
		c0.4-1,0.7-1.8,0.9-2.5l2.4,0.7c-0.3,0.6-0.3,0.7-1.5,3.2c-0.1,0.2-0.1,0.3-0.2,0.5h16.9c1.5,0,2.2,0,3.1-0.2v2.3
		c-0.9-0.1-1.7-0.2-3.1-0.2h-7.7v5.6h6.2c1.4,0,2.1,0,3-0.2v2.2c-0.9-0.1-1.7-0.1-3-0.1h-6.2v6.7h8.6V280.9z M168.5,274.3H161v6.7
		h7.5V274.3z"/>
</g>
</svg>
