<?xml version="1.0" encoding="utf-8"?>
<!-- Generator: Adobe Illustrator 19.0.0, SVG Export Plug-In . SVG Version: 6.00 Build 0)  -->
<svg version="1.1" id="Layer_02" xmlns="http://www.w3.org/2000/svg" xmlns:xlink="http://www.w3.org/1999/xlink" x="0px" y="0px"
	 viewBox="0 0 30 30" style="enable-background:new 0 0 30 30;" xml:space="preserve">
<style type="text/css">
	.st0{fill:#CBA12D;}
</style>
<polygon class="st0" points="21,18.9 21,13.5 13.5,13.5 13.5,21 18.9,21 22.5,24.6 22.5,30 30,30 30,22.5 24.6,22.5 "/>
<path class="st0" d="M28.7,21c0.8-1.9,1.2-3.9,1.2-6c0-6.6-4.4-12.5-10.7-14.4C12.9-1.3,6.1,1.2,2.5,6.8c-3.6,5.5-3.2,12.8,1.1,17.9
	c4.3,5.1,11.4,6.7,17.5,4.1c0-1.2,0-2.3,0-3.5c-0.7-0.7-1.4-1.4-2.1-2.1C10.7,27,2.6,17.8,7.4,10.2C12.2,2.6,24,6,24,15
	c0,1.4-0.3,2.6-0.9,3.9c0.7,0.7,1.4,1.4,2.1,2.1C26.4,21,27.6,21,28.7,21z"/>
</svg>
