<?xml version="1.0" encoding="utf-8"?>
<!-- Generator: Adobe Illustrator 19.0.0, SVG Export Plug-In . SVG Version: 6.00 Build 0)  -->
<svg version="1.1" id="图层_1" xmlns="http://www.w3.org/2000/svg" xmlns:xlink="http://www.w3.org/1999/xlink" x="0px" y="0px"
	 viewBox="0 0 30 30" style="enable-background:new 0 0 30 30;" xml:space="preserve">
<style type="text/css">
	.st0{fill:#FFFFFF;}
</style>
<g id="XMLID_43_">
	<path id="XMLID_28_" class="st0" d="M15,30C6.7,30,0,23.3,0,15C0,6.7,6.7,0,15,0c8.3,0,15,6.7,15,15C30,23.3,23.3,30,15,30z M15,2
		C7.8,2,2,7.8,2,15c0,7.2,5.8,13,13,13c7.2,0,13-5.8,13-13C28,7.8,22.2,2,15,2z"/>
</g>
<g id="XMLID_48_">
	<polygon class="st0" points="10.6,7.6 10.6,22.4 21.1,15 	"/>
</g>
</svg>
